g ConstructionSite_Prop_SteelCable_01
v -0.020703733 -7.396043 0.020702943
v 0.020703733 -7.396043 0.020702943
v 0.020703733 -7.396043 -0.020704495
v -0.020703733 -7.396043 -0.020704495
v -0.020703733 7.396043 0.020704495
v -0.020703733 7.396043 -0.020702943
v 0.020703733 7.396043 -0.020702943
v 0.020703733 7.396043 0.020704495
v 0.020703733 -7.396043 -0.020704495
v -0.020703733 -6.8408847 -0.020704435
v -0.020703733 -7.396043 -0.020704495
v 0.020703733 -6.8408847 -0.020704435
v 0.020703733 -7.396043 0.020702943
v -0.020703733 -5.5970874 -0.020704307
v 0.020703733 -6.8408847 0.020703001
v -0.020703733 -7.396043 0.020702943
v 0.020703733 -5.5970874 -0.020704307
v -0.020703733 -4.35329 -0.020704176
v -0.020703733 -6.8408856 0.020703001
v -0.020703733 -7.396043 -0.020704495
v -0.020703733 -6.8408847 -0.020704435
v 0.020703733 -5.5970874 0.020703131
v 0.020703733 -4.35329 -0.020704176
v -0.020703733 -3.1094933 -0.020704044
v -0.020703733 -5.5970864 0.020703131
v -0.020703733 -5.5970874 -0.020704307
v 0.020703733 -4.35329 0.02070326
v 0.020703733 -3.1094933 -0.020704044
v -0.020703733 -1.8656963 -0.020703914
v -0.020703733 -4.35329 0.02070326
v -0.020703733 -4.35329 -0.020704176
v 0.020703733 -3.1094933 0.020703392
v 0.020703733 -1.8656963 -0.020703914
v -0.020703733 -0.6218988 -0.020703785
v -0.020703733 -3.1094928 0.020703392
v -0.020703733 -3.1094933 -0.020704044
v 0.020703733 -1.8656963 0.020703522
v 0.020703733 -0.6218988 -0.020703785
v -0.020703733 0.6218982 -0.020703655
v -0.020703733 -1.8656957 0.020703522
v -0.020703733 -1.8656963 -0.020703914
v 0.020703733 0.6218982 -0.020703655
v -0.020703733 1.8656957 -0.020703522
v 0.020703733 -0.6218988 0.020703655
v -0.020703733 -0.6218982 0.020703655
v -0.020703733 -0.6218988 -0.020703785
v 0.020703733 1.8656957 -0.020703522
v -0.020703733 3.1094928 -0.020703392
v 0.020703733 0.6218982 0.020703785
v -0.020703733 0.6218988 0.020703785
v -0.020703733 0.6218982 -0.020703655
v 0.020703733 3.1094928 -0.020703392
v -0.020703733 4.35329 -0.02070326
v 0.020703733 1.8656957 0.020703914
v -0.020703733 1.8656963 0.020703914
v -0.020703733 1.8656957 -0.020703522
v 0.020703733 4.35329 -0.02070326
v -0.020703733 5.5970864 -0.020703131
v 0.020703733 3.1094928 0.020704044
v -0.020703733 3.1094933 0.020704044
v -0.020703733 3.1094928 -0.020703392
v 0.020703733 5.5970864 -0.020703131
v -0.020703733 6.8408856 -0.020703001
v 0.020703733 4.35329 0.020704176
v -0.020703733 4.35329 0.020704176
v -0.020703733 4.35329 -0.02070326
v 0.020703733 6.8408856 -0.020703001
v -0.020703733 7.396043 -0.020702943
v 0.020703733 7.396043 -0.020702943
v 0.020703733 5.5970864 0.020704307
v -0.020703733 5.5970874 0.020704307
v -0.020703733 5.5970864 -0.020703131
v 0.020703733 6.8408856 0.020704435
v 0.020703733 7.396043 0.020704495
v -0.020703733 6.8408847 0.020704435
v -0.020703733 6.8408856 -0.020703001
v -0.020703733 7.396043 0.020704495
v -0.020703733 7.396043 -0.020702943
vt 0.7988448 0.30586573
vt 0.8077247 0.30586573
vt 0.8077247 0.29698607
vt 0.7988448 0.29698607
vt 0.79885525 0.27292097
vt 0.79885525 0.28180063
vt 0.80773515 0.28180063
vt 0.80773515 0.27292097
vt 0.81081307 -1.1454594
vt 0.81969297 -1.0383102
vt 0.81969297 -1.1454594
vt 0.81081307 -1.0383102
vt 0.80193305 -1.1454594
vt 0.81969297 -0.7982493
vt 0.80193305 -1.0383102
vt 0.79305315 -1.1454594
vt 0.81081307 -0.7982493
vt 0.81969297 -0.55818844
vt 0.79305315 -1.0383103
vt 0.78417337 -1.1454594
vt 0.78417337 -1.0383102
vt 0.80193305 -0.7982493
vt 0.81081307 -0.55818844
vt 0.8196929 -0.3181275
vt 0.79305315 -0.7982495
vt 0.78417337 -0.7982493
vt 0.80193305 -0.55818844
vt 0.810813 -0.3181275
vt 0.8196929 -0.07806659
vt 0.79305315 -0.5581887
vt 0.78417337 -0.55818844
vt 0.8019331 -0.3181275
vt 0.810813 -0.07806659
vt 0.8196929 0.16199422
vt 0.7930532 -0.31812763
vt 0.78417337 -0.3181275
vt 0.8019331 -0.07806659
vt 0.810813 0.16199422
vt 0.8196929 0.40205514
vt 0.7930532 -0.07806671
vt 0.78417337 -0.07806659
vt 0.810813 0.40205514
vt 0.8196929 0.64211595
vt 0.8019331 0.16199422
vt 0.7930532 0.1619941
vt 0.78417337 0.16199422
vt 0.810813 0.64211595
vt 0.8196929 0.8821769
vt 0.8019331 0.40205514
vt 0.7930532 0.40205503
vt 0.78417337 0.40205514
vt 0.810813 0.8821769
vt 0.81969285 1.1222379
vt 0.8019331 0.64211595
vt 0.7930532 0.64211583
vt 0.78417337 0.64211595
vt 0.81081295 1.1222379
vt 0.81969285 1.3622987
vt 0.8019331 0.8821769
vt 0.7930532 0.88217676
vt 0.78417337 0.8821769
vt 0.81081295 1.3622987
vt 0.81969285 1.6023595
vt 0.80193317 1.1222379
vt 0.79305327 1.1222377
vt 0.78417337 1.1222379
vt 0.81081295 1.6023595
vt 0.81969285 1.7095087
vt 0.81081295 1.7095087
vt 0.80193317 1.3622987
vt 0.79305327 1.3622985
vt 0.78417337 1.3622987
vt 0.80193317 1.6023595
vt 0.80193317 1.7095087
vt 0.79305327 1.6023594
vt 0.78417337 1.6023595
vt 0.79305327 1.7095087
vt 0.78417337 1.7095087
vn -0 -1 0
vn -0 -1 0
vn -0 -1 0
vn -0 -1 0
vn -0 1 0
vn -0 1 0
vn -0 1 0
vn -0 1 0
vn 0.70710677 0 -0.7071068
vn -0.70710677 0 -0.7071068
vn -0.70710677 0 -0.7071068
vn 0.70710677 0 -0.70710677
vn 0.70710677 0 0.70710677
vn -0.70710677 0 -0.7071068
vn 0.7071068 0 0.70710677
vn -0.70710677 0 0.70710677
vn 0.70710677 0 -0.70710677
vn -0.70710677 0 -0.70710677
vn -0.70710677 0 0.70710677
vn -0.70710677 0 -0.7071068
vn -0.70710677 0 -0.7071068
vn 0.7071068 0 0.70710677
vn 0.70710677 0 -0.70710677
vn -0.70710677 0 -0.7071068
vn -0.70710677 0 0.70710677
vn -0.70710677 0 -0.7071068
vn 0.70710677 0 0.70710677
vn 0.70710677 0 -0.70710677
vn -0.70710677 0 -0.7071068
vn -0.70710677 0 0.70710677
vn -0.70710677 0 -0.70710677
vn 0.7071068 0 0.70710677
vn 0.70710677 0 -0.70710677
vn -0.70710677 0 -0.7071068
vn -0.70710677 0 0.70710677
vn -0.70710677 0 -0.7071068
vn 0.7071068 0 0.70710677
vn 0.70710677 0 -0.70710677
vn -0.70710677 0 -0.7071068
vn -0.70710677 0 0.70710677
vn -0.70710677 0 -0.7071068
vn 0.70710677 0 -0.70710677
vn -0.70710677 0 -0.7071068
vn 0.7071068 0 0.70710677
vn -0.70710677 0 0.70710677
vn -0.70710677 0 -0.7071068
vn 0.70710677 0 -0.70710677
vn -0.70710677 0 -0.7071068
vn 0.7071068 0 0.70710677
vn -0.70710677 0 0.70710677
vn -0.70710677 0 -0.7071068
vn 0.70710677 0 -0.70710677
vn -0.70710677 0 -0.70710677
vn 0.7071068 0 0.70710677
vn -0.70710677 0 0.70710677
vn -0.70710677 0 -0.7071068
vn 0.70710677 0 -0.70710677
vn -0.70710677 0 -0.7071068
vn 0.7071068 0 0.70710677
vn -0.70710677 0 0.70710677
vn -0.70710677 0 -0.7071068
vn 0.70710677 0 -0.70710677
vn -0.70710677 0 -0.7071068
vn 0.70710677 0 0.70710677
vn -0.70710677 0 0.70710677
vn -0.70710677 0 -0.70710677
vn 0.70710677 0 -0.70710677
vn -0.70710677 0 -0.70710677
vn 0.70710677 0 -0.70710677
vn 0.7071068 0 0.70710677
vn -0.70710677 0 0.70710677
vn -0.70710677 0 -0.7071068
vn 0.7071068 0 0.70710677
vn 0.70710677 0 0.7071068
vn -0.70710677 0 0.70710677
vn -0.70710677 0 -0.7071068
vn -0.70710677 0 0.7071068
vn -0.70710677 0 -0.70710677
g ConstructionSite_Prop_SteelCable_01_0
f 3/3/3 2/2/2 1/1/1
f 4/4/4 3/3/3 1/1/1
f 7/7/7 6/6/6 5/5/5
f 8/8/8 7/7/7 5/5/5
f 11/11/11 10/10/10 9/9/9
f 10/10/10 12/12/12 9/9/9
f 9/9/9 12/12/12 13/13/13
f 10/10/10 14/14/14 12/12/12
f 12/12/12 15/15/15 13/13/13
f 13/13/13 15/15/15 16/16/16
f 14/14/14 17/17/17 12/12/12
f 12/12/12 17/17/17 15/15/15
f 14/14/14 18/18/18 17/17/17
f 15/15/15 19/19/19 16/16/16
f 16/16/16 19/19/19 20/20/20
f 19/19/19 21/21/21 20/20/20
f 17/17/17 22/22/22 15/15/15
f 15/15/15 22/22/22 19/19/19
f 18/18/18 23/23/23 17/17/17
f 17/17/17 23/23/23 22/22/22
f 18/18/18 24/24/24 23/23/23
f 19/19/19 25/25/25 21/21/21
f 22/22/22 25/25/25 19/19/19
f 25/25/25 26/26/26 21/21/21
f 23/23/23 27/27/27 22/22/22
f 22/22/22 27/27/27 25/25/25
f 24/24/24 28/28/28 23/23/23
f 23/23/23 28/28/28 27/27/27
f 24/24/24 29/29/29 28/28/28
f 25/25/25 30/30/30 26/26/26
f 27/27/27 30/30/30 25/25/25
f 30/30/30 31/31/31 26/26/26
f 28/28/28 32/32/32 27/27/27
f 27/27/27 32/32/32 30/30/30
f 29/29/29 33/33/33 28/28/28
f 28/28/28 33/33/33 32/32/32
f 29/29/29 34/34/34 33/33/33
f 30/30/30 35/35/35 31/31/31
f 32/32/32 35/35/35 30/30/30
f 35/35/35 36/36/36 31/31/31
f 33/33/33 37/37/37 32/32/32
f 32/32/32 37/37/37 35/35/35
f 34/34/34 38/38/38 33/33/33
f 33/33/33 38/38/38 37/37/37
f 34/34/34 39/39/39 38/38/38
f 35/35/35 40/40/40 36/36/36
f 37/37/37 40/40/40 35/35/35
f 40/40/40 41/41/41 36/36/36
f 39/39/39 42/42/42 38/38/38
f 42/42/42 39/39/39 43/43/43
f 38/38/38 44/44/44 37/37/37
f 37/37/37 44/44/44 40/40/40
f 38/38/38 42/42/42 44/44/44
f 40/40/40 45/45/45 41/41/41
f 44/44/44 45/45/45 40/40/40
f 45/45/45 46/46/46 41/41/41
f 47/47/47 42/42/42 43/43/43
f 47/47/47 43/43/43 48/48/48
f 42/42/42 49/49/49 44/44/44
f 44/44/44 49/49/49 45/45/45
f 49/49/49 42/42/42 47/47/47
f 45/45/45 50/50/50 46/46/46
f 49/49/49 50/50/50 45/45/45
f 50/50/50 51/51/51 46/46/46
f 52/52/52 47/47/47 48/48/48
f 52/52/52 48/48/48 53/53/53
f 54/54/54 49/49/49 47/47/47
f 50/50/50 49/49/49 54/54/54
f 54/54/54 47/47/47 52/52/52
f 51/51/51 50/50/50 55/55/55
f 55/55/55 50/50/50 54/54/54
f 56/56/56 51/51/51 55/55/55
f 57/57/57 52/52/52 53/53/53
f 57/57/57 53/53/53 58/58/58
f 59/59/59 54/54/54 52/52/52
f 55/55/55 54/54/54 59/59/59
f 59/59/59 52/52/52 57/57/57
f 56/56/56 55/55/55 60/60/60
f 60/60/60 55/55/55 59/59/59
f 61/61/61 56/56/56 60/60/60
f 62/62/62 57/57/57 58/58/58
f 62/62/62 58/58/58 63/63/63
f 64/64/64 59/59/59 57/57/57
f 60/60/60 59/59/59 64/64/64
f 64/64/64 57/57/57 62/62/62
f 61/61/61 60/60/60 65/65/65
f 65/65/65 60/60/60 64/64/64
f 66/66/66 61/61/61 65/65/65
f 67/67/67 62/62/62 63/63/63
f 67/67/67 63/63/63 68/68/68
f 69/69/69 67/67/67 68/68/68
f 70/70/70 64/64/64 62/62/62
f 65/65/65 64/64/64 70/70/70
f 70/70/70 62/62/62 67/67/67
f 66/66/66 65/65/65 71/71/71
f 71/71/71 65/65/65 70/70/70
f 72/72/72 66/66/66 71/71/71
f 73/73/73 67/67/67 69/69/69
f 73/73/73 70/70/70 67/67/67
f 71/71/71 70/70/70 73/73/73
f 74/74/74 73/73/73 69/69/69
f 72/72/72 71/71/71 75/75/75
f 75/75/75 71/71/71 73/73/73
f 75/75/75 73/73/73 74/74/74
f 76/76/76 72/72/72 75/75/75
f 77/77/77 75/75/75 74/74/74
f 76/76/76 75/75/75 77/77/77
f 78/78/78 76/76/76 77/77/77
