g SeparateMesh_NPC_Casper_Model_Casper_Medal
v 0.037830673 -0.09276476 1.4166027
v 0.024122924 -0.09534093 1.4261011
v 0.04301947 -0.087587565 1.4298855
v 0.028078927 -0.09698524 1.4057745
v 0.037830673 -0.09276476 1.4166027
v 0.02743159 -0.08852654 1.4435842
v -1.695475E-08 -0.09268355 1.4400133
v 0.009526855 -0.0997887 1.4146897
v 0.04301947 -0.087587565 1.4298855
v 0.028078927 -0.09698524 1.4057745
v 0.017904703 -0.082534045 1.4589587
v 0.03783069 -0.07690092 1.4573036
v 0.028078975 -0.07268043 1.4681318
v 1.0855103E-11 -0.08016743 1.4650307
v 0.014940511 -0.069925696 1.4751993
v -0.009526934 -0.099788696 1.4146897
v -4.960346E-08 -0.100696646 1.3962524
v -0.017904706 -0.08253404 1.4589587
v -0.0149404965 -0.06992568 1.4751993
v -0.024122974 -0.0953409 1.4261011
v -0.028079001 -0.0969852 1.4057747
v -0.027431615 -0.0885265 1.4435842
v -0.043019485 -0.08758751 1.4298856
v -0.037830688 -0.07690088 1.4573036
v -0.028078957 -0.0726804 1.4681318
v 0.028078975 -0.07268043 1.4681318
v 0.014940511 -0.069925696 1.4751993
v -0.0149404965 -0.06992568 1.4751993
v -0.028078957 -0.0726804 1.4681318
v 5.232813E-09 -0.06896898 1.4776541
v -0.0149404965 -0.06992568 1.4751993
v 0.014940511 -0.069925696 1.4751993
v 5.232813E-09 -0.06896898 1.4776541
v -0.03783071 -0.09276471 1.4166028
v -0.028079001 -0.0969852 1.4057747
v -0.043019485 -0.08758751 1.4298856
v -0.03783071 -0.09276471 1.4166028
v -0.014940557 -0.09973993 1.3987069
v -4.960346E-08 -0.100696646 1.3962524
v -0.028079001 -0.0969852 1.4057747
v -0.014940557 -0.09973993 1.3987069
v 0.014940456 -0.09973995 1.3987069
v 0.028078927 -0.09698524 1.4057745
v -4.960346E-08 -0.100696646 1.3962524
v 0.014940456 -0.09973995 1.3987069
v 0.038196683 -0.08922933 1.4149979
v 0.037830673 -0.09276476 1.4166027
v 0.04301947 -0.087587565 1.4298855
v 0.043435674 -0.08400206 1.4284093
v 0.043435674 -0.08400206 1.4284093
v 0.04301947 -0.087587565 1.4298855
v 0.043019474 -0.082078114 1.4440209
v 0.043435674 -0.0784393 1.4426812
v 0.043435674 -0.0784393 1.4426812
v 0.043019474 -0.082078114 1.4440209
v 0.03783069 -0.07690092 1.4573036
v 0.038196698 -0.07321203 1.4560926
v 0.038196698 -0.07321203 1.4560926
v 0.03783069 -0.07690092 1.4573036
v 0.028078975 -0.07268043 1.4681318
v 0.02835063 -0.068950705 1.4670255
v 0.02835063 -0.068950705 1.4670255
v 0.028078975 -0.07268043 1.4681318
v 0.014940511 -0.069925696 1.4751993
v 0.015085059 -0.066169314 1.4741615
v 0.015085059 -0.066169314 1.4741615
v 0.014940511 -0.069925696 1.4751993
v 5.232813E-09 -0.06896898 1.4776541
v 1.0689815E-08 -0.065203354 1.4766399
v 1.0689815E-08 -0.065203354 1.4766399
v 5.232813E-09 -0.06896898 1.4776541
v -0.0149404965 -0.06992568 1.4751993
v -0.015085037 -0.06616931 1.4741616
v -0.015085037 -0.06616931 1.4741616
v -0.0149404965 -0.06992568 1.4751993
v -0.028078957 -0.0726804 1.4681318
v -0.028350612 -0.068950675 1.4670255
v -0.028350612 -0.068950675 1.4670255
v -0.028078957 -0.0726804 1.4681318
v -0.037830688 -0.07690088 1.4573036
v -0.038196683 -0.07321199 1.4560926
v -0.038196683 -0.07321199 1.4560926
v -0.037830688 -0.07690088 1.4573036
v -0.04301948 -0.08207806 1.4440209
v -0.043435678 -0.078439265 1.4426814
v -0.043435678 -0.078439265 1.4426814
v -0.04301948 -0.08207806 1.4440209
v -0.043019485 -0.08758751 1.4298856
v -0.043435685 -0.08400202 1.4284093
v -0.043435685 -0.08400202 1.4284093
v -0.043019485 -0.08758751 1.4298856
v -0.03783071 -0.09276471 1.4166028
v -0.03819671 -0.08922929 1.4149979
v -0.03819671 -0.08922929 1.4149979
v -0.03783071 -0.09276471 1.4166028
v -0.028079001 -0.0969852 1.4057747
v -0.028350653 -0.093490615 1.404065
v -0.028350653 -0.093490615 1.404065
v -0.028079001 -0.0969852 1.4057747
v -0.014940557 -0.09973993 1.3987069
v -0.015085091 -0.096272 1.3969291
v -0.015085091 -0.096272 1.3969291
v -0.014940557 -0.09973993 1.3987069
v -4.960346E-08 -0.100696646 1.3962524
v -4.4146457E-08 -0.097237974 1.3944508
v -4.4146457E-08 -0.097237974 1.3944508
v -4.960346E-08 -0.100696646 1.3962524
v 0.014940456 -0.09973995 1.3987069
v 0.015085008 -0.09627203 1.396929
v 0.015085008 -0.09627203 1.396929
v 0.014940456 -0.09973995 1.3987069
v 0.028078927 -0.09698524 1.4057745
v 0.028350586 -0.09349065 1.404065
v 0.028350586 -0.09349065 1.404065
v 0.028078927 -0.09698524 1.4057745
v 0.037830673 -0.09276476 1.4166027
v 0.038196683 -0.08922933 1.4149979
v 0.043019474 -0.082078114 1.4440209
v 0.03783069 -0.07690092 1.4573036
v 0.04301947 -0.087587565 1.4298855
v -0.04301948 -0.08207806 1.4440209
v -0.043019485 -0.08758751 1.4298856
v -0.037830688 -0.07690088 1.4573036
v 0.043435674 -0.08400206 1.4284093
v -9.307781E-09 -0.081220664 1.4355453
v 0.038196683 -0.08922933 1.4149979
v 0.043435674 -0.0784393 1.4426812
v 0.028350586 -0.09349065 1.404065
v 0.038196698 -0.07321203 1.4560926
v 0.015085008 -0.09627203 1.396929
v 0.02835063 -0.068950705 1.4670255
v -4.4146457E-08 -0.097237974 1.3944508
v 0.015085059 -0.066169314 1.4741615
v -0.015085091 -0.096272 1.3969291
v 1.0689815E-08 -0.065203354 1.4766399
v -0.028350653 -0.093490615 1.404065
v -0.015085037 -0.06616931 1.4741616
v -0.03819671 -0.08922929 1.4149979
v -0.028350612 -0.068950675 1.4670255
v -0.043435685 -0.08400202 1.4284093
v -0.038196683 -0.07321199 1.4560926
v -0.043435678 -0.078439265 1.4426814
vt 0.40012002 0.44792762
vt 0.37192604 0.46424186
vt 0.4103255 0.4759522
vt 0.3809349 0.42509982
vt 0.40012002 0.44792762
vt 0.3782529 0.5001453
vt 0.32576746 0.49088216
vt 0.34399918 0.4408045
vt 0.4103255 0.4759522
vt 0.3809349 0.42509982
vt 0.36002225 0.5317167
vt 0.40014002 0.53379816
vt 0.3809784 0.55664855
vt 0.32576746 0.5441783
vt 0.3551535 0.5715684
vt 0.30754215 0.440795
vt 0.32576746 0.4050155
vt 0.29150534 0.53170365
vt 0.2964191 0.571567
vt 0.27961367 0.4642266
vt 0.27055654 0.42511612
vt 0.2732795 0.5001292
vt 0.2412032 0.47599107
vt 0.25141823 0.5338309
vt 0.27059335 0.5566677
vt 0.3809784 0.55664855
vt 0.3551535 0.5715684
vt 0.2964191 0.571567
vt 0.27059335 0.5566677
vt 0.32576746 0.57674986
vt 0.2964191 0.571567
vt 0.3551535 0.5715684
vt 0.32576746 0.57674986
vt 0.25139463 0.4479662
vt 0.27055654 0.42511612
vt 0.2412032 0.47599107
vt 0.25139463 0.4479662
vt 0.29638132 0.41019654
vt 0.32576746 0.4050155
vt 0.27055654 0.42511612
vt 0.29638132 0.41019654
vt 0.35511386 0.41019887
vt 0.3809349 0.42509982
vt 0.32576746 0.4050155
vt 0.35511386 0.41019887
vt 0.07565242 0.5827309
vt 0.07565242 0.57724535
vt 0.0970948 0.57724535
vt 0.0970948 0.5827309
vt 0.0970948 0.5827309
vt 0.0970948 0.57724535
vt 0.11853725 0.57724535
vt 0.11853725 0.5827309
vt 0.11853725 0.5827309
vt 0.11853725 0.57724535
vt 0.13997982 0.57724535
vt 0.13997982 0.5827309
vt 0.13997982 0.5827309
vt 0.13997982 0.57724535
vt 0.16142228 0.57724535
vt 0.16142228 0.5827309
vt 0.16142228 0.5827309
vt 0.16142228 0.57724535
vt 0.18286473 0.57724535
vt 0.18286473 0.5827309
vt 0.18286473 0.5827309
vt 0.18286473 0.57724535
vt 0.20430718 0.57724535
vt 0.20430718 0.5827309
vt 0.20430718 0.5827309
vt 0.20430718 0.57724535
vt 0.18286473 0.57724535
vt 0.18286473 0.5827309
vt 0.18286473 0.5827309
vt 0.18286473 0.57724535
vt 0.16142228 0.57724535
vt 0.16142228 0.5827309
vt 0.16142228 0.5827309
vt 0.16142228 0.57724535
vt 0.13997982 0.57724535
vt 0.13997982 0.5827309
vt 0.13997982 0.5827309
vt 0.13997982 0.57724535
vt 0.11853725 0.57724535
vt 0.11853725 0.5827309
vt 0.11853725 0.5827309
vt 0.11853725 0.57724535
vt 0.0970948 0.57724535
vt 0.0970948 0.5827309
vt 0.0970948 0.5827309
vt 0.0970948 0.57724535
vt 0.07565242 0.57724535
vt 0.07565242 0.5827309
vt 0.07565242 0.5827309
vt 0.07565242 0.57724535
vt 0.054210003 0.57724535
vt 0.054210003 0.5827309
vt 0.054210003 0.5827309
vt 0.054210003 0.57724535
vt 0.032767512 0.57724535
vt 0.032767512 0.5827309
vt 0.032767512 0.5827309
vt 0.032767512 0.57724535
vt 0.01132193 0.57724535
vt 0.01132193 0.5827176
vt 0.01132193 0.5827303
vt 0.01132193 0.57724535
vt 0.032767512 0.57724535
vt 0.032767512 0.58273757
vt 0.032767512 0.58273757
vt 0.032767512 0.57724535
vt 0.054210003 0.57724535
vt 0.054210003 0.5827311
vt 0.054210003 0.5827311
vt 0.054210003 0.57724535
vt 0.07565242 0.57724535
vt 0.07565242 0.5827309
vt 0.41033158 0.50577325
vt 0.40014002 0.53379816
vt 0.4103255 0.4759522
vt 0.24121122 0.5058116
vt 0.2412032 0.47599107
vt 0.25141823 0.5338309
vt 0.19290318 0.4445576
vt 0.21584387 0.44860262
vt 0.19567014 0.43695533
vt 0.19290318 0.45264775
vt 0.20087041 0.43075794
vt 0.1956702 0.46024996
vt 0.2078767 0.42671287
vt 0.20087041 0.46644735
vt 0.21584387 0.42530805
vt 0.2078767 0.47049242
vt 0.2238111 0.42671287
vt 0.21584387 0.4718973
vt 0.23081739 0.43075794
vt 0.2238111 0.47049242
vt 0.2360176 0.43695533
vt 0.23081739 0.46644735
vt 0.23878457 0.4445576
vt 0.2360176 0.46024996
vt 0.23878457 0.45264775
vn 0.30020887 -0.9368998 0.17914629
vn 0.200729 -0.9484417 0.2452882
vn 0.33147916 -0.8985882 0.2875082
vn 0.2163573 -0.97100025 0.10172502
vn 0.30020887 -0.9368998 0.17914629
vn 0.2282607 -0.8917384 0.39076808
vn -4.0153637E-07 -0.931728 0.36315697
vn 0.079273656 -0.985452 0.15033308
vn 0.33147916 -0.8985882 0.2875082
vn 0.2163573 -0.97100025 0.10172502
vn 0.1489866 -0.8418742 0.51870096
vn 0.2914981 -0.81624377 0.49877346
vn 0.22282332 -0.77751863 0.58805996
vn -2.3968838E-07 -0.82218134 0.56922567
vn 0.11512139 -0.76249725 0.63666713
vn -0.07927488 -0.9854519 0.15033308
vn -6.525664E-07 -0.99959797 0.028353585
vn -0.14898723 -0.8418742 0.51870096
vn -0.11512196 -0.7624972 0.6366671
vn -0.20073009 -0.9484413 0.24528833
vn -0.21635866 -0.971 0.10172505
vn -0.2282617 -0.8917381 0.3907681
vn -0.33148047 -0.8985876 0.28750855
vn -0.2914988 -0.8162434 0.49877363
vn -0.222824 -0.7775183 0.58806026
vn 0.22282332 -0.77751863 0.58805996
vn 0.11512139 -0.76249725 0.63666713
vn -0.11512196 -0.7624972 0.6366671
vn -0.222824 -0.7775183 0.58806026
vn -1.617887E-07 -0.74806595 0.6636244
vn -0.11512196 -0.7624972 0.6366671
vn 0.11512139 -0.76249725 0.63666713
vn -1.617887E-07 -0.74806595 0.6636244
vn -0.30021012 -0.93689936 0.17914644
vn -0.21635866 -0.971 0.10172505
vn -0.33148047 -0.8985876 0.28750855
vn -0.30021012 -0.93689936 0.17914644
vn -0.11856274 -0.99225205 0.037132308
vn -6.525664E-07 -0.99959797 0.028353585
vn -0.21635866 -0.971 0.10172505
vn -0.11856274 -0.99225205 0.037132308
vn 0.11856123 -0.9922522 0.037132047
vn 0.2163573 -0.97100025 0.10172502
vn -6.525664E-07 -0.99959797 0.028353585
vn 0.11856123 -0.9922522 0.037132047
vn 0.86092484 -0.28148088 -0.42376524
vn 0.8609246 -0.28148112 -0.4237657
vn 0.9790077 -0.16366191 -0.1214853
vn 0.97900784 -0.1636617 -0.1214848
vn 0.97900784 -0.1636617 -0.1214848
vn 0.9790077 -0.16366191 -0.1214853
vn 0.97900784 -0.038281646 0.20019522
vn 0.97900784 -0.03828157 0.20019542
vn 0.97900784 -0.03828157 0.20019542
vn 0.97900784 -0.038281646 0.20019522
vn 0.8609252 0.07953668 0.5024755
vn 0.8609252 0.07953671 0.5024757
vn 0.8609252 0.07953671 0.5024757
vn 0.8609252 0.07953668 0.5024755
vn 0.6390022 0.17558388 0.7488969
vn 0.63900226 0.17558388 0.7488969
vn 0.63900226 0.17558388 0.7488969
vn 0.6390022 0.17558388 0.7488969
vn 0.34000608 0.23827468 0.90973675
vn 0.34000605 0.23827471 0.90973675
vn 0.34000605 0.23827471 0.90973675
vn 0.34000608 0.23827468 0.90973675
vn 2.7599276E-07 0.26004812 0.9655957
vn 4.6789418E-07 0.2600481 0.9655957
vn 4.6789418E-07 0.2600481 0.9655957
vn 2.7599276E-07 0.26004812 0.9655957
vn -0.3400058 0.23827644 0.90973645
vn -0.34000576 0.23827647 0.90973645
vn -0.34000576 0.23827647 0.90973645
vn -0.3400058 0.23827644 0.90973645
vn -0.6390018 0.17558567 0.7488967
vn -0.63900185 0.17558563 0.7488967
vn -0.63900185 0.17558563 0.7488967
vn -0.6390018 0.17558567 0.7488967
vn -0.86092484 0.07953888 0.5024758
vn -0.8609249 0.0795388 0.50247556
vn -0.8609249 0.0795388 0.50247556
vn -0.86092484 0.07953888 0.5024758
vn -0.97900784 -0.038280413 0.2001955
vn -0.97900784 -0.03828042 0.20019552
vn -0.97900784 -0.03828042 0.20019552
vn -0.97900784 -0.038280413 0.2001955
vn -0.97900796 -0.1636613 -0.12148415
vn -0.97900796 -0.16366133 -0.12148419
vn -0.97900796 -0.16366133 -0.12148419
vn -0.97900796 -0.1636613 -0.12148415
vn -0.86092556 -0.28148016 -0.42376435
vn -0.86092544 -0.28148016 -0.42376444
vn -0.86092544 -0.28148016 -0.42376444
vn -0.86092556 -0.28148016 -0.42376435
vn -0.6390029 -0.37752658 -0.6701857
vn -0.6390028 -0.37752658 -0.6701858
vn -0.6390028 -0.37752658 -0.6701858
vn -0.6390029 -0.37752658 -0.6701857
vn -0.340007 -0.44021672 -0.83102614
vn -0.34000662 -0.4402168 -0.8310263
vn -0.34000662 -0.4402168 -0.8310263
vn -0.340007 -0.44021672 -0.83102614
vn -9.3266505E-07 -0.46198928 -0.88688546
vn -7.018413E-07 -0.46198928 -0.88688546
vn -7.018413E-07 -0.46198928 -0.88688546
vn -9.3266505E-07 -0.46198928 -0.88688546
vn 0.34000474 -0.4402176 -0.8310266
vn 0.34000507 -0.44021758 -0.83102643
vn 0.34000507 -0.44021758 -0.83102643
vn 0.34000474 -0.4402176 -0.8310266
vn 0.6390013 -0.3775277 -0.67018676
vn 0.6390014 -0.37752768 -0.67018664
vn 0.6390014 -0.37752768 -0.67018664
vn 0.6390013 -0.3775277 -0.67018676
vn 0.8609246 -0.28148112 -0.4237657
vn 0.86092484 -0.28148088 -0.42376524
vn 0.34138498 -0.8520948 0.3967249
vn 0.2914981 -0.81624377 0.49877346
vn 0.33147916 -0.8985882 0.2875082
vn -0.34138605 -0.85209453 0.3967248
vn -0.33148047 -0.8985876 0.28750855
vn -0.2914988 -0.8162434 0.49877363
vn 4.1881242E-07 0.9317279 -0.363157
vn 4.190614E-07 0.9317279 -0.363157
vn 4.120931E-07 0.9317279 -0.363157
vn 4.0537472E-07 0.931728 -0.363157
vn 4.031347E-07 0.931728 -0.363157
vn 3.9417645E-07 0.931728 -0.36315697
vn 4.546468E-07 0.931728 -0.36315694
vn 4.3896918E-07 0.931728 -0.36315697
vn 4.255315E-07 0.931728 -0.36315697
vn 4.2329185E-07 0.9317279 -0.36315706
vn 3.8745765E-07 0.931728 -0.36315697
vn 4.143334E-07 0.9317279 -0.36315706
vn 4.3001083E-07 0.9317279 -0.363157
vn 4.2553165E-07 0.9317279 -0.363157
vn 4.3001097E-07 0.931728 -0.363157
vn 4.2105228E-07 0.931728 -0.363157
vn 4.2105228E-07 0.931728 -0.36315697
vn 4.3001086E-07 0.931728 -0.363157
vn 4.076145E-07 0.9317279 -0.363157
g SeparateMesh_NPC_Casper_Model_Casper_Medal_0
f 3/3/3 2/2/2 1/1/1
f 5/5/5 2/2/2 4/4/4
f 7/7/7 2/2/2 6/6/6
f 7/7/7 8/8/8 2/2/2
f 6/6/6 2/2/2 9/9/9
f 2/2/2 8/8/8 10/10/10
f 7/7/7 6/6/6 11/11/11
f 11/11/11 6/6/6 12/12/12
f 13/13/13 11/11/11 12/12/12
f 7/7/7 11/11/11 14/14/14
f 14/14/14 11/11/11 15/15/15
f 7/7/7 16/16/16 8/8/8
f 8/8/8 16/16/16 17/17/17
f 7/7/7 14/14/14 18/18/18
f 18/18/18 14/14/14 19/19/19
f 7/7/7 20/20/20 16/16/16
f 16/16/16 20/20/20 21/21/21
f 7/7/7 18/18/18 22/22/22
f 7/7/7 22/22/22 20/20/20
f 20/20/20 22/22/22 23/23/23
f 22/22/22 18/18/18 24/24/24
f 24/24/24 18/18/18 25/25/25
f 27/27/27 11/11/11 26/26/26
f 29/29/29 18/18/18 28/28/28
f 31/31/31 14/14/14 30/30/30
f 33/33/33 14/14/14 32/32/32
f 35/35/35 20/20/20 34/34/34
f 37/37/37 20/20/20 36/36/36
f 39/39/39 16/16/16 38/38/38
f 41/41/41 16/16/16 40/40/40
f 43/43/43 8/8/8 42/42/42
f 45/45/45 8/8/8 44/44/44
f 48/48/48 47/47/47 46/46/46
f 49/49/49 48/48/48 46/46/46
f 52/52/52 51/51/51 50/50/50
f 53/53/53 52/52/52 50/50/50
f 56/56/56 55/55/55 54/54/54
f 57/57/57 56/56/56 54/54/54
f 60/60/60 59/59/59 58/58/58
f 61/61/61 60/60/60 58/58/58
f 64/64/64 63/63/63 62/62/62
f 65/65/65 64/64/64 62/62/62
f 68/68/68 67/67/67 66/66/66
f 69/69/69 68/68/68 66/66/66
f 72/72/72 71/71/71 70/70/70
f 73/73/73 72/72/72 70/70/70
f 76/76/76 75/75/75 74/74/74
f 77/77/77 76/76/76 74/74/74
f 80/80/80 79/79/79 78/78/78
f 81/81/81 80/80/80 78/78/78
f 84/84/84 83/83/83 82/82/82
f 85/85/85 84/84/84 82/82/82
f 88/88/88 87/87/87 86/86/86
f 89/89/89 88/88/88 86/86/86
f 92/92/92 91/91/91 90/90/90
f 93/93/93 92/92/92 90/90/90
f 96/96/96 95/95/95 94/94/94
f 97/97/97 96/96/96 94/94/94
f 100/100/100 99/99/99 98/98/98
f 101/101/101 100/100/100 98/98/98
f 104/104/104 103/103/103 102/102/102
f 105/105/105 104/104/104 102/102/102
f 108/108/108 107/107/107 106/106/106
f 109/109/109 108/108/108 106/106/106
f 112/112/112 111/111/111 110/110/110
f 113/113/113 112/112/112 110/110/110
f 116/116/116 115/115/115 114/114/114
f 117/117/117 116/116/116 114/114/114
f 119/119/119 6/6/6 118/118/118
f 118/118/118 6/6/6 120/120/120
f 122/122/122 22/22/22 121/121/121
f 121/121/121 22/22/22 123/123/123
f 126/126/126 125/125/125 124/124/124
f 124/124/124 125/125/125 127/127/127
f 128/128/128 125/125/125 126/126/126
f 127/127/127 125/125/125 129/129/129
f 130/130/130 125/125/125 128/128/128
f 129/129/129 125/125/125 131/131/131
f 132/132/132 125/125/125 130/130/130
f 131/131/131 125/125/125 133/133/133
f 134/134/134 125/125/125 132/132/132
f 133/133/133 125/125/125 135/135/135
f 136/136/136 125/125/125 134/134/134
f 135/135/135 125/125/125 137/137/137
f 138/138/138 125/125/125 136/136/136
f 137/137/137 125/125/125 139/139/139
f 140/140/140 125/125/125 138/138/138
f 139/139/139 125/125/125 141/141/141
f 142/142/142 125/125/125 140/140/140
f 141/141/141 125/125/125 142/142/142
