g SeparateMesh_Monster_DurahanEnergy_Model_Monster_DurahanEnergy_Head_LOD1
v 0.001998849 -0.050366726 2.7313921
v 0.0015975955 -0.015364832 2.7541137
v 0.043889016 -0.01536483 2.7403727
v -0.04069382 -0.01536483 2.7403727
v 0.046501685 -0.05037068 2.6821637
v 0.07002655 -0.015364821 2.6821632
v 0.043889016 -0.015364811 2.6239543
v -0.04384149 -0.050362777 2.6821637
v -0.06683134 -0.015364821 2.6821632
v -0.0406938 -0.015364811 2.6239543
v 0.0019988571 -0.050366726 2.6329348
v 0.0015976152 -0.015364809 2.610213
v 0.001597598 -0.07836049 2.6821637
v 0.03752276 0.014809408 2.6795
v 0.07002655 -0.015364821 2.6821632
v 0.043889016 -0.01536483 2.7403727
v 0.043889016 -0.015364811 2.6239543
v 0.0012680822 0.015846057 2.7303026
v 0.0015975955 -0.015364832 2.7541137
v -0.04069382 -0.01536483 2.7403727
v 0.0014353924 0.011711645 2.627171
v 0.0015976152 -0.015364809 2.610213
v -0.03400057 0.014815502 2.6795
v -0.06683134 -0.015364821 2.6821632
v -0.0406938 -0.015364811 2.6239543
v 0.0012731698 0.0387881 2.6791682
vt 0.16510406 0.90365356
vt 0.16503377 0.90773565
vt 0.17114016 0.90315425
vt 0.15892738 0.90315425
vt 0.17289746 0.88374674
vt 0.17491412 0.88374686
vt 0.17114016 0.86433935
vt 0.15707645 0.8837468
vt 0.15515347 0.88374686
vt 0.15892738 0.86433935
vt 0.16510406 0.86384004
vt 0.16503377 0.85975784
vt 0.16503379 0.8837468
vt 0.17175925 0.8796619
vt 0.17491412 0.88374686
vt 0.17114016 0.90315425
vt 0.17114016 0.86433935
vt 0.16496351 0.90365356
vt 0.16503377 0.90773565
vt 0.15892738 0.90315425
vt 0.16501036 0.8651167
vt 0.16503377 0.85975784
vt 0.15836689 0.87966186
vt 0.15515347 0.88374686
vt 0.15892738 0.86433935
vt 0.16498694 0.87047565
vn 0.0053271707 -0.7697403 0.63833493
vn -0.00016329472 0.034266666 0.99941266
vn 0.6871968 0.056711804 0.72425437
vn -0.68672955 0.05497358 0.7248314
vn 0.6744213 -0.7383467 1.4379069E-06
vn 0.9949944 0.09978639 0.0053727347
vn 0.6975277 0.047796186 -0.7149619
vn -0.67504096 -0.7377803 1.3462561E-06
vn -0.99430484 0.10644245 0.005290153
vn -0.6971503 0.04700811 -0.71538216
vn 0.0053272154 -0.7697423 -0.6383324
vn -0.0008909441 0.15061411 -0.9885923
vn 0.00032842922 -1 1.1318983E-06
vn 0.596028 0.8017625 -0.043902438
vn 0.9949944 0.09978639 0.0053727347
vn 0.6871968 0.056711804 0.72425437
vn 0.6975277 0.047796186 -0.7149619
vn -0.0042505525 0.8325218 0.5539759
vn -0.00016329472 0.034266666 0.99941266
vn -0.68672955 0.05497358 0.7248314
vn -0.0021816704 0.82707554 -0.5620864
vn -0.0008909441 0.15061411 -0.9885923
vn -0.59902257 0.79948145 -0.044737082
vn -0.99430484 0.10644245 0.005290153
vn -0.6971503 0.04700811 -0.71538216
vn -0.0058440613 0.9996118 -0.027242796
g SeparateMesh_Monster_DurahanEnergy_Model_Monster_DurahanEnergy_Head_LOD1_0
f 3/3/3 2/2/2 1/1/1
f 1/1/1 2/2/2 4/4/4
f 1/1/1 5/5/5 3/3/3
f 5/5/5 6/6/6 3/3/3
f 5/5/5 7/7/7 6/6/6
f 8/8/8 1/1/1 4/4/4
f 4/4/4 9/9/9 8/8/8
f 9/9/9 10/10/10 8/8/8
f 5/5/5 11/11/11 7/7/7
f 11/11/11 8/8/8 10/10/10
f 12/12/12 7/7/7 11/11/11
f 11/11/11 10/10/10 12/12/12
f 5/5/5 1/1/1 13/13/13
f 1/1/1 8/8/8 13/13/13
f 8/8/8 11/11/11 13/13/13
f 11/11/11 5/5/5 13/13/13
f 16/16/16 15/15/15 14/14/14
f 15/15/15 17/17/17 14/14/14
f 14/14/14 18/18/18 16/16/16
f 18/18/18 19/19/19 16/16/16
f 20/20/20 19/19/19 18/18/18
f 14/14/14 17/17/17 21/21/21
f 17/17/17 22/22/22 21/21/21
f 18/18/18 23/23/23 20/20/20
f 23/23/23 21/21/21 22/22/22
f 23/23/23 24/24/24 20/20/20
f 25/25/25 23/23/23 22/22/22
f 23/23/23 25/25/25 24/24/24
f 18/18/18 14/14/14 26/26/26
f 26/26/26 14/14/14 21/21/21
f 21/21/21 23/23/23 26/26/26
f 23/23/23 18/18/18 26/26/26
