g SeparateMesh_Monster_DurahanEnergy_Model_Monster_DurahanEnergy_Head_LOD2
v 0.001998849 -0.050366726 2.7313921
v 0.0015975955 -0.015364832 2.7541137
v 0.043889016 -0.01536483 2.7403727
v -0.04069382 -0.01536483 2.7403727
v 0.045482125 -0.050372645 2.6792946
v 0.07002655 -0.015364821 2.679295
v 0.043889016 -0.015364811 2.6239543
v -0.043213427 -0.050360803 2.6792953
v -0.06683134 -0.015364821 2.679295
v -0.0406938 -0.015364811 2.6239543
v 0.0019988571 -0.050366726 2.6329348
v 0.0015976152 -0.015364809 2.610213
v 0.001597598 -0.07836048 2.679295
v 0.037522756 0.01570504 2.679234
v 0.07002655 -0.015364821 2.679295
v 0.043889016 -0.01536483 2.7403727
v 0.043889016 -0.015364811 2.6239543
v 0.0012680822 0.015846057 2.7303026
v 0.0015975955 -0.015364832 2.7541137
v -0.04069382 -0.01536483 2.7403727
v 0.0014353924 0.015294179 2.6265938
v 0.0015976152 -0.015364809 2.610213
v -0.03400057 0.015711134 2.679234
v -0.06683134 -0.015364821 2.679295
v -0.0406938 -0.015364811 2.6239543
v 0.0012731698 0.04237064 2.6792946
vt 0.16510406 0.90365356
vt 0.16503377 0.90773565
vt 0.17114016 0.90315425
vt 0.15892738 0.90315425
vt 0.17271891 0.88074803
vt 0.17491412 0.88374686
vt 0.17114016 0.86433935
vt 0.15718643 0.8868997
vt 0.15515347 0.88374686
vt 0.15892738 0.86433935
vt 0.16510406 0.86384004
vt 0.16503377 0.85975784
vt 0.16503379 0.8837468
vt 0.17175925 0.8796619
vt 0.17491412 0.88374686
vt 0.17114016 0.90315425
vt 0.17114016 0.86433935
vt 0.16496351 0.90365356
vt 0.16503377 0.90773565
vt 0.15892738 0.90315425
vt 0.16501036 0.8651167
vt 0.16503377 0.85975784
vt 0.15836689 0.87966186
vt 0.15515347 0.88374686
vt 0.15892738 0.86433935
vt 0.16498694 0.87047565
vn 0.0061876117 -0.7797709 0.6260343
vn -0.00016329472 0.034266666 0.99941266
vn 0.6937925 0.047653552 0.71859664
vn -0.692716 0.046656944 0.71969974
vn 0.67036045 -0.7417767 -0.019601619
vn 0.9962782 0.08473862 -0.015782008
vn 0.70044655 0.03066227 -0.7130459
vn -0.6722926 -0.74002165 -0.019764718
vn -0.9953902 0.09459782 -0.015796455
vn -0.6994177 0.030882636 -0.7140456
vn 0.0062697353 -0.76160437 -0.6480119
vn -0.0009393061 0.12787233 -0.9917902
vn 0.0020599405 -0.9997626 -0.021689164
vn 0.6197276 0.7840455 -0.03478919
vn 0.9962782 0.08473862 -0.015782008
vn 0.6937925 0.047653552 0.71859664
vn 0.70044655 0.03066227 -0.7130459
vn -0.004272058 0.8225765 0.5686385
vn -0.00016329472 0.034266666 0.99941266
vn -0.692716 0.046656944 0.71969974
vn -0.0022660468 0.8123181 -0.5832103
vn -0.0009393061 0.12787233 -0.9917902
vn -0.62292516 0.7814685 -0.035654884
vn -0.9953902 0.09459782 -0.015796455
vn -0.6994177 0.030882636 -0.7140456
vn -0.00598231 0.99997914 0.0024275363
g SeparateMesh_Monster_DurahanEnergy_Model_Monster_DurahanEnergy_Head_LOD2_0
f 3/3/3 2/2/2 1/1/1
f 1/1/1 2/2/2 4/4/4
f 1/1/1 5/5/5 3/3/3
f 5/5/5 6/6/6 3/3/3
f 5/5/5 7/7/7 6/6/6
f 8/8/8 1/1/1 4/4/4
f 4/4/4 9/9/9 8/8/8
f 9/9/9 10/10/10 8/8/8
f 5/5/5 11/11/11 7/7/7
f 11/11/11 8/8/8 10/10/10
f 12/12/12 7/7/7 11/11/11
f 11/11/11 10/10/10 12/12/12
f 5/5/5 1/1/1 13/13/13
f 1/1/1 8/8/8 13/13/13
f 8/8/8 11/11/11 13/13/13
f 11/11/11 5/5/5 13/13/13
f 16/16/16 15/15/15 14/14/14
f 15/15/15 17/17/17 14/14/14
f 14/14/14 18/18/18 16/16/16
f 18/18/18 19/19/19 16/16/16
f 20/20/20 19/19/19 18/18/18
f 14/14/14 17/17/17 21/21/21
f 17/17/17 22/22/22 21/21/21
f 18/18/18 23/23/23 20/20/20
f 23/23/23 21/21/21 22/22/22
f 23/23/23 24/24/24 20/20/20
f 25/25/25 23/23/23 22/22/22
f 23/23/23 25/25/25 24/24/24
f 18/18/18 14/14/14 26/26/26
f 26/26/26 14/14/14 21/21/21
f 21/21/21 23/23/23 26/26/26
f 23/23/23 18/18/18 26/26/26
