g SeparateMesh_Monster_MeleeSoldier_Model_Weapon02_LOD1
v -0.5044639 0.13954112 1.0937611
v -0.5019422 0.13954112 1.0998486
v -0.5105516 0.13954112 1.0962826
v -0.52741224 -0.13998935 1.0892986
v -0.48508158 -0.13998935 1.1068325
v -0.49747998 -0.13998935 1.0769002
v -0.51960015 -0.70882934 1.0925344
v -0.49289358 -0.70882934 1.1035966
v -0.5007157 -0.70882934 1.0847123
v -0.50070477 0.12314778 1.0846857
v -0.49286693 0.12314769 1.1036079
v -0.51962686 0.123147696 1.0925235
v -0.49747998 -0.118301615 1.0769002
v -0.48508158 -0.11830163 1.1068325
v -0.52741224 -0.11830163 1.0892986
v -0.5105516 0.13954112 1.0962826
v -0.5019422 0.13954112 1.0998486
v -0.5080299 0.13954112 1.1023703
v -0.48508158 -0.13998935 1.1068325
v -0.52741224 -0.13998935 1.0892986
v -0.5150138 -0.13998935 1.1192309
v -0.49289358 -0.70882934 1.1035966
v -0.51960015 -0.70882934 1.0925344
v -0.511778 -0.70882934 1.1114186
v -0.51962686 0.123147696 1.0925235
v -0.49286693 0.12314769 1.1036079
v -0.511789 0.12314776 1.1114457
v -0.52741224 -0.11830163 1.0892986
v -0.48508158 -0.11830163 1.1068325
v -0.5150138 -0.11830163 1.1192309
v -0.49790233 -0.15865786 1.0779201
v -0.52639246 -0.15865786 1.0897211
v -0.5267118 -0.6967763 1.0895886
v -0.49776998 -0.6967763 1.0776005
v -0.49790233 -0.15865786 1.0779201
v -0.49776998 -0.6967763 1.0776005
v -0.48578194 -0.6967763 1.1065423
v -0.48610133 -0.15865786 1.1064101
v -0.5267118 -0.6967763 1.0895886
v -0.51960015 -0.70882934 1.0925344
v -0.5007157 -0.70882934 1.0847123
v -0.49776998 -0.6967763 1.0776005
v -0.49776998 -0.6967763 1.0776005
v -0.5007157 -0.70882934 1.0847123
v -0.49289358 -0.70882934 1.1035966
v -0.48578194 -0.6967763 1.1065423
v -0.49790233 -0.15865786 1.0779201
v -0.50020427 -0.15353942 1.0834773
v -0.5208352 -0.15353942 1.0920229
v -0.52639246 -0.15865786 1.0897211
v -0.48610133 -0.15865786 1.1064101
v -0.49165857 -0.15353942 1.1041082
v -0.50020427 -0.15353942 1.0834773
v -0.49790233 -0.15865786 1.0779201
v -0.49747998 -0.13998935 1.0769002
v -0.49747998 -0.118301615 1.0769002
v -0.52741224 -0.11830163 1.0892986
v -0.52741224 -0.13998935 1.0892986
v -0.48508158 -0.13998935 1.1068325
v -0.48508158 -0.11830163 1.1068325
v -0.49747998 -0.118301615 1.0769002
v -0.49747998 -0.13998935 1.0769002
v -0.50020427 -0.15353942 1.0834773
v -0.5004269 0.07864106 1.0840148
v -0.5202978 0.07864106 1.0922456
v -0.5208352 -0.15353942 1.0920229
v -0.49165857 -0.15353942 1.1041082
v -0.492196 0.07864106 1.1038857
v -0.5004269 0.07864106 1.0840148
v -0.50020427 -0.15353942 1.0834773
v -0.5004269 0.07864106 1.0840148
v -0.49835703 0.08338402 1.0790179
v -0.5252947 0.08338402 1.0901757
v -0.5202978 0.07864106 1.0922456
v -0.492196 0.07864106 1.1038857
v -0.48719904 0.08338402 1.1059555
v -0.49835703 0.08338402 1.0790179
v -0.5004269 0.07864106 1.0840148
v -0.49835703 0.08338402 1.0790179
v -0.49835703 0.11566834 1.0790179
v -0.5252947 0.115668215 1.0901759
v -0.5252947 0.08338402 1.0901757
v -0.48719904 0.08338402 1.1059555
v -0.48719904 0.11566821 1.1059555
v -0.49835703 0.11566834 1.0790179
v -0.49835703 0.08338402 1.0790179
v -0.49835703 0.11566834 1.0790179
v -0.50070477 0.12314778 1.0846857
v -0.51962686 0.123147696 1.0925235
v -0.5252947 0.115668215 1.0901759
v -0.48719904 0.11566821 1.1059555
v -0.49286693 0.12314769 1.1036079
v -0.50070477 0.12314778 1.0846857
v -0.49835703 0.11566834 1.0790179
v -0.5018129 0.123147696 1.0873611
v -0.5044639 0.13954112 1.0937611
v -0.5105516 0.13954112 1.0962826
v -0.51695156 0.12314769 1.0936316
v -0.49554226 0.12314769 1.1024997
v -0.5019422 0.13954112 1.0998486
v -0.5044639 0.13954112 1.0937611
v -0.5018129 0.123147696 1.0873611
v -0.5267118 -0.6967763 1.0895886
v -0.52639246 -0.15865786 1.0897211
v -0.51459146 -0.15865786 1.118211
v -0.5147237 -0.6967763 1.1185304
v -0.5147237 -0.6967763 1.1185304
v -0.51459146 -0.15865786 1.118211
v -0.48610133 -0.15865786 1.1064101
v -0.48578194 -0.6967763 1.1065423
v -0.5267118 -0.6967763 1.0895886
v -0.5147237 -0.6967763 1.1185304
v -0.511778 -0.70882934 1.1114186
v -0.51960015 -0.70882934 1.0925344
v -0.5147237 -0.6967763 1.1185304
v -0.48578194 -0.6967763 1.1065423
v -0.49289358 -0.70882934 1.1035966
v -0.511778 -0.70882934 1.1114186
v -0.51459146 -0.15865786 1.118211
v -0.52639246 -0.15865786 1.0897211
v -0.5208352 -0.15353942 1.0920229
v -0.5122895 -0.15353942 1.1126539
v -0.48610133 -0.15865786 1.1064101
v -0.51459146 -0.15865786 1.118211
v -0.5122895 -0.15353942 1.1126539
v -0.49165857 -0.15353942 1.1041082
v -0.5150138 -0.13998935 1.1192309
v -0.52741224 -0.13998935 1.0892986
v -0.52741224 -0.11830163 1.0892986
v -0.5150138 -0.11830163 1.1192309
v -0.48508158 -0.13998935 1.1068325
v -0.5150138 -0.13998935 1.1192309
v -0.5150138 -0.11830163 1.1192309
v -0.48508158 -0.11830163 1.1068325
v -0.5122895 -0.15353942 1.1126539
v -0.5208352 -0.15353942 1.0920229
v -0.5202978 0.07864106 1.0922456
v -0.5120669 0.07864106 1.1121166
v -0.49165857 -0.15353942 1.1041082
v -0.5122895 -0.15353942 1.1126539
v -0.5120669 0.07864106 1.1121166
v -0.492196 0.07864106 1.1038857
v -0.5120669 0.07864106 1.1121166
v -0.5202978 0.07864106 1.0922456
v -0.5252947 0.08338402 1.0901757
v -0.51413673 0.08338402 1.1171135
v -0.492196 0.07864106 1.1038857
v -0.5120669 0.07864106 1.1121166
v -0.51413673 0.08338402 1.1171135
v -0.48719904 0.08338402 1.1059555
v -0.51413673 0.08338402 1.1171135
v -0.5252947 0.08338402 1.0901757
v -0.5252947 0.115668215 1.0901759
v -0.51413673 0.11566832 1.1171134
v -0.48719904 0.08338402 1.1059555
v -0.51413673 0.08338402 1.1171135
v -0.51413673 0.11566832 1.1171134
v -0.48719904 0.11566821 1.1059555
v -0.51413673 0.11566832 1.1171134
v -0.5252947 0.115668215 1.0901759
v -0.51962686 0.123147696 1.0925235
v -0.511789 0.12314776 1.1114457
v -0.48719904 0.11566821 1.1059555
v -0.51413673 0.11566832 1.1171134
v -0.511789 0.12314776 1.1114457
v -0.49286693 0.12314769 1.1036079
v -0.510681 0.12314769 1.1087703
v -0.51695156 0.12314769 1.0936316
v -0.5105516 0.13954112 1.0962826
v -0.5080299 0.13954112 1.1023703
v -0.49554226 0.12314769 1.1024997
v -0.510681 0.12314769 1.1087703
v -0.5080299 0.13954112 1.1023703
v -0.5019422 0.13954112 1.0998486
vt 0.98215306 0.025807805
vt 0.99656874 0.036723413
vt 0.99059767 0.0054268097
vt 0.9362705 0.6317753
vt 0.9928584 0.64258957
vt 0.97315663 0.6164816
vt 0.9342051 0.59868
vt 0.8984352 0.591857
vt 0.91091025 0.6083293
vt 0.93565774 0.72031724
vt 0.94778514 0.70381206
vt 0.9124992 0.7106488
vt 0.97315705 0.6811027
vt 0.99285877 0.65499467
vt 0.9362709 0.6658089
vt 0.9965687 0.0029537736
vt 0.9905976 0.034250297
vt 0.98215306 0.013869138
vt 0.9884147 0.6317753
vt 0.9318274 0.64258957
vt 0.9515279 0.6164816
vt 0.9012612 0.59868
vt 0.93703127 0.591857
vt 0.92455614 0.6083293
vt 0.90985084 0.70381206
vt 0.9451395 0.7106488
vt 0.92198455 0.72031724
vt 0.9318279 0.65499467
vt 0.9884151 0.6658089
vt 0.95152825 0.6811027
vt 0.85437226 0.029061776
vt 0.80937034 0.029061776
vt 0.8093835 0.7266956
vt 0.85436404 0.7266956
vt 0.85437226 0.029061776
vt 0.85436404 0.7266956
vt 0.888725 0.7266956
vt 0.8887043 0.029061776
vt 0.8093835 0.73443604
vt 0.81486416 0.7532473
vt 0.85311556 0.7532473
vt 0.85436404 0.73443604
vt 0.85436404 0.73443604
vt 0.85311556 0.7532473
vt 0.88017553 0.7532473
vt 0.888725 0.73443604
vt 0.85437214 0.023756273
vt 0.85274553 0.014744914
vt 0.8121723 0.014744914
vt 0.80937016 0.023756273
vt 0.8887044 0.023756273
vt 0.8829025 0.014744914
vt 0.85274553 0.014744914
vt 0.85437214 0.023756273
vt 0.95629776 0.5796371
vt 0.95629776 0.5528849
vt 0.9094819 0.5528849
vt 0.9094819 0.57963717
vt 0.99141127 0.57963705
vt 0.99141127 0.5528849
vt 0.95629776 0.5528849
vt 0.95629776 0.5796371
vt 0.9522396 0.4108977
vt 0.9525104 0.12468304
vt 0.917829 0.12468304
vt 0.91758645 0.4108977
vt 0.9775952 0.4108977
vt 0.9775952 0.12468304
vt 0.9525104 0.12468304
vt 0.9522396 0.4108977
vt 0.9525104 0.11528863
vt 0.9531633 0.10645761
vt 0.9147241 0.10645761
vt 0.917829 0.11528863
vt 0.9775952 0.11528863
vt 0.98280877 0.10645761
vt 0.9531633 0.10645761
vt 0.9525104 0.11528863
vt 0.9531633 0.099435166
vt 0.9532818 0.059091587
vt 0.9145924 0.059091587
vt 0.9147241 0.099435166
vt 0.98280877 0.099435166
vt 0.98280877 0.059091587
vt 0.9532818 0.059091587
vt 0.9531633 0.099435166
vt 0.9532818 0.05469006
vt 0.9527294 0.04267263
vt 0.9176279 0.04267263
vt 0.9145924 0.05469006
vt 0.98280877 0.05469006
vt 0.9778188 0.04267263
vt 0.9527294 0.04267263
vt 0.9532818 0.05469006
vt 0.95151955 0.034283835
vt 0.9467525 0.0062129116
vt 0.93373364 0.0062129116
vt 0.91992503 0.034283835
vt 0.9744893 0.034283835
vt 0.95605105 0.0062129116
vt 0.9467525 0.0062129116
vt 0.95151955 0.034283835
vt 0.7978126 0.7266939
vt 0.7978022 0.029061541
vt 0.8320828 0.029061541
vt 0.832091 0.7266939
vt 0.832091 0.7266939
vt 0.8320828 0.029061541
vt 0.87711054 0.029061541
vt 0.8771124 0.7266939
vt 0.7978127 0.73443604
vt 0.83209115 0.73443604
vt 0.8333391 0.7532473
vt 0.80627775 0.7532473
vt 0.83209115 0.73443604
vt 0.8771127 0.73443604
vt 0.87158954 0.7532473
vt 0.8333391 0.7532473
vt 0.8320828 0.023756273
vt 0.7978022 0.023756273
vt 0.8027303 0.014744914
vt 0.8319917 0.014744914
vt 0.87711054 0.023756273
vt 0.8320828 0.023756273
vt 0.8319917 0.014744914
vt 0.87301224 0.014744914
vt 0.9328904 0.57963717
vt 0.8977771 0.57963717
vt 0.8977771 0.5528849
vt 0.9328904 0.5528849
vt 0.9797063 0.57963705
vt 0.9328904 0.57963717
vt 0.9328904 0.5528849
vt 0.9797063 0.5528849
vt 0.93452275 0.4108977
vt 0.90950894 0.4108977
vt 0.90950894 0.12468304
vt 0.9349363 0.12468304
vt 0.96934634 0.4108977
vt 0.93452275 0.4108977
vt 0.9349363 0.12468304
vt 0.96944636 0.12468304
vt 0.9349363 0.11528863
vt 0.90950894 0.11528863
vt 0.90461874 0.10645761
vt 0.9342748 0.10645761
vt 0.96944636 0.11528863
vt 0.9349363 0.11528863
vt 0.9342748 0.10645761
vt 0.97270775 0.10645761
vt 0.9342748 0.099435166
vt 0.90461874 0.099435166
vt 0.90461874 0.059091587
vt 0.9341376 0.059091587
vt 0.97270775 0.099435166
vt 0.9342748 0.099435166
vt 0.9341376 0.059091587
vt 0.9728317 0.059091587
vt 0.9341376 0.05469006
vt 0.90461874 0.05469006
vt 0.90959525 0.04267263
vt 0.9346833 0.04267263
vt 0.9728317 0.05469006
vt 0.9341376 0.05469006
vt 0.9346833 0.04267263
vt 0.9697858 0.04267263
vt 0.9354454 0.034283835
vt 0.9124422 0.034283835
vt 0.93072486 0.0062129116
vt 0.9400822 0.0062129116
vt 0.9670228 0.034283835
vt 0.9354454 0.034283835
vt 0.9400822 0.0062129116
vt 0.9530672 0.0062129116
vn -2.980164E-06 1 0
vn -0 1 0
vn -2.980164E-06 1 0
vn -0 -1 0
vn -0 -1 0
vn -0 -1 0
vn -0 -1 0
vn -0 -1 0
vn -0 -1 0
vn -0 1 0
vn -0 1 8.9517243E-07
vn -0 1 0
vn -0 1 0
vn -0 1 0
vn -0 1 0
vn -0 1 0
vn -2.980164E-06 1 0
vn -2.980164E-06 1 0
vn -0 -1 0
vn -0 -1 0
vn -0 -1 0
vn -0 -1 0
vn -0 -1 0
vn -0 -1 0
vn -0 1 0
vn -0 1 0
vn -0 1 0
vn -0 1 0
vn -0 1 0
vn -0 1 0
vn -0 0.00076294 -0.99999976
vn -0.70710653 0.00076294446 -0.70710653
vn -0.67913914 -0.27848917 -0.6791272
vn -0 -0.27849165 -0.9604386
vn 0.70710653 0.00076294446 -0.70710653
vn 0.67913914 -0.27848917 -0.6791272
vn 0.9604386 -0.27849165 0
vn 0.99999976 0.00076294 0
vn -0.67913914 -0.27848917 -0.6791272
vn -0.58174753 -0.5684659 -0.5817356
vn -0 -0.5684683 -0.82270527
vn -0 -0.27849165 -0.9604386
vn 0.67913914 -0.27848917 -0.6791272
vn 0.58174753 -0.5684659 -0.5817356
vn 0.82270527 -0.5684683 0
vn 0.9604386 -0.27849165 0
vn -0 0.78616446 -0.6180174
vn -0 0.78617024 -0.6180099
vn -0.4369994 0.7861698 -0.4369994
vn -0.4369994 0.7861698 -0.4369994
vn 0.61800265 0.786176 0
vn 0.6180099 0.78617024 0
vn 0.4369994 0.7861698 -0.4369994
vn 0.4369994 0.7861698 -0.4369994
vn -0 0 -1
vn -0 0 -1
vn -0.70710075 0 -0.7071127
vn -0.70710075 0 -0.7071127
vn 1 0 -1.4375146E-07
vn 1 0 1.026792E-07
vn 0.70710075 0 -0.7071127
vn 0.70710075 0 -0.7071127
vn -0 0.0026702813 -0.9999964
vn -0 0.0026702813 -0.9999964
vn -0.7070983 0.0026702743 -0.70711017
vn -0.7070983 0.0026702743 -0.70711017
vn 0.9999964 0.0026702813 0
vn 0.9999964 0.0026702813 0
vn 0.7070983 0.0026702743 -0.70711017
vn 0.7070983 0.0026702743 -0.70711017
vn -0 -0.7769419 -0.62957233
vn -0 -0.7769477 -0.6295651
vn -0.44517353 -0.7769434 -0.44517353
vn -0.44517353 -0.7769434 -0.44517353
vn 0.6295651 -0.7769477 -2.2442234E-07
vn 0.6295651 -0.7769477 -3.0621186E-07
vn 0.44517353 -0.7769434 -0.44517353
vn 0.44517353 -0.7769434 -0.44517353
vn -0 0 -1
vn -0 0 -1
vn -0.70710075 0 -0.7071127
vn -0.70710075 0 -0.7071127
vn 1 0 0
vn 1 0 0
vn 0.70710075 0 -0.7071127
vn 0.70710075 0 -0.7071127
vn -0 0.66392565 -0.7477985
vn -0 0.6639316 -0.7477933
vn -0.52877223 0.66392756 -0.52877223
vn -0.5287756 0.6639317 -0.52876365
vn 0.7477881 0.6639375 3.080552E-07
vn 0.7477933 0.6639316 2.279535E-07
vn 0.52877223 0.66392756 -0.52877223
vn 0.5287756 0.6639317 -0.52876365
vn -0 0.4158274 -0.90944356
vn -0 0.4159851 -0.90937144
vn -0.6430187 0.41598368 -0.64302766
vn -0.64302 0.41598445 -0.64302593
vn 0.90937144 0.4159851 0
vn 0.90937245 0.41598284 0
vn 0.6430187 0.41598368 -0.64302766
vn 0.64302 0.41598445 -0.64302593
vn -0.9604386 -0.27849165 0
vn -0.99999976 0.00076294 0
vn -0.70710653 0.00076294446 0.70710653
vn -0.67913276 -0.2784914 0.67913276
vn -0 -0.27849165 0.9604386
vn -0 0.00076294 0.99999976
vn 0.70710653 0.00076294446 0.70710653
vn 0.67913276 -0.2784914 0.67913276
vn -0.9604386 -0.27849165 0
vn -0.67913276 -0.2784914 0.67913276
vn -0.58174753 -0.5684659 0.5817356
vn -0.82270527 -0.5684683 0
vn -0 -0.27849165 0.9604386
vn 0.67913276 -0.2784914 0.67913276
vn 0.58174753 -0.5684659 0.5817356
vn -0 -0.5684683 0.82270527
vn -0.4369994 0.7861698 0.4369994
vn -0.61800265 0.786176 0
vn -0.6180099 0.78617024 0
vn -0.4369994 0.7861698 0.4369994
vn 0.4369994 0.7861698 0.4369994
vn -0 0.78616446 0.6180174
vn -0 0.78617024 0.6180099
vn 0.4369994 0.7861698 0.4369994
vn -0.70710075 0 0.7071127
vn -1 0 -1.4375146E-07
vn -1 0 1.026792E-07
vn -0.70710677 0 0.70710677
vn 0.70710075 0 0.7071127
vn -0 0 1
vn -0 0 1
vn 0.70710677 0 0.70710677
vn -0.7070983 0.0026702743 0.70711017
vn -0.9999964 0.0026702813 0
vn -0.9999964 0.0026702813 0
vn -0.7070983 0.0026702743 0.70711017
vn 0.7070983 0.0026702743 0.70711017
vn -0 0.0026702813 0.9999964
vn -0 0.0026702813 0.9999964
vn 0.7070983 0.0026702743 0.70711017
vn -0.44510752 -0.777019 0.44510752
vn -0.6295651 -0.7769477 -2.2442234E-07
vn -0.6295651 -0.7769477 -3.0621186E-07
vn -0.44510752 -0.777019 0.44510752
vn 0.44510752 -0.777019 0.44510752
vn -0 -0.7770174 0.629479
vn -0 -0.7770233 0.62947184
vn 0.44510752 -0.777019 0.44510752
vn -0.70710075 0 0.7071127
vn -1 0 0
vn -1 0 0
vn -0.70710075 0 0.7071127
vn 0.70710075 0 0.7071127
vn -0 0 1
vn -0 0 1
vn 0.70710075 0 0.7071127
vn -0.5287756 0.6639317 0.52876365
vn -0.7477881 0.6639375 3.080552E-07
vn -0.7477933 0.6639316 2.279535E-07
vn -0.52877223 0.66392756 0.52877223
vn 0.5287756 0.6639317 0.52876365
vn -0 0.66392565 0.7477985
vn -0 0.6639316 0.7477933
vn 0.52877223 0.66392756 0.52877223
vn -0.64302 0.41598445 0.64302593
vn -0.90937144 0.4159851 0
vn -0.90937245 0.41598284 0
vn -0.6430187 0.41598368 0.64302766
vn 0.64302 0.41598445 0.64302593
vn -0 0.4159851 0.90937144
vn -0 0.4159851 0.90937144
vn 0.6430187 0.41598368 0.64302766
g SeparateMesh_Monster_MeleeSoldier_Model_Weapon02_LOD1_0
f 3/3/3 2/2/2 1/1/1
f 6/6/6 5/5/5 4/4/4
f 9/9/9 8/8/8 7/7/7
f 12/12/12 11/11/11 10/10/10
f 15/15/15 14/14/14 13/13/13
f 18/18/18 17/17/17 16/16/16
f 21/21/21 20/20/20 19/19/19
f 24/24/24 23/23/23 22/22/22
f 27/27/27 26/26/26 25/25/25
f 30/30/30 29/29/29 28/28/28
f 33/33/33 32/32/32 31/31/31
f 34/34/34 33/33/33 31/31/31
f 37/37/37 36/36/36 35/35/35
f 38/38/38 37/37/37 35/35/35
f 41/41/41 40/40/40 39/39/39
f 42/42/42 41/41/41 39/39/39
f 45/45/45 44/44/44 43/43/43
f 46/46/46 45/45/45 43/43/43
f 49/49/49 48/48/48 47/47/47
f 50/50/50 49/49/49 47/47/47
f 53/53/53 52/52/52 51/51/51
f 54/54/54 53/53/53 51/51/51
f 57/57/57 56/56/56 55/55/55
f 58/58/58 57/57/57 55/55/55
f 61/61/61 60/60/60 59/59/59
f 62/62/62 61/61/61 59/59/59
f 65/65/65 64/64/64 63/63/63
f 66/66/66 65/65/65 63/63/63
f 69/69/69 68/68/68 67/67/67
f 70/70/70 69/69/69 67/67/67
f 73/73/73 72/72/72 71/71/71
f 74/74/74 73/73/73 71/71/71
f 77/77/77 76/76/76 75/75/75
f 78/78/78 77/77/77 75/75/75
f 81/81/81 80/80/80 79/79/79
f 82/82/82 81/81/81 79/79/79
f 85/85/85 84/84/84 83/83/83
f 86/86/86 85/85/85 83/83/83
f 89/89/89 88/88/88 87/87/87
f 90/90/90 89/89/89 87/87/87
f 93/93/93 92/92/92 91/91/91
f 94/94/94 93/93/93 91/91/91
f 97/97/97 96/96/96 95/95/95
f 98/98/98 97/97/97 95/95/95
f 101/101/101 100/100/100 99/99/99
f 102/102/102 101/101/101 99/99/99
f 105/105/105 104/104/104 103/103/103
f 106/106/106 105/105/105 103/103/103
f 109/109/109 108/108/108 107/107/107
f 110/110/110 109/109/109 107/107/107
f 113/113/113 112/112/112 111/111/111
f 114/114/114 113/113/113 111/111/111
f 117/117/117 116/116/116 115/115/115
f 118/118/118 117/117/117 115/115/115
f 121/121/121 120/120/120 119/119/119
f 122/122/122 121/121/121 119/119/119
f 125/125/125 124/124/124 123/123/123
f 126/126/126 125/125/125 123/123/123
f 129/129/129 128/128/128 127/127/127
f 130/130/130 129/129/129 127/127/127
f 133/133/133 132/132/132 131/131/131
f 134/134/134 133/133/133 131/131/131
f 137/137/137 136/136/136 135/135/135
f 138/138/138 137/137/137 135/135/135
f 141/141/141 140/140/140 139/139/139
f 142/142/142 141/141/141 139/139/139
f 145/145/145 144/144/144 143/143/143
f 146/146/146 145/145/145 143/143/143
f 149/149/149 148/148/148 147/147/147
f 150/150/150 149/149/149 147/147/147
f 153/153/153 152/152/152 151/151/151
f 154/154/154 153/153/153 151/151/151
f 157/157/157 156/156/156 155/155/155
f 158/158/158 157/157/157 155/155/155
f 161/161/161 160/160/160 159/159/159
f 162/162/162 161/161/161 159/159/159
f 165/165/165 164/164/164 163/163/163
f 166/166/166 165/165/165 163/163/163
f 169/169/169 168/168/168 167/167/167
f 170/170/170 169/169/169 167/167/167
f 173/173/173 172/172/172 171/171/171
f 174/174/174 173/173/173 171/171/171
