g Common_Prop_Cloth_04
v 0.26776794 -0.21926787 0.0023935144
v 0.53553647 0.093389586 0.0023935167
v 0.53553647 -0.21926787 0.0023935144
v 0.26776794 0.093389586 0.0023935167
v -3.0517577E-07 -0.21926787 0.0023935144
v 0.53553647 0.40604705 0.002393519
v -3.0517577E-07 0.093389586 0.0023935167
v -0.26776856 -0.21926787 0.0023935144
v 0.26776794 0.40604705 0.002393519
v 0.53553647 0.71870434 0.0023935214
v -0.26776856 0.093389586 0.0023935167
v -0.53553677 -0.21926787 0.0023935144
v -0.53553677 0.093389586 0.0023935167
v 0.26776794 0.71870434 0.0023935214
v 0.53553647 1.0313618 0.002393524
v -3.0517577E-07 0.40604705 0.002393519
v -0.26776856 0.40604675 0.002393519
v -0.53553677 0.40604675 0.002393519
v 0.26776794 1.0313618 0.002393524
v 0.53553647 1.3440192 0.0023935263
v -3.0517577E-07 0.71870434 0.0023935214
v -0.26776856 0.7187042 0.0023935214
v -0.53553677 0.7187042 0.0023935214
v 0.26776794 1.3440192 0.0023935263
v 0.53553647 1.6566767 0.0023935286
v -3.0517577E-07 1.0313618 0.002393524
v -0.26776856 1.0313617 0.002393524
v -0.53553677 1.0313617 0.002393524
v 0.26776794 1.6566767 0.0023935286
v 0.53553647 1.969334 0.002393531
v -3.0517577E-07 1.3440192 0.0023935263
v -0.26776856 1.3440192 0.0023935263
v -0.53553677 1.3440192 0.0023935263
v 0.26776794 1.969334 0.002393531
v 0.53553647 2.2819915 0.0023935335
v -3.0517577E-07 1.6566767 0.0023935286
v -0.26776856 1.6566767 0.0023935286
v -0.53553677 1.6566767 0.0023935286
v 0.26776794 2.2819915 0.0023935335
v 0.53553647 2.5946486 0.0023935358
v -3.0517577E-07 1.969334 0.002393531
v -0.26776856 1.969334 0.002393531
v -0.53553677 1.969334 0.002393531
v 0.26776794 2.5946486 0.0023935358
v 0.53553647 2.9073062 0.0023935381
v -3.0517577E-07 2.2819915 0.0023935335
v -0.26776856 2.2819915 0.0023935335
v -0.53553677 2.2819915 0.0023935335
v 0.26776794 2.9073062 0.0023935381
v 0.53553647 3.2199636 0.0023935405
v -3.0517577E-07 2.5946486 0.0023935358
v -0.26776856 2.5946486 0.0023935358
v -0.53553677 2.5946486 0.0023935358
v 0.26776794 3.2199636 0.0023935405
v 0.53553647 3.5326211 0.002393543
v -3.0517577E-07 2.9073062 0.0023935381
v -0.26776856 2.9073062 0.0023935381
v -0.53553677 2.9073062 0.0023935381
v 0.26776794 3.5326211 0.002393543
v 0.53553647 3.8452785 0.0023935454
v -3.0517577E-07 3.2199636 0.0023935405
v -0.26776856 3.2199636 0.0023935405
v -0.53553677 3.2199636 0.0023935405
v 0.26776794 3.8452785 0.0023935454
v 0.53553647 4.157936 0.0023935477
v -3.0517577E-07 3.5326211 0.002393543
v -0.26776856 3.5326207 0.002393543
v -0.53553677 3.5326207 0.002393543
v 0.26776794 4.157936 0.0023935477
v 0.53553647 4.470593 0.00239355
v -3.0517577E-07 3.8452785 0.0023935454
v -0.26776856 3.8452783 0.0023935454
v -0.53553677 3.8452783 0.0023935454
v 0.26776794 4.470593 0.00239355
v 0.53553647 4.731097 0.0023935388
v -3.0517577E-07 4.157936 0.0023935477
v -0.26776856 4.1579356 0.0023935477
v -0.53553677 4.1579356 0.0023935477
v 0.26776794 4.731097 0.0023935388
v 0.53553647 4.9916015 0.0023935277
v 0.26776794 4.9916015 0.0023935277
v -3.0517577E-07 4.470593 0.00239355
v -0.26776856 4.470593 0.00239355
v -0.53553677 4.470593 0.00239355
v -3.0517577E-07 4.731097 0.0023935388
v -3.0517577E-07 4.9916015 0.0023935277
v -0.26776856 4.731097 0.0023935388
v -0.53553677 4.731097 0.0023935388
v -0.26776856 4.9916015 0.0023935277
v -0.53553677 4.9916015 0.0023935277
v 0.53553647 0.093389586 -0.002394097
v 0.26776794 -0.21926787 -0.0023940997
v 0.53553647 -0.21926787 -0.0023940997
v 0.26776794 0.093389586 -0.002394097
v 0.53553647 0.40604705 -0.0023940946
v -3.0517577E-07 -0.21926787 -0.0023940997
v 0.26776794 0.40604705 -0.0023940946
v 0.53553647 0.71870434 -0.0023940923
v -3.0517577E-07 0.093389586 -0.002394097
v -0.26776856 -0.21926787 -0.0023940997
v 0.26776794 0.71870434 -0.0023940923
v 0.53553647 1.0313618 -0.0023940897
v -0.26776856 0.093389586 -0.002394097
v -0.53553677 -0.21926787 -0.0023940997
v -0.53553677 0.093389586 -0.002394097
v -3.0517577E-07 0.40604705 -0.0023940946
v -0.26776856 0.40604675 -0.0023940946
v -0.53553677 0.40604675 -0.0023940946
v 0.26776794 1.0313618 -0.0023940897
v 0.53553647 1.3440192 -0.0023940874
v -3.0517577E-07 0.71870434 -0.0023940923
v -0.26776856 0.7187042 -0.0023940923
v -0.53553677 0.7187042 -0.0023940923
v 0.26776794 1.3440192 -0.0023940874
v 0.53553647 1.6566767 -0.002394085
v -3.0517577E-07 1.0313618 -0.0023940897
v -0.26776856 1.0313617 -0.0023940897
v -0.53553677 1.0313617 -0.0023940897
v 0.26776794 1.6566767 -0.002394085
v 0.53553647 1.969334 -0.0023940827
v -3.0517577E-07 1.3440192 -0.0023940874
v -0.26776856 1.3440192 -0.0023940874
v -0.53553677 1.3440192 -0.0023940874
v 0.26776794 1.969334 -0.0023940827
v 0.53553647 2.2819915 -0.0023940802
v -3.0517577E-07 1.6566767 -0.002394085
v -0.26776856 1.6566767 -0.002394085
v -0.53553677 1.6566767 -0.002394085
v 0.26776794 2.2819915 -0.0023940802
v 0.53553647 2.5946486 -0.0023940778
v -3.0517577E-07 1.969334 -0.0023940827
v -0.26776856 1.969334 -0.0023940827
v -0.53553677 1.969334 -0.0023940827
v 0.26776794 2.5946486 -0.0023940778
v 0.53553647 2.9073062 -0.0023940757
v -3.0517577E-07 2.2819915 -0.0023940802
v -0.26776856 2.2819915 -0.0023940802
v -0.53553677 2.2819915 -0.0023940802
v 0.26776794 2.9073062 -0.0023940757
v 0.53553647 3.2199636 -0.0023940734
v -3.0517577E-07 2.5946486 -0.0023940778
v -0.26776856 2.5946486 -0.0023940778
v -0.53553677 2.5946486 -0.0023940778
v 0.26776794 3.2199636 -0.0023940734
v 0.53553647 3.5326211 -0.002394071
v -3.0517577E-07 2.9073062 -0.0023940757
v -0.26776856 2.9073062 -0.0023940757
v -0.53553677 2.9073062 -0.0023940757
v 0.26776794 3.5326211 -0.002394071
v 0.53553647 3.8452785 -0.0023940683
v -3.0517577E-07 3.2199636 -0.0023940734
v -0.26776856 3.2199636 -0.0023940734
v -0.53553677 3.2199636 -0.0023940734
v 0.26776794 3.8452785 -0.0023940683
v 0.53553647 4.157936 -0.002394066
v -3.0517577E-07 3.5326211 -0.002394071
v -0.26776856 3.5326207 -0.002394071
v -0.53553677 3.5326207 -0.002394071
v 0.26776794 4.157936 -0.002394066
v 0.53553647 4.470593 -0.0023940636
v -3.0517577E-07 3.8452785 -0.0023940683
v -0.26776856 3.8452783 -0.0023940683
v -0.53553677 3.8452783 -0.0023940683
v 0.26776794 4.470593 -0.0023940636
v 0.53553647 4.731097 -0.0023940748
v -3.0517577E-07 4.157936 -0.002394066
v -0.26776856 4.1579356 -0.002394066
v -0.53553677 4.1579356 -0.002394066
v 0.26776794 4.731097 -0.0023940748
v 0.53553647 4.9916015 -0.002394086
v 0.26776794 4.9916015 -0.002394086
v -3.0517577E-07 4.470593 -0.0023940636
v -0.26776856 4.470593 -0.0023940636
v -0.53553677 4.470593 -0.0023940636
v -3.0517577E-07 4.731097 -0.0023940748
v -3.0517577E-07 4.9916015 -0.002394086
v -0.26776856 4.731097 -0.0023940748
v -0.53553677 4.731097 -0.0023940748
v -0.26776856 4.9916015 -0.002394086
v -0.53553677 4.9916015 -0.002394086
vt 0.96644604 0.0053617326
vt 0.99378383 0.037282176
vt 0.99378383 0.0053617326
vt 0.96644604 0.037282176
vt 0.93910766 0.0053617326
vt 0.99378383 0.06920262
vt 0.93910766 0.037282176
vt 0.91176975 0.0053617326
vt 0.96644604 0.06920262
vt 0.99378383 0.101123124
vt 0.91176975 0.037282158
vt 0.8844321 0.0053617326
vt 0.8844321 0.037282158
vt 0.96644604 0.10112311
vt 0.99378383 0.13304374
vt 0.93910766 0.06920259
vt 0.91176975 0.06920258
vt 0.8844321 0.06920258
vt 0.96644604 0.13304374
vt 0.99378383 0.16496451
vt 0.93910766 0.10112311
vt 0.91176975 0.10112307
vt 0.8844321 0.10112307
vt 0.96644604 0.16496451
vt 0.99378383 0.19688557
vt 0.93910766 0.13304374
vt 0.91176975 0.1330437
vt 0.8844321 0.1330437
vt 0.96644604 0.19688557
vt 0.99378383 0.22880693
vt 0.93910766 0.16496451
vt 0.91176975 0.16496451
vt 0.8844321 0.16496451
vt 0.9664459 0.22880693
vt 0.99378383 0.2607286
vt 0.93910766 0.19688557
vt 0.91176975 0.19688557
vt 0.8844321 0.19688557
vt 0.9664459 0.2607286
vt 0.99378383 0.2926503
vt 0.93910766 0.22880693
vt 0.91176975 0.22880693
vt 0.8844321 0.22880693
vt 0.9664459 0.2926503
vt 0.99378383 0.32457158
vt 0.93910766 0.2607286
vt 0.91176975 0.2607286
vt 0.8844321 0.2607286
vt 0.9664459 0.32457158
vt 0.99378383 0.3564922
vt 0.93910766 0.2926503
vt 0.91176975 0.2926503
vt 0.8844321 0.2926503
vt 0.9664459 0.3564922
vt 0.99378383 0.3821829
vt 0.93910766 0.32457158
vt 0.91176975 0.32457158
vt 0.8844321 0.32457158
vt 0.9664459 0.3821829
vt 0.99378383 0.4115374
vt 0.93910766 0.3564922
vt 0.91176975 0.3564922
vt 0.8844321 0.3564922
vt 0.9664459 0.4115374
vt 0.99378383 0.4386928
vt 0.93910766 0.3821829
vt 0.91176975 0.3821829
vt 0.8844321 0.3821829
vt 0.9664459 0.4386928
vt 0.99378383 0.46548104
vt 0.93910766 0.41153747
vt 0.91176975 0.4115374
vt 0.8844321 0.41153738
vt 0.9664459 0.46548104
vt 0.99378383 0.49243292
vt 0.93910766 0.4386928
vt 0.91176975 0.43869272
vt 0.8844321 0.43869272
vt 0.9664459 0.49243292
vt 0.99378383 0.5160869
vt 0.9664459 0.5160869
vt 0.93910766 0.46548104
vt 0.91176975 0.465481
vt 0.8844321 0.465481
vt 0.93910766 0.49243292
vt 0.93910766 0.5160869
vt 0.91176975 0.49243292
vt 0.8844321 0.49243286
vt 0.91176975 0.5160869
vt 0.8844321 0.5160868
vt 0.99378383 0.037282176
vt 0.96644604 0.0053617326
vt 0.99378383 0.0053617326
vt 0.96644604 0.037282176
vt 0.99378383 0.06920262
vt 0.93910766 0.0053617326
vt 0.96644604 0.06920262
vt 0.99378383 0.101123124
vt 0.93910766 0.037282176
vt 0.91176975 0.0053617326
vt 0.96644604 0.10112311
vt 0.99378383 0.13304374
vt 0.91176975 0.037282158
vt 0.8844321 0.0053617326
vt 0.8844321 0.037282158
vt 0.93910766 0.06920259
vt 0.91176975 0.06920258
vt 0.8844321 0.06920258
vt 0.96644604 0.13304374
vt 0.99378383 0.16496451
vt 0.93910766 0.10112311
vt 0.91176975 0.10112307
vt 0.8844321 0.10112307
vt 0.96644604 0.16496451
vt 0.99378383 0.19688557
vt 0.93910766 0.13304374
vt 0.91176975 0.1330437
vt 0.8844321 0.1330437
vt 0.96644604 0.19688557
vt 0.99378383 0.22880693
vt 0.93910766 0.16496451
vt 0.91176975 0.16496451
vt 0.8844321 0.16496451
vt 0.9664459 0.22880693
vt 0.99378383 0.2607286
vt 0.93910766 0.19688557
vt 0.91176975 0.19688557
vt 0.8844321 0.19688557
vt 0.9664459 0.2607286
vt 0.99378383 0.2926503
vt 0.93910766 0.22880693
vt 0.91176975 0.22880693
vt 0.8844321 0.22880693
vt 0.9664459 0.2926503
vt 0.99378383 0.32457158
vt 0.93910766 0.2607286
vt 0.91176975 0.2607286
vt 0.8844321 0.2607286
vt 0.9664459 0.32457158
vt 0.99378383 0.3564922
vt 0.93910766 0.2926503
vt 0.91176975 0.2926503
vt 0.8844321 0.2926503
vt 0.9664459 0.3564922
vt 0.99378383 0.3821829
vt 0.93910766 0.32457158
vt 0.91176975 0.32457158
vt 0.8844321 0.32457158
vt 0.9664459 0.3821829
vt 0.99378383 0.4115374
vt 0.93910766 0.3564922
vt 0.91176975 0.3564922
vt 0.8844321 0.3564922
vt 0.9664459 0.4115374
vt 0.99378383 0.4386928
vt 0.93910766 0.3821829
vt 0.91176975 0.3821829
vt 0.8844321 0.3821829
vt 0.9664459 0.4386928
vt 0.99378383 0.46548104
vt 0.93910766 0.41153747
vt 0.91176975 0.4115374
vt 0.8844321 0.41153738
vt 0.9664459 0.46548104
vt 0.99378383 0.49243292
vt 0.93910766 0.4386928
vt 0.91176975 0.43869272
vt 0.8844321 0.43869272
vt 0.9664459 0.49243292
vt 0.99378383 0.5160869
vt 0.9664459 0.5160869
vt 0.93910766 0.46548104
vt 0.91176975 0.465481
vt 0.8844321 0.465481
vt 0.93910766 0.49243292
vt 0.93910766 0.5160869
vt 0.91176975 0.49243292
vt 0.8844321 0.49243286
vt 0.91176975 0.5160869
vt 0.8844321 0.5160868
vn -0 0 1
vn -0 0 1
vn -0 0 1
vn -0 0 1
vn -0 0 1
vn -0 0 1
vn -0 0 1
vn -0 0 1
vn -0 0 1
vn -0 0 1
vn -0 0 1
vn -0 0 1
vn -0 0 1
vn -0 0 1
vn -0 0 1
vn -0 0 1
vn -0 0 1
vn -0 0 1
vn -0 0 1
vn -0 0 1
vn -0 0 1
vn -0 0 1
vn -0 0 1
vn -0 0 1
vn -0 0 1
vn -0 0 1
vn -0 0 1
vn -0 0 1
vn -0 0 1
vn -0 0 1
vn -0 0 1
vn -0 0 1
vn -0 0 1
vn -0 0 1
vn -0 0 1
vn -0 0 1
vn -0 0 1
vn -0 0 1
vn -0 0 1
vn -0 0 1
vn -0 0 1
vn -0 0 1
vn -0 0 1
vn -0 0 1
vn -0 0 1
vn -0 0 1
vn -0 0 1
vn -0 0 1
vn -0 0 1
vn -0 0 1
vn -0 0 1
vn -0 0 1
vn -0 0 1
vn -0 0 1
vn -0 0 1
vn -0 0 1
vn -0 0 1
vn -0 0 1
vn -0 0 1
vn -0 0 1
vn -0 0 1
vn -0 0 1
vn -0 0 1
vn -0 0 1
vn -0 0 1
vn -0 0 1
vn -0 0 1
vn -0 0 1
vn -0 0 1
vn -0 0 1
vn -0 0 1
vn -0 0 1
vn -0 0 1
vn -0 0 1
vn -0 0 1
vn -0 0 1
vn -0 0 1
vn -0 0 1
vn -0 0 1
vn -0 0 1
vn -0 0 1
vn -0 0 1
vn -0 0 1
vn -0 0 1
vn -0 0 1
vn -0 0 1
vn -0 0 1
vn -0 0 1
vn -0 0 1
vn -0 0 1
vn -0 0 -1
vn -0 0 -1
vn -0 0 -1
vn -0 0 -1
vn -0 0 -1
vn -0 0 -1
vn -0 0 -1
vn -0 0 -1
vn -0 0 -1
vn -0 0 -1
vn -0 0 -1
vn -0 0 -1
vn -0 0 -1
vn -0 0 -1
vn -0 0 -1
vn -0 0 -1
vn -0 0 -1
vn -0 0 -1
vn -0 0 -1
vn -0 0 -1
vn -0 0 -1
vn -0 0 -1
vn -0 0 -1
vn -0 0 -1
vn -0 0 -1
vn -0 0 -1
vn -0 0 -1
vn -0 0 -1
vn -0 0 -1
vn -0 0 -1
vn -0 0 -1
vn -0 0 -1
vn -0 0 -1
vn -0 0 -1
vn -0 0 -1
vn -0 0 -1
vn -0 0 -1
vn -0 0 -1
vn -0 0 -1
vn -0 0 -1
vn -0 0 -1
vn -0 0 -1
vn -0 0 -1
vn -0 0 -1
vn -0 0 -1
vn -0 0 -1
vn -0 0 -1
vn -0 0 -1
vn -0 0 -1
vn -0 0 -1
vn -0 0 -1
vn -0 0 -1
vn -0 0 -1
vn -0 0 -1
vn -0 0 -1
vn -0 0 -1
vn -0 0 -1
vn -0 0 -1
vn -0 0 -1
vn -0 0 -1
vn -0 0 -1
vn -0 0 -1
vn -0 0 -1
vn -0 0 -1
vn -0 0 -1
vn -0 0 -1
vn -0 0 -1
vn -0 0 -1
vn -0 0 -1
vn -0 0 -1
vn -0 0 -1
vn -0 0 -1
vn -0 0 -1
vn -0 0 -1
vn -0 0 -1
vn -0 0 -1
vn -0 0 -1
vn -0 0 -1
vn -0 0 -1
vn -0 0 -1
vn -0 0 -1
vn -0 0 -1
vn -0 0 -1
vn -0 0 -1
vn -0 0 -1
vn -0 0 -1
vn -0 0 -1
vn -0 0 -1
vn -0 0 -1
vn -0 0 -1
g Common_Prop_Cloth_04_0
f 3/3/3 2/2/2 1/1/1
f 2/2/2 4/4/4 1/1/1
f 1/1/1 4/4/4 5/5/5
f 2/2/2 6/6/6 4/4/4
f 4/4/4 7/7/7 5/5/5
f 5/5/5 7/7/7 8/8/8
f 6/6/6 9/9/9 4/4/4
f 4/4/4 9/9/9 7/7/7
f 6/6/6 10/10/10 9/9/9
f 7/7/7 11/11/11 8/8/8
f 8/8/8 11/11/11 12/12/12
f 11/11/11 13/13/13 12/12/12
f 10/10/10 14/14/14 9/9/9
f 10/10/10 15/15/15 14/14/14
f 9/9/9 16/16/16 7/7/7
f 7/7/7 16/16/16 11/11/11
f 9/9/9 14/14/14 16/16/16
f 11/11/11 17/17/17 13/13/13
f 16/16/16 17/17/17 11/11/11
f 17/17/17 18/18/18 13/13/13
f 15/15/15 19/19/19 14/14/14
f 15/15/15 20/20/20 19/19/19
f 14/14/14 21/21/21 16/16/16
f 16/16/16 21/21/21 17/17/17
f 14/14/14 19/19/19 21/21/21
f 17/17/17 22/22/22 18/18/18
f 21/21/21 22/22/22 17/17/17
f 22/22/22 23/23/23 18/18/18
f 20/20/20 24/24/24 19/19/19
f 20/20/20 25/25/25 24/24/24
f 19/19/19 26/26/26 21/21/21
f 21/21/21 26/26/26 22/22/22
f 19/19/19 24/24/24 26/26/26
f 22/22/22 27/27/27 23/23/23
f 26/26/26 27/27/27 22/22/22
f 27/27/27 28/28/28 23/23/23
f 25/25/25 29/29/29 24/24/24
f 25/25/25 30/30/30 29/29/29
f 24/24/24 31/31/31 26/26/26
f 26/26/26 31/31/31 27/27/27
f 24/24/24 29/29/29 31/31/31
f 27/27/27 32/32/32 28/28/28
f 31/31/31 32/32/32 27/27/27
f 32/32/32 33/33/33 28/28/28
f 30/30/30 34/34/34 29/29/29
f 34/34/34 30/30/30 35/35/35
f 29/29/29 36/36/36 31/31/31
f 31/31/31 36/36/36 32/32/32
f 29/29/29 34/34/34 36/36/36
f 32/32/32 37/37/37 33/33/33
f 36/36/36 37/37/37 32/32/32
f 37/37/37 38/38/38 33/33/33
f 39/39/39 34/34/34 35/35/35
f 39/39/39 35/35/35 40/40/40
f 34/34/34 41/41/41 36/36/36
f 36/36/36 41/41/41 37/37/37
f 41/41/41 34/34/34 39/39/39
f 37/37/37 42/42/42 38/38/38
f 41/41/41 42/42/42 37/37/37
f 42/42/42 43/43/43 38/38/38
f 44/44/44 39/39/39 40/40/40
f 44/44/44 40/40/40 45/45/45
f 46/46/46 41/41/41 39/39/39
f 42/42/42 41/41/41 46/46/46
f 46/46/46 39/39/39 44/44/44
f 42/42/42 47/47/47 43/43/43
f 47/47/47 42/42/42 46/46/46
f 47/47/47 48/48/48 43/43/43
f 49/49/49 44/44/44 45/45/45
f 49/49/49 45/45/45 50/50/50
f 51/51/51 46/46/46 44/44/44
f 47/47/47 46/46/46 51/51/51
f 51/51/51 44/44/44 49/49/49
f 47/47/47 52/52/52 48/48/48
f 52/52/52 47/47/47 51/51/51
f 52/52/52 53/53/53 48/48/48
f 54/54/54 49/49/49 50/50/50
f 54/54/54 50/50/50 55/55/55
f 56/56/56 51/51/51 49/49/49
f 52/52/52 51/51/51 56/56/56
f 56/56/56 49/49/49 54/54/54
f 53/53/53 52/52/52 57/57/57
f 57/57/57 52/52/52 56/56/56
f 58/58/58 53/53/53 57/57/57
f 59/59/59 54/54/54 55/55/55
f 59/59/59 55/55/55 60/60/60
f 61/61/61 56/56/56 54/54/54
f 57/57/57 56/56/56 61/61/61
f 61/61/61 54/54/54 59/59/59
f 58/58/58 57/57/57 62/62/62
f 62/62/62 57/57/57 61/61/61
f 63/63/63 58/58/58 62/62/62
f 64/64/64 59/59/59 60/60/60
f 64/64/64 60/60/60 65/65/65
f 66/66/66 61/61/61 59/59/59
f 62/62/62 61/61/61 66/66/66
f 66/66/66 59/59/59 64/64/64
f 63/63/63 62/62/62 67/67/67
f 67/67/67 62/62/62 66/66/66
f 68/68/68 63/63/63 67/67/67
f 69/69/69 64/64/64 65/65/65
f 69/69/69 65/65/65 70/70/70
f 71/71/71 66/66/66 64/64/64
f 67/67/67 66/66/66 71/71/71
f 71/71/71 64/64/64 69/69/69
f 68/68/68 67/67/67 72/72/72
f 72/72/72 67/67/67 71/71/71
f 73/73/73 68/68/68 72/72/72
f 74/74/74 69/69/69 70/70/70
f 74/74/74 70/70/70 75/75/75
f 76/76/76 71/71/71 69/69/69
f 72/72/72 71/71/71 76/76/76
f 76/76/76 69/69/69 74/74/74
f 73/73/73 72/72/72 77/77/77
f 77/77/77 72/72/72 76/76/76
f 78/78/78 73/73/73 77/77/77
f 79/79/79 74/74/74 75/75/75
f 79/79/79 75/75/75 80/80/80
f 81/81/81 79/79/79 80/80/80
f 82/82/82 76/76/76 74/74/74
f 77/77/77 76/76/76 82/82/82
f 82/82/82 74/74/74 79/79/79
f 78/78/78 77/77/77 83/83/83
f 83/83/83 77/77/77 82/82/82
f 84/84/84 78/78/78 83/83/83
f 85/85/85 79/79/79 81/81/81
f 85/85/85 82/82/82 79/79/79
f 83/83/83 82/82/82 85/85/85
f 86/86/86 85/85/85 81/81/81
f 84/84/84 83/83/83 87/87/87
f 87/87/87 83/83/83 85/85/85
f 87/87/87 85/85/85 86/86/86
f 88/88/88 84/84/84 87/87/87
f 89/89/89 87/87/87 86/86/86
f 88/88/88 87/87/87 89/89/89
f 90/90/90 88/88/88 89/89/89
f 93/93/93 92/92/92 91/91/91
f 92/92/92 94/94/94 91/91/91
f 91/91/91 94/94/94 95/95/95
f 92/92/92 96/96/96 94/94/94
f 94/94/94 97/97/97 95/95/95
f 95/95/95 97/97/97 98/98/98
f 96/96/96 99/99/99 94/94/94
f 94/94/94 99/99/99 97/97/97
f 96/96/96 100/100/100 99/99/99
f 97/97/97 101/101/101 98/98/98
f 98/98/98 101/101/101 102/102/102
f 100/100/100 103/103/103 99/99/99
f 100/100/100 104/104/104 103/103/103
f 104/104/104 105/105/105 103/103/103
f 99/99/99 106/106/106 97/97/97
f 99/99/99 103/103/103 106/106/106
f 97/97/97 106/106/106 101/101/101
f 103/103/103 105/105/105 107/107/107
f 103/103/103 107/107/107 106/106/106
f 105/105/105 108/108/108 107/107/107
f 101/101/101 109/109/109 102/102/102
f 102/102/102 109/109/109 110/110/110
f 106/106/106 111/111/111 101/101/101
f 106/106/106 107/107/107 111/111/111
f 101/101/101 111/111/111 109/109/109
f 107/107/107 108/108/108 112/112/112
f 107/107/107 112/112/112 111/111/111
f 108/108/108 113/113/113 112/112/112
f 109/109/109 114/114/114 110/110/110
f 110/110/110 114/114/114 115/115/115
f 111/111/111 116/116/116 109/109/109
f 111/111/111 112/112/112 116/116/116
f 109/109/109 116/116/116 114/114/114
f 112/112/112 113/113/113 117/117/117
f 112/112/112 117/117/117 116/116/116
f 113/113/113 118/118/118 117/117/117
f 114/114/114 119/119/119 115/115/115
f 115/115/115 119/119/119 120/120/120
f 116/116/116 121/121/121 114/114/114
f 116/116/116 117/117/117 121/121/121
f 114/114/114 121/121/121 119/119/119
f 117/117/117 118/118/118 122/122/122
f 117/117/117 122/122/122 121/121/121
f 118/118/118 123/123/123 122/122/122
f 119/119/119 124/124/124 120/120/120
f 125/125/125 120/120/120 124/124/124
f 121/121/121 126/126/126 119/119/119
f 121/121/121 122/122/122 126/126/126
f 119/119/119 126/126/126 124/124/124
f 122/122/122 123/123/123 127/127/127
f 122/122/122 127/127/127 126/126/126
f 123/123/123 128/128/128 127/127/127
f 129/129/129 125/125/125 124/124/124
f 130/130/130 125/125/125 129/129/129
f 126/126/126 131/131/131 124/124/124
f 126/126/126 127/127/127 131/131/131
f 129/129/129 124/124/124 131/131/131
f 127/127/127 128/128/128 132/132/132
f 127/127/127 132/132/132 131/131/131
f 128/128/128 133/133/133 132/132/132
f 134/134/134 130/130/130 129/129/129
f 135/135/135 130/130/130 134/134/134
f 136/136/136 129/129/129 131/131/131
f 136/136/136 131/131/131 132/132/132
f 134/134/134 129/129/129 136/136/136
f 132/132/132 133/133/133 137/137/137
f 137/137/137 136/136/136 132/132/132
f 133/133/133 138/138/138 137/137/137
f 139/139/139 135/135/135 134/134/134
f 140/140/140 135/135/135 139/139/139
f 141/141/141 134/134/134 136/136/136
f 141/141/141 136/136/136 137/137/137
f 139/139/139 134/134/134 141/141/141
f 137/137/137 138/138/138 142/142/142
f 142/142/142 141/141/141 137/137/137
f 138/138/138 143/143/143 142/142/142
f 144/144/144 140/140/140 139/139/139
f 145/145/145 140/140/140 144/144/144
f 146/146/146 139/139/139 141/141/141
f 146/146/146 141/141/141 142/142/142
f 144/144/144 139/139/139 146/146/146
f 147/147/147 142/142/142 143/143/143
f 147/147/147 146/146/146 142/142/142
f 148/148/148 147/147/147 143/143/143
f 149/149/149 145/145/145 144/144/144
f 150/150/150 145/145/145 149/149/149
f 151/151/151 144/144/144 146/146/146
f 151/151/151 146/146/146 147/147/147
f 149/149/149 144/144/144 151/151/151
f 152/152/152 147/147/147 148/148/148
f 152/152/152 151/151/151 147/147/147
f 153/153/153 152/152/152 148/148/148
f 154/154/154 150/150/150 149/149/149
f 155/155/155 150/150/150 154/154/154
f 156/156/156 149/149/149 151/151/151
f 156/156/156 151/151/151 152/152/152
f 154/154/154 149/149/149 156/156/156
f 157/157/157 152/152/152 153/153/153
f 157/157/157 156/156/156 152/152/152
f 158/158/158 157/157/157 153/153/153
f 159/159/159 155/155/155 154/154/154
f 160/160/160 155/155/155 159/159/159
f 161/161/161 154/154/154 156/156/156
f 161/161/161 156/156/156 157/157/157
f 159/159/159 154/154/154 161/161/161
f 162/162/162 157/157/157 158/158/158
f 162/162/162 161/161/161 157/157/157
f 163/163/163 162/162/162 158/158/158
f 164/164/164 160/160/160 159/159/159
f 165/165/165 160/160/160 164/164/164
f 166/166/166 159/159/159 161/161/161
f 166/166/166 161/161/161 162/162/162
f 164/164/164 159/159/159 166/166/166
f 167/167/167 162/162/162 163/163/163
f 167/167/167 166/166/166 162/162/162
f 168/168/168 167/167/167 163/163/163
f 169/169/169 165/165/165 164/164/164
f 170/170/170 165/165/165 169/169/169
f 171/171/171 170/170/170 169/169/169
f 172/172/172 164/164/164 166/166/166
f 172/172/172 166/166/166 167/167/167
f 169/169/169 164/164/164 172/172/172
f 173/173/173 167/167/167 168/168/168
f 173/173/173 172/172/172 167/167/167
f 174/174/174 173/173/173 168/168/168
f 171/171/171 169/169/169 175/175/175
f 175/175/175 169/169/169 172/172/172
f 175/175/175 172/172/172 173/173/173
f 176/176/176 171/171/171 175/175/175
f 177/177/177 173/173/173 174/174/174
f 177/177/177 175/175/175 173/173/173
f 176/176/176 175/175/175 177/177/177
f 178/178/178 177/177/177 174/174/174
f 179/179/179 176/176/176 177/177/177
f 179/179/179 177/177/177 178/178/178
f 180/180/180 179/179/179 178/178/178
