g SeparateMesh_NPC_TinMaster_Model_TinMaster_Eye_LOD1
v 0.026086522 -0.05527032 1.6544094
v 0.022130484 -0.055743158 1.6530577
v 0.01817445 -0.056216 1.6544094
v 0.028838024 -0.054941457 1.6575798
v 0.015422955 -0.05654487 1.6575798
v 0.029390667 -0.0548754 1.6798315
v 0.014870309 -0.05661093 1.6798315
v 0.028051114 -0.055035513 1.6838232
v 0.016209865 -0.056450825 1.6838232
v 0.019352142 -0.05607524 1.6865994
v 0.024908835 -0.0554111 1.6865994
v 0.022130493 -0.05574317 1.6871569
v 0.017675998 -0.052045677 1.6544094
v 0.021632034 -0.05157284 1.6530577
v 0.025588073 -0.051100004 1.6544094
v 0.014924509 -0.05237455 1.6575798
v 0.02833957 -0.05077114 1.6575798
v 0.01437186 -0.052440614 1.6798315
v 0.028892213 -0.050705083 1.6798315
v 0.015711416 -0.0522805 1.6838232
v 0.027552666 -0.050865196 1.6838232
v 0.018853689 -0.051904924 1.6865994
v 0.024410393 -0.051240783 1.6865994
v 0.021632042 -0.05157285 1.6871569
v 0.026086522 -0.05527032 1.6544094
v 0.021632034 -0.05157284 1.6530577
v 0.022130484 -0.055743158 1.6530577
v 0.025588073 -0.051100004 1.6544094
v 0.028838024 -0.054941457 1.6575798
v 0.02833957 -0.05077114 1.6575798
v 0.028892213 -0.050705083 1.6798315
v 0.029390667 -0.0548754 1.6798315
v 0.028051114 -0.055035513 1.6838232
v 0.027552666 -0.050865196 1.6838232
v 0.024908835 -0.0554111 1.6865994
v 0.024410393 -0.051240783 1.6865994
v 0.022130493 -0.05574317 1.6871569
v 0.021632042 -0.05157285 1.6871569
v 0.019352142 -0.05607524 1.6865994
v 0.018853689 -0.051904924 1.6865994
v 0.016209865 -0.056450825 1.6838232
v 0.015711416 -0.0522805 1.6838232
v 0.014870309 -0.05661093 1.6798315
v 0.01437186 -0.052440614 1.6798315
v 0.014924509 -0.05237455 1.6575798
v 0.015422955 -0.05654487 1.6575798
v 0.01817445 -0.056216 1.6544094
v 0.017675998 -0.052045677 1.6544094
v 0.022130484 -0.055743158 1.6530577
v 0.021632034 -0.05157284 1.6530577
v -0.026086522 -0.05527032 1.6544094
v -0.022130484 -0.055743158 1.6530577
v -0.021632034 -0.05157284 1.6530577
v -0.025588073 -0.051100004 1.6544094
v -0.028838024 -0.054941457 1.6575798
v -0.02833957 -0.05077114 1.6575798
v -0.028892213 -0.050705083 1.6798315
v -0.029390667 -0.0548754 1.6798315
v -0.028051114 -0.055035513 1.6838232
v -0.027552666 -0.050865196 1.6838232
v -0.024908835 -0.0554111 1.6865994
v -0.024410393 -0.051240783 1.6865994
v -0.022130493 -0.05574317 1.6871569
v -0.021632042 -0.05157285 1.6871569
v -0.019352142 -0.05607524 1.6865994
v -0.018853689 -0.051904924 1.6865994
v -0.016209865 -0.056450825 1.6838232
v -0.015711416 -0.0522805 1.6838232
v -0.014870309 -0.05661093 1.6798315
v -0.01437186 -0.052440614 1.6798315
v -0.014924509 -0.05237455 1.6575798
v -0.015422955 -0.05654487 1.6575798
v -0.01817445 -0.056216 1.6544094
v -0.017675998 -0.052045677 1.6544094
v -0.022130484 -0.055743158 1.6530577
v -0.021632034 -0.05157284 1.6530577
v -0.019352142 -0.05607524 1.6865994
v -0.024908835 -0.0554111 1.6865994
v -0.022130493 -0.05574317 1.6871569
v -0.028051114 -0.055035513 1.6838232
v -0.016209865 -0.056450825 1.6838232
v -0.029390667 -0.0548754 1.6798315
v -0.014870309 -0.05661093 1.6798315
v -0.028838024 -0.054941457 1.6575798
v -0.015422955 -0.05654487 1.6575798
v -0.026086522 -0.05527032 1.6544094
v -0.01817445 -0.056216 1.6544094
v -0.022130484 -0.055743158 1.6530577
v -0.025588073 -0.051100004 1.6544094
v -0.021632034 -0.05157284 1.6530577
v -0.017675998 -0.052045677 1.6544094
v -0.02833957 -0.05077114 1.6575798
v -0.014924509 -0.05237455 1.6575798
v -0.028892213 -0.050705083 1.6798315
v -0.01437186 -0.052440614 1.6798315
v -0.027552666 -0.050865196 1.6838232
v -0.015711416 -0.0522805 1.6838232
v -0.018853689 -0.051904924 1.6865994
v -0.024410393 -0.051240783 1.6865994
v -0.021632042 -0.05157285 1.6871569
vt 0.94856447 0.20769468
vt 0.93996197 0.20477615
vt 0.93135977 0.20769462
vt 0.9545476 0.21453974
vt 0.9253764 0.2145398
vt 0.955749 0.26258364
vt 0.924175 0.26258358
vt 0.95283616 0.27120203
vt 0.92708737 0.27120206
vt 0.9339204 0.27719614
vt 0.9460035 0.27719614
vt 0.9399621 0.27840006
vt 0.9776855 0.2109386
vt 0.9716516 0.20889153
vt 0.9656179 0.21093853
vt 0.98188215 0.21574007
vt 0.96142143 0.21573985
vt 0.98272437 0.24943887
vt 0.96057826 0.24943872
vt 0.9806813 0.25548393
vt 0.9626214 0.2554837
vt 0.9758888 0.25968823
vt 0.9674136 0.25968823
vt 0.97165126 0.26053268
vt 0.9959907 0.31857425
vt 0.9893182 0.32537454
vt 0.9959907 0.32537454
vt 0.9893182 0.31857425
vt 0.9959907 0.31176868
vt 0.9893182 0.31176868
vt 0.9893182 0.27640674
vt 0.9959907 0.27640674
vt 0.9959907 0.26959702
vt 0.9893182 0.26959702
vt 0.9959907 0.26279286
vt 0.9893182 0.26279286
vt 0.9959907 0.25826
vt 0.9893182 0.25826
vt 0.9959907 0.25372744
vt 0.9893182 0.25372744
vt 0.9959907 0.2469233
vt 0.9893182 0.2469233
vt 0.9959907 0.24011362
vt 0.9893182 0.24011362
vt 0.9893182 0.2047517
vt 0.9959907 0.2047517
vt 0.9959907 0.19794609
vt 0.9893182 0.19794609
vt 0.9959907 0.19114578
vt 0.9893182 0.19114578
vt 0.9959907 0.31857425
vt 0.9959907 0.32537454
vt 0.9893182 0.32537454
vt 0.9893182 0.31857425
vt 0.9959907 0.31176868
vt 0.9893182 0.31176868
vt 0.9893182 0.27640674
vt 0.9959907 0.27640674
vt 0.9959889 0.26959702
vt 0.98932 0.26959702
vt 0.9959888 0.26279286
vt 0.9893201 0.26279286
vt 0.9959888 0.25826
vt 0.9893201 0.25826
vt 0.9959888 0.25372744
vt 0.9893201 0.25372744
vt 0.9959889 0.2469233
vt 0.98932 0.2469233
vt 0.9959907 0.24011362
vt 0.9893182 0.24011362
vt 0.9893182 0.2047517
vt 0.9959907 0.2047517
vt 0.9959907 0.19794609
vt 0.9893182 0.19794609
vt 0.9959907 0.19114578
vt 0.9893182 0.19114578
vt 0.93392086 0.27719566
vt 0.946003 0.2771956
vt 0.93996197 0.2783994
vt 0.95283496 0.2712018
vt 0.92708874 0.2712018
vt 0.955749 0.26258364
vt 0.924175 0.26258358
vt 0.9545476 0.21453974
vt 0.9253764 0.2145398
vt 0.94856447 0.20769468
vt 0.93135977 0.20769462
vt 0.93996197 0.20477615
vt 0.9656179 0.21093853
vt 0.9716516 0.20889153
vt 0.9776855 0.2109386
vt 0.96142143 0.21573985
vt 0.98188215 0.21574007
vt 0.96057826 0.24943872
vt 0.98272437 0.24943887
vt 0.96262217 0.25548357
vt 0.9806804 0.25548378
vt 0.97588843 0.2596879
vt 0.9674141 0.2596878
vt 0.9716512 0.2605322
vn 0.11867861 -0.9929327 -1.002774E-06
vn 0.11867867 -0.9929327 -1.9713316E-06
vn 0.11867861 -0.9929327 -1.0027741E-06
vn 0.11867879 -0.9929327 -3.6380686E-07
vn 0.118678816 -0.9929327 -3.638071E-07
vn 0.11867899 -0.9929327 -3.450603E-07
vn 0.11867899 -0.9929327 -3.450603E-07
vn 0.11867889 -0.9929327 -7.0150895E-07
vn 0.11867888 -0.9929327 -7.015088E-07
vn 0.11867815 -0.9929328 -5.228015E-07
vn 0.118678145 -0.9929328 -5.2279984E-07
vn 0.1186767 -0.9929329 3.2235823E-06
vn -0.1186782 0.9929328 8.243226E-07
vn -0.118678056 0.9929328 1.03754275E-07
vn -0.11867818 0.9929328 8.2432274E-07
vn -0.118678555 0.9929327 4.4932276E-07
vn -0.118678555 0.9929327 4.4932256E-07
vn -0.11867882 0.9929327 1.6233643E-07
vn -0.11867883 0.9929327 1.6233643E-07
vn -0.11867864 0.9929327 5.591342E-07
vn -0.11867864 0.9929327 5.591343E-07
vn -0.118677795 0.9929328 1.2700797E-06
vn -0.11867781 0.9929328 1.2700783E-06
vn -0.118676476 0.9929329 -4.1190137E-06
vn 0.55226 0.066008 -0.8310547
vn -2.0035026E-07 0 -1
vn -1.4024513E-07 0 -1
vn 0.55225986 0.06600798 -0.8310548
vn 0.92514265 0.11057645 -0.3631583
vn 0.9251425 0.110576436 -0.36315852
vn 0.9817153 0.11733807 0.14988925
vn 0.9817153 0.117338054 0.14988935
vn 0.82600236 0.09872607 0.5549535
vn 0.8260027 0.09872611 0.5549528
vn 0.43938094 0.05251579 0.89676446
vn 0.43938136 0.052515842 0.8967642
vn 5.126618E-07 0 1
vn -1.1607447E-07 -1.3904756E-07 1
vn -0.439381 -0.052516423 0.89676446
vn -0.4393812 -0.05251645 0.89676434
vn -0.82600224 -0.09872653 0.5549534
vn -0.8260022 -0.09872654 0.5549537
vn -0.9817153 -0.1173375 0.14988978
vn -0.9817153 -0.1173375 0.14988978
vn -0.9251429 -0.11057569 -0.3631582
vn -0.9251429 -0.11057568 -0.36315778
vn -0.5522606 -0.0660079 -0.8310544
vn -0.55226046 -0.06600789 -0.8310544
vn -1.4024513E-07 0 -1
vn -2.0035026E-07 0 -1
vn -0.55226 0.06600801 -0.8310547
vn 1.4024513E-07 0 -1
vn 2.0035026E-07 0 -1
vn -0.55225986 0.06600798 -0.8310548
vn -0.92514265 0.11057645 -0.3631583
vn -0.9251425 0.11057644 -0.36315852
vn -0.9817153 0.11733807 0.14988925
vn -0.9817153 0.11733807 0.14988935
vn -0.82600236 0.09872607 0.5549535
vn -0.8260027 0.09872611 0.5549528
vn -0.43938094 0.05251579 0.89676446
vn -0.43938136 0.052515835 0.8967642
vn -5.126618E-07 0 1
vn 1.1607447E-07 -1.3904756E-07 1
vn 0.439381 -0.052516416 0.89676446
vn 0.43938115 -0.05251644 0.89676434
vn 0.82600224 -0.09872653 0.5549534
vn 0.8260022 -0.09872654 0.5549537
vn 0.9817153 -0.1173375 0.14988981
vn 0.9817153 -0.1173375 0.1498898
vn 0.9251429 -0.110575676 -0.3631582
vn 0.9251429 -0.11057568 -0.3631578
vn 0.5522606 -0.0660079 -0.8310544
vn 0.5522606 -0.0660079 -0.8310544
vn 1.4024513E-07 0 -1
vn 2.0035026E-07 0 -1
vn -0.11867815 -0.9929328 -5.228015E-07
vn -0.118678145 -0.9929328 -5.2279984E-07
vn -0.1186767 -0.9929329 3.2235823E-06
vn -0.11867889 -0.9929327 -6.964131E-07
vn -0.11867888 -0.9929327 -6.96413E-07
vn -0.11867899 -0.9929327 -3.419241E-07
vn -0.11867899 -0.9929327 -3.419241E-07
vn -0.11867879 -0.9929327 -3.6190198E-07
vn -0.11867879 -0.9929327 -3.6190218E-07
vn -0.11867861 -0.9929327 -9.979873E-07
vn -0.11867861 -0.9929327 -9.979875E-07
vn -0.11867867 -0.9929327 -1.9713316E-06
vn 0.118678145 0.9929328 8.243225E-07
vn 0.118678056 0.9929328 1.03754275E-07
vn 0.11867817 0.9929328 8.2432246E-07
vn 0.118678555 0.9929327 4.5009824E-07
vn 0.11867854 0.9929327 4.500985E-07
vn 0.11867885 0.9929327 1.6299565E-07
vn 0.11867885 0.9929327 1.6299566E-07
vn 0.11867867 0.9929327 5.591343E-07
vn 0.11867867 0.9929327 5.591342E-07
vn 0.11867782 0.9929328 1.2700798E-06
vn 0.11867781 0.9929328 1.2700785E-06
vn 0.118676476 0.9929329 -4.1190137E-06
g SeparateMesh_NPC_TinMaster_Model_TinMaster_Eye_LOD1_0
f 3/3/3 2/2/2 1/1/1
f 3/3/3 1/1/1 4/4/4
f 5/5/5 3/3/3 4/4/4
f 5/5/5 4/4/4 6/6/6
f 7/7/7 5/5/5 6/6/6
f 7/7/7 6/6/6 8/8/8
f 9/9/9 7/7/7 8/8/8
f 9/9/9 8/8/8 10/10/10
f 8/8/8 11/11/11 10/10/10
f 11/11/11 12/12/12 10/10/10
f 15/15/15 14/14/14 13/13/13
f 15/15/15 13/13/13 16/16/16
f 17/17/17 15/15/15 16/16/16
f 17/17/17 16/16/16 18/18/18
f 19/19/19 17/17/17 18/18/18
f 19/19/19 18/18/18 20/20/20
f 21/21/21 19/19/19 20/20/20
f 21/21/21 20/20/20 22/22/22
f 23/23/23 21/21/21 22/22/22
f 24/24/24 23/23/23 22/22/22
f 27/27/27 26/26/26 25/25/25
f 26/26/26 28/28/28 25/25/25
f 25/25/25 28/28/28 29/29/29
f 28/28/28 30/30/30 29/29/29
f 29/29/29 30/30/30 31/31/31
f 32/32/32 29/29/29 31/31/31
f 32/32/32 31/31/31 33/33/33
f 31/31/31 34/34/34 33/33/33
f 33/33/33 34/34/34 35/35/35
f 34/34/34 36/36/36 35/35/35
f 35/35/35 36/36/36 37/37/37
f 36/36/36 38/38/38 37/37/37
f 37/37/37 38/38/38 39/39/39
f 38/38/38 40/40/40 39/39/39
f 39/39/39 40/40/40 41/41/41
f 40/40/40 42/42/42 41/41/41
f 41/41/41 42/42/42 43/43/43
f 42/42/42 44/44/44 43/43/43
f 44/44/44 45/45/45 43/43/43
f 45/45/45 46/46/46 43/43/43
f 46/46/46 45/45/45 47/47/47
f 45/45/45 48/48/48 47/47/47
f 47/47/47 48/48/48 49/49/49
f 48/48/48 50/50/50 49/49/49
f 53/53/53 52/52/52 51/51/51
f 54/54/54 53/53/53 51/51/51
f 54/54/54 51/51/51 55/55/55
f 56/56/56 54/54/54 55/55/55
f 56/56/56 55/55/55 57/57/57
f 55/55/55 58/58/58 57/57/57
f 57/57/57 58/58/58 59/59/59
f 60/60/60 57/57/57 59/59/59
f 60/60/60 59/59/59 61/61/61
f 62/62/62 60/60/60 61/61/61
f 62/62/62 61/61/61 63/63/63
f 64/64/64 62/62/62 63/63/63
f 64/64/64 63/63/63 65/65/65
f 66/66/66 64/64/64 65/65/65
f 66/66/66 65/65/65 67/67/67
f 68/68/68 66/66/66 67/67/67
f 68/68/68 67/67/67 69/69/69
f 70/70/70 68/68/68 69/69/69
f 71/71/71 70/70/70 69/69/69
f 72/72/72 71/71/71 69/69/69
f 71/71/71 72/72/72 73/73/73
f 74/74/74 71/71/71 73/73/73
f 74/74/74 73/73/73 75/75/75
f 76/76/76 74/74/74 75/75/75
f 79/79/79 78/78/78 77/77/77
f 78/78/78 80/80/80 77/77/77
f 80/80/80 81/81/81 77/77/77
f 80/80/80 82/82/82 81/81/81
f 82/82/82 83/83/83 81/81/81
f 82/82/82 84/84/84 83/83/83
f 84/84/84 85/85/85 83/83/83
f 84/84/84 86/86/86 85/85/85
f 86/86/86 87/87/87 85/85/85
f 86/86/86 88/88/88 87/87/87
f 91/91/91 90/90/90 89/89/89
f 91/91/91 89/89/89 92/92/92
f 93/93/93 91/91/91 92/92/92
f 93/93/93 92/92/92 94/94/94
f 95/95/95 93/93/93 94/94/94
f 95/95/95 94/94/94 96/96/96
f 97/97/97 95/95/95 96/96/96
f 97/97/97 96/96/96 98/98/98
f 96/96/96 99/99/99 98/98/98
f 99/99/99 100/100/100 98/98/98
