g NPC_Male_Size02_Body_006_LOD2
v 0.06489182 0.0038477215 1.6215954
v 0.05430213 0.0041954005 1.5922781
v 0.05563628 0.002005837 1.5922807
v -0.05430213 0.0041954005 1.5922781
v -0.06472723 0.016441815 1.6220648
v -0.06489184 0.0038477217 1.6215956
v -0.07108025 0.004870917 1.6452469
v -0.06489184 0.0038477217 1.6215956
v -0.07261085 0.022013748 1.6491113
v -0.07262851 0.042490326 1.6465052
v -0.06507267 0.03682231 1.6240777
v -0.057863552 0.0721489 1.6426715
v -0.057015378 0.025912318 1.6027573
v -0.05430213 0.0041954005 1.5922781
v -0.050400324 0.05674489 1.6154433
v -0.026770588 0.06795374 1.6114465
v -0.03006838 0.086480714 1.6412077
v -0 0.07311027 1.6099381
v -0 0.09187157 1.6403081
v -0 0.056962296 1.5876793
v -0.024197493 0.049874824 1.5883168
v -0 0.057105396 1.5753236
v -0.034671158 0.042286005 1.5716211
v -0.04406343 0.035078604 1.587837
v -0.049037352 0.013827422 1.5804454
v -0.05430213 0.0041954005 1.5922781
v -0.047427643 0.016830644 1.5644659
v -0.04692431 0.0016749359 1.5768234
v -0.03169453 -0.008245399 1.5510374
v -0.034310073 -0.012820756 1.564693
v -0.018161679 -0.026787376 1.5528399
v 5.6743343E-12 -0.022869434 1.5397339
v 4.819594E-10 -0.033549313 1.5447935
v -0.05430213 0.0041954005 1.5922781
v -0.06489184 0.0038477217 1.6215956
v -0.05563628 0.002005837 1.5922807
v 0.06472723 0.016441815 1.6220648
v 0.05430213 0.0041954005 1.5922781
v 0.06489182 0.0038477215 1.6215954
v 0.07108025 0.004870917 1.6452469
v 0.06489182 0.0038477215 1.6215954
v 0.07261085 0.022013748 1.6491113
v 0.07262851 0.042490326 1.6465052
v 0.06507267 0.03682231 1.6240777
v 0.050400324 0.05674489 1.6154433
v 0.057863552 0.0721489 1.6426715
v 0.057015378 0.025912318 1.6027573
v 0.05430213 0.0041954005 1.5922781
v 0.026770588 0.06795374 1.6114465
v 0.03006838 0.086480714 1.6412077
v -0 0.07311027 1.6099381
v -0 0.09187157 1.6403081
v -0 0.056962296 1.5876793
v 0.024197493 0.049874824 1.5883168
v -0 0.057105396 1.5753236
v 0.034671158 0.042286005 1.5716211
v 0.04406343 0.035078604 1.587837
v 0.049037352 0.013827422 1.5804454
v 0.047427643 0.016830644 1.5644659
v 0.04692431 0.0016749359 1.5768234
v 0.05430213 0.0041954005 1.5922781
v 0.03169453 -0.008245399 1.5510374
v 0.03431007 -0.012820756 1.564693
v 0.018161679 -0.026787376 1.5528399
v 5.6743343E-12 -0.022869434 1.5397339
v 4.819594E-10 -0.033549313 1.5447935
v 0.047427643 0.016830644 1.5644659
v 0.034671158 0.042286005 1.5716211
v 0.03565085 0.043068927 1.5654409
v 0.047584098 0.017549155 1.5580885
v 0.03169453 -0.008245399 1.5510374
v 0.031624265 -0.0076446407 1.5448239
v 5.6743343E-12 -0.022869434 1.5397339
v 4.3632845E-12 -0.02158408 1.5333215
v -0.031624265 -0.0076446407 1.5448239
v -0.03169453 -0.008245399 1.5510374
v -0.047584098 0.017549155 1.5580885
v -0.047427643 0.016830644 1.5644659
v -0.03565085 0.043068927 1.5654409
v -0.034671158 0.042286005 1.5716211
v 0.034671158 0.042286005 1.5716211
v -0 0.057959504 1.5695643
v 0.03565085 0.043068927 1.5654409
v -0 0.057105396 1.5753236
v -0.034671158 0.042286005 1.5716211
v -0.03565085 0.043068927 1.5654409
vt 0.44118774 0.64735794
vt 0.45024943 0.6283655
vt 0.44855067 0.6277498
vt 0.45024943 0.6283655
vt 0.449094 0.65224206
vt 0.44118774 0.64735794
vt 0.43347502 0.6643312
vt 0.44118774 0.64735794
vt 0.4429726 0.67250717
vt 0.45720747 0.6763735
vt 0.46179023 0.65980685
vt 0.48091653 0.67881846
vt 0.4624519 0.64158785
vt 0.45024943 0.6283655
vt 0.48164874 0.6574441
vt 0.5019821 0.656226
vt 0.5016585 0.68242186
vt 0.52391124 0.6555629
vt 0.52443975 0.684992
vt 0.5217052 0.63367885
vt 0.49847543 0.6334873
vt 0.5217291 0.62818056
vt 0.48763114 0.6236301
vt 0.4760737 0.6318933
vt 0.45837396 0.62142223
vt 0.45024943 0.6283655
vt 0.46006075 0.61430776
vt 0.44825092 0.61675507
vt 0.43738878 0.5957812
vt 0.433014 0.60360086
vt 0.41916755 0.58709
vt 0.419931 0.5759077
vt 0.41091138 0.5746494
vt 0.45024943 0.6283655
vt 0.44118774 0.64735794
vt 0.44855067 0.6277498
vt 0.449094 0.65224206
vt 0.45024943 0.6283655
vt 0.44118774 0.64735794
vt 0.43347502 0.6643312
vt 0.44118774 0.64735794
vt 0.4429726 0.67250717
vt 0.45720747 0.6763735
vt 0.46179023 0.65980685
vt 0.48164874 0.6574441
vt 0.48091653 0.67881846
vt 0.4624519 0.64158785
vt 0.45024943 0.6283655
vt 0.5019821 0.656226
vt 0.5016585 0.68242186
vt 0.52391124 0.6555629
vt 0.52443975 0.684992
vt 0.5217052 0.63367885
vt 0.49847543 0.6334873
vt 0.5217291 0.62818056
vt 0.48763114 0.6236301
vt 0.4760737 0.6318933
vt 0.45837396 0.62142223
vt 0.46006075 0.61430776
vt 0.44825092 0.61675507
vt 0.45024943 0.6283655
vt 0.43738878 0.5957812
vt 0.433014 0.60360086
vt 0.41916755 0.58709
vt 0.419931 0.5759077
vt 0.41135845 0.5747894
vt 0.2554316 0.9817815
vt 0.26653245 0.9898544
vt 0.26795176 0.98582435
vt 0.25730777 0.97758913
vt 0.24038343 0.9661994
vt 0.2415221 0.96196604
vt 0.22236818 0.95521164
vt 0.22236818 0.95083225
vt 0.20321427 0.96196604
vt 0.20435295 0.9661994
vt 0.18742862 0.97758913
vt 0.18930477 0.9817815
vt 0.1767846 0.98582435
vt 0.17820391 0.9898544
vt 0.6152594 0.9860014
vt 0.641853 0.9801368
vt 0.6139934 0.9819046
vt 0.641853 0.9840878
vt 0.66844654 0.9860014
vt 0.66971254 0.9819046
vn 0.81756765 0.49782047 -0.2894095
vn 0.8359215 0.38101104 -0.39505163
vn 0.92004585 0.15117991 -0.36146948
vn -0.83592236 0.381009 -0.39505184
vn -0.9273126 0.1439267 -0.34550896
vn -0.95802164 -0.018233424 -0.28611544
vn -0.9730988 -0.047726948 -0.22539021
vn -0.95802164 -0.018233424 -0.28611544
vn -0.9339294 0.12536679 -0.33475214
vn -0.91022193 0.19650058 -0.36453196
vn -0.89630353 0.20490347 -0.39326143
vn -0.6341565 0.5985173 -0.48951253
vn -0.8552139 0.29206327 -0.42814517
vn -0.83592236 0.381009 -0.39505184
vn -0.6364429 0.56748694 -0.5223972
vn -0.31565705 0.762041 -0.5653797
vn -0.2987488 0.79490864 -0.5280809
vn -0 0.8209324 -0.5710255
vn -0 0.8454199 -0.5341022
vn -0 0.9192029 -0.39378414
vn -0.39634413 0.8402324 -0.3700281
vn -0 0.9998739 0.015884649
vn -0.67932284 0.73345256 0.023826212
vn -0.76474607 0.5267056 -0.3711396
vn -0.89616966 0.24399236 -0.3706045
vn -0.83592236 0.381009 -0.39505184
vn -0.96449596 0.11099375 -0.23964135
vn -0.8371006 0.047936823 -0.5449446
vn -0.79149556 -0.439807 -0.4243873
vn -0.61753136 -0.3517213 -0.7035247
vn -0.54686254 -0.1267378 -0.827574
vn -0.0069091157 -0.724382 -0.68936414
vn -0 -0.0791313 -0.99686426
vn -0.81756806 0.49782047 -0.2894085
vn -0.81756806 0.49782047 -0.2894085
vn -0.8839466 0.33015722 -0.33111128
vn 0.92656857 0.15346822 -0.3433921
vn 0.9274375 0.03384245 -0.37244374
vn 0.95802164 -0.018231474 -0.28611583
vn 0.9800345 -0.083694115 -0.18035439
vn 0.95802164 -0.018231474 -0.28611583
vn 0.94479555 0.08393057 -0.31672883
vn 0.91022193 0.1965006 -0.36453196
vn 0.89630353 0.20490348 -0.39326143
vn 0.6364429 0.56748694 -0.5223973
vn 0.6341565 0.5985173 -0.48951253
vn 0.8549353 0.29234287 -0.42851055
vn 0.9274375 0.03384245 -0.37244374
vn 0.315657 0.76204103 -0.5653797
vn 0.2987488 0.79490864 -0.5280809
vn -0 0.8209324 -0.5710255
vn -0 0.8454199 -0.5341022
vn -0 0.9192029 -0.39378414
vn 0.39634413 0.8402324 -0.3700281
vn -0 0.9998739 0.015884649
vn 0.67932284 0.73345256 0.023826193
vn 0.7647462 0.52670556 -0.37113962
vn 0.8944138 0.24631126 -0.37330234
vn 0.9635855 0.11320239 -0.24225658
vn 0.83718604 0.047592685 -0.5448437
vn 0.9274375 0.03384245 -0.37244374
vn 0.78980494 -0.4243755 -0.4428472
vn 0.61347955 -0.34762955 -0.70908153
vn 0.5468613 -0.12673828 -0.82757485
vn -0.0069091157 -0.724382 -0.68936414
vn -0 -0.0791313 -0.99686426
vn 0.9635855 0.11320239 -0.24225658
vn 0.67932284 0.73345256 0.023826193
vn 0.73275006 0.66343313 0.15143913
vn 0.9899475 -0.13781595 0.031792216
vn 0.78980494 -0.4243755 -0.4428472
vn 0.6339734 -0.7663119 -0.10413335
vn -0.0069091157 -0.724382 -0.68936414
vn -0 -0.98861504 -0.15046728
vn -0.6339735 -0.7663118 -0.10413332
vn -0.79149556 -0.439807 -0.4243873
vn -0.9899475 -0.13781601 0.031792242
vn -0.96449596 0.11099375 -0.23964135
vn -0.73275006 0.66343313 0.15143913
vn -0.67932284 0.73345256 0.023826212
vn 0.67932284 0.73345256 0.023826193
vn -0 0.9853033 0.170814
vn 0.73275006 0.66343313 0.15143913
vn -0 0.9998739 0.015884649
vn -0.67932284 0.73345256 0.023826212
vn -0.73275006 0.66343313 0.15143913
g NPC_Male_Size02_Body_006_LOD2_0
f 3/3/3 2/2/2 1/1/1
f 6/6/6 5/5/5 4/4/4
f 5/5/5 8/8/8 7/7/7
f 7/7/7 9/9/9 5/5/5
f 5/5/5 9/9/9 10/10/10
f 11/11/11 5/5/5 10/10/10
f 10/10/10 12/12/12 11/11/11
f 13/13/13 5/5/5 11/11/11
f 13/13/13 14/14/14 5/5/5
f 12/12/12 15/15/15 11/11/11
f 13/13/13 11/11/11 15/15/15
f 15/15/15 12/12/12 16/16/16
f 12/12/12 17/17/17 16/16/16
f 18/18/18 16/16/16 17/17/17
f 19/19/19 18/18/18 17/17/17
f 18/18/18 20/20/20 16/16/16
f 20/20/20 21/21/21 16/16/16
f 15/15/15 16/16/16 21/21/21
f 20/20/20 22/22/22 21/21/21
f 22/22/22 23/23/23 21/21/21
f 24/24/24 15/15/15 21/21/21
f 24/24/24 13/13/13 15/15/15
f 21/21/21 23/23/23 24/24/24
f 24/24/24 25/25/25 13/13/13
f 25/25/25 24/24/24 23/23/23
f 26/26/26 13/13/13 25/25/25
f 27/27/27 25/25/25 23/23/23
f 28/28/28 26/26/26 25/25/25
f 25/25/25 27/27/27 28/28/28
f 27/27/27 29/29/29 28/28/28
f 29/29/29 30/30/30 28/28/28
f 30/30/30 29/29/29 31/31/31
f 29/29/29 32/32/32 31/31/31
f 31/31/31 32/32/32 33/33/33
f 36/36/36 35/35/35 34/34/34
f 39/39/39 38/38/38 37/37/37
f 41/41/41 37/37/37 40/40/40
f 42/42/42 40/40/40 37/37/37
f 42/42/42 37/37/37 43/43/43
f 37/37/37 44/44/44 43/43/43
f 43/43/43 44/44/44 45/45/45
f 46/46/46 43/43/43 45/45/45
f 37/37/37 47/47/47 44/44/44
f 45/45/45 44/44/44 47/47/47
f 48/48/48 47/47/47 37/37/37
f 46/46/46 45/45/45 49/49/49
f 50/50/50 46/46/46 49/49/49
f 49/49/49 51/51/51 50/50/50
f 51/51/51 52/52/52 50/50/50
f 53/53/53 51/51/51 49/49/49
f 54/54/54 53/53/53 49/49/49
f 49/49/49 45/45/45 54/54/54
f 55/55/55 53/53/53 54/54/54
f 56/56/56 55/55/55 54/54/54
f 45/45/45 57/57/57 54/54/54
f 56/56/56 54/54/54 57/57/57
f 57/57/57 45/45/45 47/47/47
f 57/57/57 58/58/58 56/56/56
f 58/58/58 57/57/57 47/47/47
f 58/58/58 59/59/59 56/56/56
f 60/60/60 58/58/58 47/47/47
f 58/58/58 60/60/60 59/59/59
f 61/61/61 60/60/60 47/47/47
f 60/60/60 62/62/62 59/59/59
f 63/63/63 62/62/62 60/60/60
f 63/63/63 64/64/64 62/62/62
f 64/64/64 65/65/65 62/62/62
f 64/64/64 66/66/66 65/65/65
f 69/69/69 68/68/68 67/67/67
f 70/70/70 69/69/69 67/67/67
f 67/67/67 71/71/71 70/70/70
f 71/71/71 72/72/72 70/70/70
f 72/72/72 71/71/71 73/73/73
f 74/74/74 72/72/72 73/73/73
f 75/75/75 74/74/74 73/73/73
f 76/76/76 75/75/75 73/73/73
f 77/77/77 75/75/75 76/76/76
f 78/78/78 77/77/77 76/76/76
f 79/79/79 77/77/77 78/78/78
f 80/80/80 79/79/79 78/78/78
f 83/83/83 82/82/82 81/81/81
f 82/82/82 84/84/84 81/81/81
f 84/84/84 82/82/82 85/85/85
f 82/82/82 86/86/86 85/85/85
