g NPC_Male_Size02_Body_017_LOD1
v 0.044320602 0.035757598 1.558355
v 0.043752935 0.034959562 1.5696541
v 0.025575828 0.050155334 1.5606809
v 0.02558938 0.049612425 1.573588
v 3.3527613E-08 0.058511656 1.5617414
v -0 0.057105407 1.5753236
v -0.02558938 0.049612425 1.573588
v -0.025575727 0.050155334 1.5606811
v -0.043752935 0.034959562 1.5696541
v -0.044320565 0.035757598 1.5583546
v 0.047427643 0.016830597 1.5644659
v 0.043752935 0.034959562 1.5696541
v 0.044320602 0.035757598 1.558355
v 0.04674981 0.01773819 1.5545204
v 0.03673582 -0.002202301 1.5491441
v -0.04674988 0.01773819 1.5545204
v -0.047427643 0.016830597 1.5644659
v -0.03673586 -0.002202301 1.5491443
v -0.044320565 0.035757598 1.5583546
v -0.043752935 0.034959562 1.5696541
v 0.009736606 -0.03194992 1.5477005
v -2.0804882E-09 -0.027779082 1.5415298
v -0 -0.033549346 1.5447935
v 0.018161679 -0.026787413 1.5528399
v 0.026664812 -0.012840271 1.5461316
v 0.027998801 -0.02034317 1.5587068
v 0.034028087 -0.0130409235 1.5644836
v 0.03673582 -0.002202301 1.5491441
v 0.040903322 -0.0050782776 1.5708883
v 0.047427643 0.016830597 1.5644659
v 0.04692431 0.0016749572 1.5768234
v 0.049037352 0.013827362 1.5804454
v 0.043752935 0.034959562 1.5696541
v 0.0493044 0.0026474 1.5809697
v 0.04406343 0.03507858 1.587837
v 0.02558938 0.049612425 1.573588
v 0.052397404 0.01665741 1.5906531
v 0.024197493 0.049874876 1.5883168
v -0 0.057105407 1.5753236
v -0 0.056962278 1.5876793
v 0.026770588 0.067953795 1.6114465
v -0 0.0731102 1.6099381
v 0.050400324 0.05674484 1.6154433
v 0.03006838 0.086480714 1.6412077
v -0 0.09187164 1.6403081
v 0.057863552 0.0721489 1.6426715
v 0.06775244 0.058952637 1.6441134
v 0.052363496 0.029177856 1.5967494
v 0.054507617 0.012501983 1.596051
v 0.05430213 0.004195404 1.5922781
v 0.059557293 0.047654416 1.6192236
v 0.057015378 0.025912322 1.6027573
v 0.06507267 0.036822356 1.6240777
v 0.07262851 0.042490385 1.6465052
v 0.06059141 0.0031109618 1.6074462
v 0.05563628 0.0020057678 1.5922807
v 0.060361512 0.011484374 1.6086895
v 0.065496825 0.003850708 1.6234384
v 0.06112186 0.022593688 1.613084
v 0.06802087 0.022117157 1.630696
v 0.07261085 0.022013701 1.6491113
v 0.06527937 0.0104982 1.6233997
v 0.06828985 0.0040882872 1.6329457
v 0.06992759 0.009438018 1.6384928
v 0.070275635 0.0049592587 1.6407733
v 0.07188488 0.004782562 1.6497204
v -2.0804882E-09 -0.027779082 1.5415298
v -0.009736606 -0.03194992 1.5477005
v -0 -0.033549346 1.5447935
v -0.018161679 -0.026787413 1.5528399
v -0.026664829 -0.012840271 1.5461314
v -0.027998801 -0.02034317 1.5587068
v -0.034028087 -0.0130409235 1.5644836
v -0.03673586 -0.002202301 1.5491443
v -0.040903322 -0.0050782776 1.5708883
v -0.047427643 0.016830597 1.5644659
v -0.04692431 0.0016749572 1.5768234
v -0.049037352 0.013827362 1.5804454
v -0.043752935 0.034959562 1.5696541
v -0.0493044 0.0026474 1.5809697
v -0.04406343 0.03507858 1.587837
v -0.02558938 0.049612425 1.573588
v -0.052397404 0.01665741 1.5906531
v -0.024197493 0.049874876 1.5883168
v -0 0.057105407 1.5753236
v -0 0.056962278 1.5876793
v -0.026770588 0.067953795 1.6114465
v -0 0.0731102 1.6099381
v -0.050400324 0.05674484 1.6154433
v -0.03006838 0.086480714 1.6412077
v -0 0.09187164 1.6403081
v -0.057863552 0.0721489 1.6426715
v -0.06775244 0.058952637 1.6441134
v -0.052363496 0.029177856 1.5967494
v -0.054507617 0.012501983 1.596051
v -0.05430213 0.004195404 1.5922781
v -0.059557293 0.047654416 1.6192236
v -0.057015378 0.025912322 1.6027573
v -0.06507267 0.036822356 1.6240777
v -0.07262851 0.042490385 1.6465052
v -0.06059141 0.0031109618 1.6074462
v -0.05563628 0.0020057678 1.5922807
v -0.060361512 0.011484374 1.6086895
v -0.065496825 0.003850708 1.6234384
v -0.06802087 0.022117157 1.630696
v -0.07261085 0.022013701 1.6491113
v -0.06112186 0.022593688 1.613084
v -0.06527937 0.0104982 1.6233997
v -0.06828985 0.0040882872 1.6329457
v -0.06992759 0.009438018 1.6384928
v -0.070275635 0.0049592587 1.6407733
v -0.07188488 0.004782562 1.6497204
vt 0.6005201 0.96967185
vt 0.6070209 0.9864436
vt 0.6283967 0.96895164
vt 0.62349796 0.9855591
vt 0.641853 0.96698755
vt 0.641853 0.9840878
vt 0.660208 0.9855591
vt 0.65499747 0.9692636
vt 0.67668504 0.9864436
vt 0.6831859 0.96967185
vt 0.2554316 0.9817815
vt 0.26653245 0.9898544
vt 0.27267534 0.97241205
vt 0.2588781 0.9636182
vt 0.2436153 0.9702169
vt 0.18669578 0.9655276
vt 0.18930477 0.9817815
vt 0.20112108 0.9702169
vt 0.17206104 0.97241205
vt 0.17820391 0.9898544
vt 0.4131559 0.57936597
vt 0.419931 0.5759077
vt 0.40907604 0.5712043
vt 0.41916755 0.58709
vt 0.43256477 0.5904117
vt 0.42585278 0.59649587
vt 0.43296686 0.6031627
vt 0.44221276 0.60115063
vt 0.44022238 0.6111438
vt 0.46006075 0.61430776
vt 0.44825092 0.61675507
vt 0.45837396 0.62142223
vt 0.47703776 0.6210027
vt 0.4506179 0.62034494
vt 0.4760737 0.6318933
vt 0.49822456 0.62625754
vt 0.45975557 0.6299161
vt 0.49847543 0.6334873
vt 0.5217291 0.62818056
vt 0.5217052 0.63367885
vt 0.5019821 0.656226
vt 0.52391124 0.6555629
vt 0.48164874 0.6574441
vt 0.5016585 0.68242186
vt 0.52443975 0.684992
vt 0.48091653 0.67881846
vt 0.4698081 0.6785872
vt 0.46744174 0.63772005
vt 0.45530966 0.6329608
vt 0.45024943 0.6283655
vt 0.4719522 0.6593821
vt 0.4624519 0.64158785
vt 0.46179023 0.65980685
vt 0.45720747 0.6763735
vt 0.44506836 0.63853705
vt 0.44855067 0.6277498
vt 0.45042753 0.6416689
vt 0.44040626 0.64916486
vt 0.45651674 0.64788437
vt 0.44957772 0.65997756
vt 0.4429726 0.67250717
vt 0.4447461 0.6512893
vt 0.43716177 0.6555152
vt 0.43875542 0.6611558
vt 0.43506244 0.6612072
vt 0.43188757 0.66745526
vt 0.419931 0.5759077
vt 0.4131559 0.57936597
vt 0.40907604 0.5712043
vt 0.41916755 0.58709
vt 0.43256477 0.5904117
vt 0.42585278 0.59649587
vt 0.43296686 0.6031627
vt 0.44221276 0.60115063
vt 0.44022238 0.6111438
vt 0.46006075 0.61430776
vt 0.44825092 0.61675507
vt 0.45837396 0.62142223
vt 0.47703776 0.6210027
vt 0.4506179 0.62034494
vt 0.4760737 0.6318933
vt 0.49822456 0.62625754
vt 0.45975557 0.6299161
vt 0.49847543 0.6334873
vt 0.5217291 0.62818056
vt 0.5217052 0.63367885
vt 0.5019821 0.656226
vt 0.52391124 0.6555629
vt 0.48164874 0.6574441
vt 0.5016585 0.68242186
vt 0.52443975 0.684992
vt 0.48091653 0.67881846
vt 0.4698081 0.6785872
vt 0.46744174 0.63772005
vt 0.45530966 0.6329608
vt 0.45024943 0.6283655
vt 0.4719522 0.6593821
vt 0.4624519 0.64158785
vt 0.46179023 0.65980685
vt 0.45720747 0.6763735
vt 0.44506836 0.63853705
vt 0.44855067 0.6277498
vt 0.45042753 0.6416689
vt 0.44040626 0.64916486
vt 0.44957772 0.65997756
vt 0.4429726 0.67250717
vt 0.45651674 0.64788437
vt 0.4447461 0.6512893
vt 0.43716177 0.6555152
vt 0.43875542 0.6611558
vt 0.43506244 0.6612072
vt 0.43188757 0.66745526
vn 0.84423035 0.5321023 0.0643597
vn 0.83772784 0.5459883 0.010433296
vn 0.46845207 0.88242793 0.043285728
vn 0.46487597 0.8849025 0.028947046
vn 3.1565655E-06 0.9962813 0.08615996
vn -1.708338E-07 0.9983542 0.0573491
vn -0.46487868 0.88490105 0.028945707
vn -0.46845618 0.8824258 0.043283153
vn -0.8377291 0.5459863 0.010431992
vn -0.8442294 0.53210425 0.06435664
vn 0.9874565 -0.09162525 -0.12858643
vn 0.83772784 0.5459883 0.010433296
vn 0.84423035 0.5321023 0.0643597
vn 0.97565144 -0.20220828 -0.08494758
vn 0.85542184 -0.45932972 -0.23931083
vn -0.975652 -0.20220807 -0.0849416
vn -0.98745686 -0.09162412 -0.12858425
vn -0.85542274 -0.4593287 -0.2393095
vn -0.8442294 0.53210425 0.06435664
vn -0.8377291 0.5459863 0.010431992
vn 0.5072724 -0.0846445 -0.8576188
vn -6.4782234E-06 -0.5665243 -0.82404494
vn -0 -0.4923143 -0.87041754
vn 0.5039122 -0.5796145 -0.6404058
vn 0.65401214 -0.5980992 -0.46319064
vn 0.760389 -0.51906526 -0.3903587
vn 0.80095047 -0.5335362 -0.27169394
vn 0.85542184 -0.45932972 -0.23931083
vn 0.8836903 -0.38846514 -0.26112503
vn 0.9874565 -0.09162525 -0.12858643
vn 0.90332186 -0.2650803 -0.33725655
vn 0.9763342 0.13156384 -0.17164597
vn 0.83772784 0.5459883 0.010433296
vn 0.9148699 0.034215264 -0.40229633
vn 0.7203616 0.5775079 -0.38414034
vn 0.46487597 0.8849025 0.028947046
vn 0.8965212 0.18679975 -0.40169105
vn 0.40442017 0.79992706 -0.44335198
vn -1.708338E-07 0.9983542 0.0573491
vn -0 0.88845336 -0.45896703
vn 0.31369334 0.76725656 -0.55938697
vn -0 0.8309262 -0.55638266
vn 0.53557163 0.63607377 -0.5554937
vn 0.2965838 0.79890114 -0.5232543
vn -0 0.8507543 -0.52556354
vn 0.52993333 0.673634 -0.5151582
vn 0.80742 0.39258823 -0.44039467
vn 0.79022646 0.33686972 -0.5119188
vn 0.9208083 0.06848622 -0.38395536
vn 0.8999396 0.20052993 -0.38716447
vn 0.77952045 0.3895171 -0.4905347
vn 0.88035816 0.16906837 -0.44315392
vn 0.9097452 0.15300506 -0.38594434
vn 0.9378344 0.118323445 -0.3262917
vn 0.9325554 0.09693232 -0.34777078
vn 0.8142155 0.4957363 -0.3021568
vn 0.93208456 0.062440112 -0.35681883
vn 0.9535448 0.039362803 -0.29866862
vn 0.9349496 0.035025004 -0.35304758
vn 0.95173764 0.0038734954 -0.30688828
vn 0.9715253 -0.026182944 -0.23548484
vn 0.94607335 0.011299167 -0.32375547
vn 0.9581603 0.008541448 -0.2861048
vn 0.967136 -0.01846801 -0.2535882
vn 0.97970474 -0.043492 -0.19567083
vn 0.98292184 -0.04769601 -0.17773493
vn -6.4782234E-06 -0.5665243 -0.82404494
vn -0.5072722 -0.08464494 -0.85761887
vn -0 -0.4923143 -0.87041754
vn -0.50391734 -0.57961714 -0.6403994
vn -0.6540119 -0.5981006 -0.46318904
vn -0.7603864 -0.51907057 -0.39035666
vn -0.80095154 -0.533535 -0.27169284
vn -0.85542274 -0.4593287 -0.2393095
vn -0.88369095 -0.38846388 -0.26112446
vn -0.98745686 -0.09162412 -0.12858425
vn -0.9033214 -0.2650815 -0.3372571
vn -0.97633445 0.13156304 -0.17164525
vn -0.8377291 0.5459863 0.010431992
vn -0.91487086 0.034215473 -0.40229425
vn -0.72036165 0.5775078 -0.38414043
vn -0.46487868 0.88490105 0.028945707
vn -0.896521 0.1867995 -0.4016915
vn -0.40442008 0.79992706 -0.44335207
vn -1.708338E-07 0.9983542 0.0573491
vn -0 0.88845336 -0.45896703
vn -0.31369334 0.7672567 -0.5593869
vn -0 0.8309262 -0.55638266
vn -0.5355721 0.63607347 -0.55549365
vn -0.29658383 0.7989012 -0.5232543
vn -0 0.8507543 -0.52556354
vn -0.52993333 0.6736339 -0.5151583
vn -0.8074205 0.39258745 -0.4403943
vn -0.79022616 0.3368699 -0.5119191
vn -0.92080814 0.06848635 -0.38395563
vn -0.8999397 0.20052972 -0.38716447
vn -0.77952176 0.38951573 -0.4905337
vn -0.88035816 0.16906863 -0.44315386
vn -0.9097452 0.15300505 -0.38594434
vn -0.9378344 0.11832318 -0.32629162
vn -0.9325554 0.09693231 -0.3477709
vn -0.8142155 0.4957363 -0.3021568
vn -0.93208486 0.062440146 -0.35681793
vn -0.9535448 0.039362818 -0.29866862
vn -0.95173776 0.0038735755 -0.30688813
vn -0.9715253 -0.026182992 -0.23548493
vn -0.9349497 0.03502496 -0.353047
vn -0.9460734 0.011299183 -0.3237551
vn -0.95816016 0.008541397 -0.286105
vn -0.9671359 -0.018468207 -0.25358862
vn -0.9797044 -0.04349241 -0.19567218
vn -0.98292184 -0.047696088 -0.17773497
g NPC_Male_Size02_Body_017_LOD1_0
f 3/3/3 2/2/2 1/1/1
f 3/3/3 4/4/4 2/2/2
f 5/5/5 4/4/4 3/3/3
f 5/5/5 6/6/6 4/4/4
f 5/5/5 7/7/7 6/6/6
f 5/5/5 8/8/8 7/7/7
f 9/9/9 7/7/7 8/8/8
f 9/9/9 8/8/8 10/10/10
f 13/13/13 12/12/12 11/11/11
f 13/13/13 11/11/11 14/14/14
f 11/11/11 15/15/15 14/14/14
f 18/18/18 17/17/17 16/16/16
f 19/19/19 16/16/16 17/17/17
f 19/19/19 17/17/17 20/20/20
f 23/23/23 22/22/22 21/21/21
f 24/24/24 21/21/21 22/22/22
f 24/24/24 22/22/22 25/25/25
f 24/24/24 25/25/25 26/26/26
f 25/25/25 27/27/27 26/26/26
f 25/25/25 28/28/28 27/27/27
f 27/27/27 28/28/28 29/29/29
f 28/28/28 30/30/30 29/29/29
f 29/29/29 30/30/30 31/31/31
f 32/32/32 31/31/31 30/30/30
f 32/32/32 30/30/30 33/33/33
f 32/32/32 34/34/34 31/31/31
f 32/32/32 33/33/33 35/35/35
f 36/36/36 35/35/35 33/33/33
f 34/34/34 32/32/32 37/37/37
f 37/37/37 32/32/32 35/35/35
f 36/36/36 38/38/38 35/35/35
f 39/39/39 38/38/38 36/36/36
f 39/39/39 40/40/40 38/38/38
f 40/40/40 41/41/41 38/38/38
f 40/40/40 42/42/42 41/41/41
f 43/43/43 35/35/35 38/38/38
f 43/43/43 38/38/38 41/41/41
f 42/42/42 44/44/44 41/41/41
f 42/42/42 45/45/45 44/44/44
f 46/46/46 41/41/41 44/44/44
f 46/46/46 43/43/43 41/41/41
f 47/47/47 43/43/43 46/46/46
f 48/48/48 35/35/35 43/43/43
f 37/37/37 35/35/35 48/48/48
f 34/34/34 37/37/37 49/49/49
f 50/50/50 34/34/34 49/49/49
f 47/47/47 51/51/51 43/43/43
f 48/48/48 43/43/43 51/51/51
f 37/37/37 48/48/48 52/52/52
f 52/52/52 48/48/48 51/51/51
f 49/49/49 37/37/37 52/52/52
f 47/47/47 53/53/53 51/51/51
f 52/52/52 51/51/51 53/53/53
f 47/47/47 54/54/54 53/53/53
f 49/49/49 55/55/55 50/50/50
f 56/56/56 50/50/50 55/55/55
f 49/49/49 57/57/57 55/55/55
f 49/49/49 52/52/52 57/57/57
f 58/58/58 55/55/55 57/57/57
f 59/59/59 52/52/52 53/53/53
f 57/57/57 52/52/52 59/59/59
f 60/60/60 53/53/53 54/54/54
f 60/60/60 59/59/59 53/53/53
f 60/60/60 54/54/54 61/61/61
f 58/58/58 57/57/57 62/62/62
f 62/62/62 57/57/57 59/59/59
f 62/62/62 59/59/59 60/60/60
f 63/63/63 58/58/58 62/62/62
f 62/62/62 60/60/60 64/64/64
f 63/63/63 62/62/62 64/64/64
f 60/60/60 61/61/61 64/64/64
f 63/63/63 64/64/64 65/65/65
f 61/61/61 65/65/65 64/64/64
f 66/66/66 65/65/65 61/61/61
f 69/69/69 68/68/68 67/67/67
f 70/70/70 67/67/67 68/68/68
f 71/71/71 67/67/67 70/70/70
f 71/71/71 70/70/70 72/72/72
f 73/73/73 71/71/71 72/72/72
f 73/73/73 74/74/74 71/71/71
f 73/73/73 75/75/75 74/74/74
f 74/74/74 75/75/75 76/76/76
f 76/76/76 75/75/75 77/77/77
f 78/78/78 76/76/76 77/77/77
f 78/78/78 79/79/79 76/76/76
f 80/80/80 78/78/78 77/77/77
f 78/78/78 81/81/81 79/79/79
f 82/82/82 79/79/79 81/81/81
f 78/78/78 80/80/80 83/83/83
f 81/81/81 78/78/78 83/83/83
f 82/82/82 81/81/81 84/84/84
f 85/85/85 82/82/82 84/84/84
f 85/85/85 84/84/84 86/86/86
f 86/86/86 84/84/84 87/87/87
f 86/86/86 87/87/87 88/88/88
f 89/89/89 84/84/84 81/81/81
f 89/89/89 87/87/87 84/84/84
f 88/88/88 87/87/87 90/90/90
f 88/88/88 90/90/90 91/91/91
f 92/92/92 90/90/90 87/87/87
f 92/92/92 87/87/87 89/89/89
f 89/89/89 93/93/93 92/92/92
f 94/94/94 89/89/89 81/81/81
f 81/81/81 83/83/83 94/94/94
f 83/83/83 80/80/80 95/95/95
f 80/80/80 96/96/96 95/95/95
f 89/89/89 97/97/97 93/93/93
f 94/94/94 97/97/97 89/89/89
f 94/94/94 83/83/83 98/98/98
f 98/98/98 97/97/97 94/94/94
f 83/83/83 95/95/95 98/98/98
f 93/93/93 97/97/97 99/99/99
f 98/98/98 99/99/99 97/97/97
f 93/93/93 99/99/99 100/100/100
f 95/95/95 96/96/96 101/101/101
f 96/96/96 102/102/102 101/101/101
f 95/95/95 101/101/101 103/103/103
f 98/98/98 95/95/95 103/103/103
f 104/104/104 103/103/103 101/101/101
f 105/105/105 100/100/100 99/99/99
f 105/105/105 106/106/106 100/100/100
f 98/98/98 107/107/107 99/99/99
f 98/98/98 103/103/103 107/107/107
f 107/107/107 105/105/105 99/99/99
f 104/104/104 108/108/108 103/103/103
f 107/107/107 103/103/103 108/108/108
f 107/107/107 108/108/108 105/105/105
f 109/109/109 108/108/108 104/104/104
f 105/105/105 108/108/108 110/110/110
f 109/109/109 110/110/110 108/108/108
f 106/106/106 105/105/105 110/110/110
f 110/110/110 109/109/109 111/111/111
f 111/111/111 106/106/106 110/110/110
f 111/111/111 112/112/112 106/106/106
