g NPC_Male_Size02_Body_023_LOD1
v 0.043752935 0.03495954 1.5696541
v 0.029886387 0.05358262 1.5439497
v 0.047936276 0.037766524 1.5402792
v 0.02558938 0.049612463 1.573588
v -0 0.06080204 1.5468593
v -0 0.057105396 1.5753236
v -0.02558938 0.049612463 1.573588
v -0.029886387 0.05358262 1.5439497
v -0.043752935 0.03495954 1.5696541
v -0.047936276 0.037766524 1.5402792
v 0.047427643 0.016830644 1.5644659
v 0.043752935 0.03495954 1.5696541
v 0.047936276 0.037766524 1.5402792
v 0.0481048 0.01994042 1.5356666
v 0.036712695 -0.0031245798 1.5550115
v 0.03776719 -0.0012206722 1.5276873
v 0.026676368 -0.013366218 1.5470632
v 0.025013616 -0.010069859 1.520603
v 5.6743343E-12 -0.022869434 1.5397339
v -0 -0.01730632 1.5119809
v -0.025013616 -0.010069859 1.520603
v -0.026676368 -0.013366218 1.5470632
v -0.03776719 -0.0012206722 1.5276873
v -0.036712695 -0.0031245798 1.5550115
v -0.0481048 0.01994042 1.5356666
v -0.047427643 0.016830644 1.5644659
v -0.047936276 0.037766524 1.5402792
v -0.043752935 0.03495954 1.5696541
v 0.009736606 -0.031949878 1.5477005
v 5.6743343E-12 -0.022869434 1.5397339
v -0 -0.03354932 1.5447935
v 0.018161679 -0.026787376 1.5528399
v 0.026676368 -0.013366218 1.5470632
v 0.027998801 -0.020343138 1.5587068
v 0.034028087 -0.013040855 1.5644836
v 0.036712695 -0.0031245798 1.5550115
v 0.040903322 -0.005078274 1.5708883
v 0.04692431 0.0016749359 1.5768234
v 0.047427643 0.016830644 1.5644659
v 0.049037352 0.013827422 1.5804454
v 0.043752935 0.03495954 1.5696541
v 0.0493044 0.0026473298 1.5809697
v 0.04406343 0.035078604 1.587837
v 0.02558938 0.049612463 1.573588
v 0.052397404 0.01665735 1.5906531
v 0.024197493 0.049874824 1.5883168
v -0 0.057105396 1.5753236
v -0 0.056962296 1.5876793
v 0.026770588 0.06795374 1.6114465
v -0 0.07311027 1.6099381
v 0.050400324 0.05674489 1.6154433
v 0.03006838 0.086480714 1.6412077
v -0 0.09187157 1.6403081
v 0.057863552 0.0721489 1.6426715
v 0.052363496 0.02917785 1.5967494
v 0.059557293 0.047654364 1.6192236
v 0.06775244 0.058952607 1.6441134
v 0.057015378 0.025912318 1.6027573
v 0.06507267 0.03682231 1.6240777
v 0.07262851 0.042490326 1.6465052
v 0.06802087 0.022117095 1.630696
v 0.07261085 0.022013748 1.6491113
v 0.054507617 0.012502018 1.596051
v 0.05430213 0.0041954005 1.5922781
v 0.06112186 0.02259375 1.613084
v 0.060361512 0.0114843 1.6086895
v 0.06059141 0.0031109857 1.6074462
v 0.05563628 0.002005837 1.5922807
v 0.065496825 0.0038507443 1.6234384
v 0.06527937 0.010498145 1.6233997
v 0.06828985 0.004088257 1.6329457
v 0.06992759 0.009438086 1.6384928
v 0.070275635 0.0049592266 1.6407733
v 0.07188488 0.0047826082 1.6497204
v 5.6743343E-12 -0.022869434 1.5397339
v -0.009736606 -0.031949878 1.5477005
v -0 -0.03354932 1.5447935
v -0.018161679 -0.026787376 1.5528399
v -0.026676368 -0.013366218 1.5470632
v -0.027998801 -0.020343138 1.5587068
v -0.034028087 -0.013040855 1.5644836
v -0.036712695 -0.0031245798 1.5550115
v -0.040903322 -0.005078274 1.5708883
v -0.04692431 0.0016749359 1.5768234
v -0.047427643 0.016830644 1.5644659
v -0.049037352 0.013827422 1.5804454
v -0.043752935 0.03495954 1.5696541
v -0.0493044 0.0026473298 1.5809697
v -0.04406343 0.035078604 1.587837
v -0.02558938 0.049612463 1.573588
v -0.052397404 0.01665735 1.5906531
v -0.024197493 0.049874824 1.5883168
v -0 0.057105396 1.5753236
v -0 0.056962296 1.5876793
v -0.026770588 0.06795374 1.6114465
v -0 0.07311027 1.6099381
v -0.050400324 0.05674489 1.6154433
v -0.03006838 0.086480714 1.6412077
v -0 0.09187157 1.6403081
v -0.057863552 0.0721489 1.6426715
v -0.052363496 0.02917785 1.5967494
v -0.059557293 0.047654364 1.6192236
v -0.06775244 0.058952607 1.6441134
v -0.057015378 0.025912318 1.6027573
v -0.06507267 0.03682231 1.6240777
v -0.07262851 0.042490326 1.6465052
v -0.06802087 0.022117095 1.630696
v -0.07261085 0.022013748 1.6491113
v -0.054507617 0.012502018 1.596051
v -0.05430213 0.0041954005 1.5922781
v -0.06112186 0.02259375 1.613084
v -0.060361512 0.0114843 1.6086895
v -0.06059141 0.0031109857 1.6074462
v -0.05563628 0.002005837 1.5922807
v -0.065496825 0.0038507443 1.6234384
v -0.06527937 0.010498145 1.6233997
v -0.06828985 0.004088257 1.6329457
v -0.06992759 0.009438086 1.6384928
v -0.070275635 0.0049592266 1.6407733
v -0.07188488 0.0047826082 1.6497204
vt 0.6070209 0.9864436
vt 0.61903995 0.9668692
vt 0.6005201 0.96967185
vt 0.62349796 0.9855591
vt 0.641853 0.96698755
vt 0.641853 0.9840878
vt 0.660208 0.9855591
vt 0.664666 0.9668692
vt 0.67668504 0.9864436
vt 0.6831859 0.96967185
vt 0.2554316 0.9817815
vt 0.26653245 0.9898544
vt 0.27267534 0.97241205
vt 0.26355177 0.96363646
vt 0.2436153 0.9702169
vt 0.25007534 0.95160306
vt 0.23715156 0.9621819
vt 0.24054801 0.9441512
vt 0.22236818 0.95521164
vt 0.22236818 0.93625736
vt 0.20418835 0.9441512
vt 0.20758481 0.9621819
vt 0.19466102 0.95160306
vt 0.20112108 0.9702169
vt 0.18118459 0.96363646
vt 0.18930477 0.9817815
vt 0.17206104 0.97241205
vt 0.17820391 0.9898544
vt 0.4131559 0.57936597
vt 0.419931 0.5759077
vt 0.40907604 0.5712043
vt 0.41916755 0.58709
vt 0.43256477 0.5904117
vt 0.42585278 0.59649587
vt 0.43296686 0.6031627
vt 0.44221276 0.60115063
vt 0.44022238 0.6111438
vt 0.44825092 0.61675507
vt 0.46006075 0.61430776
vt 0.45837396 0.62142223
vt 0.47703776 0.6210027
vt 0.4506179 0.62034494
vt 0.4760737 0.6318933
vt 0.49822456 0.62625754
vt 0.45975557 0.6299161
vt 0.49847543 0.6334873
vt 0.5217291 0.62818056
vt 0.5217052 0.63367885
vt 0.5019821 0.656226
vt 0.52391124 0.6555629
vt 0.48164874 0.6574441
vt 0.5016585 0.68242186
vt 0.52443975 0.684992
vt 0.48091653 0.67881846
vt 0.46744174 0.63772005
vt 0.4719522 0.6593821
vt 0.4698081 0.6785872
vt 0.4624519 0.64158785
vt 0.46179023 0.65980685
vt 0.45720747 0.6763735
vt 0.44957772 0.65997756
vt 0.4429726 0.67250717
vt 0.45530966 0.6329608
vt 0.45024943 0.6283655
vt 0.45651674 0.64788437
vt 0.45042753 0.6416689
vt 0.44506836 0.63853705
vt 0.44855067 0.6277498
vt 0.44040626 0.64916486
vt 0.4447461 0.6512893
vt 0.43716177 0.6555152
vt 0.43875542 0.6611558
vt 0.43506244 0.6612072
vt 0.43188757 0.66745526
vt 0.419931 0.5759077
vt 0.4131559 0.57936597
vt 0.40907604 0.5712043
vt 0.41916755 0.58709
vt 0.43256477 0.5904117
vt 0.42585278 0.59649587
vt 0.43296686 0.6031627
vt 0.44221276 0.60115063
vt 0.44022238 0.6111438
vt 0.44825092 0.61675507
vt 0.46006075 0.61430776
vt 0.45837396 0.62142223
vt 0.47703776 0.6210027
vt 0.4506179 0.62034494
vt 0.4760737 0.6318933
vt 0.49822456 0.62625754
vt 0.45975557 0.6299161
vt 0.49847543 0.6334873
vt 0.5217291 0.62818056
vt 0.5217052 0.63367885
vt 0.5019821 0.656226
vt 0.52391124 0.6555629
vt 0.48164874 0.6574441
vt 0.5016585 0.68242186
vt 0.52443975 0.684992
vt 0.48091653 0.67881846
vt 0.46744174 0.63772005
vt 0.4719522 0.6593821
vt 0.4698081 0.6785872
vt 0.4624519 0.64158785
vt 0.46179023 0.65980685
vt 0.45720747 0.6763735
vt 0.44957772 0.65997756
vt 0.4429726 0.67250717
vt 0.45530966 0.6329608
vt 0.45024943 0.6283655
vt 0.45651674 0.64788437
vt 0.45042753 0.6416689
vt 0.44506836 0.63853705
vt 0.44855067 0.6277498
vt 0.44040626 0.64916486
vt 0.4447461 0.6512893
vt 0.43716177 0.6555152
vt 0.43875542 0.6611558
vt 0.43506244 0.6612072
vt 0.43188757 0.66745526
vn 0.868732 0.49006245 0.07171879
vn 0.46395844 0.81852585 0.33875954
vn 0.8660621 0.35301936 0.35399684
vn 0.4657725 0.87966806 0.09612504
vn -0 0.9462532 0.3234271
vn -0 0.99593997 0.09001986
vn -0.4657725 0.87966806 0.09612504
vn -0.46395844 0.81852585 0.33875954
vn -0.868732 0.49006245 0.07171879
vn -0.8660621 0.35301936 0.35399684
vn 0.9930569 -0.09551741 -0.06866096
vn 0.868732 0.49006245 0.07171879
vn 0.8660621 0.35301936 0.35399684
vn 0.92019755 -0.32998067 0.21059248
vn 0.8460737 -0.502275 -0.17854747
vn 0.7238172 -0.68755096 0.057985492
vn 0.62081146 -0.7168372 -0.3173916
vn 0.41929153 -0.90669686 -0.045774706
vn -0 -0.8115958 -0.5842193
vn -0 -0.9949162 -0.10070633
vn -0.41929153 -0.90669686 -0.045774706
vn -0.62081146 -0.7168372 -0.3173916
vn -0.7238172 -0.68755096 0.057985492
vn -0.8460737 -0.502275 -0.17854747
vn -0.92019755 -0.32998067 0.21059248
vn -0.9930569 -0.09551741 -0.06866096
vn -0.8660621 0.35301936 0.35399684
vn -0.868732 0.49006245 0.07171879
vn 0.41049683 0.05775966 -0.91003084
vn -0 -0.8115958 -0.5842193
vn -0 -0.07553966 -0.99714273
vn 0.4646517 -0.09747772 -0.8801118
vn 0.62081146 -0.7168372 -0.3173916
vn 0.6293929 -0.13714296 -0.76488984
vn 0.7423841 -0.1201508 -0.65911293
vn 0.8460737 -0.502275 -0.17854747
vn 0.7738173 -0.1450639 -0.6165738
vn 0.82998323 0.032885283 -0.5568181
vn 0.9930569 -0.09551741 -0.06866096
vn 0.9589441 0.05757384 -0.2776895
vn 0.868732 0.49006245 0.07171879
vn 0.8427302 0.28105903 -0.45914233
vn 0.7719148 0.5407981 -0.33419278
vn 0.4657725 0.87966806 0.09612504
vn 0.9034052 0.14267996 -0.40435323
vn 0.414983 0.8486122 -0.32809508
vn -0 0.99593997 0.09001986
vn -0 0.9435717 -0.33116814
vn 0.31553835 0.7617248 -0.5658718
vn -0 0.8210918 -0.57079613
vn 0.58830035 0.59907556 -0.5431492
vn 0.2987644 0.79495656 -0.52799994
vn -0 0.8454436 -0.53406477
vn 0.5755949 0.6406045 -0.5082482
vn 0.80845845 0.3170757 -0.49584055
vn 0.80363977 0.36492658 -0.47009757
vn 0.81111485 0.3875761 -0.43803826
vn 0.88825554 0.15247671 -0.43330467
vn 0.91458535 0.13841096 -0.37996855
vn 0.9322053 0.1273747 -0.33877563
vn 0.9527781 0.0029564206 -0.303653
vn 0.9681478 -0.0087493295 -0.25022602
vn 0.9213626 0.066445105 -0.38298315
vn 0.8406256 0.3654793 -0.3997167
vn 0.93453443 0.037184965 -0.35392457
vn 0.9318 0.06484016 -0.35713354
vn 0.9459586 0.049401827 -0.32050225
vn 0.87673545 0.34735405 -0.33268636
vn 0.9583953 -0.008722274 -0.28531104
vn 0.9495796 0.022346275 -0.31272867
vn 0.96300924 -0.03580821 -0.26707864
vn 0.9690657 -0.023302644 -0.24570014
vn 0.97650254 -0.06815337 -0.20444523
vn 0.9837585 -0.07456572 -0.16327624
vn -0 -0.8115958 -0.5842193
vn -0.41049683 0.05775966 -0.91003084
vn -0 -0.07553966 -0.99714273
vn -0.46466216 -0.097453564 -0.88010895
vn -0.62081146 -0.7168372 -0.3173916
vn -0.6293929 -0.13714296 -0.76488984
vn -0.7423841 -0.1201508 -0.65911293
vn -0.8460737 -0.502275 -0.17854747
vn -0.77381665 -0.14506975 -0.6165732
vn -0.8299833 0.032882307 -0.55681825
vn -0.9930569 -0.09551741 -0.06866096
vn -0.9589441 0.05757384 -0.2776895
vn -0.868732 0.49006245 0.07171879
vn -0.84272945 0.28106174 -0.45914194
vn -0.7719148 0.5407981 -0.33419278
vn -0.4657725 0.87966806 0.09612504
vn -0.9034052 0.14267996 -0.40435323
vn -0.414983 0.8486122 -0.32809508
vn -0 0.99593997 0.09001986
vn -0 0.9435717 -0.33116814
vn -0.31553835 0.7617248 -0.5658718
vn -0 0.8210918 -0.57079613
vn -0.58830035 0.59907556 -0.5431492
vn -0.2987644 0.79495656 -0.52799994
vn -0 0.8454436 -0.53406477
vn -0.5755949 0.6406045 -0.5082482
vn -0.80845845 0.3170757 -0.49584055
vn -0.80363977 0.36492658 -0.47009757
vn -0.81111485 0.3875761 -0.43803826
vn -0.88825554 0.15247671 -0.43330467
vn -0.91458535 0.13841096 -0.37996855
vn -0.9322053 0.1273747 -0.33877563
vn -0.9527781 0.0029564206 -0.303653
vn -0.9681478 -0.0087493295 -0.25022602
vn -0.9213626 0.066445105 -0.38298315
vn -0.84062374 0.36548445 -0.3997158
vn -0.93453443 0.037184965 -0.35392457
vn -0.9318 0.06484016 -0.35713354
vn -0.94595873 0.049398847 -0.32050234
vn -0.8767345 0.3473567 -0.332686
vn -0.9583953 -0.008725255 -0.28531107
vn -0.9495796 0.022346275 -0.31272867
vn -0.96300924 -0.03580821 -0.26707864
vn -0.9690657 -0.023302644 -0.24570014
vn -0.97650254 -0.06815337 -0.20444523
vn -0.9837585 -0.07456572 -0.16327624
g NPC_Male_Size02_Body_023_LOD1_0
f 3/3/3 2/2/2 1/1/1
f 2/2/2 4/4/4 1/1/1
f 2/2/2 5/5/5 4/4/4
f 5/5/5 6/6/6 4/4/4
f 6/6/6 5/5/5 7/7/7
f 5/5/5 8/8/8 7/7/7
f 9/9/9 7/7/7 8/8/8
f 10/10/10 9/9/9 8/8/8
f 13/13/13 12/12/12 11/11/11
f 14/14/14 13/13/13 11/11/11
f 11/11/11 15/15/15 14/14/14
f 15/15/15 16/16/16 14/14/14
f 15/15/15 17/17/17 16/16/16
f 17/17/17 18/18/18 16/16/16
f 18/18/18 17/17/17 19/19/19
f 20/20/20 18/18/18 19/19/19
f 21/21/21 20/20/20 19/19/19
f 22/22/22 21/21/21 19/19/19
f 21/21/21 22/22/22 23/23/23
f 22/22/22 24/24/24 23/23/23
f 23/23/23 24/24/24 25/25/25
f 24/24/24 26/26/26 25/25/25
f 27/27/27 25/25/25 26/26/26
f 28/28/28 27/27/27 26/26/26
f 31/31/31 30/30/30 29/29/29
f 32/32/32 29/29/29 30/30/30
f 32/32/32 30/30/30 33/33/33
f 34/34/34 32/32/32 33/33/33
f 34/34/34 33/33/33 35/35/35
f 33/33/33 36/36/36 35/35/35
f 35/35/35 36/36/36 37/37/37
f 37/37/37 36/36/36 38/38/38
f 38/38/38 36/36/36 39/39/39
f 40/40/40 38/38/38 39/39/39
f 40/40/40 39/39/39 41/41/41
f 40/40/40 42/42/42 38/38/38
f 43/43/43 40/40/40 41/41/41
f 41/41/41 44/44/44 43/43/43
f 42/42/42 40/40/40 45/45/45
f 45/45/45 40/40/40 43/43/43
f 44/44/44 46/46/46 43/43/43
f 44/44/44 47/47/47 46/46/46
f 47/47/47 48/48/48 46/46/46
f 46/46/46 48/48/48 49/49/49
f 48/48/48 50/50/50 49/49/49
f 51/51/51 43/43/43 46/46/46
f 49/49/49 51/51/51 46/46/46
f 49/49/49 50/50/50 52/52/52
f 50/50/50 53/53/53 52/52/52
f 52/52/52 54/54/54 49/49/49
f 54/54/54 51/51/51 49/49/49
f 55/55/55 43/43/43 51/51/51
f 55/55/55 45/45/45 43/43/43
f 56/56/56 51/51/51 54/54/54
f 56/56/56 55/55/55 51/51/51
f 57/57/57 56/56/56 54/54/54
f 45/45/45 55/55/55 58/58/58
f 58/58/58 55/55/55 56/56/56
f 56/56/56 57/57/57 59/59/59
f 59/59/59 58/58/58 56/56/56
f 57/57/57 60/60/60 59/59/59
f 61/61/61 59/59/59 60/60/60
f 62/62/62 61/61/61 60/60/60
f 63/63/63 45/45/45 58/58/58
f 42/42/42 45/45/45 63/63/63
f 64/64/64 42/42/42 63/63/63
f 65/65/65 58/58/58 59/59/59
f 61/61/61 65/65/65 59/59/59
f 66/66/66 58/58/58 65/65/65
f 63/63/63 58/58/58 66/66/66
f 66/66/66 65/65/65 61/61/61
f 64/64/64 63/63/63 67/67/67
f 63/63/63 66/66/66 67/67/67
f 68/68/68 64/64/64 67/67/67
f 69/69/69 67/67/67 66/66/66
f 70/70/70 69/69/69 66/66/66
f 70/70/70 66/66/66 61/61/61
f 71/71/71 69/69/69 70/70/70
f 70/70/70 61/61/61 72/72/72
f 72/72/72 71/71/71 70/70/70
f 61/61/61 62/62/62 72/72/72
f 71/71/71 72/72/72 73/73/73
f 62/62/62 73/73/73 72/72/72
f 74/74/74 73/73/73 62/62/62
f 77/77/77 76/76/76 75/75/75
f 78/78/78 75/75/75 76/76/76
f 79/79/79 75/75/75 78/78/78
f 80/80/80 79/79/79 78/78/78
f 80/80/80 81/81/81 79/79/79
f 81/81/81 82/82/82 79/79/79
f 81/81/81 83/83/83 82/82/82
f 82/82/82 83/83/83 84/84/84
f 85/85/85 82/82/82 84/84/84
f 86/86/86 85/85/85 84/84/84
f 85/85/85 86/86/86 87/87/87
f 88/88/88 86/86/86 84/84/84
f 86/86/86 89/89/89 87/87/87
f 90/90/90 87/87/87 89/89/89
f 86/86/86 88/88/88 91/91/91
f 89/89/89 86/86/86 91/91/91
f 92/92/92 90/90/90 89/89/89
f 93/93/93 90/90/90 92/92/92
f 94/94/94 93/93/93 92/92/92
f 94/94/94 92/92/92 95/95/95
f 96/96/96 94/94/94 95/95/95
f 89/89/89 97/97/97 92/92/92
f 97/97/97 95/95/95 92/92/92
f 96/96/96 95/95/95 98/98/98
f 99/99/99 96/96/96 98/98/98
f 100/100/100 98/98/98 95/95/95
f 97/97/97 100/100/100 95/95/95
f 89/89/89 101/101/101 97/97/97
f 101/101/101 89/89/89 91/91/91
f 97/97/97 102/102/102 100/100/100
f 101/101/101 102/102/102 97/97/97
f 102/102/102 103/103/103 100/100/100
f 101/101/101 91/91/91 104/104/104
f 101/101/101 104/104/104 102/102/102
f 103/103/103 102/102/102 105/105/105
f 104/104/104 105/105/105 102/102/102
f 106/106/106 103/103/103 105/105/105
f 105/105/105 107/107/107 106/106/106
f 107/107/107 108/108/108 106/106/106
f 91/91/91 109/109/109 104/104/104
f 91/91/91 88/88/88 109/109/109
f 88/88/88 110/110/110 109/109/109
f 104/104/104 111/111/111 105/105/105
f 111/111/111 107/107/107 105/105/105
f 104/104/104 112/112/112 111/111/111
f 104/104/104 109/109/109 112/112/112
f 111/111/111 112/112/112 107/107/107
f 109/109/109 110/110/110 113/113/113
f 112/112/112 109/109/109 113/113/113
f 110/110/110 114/114/114 113/113/113
f 113/113/113 115/115/115 112/112/112
f 115/115/115 116/116/116 112/112/112
f 112/112/112 116/116/116 107/107/107
f 115/115/115 117/117/117 116/116/116
f 107/107/107 116/116/116 118/118/118
f 117/117/117 118/118/118 116/116/116
f 108/108/108 107/107/107 118/118/118
f 118/118/118 117/117/117 119/119/119
f 119/119/119 108/108/108 118/118/118
f 119/119/119 120/120/120 108/108/108
