g NPC_Male_Size02_Body_019_LOD2
v 0.037261996 0.06450299 1.5251539
v 0.05905993 0.04052401 1.519255
v 0.047936276 0.037766524 1.5422581
v 0.029886387 0.05358262 1.5474871
v -0 0.06080204 1.5503967
v 0.043752935 0.03495954 1.5696541
v 0.02558938 0.049612463 1.573588
v -4.1760504E-08 0.068422966 1.527554
v -0 0.057105396 1.5753236
v -0.02558938 0.049612463 1.573588
v -0.03726198 0.064502954 1.5251539
v -0.029886387 0.05358262 1.5474871
v -0.043752935 0.03495954 1.5696541
v -0.047936276 0.037766524 1.5422581
v -0.059059963 0.040523987 1.519255
v 0.047427643 0.016830644 1.5644659
v 0.043752935 0.03495954 1.5696541
v 0.047936276 0.037766524 1.5422581
v 0.0481048 0.01994042 1.5368643
v 0.05905993 0.04052401 1.519255
v 0.03169453 -0.008245399 1.5510374
v 0.059753027 0.021811878 1.5142144
v 0.031390402 -0.0056452653 1.5241451
v 0.041654725 -0.0018922364 1.4990493
v 5.6743343E-12 -0.022869434 1.5397339
v -0 -0.01730632 1.5119809
v -0 -0.015132253 1.4988093
v -0.04165472 -0.0018922639 1.4990493
v -0.031390402 -0.0056452653 1.5241451
v -0.03169453 -0.008245399 1.5510374
v -0.059753027 0.021811878 1.5142144
v -0.0481048 0.01994042 1.5368643
v -0.059059963 0.040523987 1.519255
v -0.047427643 0.016830644 1.5644659
v -0.047936276 0.037766524 1.5422581
v -0.043752935 0.03495954 1.5696541
v 5.6743343E-12 -0.022869434 1.5397339
v 4.819594E-10 -0.033549313 1.5447935
v 0.018161679 -0.026787376 1.5528399
v 0.03169453 -0.008245399 1.5510374
v 0.03402812 -0.013040888 1.5644836
v 0.04692431 0.0016749359 1.5768234
v 0.047427643 0.016830644 1.5644659
v 0.049037352 0.013827422 1.5804454
v 0.043752935 0.03495954 1.5696541
v 0.057015378 0.025912318 1.6027573
v 0.05430213 0.0041954005 1.5922781
v 0.04406343 0.035078604 1.587837
v 0.02558938 0.049612463 1.573588
v 0.024197493 0.049874824 1.5883168
v -0 0.057105396 1.5753236
v -0 0.056962296 1.5876793
v 0.050400324 0.05674489 1.6154433
v 0.026770588 0.06795374 1.6114465
v -0 0.07311027 1.6099381
v 0.03006838 0.086480714 1.6412077
v -0 0.09187157 1.6403081
v 0.057863552 0.0721489 1.6426715
v 0.07262851 0.042490326 1.6465052
v 0.06507267 0.03682231 1.6240777
v 0.06472723 0.016441815 1.6220648
v 0.07261085 0.022013748 1.6491113
v 0.07108025 0.004870917 1.6452469
v 0.06489182 0.0038477215 1.6215954
v 0.05563628 0.002005837 1.5922807
v 4.819594E-10 -0.033549313 1.5447935
v 5.6743343E-12 -0.022869434 1.5397339
v -0.018161679 -0.026787376 1.5528399
v -0.03169453 -0.008245399 1.5510374
v -0.03402811 -0.013040862 1.5644838
v -0.04692431 0.0016749359 1.5768234
v -0.047427643 0.016830644 1.5644659
v -0.049037352 0.013827422 1.5804454
v -0.043752935 0.03495954 1.5696541
v -0.05430213 0.0041954005 1.5922781
v -0.04406343 0.035078604 1.587837
v -0.02558938 0.049612463 1.573588
v -0.057015378 0.025912318 1.6027573
v -0.024197493 0.049874824 1.5883168
v -0 0.057105396 1.5753236
v -0 0.056962296 1.5876793
v -0.050400324 0.05674489 1.6154433
v -0.026770588 0.06795374 1.6114465
v -0 0.07311027 1.6099381
v -0.03006838 0.086480714 1.6412077
v -0 0.09187157 1.6403081
v -0.057863552 0.0721489 1.6426715
v -0.06507267 0.03682231 1.6240777
v -0.07262851 0.042490326 1.6465052
v -0.06472723 0.016441815 1.6220648
v -0.07261085 0.022013748 1.6491113
v -0.07108025 0.004870917 1.6452469
v -0.06489184 0.0038477217 1.6215956
v -0.05563628 0.002005837 1.5922807
vt 0.61380243 0.9481747
vt 0.5900667 0.95716643
vt 0.6005201 0.96967185
vt 0.61903995 0.9668692
vt 0.641853 0.96698755
vt 0.6070209 0.9864436
vt 0.62349796 0.9855591
vt 0.6419706 0.9491558
vt 0.641853 0.9840878
vt 0.660208 0.9855591
vt 0.66972476 0.9483246
vt 0.664666 0.9668692
vt 0.67668504 0.9864436
vt 0.6831859 0.96967185
vt 0.6937261 0.9570816
vt 0.2554316 0.9817815
vt 0.26653245 0.9898544
vt 0.27267534 0.97241205
vt 0.26355177 0.96363646
vt 0.28120965 0.9600524
vt 0.24038343 0.9661994
vt 0.27367964 0.9491949
vt 0.24531168 0.94787717
vt 0.25585213 0.9318523
vt 0.22236818 0.95521164
vt 0.22236818 0.93625736
vt 0.22236818 0.9229099
vt 0.1894906 0.93194467
vt 0.19942468 0.94787717
vt 0.20435295 0.9661994
vt 0.17105672 0.9491949
vt 0.18118459 0.96363646
vt 0.16367307 0.9597454
vt 0.18930477 0.9817815
vt 0.17206104 0.97241205
vt 0.17820391 0.9898544
vt 0.419931 0.5759077
vt 0.41135845 0.5747894
vt 0.41916755 0.58709
vt 0.43738878 0.5957812
vt 0.433014 0.60360086
vt 0.44825092 0.61675507
vt 0.46006075 0.61430776
vt 0.45837396 0.62142223
vt 0.47703776 0.6210027
vt 0.4624519 0.64158785
vt 0.45024943 0.6283655
vt 0.4760737 0.6318933
vt 0.49822456 0.62625754
vt 0.49847543 0.6334873
vt 0.5217291 0.62818056
vt 0.5217052 0.63367885
vt 0.48164874 0.6574441
vt 0.5019821 0.656226
vt 0.52391124 0.6555629
vt 0.5016585 0.68242186
vt 0.52443975 0.684992
vt 0.48091653 0.67881846
vt 0.45720747 0.6763735
vt 0.46179023 0.65980685
vt 0.449094 0.65224206
vt 0.4429726 0.67250717
vt 0.43347502 0.6643312
vt 0.44118774 0.64735794
vt 0.44855067 0.6277498
vt 0.41091138 0.5746494
vt 0.419931 0.5759077
vt 0.41916755 0.58709
vt 0.43738878 0.5957812
vt 0.433014 0.60360086
vt 0.44825092 0.61675507
vt 0.46006075 0.61430776
vt 0.45837396 0.62142223
vt 0.47703776 0.6210027
vt 0.45024943 0.6283655
vt 0.4760737 0.6318933
vt 0.49822456 0.62625754
vt 0.4624519 0.64158785
vt 0.49847543 0.6334873
vt 0.5217291 0.62818056
vt 0.5217052 0.63367885
vt 0.48164874 0.6574441
vt 0.5019821 0.656226
vt 0.52391124 0.6555629
vt 0.5016585 0.68242186
vt 0.52443975 0.684992
vt 0.48091653 0.67881846
vt 0.46179023 0.65980685
vt 0.45720747 0.6763735
vt 0.449094 0.65224206
vt 0.4429726 0.67250717
vt 0.43347502 0.6643312
vt 0.44118774 0.64735794
vt 0.44855067 0.6277498
vn 0.48811886 0.7480102 0.4496894
vn 0.86316895 0.1818286 0.4710391
vn 0.8789277 0.34798694 0.32617667
vn 0.4688409 0.8234973 0.31943762
vn -0 0.95737994 0.28883153
vn 0.86869556 0.49005464 0.07221208
vn 0.46579662 0.879696 0.09575159
vn -5.5923556E-07 0.91422313 0.4052112
vn -0 0.99600655 0.08928061
vn -0.46579662 0.879696 0.09575159
vn -0.48811892 0.7480106 0.4496889
vn -0.468841 0.8234974 0.31943735
vn -0.86869556 0.49005464 0.07221208
vn -0.8789276 0.34798715 0.3261767
vn -0.86316884 0.18182805 0.47103927
vn 0.988648 -0.120017976 -0.09039203
vn 0.86869556 0.49005464 0.07221208
vn 0.8789277 0.34798694 0.32617667
vn 0.92260945 -0.33234385 0.19580449
vn 0.86316895 0.1818286 0.4710391
vn 0.74062765 -0.596888 -0.30853757
vn 0.83612597 -0.42074123 0.35195184
vn 0.5862207 -0.8101513 -0.00016720581
vn 0.5690479 -0.8135281 0.11981895
vn -2.2104156E-07 -0.83436185 -0.55121714
vn 1.0186908E-07 -0.9953176 -0.096658535
vn 1.955785E-07 -0.9981639 -0.060572274
vn -0.56904763 -0.8135282 0.119819246
vn -0.5862207 -0.81015146 -0.00016694213
vn -0.7406275 -0.59688884 -0.3085362
vn -0.83612573 -0.4207415 0.35195222
vn -0.92260927 -0.3323441 0.19580467
vn -0.86316884 0.18182805 0.47103927
vn -0.988648 -0.12001801 -0.09039204
vn -0.8789276 0.34798715 0.3261767
vn -0.86869556 0.49005464 0.07221208
vn -2.2104156E-07 -0.83436185 -0.55121714
vn -0 -0.0791313 -0.99686426
vn 0.5468613 -0.12673828 -0.82757485
vn 0.74062765 -0.596888 -0.30853757
vn 0.6981665 -0.18646035 -0.691228
vn 0.83718604 0.047592685 -0.5448436
vn 0.988648 -0.120017976 -0.09039203
vn 0.9514408 0.056933697 -0.30252093
vn 0.86869556 0.49005464 0.07221208
vn 0.8800554 0.20606664 -0.42783064
vn 0.8359215 0.38101104 -0.39505163
vn 0.7750336 0.5403768 -0.32759097
vn 0.46579662 0.879696 0.09575159
vn 0.41494063 0.8485147 -0.3284008
vn -0 0.99600655 0.08928061
vn -0 0.94343275 -0.3315637
vn 0.6364429 0.56748694 -0.5223973
vn 0.315657 0.76204103 -0.5653797
vn -0 0.8209324 -0.5710255
vn 0.2987488 0.79490864 -0.5280809
vn -0 0.8454199 -0.5341022
vn 0.6341565 0.5985173 -0.48951253
vn 0.91022193 0.19650058 -0.36453196
vn 0.89630353 0.20490347 -0.39326143
vn 0.94924283 0.014158751 -0.3142252
vn 0.95775276 -0.017272212 -0.28707373
vn 0.9628839 -0.011598187 -0.26966655
vn 0.95802164 -0.018231474 -0.28611583
vn 0.81756777 0.49782053 -0.2894095
vn -0 -0.0791313 -0.99686426
vn -2.2104156E-07 -0.83436185 -0.55121714
vn -0.54686254 -0.1267378 -0.827574
vn -0.7406275 -0.59688884 -0.3085362
vn -0.6981653 -0.1864611 -0.691229
vn -0.8371006 0.047936823 -0.5449446
vn -0.988648 -0.12001801 -0.09039204
vn -0.9514408 0.056933682 -0.30252093
vn -0.86869556 0.49005464 0.07221208
vn -0.83592236 0.381009 -0.39505184
vn -0.7750336 0.5403767 -0.327591
vn -0.46579662 0.879696 0.09575159
vn -0.8800554 0.20606664 -0.42783064
vn -0.41494066 0.8485147 -0.3284008
vn -0 0.99600655 0.08928061
vn -0 0.94343275 -0.3315637
vn -0.6364429 0.56748694 -0.5223972
vn -0.31565705 0.762041 -0.5653797
vn -0 0.8209324 -0.5710255
vn -0.2987488 0.79490864 -0.5280809
vn -0 0.8454199 -0.5341022
vn -0.6341565 0.5985173 -0.48951256
vn -0.89630353 0.20490347 -0.39326143
vn -0.91022193 0.19650058 -0.36453196
vn -0.94924283 0.014157826 -0.31422535
vn -0.95775276 -0.017272212 -0.28707373
vn -0.9730988 -0.047726948 -0.22539021
vn -0.95802164 -0.018233424 -0.28611544
vn -0.8839466 0.33015722 -0.33111128
g NPC_Male_Size02_Body_019_LOD2_0
f 3/3/3 2/2/2 1/1/1
f 4/4/4 3/3/3 1/1/1
f 5/5/5 4/4/4 1/1/1
f 6/6/6 3/3/3 4/4/4
f 7/7/7 6/6/6 4/4/4
f 4/4/4 5/5/5 7/7/7
f 8/8/8 5/5/5 1/1/1
f 5/5/5 9/9/9 7/7/7
f 9/9/9 5/5/5 10/10/10
f 8/8/8 11/11/11 5/5/5
f 5/5/5 12/12/12 10/10/10
f 11/11/11 12/12/12 5/5/5
f 10/10/10 12/12/12 13/13/13
f 12/12/12 14/14/14 13/13/13
f 12/12/12 11/11/11 14/14/14
f 11/11/11 15/15/15 14/14/14
f 18/18/18 17/17/17 16/16/16
f 19/19/19 18/18/18 16/16/16
f 18/18/18 19/19/19 20/20/20
f 16/16/16 21/21/21 19/19/19
f 19/19/19 22/22/22 20/20/20
f 21/21/21 23/23/23 19/19/19
f 19/19/19 23/23/23 22/22/22
f 23/23/23 24/24/24 22/22/22
f 23/23/23 21/21/21 25/25/25
f 23/23/23 26/26/26 24/24/24
f 26/26/26 23/23/23 25/25/25
f 26/26/26 27/27/27 24/24/24
f 27/27/27 26/26/26 28/28/28
f 29/29/29 26/26/26 25/25/25
f 26/26/26 29/29/29 28/28/28
f 30/30/30 29/29/29 25/25/25
f 28/28/28 29/29/29 31/31/31
f 29/29/29 30/30/30 32/32/32
f 29/29/29 32/32/32 31/31/31
f 31/31/31 32/32/32 33/33/33
f 30/30/30 34/34/34 32/32/32
f 32/32/32 35/35/35 33/33/33
f 35/35/35 32/32/32 34/34/34
f 36/36/36 35/35/35 34/34/34
f 39/39/39 38/38/38 37/37/37
f 37/37/37 40/40/40 39/39/39
f 40/40/40 41/41/41 39/39/39
f 41/41/41 40/40/40 42/42/42
f 40/40/40 43/43/43 42/42/42
f 43/43/43 44/44/44 42/42/42
f 44/44/44 43/43/43 45/45/45
f 44/44/44 46/46/46 42/42/42
f 46/46/46 47/47/47 42/42/42
f 48/48/48 44/44/44 45/45/45
f 44/44/44 48/48/48 46/46/46
f 45/45/45 49/49/49 48/48/48
f 49/49/49 50/50/50 48/48/48
f 49/49/49 51/51/51 50/50/50
f 51/51/51 52/52/52 50/50/50
f 53/53/53 48/48/48 50/50/50
f 46/46/46 48/48/48 53/53/53
f 50/50/50 52/52/52 54/54/54
f 54/54/54 53/53/53 50/50/50
f 52/52/52 55/55/55 54/54/54
f 54/54/54 55/55/55 56/56/56
f 55/55/55 57/57/57 56/56/56
f 56/56/56 58/58/58 54/54/54
f 58/58/58 53/53/53 54/54/54
f 53/53/53 58/58/58 59/59/59
f 60/60/60 46/46/46 53/53/53
f 60/60/60 53/53/53 59/59/59
f 61/61/61 46/46/46 60/60/60
f 61/61/61 60/60/60 59/59/59
f 62/62/62 61/61/61 59/59/59
f 62/62/62 63/63/63 61/61/61
f 47/47/47 46/46/46 61/61/61
f 64/64/64 61/61/61 63/63/63
f 64/64/64 47/47/47 61/61/61
f 65/65/65 47/47/47 64/64/64
f 68/68/68 67/67/67 66/66/66
f 69/69/69 67/67/67 68/68/68
f 70/70/70 69/69/69 68/68/68
f 69/69/69 70/70/70 71/71/71
f 72/72/72 69/69/69 71/71/71
f 73/73/73 72/72/72 71/71/71
f 72/72/72 73/73/73 74/74/74
f 73/73/73 71/71/71 75/75/75
f 73/73/73 76/76/76 74/74/74
f 77/77/77 74/74/74 76/76/76
f 78/78/78 73/73/73 75/75/75
f 76/76/76 73/73/73 78/78/78
f 79/79/79 77/77/77 76/76/76
f 80/80/80 77/77/77 79/79/79
f 81/81/81 80/80/80 79/79/79
f 76/76/76 82/82/82 79/79/79
f 82/82/82 76/76/76 78/78/78
f 81/81/81 79/79/79 83/83/83
f 82/82/82 83/83/83 79/79/79
f 84/84/84 81/81/81 83/83/83
f 84/84/84 83/83/83 85/85/85
f 86/86/86 84/84/84 85/85/85
f 87/87/87 85/85/85 83/83/83
f 82/82/82 87/87/87 83/83/83
f 82/82/82 88/88/88 87/87/87
f 88/88/88 82/82/82 78/78/78
f 88/88/88 89/89/89 87/87/87
f 78/78/78 90/90/90 88/88/88
f 88/88/88 90/90/90 89/89/89
f 90/90/90 91/91/91 89/89/89
f 92/92/92 91/91/91 90/90/90
f 78/78/78 75/75/75 90/90/90
f 90/90/90 93/93/93 92/92/92
f 93/93/93 90/90/90 75/75/75
f 94/94/94 93/93/93 75/75/75
