g NPC_Male_Size02_Body_017_LOD3
v -0 0.09187164 1.6403081
v -0 0.056962278 1.5876793
v 0.04396597 0.07931488 1.6419396
v 0.03413046 0.042476654 1.588077
v 3.4994446E-08 0.058511656 1.5617415
v 0.035993233 0.043644257 1.5596651
v 0.07262851 0.042490385 1.6465052
v 0.049037352 0.013827362 1.5804454
v 0.040599473 0.010062256 1.5530163
v 0.06472723 0.016441803 1.6220648
v 0.07261085 0.022013701 1.6491113
v 0.07108025 0.0048709107 1.6452469
v 0.06489182 0.003847656 1.6215954
v 0.05430213 0.004195404 1.5922781
v 0.05563628 0.0020057678 1.5922807
v 0.04692431 0.0016749572 1.5768234
v 0.03402812 -0.0130409235 1.5644836
v 0.018161679 -0.026787413 1.5528399
v 2.2578096E-08 -0.027778931 1.54153
v 4.819594E-10 -0.033549346 1.5447935
v -0.018161679 -0.026787413 1.5528399
v -0.040599473 0.010062256 1.5530163
v -0.03402811 -0.0130409235 1.5644838
v -0.04692431 0.0016749572 1.5768234
v -0.049037352 0.013827362 1.5804454
v -0.0359932 0.043644257 1.5596648
v -0.05430213 0.004195404 1.5922781
v -0.03413046 0.042476654 1.588077
v 3.4994446E-08 0.058511656 1.5617415
v -0 0.056962278 1.5876793
v -0.04396597 0.07931488 1.6419396
v -0 0.09187164 1.6403081
v -0.07262851 0.042490385 1.6465052
v -0.06472723 0.016441803 1.6220648
v -0.07261085 0.022013701 1.6491113
v -0.07108025 0.0048709107 1.6452469
v -0.06489184 0.003847656 1.6215956
v -0.05563628 0.0020057678 1.5922807
vt 0.7682231 0.09673127
vt 0.77100426 0.10840364
vt 0.7769249 0.095967464
vt 0.77826446 0.10881654
vt 0.77026343 0.11310022
vt 0.77731335 0.114294
vt 0.7855083 0.09726414
vt 0.78416747 0.11177604
vt 0.7838333 0.11783206
vt 0.7876699 0.10385007
vt 0.7891814 0.098546825
vt 0.7917547 0.10070471
vt 0.7898061 0.10498033
vt 0.7869981 0.11026745
vt 0.7874749 0.11040294
vt 0.7861915 0.11331724
vt 0.78874093 0.1170128
vt 0.7914028 0.12079546
vt 0.7922237 0.1248349
vt 0.79338765 0.12431154
vt 0.79470074 0.12812972
vt 0.79189426 0.1357587
vt 0.79576397 0.13263124
vt 0.7968366 0.13699073
vt 0.79664624 0.13952774
vt 0.7902141 0.14298397
vt 0.7996533 0.13841134
vt 0.7949428 0.14590746
vt 0.7864286 0.14905
vt 0.7904335 0.15161252
vt 0.8036657 0.15543664
vt 0.79731953 0.16143918
vt 0.8083919 0.14815515
vt 0.8048997 0.14216751
vt 0.80987 0.14455628
vt 0.80996346 0.14119917
vt 0.8054719 0.1398195
vt 0.79986835 0.13796479
vn -0 0.8333386 -0.5527629
vn -0 0.8947909 -0.44648552
vn 0.50654906 0.6779729 -0.53269184
vn 0.61683995 0.6762782 -0.4026862
vn -9.004213E-07 0.9979809 0.063516
vn 0.72531813 0.6880203 -0.023274237
vn 0.7819981 0.42347527 -0.45732656
vn 0.86629754 0.3424359 -0.36368403
vn 0.90174985 -0.087819815 -0.42324328
vn 0.94237345 0.033444006 -0.33288702
vn 0.9612941 -0.03143077 -0.27372575
vn 0.96241957 -0.014846577 -0.27116054
vn 0.95243937 0.02657124 -0.30356726
vn 0.92870665 0.08956383 -0.35983652
vn 0.81757545 0.4978078 -0.28940913
vn 0.9070886 -0.23205933 -0.35119623
vn 0.77790004 -0.44264567 -0.4460229
vn 0.558801 -0.33942124 -0.75666016
vn 4.2863041E-07 -0.39375907 -0.91921365
vn -1.405882E-06 -0.4922868 -0.87043303
vn -0.5588002 -0.3394216 -0.7566606
vn -0.9017496 -0.08782054 -0.42324358
vn -0.7778989 -0.4426494 -0.44602123
vn -0.90708816 -0.23206103 -0.3511961
vn -0.86629736 0.3424365 -0.36368406
vn -0.72531676 0.6880218 -0.023275008
vn -0.92870635 0.089563854 -0.35983697
vn -0.6168398 0.6762785 -0.402686
vn -9.004213E-07 0.9979809 0.063516
vn -0 0.8947909 -0.44648552
vn -0.50654906 0.6779729 -0.53269184
vn -0 0.8333386 -0.5527629
vn -0.7819981 0.4234753 -0.45732647
vn -0.9423736 0.033443946 -0.33288693
vn -0.9612943 -0.03143093 -0.273725
vn -0.9624199 -0.014846987 -0.2711596
vn -0.9524397 0.026569862 -0.3035666
vn -0.8175758 0.49780735 -0.28940934
g NPC_Male_Size02_Body_017_LOD3_0
f 3/3/3 2/2/2 1/1/1
f 3/3/3 4/4/4 2/2/2
f 5/5/5 2/2/2 4/4/4
f 5/5/5 4/4/4 6/6/6
f 4/4/4 3/3/3 7/7/7
f 6/6/6 4/4/4 8/8/8
f 4/4/4 7/7/7 8/8/8
f 6/6/6 8/8/8 9/9/9
f 8/8/8 7/7/7 10/10/10
f 7/7/7 11/11/11 10/10/10
f 11/11/11 12/12/12 10/10/10
f 13/13/13 10/10/10 12/12/12
f 13/13/13 14/14/14 10/10/10
f 14/14/14 8/8/8 10/10/10
f 15/15/15 14/14/14 13/13/13
f 14/14/14 16/16/16 8/8/8
f 9/9/9 8/8/8 16/16/16
f 9/9/9 16/16/16 17/17/17
f 9/9/9 17/17/17 18/18/18
f 9/9/9 18/18/18 19/19/19
f 18/18/18 20/20/20 19/19/19
f 21/21/21 19/19/19 20/20/20
f 22/22/22 19/19/19 21/21/21
f 22/22/22 21/21/21 23/23/23
f 24/24/24 22/22/22 23/23/23
f 24/24/24 25/25/25 22/22/22
f 25/25/25 26/26/26 22/22/22
f 24/24/24 27/27/27 25/25/25
f 25/25/25 28/28/28 26/26/26
f 28/28/28 29/29/29 26/26/26
f 28/28/28 30/30/30 29/29/29
f 31/31/31 30/30/30 28/28/28
f 31/31/31 32/32/32 30/30/30
f 33/33/33 31/31/31 28/28/28
f 33/33/33 28/28/28 25/25/25
f 34/34/34 33/33/33 25/25/25
f 25/25/25 27/27/27 34/34/34
f 34/34/34 35/35/35 33/33/33
f 36/36/36 35/35/35 34/34/34
f 34/34/34 37/37/37 36/36/36
f 37/37/37 34/34/34 27/27/27
f 38/38/38 37/37/37 27/27/27
