g NPC_Male_Size02_Body_006_LOD1
v 0.06059141 0.0031109857 1.6074462
v 0.05430213 0.0041954005 1.5922781
v 0.05563628 0.002005837 1.5922807
v 0.06992759 0.009438086 1.6384928
v 0.06802087 0.022117095 1.630696
v 0.06527937 0.010498145 1.6233997
v -0.06059141 0.0031109857 1.6074462
v -0.05563628 0.002005837 1.5922807
v -0.05430213 0.0041954005 1.5922781
v -0.06992759 0.009438086 1.6384928
v -0.06527937 0.010498145 1.6233997
v -0.06802087 0.022117095 1.630696
v 0.043752935 0.03495954 1.5696541
v 0.026705451 0.050643638 1.5668089
v 0.044839483 0.0356886 1.5625384
v 0.02558938 0.049612463 1.573588
v -0 0.058065534 1.5688493
v -0 0.057105396 1.5753236
v -0.02558938 0.049612463 1.573588
v -0.026705451 0.050643638 1.5668089
v -0.043752935 0.03495954 1.5696541
v -0.044839483 0.0356886 1.5625386
v 0.047427643 0.016830644 1.5644659
v 0.043752935 0.03495954 1.5696541
v 0.044839483 0.0356886 1.5625384
v 0.047603525 0.01763835 1.557297
v 0.034037616 -0.0031245798 1.5550115
v 0.034291547 -0.0026300745 1.5479145
v 0.021424381 -0.013366218 1.5470632
v 0.021461258 -0.012510049 1.5401907
v 5.6743343E-12 -0.022869434 1.5397339
v 4.20053E-12 -0.021424517 1.5325257
v -0.021461258 -0.012510049 1.5401907
v -0.021424381 -0.013366218 1.5470632
v -0.03429155 -0.0026300745 1.5479147
v -0.034037616 -0.0031245798 1.5550115
v -0.047603525 0.01763835 1.557297
v -0.047427643 0.016830644 1.5644659
v -0.044839483 0.0356886 1.5625386
v -0.043752935 0.03495954 1.5696541
v 0.009736606 -0.031949878 1.5477005
v 5.6743343E-12 -0.022869434 1.5397339
v -0 -0.03354932 1.5447935
v 0.018161679 -0.026787376 1.5528399
v 0.021424381 -0.013366218 1.5470632
v 0.027998801 -0.020343138 1.5587068
v 0.034028087 -0.013040855 1.5644836
v 0.034037616 -0.0031245798 1.5550115
v 0.040903322 -0.005078274 1.5708883
v 0.04692431 0.0016749359 1.5768234
v 0.047427643 0.016830644 1.5644659
v 0.049037352 0.013827422 1.5804454
v 0.043752935 0.03495954 1.5696541
v 0.0493044 0.0026473298 1.5809697
v 0.04406343 0.035078604 1.587837
v 0.02558938 0.049612463 1.573588
v 0.052397404 0.01665735 1.5906531
v 0.024197493 0.049874824 1.5883168
v -0 0.057105396 1.5753236
v -0 0.056962296 1.5876793
v 0.026770588 0.06795374 1.6114465
v -0 0.07311027 1.6099381
v 0.050400324 0.05674489 1.6154433
v 0.03006838 0.086480714 1.6412077
v -0 0.09187157 1.6403081
v 0.057863552 0.0721489 1.6426715
v 0.052363496 0.02917785 1.5967494
v 0.059557293 0.047654364 1.6192236
v 0.06775244 0.058952607 1.6441134
v 0.057015378 0.025912318 1.6027573
v 0.06507267 0.03682231 1.6240777
v 0.07262851 0.042490326 1.6465052
v 0.06802087 0.022117095 1.630696
v 0.07261085 0.022013748 1.6491113
v 0.06992759 0.009438086 1.6384928
v 0.06112186 0.02259375 1.613084
v 0.060361512 0.0114843 1.6086895
v 0.054507617 0.012502018 1.596051
v 0.05430213 0.0041954005 1.5922781
v 0.06059141 0.0031109857 1.6074462
v 0.060361512 0.0114843 1.6086895
v 0.05430213 0.0041954005 1.5922781
v 0.070275635 0.0049592266 1.6407733
v 0.07188488 0.0047826082 1.6497204
v 0.06992759 0.009438086 1.6384928
v 0.06828985 0.004088257 1.6329457
v 0.06527937 0.010498145 1.6233997
v 0.06828985 0.004088257 1.6329457
v 0.06992759 0.009438086 1.6384928
v 0.065496825 0.0038507443 1.6234384
v 0.060361512 0.0114843 1.6086895
v 0.06059141 0.0031109857 1.6074462
v 0.06527937 0.010498145 1.6233997
v 0.06802087 0.022117095 1.630696
v 0.06112186 0.02259375 1.613084
v 0.060361512 0.0114843 1.6086895
v 0.06527937 0.010498145 1.6233997
v 5.6743343E-12 -0.022869434 1.5397339
v -0.009736606 -0.031949878 1.5477005
v -0 -0.03354932 1.5447935
v -0.018161679 -0.026787376 1.5528399
v -0.021424381 -0.013366218 1.5470632
v -0.027998801 -0.020343138 1.5587068
v -0.034028087 -0.013040855 1.5644836
v -0.034037616 -0.0031245798 1.5550115
v -0.040903322 -0.005078274 1.5708883
v -0.04692431 0.0016749359 1.5768234
v -0.047427643 0.016830644 1.5644659
v -0.049037352 0.013827422 1.5804454
v -0.043752935 0.03495954 1.5696541
v -0.0493044 0.0026473298 1.5809697
v -0.04406343 0.035078604 1.587837
v -0.02558938 0.049612463 1.573588
v -0.052397404 0.01665735 1.5906531
v -0.024197493 0.049874824 1.5883168
v -0 0.057105396 1.5753236
v -0 0.056962296 1.5876793
v -0.026770588 0.06795374 1.6114465
v -0 0.07311027 1.6099381
v -0.050400324 0.05674489 1.6154433
v -0.03006838 0.086480714 1.6412077
v -0 0.09187157 1.6403081
v -0.057863552 0.0721489 1.6426715
v -0.052363496 0.02917785 1.5967494
v -0.059557293 0.047654364 1.6192236
v -0.06775244 0.058952607 1.6441134
v -0.057015378 0.025912318 1.6027573
v -0.06507267 0.03682231 1.6240777
v -0.07262851 0.042490326 1.6465052
v -0.06802087 0.022117095 1.630696
v -0.07261085 0.022013748 1.6491113
v -0.06112186 0.02259375 1.613084
v -0.06992759 0.009438086 1.6384928
v -0.060361512 0.0114843 1.6086895
v -0.070275635 0.0049592266 1.6407733
v -0.06828985 0.004088257 1.6329457
v -0.07188488 0.0047826082 1.6497204
v -0.054507617 0.012502018 1.596051
v -0.05430213 0.0041954005 1.5922781
v -0.06059141 0.0031109857 1.6074462
v -0.05430213 0.0041954005 1.5922781
v -0.065496825 0.0038507443 1.6234384
v -0.06059141 0.0031109857 1.6074462
v -0.06527937 0.010498145 1.6233997
v -0.06828985 0.004088257 1.6329457
v -0.06992759 0.009438086 1.6384928
v -0.06802087 0.022117095 1.630696
v -0.06527937 0.010498145 1.6233997
v -0.060361512 0.0114843 1.6086895
v -0.06112186 0.02259375 1.613084
vt 0.44506836 0.63853705
vt 0.45024943 0.6283655
vt 0.44855067 0.6277498
vt 0.43875542 0.6611558
vt 0.44957772 0.65997756
vt 0.4447461 0.6512893
vt 0.44506836 0.63853705
vt 0.44855067 0.6277498
vt 0.45024943 0.6283655
vt 0.43875542 0.6611558
vt 0.4447461 0.6512893
vt 0.44957772 0.65997756
vt 0.6070209 0.9864436
vt 0.6223401 0.9807048
vt 0.60533243 0.98208743
vt 0.62349796 0.9855591
vt 0.641853 0.9796463
vt 0.641853 0.9840878
vt 0.660208 0.9855591
vt 0.66136587 0.9807048
vt 0.67668504 0.9864436
vt 0.6783735 0.9820875
vt 0.2554316 0.9817815
vt 0.26653245 0.9898544
vt 0.26812795 0.985324
vt 0.25754067 0.97706866
vt 0.2426095 0.9698544
vt 0.24424925 0.965012
vt 0.23487061 0.9615853
vt 0.23567897 0.9567682
vt 0.22236818 0.95521164
vt 0.2223682 0.95028865
vt 0.20904112 0.95703286
vt 0.20999953 0.9611895
vt 0.20049807 0.9650391
vt 0.2021249 0.9698669
vt 0.18719572 0.97706866
vt 0.18930477 0.9817815
vt 0.17660841 0.9853241
vt 0.17820391 0.9898544
vt 0.4131559 0.57936597
vt 0.419931 0.5759077
vt 0.40907604 0.5712043
vt 0.41916755 0.58709
vt 0.43094984 0.58795977
vt 0.42585278 0.59649587
vt 0.43296686 0.6031627
vt 0.441394 0.6004047
vt 0.44022238 0.6111438
vt 0.44825092 0.61675507
vt 0.46006075 0.61430776
vt 0.45837396 0.62142223
vt 0.47703776 0.6210027
vt 0.4506179 0.62034494
vt 0.4760737 0.6318933
vt 0.49822456 0.62625754
vt 0.45975557 0.6299161
vt 0.49847543 0.6334873
vt 0.5217291 0.62818056
vt 0.5217052 0.63367885
vt 0.5019821 0.656226
vt 0.52391124 0.6555629
vt 0.48164874 0.6574441
vt 0.5016585 0.68242186
vt 0.52443975 0.684992
vt 0.48091653 0.67881846
vt 0.46744174 0.63772005
vt 0.4719522 0.6593821
vt 0.4698081 0.6785872
vt 0.4624519 0.64158785
vt 0.46179023 0.65980685
vt 0.45720747 0.6763735
vt 0.44957772 0.65997756
vt 0.4429726 0.67250717
vt 0.43875542 0.6611558
vt 0.45651674 0.64788437
vt 0.45042753 0.6416689
vt 0.45530966 0.6329608
vt 0.45024943 0.6283655
vt 0.44506836 0.63853705
vt 0.45042753 0.6416689
vt 0.45024943 0.6283655
vt 0.43506244 0.6612072
vt 0.43188757 0.66745526
vt 0.43875542 0.6611558
vt 0.43716177 0.6555152
vt 0.4447461 0.6512893
vt 0.43716177 0.6555152
vt 0.43875542 0.6611558
vt 0.44040626 0.64916486
vt 0.45042753 0.6416689
vt 0.44506836 0.63853705
vt 0.4447461 0.6512893
vt 0.44957772 0.65997756
vt 0.45651674 0.64788437
vt 0.45042753 0.6416689
vt 0.4447461 0.6512893
vt 0.419931 0.5759077
vt 0.4131559 0.57936597
vt 0.40907604 0.5712043
vt 0.41916755 0.58709
vt 0.43085435 0.5880493
vt 0.42585278 0.59649587
vt 0.43296686 0.6031627
vt 0.44137993 0.60030353
vt 0.44022238 0.6111438
vt 0.44825092 0.61675507
vt 0.46006075 0.61430776
vt 0.45837396 0.62142223
vt 0.47703776 0.6210027
vt 0.4506179 0.62034494
vt 0.4760737 0.6318933
vt 0.49822456 0.62625754
vt 0.45975557 0.6299161
vt 0.49847543 0.6334873
vt 0.5217291 0.62818056
vt 0.5217052 0.63367885
vt 0.5019821 0.656226
vt 0.52391124 0.6555629
vt 0.48164874 0.6574441
vt 0.5016585 0.68242186
vt 0.52443975 0.684992
vt 0.48091653 0.67881846
vt 0.46744174 0.63772005
vt 0.4719522 0.6593821
vt 0.4698081 0.6785872
vt 0.4624519 0.64158785
vt 0.46179023 0.65980685
vt 0.45720747 0.6763735
vt 0.44957772 0.65997756
vt 0.4429726 0.67250717
vt 0.45651674 0.64788437
vt 0.43875542 0.6611558
vt 0.45042753 0.6416689
vt 0.43506244 0.6612072
vt 0.43716177 0.6555152
vt 0.43188757 0.66745526
vt 0.45530966 0.6329608
vt 0.45024943 0.6283655
vt 0.44506836 0.63853705
vt 0.45024943 0.6283655
vt 0.44040626 0.64916486
vt 0.44506836 0.63853705
vt 0.4447461 0.6512893
vt 0.43716177 0.6555152
vt 0.43875542 0.6611558
vt 0.44957772 0.65997756
vt 0.4447461 0.6512893
vt 0.45042753 0.6416689
vt 0.45651674 0.64788437
vn 0.8142039 0.49575552 -0.30215636
vn 0.81420386 0.49575552 -0.30215636
vn -0.42151675 -0.884273 0.2009597
vn 0.95420957 -0.0388925 -0.2965997
vn 0.95420957 -0.038892496 -0.2965997
vn 0.95420957 -0.0388925 -0.2965997
vn -0.8142039 0.49575552 -0.30215636
vn -0.96285206 -0.0358017 -0.2676453
vn -0.81420386 0.49575552 -0.30215636
vn -0.95420957 -0.0388925 -0.2965997
vn -0.95420957 -0.0388925 -0.2965997
vn -0.95420957 -0.038892496 -0.2965997
vn 0.858821 0.50701874 0.073202066
vn 0.49736488 0.84719765 0.18677354
vn 0.8916346 0.4264999 0.15193918
vn 0.46627787 0.8794566 0.0956091
vn -0 0.9849749 0.17269695
vn -0 0.995959 0.08980996
vn -0.46627778 0.8794566 0.095609546
vn -0.4973642 0.8471977 0.1867747
vn -0.8588209 0.5070187 0.07320296
vn -0.8916345 0.42649952 0.15194078
vn 0.9617064 -0.050501157 -0.26938924
vn 0.858821 0.50701874 0.073202066
vn 0.8916346 0.4264999 0.15193918
vn 0.96418434 -0.2632142 0.032664016
vn 0.27111697 -0.77381337 -0.5724583
vn 0.7274324 -0.68458587 -0.046736337
vn -0.44316554 -0.7938862 -0.41635206
vn 0.5198302 -0.8469016 -0.1119562
vn -0.800794 -0.48926124 -0.3454742
vn -0 -0.9871078 -0.16005632
vn -0.5198301 -0.8469017 -0.111956544
vn -0.7473661 -0.59240395 -0.30083475
vn -0.7274328 -0.68458533 -0.04673666
vn -0.93922085 -0.27828574 -0.20105003
vn -0.9641841 -0.26321495 0.03266431
vn -0.9916345 0.036514305 -0.123804666
vn -0.8916345 0.42649952 0.15194078
vn -0.8588209 0.5070187 0.07320296
vn -0.96285206 -0.0358017 -0.2676453
vn -0.800794 -0.48926124 -0.3454742
vn -0.96285206 -0.0358017 -0.2676453
vn -0.96285206 -0.0358017 -0.2676453
vn -0.44316554 -0.7938862 -0.41635206
vn -0.96285206 -0.0358017 -0.2676453
vn -0.96285206 -0.0358017 -0.2676453
vn 0.27111697 -0.77381337 -0.5724583
vn -0.96285206 -0.0358017 -0.2676453
vn -0.96285206 -0.0358017 -0.2676453
vn 0.9617064 -0.050501157 -0.26938924
vn 0.71229726 0.16442181 -0.68234754
vn 0.858821 0.50701874 0.073202066
vn -0.96285206 -0.0358017 -0.2676453
vn 0.77184045 0.540759 -0.33442783
vn 0.46627787 0.8794566 0.0956091
vn 0.73899174 0.28372893 -0.6110557
vn 0.41494063 0.8485147 -0.3284008
vn -0 0.995959 0.08980996
vn -0 0.94343275 -0.3315637
vn 0.315657 0.76204103 -0.5653797
vn -0 0.8209324 -0.5710255
vn 0.588357 0.59915 -0.54300594
vn 0.2987488 0.79490864 -0.5280809
vn -0 0.8454199 -0.5341022
vn 0.57543904 0.64043343 -0.50864017
vn 0.8085881 0.31711212 -0.49560592
vn 0.803414 0.36483523 -0.47055408
vn 0.8108875 0.38746578 -0.43855628
vn 0.8883611 0.15248117 -0.43308672
vn 0.91454506 0.13840017 -0.38006943
vn 0.93213457 0.12738447 -0.33896676
vn 0.9551285 0.007779579 -0.29608947
vn 0.3222189 0.05876561 -0.9448395
vn -0.006663182 -0.043394063 -0.99903584
vn 0.93273365 0.039824296 -0.3583602
vn 0.21401319 0.09435755 -0.97226286
vn -0.14617777 0.17717083 -0.97326386
vn -0.96285206 -0.0358017 -0.2676453
vn -0.96285206 -0.0358017 -0.2676453
vn 0.21401319 0.09435755 -0.97226286
vn -0.96285206 -0.0358017 -0.2676453
vn -0.96285206 -0.0358017 -0.2676453
vn -0.96285206 -0.0358017 -0.2676453
vn -0.006663182 -0.043394063 -0.99903584
vn -0.96285206 -0.0358017 -0.2676453
vn -0.2254279 -0.0025112387 -0.9742565
vn 0.95716923 0.019328116 -0.2888833
vn 0.95716923 0.019328114 -0.28888324
vn -0.96285206 -0.0358017 -0.2676453
vn 0.21401319 0.09435755 -0.97226286
vn -0.96285206 -0.0358017 -0.2676453
vn -0.2254279 -0.0025112387 -0.9742565
vn 0.939199 0.031183228 -0.34195447
vn 0.939199 0.031183224 -0.34195444
vn 0.939199 0.031183228 -0.34195447
vn 0.939199 0.031183224 -0.34195444
vn -0.800794 -0.48926124 -0.3454742
vn -0.96285206 -0.0358017 -0.2676453
vn -0.96285206 -0.0358017 -0.2676453
vn -0.96285206 -0.0358017 -0.2676453
vn -0.7473661 -0.59240395 -0.30083475
vn -0.96285206 -0.0358017 -0.2676453
vn -0.96285206 -0.0358017 -0.2676453
vn -0.93922085 -0.27828574 -0.20105003
vn -0.96285206 -0.0358017 -0.2676453
vn -0.96285206 -0.0358017 -0.2676453
vn -0.9916345 0.036514305 -0.123804666
vn -0.95072234 0.15770479 -0.26693884
vn -0.8588209 0.5070187 0.07320296
vn -0.96285206 -0.0358017 -0.2676453
vn -0.7718405 0.540759 -0.3344279
vn -0.46627778 0.8794566 0.095609546
vn -0.90530914 0.20461024 -0.37222308
vn -0.41494066 0.8485147 -0.3284008
vn -0 0.995959 0.08980996
vn -0 0.94343275 -0.3315637
vn -0.31565705 0.762041 -0.5653797
vn -0 0.8209324 -0.5710255
vn -0.588357 0.59914994 -0.5430059
vn -0.2987488 0.79490864 -0.5280809
vn -0 0.8454199 -0.5341022
vn -0.57543904 0.64043343 -0.50864017
vn -0.8085881 0.31711212 -0.49560592
vn -0.803414 0.3648352 -0.47055408
vn -0.81088763 0.38746575 -0.43855625
vn -0.8883611 0.15248117 -0.43308672
vn -0.91454506 0.1384002 -0.38006943
vn -0.93213457 0.12738447 -0.33896676
vn -0.9551285 0.007779579 -0.29608947
vn -0.95422435 0.029167943 -0.29766616
vn -0.93273365 0.039824296 -0.3583602
vn -0.9592722 -0.005599399 -0.28242797
vn -0.94852006 0.023054391 -0.31587666
vn -0.96285206 -0.0358017 -0.2676453
vn -0.96285206 -0.0358017 -0.2676453
vn -0.96285206 -0.0358017 -0.2676453
vn -0.942174 0.054217488 -0.33070925
vn -0.96285206 -0.0358017 -0.2676453
vn -0.96285206 -0.0358017 -0.2676453
vn -0.96285206 -0.0358017 -0.2676453
vn -0.96285206 -0.0358017 -0.2676453
vn -0.96285206 -0.0358017 -0.2676453
vn -0.95580125 -0.0060552536 -0.29395106
vn -0.95716923 0.01932812 -0.2888833
vn -0.95716923 0.01932812 -0.28888324
vn -0.939199 0.031183228 -0.3419545
vn -0.939199 0.031183224 -0.34195447
vn -0.939199 0.031183228 -0.34195447
vn -0.939199 0.031183224 -0.34195447
g NPC_Male_Size02_Body_006_LOD1_0
f 3/3/3 2/2/2 1/1/1
f 6/6/6 5/5/5 4/4/4
f 9/9/9 8/8/8 7/7/7
f 12/12/12 11/11/11 10/10/10
f 15/15/15 14/14/14 13/13/13
f 14/14/14 16/16/16 13/13/13
f 14/14/14 17/17/17 16/16/16
f 17/17/17 18/18/18 16/16/16
f 18/18/18 17/17/17 19/19/19
f 17/17/17 20/20/20 19/19/19
f 21/21/21 19/19/19 20/20/20
f 22/22/22 21/21/21 20/20/20
f 25/25/25 24/24/24 23/23/23
f 26/26/26 25/25/25 23/23/23
f 23/23/23 27/27/27 26/26/26
f 27/27/27 28/28/28 26/26/26
f 27/27/27 29/29/29 28/28/28
f 29/29/29 30/30/30 28/28/28
f 30/30/30 29/29/29 31/31/31
f 32/32/32 30/30/30 31/31/31
f 33/33/33 32/32/32 31/31/31
f 34/34/34 33/33/33 31/31/31
f 35/35/35 33/33/33 34/34/34
f 36/36/36 35/35/35 34/34/34
f 37/37/37 35/35/35 36/36/36
f 38/38/38 37/37/37 36/36/36
f 39/39/39 37/37/37 38/38/38
f 40/40/40 39/39/39 38/38/38
f 43/43/43 42/42/42 41/41/41
f 44/44/44 41/41/41 42/42/42
f 44/44/44 42/42/42 45/45/45
f 46/46/46 44/44/44 45/45/45
f 46/46/46 45/45/45 47/47/47
f 45/45/45 48/48/48 47/47/47
f 47/47/47 48/48/48 49/49/49
f 49/49/49 48/48/48 50/50/50
f 50/50/50 48/48/48 51/51/51
f 52/52/52 50/50/50 51/51/51
f 52/52/52 51/51/51 53/53/53
f 52/52/52 54/54/54 50/50/50
f 55/55/55 52/52/52 53/53/53
f 53/53/53 56/56/56 55/55/55
f 54/54/54 52/52/52 57/57/57
f 57/57/57 52/52/52 55/55/55
f 56/56/56 58/58/58 55/55/55
f 56/56/56 59/59/59 58/58/58
f 59/59/59 60/60/60 58/58/58
f 58/58/58 60/60/60 61/61/61
f 60/60/60 62/62/62 61/61/61
f 63/63/63 55/55/55 58/58/58
f 61/61/61 63/63/63 58/58/58
f 61/61/61 62/62/62 64/64/64
f 62/62/62 65/65/65 64/64/64
f 64/64/64 66/66/66 61/61/61
f 66/66/66 63/63/63 61/61/61
f 67/67/67 55/55/55 63/63/63
f 67/67/67 57/57/57 55/55/55
f 68/68/68 63/63/63 66/66/66
f 68/68/68 67/67/67 63/63/63
f 69/69/69 68/68/68 66/66/66
f 57/57/57 67/67/67 70/70/70
f 70/70/70 67/67/67 68/68/68
f 68/68/68 69/69/69 71/71/71
f 71/71/71 70/70/70 68/68/68
f 69/69/69 72/72/72 71/71/71
f 73/73/73 71/71/71 72/72/72
f 74/74/74 73/73/73 72/72/72
f 73/73/73 74/74/74 75/75/75
f 73/73/73 76/76/76 71/71/71
f 76/76/76 70/70/70 71/71/71
f 77/77/77 70/70/70 76/76/76
f 78/78/78 70/70/70 77/77/77
f 78/78/78 57/57/57 70/70/70
f 54/54/54 57/57/57 78/78/78
f 79/79/79 54/54/54 78/78/78
f 78/78/78 81/81/81 80/80/80
f 82/82/82 78/78/78 80/80/80
f 84/84/84 83/83/83 74/74/74
f 74/74/74 83/83/83 85/85/85
f 86/86/86 85/85/85 83/83/83
f 89/89/89 88/88/88 87/87/87
f 88/88/88 90/90/90 87/87/87
f 90/90/90 92/92/92 91/91/91
f 93/93/93 90/90/90 91/91/91
f 96/96/96 95/95/95 94/94/94
f 97/97/97 96/96/96 94/94/94
f 100/100/100 99/99/99 98/98/98
f 101/101/101 98/98/98 99/99/99
f 102/102/102 98/98/98 101/101/101
f 103/103/103 102/102/102 101/101/101
f 103/103/103 104/104/104 102/102/102
f 104/104/104 105/105/105 102/102/102
f 104/104/104 106/106/106 105/105/105
f 105/105/105 106/106/106 107/107/107
f 108/108/108 105/105/105 107/107/107
f 109/109/109 108/108/108 107/107/107
f 108/108/108 109/109/109 110/110/110
f 111/111/111 109/109/109 107/107/107
f 109/109/109 112/112/112 110/110/110
f 113/113/113 110/110/110 112/112/112
f 109/109/109 111/111/111 114/114/114
f 112/112/112 109/109/109 114/114/114
f 115/115/115 113/113/113 112/112/112
f 116/116/116 113/113/113 115/115/115
f 117/117/117 116/116/116 115/115/115
f 117/117/117 115/115/115 118/118/118
f 119/119/119 117/117/117 118/118/118
f 112/112/112 120/120/120 115/115/115
f 120/120/120 118/118/118 115/115/115
f 119/119/119 118/118/118 121/121/121
f 122/122/122 119/119/119 121/121/121
f 123/123/123 121/121/121 118/118/118
f 120/120/120 123/123/123 118/118/118
f 112/112/112 124/124/124 120/120/120
f 124/124/124 112/112/112 114/114/114
f 120/120/120 125/125/125 123/123/123
f 124/124/124 125/125/125 120/120/120
f 125/125/125 126/126/126 123/123/123
f 124/124/124 114/114/114 127/127/127
f 124/124/124 127/127/127 125/125/125
f 126/126/126 125/125/125 128/128/128
f 127/127/127 128/128/128 125/125/125
f 129/129/129 126/126/126 128/128/128
f 128/128/128 130/130/130 129/129/129
f 130/130/130 131/131/131 129/129/129
f 132/132/132 130/130/130 128/128/128
f 127/127/127 132/132/132 128/128/128
f 131/131/131 130/130/130 133/133/133
f 127/127/127 134/134/134 132/132/132
f 135/135/135 131/131/131 133/133/133
f 133/133/133 136/136/136 135/135/135
f 135/135/135 137/137/137 131/131/131
f 114/114/114 138/138/138 127/127/127
f 127/127/127 138/138/138 134/134/134
f 114/114/114 111/111/111 138/138/138
f 111/111/111 139/139/139 138/138/138
f 134/134/134 138/138/138 140/140/140
f 138/138/138 141/141/141 140/140/140
f 143/143/143 142/142/142 134/134/134
f 142/142/142 144/144/144 134/134/134
f 142/142/142 145/145/145 144/144/144
f 145/145/145 146/146/146 144/144/144
f 149/149/149 148/148/148 147/147/147
f 150/150/150 149/149/149 147/147/147
