g NPC_Male_Size02_Body_012_LOD2
v 0.03725152 -0.0017115 1.5384158
v 0.034028087 -0.013040855 1.5644836
v 0.04692431 0.0016749359 1.5768234
v 0.05543037 0.04273049 1.5281057
v 0.048383053 0.023859486 1.5561852
v 0.03718255 0.04298102 1.5615469
v 0.056474533 0.027778873 1.5243521
v 0.09071579 0.034792446 1.5030531
v 0.0766436 0.0026542705 1.4819103
v 0.03725152 -0.0017115 1.5384158
v 0.04692431 0.0016749359 1.5768234
v 0.04165472 -0.0018922875 1.4990493
v 0.073686935 -0.0055611655 1.4740378
v 0.021177473 -0.012862513 1.5288376
v 0.018161679 -0.026787376 1.5528399
v 0.034028087 -0.013040855 1.5644836
v 0.023546051 -0.017763516 1.4757669
v 0.017634016 -0.011039927 1.4981503
v 0.039883453 -0.057766236 1.4176708
v 0.057397384 -0.056796532 1.4018637
v -0 -0.077433325 1.3660324
v -0 -0.052172787 1.4088255
v -0.039883453 -0.057766236 1.4176708
v -0.057397306 -0.056796517 1.4018638
v -0.073686935 -0.0055611655 1.4740378
v -0.023546051 -0.017763516 1.4757669
v -0 -0.015345363 1.4724951
v -0 -0.015132253 1.4988093
v 1.13316734E-11 -0.023042742 1.5233526
v -0 -0.03354932 1.5447935
v 0.018161679 -0.026787376 1.5528399
v -0.04165472 -0.0018922875 1.4990493
v -0.0766436 0.0026542705 1.4819103
v -0.017634016 -0.011039927 1.4981503
v -0.021177473 -0.012862513 1.5288376
v -0 -0.03354932 1.5447935
v -0.018161679 -0.026787376 1.5528399
v -0.056474533 0.027778873 1.5243521
v -0.09071579 0.034792446 1.5030531
v -0.05543037 0.04273049 1.5281057
v -0.048383053 0.023859486 1.5561852
v -0.03718255 0.04298102 1.5615469
v -0.03725152 -0.0017115 1.5384158
v -0.034028087 -0.013040855 1.5644836
v -0.018161679 -0.026787376 1.5528399
v 0.09071579 0.034792446 1.5030531
v 0.05543037 0.04273049 1.5281057
v 0.05172129 0.061816134 1.5209359
v -0 0.062469777 1.5440081
v 0.03718255 0.04298102 1.5615469
v -0 0.070384555 1.5266562
v -0 0.05811985 1.5660543
v -0.03718255 0.04298102 1.5615469
v -0.05172129 0.061816134 1.5209359
v -0.05543037 0.04273049 1.5281057
v -0.09071579 0.034792446 1.5030531
v -0.03725152 -0.0017115 1.5384158
v -0.04692431 0.0016749359 1.5768234
v -0.034028087 -0.013040855 1.5644836
v -0.048383053 0.023859486 1.5561852
v -0.0503573 0.02034049 1.5830733
v -0.03718255 0.04298102 1.5615469
v -0.05430213 0.0041954005 1.5922781
v -0.027667446 0.05024144 1.5922909
v -0 0.05811985 1.5660543
v -0 0.05866323 1.5905752
v -0 0.07534437 1.6127459
v -0.05559502 0.03155555 1.6034918
v -0.045878023 0.058814928 1.6183131
v -0 0.09780206 1.6651603
v -0.053462073 0.07700259 1.6646876
v -0.07261968 0.032252036 1.6478082
v -0.07540761 0.03322396 1.6639903
v -0.064891815 0.0038477252 1.6215954
v -0.05563628 0.002005837 1.5922807
v -0.07108025 0.004870917 1.6452469
v -0.07349297 0.004478473 1.6634004
v 0.07108025 0.004870917 1.6452469
v 0.07349297 0.004478473 1.6634004
v 0.07540761 0.03322396 1.6639903
v 0.07261968 0.032252036 1.6478082
v 0.053462073 0.07700259 1.6646876
v 0.064891815 0.0038477238 1.6215956
v 0.045878023 0.058814928 1.6183131
v -0 0.09780206 1.6651603
v -0 0.07534437 1.6127459
v 0.05559502 0.03155555 1.6034918
v 0.027667446 0.05024144 1.5922909
v -0 0.05866323 1.5905752
v -0 0.05811985 1.5660543
v 0.03718255 0.04298102 1.5615469
v 0.0503573 0.02034049 1.5830733
v 0.048383053 0.023859486 1.5561852
v 0.04692431 0.0016749359 1.5768234
v 0.05430213 0.0041954005 1.5922781
v 0.05563628 0.002005837 1.5922807
v 0.2899016 0.044985075 1.2114515
v 0.2714821 0.04378872 1.2357275
v 0.28095886 0.01417989 1.2457812
v 0.3009518 0.018095838 1.2243903
v 0.3223529 0.015700562 1.1926503
v 0.31304267 0.047837477 1.1787542
v 0.31733465 0.0048105004 1.2553803
v 0.30303442 0.0093593355 1.2699032
v 0.4430864 0.013313156 1.0764048
v 0.4384809 0.030935688 1.0712361
v 0.45008162 0.029906664 1.0604247
v 0.4518389 0.011327122 1.0644336
v 0.345284 -0.0033294281 1.2278267
v 0.32832077 0.027316932 1.2735494
v 0.3151459 0.030405277 1.284415
v 0.29903147 0.070734315 1.2745796
v 0.45972538 0.0021218318 1.0890455
v 0.46958968 0.0006904912 1.0774689
v 0.3167212 0.0718981 1.2550135
v 0.27470607 0.07178991 1.2506566
v 0.36163712 0.024534233 1.2456119
v 0.4761356 0.026610808 1.1004266
v 0.4867987 0.026903143 1.087572
v 0.4717525 0.057387255 1.0738845
v 0.34785748 0.072753325 1.2231091
v 0.46044338 0.057009894 1.0862234
v 0.32929495 0.07472234 1.1962684
v 0.45236278 0.053392176 1.0801154
v 0.46310037 0.05324207 1.0676681
v 0.45008162 0.029906664 1.0604247
v 0.4384809 0.030935688 1.0712361
v 0.31304267 0.047837477 1.1787542
v 0.2951746 0.07138052 1.2306737
v 0.2899016 0.044985075 1.2114515
v 0.2714821 0.04378872 1.2357275
v -0.2899016 0.044985075 1.2114515
v -0.28095886 0.01417989 1.2457812
v -0.2714821 0.04378872 1.2357275
v -0.3009518 0.018095838 1.2243903
v -0.3223529 0.015700562 1.1926503
v -0.31304267 0.047837477 1.1787542
v -0.31733465 0.0048105004 1.2553803
v -0.30303442 0.0093593355 1.2699032
v -0.4430864 0.013313156 1.0764048
v -0.4384809 0.030935688 1.0712361
v -0.45008162 0.029906664 1.0604247
v -0.4518389 0.011327122 1.0644336
v -0.345284 -0.0033294281 1.2278267
v -0.32832077 0.027316932 1.2735494
v -0.3151459 0.030405277 1.284415
v -0.29903147 0.070734315 1.2745796
v -0.45972538 0.0021218318 1.0890455
v -0.46958968 0.0006904912 1.0774689
v -0.3167212 0.0718981 1.2550135
v -0.27470607 0.07178991 1.2506566
v -0.36163712 0.024534233 1.2456119
v -0.4761356 0.026610808 1.1004266
v -0.4867987 0.026903143 1.087572
v -0.4717525 0.057387255 1.0738845
v -0.34785748 0.072753325 1.2231091
v -0.46044338 0.057009894 1.0862234
v -0.32929495 0.07472234 1.1962684
v -0.45236278 0.053392176 1.0801154
v -0.46310037 0.05324207 1.0676681
v -0.45008162 0.029906664 1.0604247
v -0.4384809 0.030935688 1.0712361
v -0.31304267 0.047837477 1.1787542
v -0.2951746 0.07138052 1.2306737
v -0.2899016 0.044985075 1.2114515
v -0.2714821 0.04378872 1.2357275
vt 0.43938485 0.59360087
vt 0.43296686 0.6031627
vt 0.44825092 0.61675507
vt 0.2783875 0.96360064
vt 0.2618245 0.97767675
vt 0.26876757 0.98330766
vt 0.27319357 0.9577471
vt 0.29821348 0.9457045
vt 0.28243902 0.9211612
vt 0.24776185 0.9589935
vt 0.24565795 0.9834235
vt 0.25596523 0.9320481
vt 0.2794717 0.91279405
vt 0.23657031 0.94917274
vt 0.22766984 0.964455
vt 0.23603413 0.9751521
vt 0.2415051 0.9102985
vt 0.23695256 0.9276947
vt 0.2520522 0.86124015
vt 0.2845041 0.87104124
vt 0.22236818 0.824284
vt 0.22236818 0.8578335
vt 0.19268417 0.86124015
vt 0.16023228 0.87104124
vt 0.16526467 0.91279405
vt 0.20323126 0.9102985
vt 0.22236818 0.90840274
vt 0.22236818 0.9266429
vt 0.22236818 0.9433086
vt 0.22048025 0.9576761
vt 0.2288298 0.96547925
vt 0.18877113 0.9320481
vt 0.16229734 0.9211612
vt 0.2077838 0.9276947
vt 0.20816606 0.94917274
vt 0.22425611 0.9576761
vt 0.21590655 0.96547925
vt 0.1715428 0.9577471
vt 0.1465229 0.9457045
vt 0.16634886 0.96360064
vt 0.18291187 0.97767675
vt 0.1759688 0.98330766
vt 0.19697452 0.9589935
vt 0.2087022 0.9751521
vt 0.21706651 0.964455
vt 0.5677817 0.94762665
vt 0.5951734 0.96059877
vt 0.60224295 0.9449754
vt 0.641853 0.9621328
vt 0.6125244 0.9794938
vt 0.641853 0.94775367
vt 0.641853 0.97796506
vt 0.67118156 0.9794938
vt 0.681463 0.9449754
vt 0.68853253 0.96059877
vt 0.71592426 0.94762665
vt 0.43100736 0.5898009
vt 0.44825092 0.61675507
vt 0.43296686 0.6031627
vt 0.46488237 0.6163474
vt 0.46348086 0.62463653
vt 0.49474508 0.62527174
vt 0.45024943 0.6283655
vt 0.49611706 0.6368898
vt 0.5217291 0.62818056
vt 0.5219701 0.63592017
vt 0.52428937 0.6587571
vt 0.46651435 0.6437236
vt 0.48567986 0.6606104
vt 0.5209136 0.70849985
vt 0.4803546 0.69728494
vt 0.45009005 0.6744403
vt 0.44550464 0.68557686
vt 0.44118774 0.64735794
vt 0.44855067 0.6277498
vt 0.43347502 0.6643312
vt 0.4268222 0.676965
vt 0.43347502 0.6643312
vt 0.4268222 0.676965
vt 0.44550464 0.68557686
vt 0.45009005 0.6744403
vt 0.4803546 0.69728494
vt 0.44011712 0.6482141
vt 0.48567986 0.6606104
vt 0.5209136 0.70849985
vt 0.52428937 0.6587571
vt 0.46651435 0.6437236
vt 0.49611706 0.6368898
vt 0.5219701 0.63592017
vt 0.5217291 0.62818056
vt 0.49474508 0.62527174
vt 0.46348086 0.62463653
vt 0.46074274 0.6139326
vt 0.44825092 0.61675507
vt 0.45024943 0.6283655
vt 0.44855067 0.6277498
vt 0.7965229 0.615773
vt 0.79714954 0.63628185
vt 0.8213637 0.63837594
vt 0.81958586 0.6171394
vt 0.81663156 0.58941627
vt 0.7916455 0.5859858
vt 0.8487035 0.6255411
vt 0.8501421 0.64038455
vt 0.83502984 0.47201747
vt 0.8200181 0.47082165
vt 0.82161355 0.4599485
vt 0.83588314 0.46118835
vt 0.84905493 0.59774446
vt 0.87225145 0.6308206
vt 0.87275666 0.6432658
vt 0.9118899 0.6460518
vt 0.8546615 0.4721527
vt 0.85463357 0.46142825
vt 0.91168106 0.6277239
vt 0.9408585 0.6441531
vt 0.87356603 0.6007694
vt 0.8795865 0.472491
vt 0.88001245 0.4610438
vt 0.9077591 0.46044657
vt 0.9126083 0.5967263
vt 0.9087237 0.47227353
vt 0.93744034 0.590385
vt 0.9174244 0.4717494
vt 0.9167953 0.46012795
vt 0.9318943 0.4593688
vt 0.9334661 0.47009322
vt 0.96252215 0.5859858
vt 0.9409027 0.6241528
vt 0.96373475 0.615773
vt 0.96314263 0.63628185
vt 0.7965229 0.615773
vt 0.8213637 0.63837594
vt 0.79714954 0.63628185
vt 0.81958586 0.6171394
vt 0.81663156 0.58941627
vt 0.7916455 0.5859858
vt 0.8487035 0.6255411
vt 0.8501421 0.64038455
vt 0.83502984 0.47201747
vt 0.8200181 0.47082165
vt 0.82161355 0.4599485
vt 0.83588314 0.46118835
vt 0.84905493 0.59774446
vt 0.87225145 0.6308206
vt 0.87275666 0.6432658
vt 0.9118899 0.6460518
vt 0.8546615 0.4721527
vt 0.85463357 0.46142825
vt 0.91168106 0.6277239
vt 0.9408585 0.6441531
vt 0.87356603 0.6007694
vt 0.8795865 0.472491
vt 0.88001245 0.4610438
vt 0.9077591 0.46044657
vt 0.9126083 0.5967263
vt 0.9087237 0.47227353
vt 0.93744034 0.590385
vt 0.9174244 0.4717494
vt 0.9167953 0.46012795
vt 0.9318943 0.4593688
vt 0.9334661 0.47009322
vt 0.96252215 0.5859858
vt 0.9409027 0.6241528
vt 0.96373475 0.615773
vt 0.96314263 0.63628185
vn 0.7795595 -0.6219606 -0.073838286
vn 0.7567096 -0.6229945 -0.19816272
vn 0.9432555 -0.2365504 -0.23305139
vn 0.6606875 0.39767486 0.63666844
vn 0.99385697 0.029438803 0.1066854
vn 0.6621484 0.7340977 0.15053235
vn 0.77833533 -0.34574133 0.5240773
vn 0.5403859 -0.42172852 0.72809905
vn 0.3660805 -0.7541445 0.54520744
vn 0.7795595 -0.6219606 -0.073838286
vn 0.9432555 -0.2365504 -0.23305139
vn 0.47148994 -0.81531715 0.33608806
vn 0.26596555 -0.81897503 0.5084704
vn 0.50895834 -0.83779263 -0.19764844
vn 0.5948518 -0.7360315 -0.32312393
vn 0.7567096 -0.6229945 -0.19816272
vn 0.09093589 -0.89743984 0.43166223
vn 0.28999037 -0.9542122 0.07338031
vn 0.12408169 -0.8874915 0.4438046
vn 0.33746818 -0.8854256 0.31958824
vn 2.5580775E-07 -0.9141 0.40548867
vn -0 -0.8587735 0.5123554
vn -0.12408137 -0.8874915 0.44380465
vn -0.337468 -0.8854255 0.31958872
vn -0.26596546 -0.8189751 0.5084705
vn -0.09093587 -0.89743984 0.43166223
vn -0 -0.9405888 0.33954802
vn -0 -0.99959916 -0.028311994
vn -0 -0.94857776 -0.31654415
vn -0 -0.89525515 -0.44555378
vn 0.5948518 -0.7360315 -0.32312393
vn -0.47149 -0.81531715 0.33608806
vn -0.3660805 -0.7541445 0.54520744
vn -0.28999037 -0.9542122 0.07338031
vn -0.5089584 -0.83779263 -0.19764844
vn -0 -0.89525515 -0.44555378
vn -0.5948518 -0.7360314 -0.32312393
vn -0.77833533 -0.34574142 0.5240773
vn -0.5403859 -0.42172852 0.72809905
vn -0.6606875 0.39767492 0.63666844
vn -0.99377716 0.029989775 0.10727359
vn -0.6621484 0.7340977 0.15053235
vn -0.7833923 -0.6177792 -0.06815733
vn -0.7567096 -0.6229945 -0.19816272
vn -0.5948518 -0.7360314 -0.32312393
vn 0.5403859 -0.42172852 0.72809905
vn 0.6606875 0.39767486 0.63666844
vn 0.41967368 0.5719237 0.7048243
vn -0 0.8864121 0.462897
vn 0.6621484 0.7340977 0.15053235
vn -0 0.6966888 0.7173736
vn -0 0.99837387 0.057004742
vn -0.6621484 0.7340977 0.15053235
vn -0.41967362 0.57192373 0.70482427
vn -0.6606875 0.39767492 0.63666844
vn -0.5403859 -0.42172852 0.72809905
vn -0.7833923 -0.6177792 -0.06815733
vn -0.93769306 -0.24686334 -0.24452029
vn -0.7567096 -0.6229945 -0.19816272
vn -0.99377716 0.029989775 0.10727359
vn -0.94074035 0.23133962 -0.24797073
vn -0.6621484 0.7340977 0.15053235
vn -0.9207634 0.18437439 -0.34380358
vn -0.5055165 0.792768 -0.3405466
vn -0 0.99837387 0.057004742
vn -0 0.931634 -0.3633978
vn -0 0.87389135 -0.4861212
vn -0.82719576 0.36483154 -0.42736992
vn -0.59655136 0.67263037 -0.4378299
vn -0 0.9146311 -0.40428934
vn -0.59786177 0.718551 -0.35531062
vn -0.9421491 0.22312708 -0.25013915
vn -0.96317613 0.20889124 -0.16928181
vn -0.9428109 0.06758586 -0.32640436
vn -0.8175678 0.4978203 -0.28940946
vn -0.9780899 -0.04093174 -0.20411946
vn -0.98749393 -0.052423127 -0.14868592
vn 0.9780897 -0.040931627 -0.20412037
vn 0.98749393 -0.052423123 -0.14868592
vn 0.96317613 0.20889127 -0.16928181
vn 0.942149 0.2231269 -0.25013936
vn 0.59786177 0.718551 -0.35531062
vn 0.942811 0.06758459 -0.32640415
vn 0.59655136 0.67263037 -0.4378299
vn -0 0.9146311 -0.40428934
vn -0 0.87389135 -0.4861212
vn 0.8271961 0.3648312 -0.4273697
vn 0.5055165 0.792768 -0.34054655
vn -0 0.931634 -0.3633978
vn -0 0.99837387 0.057004742
vn 0.6621484 0.7340977 0.15053235
vn 0.94173616 0.24664135 -0.22869456
vn 0.99385697 0.029438803 0.1066854
vn 0.9432555 -0.2365504 -0.23305139
vn 0.92076373 0.18437438 -0.34380263
vn 0.8175681 0.49782062 -0.2894079
vn -0.78075874 0.034368686 -0.62388664
vn -0.74566996 0.021225955 -0.6659773
vn -0.44099727 -0.8028663 -0.4011571
vn -0.5414766 -0.7433345 -0.39275557
vn -0.55366194 -0.7043109 -0.44430244
vn -0.7234289 0.11933748 -0.6800068
vn 0.06979996 -0.96352595 0.25835213
vn 0.1352361 -0.9452728 0.2969353
vn -0.56196773 -0.6749377 -0.47817492
vn -0.6888201 0.12721695 -0.7136825
vn -0.72615963 0.16552445 -0.66730344
vn -0.6223361 -0.64723146 -0.440215
vn 0.10420276 -0.9755297 0.19360697
vn 0.62663656 -0.16153528 0.7623864
vn 0.6475238 -0.0663605 0.7591503
vn 0.38212547 0.84096104 0.38309872
vn 0.14883184 -0.975847 0.15991193
vn 0.14215949 -0.962502 0.23104231
vn 0.35852274 0.84903556 0.3880722
vn -0.35865033 0.8843548 -0.2988082
vn 0.71079034 -0.118925035 0.69327766
vn 0.7676868 -0.05955667 0.63805175
vn 0.74593085 0.004789276 0.66600615
vn 0.24074303 0.94480395 0.22223495
vn 0.38814586 0.85969067 0.33207637
vn 0.32804832 0.91674215 0.2279653
vn -0.2939917 0.89873785 -0.32532924
vn -0.33968085 0.8438555 -0.41536102
vn -0.43861866 0.7945643 -0.4198585
vn -0.72615963 0.16552445 -0.66730344
vn -0.6888201 0.12721695 -0.7136825
vn -0.7234289 0.11933748 -0.6800068
vn -0.38712564 0.8728711 -0.2970352
vn -0.78075874 0.034368686 -0.62388664
vn -0.74566996 0.021225955 -0.6659773
vn 0.7807587 0.034368683 -0.62388664
vn 0.44099727 -0.8028663 -0.4011571
vn 0.7456699 0.021225953 -0.66597736
vn 0.5414766 -0.7433345 -0.39275557
vn 0.55366206 -0.70431083 -0.4443025
vn 0.7234289 0.11933748 -0.6800068
vn -0.069799915 -0.96352595 0.25835213
vn -0.13523607 -0.9452728 0.2969353
vn 0.5619678 -0.67493767 -0.47817492
vn 0.6888202 0.12721695 -0.7136825
vn 0.72615963 0.16552444 -0.66730344
vn 0.62233603 -0.64723146 -0.44021496
vn -0.10420276 -0.9755297 0.193607
vn -0.62663656 -0.16153528 0.7623864
vn -0.6475238 -0.0663605 0.7591503
vn -0.38212547 0.84096104 0.38309872
vn -0.14883187 -0.9758469 0.15991187
vn -0.14215954 -0.96250206 0.23104227
vn -0.35852274 0.84903556 0.38807228
vn 0.35865033 0.8843548 -0.2988082
vn -0.71079034 -0.11892505 0.69327766
vn -0.7676867 -0.0595567 0.63805175
vn -0.7459309 0.004789276 0.66600615
vn -0.24074297 0.94480395 0.22223495
vn -0.38814586 0.85969067 0.33207637
vn -0.32804832 0.91674215 0.2279653
vn 0.2939917 0.89873785 -0.32532924
vn 0.3396808 0.8438555 -0.41536102
vn 0.43861866 0.79456437 -0.41985846
vn 0.72615963 0.16552444 -0.66730344
vn 0.6888202 0.12721695 -0.7136825
vn 0.7234289 0.11933748 -0.6800068
vn 0.38712564 0.8728711 -0.29703525
vn 0.7807587 0.034368683 -0.62388664
vn 0.7456699 0.021225953 -0.66597736
g NPC_Male_Size02_Body_012_LOD2_0
f 3/3/3 2/2/2 1/1/1
f 6/6/6 5/5/5 4/4/4
f 5/5/5 7/7/7 4/4/4
f 7/7/7 8/8/8 4/4/4
f 9/9/9 8/8/8 7/7/7
f 7/7/7 5/5/5 10/10/10
f 11/11/11 10/10/10 5/5/5
f 12/12/12 9/9/9 7/7/7
f 10/10/10 12/12/12 7/7/7
f 9/9/9 12/12/12 13/13/13
f 12/12/12 10/10/10 14/14/14
f 14/14/14 10/10/10 15/15/15
f 10/10/10 16/16/16 15/15/15
f 12/12/12 17/17/17 13/13/13
f 18/18/18 12/12/12 14/14/14
f 12/12/12 18/18/18 17/17/17
f 19/19/19 13/13/13 17/17/17
f 20/20/20 13/13/13 19/19/19
f 19/19/19 21/21/21 20/20/20
f 21/21/21 19/19/19 22/22/22
f 22/22/22 19/19/19 17/17/17
f 21/21/21 22/22/22 23/23/23
f 23/23/23 24/24/24 21/21/21
f 24/24/24 23/23/23 25/25/25
f 22/22/22 26/26/26 23/23/23
f 25/25/25 23/23/23 26/26/26
f 27/27/27 22/22/22 17/17/17
f 27/27/27 26/26/26 22/22/22
f 28/28/28 27/27/27 17/17/17
f 18/18/18 28/28/28 17/17/17
f 26/26/26 27/27/27 28/28/28
f 18/18/18 14/14/14 29/29/29
f 28/28/28 18/18/18 29/29/29
f 29/29/29 14/14/14 30/30/30
f 14/14/14 31/31/31 30/30/30
f 25/25/25 26/26/26 32/32/32
f 33/33/33 25/25/25 32/32/32
f 34/34/34 26/26/26 28/28/28
f 34/34/34 28/28/28 29/29/29
f 32/32/32 26/26/26 34/34/34
f 35/35/35 34/34/34 29/29/29
f 32/32/32 34/34/34 35/35/35
f 35/35/35 29/29/29 36/36/36
f 37/37/37 35/35/35 36/36/36
f 32/32/32 38/38/38 33/33/33
f 38/38/38 39/39/39 33/33/33
f 39/39/39 38/38/38 40/40/40
f 40/40/40 38/38/38 41/41/41
f 42/42/42 40/40/40 41/41/41
f 38/38/38 43/43/43 41/41/41
f 43/43/43 38/38/38 32/32/32
f 43/43/43 32/32/32 35/35/35
f 44/44/44 43/43/43 35/35/35
f 45/45/45 44/44/44 35/35/35
f 48/48/48 47/47/47 46/46/46
f 47/47/47 48/48/48 49/49/49
f 47/47/47 49/49/49 50/50/50
f 48/48/48 51/51/51 49/49/49
f 49/49/49 52/52/52 50/50/50
f 53/53/53 52/52/52 49/49/49
f 49/49/49 51/51/51 54/54/54
f 55/55/55 53/53/53 49/49/49
f 55/55/55 49/49/49 54/54/54
f 55/55/55 54/54/54 56/56/56
f 59/59/59 58/58/58 57/57/57
f 57/57/57 58/58/58 60/60/60
f 58/58/58 61/61/61 60/60/60
f 62/62/62 60/60/60 61/61/61
f 58/58/58 63/63/63 61/61/61
f 64/64/64 62/62/62 61/61/61
f 62/62/62 64/64/64 65/65/65
f 64/64/64 66/66/66 65/65/65
f 66/66/66 64/64/64 67/67/67
f 61/61/61 63/63/63 68/68/68
f 64/64/64 61/61/61 68/68/68
f 67/67/67 64/64/64 69/69/69
f 69/69/69 64/64/64 68/68/68
f 70/70/70 67/67/67 69/69/69
f 71/71/71 70/70/70 69/69/69
f 69/69/69 72/72/72 71/71/71
f 68/68/68 72/72/72 69/69/69
f 72/72/72 73/73/73 71/71/71
f 63/63/63 74/74/74 68/68/68
f 68/68/68 74/74/74 72/72/72
f 75/75/75 74/74/74 63/63/63
f 72/72/72 74/74/74 76/76/76
f 73/73/73 72/72/72 76/76/76
f 77/77/77 73/73/73 76/76/76
f 80/80/80 79/79/79 78/78/78
f 81/81/81 80/80/80 78/78/78
f 80/80/80 81/81/81 82/82/82
f 78/78/78 83/83/83 81/81/81
f 81/81/81 84/84/84 82/82/82
f 82/82/82 84/84/84 85/85/85
f 84/84/84 86/86/86 85/85/85
f 81/81/81 83/83/83 87/87/87
f 87/87/87 84/84/84 81/81/81
f 88/88/88 86/86/86 84/84/84
f 88/88/88 84/84/84 87/87/87
f 89/89/89 86/86/86 88/88/88
f 89/89/89 88/88/88 90/90/90
f 88/88/88 91/91/91 90/90/90
f 91/91/91 88/88/88 92/92/92
f 87/87/87 92/92/92 88/88/88
f 93/93/93 91/91/91 92/92/92
f 93/93/93 92/92/92 94/94/94
f 94/94/94 92/92/92 95/95/95
f 92/92/92 87/87/87 95/95/95
f 95/95/95 87/87/87 83/83/83
f 96/96/96 95/95/95 83/83/83
f 99/99/99 98/98/98 97/97/97
f 100/100/100 99/99/99 97/97/97
f 100/100/100 97/97/97 101/101/101
f 97/97/97 102/102/102 101/101/101
f 99/99/99 100/100/100 103/103/103
f 104/104/104 99/99/99 103/103/103
f 105/105/105 101/101/101 102/102/102
f 106/106/106 105/105/105 102/102/102
f 105/105/105 106/106/106 107/107/107
f 108/108/108 105/105/105 107/107/107
f 101/101/101 109/109/109 100/100/100
f 109/109/109 103/103/103 100/100/100
f 101/101/101 105/105/105 109/109/109
f 103/103/103 110/110/110 104/104/104
f 110/110/110 103/103/103 109/109/109
f 110/110/110 111/111/111 104/104/104
f 111/111/111 110/110/110 112/112/112
f 113/113/113 105/105/105 108/108/108
f 105/105/105 113/113/113 109/109/109
f 114/114/114 113/113/113 108/108/108
f 110/110/110 115/115/115 112/112/112
f 112/112/112 115/115/115 116/116/116
f 117/117/117 110/110/110 109/109/109
f 109/109/109 113/113/113 117/117/117
f 115/115/115 110/110/110 117/117/117
f 118/118/118 113/113/113 114/114/114
f 113/113/113 118/118/118 117/117/117
f 119/119/119 118/118/118 114/114/114
f 118/118/118 119/119/119 120/120/120
f 121/121/121 117/117/117 118/118/118
f 121/121/121 115/115/115 117/117/117
f 122/122/122 118/118/118 120/120/120
f 122/122/122 121/121/121 118/118/118
f 115/115/115 121/121/121 123/123/123
f 121/121/121 122/122/122 123/123/123
f 122/122/122 120/120/120 124/124/124
f 122/122/122 124/124/124 123/123/123
f 120/120/120 125/125/125 124/124/124
f 125/125/125 126/126/126 124/124/124
f 126/126/126 127/127/127 124/124/124
f 123/123/123 124/124/124 127/127/127
f 128/128/128 123/123/123 127/127/127
f 129/129/129 115/115/115 123/123/123
f 123/123/123 128/128/128 129/129/129
f 115/115/115 129/129/129 116/116/116
f 128/128/128 130/130/130 129/129/129
f 116/116/116 129/129/129 130/130/130
f 131/131/131 116/116/116 130/130/130
f 134/134/134 133/133/133 132/132/132
f 133/133/133 135/135/135 132/132/132
f 132/132/132 135/135/135 136/136/136
f 137/137/137 132/132/132 136/136/136
f 135/135/135 133/133/133 138/138/138
f 133/133/133 139/139/139 138/138/138
f 136/136/136 140/140/140 137/137/137
f 140/140/140 141/141/141 137/137/137
f 141/141/141 140/140/140 142/142/142
f 140/140/140 143/143/143 142/142/142
f 144/144/144 136/136/136 135/135/135
f 138/138/138 144/144/144 135/135/135
f 140/140/140 136/136/136 144/144/144
f 145/145/145 138/138/138 139/139/139
f 138/138/138 145/145/145 144/144/144
f 146/146/146 145/145/145 139/139/139
f 145/145/145 146/146/146 147/147/147
f 140/140/140 148/148/148 143/143/143
f 148/148/148 140/140/140 144/144/144
f 148/148/148 149/149/149 143/143/143
f 150/150/150 145/145/145 147/147/147
f 150/150/150 147/147/147 151/151/151
f 145/145/145 152/152/152 144/144/144
f 148/148/148 144/144/144 152/152/152
f 145/145/145 150/150/150 152/152/152
f 148/148/148 153/153/153 149/149/149
f 153/153/153 148/148/148 152/152/152
f 153/153/153 154/154/154 149/149/149
f 154/154/154 153/153/153 155/155/155
f 153/153/153 152/152/152 156/156/156
f 150/150/150 156/156/156 152/152/152
f 153/153/153 157/157/157 155/155/155
f 157/157/157 153/153/153 156/156/156
f 156/156/156 150/150/150 158/158/158
f 157/157/157 156/156/156 158/158/158
f 155/155/155 157/157/157 159/159/159
f 159/159/159 157/157/157 158/158/158
f 160/160/160 155/155/155 159/159/159
f 161/161/161 160/160/160 159/159/159
f 162/162/162 161/161/161 159/159/159
f 159/159/159 158/158/158 162/162/162
f 158/158/158 163/163/163 162/162/162
f 150/150/150 164/164/164 158/158/158
f 163/163/163 158/158/158 164/164/164
f 164/164/164 150/150/150 151/151/151
f 165/165/165 163/163/163 164/164/164
f 165/165/165 164/164/164 151/151/151
f 166/166/166 165/165/165 151/151/151
