g NPC_Female_Size02_Ear_001_LOD3
v 0.05960222 0.029661043 1.4770124
v 0.056023315 0.023615064 1.480024
v 0.061304502 0.025350653 1.4936813
v 0.069867685 0.04074843 1.4850087
v 0.08386115 0.048396993 1.5059819
v 0.08270824 0.04156791 1.5213377
v 0.07052087 0.03063945 1.5197688
v 0.06644328 0.025462067 1.5107735
v -0.05960222 0.029661043 1.4770124
v -0.061304502 0.025350653 1.4936813
v -0.056023315 0.023615064 1.480024
v -0.069867685 0.04074843 1.4850087
v -0.08386115 0.048396993 1.5059819
v -0.08270824 0.04156791 1.5213377
v -0.07052087 0.03063945 1.5197688
v -0.06644328 0.025462067 1.5107735
vt 0.9242645 0.8923981
vt 0.90676224 0.8925667
vt 0.902063 0.9160664
vt 0.9428619 0.9141854
vt 0.9481678 0.96203405
vt 0.92686987 0.98471266
vt 0.9059875 0.97424096
vt 0.897652 0.93928826
vt 0.9242645 0.8923981
vt 0.902063 0.9160664
vt 0.90676224 0.8925667
vt 0.9428619 0.9141854
vt 0.9481678 0.96203405
vt 0.92686987 0.98471266
vt 0.9059875 0.97424096
vt 0.897652 0.93928826
vn 0.7874057 -0.57253504 -0.22846405
vn 0.783205 -0.57788974 -0.22941974
vn 0.9406727 -0.03853113 -0.33712044
vn 0.7697641 -0.5792059 -0.26829782
vn 0.75467014 -0.610894 -0.23933513
vn 0.7244999 -0.6682772 -0.16883558
vn 0.71847814 -0.68601865 -0.11475029
vn 0.94938743 -0.16728906 -0.26585284
vn -0.7874057 -0.57253504 -0.22846405
vn -0.9406727 -0.038531136 -0.33712056
vn -0.783205 -0.57788974 -0.22941974
vn -0.7697641 -0.5792059 -0.26829782
vn -0.75467014 -0.610894 -0.23933513
vn -0.7244999 -0.6682772 -0.16883558
vn -0.71847814 -0.68601865 -0.11475029
vn -0.94938743 -0.16728906 -0.26585302
g NPC_Female_Size02_Ear_001_LOD3_0
f 3/3/3 2/2/2 1/1/1
f 3/3/3 1/1/1 4/4/4
f 5/5/5 3/3/3 4/4/4
f 6/6/6 3/3/3 5/5/5
f 3/3/3 6/6/6 7/7/7
f 3/3/3 7/7/7 8/8/8
f 11/11/11 10/10/10 9/9/9
f 9/9/9 10/10/10 12/12/12
f 10/10/10 13/13/13 12/12/12
f 10/10/10 14/14/14 13/13/13
f 14/14/14 10/10/10 15/15/15
f 15/15/15 10/10/10 16/16/16
