g NPC_Female_Size02_Ear_001_LOD1
v 0.05896525 0.028675904 1.4768039
v 0.056551132 0.030565003 1.4806114
v 0.05663855 0.023615064 1.480024
v 0.0614431 0.0329433 1.4774182
v 0.05844592 0.039232995 1.4851853
v 0.0650709 0.038120028 1.4818127
v 0.07060539 0.045015935 1.4889174
v 0.06533214 0.04711274 1.498721
v 0.07569149 0.049604926 1.497185
v 0.07845181 0.05127809 1.5041618
v 0.069506876 0.04826491 1.5107712
v 0.07962084 0.050977595 1.5099005
v 0.07993216 0.049015712 1.5151275
v 0.07144997 0.04443169 1.5168129
v 0.07840876 0.044415258 1.518826
v 0.075876 0.039055824 1.5206895
v 0.07163286 0.038646296 1.5187767
v 0.07312608 0.034242526 1.5198135
v 0.070938684 0.033638366 1.5178331
v 0.06930741 0.030241957 1.5158287
v -0.05896525 0.028675904 1.4768039
v -0.05663855 0.023615064 1.480024
v -0.056551132 0.030565003 1.4806114
v -0.0614431 0.0329433 1.4774182
v -0.05844592 0.039232995 1.4851853
v -0.0650709 0.038120028 1.4818127
v -0.07060539 0.045015935 1.4889174
v -0.06533214 0.04711274 1.498721
v -0.07569149 0.049604926 1.497185
v -0.07845181 0.05127809 1.5041618
v -0.069506876 0.04826491 1.5107712
v -0.07962084 0.050977595 1.5099005
v -0.07993216 0.049015712 1.5151275
v -0.07144997 0.04443169 1.5168129
v -0.07840876 0.044415258 1.518826
v -0.075876 0.039055824 1.5206895
v -0.07163286 0.038646296 1.5187767
v -0.07312608 0.034242526 1.5198135
v -0.070938684 0.033638366 1.5178331
v -0.06930741 0.030241957 1.5158287
v 0.0614431 0.0329433 1.4774182
v 0.06884024 0.036524065 1.4816203
v 0.0650709 0.038120028 1.4818127
v 0.07060539 0.045015935 1.4889174
v 0.06429026 0.030465301 1.4770143
v 0.05896525 0.028675904 1.4768039
v 0.061133258 0.02655966 1.4768138
v 0.05663855 0.023615064 1.480024
v 0.06130449 0.025350656 1.4936813
v 0.06874449 0.033368815 1.4960668
v 0.06505683 0.025698218 1.5056643
v 0.07495422 0.043333683 1.4876841
v 0.071138404 0.029361302 1.5151886
v 0.08006403 0.048088927 1.4954318
v 0.07569149 0.049604926 1.497185
v 0.06930741 0.030241957 1.5158287
v 0.07845181 0.05127809 1.5041618
v 0.07506325 0.03355605 1.5189831
v 0.07312608 0.034242526 1.5198135
v 0.075876 0.039055824 1.5206895
v 0.08327419 0.049932808 1.5030862
v 0.07962084 0.050977595 1.5099005
v 0.07895739 0.038420413 1.5196095
v 0.07840876 0.044415258 1.518826
v 0.08216753 0.042914614 1.5177299
v 0.07993216 0.049015712 1.5151275
v 0.08433612 0.04709074 1.5140697
v 0.084531896 0.04942188 1.5090152
v -0.0614431 0.0329433 1.4774182
v -0.0650709 0.038120028 1.4818127
v -0.06884024 0.036524065 1.4816203
v -0.07060539 0.045015935 1.4889174
v -0.06429026 0.030465301 1.4770143
v -0.05896525 0.028675904 1.4768039
v -0.061133258 0.02655966 1.4768138
v -0.05663855 0.023615064 1.480024
v -0.06130449 0.025350656 1.4936813
v -0.06874449 0.033368815 1.4960668
v -0.06505683 0.025698218 1.5056643
v -0.07495422 0.043333683 1.4876841
v -0.071138404 0.029361302 1.5151886
v -0.08006403 0.048088927 1.4954318
v -0.07569149 0.049604926 1.497185
v -0.06930741 0.030241957 1.5158287
v -0.07845181 0.05127809 1.5041618
v -0.07506325 0.03355605 1.5189831
v -0.07312608 0.034242526 1.5198135
v -0.075876 0.039055824 1.5206895
v -0.08327419 0.049932808 1.5030862
v -0.07962084 0.050977595 1.5099005
v -0.07895739 0.038420413 1.5196095
v -0.07840876 0.044415258 1.518826
v -0.08216753 0.042914614 1.5177299
v -0.07993216 0.049015712 1.5151275
v -0.08433612 0.04709074 1.5140697
v -0.084531896 0.04942188 1.5090152
vt 0.9716736 0.8761718
vt 0.9644231 0.88327956
vt 0.9589575 0.8721296
vt 0.97838145 0.8838096
vt 0.9655814 0.90122277
vt 0.9817635 0.8979372
vt 0.9858826 0.91711336
vt 0.97103924 0.9328185
vt 0.9882033 0.9364695
vt 0.98788923 0.9501023
vt 0.9710577 0.95845425
vt 0.98635125 0.9599027
vt 0.9822232 0.9703916
vt 0.96906334 0.9753457
vt 0.97640735 0.9797798
vt 0.9682768 0.9875061
vt 0.9631085 0.9843584
vt 0.95994 0.99227685
vt 0.95599717 0.9902721
vt 0.95036316 0.9964031
vt 0.9716736 0.8761718
vt 0.9589575 0.8721296
vt 0.9644231 0.88327956
vt 0.97838145 0.8838096
vt 0.9655814 0.90122277
vt 0.9817635 0.8979372
vt 0.9858826 0.91711336
vt 0.97103924 0.9328185
vt 0.9882033 0.9364695
vt 0.98788923 0.9501023
vt 0.9710577 0.95845425
vt 0.98635125 0.9599027
vt 0.9822232 0.9703916
vt 0.96906334 0.9753457
vt 0.97640735 0.9797798
vt 0.9682768 0.9875061
vt 0.9631085 0.9843584
vt 0.95994 0.99227685
vt 0.95599717 0.9902721
vt 0.95036316 0.9964031
vt 0.9309055 0.89063823
vt 0.9346313 0.90983826
vt 0.9425789 0.9019289
vt 0.95328015 0.92035925
vt 0.9272392 0.8988782
vt 0.9197667 0.88621604
vt 0.91914654 0.89386004
vt 0.90676224 0.8925667
vt 0.90240675 0.9163493
vt 0.91842294 0.9286307
vt 0.897652 0.93928826
vt 0.9409573 0.92461526
vt 0.9050071 0.9615898
vt 0.9444365 0.9406987
vt 0.9576876 0.94153583
vt 0.9040374 0.96310043
vt 0.9563056 0.9574878
vt 0.910613 0.9716717
vt 0.9087282 0.97374153
vt 0.9177523 0.9797057
vt 0.9442508 0.9547695
vt 0.9515632 0.9685887
vt 0.9201536 0.976539
vt 0.9300863 0.9813744
vt 0.9298035 0.97638905
vt 0.9423711 0.9780716
vt 0.9378982 0.9721211
vt 0.94256824 0.96503127
vt 0.9309055 0.89063823
vt 0.9425789 0.9019289
vt 0.9346313 0.90983826
vt 0.95328015 0.92035925
vt 0.9272392 0.8988782
vt 0.9197667 0.88621604
vt 0.91914654 0.89386004
vt 0.90676224 0.8925667
vt 0.90240675 0.9163493
vt 0.91842294 0.9286307
vt 0.897652 0.93928826
vt 0.9409573 0.92461526
vt 0.9050071 0.9615898
vt 0.9444365 0.9406987
vt 0.9576876 0.94153583
vt 0.9040374 0.96310043
vt 0.9563056 0.9574878
vt 0.910613 0.9716717
vt 0.9087282 0.97374153
vt 0.9177523 0.9797057
vt 0.9442508 0.9547695
vt 0.9515632 0.9685887
vt 0.9201536 0.976539
vt 0.9300863 0.9813744
vt 0.9298035 0.97638905
vt 0.9423711 0.9780716
vt 0.9378982 0.9721211
vt 0.94256824 0.96503127
vn -0.47320148 0.07299315 -0.87792504
vn -0.71749294 0.3292068 -0.6138622
vn 0.9184989 0.023492254 -0.3947252
vn -0.19837649 0.468642 -0.86082596
vn -0.32086733 0.74426335 -0.5857612
vn -0.009263104 0.67206717 -0.7404322
vn -0.07823876 0.8287855 -0.55406964
vn -0.2911537 0.930345 -0.22290727
vn -0.04283781 0.94141996 -0.3345048
vn -0.0007937534 0.99683714 -0.07946682
vn -0.29110557 0.9205852 0.2603467
vn 0.06890474 0.9746402 0.21290539
vn 0.11873928 0.7899724 0.60153514
vn -0.29684252 0.59465307 0.7471762
vn 0.07713099 0.44472268 0.892341
vn -0.0367255 0.062394746 0.9973756
vn -0.4345644 0.18931608 0.8805187
vn -0.2071777 -0.3126529 0.9269982
vn -0.60790354 -0.084044285 0.78955036
vn -0.17518161 -0.74168545 0.64746743
vn 0.47320148 0.07299315 -0.87792504
vn -0.91849875 0.023492245 -0.3947253
vn 0.71749294 0.3292068 -0.6138622
vn 0.1983765 0.468642 -0.86082596
vn 0.32086733 0.74426335 -0.5857612
vn 0.009263104 0.67206717 -0.7404322
vn 0.07823876 0.8287855 -0.55406964
vn 0.2911537 0.930345 -0.22290727
vn 0.04283781 0.94141996 -0.3345048
vn 0.0007937534 0.99683714 -0.07946682
vn 0.29110557 0.9205852 0.2603467
vn -0.06890472 0.9746402 0.21290539
vn -0.118739255 0.7899724 0.60153514
vn 0.29684252 0.59465307 0.7471762
vn -0.07713099 0.44472268 0.892341
vn 0.03672551 0.06239476 0.9973756
vn 0.43456447 0.18931608 0.8805187
vn 0.2071777 -0.3126529 0.9269982
vn 0.60790354 -0.084044285 0.78955036
vn 0.17518158 -0.74168545 0.64746743
vn -0.19837649 0.468642 -0.86082596
vn 0.72540903 0.02463583 -0.68787706
vn -0.009263104 0.67206717 -0.7404322
vn -0.07823876 0.8287855 -0.55406964
vn 0.61383665 -0.17702226 -0.76932937
vn -0.47320148 0.07299315 -0.87792504
vn 0.3218658 -0.58809793 -0.7419859
vn 0.9184989 0.023492254 -0.3947252
vn 0.9439997 -0.08158282 -0.31970122
vn 0.77135575 -0.61509454 -0.16330612
vn 0.9486648 -0.15836395 -0.2737808
vn 0.7294316 0.14880292 -0.66767305
vn 0.39513043 -0.87271655 0.28677148
vn 0.7956568 0.28868833 -0.532531
vn -0.04283781 0.94141996 -0.3345048
vn -0.17518161 -0.74168545 0.64746743
vn -0.0007937534 0.99683714 -0.07946682
vn 0.5561846 -0.68319637 0.47318235
vn -0.2071777 -0.3126529 0.9269982
vn -0.0367255 0.062394746 0.9973756
vn 0.8785339 0.3687525 -0.30364418
vn 0.06890474 0.9746402 0.21290539
vn 0.720226 -0.40140116 0.56581944
vn 0.07713099 0.44472268 0.892341
vn 0.84467834 -0.16114844 0.5104406
vn 0.11873928 0.7899724 0.60153514
vn 0.93934447 0.15214011 0.3073846
vn 0.9387969 0.34358177 -0.024740828
vn 0.1983765 0.468642 -0.86082596
vn 0.009263104 0.67206717 -0.7404322
vn -0.72540903 0.02463583 -0.68787706
vn 0.07823876 0.8287855 -0.55406964
vn -0.61383665 -0.17702223 -0.76932937
vn 0.47320148 0.07299315 -0.87792504
vn -0.3218658 -0.58809793 -0.7419859
vn -0.91849875 0.023492245 -0.3947253
vn -0.9439996 -0.08158283 -0.31970128
vn -0.77135575 -0.61509454 -0.16330612
vn -0.9486648 -0.15836395 -0.27378085
vn -0.7294316 0.14880292 -0.66767305
vn -0.39513043 -0.87271655 0.28677148
vn -0.7956568 0.28868833 -0.532531
vn 0.04283781 0.94141996 -0.3345048
vn 0.17518158 -0.74168545 0.64746743
vn 0.0007937534 0.99683714 -0.07946682
vn -0.5561846 -0.68319637 0.47318235
vn 0.2071777 -0.3126529 0.9269982
vn 0.03672551 0.06239476 0.9973756
vn -0.8785339 0.3687525 -0.30364418
vn -0.06890472 0.9746402 0.21290539
vn -0.72022605 -0.4014012 0.56581944
vn -0.07713099 0.44472268 0.892341
vn -0.84467834 -0.16114844 0.5104406
vn -0.118739255 0.7899724 0.60153514
vn -0.93934447 0.15214011 0.3073846
vn -0.93879676 0.34358174 -0.024740843
g NPC_Female_Size02_Ear_001_LOD1_0
f 3/3/3 2/2/2 1/1/1
f 4/4/4 1/1/1 2/2/2
f 5/5/5 4/4/4 2/2/2
f 5/5/5 6/6/6 4/4/4
f 6/6/6 5/5/5 7/7/7
f 7/7/7 5/5/5 8/8/8
f 7/7/7 8/8/8 9/9/9
f 10/10/10 9/9/9 8/8/8
f 10/10/10 8/8/8 11/11/11
f 12/12/12 10/10/10 11/11/11
f 13/13/13 12/12/12 11/11/11
f 13/13/13 11/11/11 14/14/14
f 15/15/15 13/13/13 14/14/14
f 16/16/16 15/15/15 14/14/14
f 17/17/17 16/16/16 14/14/14
f 18/18/18 16/16/16 17/17/17
f 19/19/19 18/18/18 17/17/17
f 19/19/19 20/20/20 18/18/18
f 23/23/23 22/22/22 21/21/21
f 21/21/21 24/24/24 23/23/23
f 24/24/24 25/25/25 23/23/23
f 26/26/26 25/25/25 24/24/24
f 25/25/25 26/26/26 27/27/27
f 25/25/25 27/27/27 28/28/28
f 28/28/28 27/27/27 29/29/29
f 29/29/29 30/30/30 28/28/28
f 28/28/28 30/30/30 31/31/31
f 30/30/30 32/32/32 31/31/31
f 32/32/32 33/33/33 31/31/31
f 31/31/31 33/33/33 34/34/34
f 33/33/33 35/35/35 34/34/34
f 35/35/35 36/36/36 34/34/34
f 36/36/36 37/37/37 34/34/34
f 36/36/36 38/38/38 37/37/37
f 38/38/38 39/39/39 37/37/37
f 40/40/40 39/39/39 38/38/38
f 43/43/43 42/42/42 41/41/41
f 43/43/43 44/44/44 42/42/42
f 42/42/42 45/45/45 41/41/41
f 46/46/46 41/41/41 45/45/45
f 47/47/47 46/46/46 45/45/45
f 48/48/48 46/46/46 47/47/47
f 49/49/49 48/48/48 47/47/47
f 47/47/47 45/45/45 50/50/50
f 50/50/50 49/49/49 47/47/47
f 50/50/50 45/45/45 42/42/42
f 51/51/51 49/49/49 50/50/50
f 52/52/52 50/50/50 42/42/42
f 44/44/44 52/52/52 42/42/42
f 50/50/50 53/53/53 51/51/51
f 54/54/54 50/50/50 52/52/52
f 54/54/54 52/52/52 44/44/44
f 55/55/55 54/54/54 44/44/44
f 56/56/56 51/51/51 53/53/53
f 54/54/54 55/55/55 57/57/57
f 56/56/56 53/53/53 58/58/58
f 50/50/50 58/58/58 53/53/53
f 59/59/59 56/56/56 58/58/58
f 60/60/60 59/59/59 58/58/58
f 61/61/61 54/54/54 57/57/57
f 61/61/61 50/50/50 54/54/54
f 57/57/57 62/62/62 61/61/61
f 63/63/63 60/60/60 58/58/58
f 58/58/58 50/50/50 63/63/63
f 60/60/60 63/63/63 64/64/64
f 63/63/63 65/65/65 64/64/64
f 50/50/50 65/65/65 63/63/63
f 64/64/64 65/65/65 66/66/66
f 65/65/65 67/67/67 66/66/66
f 62/62/62 66/66/66 67/67/67
f 67/67/67 65/65/65 50/50/50
f 62/62/62 68/68/68 61/61/61
f 68/68/68 50/50/50 61/61/61
f 68/68/68 62/62/62 67/67/67
f 67/67/67 50/50/50 68/68/68
f 71/71/71 70/70/70 69/69/69
f 72/72/72 70/70/70 71/71/71
f 73/73/73 71/71/71 69/69/69
f 69/69/69 74/74/74 73/73/73
f 74/74/74 75/75/75 73/73/73
f 74/74/74 76/76/76 75/75/75
f 76/76/76 77/77/77 75/75/75
f 73/73/73 75/75/75 78/78/78
f 77/77/77 78/78/78 75/75/75
f 73/73/73 78/78/78 71/71/71
f 77/77/77 79/79/79 78/78/78
f 78/78/78 80/80/80 71/71/71
f 80/80/80 72/72/72 71/71/71
f 81/81/81 78/78/78 79/79/79
f 78/78/78 82/82/82 80/80/80
f 80/80/80 82/82/82 72/72/72
f 82/82/82 83/83/83 72/72/72
f 79/79/79 84/84/84 81/81/81
f 83/83/83 82/82/82 85/85/85
f 81/81/81 84/84/84 86/86/86
f 86/86/86 78/78/78 81/81/81
f 84/84/84 87/87/87 86/86/86
f 87/87/87 88/88/88 86/86/86
f 82/82/82 89/89/89 85/85/85
f 78/78/78 89/89/89 82/82/82
f 90/90/90 85/85/85 89/89/89
f 88/88/88 91/91/91 86/86/86
f 78/78/78 86/86/86 91/91/91
f 91/91/91 88/88/88 92/92/92
f 93/93/93 91/91/91 92/92/92
f 93/93/93 78/78/78 91/91/91
f 93/93/93 92/92/92 94/94/94
f 95/95/95 93/93/93 94/94/94
f 94/94/94 90/90/90 95/95/95
f 93/93/93 95/95/95 78/78/78
f 96/96/96 90/90/90 89/89/89
f 78/78/78 96/96/96 89/89/89
f 90/90/90 96/96/96 95/95/95
f 78/78/78 95/95/95 96/96/96
