g SeparateMesh_NPC_Lyla_Model_Lyla_Body_4_LOD2
v -0 0.12701957 1.735678
v 0.012537367 0.12991206 1.7447867
v 0.012537365 0.12991208 1.726569
v -0.0047888495 0.12991208 1.7209393
v 0.025462655 0.13537872 1.735678
v -0.015497037 0.12991206 1.735678
v -0.020599723 0.13537872 1.720735
v -0.0047888476 0.12991206 1.7504165
v 0.02338647 0.13820004 1.7526692
v 0.035923835 0.14777775 1.7435603
v -0.02890726 0.13820004 1.735678
v -0.03369611 0.14777775 1.7209628
v -0.02059972 0.1353787 1.7506444
v 0.007868395 0.1353787 1.7598944
v 0.031086378 0.15076745 1.7582635
v 0.0388835 0.16327478 1.7526692
v -0.03842487 0.15076746 1.735678
v -0.041444626 0.16327478 1.7265855
v 0.018597625 0.14777772 1.7674078
v 0.028175313 0.16327477 1.7674078
v 0.03425012 0.17728025 1.7605621
v -0.0089328345 0.13820003 1.7631702
v -0.03369611 0.14777775 1.7504165
v -0.04144463 0.16327478 1.7447867
v -0.042335477 0.17728026 1.7356834
v 0.0036045336 0.14777772 1.7722793
v 0.021470202 0.17668499 1.7722793
v 0.02442987 0.19218203 1.7631702
v 0.013082383 0.1626795 1.7759413
v -0.02442987 0.14777774 1.7631702
v -0.0388835 0.176685 1.7526692
v -0.035923835 0.19218203 1.7435561
v -0.03425012 0.16267952 1.7605621
v 0.01187394 0.18919231 1.772222
v 0.0089328345 0.20175974 1.7631423
v -0.011873937 0.15076745 1.772222
v 0.0041439882 0.17668499 1.7779089
v -0.0036045304 0.19218202 1.7722793
v -0.007868393 0.20458107 1.7598703
v -0.004143986 0.16327477 1.7779089
v -0.021470198 0.16327477 1.7722793
v -0.013082381 0.17728025 1.7759413
v -0.018597618 0.19218203 1.7674078
v -0.023386465 0.20175974 1.752654
v -0.028175313 0.17668499 1.7674078
v -0.031086376 0.18919232 1.7582635
v -0.020599723 0.13537872 1.720735
v -0.024429876 0.14777775 1.7081856
v -0.03369611 0.14777775 1.7209628
v -0.008932839 0.13820004 1.7081854
v -0.0047888495 0.12991208 1.7209393
v -0.03425012 0.16267952 1.7107937
v -0.041444626 0.16327478 1.7265855
v 0.00786839 0.13537872 1.7114614
v 0.012537365 0.12991208 1.726569
v -0.038883496 0.176685 1.7186866
v -0.042335477 0.17728026 1.7356834
v 0.023386464 0.13820004 1.7186866
v 0.025462655 0.13537872 1.735678
v -0.035923827 0.19218203 1.7277955
v -0.035923835 0.19218203 1.7435561
v 0.035923835 0.14777775 1.7277955
v 0.035923835 0.14777775 1.7435603
v -0.025462655 0.20458107 1.735678
v -0.023386465 0.20175974 1.752654
v 0.04233548 0.16267952 1.735678
v 0.0388835 0.16327478 1.7526692
v -0.012537366 0.21004772 1.7447867
v -0.007868393 0.20458107 1.7598703
v 0.041444626 0.176685 1.7447867
v 0.03425012 0.17728025 1.7605621
v 0.004788848 0.21004772 1.7504165
v 0.0089328345 0.20175974 1.7631423
v 0.03369611 0.19218203 1.7504165
v 0.02442987 0.19218203 1.7631702
v 0.020599723 0.20458107 1.7506444
v 0.0388835 0.16327478 1.7186866
v 0.041444626 0.176685 1.726569
v 0.03842487 0.18919232 1.735678
v 0.02890726 0.20175974 1.735678
v 0.015497037 0.21004772 1.735678
v -0 0.21294022 1.735678
v 0.03369611 0.19218203 1.7209393
v -0.012537365 0.21004772 1.726569
v 0.004788842 0.21004772 1.7209393
v 0.020599715 0.20458107 1.7207114
v 0.034250118 0.17728026 1.7107937
v -0.023386464 0.20175976 1.7186866
v -0.007868398 0.20458108 1.7114614
v 0.008932824 0.20175976 1.7081856
v 0.024429867 0.19218206 1.7081856
v -0.031086372 0.18919232 1.7130923
v -0.018597621 0.19218203 1.703948
v -0.028175313 0.17668502 1.703948
v -0.0036045401 0.19218206 1.6990765
v 0.011873924 0.18919235 1.6991338
v 0.021470191 0.17668502 1.6990765
v -0.021470206 0.1632748 1.6990765
v -0.013082387 0.17728026 1.6954145
v 0.004143975 0.17668502 1.6934469
v 0.028175306 0.1632748 1.703948
v -0.011873944 0.15076746 1.6991338
v -0.0041439966 0.1632748 1.6934469
v 0.013082372 0.16267954 1.6954145
v 0.0036045255 0.14777775 1.6990765
v 0.018597614 0.14777775 1.703948
v 0.031086372 0.15076746 1.7130923
vt 0.8813288 0.62131786
vt 0.87521625 0.6242205
vt 0.87616056 0.6154214
vt 0.8861368 0.6151241
vt 0.8682277 0.62005615
vt 0.8876035 0.62385166
vt 0.894326 0.6192881
vt 0.8815169 0.6276355
vt 0.86996186 0.6282917
vt 0.86122483 0.62700844
vt 0.8930911 0.62760353
vt 0.9017291 0.62581146
vt 0.8869215 0.63032997
vt 0.87628216 0.63064647
vt 0.8656306 0.633479
vt 0.85843855 0.6365801
vt 0.8977233 0.63252497
vt 0.9050803 0.63519824
vt 0.87169504 0.6352409
vt 0.86651146 0.6401807
vt 0.86041045 0.6455461
vt 0.8816799 0.63311684
vt 0.8917737 0.63464415
vt 0.89724195 0.6392677
vt 0.9036484 0.6442628
vt 0.8769573 0.63677216
vt 0.86877036 0.64642143
vt 0.8648764 0.6543313
vt 0.8731027 0.6415745
vt 0.8866114 0.6364852
vt 0.89535725 0.645632
vt 0.89971596 0.6532973
vt 0.8907445 0.64105046
vt 0.8723673 0.652122
vt 0.8731206 0.6599039
vt 0.8818309 0.6381947
vt 0.87589747 0.64690924
vt 0.8789803 0.6533339
vt 0.88252 0.66131127
vt 0.8789723 0.64238775
vt 0.8849333 0.6422107
vt 0.88209635 0.64713514
vt 0.88557434 0.65313864
vt 0.89181715 0.65934503
vt 0.8882711 0.64654195
vt 0.8921046 0.6515367
vt 0.95853484 0.66589004
vt 0.96072495 0.6558353
vt 0.9688184 0.6598264
vt 0.95245004 0.6580426
vt 0.9474001 0.6655099
vt 0.9666755 0.64993507
vt 0.97642016 0.65050644
vt 0.94443905 0.6564831
vt 0.9361892 0.66119343
vt 0.9708717 0.64337474
vt 0.9802234 0.6400234
vt 0.9374503 0.65226686
vt 0.92768204 0.65399975
vt 0.97134745 0.6348137
vt 0.9776479 0.6283651
vt 0.9327918 0.64507705
vt 0.9241228 0.6426061
vt 0.9675827 0.6273117
vt 0.9711617 0.6182447
vt 0.93233824 0.6367062
vt 0.92473626 0.6305943
vt 0.9626398 0.62125474
vt 0.9616786 0.61174864
vt 0.9336302 0.6290243
vt 0.9289485 0.62026566
vt 0.9545785 0.6181486
vt 0.95028687 0.6102045
vt 0.93902385 0.6223578
vt 0.93868124 0.6133465
vt 0.94684947 0.6193225
vt 0.9385395 0.640166
vt 0.93883634 0.63451177
vt 0.94034934 0.6289442
vt 0.9454819 0.6263012
vt 0.95096064 0.62483126
vt 0.95674074 0.6245504
vt 0.94454527 0.63234085
vt 0.96083784 0.62863725
vt 0.95479524 0.6295995
vt 0.949677 0.6302417
vt 0.9435564 0.6377929
vt 0.96391344 0.6334035
vt 0.9581591 0.63351005
vt 0.9531106 0.6339716
vt 0.94818187 0.6352884
vt 0.965945 0.6388069
vt 0.9605553 0.6385096
vt 0.963331 0.64394933
vt 0.9558815 0.63825494
vt 0.9515501 0.63802165
vt 0.9479095 0.64037997
vt 0.9597579 0.64834005
vt 0.9576305 0.6432151
vt 0.95266736 0.6422129
vt 0.94398475 0.64292413
vt 0.955258 0.65194434
vt 0.95387065 0.6467324
vt 0.9488002 0.6451597
vt 0.94956124 0.6510566
vt 0.9442797 0.64902246
vt 0.9394586 0.64585906
vn 3.500194E-07 -1 -3.5498422E-07
vn 0.29004112 -0.93352604 0.21072555
vn 0.29004106 -0.9335259 -0.21072611
vn -0.11094882 -0.9334911 -0.34100538
vn 0.5983404 -0.8012421 -2.8194955E-07
vn -0.3585391 -0.9335147 -8.068162E-05
vn -0.48425558 -0.80124456 -0.3514309
vn -0.110785745 -0.9335255 0.34096423
vn 0.5454617 -0.7385241 0.39629984
vn 0.8365738 -0.51703095 0.1811721
vn -0.67423004 -0.7385214 -0.0001538233
vn -0.78333306 -0.517146 -0.34489033
vn -0.4840677 -0.8012416 0.3516966
vn 0.18489663 -0.8012425 0.5690552
vn 0.7236074 -0.44721383 0.52573
vn 0.90515685 -0.15935193 0.39407867
vn -0.8944285 -0.44721088 -0.0001447148
vn -0.9639411 -0.15945433 -0.21305355
vn 0.4308197 -0.5170303 0.7396446
vn 0.65449977 -0.15935226 0.73907846
vn 0.7962659 0.17684656 0.57852036
vn -0.20834981 -0.7385229 0.6412288
vn -0.78329223 -0.5170307 0.3451558
vn -0.96391875 -0.15936512 0.2132216
vn -0.98424107 0.17683184 5.692192E-05
vn 0.086208776 -0.51703 0.851615
vn 0.5006511 0.15935382 0.8508553
vn 0.5700779 0.5172287 0.63834596
vn 0.3041449 -0.1768451 0.93606716
vn -0.5703112 -0.5170322 0.63829684
vn -0.9051483 0.15936956 0.3940912
vn -0.8365389 0.5170893 0.18116659
vn -0.7962659 -0.17684673 0.57852036
vn 0.27630815 0.44768974 0.850428
vn 0.20813495 0.7387594 0.6410261
vn -0.27639452 -0.44721544 0.85064936
vn 0.09508241 0.15935147 0.9826324
vn -0.08606076 0.5175296 0.8513264
vn -0.18477432 0.80134374 0.5689523
vn -0.09508246 -0.15935153 0.9826324
vn -0.5006512 -0.15935406 0.8508553
vn -0.30414483 0.176845 0.93606716
vn -0.43069565 0.5173712 0.7394783
vn -0.545355 0.7386331 0.39624372
vn -0.6544995 0.15935203 0.73907876
vn -0.7235476 0.44738445 0.5256672
vn -0.48425558 -0.80124456 -0.3514309
vn -0.5704843 -0.5172315 -0.63798064
vn -0.78333306 -0.517146 -0.34489033
vn -0.20853011 -0.73859173 -0.64109087
vn -0.11094882 -0.9334911 -0.34100538
vn -0.79636586 -0.17701955 -0.5783299
vn -0.9639411 -0.15945433 -0.21305355
vn 0.18489824 -0.80124223 -0.56905484
vn 0.29004106 -0.9335259 -0.21072611
vn -0.90519893 0.15924788 -0.39402407
vn -0.98424107 0.17683184 5.692192E-05
vn 0.5454615 -0.73852396 -0.3963005
vn 0.5983404 -0.8012421 -2.8194955E-07
vn -0.83657944 0.51702195 -0.18117145
vn -0.8365389 0.5170893 0.18116659
vn 0.8365737 -0.5170311 -0.18117246
vn 0.8365738 -0.51703095 0.1811721
vn -0.59834737 0.8012368 6.5276145E-05
vn -0.545355 0.7386331 0.39624372
vn 0.9842387 -0.17684546 0
vn 0.90515685 -0.15935193 0.39407867
vn -0.29008296 0.93345374 0.21098809
vn -0.18477432 0.80134374 0.5689523
vn 0.9639212 0.15935257 0.21321982
vn 0.7962659 0.17684656 0.57852036
vn 0.110715955 0.93336743 0.3414194
vn 0.20813495 0.7387594 0.6410261
vn 0.7832922 0.51703066 0.345156
vn 0.5700779 0.5172287 0.63834596
vn 0.48392218 0.8012269 0.35192996
vn 0.90515673 -0.1593521 -0.394079
vn 0.9639212 0.15935256 -0.21321978
vn 0.8944273 0.44721338 0
vn 0.6742278 0.7385234 0
vn 0.3585105 0.93352574 0
vn -2.2341663E-07 1 0
vn 0.7832922 0.5170308 -0.34515578
vn -0.290041 0.93352616 -0.2107254
vn 0.110786 0.9335255 -0.34096423
vn 0.48406762 0.8012416 -0.35169667
vn 0.79626584 0.17684664 -0.57852054
vn -0.54546183 0.7385239 -0.3963001
vn -0.18489665 0.8012424 -0.56905514
vn 0.20834984 0.738523 -0.6412286
vn 0.57031107 0.5170324 -0.63829684
vn -0.7236074 0.44721374 -0.5257301
vn -0.43081978 0.5170299 -0.7396447
vn -0.65449965 0.1593526 -0.73907846
vn -0.08620917 0.5170298 -0.851615
vn 0.27639428 0.4472156 -0.85064936
vn 0.50065106 0.15935397 -0.8508554
vn -0.5006512 -0.15935378 -0.8508553
vn -0.30414504 0.17684501 -0.93606716
vn 0.09508231 0.15935154 -0.9826324
vn 0.6544994 -0.1593521 -0.7390788
vn -0.27639496 -0.4472129 -0.85065067
vn -0.09508246 -0.15935136 -0.9826324
vn 0.30414486 -0.17684495 -0.93606716
vn 0.08621023 -0.51702833 -0.8516158
vn 0.4308196 -0.51702994 -0.7396449
vn 0.72360706 -0.44721368 -0.5257307
g SeparateMesh_NPC_Lyla_Model_Lyla_Body_4_LOD2_0
f 3/3/3 2/2/2 1/1/1
f 4/4/4 3/3/3 1/1/1
f 3/3/3 5/5/5 2/2/2
f 6/6/6 4/4/4 1/1/1
f 6/6/6 7/7/7 4/4/4
f 2/2/2 8/8/8 1/1/1
f 8/8/8 6/6/6 1/1/1
f 5/5/5 9/9/9 2/2/2
f 5/5/5 10/10/10 9/9/9
f 11/11/11 7/7/7 6/6/6
f 11/11/11 12/12/12 7/7/7
f 8/8/8 13/13/13 6/6/6
f 13/13/13 11/11/11 6/6/6
f 2/2/2 14/14/14 8/8/8
f 9/9/9 14/14/14 2/2/2
f 10/10/10 15/15/15 9/9/9
f 15/15/15 10/10/10 16/16/16
f 17/17/17 12/12/12 11/11/11
f 12/12/12 17/17/17 18/18/18
f 15/15/15 19/19/19 9/9/9
f 9/9/9 19/19/19 14/14/14
f 16/16/16 20/20/20 15/15/15
f 19/19/19 15/15/15 20/20/20
f 16/16/16 21/21/21 20/20/20
f 14/14/14 22/22/22 8/8/8
f 22/22/22 13/13/13 8/8/8
f 23/23/23 17/17/17 11/11/11
f 13/13/13 23/23/23 11/11/11
f 24/24/24 18/18/18 17/17/17
f 17/17/17 23/23/23 24/24/24
f 24/24/24 25/25/25 18/18/18
f 19/19/19 26/26/26 14/14/14
f 14/14/14 26/26/26 22/22/22
f 21/21/21 27/27/27 20/20/20
f 21/21/21 28/28/28 27/27/27
f 29/29/29 19/19/19 20/20/20
f 26/26/26 19/19/19 29/29/29
f 29/29/29 20/20/20 27/27/27
f 30/30/30 23/23/23 13/13/13
f 22/22/22 30/30/30 13/13/13
f 31/31/31 25/25/25 24/24/24
f 31/31/31 32/32/32 25/25/25
f 24/24/24 23/23/23 33/33/33
f 23/23/23 30/30/30 33/33/33
f 24/24/24 33/33/33 31/31/31
f 28/28/28 34/34/34 27/27/27
f 34/34/34 28/28/28 35/35/35
f 26/26/26 36/36/36 22/22/22
f 36/36/36 30/30/30 22/22/22
f 37/37/37 29/29/29 27/27/27
f 37/37/37 27/27/27 34/34/34
f 38/38/38 34/34/34 35/35/35
f 34/34/34 38/38/38 37/37/37
f 39/39/39 38/38/38 35/35/35
f 40/40/40 26/26/26 29/29/29
f 36/36/36 26/26/26 40/40/40
f 40/40/40 29/29/29 37/37/37
f 30/30/30 36/36/36 41/41/41
f 33/33/33 30/30/30 41/41/41
f 40/40/40 41/41/41 36/36/36
f 37/37/37 42/42/42 40/40/40
f 37/37/37 38/38/38 42/42/42
f 40/40/40 42/42/42 41/41/41
f 43/43/43 38/38/38 39/39/39
f 38/38/38 43/43/43 42/42/42
f 44/44/44 43/43/43 39/39/39
f 33/33/33 41/41/41 45/45/45
f 42/42/42 45/45/45 41/41/41
f 42/42/42 43/43/43 45/45/45
f 31/31/31 33/33/33 45/45/45
f 46/46/46 43/43/43 44/44/44
f 43/43/43 46/46/46 45/45/45
f 31/31/31 45/45/45 46/46/46
f 32/32/32 46/46/46 44/44/44
f 46/46/46 32/32/32 31/31/31
f 49/49/49 48/48/48 47/47/47
f 47/47/47 48/48/48 50/50/50
f 47/47/47 50/50/50 51/51/51
f 48/48/48 49/49/49 52/52/52
f 52/52/52 49/49/49 53/53/53
f 50/50/50 54/54/54 51/51/51
f 51/51/51 54/54/54 55/55/55
f 52/52/52 53/53/53 56/56/56
f 57/57/57 56/56/56 53/53/53
f 54/54/54 58/58/58 55/55/55
f 58/58/58 59/59/59 55/55/55
f 57/57/57 60/60/60 56/56/56
f 61/61/61 60/60/60 57/57/57
f 58/58/58 62/62/62 59/59/59
f 62/62/62 63/63/63 59/59/59
f 60/60/60 61/61/61 64/64/64
f 64/64/64 61/61/61 65/65/65
f 63/63/63 62/62/62 66/66/66
f 67/67/67 63/63/63 66/66/66
f 64/64/64 65/65/65 68/68/68
f 65/65/65 69/69/69 68/68/68
f 67/67/67 66/66/66 70/70/70
f 70/70/70 71/71/71 67/67/67
f 68/68/68 69/69/69 72/72/72
f 69/69/69 73/73/73 72/72/72
f 70/70/70 74/74/74 71/71/71
f 74/74/74 75/75/75 71/71/71
f 73/73/73 75/75/75 76/76/76
f 73/73/73 76/76/76 72/72/72
f 75/75/75 74/74/74 76/76/76
f 66/66/66 62/62/62 77/77/77
f 70/70/70 66/66/66 78/78/78
f 66/66/66 77/77/77 78/78/78
f 79/79/79 74/74/74 70/70/70
f 70/70/70 78/78/78 79/79/79
f 76/76/76 74/74/74 80/80/80
f 74/74/74 79/79/79 80/80/80
f 72/72/72 76/76/76 81/81/81
f 76/76/76 80/80/80 81/81/81
f 68/68/68 72/72/72 82/82/82
f 72/72/72 81/81/81 82/82/82
f 83/83/83 79/79/79 78/78/78
f 79/79/79 83/83/83 80/80/80
f 84/84/84 68/68/68 82/82/82
f 84/84/84 64/64/64 68/68/68
f 81/81/81 85/85/85 82/82/82
f 85/85/85 84/84/84 82/82/82
f 80/80/80 86/86/86 81/81/81
f 80/80/80 83/83/83 86/86/86
f 81/81/81 86/86/86 85/85/85
f 87/87/87 83/83/83 78/78/78
f 87/87/87 78/78/78 77/77/77
f 88/88/88 64/64/64 84/84/84
f 88/88/88 60/60/60 64/64/64
f 85/85/85 89/89/89 84/84/84
f 89/89/89 88/88/88 84/84/84
f 86/86/86 90/90/90 85/85/85
f 90/90/90 89/89/89 85/85/85
f 83/83/83 91/91/91 86/86/86
f 91/91/91 83/83/83 87/87/87
f 86/86/86 91/91/91 90/90/90
f 92/92/92 60/60/60 88/88/88
f 60/60/60 92/92/92 56/56/56
f 89/89/89 93/93/93 88/88/88
f 93/93/93 92/92/92 88/88/88
f 94/94/94 56/56/56 92/92/92
f 92/92/92 93/93/93 94/94/94
f 94/94/94 52/52/52 56/56/56
f 90/90/90 95/95/95 89/89/89
f 95/95/95 93/93/93 89/89/89
f 91/91/91 96/96/96 90/90/90
f 96/96/96 95/95/95 90/90/90
f 97/97/97 91/91/91 87/87/87
f 96/96/96 91/91/91 97/97/97
f 98/98/98 52/52/52 94/94/94
f 98/98/98 48/48/48 52/52/52
f 94/94/94 93/93/93 99/99/99
f 93/93/93 95/95/95 99/99/99
f 94/94/94 99/99/99 98/98/98
f 95/95/95 96/96/96 100/100/100
f 99/99/99 95/95/95 100/100/100
f 97/97/97 100/100/100 96/96/96
f 97/97/97 87/87/87 101/101/101
f 101/101/101 87/87/87 77/77/77
f 102/102/102 48/48/48 98/98/98
f 48/48/48 102/102/102 50/50/50
f 98/98/98 99/99/99 103/103/103
f 99/99/99 100/100/100 103/103/103
f 98/98/98 103/103/103 102/102/102
f 97/97/97 104/104/104 100/100/100
f 104/104/104 103/103/103 100/100/100
f 101/101/101 104/104/104 97/97/97
f 102/102/102 105/105/105 50/50/50
f 105/105/105 102/102/102 103/103/103
f 104/104/104 105/105/105 103/103/103
f 50/50/50 105/105/105 54/54/54
f 106/106/106 105/105/105 104/104/104
f 105/105/105 106/106/106 54/54/54
f 101/101/101 106/106/106 104/104/104
f 54/54/54 106/106/106 58/58/58
f 101/101/101 77/77/77 107/107/107
f 107/107/107 106/106/106 101/101/101
f 106/106/106 107/107/107 58/58/58
f 62/62/62 107/107/107 77/77/77
f 107/107/107 62/62/62 58/58/58
