g SeparateMesh_Avatar_Female_Size03_Lisa_Model_Lisa_Parts_LOD1
v 0.00970239 0.0028752133 0.019375414
v 0.00885923 0.003196297 0.04081254
v 0.0025523168 0.009613653 0.04081381
v 0.0029757696 0.010072186 0.019376814
v -0.007888347 0.0061997822 0.040814113
v -0.0083074905 0.00662045 0.019377112
v -0.008680993 -0.005424867 0.04081205
v -0.009368501 -0.0053207097 0.019374957
v -0.0013821673 -0.010062246 0.04081085
v -0.0013832817 -0.010628569 0.019373633
v -0.0013832817 -0.010628569 0.019373633
v -0.0013821673 -0.010062246 0.04081085
v 0.0075238296 -0.0070744497 0.040810574
v 0.007939551 -0.007487038 0.019373363
v 0.00638263 0.0026528006 0.04438399
v 0.0022393712 0.0072232047 0.04438474
v -0.0058316947 0.004104901 0.044385023
v -0.00620011 -0.0039384905 0.044383567
v -0.0010803173 -0.007216061 0.04438271
v -0.0010803173 -0.007216061 0.04438271
v 0.0052079237 -0.0048572165 0.04438273
v 0.0019657866 0.007187889 -0.022205403
v 0.0073925564 0.0015438473 -0.022206316
v -0.006250061 0.004225613 -0.022205288
v -0.0069821426 -0.0032508103 -0.022206733
v -0.0013873955 -0.007610434 -0.022207566
v 0.0057103788 -0.0052549117 -0.022207674
v -0.0013873955 -0.007610434 -0.022207566
v 0.0094146915 0.0023830023 -0.024892144
v 0.0023035633 0.009477983 -0.024891086
v -0.007930501 0.0059022177 -0.024890944
v -0.00900463 -0.004089024 -0.02489279
v -0.0013864936 -0.009868629 -0.024893943
v -0.0013864936 -0.009868629 -0.024893943
v 0.0073865806 -0.006929349 -0.024894413
v 0.002303158 0.009479108 -0.030756844
v 0.009414266 0.002384123 -0.030758014
v -0.007930883 0.0059032906 -0.03075652
v -0.009005005 -0.004087934 -0.030758485
v -0.0013868673 -0.009867568 -0.030759532
v 0.0073861876 -0.006928218 -0.030759983
v -0.0013868673 -0.009867568 -0.030759532
v 0.0015444779 0.00677443 -0.03332276
v 0.007371714 0.0017586782 -0.033324
v -0.005666142 0.0046974663 -0.03332256
v -0.006697398 -0.002706327 -0.033324137
v -0.000754925 -0.0073845717 -0.033325016
v 0.0058492753 -0.0052305968 -0.0333254
v -0.000754925 -0.0073845717 -0.033325016
v 0.0022393712 0.0072232047 0.04438474
v -0.00620011 -0.0039384905 0.044383567
v -0.0058316947 0.004104901 0.044385023
v -0.0010803173 -0.007216061 0.04438271
v 0.00638263 0.0026528006 0.04438399
v 0.0052079237 -0.0048572165 0.04438273
v 0.0058492753 -0.0052305968 -0.0333254
v -0.006697398 -0.002706327 -0.033324137
v -0.000754925 -0.0073845717 -0.033325016
v -0.005666142 0.0046974663 -0.03332256
v 0.007371714 0.0017586782 -0.033324
v 0.0015444779 0.00677443 -0.03332276
v 0.0042386004 2.4465215E-05 -0.043478377
v 0.0042393 2.2550938E-05 -0.0332098
v -5.187243E-06 0.0036951178 -0.033208676
v -5.8342516E-06 0.0036970032 -0.043477353
v -0.0042463467 1.8804505E-05 -0.033209138
v -0.0042470465 2.0699421E-05 -0.043477863
v -1.931265E-06 -0.0036537051 -0.033210155
v -2.6020407E-06 -0.0036518574 -0.04347884
v -2.6020407E-06 -0.0036518574 -0.04347884
v -1.931265E-06 -0.0036537051 -0.033210155
v -5.434453E-06 0.0025826911 -0.04458572
v 0.0029516541 2.4100005E-05 -0.044586394
v -0.0029602244 2.1526464E-05 -0.044585947
v -3.1315535E-06 -0.0025370931 -0.04458659
v -3.1315535E-06 -0.0025370931 -0.04458659
v -1.0437816E-05 0.002597063 -0.12218172
v 0.0028748007 3.8422695E-05 -0.12218257
v -0.0028933587 3.5833094E-05 -0.122182064
v -8.153766E-06 -0.002522769 -0.122182764
v -8.153766E-06 -0.002522769 -0.122182764
v -9.808093E-06 0.00045231654 -0.12698197
v 0.00045726198 3.8206028E-05 -0.12698196
v -0.00047641422 3.773981E-05 -0.12698203
v -9.448993E-06 -0.00037635214 -0.12698214
v -9.448993E-06 -0.00037635214 -0.12698214
v 0.00045726198 3.8206028E-05 -0.12698196
v -9.808093E-06 0.00045231654 -0.12698197
v -9.448993E-06 -0.00037635214 -0.12698214
v -0.00047641422 3.773981E-05 -0.12698203
vt 0.78020823 0.2634064
vt 0.7797758 0.23926105
vt 0.76682395 0.23919846
vt 0.76683456 0.2632471
vt 0.75818425 0.23921145
vt 0.75793654 0.26329574
vt 0.74528277 0.23923011
vt 0.74443716 0.263633
vt 0.7323814 0.23881777
vt 0.73066026 0.26429304
vt 0.802991 0.26430532
vt 0.8014664 0.23899008
vt 0.7926977 0.23936714
vt 0.7937649 0.26381245
vt 0.7797544 0.23430891
vt 0.76691705 0.23430891
vt 0.75833136 0.23430891
vt 0.7457698 0.23430891
vt 0.73442346 0.23430891
vt 0.79924303 0.23430891
vt 0.79215866 0.23430891
vt 0.76695424 0.3110251
vt 0.777887 0.3110251
vt 0.75964636 0.3110251
vt 0.7487692 0.3110251
vt 0.7383085 0.3110251
vt 0.7886649 0.3110251
vt 0.7954486 0.3110251
vt 0.7779597 0.31493154
vt 0.7668858 0.31493154
vt 0.75951165 0.31493154
vt 0.748339 0.31493154
vt 0.73644656 0.31493154
vt 0.7973563 0.31493154
vt 0.78920954 0.31493154
vt 0.76688653 0.32160106
vt 0.77810085 0.32160106
vt 0.7594312 0.32160106
vt 0.7480715 0.32160106
vt 0.7359862 0.32160106
vt 0.7895518 0.32160106
vt 0.7977826 0.32160106
vt 0.76684815 0.3250672
vt 0.77808326 0.3250672
vt 0.7593772 0.3250672
vt 0.748061 0.3250672
vt 0.73693377 0.3250672
vt 0.789457 0.3250672
vt 0.7968388 0.3250672
vt 0.98589647 0.23930204
vt 0.9881815 0.2526207
vt 0.9904666 0.24387228
vt 0.97943306 0.25490582
vt 0.977148 0.24158716
vt 0.97486293 0.25033557
vt 0.94705975 0.2498456
vt 0.9615802 0.24735424
vt 0.95204234 0.24486288
vt 0.9640715 0.25689223
vt 0.94955105 0.25938356
vt 0.9590889 0.26187488
vt 0.6572349 0.3855758
vt 0.6572349 0.37650087
vt 0.652454 0.37650087
vt 0.652454 0.3855758
vt 0.64755785 0.37650087
vt 0.64755785 0.3855758
vt 0.6438887 0.37650087
vt 0.6438887 0.3855758
vt 0.66240084 0.3855758
vt 0.66240084 0.37650087
vt 0.6526282 0.38691044
vt 0.6569545 0.38691044
vt 0.6483263 0.38691044
vt 0.6457375 0.38691044
vt 0.66099346 0.38691044
vt 0.6525284 0.4460299
vt 0.6564584 0.44607034
vt 0.6485852 0.44616947
vt 0.6457375 0.4463396
vt 0.6606276 0.44631082
vt 0.6534832 0.45032686
vt 0.65448797 0.45033088
vt 0.6525562 0.45043182
vt 0.65214264 0.45070952
vt 0.65527725 0.45063293
vt 0.66717094 0.4313045
vt 0.6674929 0.4322074
vt 0.66810566 0.4310919
vt 0.66842765 0.4319948
vn 0.95745575 0.2880327 -0.017763149
vn 0.91016364 0.291441 0.2943882
vn 0.22396153 0.92766833 0.29878557
vn 0.24959764 0.9680366 -0.024619462
vn -0.7427208 0.59398234 0.309113
vn -0.7805839 0.6246964 -0.02105565
vn -0.8472849 -0.4307882 0.31069243
vn -0.90281117 -0.42950013 -0.021484667
vn -0.11580172 -0.9391848 0.3232983
vn -0.1346002 -0.99057466 -0.025392376
vn -0.1346002 -0.99057466 -0.025392376
vn -0.11580172 -0.9391848 0.3232983
vn 0.7238428 -0.6073235 0.32742903
vn 0.7572159 -0.6528806 -0.019262154
vn 0.77461743 0.26955533 0.5721082
vn 0.21356636 0.7769895 0.59217966
vn -0.6458136 0.44825238 0.61805725
vn -0.7076701 -0.34191766 0.6183004
vn -0.091793515 -0.7661285 0.6360983
vn -0.091793515 -0.7661285 0.6360983
vn 0.6006961 -0.46756425 0.64849657
vn 0.22821477 0.90104866 0.36882156
vn 0.9081983 0.24491169 0.33940262
vn -0.74066144 0.5621038 0.36804873
vn -0.8612731 -0.38136482 0.33581167
vn -0.1672604 -0.92488664 0.34148014
vn 0.7021044 -0.6162801 0.35671866
vn -0.1672604 -0.92488664 0.34148014
vn 0.91161674 0.27372885 0.30663875
vn 0.20590766 0.924141 0.3218161
vn -0.7381958 0.5948126 0.31822172
vn -0.87596554 -0.37702292 0.30089536
vn -0.14519203 -0.93842274 0.3134995
vn -0.14519203 -0.93842274 0.3134995
vn 0.7040102 -0.6361005 0.3158256
vn 0.21202269 0.91830945 -0.3342964
vn 0.9061157 0.2674312 -0.3277728
vn -0.7424004 0.5741952 -0.3451687
vn -0.8551397 -0.37695652 -0.35586497
vn -0.15705478 -0.92393774 -0.3488165
vn 0.7000846 -0.6359337 -0.3247611
vn -0.15705478 -0.92393774 -0.3488165
vn 0.14481091 0.70518076 -0.6940821
vn 0.71129733 0.21217665 -0.6701024
vn -0.5190981 0.4796218 -0.7074603
vn -0.6471885 -0.2409978 -0.7232338
vn -0.098394126 -0.69984096 -0.7074894
vn 0.5708911 -0.48105457 -0.6653344
vn -0.098394126 -0.69984096 -0.7074894
vn 5.5709635E-05 -0.000147216 1
vn 6.662978E-05 -0.00016797219 1
vn 0.0001066019 -0.0001856962 1
vn 5.8663565E-05 -0.00017433571 1
vn 4.577829E-05 -0.00015002741 1
vn 6.382884E-05 -0.00017824172 1
vn -6.417479E-05 0.00018066779 -1
vn -6.497991E-05 0.00018786723 -1
vn -8.434679E-05 8.0404476E-05 -1
vn -6.360933E-05 0.00020619067 -1
vn -6.2090716E-05 0.00020301828 -1
vn -7.3660536E-05 0.00016159877 -1
vn 0.93465877 0.0004834754 -0.35554567
vn 0.9999999 0.00044787166 -6.499414E-05
vn -0.0004503772 0.9999999 0.00018457338
vn -0.00043573862 0.9417095 -0.3364268
vn -0.9999999 -0.00043558626 6.71237E-05
vn -0.9347024 -0.00034690363 -0.3554314
vn 0.00043490808 -0.9999999 -0.00018273003
vn 0.00039294406 -0.9415758 -0.33680087
vn 0.00039294406 -0.9415758 -0.33680087
vn 0.00043490808 -0.9999999 -0.00018273003
vn -0.0004266436 0.88931966 -0.45728597
vn 0.85441494 0.00048384504 -0.5195913
vn -0.8544681 -0.00025831308 -0.51950383
vn 0.00037394132 -0.8891248 -0.45766464
vn 0.00037394132 -0.8891248 -0.45766464
vn -0.00045509395 0.9813818 -0.19206688
vn 0.97755057 0.0004761281 -0.21070014
vn -0.9775804 -0.0003971857 -0.21056195
vn 0.00042257048 -0.981311 -0.1924279
vn 0.00042257048 -0.981311 -0.1924279
vn -0.00050578034 0.91301167 -0.40793306
vn 0.8930945 0.0004809404 -0.4498688
vn -0.89316213 -0.00033586318 -0.4497347
vn 0.0003225005 -0.91286635 -0.4082586
vn 0.0003225005 -0.91286635 -0.4082586
vn 0.00021438 0.00019573761 -1
vn 8.1615435E-05 0.0001956801 -1
vn 8.160385E-05 0.0001956801 -1
vn -5.1178256E-05 0.00019562253 -1
g SeparateMesh_Avatar_Female_Size03_Lisa_Model_Lisa_Parts_LOD1_0
f 3/3/3 2/2/2 1/1/1
f 4/4/4 3/3/3 1/1/1
f 5/5/5 3/3/3 4/4/4
f 6/6/6 5/5/5 4/4/4
f 7/7/7 5/5/5 6/6/6
f 8/8/8 7/7/7 6/6/6
f 9/9/9 7/7/7 8/8/8
f 10/10/10 9/9/9 8/8/8
f 13/13/13 12/12/12 11/11/11
f 14/14/14 13/13/13 11/11/11
f 2/2/2 13/13/13 14/14/14
f 1/1/1 2/2/2 14/14/14
f 16/16/16 15/15/15 2/2/2
f 3/3/3 16/16/16 2/2/2
f 17/17/17 16/16/16 3/3/3
f 5/5/5 17/17/17 3/3/3
f 18/18/18 17/17/17 5/5/5
f 7/7/7 18/18/18 5/5/5
f 19/19/19 18/18/18 7/7/7
f 9/9/9 19/19/19 7/7/7
f 21/21/21 20/20/20 12/12/12
f 13/13/13 21/21/21 12/12/12
f 15/15/15 21/21/21 13/13/13
f 2/2/2 15/15/15 13/13/13
f 23/23/23 22/22/22 4/4/4
f 1/1/1 23/23/23 4/4/4
f 22/22/22 24/24/24 6/6/6
f 4/4/4 22/22/22 6/6/6
f 24/24/24 25/25/25 8/8/8
f 6/6/6 24/24/24 8/8/8
f 25/25/25 26/26/26 10/10/10
f 8/8/8 25/25/25 10/10/10
f 28/28/28 27/27/27 14/14/14
f 11/11/11 28/28/28 14/14/14
f 27/27/27 23/23/23 1/1/1
f 14/14/14 27/27/27 1/1/1
f 22/22/22 23/23/23 29/29/29
f 30/30/30 22/22/22 29/29/29
f 24/24/24 22/22/22 30/30/30
f 31/31/31 24/24/24 30/30/30
f 25/25/25 24/24/24 31/31/31
f 32/32/32 25/25/25 31/31/31
f 26/26/26 25/25/25 32/32/32
f 33/33/33 26/26/26 32/32/32
f 27/27/27 28/28/28 34/34/34
f 35/35/35 27/27/27 34/34/34
f 23/23/23 27/27/27 35/35/35
f 29/29/29 23/23/23 35/35/35
f 37/37/37 36/36/36 30/30/30
f 29/29/29 37/37/37 30/30/30
f 36/36/36 38/38/38 31/31/31
f 30/30/30 36/36/36 31/31/31
f 38/38/38 39/39/39 32/32/32
f 31/31/31 38/38/38 32/32/32
f 39/39/39 40/40/40 33/33/33
f 32/32/32 39/39/39 33/33/33
f 42/42/42 41/41/41 35/35/35
f 34/34/34 42/42/42 35/35/35
f 41/41/41 37/37/37 29/29/29
f 35/35/35 41/41/41 29/29/29
f 44/44/44 43/43/43 36/36/36
f 37/37/37 44/44/44 36/36/36
f 43/43/43 45/45/45 38/38/38
f 36/36/36 43/43/43 38/38/38
f 45/45/45 46/46/46 39/39/39
f 38/38/38 45/45/45 39/39/39
f 46/46/46 47/47/47 40/40/40
f 39/39/39 46/46/46 40/40/40
f 49/49/49 48/48/48 41/41/41
f 42/42/42 49/49/49 41/41/41
f 48/48/48 44/44/44 37/37/37
f 41/41/41 48/48/48 37/37/37
f 52/52/52 51/51/51 50/50/50
f 55/55/55 54/54/54 53/53/53
f 53/53/53 54/54/54 51/51/51
f 51/51/51 54/54/54 50/50/50
f 58/58/58 57/57/57 56/56/56
f 61/61/61 60/60/60 59/59/59
f 59/59/59 60/60/60 57/57/57
f 57/57/57 60/60/60 56/56/56
f 64/64/64 63/63/63 62/62/62
f 65/65/65 64/64/64 62/62/62
f 66/66/66 64/64/64 65/65/65
f 67/67/67 66/66/66 65/65/65
f 68/68/68 66/66/66 67/67/67
f 69/69/69 68/68/68 67/67/67
f 63/63/63 71/71/71 70/70/70
f 62/62/62 63/63/63 70/70/70
f 73/73/73 72/72/72 65/65/65
f 62/62/62 73/73/73 65/65/65
f 72/72/72 74/74/74 67/67/67
f 65/65/65 72/72/72 67/67/67
f 74/74/74 75/75/75 69/69/69
f 67/67/67 74/74/74 69/69/69
f 76/76/76 73/73/73 62/62/62
f 70/70/70 76/76/76 62/62/62
f 77/77/77 72/72/72 73/73/73
f 78/78/78 77/77/77 73/73/73
f 77/77/77 79/79/79 74/74/74
f 72/72/72 77/77/77 74/74/74
f 80/80/80 75/75/75 74/74/74
f 79/79/79 80/80/80 74/74/74
f 81/81/81 78/78/78 73/73/73
f 76/76/76 81/81/81 73/73/73
f 83/83/83 82/82/82 77/77/77
f 78/78/78 83/83/83 77/77/77
f 82/82/82 84/84/84 79/79/79
f 77/77/77 82/82/82 79/79/79
f 84/84/84 85/85/85 80/80/80
f 79/79/79 84/84/84 80/80/80
f 86/86/86 83/83/83 78/78/78
f 81/81/81 86/86/86 78/78/78
f 89/89/89 88/88/88 87/87/87
f 90/90/90 88/88/88 89/89/89
