g NPC_Bone_TailB_001_LOD3
v 0.02694669 0.08086893 -0.018150177
v 0.010937808 0.08438097 -0.047336273
v 0.019692767 0.043742742 -0.0031307219
v 0.010432 0.2915262 -0.020525817
v -0.016293546 0.24269922 -0.033072203
v 0.029628482 0.24879313 -0.06321587
v 0.02435821 0.19243723 -0.065674745
v -0.023816375 0.19311424 -0.044792175
v -0.06162177 0.21949564 0.015131073
v 0.024805667 0.14170963 -0.05789398
v -0.033819366 0.14217523 -0.047443237
v -0.02171 0.08978723 -0.041269224
v 0.010937808 0.08438097 -0.047336273
v -0.0020944998 0.040236235 -0.026209716
v -0.064280376 0.13802823 0.0013877868
v -0.026637997 0.04346323 -0.009770202
v -0.0027849984 -0.0020437622 -0.020731201
v -0.021705002 -0.002064705 0.00033180235
v -0.04174429 0.08585224 -0.0102882385
v -0.0008500004 0.043386247 0.017594757
v -0.0032249987 -0.0020797348 0.01891281
v 0.014349001 -0.002064705 -0.0005541992
v 0.019692767 0.043742742 -0.0031307219
v 0.034963988 0.09043274 0.01253479
v -0.0074149347 0.08337824 0.028710784
v -0.022710498 0.13404372 0.054240264
v 0.039477028 0.14645822 0.05248375
v 0.067165785 0.16615424 0.030201796
v 0.055481263 0.13114673 0.00094680785
v 0.069574095 0.18155724 -9.620666E-05
v 0.055385504 0.19240598 -0.037135467
v 0.05122529 0.2383334 -0.03631584
v 0.04907625 0.25589356 0.0059288787
v 0.043290995 0.23338921 0.04475128
v 0.02074275 0.22004797 0.07249206
v -0.032107472 0.21291798 0.06885498
v -0.028288445 0.26672173 0.05782974
v -0.038605954 0.2789767 0.027804106
v -0.019354751 0.31337395 0.049541473
v 0.02074275 0.22004797 0.07249206
v 0.0029835005 0.27250123 0.05835327
v 0.043290995 0.23338921 0.04475128
v 0.019692767 0.043742742 -0.0031307219
v -0.0027849984 -0.0020437622 -0.020731201
v 0.014349001 -0.002064705 -0.0005541992
v -0.0020944998 0.040236235 -0.026209716
v 0.010937808 0.08438097 -0.047336273
v 0.0521305 0.13539773 -0.031240692
v 0.02435821 0.19243723 -0.065674745
v 0.024805667 0.14170963 -0.05789398
v 0.055385504 0.19240598 -0.037135467
v 0.029628482 0.24879313 -0.06321587
v 0.05122529 0.2383334 -0.03631584
v 0.010432 0.2915262 -0.020525817
v 0.04907625 0.25589356 0.0059288787
v 0.0027789997 0.3018692 0.020975798
v 0.055481263 0.13114673 0.00094680785
v 0.034963988 0.09043274 0.01253479
v 0.02694669 0.08086893 -0.018150177
v 0.019692767 0.043742742 -0.0031307219
v 0.024805667 0.14170963 -0.05789398
v 0.010937808 0.08438097 -0.047336273
v -0.038605954 0.2789767 0.027804106
v 0.0027789997 0.3018692 0.020975798
v -0.019354751 0.31337395 0.049541473
v 0.010432 0.2915262 -0.020525817
v -0.016293546 0.24269922 -0.033072203
v -0.06162177 0.21949564 0.015131073
v 0.0027789997 0.3018692 0.020975798
v 0.0029835005 0.27250123 0.05835327
v -0.019354751 0.31337395 0.049541473
v 0.04907625 0.25589356 0.0059288787
v 0.043290995 0.23338921 0.04475128
vt 0.2747 0.3726
vt 0.30475 0.35225
vt 0.24669999 0.36089998
vt 0.060650002 0.08775
vt 0.106375 0.084199995
vt 0.1221 0.0413
vt 0.1685 0.052
vt 0.1554 0.0885
vt 0.094475 0.17390001
vt 0.21825 0.054350004
vt 0.2054 0.1005
vt 0.255 0.1144
vt 0.2689 0.096200004
vt 0.293 0.1436
vt 0.1849 0.1478
vt 0.2794 0.1669
vt 0.3188 0.1749
vt 0.317 0.1965
vt 0.2403 0.1516
vt 0.2734 0.2015
vt 0.3169 0.2189
vt 0.3048 0.2344
vt 0.2668 0.2182
vt 0.24204999 0.24265
vt 0.2344 0.2077
vt 0.17025 0.21165
vt 0.1787 0.266
vt 0.1857 0.2868
vt 0.23295 0.276625
vt 0.1903 0.3129
vt 0.20575 0.33679998
vt 0.18068093 0.35521862
vt 0.1274875 0.3407125
vt 0.114875 0.299975
vt 0.088825 0.27807498
vt 0.098075 0.21917501
vt 0.056450002 0.21630001
vt 0.0503 0.1958
vt 0.0183 0.21845
vt 0.0802 0.2563
vt 0.05 0.2453
vt 0.0678 0.2684
vt 0.0066 0.0564
vt 0.0294 0.0291
vt 0.0081 0.0204
vt 0.0294 0.0736
vt 0.0219 0.1037
vt 0.061800003 0.49325
vt 0.0942 0.4457
vt 0.0829 0.4919
vt 0.060525 0.43785
vt 0.0934 0.3981
vt 0.06250397 0.3902414
vt 0.0456 0.3221
vt 0.026275001 0.35082498
vt 0.0139 0.302
vt 0.0372 0.48804998
vt 0.0272 0.5324
vt 0.0325 0.5475
vt 0.0079 0.5556
vt 0.07685 0.51425004
vt 0.0857 0.5415
vt 0.26465 0.26
vt 0.2883 0.259
vt 0.27645 0.2338
vt 0.3017 0.2964
vt 0.2719 0.3103
vt 0.23927501 0.308275
vt 0.0705 0.0312
vt 0.0867 0.0111
vt 0.04385 0.0173
vt 0.1132 0.0377
vt 0.121 0.0119
vn 0.86297315 -0.35869494 -0.3558305
vn 0.33837318 -0.34572145 -0.875203
vn 0.9485784 -0.30704802 0.0769457
vn 0.049120113 0.86899585 -0.49237525
vn -0.6379316 0.3503951 -0.6857598
vn 0.19796148 0.4210655 -0.8851638
vn 0.15354113 0.009035733 -0.9881009
vn -0.5861109 0.15937331 -0.79440176
vn -0.98471063 0.171036 -0.03303921
vn 0.28411183 -0.18598121 -0.9405803
vn -0.60313374 -0.051596504 -0.7959695
vn -0.50829726 -0.27819502 -0.8150102
vn 0.33837318 -0.34572145 -0.875203
vn 0.03775932 -0.3848905 -0.9221896
vn -0.982752 -0.18489924 0.0032742578
vn -0.9568373 -0.28489214 -0.057435088
vn 0.05862451 -0.19191001 -0.97966
vn -0.9963811 -0.053451505 0.06608756
vn -0.90871745 -0.4158175 -0.036447775
vn -0.035285488 -0.19658826 0.97985095
vn -0.019519217 0.026801087 0.99945015
vn 0.99447745 -0.09559569 0.04331434
vn 0.9485784 -0.30704802 0.0769457
vn 0.7713747 -0.47423163 0.42436475
vn -0.1918819 -0.475395 0.85859245
vn -0.3767871 -0.37495947 0.84701645
vn 0.4818389 -0.3125409 0.8186266
vn 0.91733426 -0.10784679 0.3832323
vn 0.93362325 -0.35462365 -0.050888877
vn 0.9949078 -0.001922143 -0.10077051
vn 0.8439583 -0.037903477 -0.53506804
vn 0.87001073 0.34216708 -0.354969
vn 0.85153157 0.51413745 0.10274579
vn 0.78717893 0.3172828 0.52884865
vn 0.33317298 0.093135506 0.93825454
vn -0.5162056 0.012254412 0.85637707
vn -0.55230194 0.23930408 0.7985587
vn -0.8687507 0.48643887 -0.093002
vn -0.19265784 0.91033185 0.36630428
vn 0.33317298 0.093135506 0.93825454
vn 0.38621834 0.42319593 0.8195978
vn 0.78717893 0.3172828 0.52884865
vn 0.9485784 -0.30704802 0.0769457
vn 0.05862451 -0.19191001 -0.97966
vn 0.99447745 -0.09559569 0.04331434
vn 0.03775932 -0.3848905 -0.9221896
vn 0.33837318 -0.34572145 -0.875203
vn 0.8541955 -0.27647093 -0.44035646
vn 0.15354113 0.009035733 -0.9881009
vn 0.28411183 -0.18598121 -0.9405803
vn 0.8439583 -0.037903477 -0.53506804
vn 0.19796148 0.4210655 -0.8851638
vn 0.87001073 0.34216708 -0.354969
vn 0.049120113 0.86899585 -0.49237525
vn 0.85153157 0.51413745 0.10274579
vn 0.26847273 0.9621459 -0.046877965
vn 0.93362325 -0.35462365 -0.050888877
vn 0.7713747 -0.47423163 0.42436475
vn 0.86297315 -0.35869494 -0.3558305
vn 0.9485784 -0.30704802 0.0769457
vn 0.28411183 -0.18598121 -0.9405803
vn 0.33837318 -0.34572145 -0.875203
vn -0.8687507 0.48643887 -0.093002
vn 0.26847273 0.9621459 -0.046877965
vn -0.19265784 0.91033185 0.36630428
vn 0.049120113 0.86899585 -0.49237525
vn -0.6379316 0.3503951 -0.6857598
vn -0.98471063 0.171036 -0.03303921
vn 0.26847273 0.9621459 -0.046877965
vn 0.38621834 0.42319593 0.8195978
vn -0.19265784 0.91033185 0.36630428
vn 0.85153157 0.51413745 0.10274579
vn 0.78717893 0.3172828 0.52884865
g NPC_Bone_TailB_001_LOD3_0
f 3/3/3 2/2/2 1/1/1
f 6/6/6 5/5/5 4/4/4
f 7/7/7 5/5/5 6/6/6
f 7/7/7 8/8/8 5/5/5
f 9/9/9 5/5/5 8/8/8
f 8/8/8 7/7/7 10/10/10
f 11/11/11 8/8/8 10/10/10
f 11/11/11 10/10/10 12/12/12
f 10/10/10 13/13/13 12/12/12
f 12/12/12 13/13/13 14/14/14
f 11/11/11 15/15/15 8/8/8
f 15/15/15 9/9/9 8/8/8
f 11/11/11 12/12/12 15/15/15
f 12/12/12 14/14/14 16/16/16
f 16/16/16 14/14/14 17/17/17
f 18/18/18 16/16/16 17/17/17
f 12/12/12 19/19/19 15/15/15
f 19/19/19 12/12/12 16/16/16
f 20/20/20 16/16/16 18/18/18
f 21/21/21 20/20/20 18/18/18
f 21/21/21 22/22/22 20/20/20
f 22/22/22 23/23/23 20/20/20
f 23/23/23 24/24/24 20/20/20
f 16/16/16 20/20/20 25/25/25
f 19/19/19 16/16/16 25/25/25
f 24/24/24 25/25/25 20/20/20
f 19/19/19 26/26/26 15/15/15
f 26/26/26 19/19/19 25/25/25
f 15/15/15 26/26/26 9/9/9
f 24/24/24 27/27/27 25/25/25
f 27/27/27 26/26/26 25/25/25
f 24/24/24 28/28/28 27/27/27
f 29/29/29 28/28/28 24/24/24
f 29/29/29 30/30/30 28/28/28
f 30/30/30 29/29/29 31/31/31
f 31/31/31 32/32/32 30/30/30
f 33/33/33 30/30/30 32/32/32
f 33/33/33 34/34/34 30/30/30
f 34/34/34 28/28/28 30/30/30
f 28/28/28 34/34/34 27/27/27
f 34/34/34 35/35/35 27/27/27
f 26/26/26 27/27/27 35/35/35
f 26/26/26 35/35/35 36/36/36
f 26/26/26 36/36/36 9/9/9
f 36/36/36 37/37/37 9/9/9
f 37/37/37 38/38/38 9/9/9
f 38/38/38 37/37/37 39/39/39
f 37/37/37 36/36/36 40/40/40
f 39/39/39 37/37/37 41/41/41
f 41/41/41 37/37/37 40/40/40
f 41/41/41 40/40/40 42/42/42
f 45/45/45 44/44/44 43/43/43
f 44/44/44 46/46/46 43/43/43
f 46/46/46 47/47/47 43/43/43
f 50/50/50 49/49/49 48/48/48
f 49/49/49 51/51/51 48/48/48
f 51/51/51 49/49/49 52/52/52
f 52/52/52 53/53/53 51/51/51
f 52/52/52 54/54/54 53/53/53
f 53/53/53 54/54/54 55/55/55
f 54/54/54 56/56/56 55/55/55
f 57/57/57 48/48/48 51/51/51
f 57/57/57 58/58/58 48/48/48
f 58/58/58 59/59/59 48/48/48
f 60/60/60 59/59/59 58/58/58
f 48/48/48 59/59/59 61/61/61
f 62/62/62 61/61/61 59/59/59
f 65/65/65 64/64/64 63/63/63
f 64/64/64 66/66/66 63/63/63
f 67/67/67 63/63/63 66/66/66
f 63/63/63 67/67/67 68/68/68
f 71/71/71 70/70/70 69/69/69
f 69/69/69 70/70/70 72/72/72
f 70/70/70 73/73/73 72/72/72
