g NPC_Bone_TailB_001_LOD2
v 0.019939534 0.043707237 -0.013752212
v -0.0027849984 -0.0020437622 -0.020731201
v 0.014349001 -0.002064705 -0.0005541992
v 0.005686001 0.04019823 -0.0253022
v 0.010937808 0.08438097 -0.047336273
v -0.009875 0.040274236 -0.027117232
v 0.019939534 0.043707237 -0.013752212
v 0.014349001 -0.002064705 -0.0005541992
v 0.019446 0.043778248 0.007490768
v 0.02694669 0.08086893 -0.018150177
v 0.010937808 0.08438097 -0.047336273
v 0.0521305 0.13539773 -0.031240692
v 0.03862442 0.19276322 -0.06569824
v 0.040293336 0.13956302 -0.05135971
v 0.055385504 0.19240598 -0.037135467
v 0.031258997 0.23823427 -0.06560218
v 0.055481263 0.13114673 0.00094680785
v 0.05122529 0.2383334 -0.03631584
v 0.03511598 0.08595724 0.0030197906
v 0.010432 0.2915262 -0.022891235
v 0.02694669 0.08086893 -0.018150177
v 0.019446 0.043778248 0.007490768
v 0.040293336 0.13956302 -0.05135971
v 0.010937808 0.08438097 -0.047336273
v 0.036496 0.26973122 -0.013060226
v 0.050352003 0.25489625 -0.01014122
v 0.051876005 0.2587532 0.0098818205
v 0.010047999 0.2727422 -0.010081177
v 0.031874 0.2789982 0.014727782
v 0.0027789997 0.3018692 0.020975798
v 0.0027789997 0.3018692 0.020975798
v 0.008129 0.27418923 0.05243477
v -0.019354751 0.31337395 0.049541473
v 0.031874 0.2789982 0.014727782
v 0.029561998 0.24867071 0.0472805
v 0.029121498 0.20297273 0.07091927
v 0.012364001 0.23712319 0.074064784
v 0.029561998 0.24867071 0.0472805
v 0.057019994 0.21810773 0.042222135
v 0.051876005 0.2587532 0.0098818205
v 0.031874 0.2789982 0.014727782
v 0.067582004 0.2300712 0.0006817627
v 0.050352003 0.25489625 -0.01014122
v 0.05122529 0.2383334 -0.03631584
v 0.069574095 0.18155724 -9.620666E-05
v 0.055385504 0.19240598 -0.037135467
v 0.055481263 0.13114673 0.00094680785
v 0.063617006 0.16239323 0.030201796
v 0.039477028 0.14645822 0.05248375
v 0.034811996 0.09490824 0.022049788
v 0.03511598 0.08595724 0.0030197906
v 0.019446 0.043778248 0.007490768
v -0.0008500004 0.043386247 0.017594757
v 0.014349001 -0.002064705 -0.0005541992
v -0.0032249987 -0.0020797348 0.01891281
v -0.021705002 -0.002064705 0.00033180235
v 0.0014549993 0.08337824 0.028710784
v -0.026637997 0.04346323 -0.009770202
v -0.0027849984 -0.0020437622 -0.020731201
v -0.009875 0.040274236 -0.027117232
v -0.022710498 0.13404372 0.054240264
v -0.02171 0.08978723 -0.041269224
v 0.010937808 0.08438097 -0.047336273
v -0.04174429 0.08585224 -0.0102882385
v -0.0318425 0.19303574 0.06933777
v 0.012364001 0.23712319 0.074064784
v -0.048506454 0.13561223 0.02805481
v -0.060855996 0.13802823 0.0013877868
v 0.009318001 0.14385624 -0.06442817
v 0.040293336 0.13956302 -0.05135971
v -0.06244828 0.20689924 0.017181244
v -0.030394988 0.14217523 -0.047443237
v -0.023816375 0.19311424 -0.044792175
v 0.0100920005 0.19211122 -0.065651245
v 0.03862442 0.19276322 -0.06569824
v 0.031258997 0.23823427 -0.06560218
v -0.0027733862 0.2381022 -0.03611824
v 0.010432 0.2915262 -0.022891235
v 0.010047999 0.2727422 -0.010081177
v -0.01783983 0.24729623 -0.0148312375
v -0.054736 0.23743024 0.026614608
v -0.03237245 0.23280023 0.068372265
v -0.028288445 0.26672173 0.05782974
v -0.040479988 0.2759192 0.040191803
v -0.019354751 0.31337395 0.049541473
v -0.0021619988 0.2708132 0.06427177
v 0.029561998 0.24867071 0.0472805
v 0.008129 0.27418923 0.05243477
v -0.01783983 0.24729623 -0.0148312375
v -0.054736 0.23743024 0.026614608
v -0.06244828 0.20689924 0.017181244
v -0.030827994 0.28203425 0.03210678
v -0.040479988 0.2759192 0.040191803
v 0.010047999 0.2727422 -0.010081177
v -0.019354751 0.31337395 0.049541473
v 0.0027789997 0.3018692 0.020975798
vt 0.0066 0.0564
vt 0.0294 0.0291
vt 0.0081 0.0204
vt 0.0218 0.0727
vt 0.0219 0.1037
vt 0.037 0.0745
vt 0.2528 0.3541
vt 0.2047 0.3489
vt 0.2406 0.3677
vt 0.2747 0.3726
vt 0.30475 0.35225
vt 0.061800003 0.49325
vt 0.0942 0.4457
vt 0.0829 0.4919
vt 0.060525 0.43785
vt 0.0934 0.3981
vt 0.0372 0.48804998
vt 0.06250397 0.3902414
vt 0.0272 0.5324
vt 0.0857 0.3685
vt 0.0325 0.5475
vt 0.0079 0.5556
vt 0.07685 0.51425004
vt 0.0857 0.5415
vt 0.043 0.3455
vt 0.0175 0.369
vt 0.0256 0.3597
vt 0.0456 0.3221
vt 0.019 0.3291
vt 0.0139 0.302
vt 0.0705 0.0312
vt 0.0867 0.0111
vt 0.04385 0.0173
vt 0.1132 0.0377
vt 0.121 0.0119
vt 0.11825 0.26895
vt 0.0594 0.2872
vt 0.09775 0.29715002
vt 0.132 0.3028
vt 0.121 0.3355
vt 0.0739 0.323
vt 0.1471 0.3328
vt 0.1327 0.3504
vt 0.18068093 0.35521862
vt 0.1903 0.3129
vt 0.20575 0.33679998
vt 0.23295 0.276625
vt 0.1857 0.2868
vt 0.1787 0.266
vt 0.2341 0.2401
vt 0.25 0.2452
vt 0.2668 0.2182
vt 0.2734 0.2015
vt 0.3048 0.2344
vt 0.3169 0.2189
vt 0.317 0.1965
vt 0.2344 0.2077
vt 0.2794 0.1669
vt 0.3188 0.1749
vt 0.293 0.1436
vt 0.17025 0.21165
vt 0.255 0.1144
vt 0.2689 0.096200004
vt 0.2403 0.1516
vt 0.11295 0.21825
vt 0.0802 0.2563
vt 0.1751 0.1706
vt 0.1849 0.1478
vt 0.2166 0.0692
vt 0.2199 0.0395
vt 0.10865 0.1619
vt 0.2054 0.1005
vt 0.1554 0.0885
vt 0.1678 0.0615
vt 0.1692 0.0425
vt 0.1221 0.0413
vt 0.1196 0.0628
vt 0.095 0.0452
vt 0.060650002 0.08775
vt 0.093150005 0.1056
vt 0.0803 0.1859
vt 0.0832 0.2201
vt 0.056450002 0.21630001
vt 0.0503 0.1958
vt 0.0183 0.21845
vt 0.0526 0.2376
vt 0.0678 0.2684
vt 0.0474 0.253
vt 0.2719 0.3103
vt 0.2476 0.2892
vt 0.23095 0.32735002
vt 0.27 0.2598
vt 0.2593 0.2602
vt 0.3017 0.2964
vt 0.27645 0.2338
vt 0.2883 0.259
vn 0.9051075 -0.24706231 -0.3460354
vn -0.009622149 -0.30586097 -0.95202756
vn 0.96802396 -0.2311946 0.0973591
vn 0.43288603 -0.33196223 -0.8380995
vn 0.31334683 -0.3857367 -0.8677678
vn -0.3842925 -0.3089484 -0.8699829
vn 0.9051075 -0.24706231 -0.3460354
vn 0.96802396 -0.2311946 0.0973591
vn 0.8404028 -0.242768 0.4845481
vn 0.8714029 -0.3521729 -0.34151313
vn 0.31334683 -0.3857367 -0.8677678
vn 0.8996957 -0.2720846 -0.34134683
vn 0.5394272 -0.025841784 -0.8416356
vn 0.6234107 -0.25184304 -0.74022573
vn 0.9039478 -0.00972283 -0.42753235
vn 0.17859699 0.40460742 -0.8968812
vn 0.9389042 -0.34257305 -0.03320434
vn 0.8247647 0.34938794 -0.44462472
vn 0.92198026 -0.38666305 -0.02107424
vn -0.1711442 0.95758706 -0.23181207
vn 0.8714029 -0.3521729 -0.34151313
vn 0.8404028 -0.242768 0.4845481
vn 0.6234107 -0.25184304 -0.74022573
vn 0.31334683 -0.3857367 -0.8677678
vn 0.60321426 0.7710602 -0.2039576
vn 0.7758744 0.57381266 -0.26221728
vn 0.7567626 0.63261783 0.16463609
vn -0.32447135 0.9150498 -0.23958778
vn 0.61826116 0.7818926 0.07998223
vn 0.1999661 0.9335756 -0.29740563
vn 0.1999661 0.9335756 -0.29740563
vn 0.65782213 0.509076 0.5550781
vn -0.20944208 0.9295565 0.30341184
vn 0.61826116 0.7818926 0.07998223
vn 0.6789362 0.45548707 0.5758274
vn 0.39794785 -0.009537807 0.9173584
vn 0.27337557 0.25030833 0.92876875
vn 0.6789362 0.45548707 0.5758274
vn 0.8232375 0.20516552 0.52932715
vn 0.7567626 0.63261783 0.16463609
vn 0.61826116 0.7818926 0.07998223
vn 0.96102804 0.27621245 -0.011480788
vn 0.7758744 0.57381266 -0.26221728
vn 0.8247647 0.34938794 -0.44462472
vn 0.9895443 -0.088167295 -0.114143185
vn 0.9039478 -0.00972283 -0.42753235
vn 0.9389042 -0.34257305 -0.03320434
vn 0.90351206 -0.18965146 0.3843155
vn 0.48091674 -0.32377368 0.81479424
vn 0.6729699 -0.43706742 0.5967275
vn 0.92198026 -0.38666305 -0.02107424
vn 0.8404028 -0.242768 0.4845481
vn -0.14965369 -0.18049166 0.9721247
vn 0.96802396 -0.2311946 0.0973591
vn -0.092627466 -0.025016695 0.99538654
vn -0.98934466 -0.087079205 0.11668053
vn -0.14541002 -0.43879482 0.886744
vn -0.9690187 -0.24628618 0.018594772
vn -0.009622149 -0.30586097 -0.95202756
vn -0.3842925 -0.3089484 -0.8699829
vn -0.31527883 -0.42487192 0.8485772
vn -0.5525754 -0.27235293 -0.7877083
vn 0.31334683 -0.3857367 -0.8677678
vn -0.92132 -0.38873574 -0.0073362454
vn -0.49080107 -0.12809311 0.8618042
vn 0.27337557 0.25030833 0.92876875
vn -0.7899486 -0.32570916 0.51951385
vn -0.98387975 -0.15649006 -0.08655303
vn -0.07339402 -0.14138396 -0.98723036
vn 0.6234107 -0.25184304 -0.74022573
vn -0.9884752 0.14138077 -0.05411227
vn -0.6671876 -0.04238923 -0.7436827
vn -0.6547712 0.23082998 -0.71971667
vn -0.2507994 0.08478167 -0.96431935
vn 0.5394272 -0.025841784 -0.8416356
vn 0.17859699 0.40460742 -0.8968812
vn -0.6683997 0.3957204 -0.6297993
vn -0.1711442 0.95758706 -0.23181207
vn -0.32447135 0.9150498 -0.23958778
vn -0.7105884 0.48456016 -0.5101624
vn -0.95346904 0.29992744 -0.030664181
vn -0.539821 0.106788374 0.83497876
vn -0.55469525 0.2394018 0.7968689
vn -0.9081101 0.4145838 0.0587908
vn -0.20944208 0.9295565 0.30341184
vn 0.22061981 0.38895455 0.89445025
vn 0.6789362 0.45548707 0.5758274
vn 0.65782213 0.509076 0.5550781
vn -0.7105884 0.48456016 -0.5101624
vn -0.95346904 0.29992744 -0.030664181
vn -0.9884752 0.14138077 -0.05411227
vn -0.64641714 0.52438027 -0.5542294
vn -0.9081101 0.4145838 0.0587908
vn -0.32447135 0.9150498 -0.23958778
vn -0.20944208 0.9295565 0.30341184
vn 0.1999661 0.9335756 -0.29740563
g NPC_Bone_TailB_001_LOD2_0
f 3/3/3 2/2/2 1/1/1
f 2/2/2 4/4/4 1/1/1
f 4/4/4 5/5/5 1/1/1
f 4/4/4 2/2/2 6/6/6
f 6/6/6 5/5/5 4/4/4
f 9/9/9 8/8/8 7/7/7
f 10/10/10 9/9/9 7/7/7
f 7/7/7 11/11/11 10/10/10
f 14/14/14 13/13/13 12/12/12
f 13/13/13 15/15/15 12/12/12
f 15/15/15 13/13/13 16/16/16
f 17/17/17 12/12/12 15/15/15
f 16/16/16 18/18/18 15/15/15
f 17/17/17 19/19/19 12/12/12
f 16/16/16 20/20/20 18/18/18
f 19/19/19 21/21/21 12/12/12
f 22/22/22 21/21/21 19/19/19
f 12/12/12 21/21/21 23/23/23
f 24/24/24 23/23/23 21/21/21
f 18/18/18 20/20/20 25/25/25
f 26/26/26 18/18/18 25/25/25
f 25/25/25 27/27/27 26/26/26
f 28/28/28 25/25/25 20/20/20
f 27/27/27 25/25/25 28/28/28
f 29/29/29 27/27/27 28/28/28
f 28/28/28 30/30/30 29/29/29
f 33/33/33 32/32/32 31/31/31
f 31/31/31 32/32/32 34/34/34
f 32/32/32 35/35/35 34/34/34
f 38/38/38 37/37/37 36/36/36
f 39/39/39 38/38/38 36/36/36
f 40/40/40 38/38/38 39/39/39
f 38/38/38 40/40/40 41/41/41
f 42/42/42 40/40/40 39/39/39
f 42/42/42 43/43/43 40/40/40
f 42/42/42 44/44/44 43/43/43
f 42/42/42 45/45/45 44/44/44
f 42/42/42 39/39/39 45/45/45
f 46/46/46 44/44/44 45/45/45
f 45/45/45 47/47/47 46/46/46
f 39/39/39 48/48/48 45/45/45
f 47/47/47 45/45/45 48/48/48
f 48/48/48 39/39/39 49/49/49
f 39/39/39 36/36/36 49/49/49
f 47/47/47 48/48/48 50/50/50
f 50/50/50 48/48/48 49/49/49
f 51/51/51 47/47/47 50/50/50
f 50/50/50 52/52/52 51/51/51
f 52/52/52 50/50/50 53/53/53
f 54/54/54 52/52/52 53/53/53
f 55/55/55 54/54/54 53/53/53
f 55/55/55 53/53/53 56/56/56
f 50/50/50 49/49/49 57/57/57
f 50/50/50 57/57/57 53/53/53
f 53/53/53 58/58/58 56/56/56
f 58/58/58 53/53/53 57/57/57
f 56/56/56 58/58/58 59/59/59
f 58/58/58 60/60/60 59/59/59
f 61/61/61 49/49/49 36/36/36
f 49/49/49 61/61/61 57/57/57
f 62/62/62 60/60/60 58/58/58
f 62/62/62 63/63/63 60/60/60
f 64/64/64 58/58/58 57/57/57
f 61/61/61 64/64/64 57/57/57
f 64/64/64 62/62/62 58/58/58
f 61/61/61 36/36/36 65/65/65
f 36/36/36 66/66/66 65/65/65
f 67/67/67 64/64/64 61/61/61
f 61/61/61 65/65/65 67/67/67
f 68/68/68 64/64/64 67/67/67
f 62/62/62 64/64/64 68/68/68
f 69/69/69 63/63/63 62/62/62
f 70/70/70 63/63/63 69/69/69
f 67/67/67 65/65/65 71/71/71
f 71/71/71 68/68/68 67/67/67
f 72/72/72 62/62/62 68/68/68
f 72/72/72 69/69/69 62/62/62
f 72/72/72 68/68/68 73/73/73
f 68/68/68 71/71/71 73/73/73
f 72/72/72 73/73/73 69/69/69
f 69/69/69 74/74/74 70/70/70
f 73/73/73 74/74/74 69/69/69
f 74/74/74 75/75/75 70/70/70
f 75/75/75 74/74/74 76/76/76
f 74/74/74 77/77/77 76/76/76
f 74/74/74 73/73/73 77/77/77
f 76/76/76 77/77/77 78/78/78
f 79/79/79 78/78/78 77/77/77
f 80/80/80 79/79/79 77/77/77
f 77/77/77 73/73/73 80/80/80
f 71/71/71 80/80/80 73/73/73
f 71/71/71 65/65/65 81/81/81
f 65/65/65 82/82/82 81/81/81
f 66/66/66 82/82/82 65/65/65
f 82/82/82 83/83/83 81/81/81
f 83/83/83 82/82/82 66/66/66
f 83/83/83 84/84/84 81/81/81
f 84/84/84 83/83/83 85/85/85
f 86/86/86 83/83/83 66/66/66
f 85/85/85 83/83/83 86/86/86
f 86/86/86 66/66/66 87/87/87
f 86/86/86 88/88/88 85/85/85
f 88/88/88 86/86/86 87/87/87
f 91/91/91 90/90/90 89/89/89
f 92/92/92 89/89/89 90/90/90
f 93/93/93 92/92/92 90/90/90
f 89/89/89 92/92/92 94/94/94
f 93/93/93 95/95/95 92/92/92
f 96/96/96 94/94/94 92/92/92
f 95/95/95 96/96/96 92/92/92
