g SeparateMesh_Monster_Cottus_Model_Cottus_Head_LOD1
v -4.7119917E-09 -0.00019117567 4.1664643
v 7.8032185E-09 0.08980043 4.145924
v 0.05470211 0.068403035 4.145924
v 1.7839648E-08 0.1619681 4.088372
v 0.09856981 0.12341135 4.088372
v 2.3409438E-08 0.20201829 3.9590545
v 0.087735355 0.019833848 4.145924
v 0.12291455 0.1539387 3.9590545
v 1.7839637E-08 0.1619681 3.829737
v 0.15809365 0.035892654 4.088372
v 0.087735355 -0.0202162 4.145924
v 0.0985698 0.12341128 3.829737
v 7.80321E-09 0.089800276 3.772185
v 0.054702085 -0.06878546 4.145924
v -1.4366687E-08 -0.09018278 4.145924
v 0.15809362 -0.036275007 4.088372
v 0.19713953 0.044804554 3.9590545
v 0.09856975 -0.12379377 4.088372
v -2.2109152E-08 -0.1623506 4.088372
v 0.054702096 0.06840295 3.772185
v -4.712001E-09 -0.00019117567 3.7516448
v 0.19713953 -0.045187052 3.9590545
v 0.12291449 -0.15432112 3.9590545
v -2.6405905E-08 -0.20240049 3.9590545
v 0.15809362 0.0358925 3.829737
v 0.09856975 -0.12379376 3.829737
v -2.210916E-08 -0.16235045 3.829737
v 0.1580936 -0.03627516 3.829737
v 0.087735325 0.019833695 3.772185
v 0.087735325 -0.020216353 3.772185
v 0.054702066 -0.06878553 3.772185
v -1.4366696E-08 -0.09018293 3.772185
v -4.7119917E-09 -0.00019117567 4.1664643
v -1.4366687E-08 -0.09018278 4.145924
v -0.054702036 -0.06878546 4.145924
v -2.2109152E-08 -0.1623506 4.088372
v -0.09856966 -0.12379385 4.088372
v -2.6405905E-08 -0.20240049 3.9590545
v -0.08773532 -0.0202162 4.145924
v -0.12291435 -0.1543212 3.9590545
v -2.210916E-08 -0.16235045 3.829737
v -0.15809359 -0.03627516 4.088372
v -0.087735355 0.019833848 4.145924
v -0.09856964 -0.123793915 3.829737
v -1.4366696E-08 -0.09018293 3.772185
v -0.05470211 0.06840311 4.145924
v 7.8032185E-09 0.08980043 4.145924
v -0.15809363 0.0358925 4.088372
v -0.19713949 -0.045187205 3.9590545
v -0.09856977 0.12341135 4.088372
v 1.7839648E-08 0.1619681 4.088372
v -0.054702017 -0.06878553 3.772185
v -4.712001E-09 -0.00019117567 3.7516448
v -0.19713953 0.044804554 3.9590545
v -0.1229145 0.1539387 3.9590545
v 2.3409438E-08 0.20201829 3.9590545
v -0.15809357 -0.03627516 3.829737
v -0.098569766 0.12341128 3.829737
v 1.7839637E-08 0.1619681 3.829737
v -0.1580936 0.0358925 3.829737
v -0.08773529 -0.020216353 3.772185
v -0.08773532 0.019833695 3.772185
v -0.05470209 0.06840295 3.772185
v 7.80321E-09 0.089800276 3.772185
v 0.42051703 1.0152177 5.3473554
v -4.844734E-08 1.1083459 5.3473554
v -6.3954495E-08 1.4631083 5.3466625
v 0.55511737 1.3401718 5.3466625
v -0.55511796 1.3401713 5.3466625
v 0.7837189 0.7837185 5.3473554
v -0.42051744 1.0152175 5.3473554
v 1.034574 1.0345739 5.3466625
v -1.0345749 1.0345733 5.3466625
v 1.0152179 0.42051673 5.3473554
v -0.7837195 0.7837182 5.3473554
v 1.340172 0.555117 5.3466625
v -1.3401723 0.5551165 5.3466625
v 1.108346 -2.882257E-07 5.3473554
v -1.0152181 0.42051616 5.3473554
v 1.4631089 -2.8823501E-07 5.3466625
v -1.4631087 -8.9858656E-07 5.3466625
v 1.0152179 -0.42051733 5.3473554
v -1.1083461 -7.459894E-07 5.3473554
v 1.340172 -0.55511767 5.3466625
v -1.3401719 -0.555118 5.3466625
v 0.7837189 -0.78371924 5.3473554
v -1.0152179 -0.4205177 5.3473554
v 1.034574 -1.0345742 5.3466625
v -1.0345738 -1.0345745 5.3466625
v 0.42051703 -1.015218 5.3473554
v -0.7837187 -0.78371924 5.3473554
v 0.55511737 -1.3401723 5.3466625
v -0.5551173 -1.3401723 5.3466625
v 8.36778E-08 -1.108346 5.3473554
v -0.42051688 -1.0152181 5.3473554
v 1.1046163E-07 -1.4631089 5.3466625
vt 0.77430874 0.11645956
vt 0.79176503 0.11206738
vt 0.7856562 0.10638241
vt 0.8065769 0.10117955
vt 0.79342943 0.09423055
vt 0.81565344 0.07377559
vt 0.7773548 0.10376485
vt 0.7974491 0.07377567
vt 0.8065768 0.046371765
vt 0.7792116 0.091348715
vt 0.7712589 0.10376505
vt 0.79342926 0.053320877
vt 0.7917648 0.035484068
vt 0.76295847 0.10638349
vt 0.7568514 0.11206952
vt 0.76939005 0.09134921
vt 0.7800774 0.07377574
vt 0.7551761 0.094233856
vt 0.74203306 0.10118561
vt 0.7856561 0.041169077
vt 0.7743085 0.031092046
vt 0.7685216 0.07377575
vt 0.75115204 0.07377576
vt 0.73295057 0.07377577
vt 0.7792116 0.05620285
vt 0.7551761 0.05331768
vt 0.7420328 0.046365984
vt 0.7693899 0.056202304
vt 0.77735466 0.043786697
vt 0.7712588 0.043786548
vt 0.76295835 0.041168123
vt 0.75685114 0.03548208
vt 0.80140394 0.21319835
vt 0.8188614 0.2088082
vt 0.8127541 0.20312214
vt 0.8336794 0.19792403
vt 0.8205361 0.19097236
vt 0.8427616 0.1705142
vt 0.80445343 0.20050377
vt 0.8245601 0.17051423
vt 0.8336794 0.14310446
vt 0.80632216 0.18808784
vt 0.79835767 0.20050362
vt 0.820536 0.1500561
vt 0.8188613 0.13222034
vt 0.79005617 0.20312122
vt 0.7839474 0.20880623
vt 0.7965005 0.18808734
vt 0.80719036 0.17051426
vt 0.78228265 0.19096932
vt 0.76913494 0.19791846
vt 0.812754 0.1379064
vt 0.8014038 0.12783022
vt 0.79563457 0.17051424
vt 0.77826285 0.17051423
vt 0.7600584 0.17051423
vt 0.80632216 0.15294072
vt 0.7822826 0.15005913
vt 0.7691348 0.14310998
vt 0.7965005 0.15294115
vt 0.80445343 0.14052482
vt 0.79835755 0.14052497
vt 0.790056 0.13790728
vt 0.7839473 0.13222225
vt 0.546715 0.28563875
vt 0.54504555 0.2860085
vt 0.54504555 0.28741685
vt 0.5472493 0.2869288
vt 0.5428418 0.2869288
vt 0.5481569 0.28471974
vt 0.5433762 0.28563875
vt 0.54915273 0.2857156
vt 0.5409384 0.2857156
vt 0.54907596 0.28327784
vt 0.54193425 0.28471974
vt 0.5503659 0.28381222
vt 0.5397252 0.2838122
vt 0.5494456 0.28160843
vt 0.54101527 0.28327784
vt 0.550854 0.28160843
vt 0.53923714 0.28160843
vt 0.54907596 0.27993903
vt 0.54064554 0.28160843
vt 0.5503659 0.27940464
vt 0.5397252 0.27940464
vt 0.5481569 0.27849713
vt 0.54101527 0.27993903
vt 0.54915273 0.27750126
vt 0.5409384 0.27750126
vt 0.546715 0.27757812
vt 0.54193425 0.27849713
vt 0.5472493 0.2762881
vt 0.5428418 0.2762881
vt 0.54504555 0.2772084
vt 0.5433762 0.27757812
vt 0.54504555 0.27580002
vn -0 0 1
vn 1.3696712E-07 0.47461942 0.880191
vn 0.29634616 0.3716063 0.8798225
vn -0 0.8455242 0.5339371
vn 0.5280891 0.6622022 0.531611
vn -0 1 -1.4799323E-07
vn 0.44602954 0.14163163 0.8837411
vn 0.6234902 0.78183115 -2.0223365E-07
vn -0 0.845524 -0.5339374
vn 0.8052939 0.24769062 0.5386567
vn 0.44602948 -0.14163163 0.88374096
vn 0.52808905 0.6622018 -0.5316114
vn -0 0.47461915 -0.8801913
vn 0.29634616 -0.3716063 0.8798225
vn -0 -0.47461912 0.8801913
vn 0.8052938 -0.24769068 0.53865683
vn 0.95685184 0.2905764 -1.6433597E-07
vn 0.52808887 -0.66220236 0.531611
vn -0 -0.8455245 0.5339368
vn 0.2963463 0.37160617 -0.8798225
vn -0 3.38484E-07 -1
vn 0.9568517 -0.29057673 0
vn 0.62348974 -0.78183156 0
vn -0 -1 -1.8783732E-07
vn 0.8052938 0.24769029 -0.53865695
vn 0.5280886 -0.66220266 -0.5316108
vn 1.4928482E-07 -0.84552455 -0.53393656
vn 0.80529374 -0.24769093 -0.5386569
vn 0.4460296 0.14163142 -0.8837411
vn 0.44602945 -0.14163183 -0.88374096
vn 0.29634613 -0.37160662 -0.87982243
vn -0 -0.47461966 -0.88019097
vn -0 0 1
vn -0 -0.47461912 0.8801913
vn -0.29634604 -0.3716062 0.8798226
vn -0 -0.8455245 0.5339368
vn -0.52808845 -0.6622026 0.531611
vn -0 -1 -1.8783732E-07
vn -0.44602934 -0.14163178 0.8837411
vn -0.6234893 -0.78183186 0
vn 1.4928482E-07 -0.84552455 -0.53393656
vn -0.80529356 -0.24769123 0.53865683
vn -0.4460297 0.1416315 0.88374096
vn -0.52808833 -0.6622029 -0.5316108
vn -0 -0.47461966 -0.88019097
vn -0.2963463 0.3716066 0.87982243
vn 1.3696712E-07 0.47461942 0.880191
vn -0.805294 0.24769019 0.5386568
vn -0.9568515 -0.29057726 0
vn -0.5280891 0.6622022 0.53161097
vn -0 0.8455242 0.5339371
vn -0.29634604 -0.3716064 -0.8798225
vn -0 3.38484E-07 -1
vn -0.95685184 0.29057637 -1.0407947E-07
vn -0.62349015 0.78183115 -1.2571279E-07
vn -0 1 -1.4799323E-07
vn -0.8052937 -0.2476911 -0.53865695
vn -0.5280891 0.6622019 -0.53161126
vn -0 0.845524 -0.5339374
vn -0.8052938 0.24769028 -0.53865695
vn -0.44602945 -0.14163193 -0.8837411
vn -0.4460296 0.14163132 -0.88374096
vn -0.29634637 0.37160632 -0.8798225
vn -0 0.47461915 -0.8801913
vn 0.0007537169 0.0018196332 0.9999981
vn -0 0.0019527079 0.9999981
vn -0 0.0019527079 0.9999981
vn 0.00075371674 0.0018196334 0.9999981
vn -0.00075371756 0.0018196339 0.9999981
vn 0.0013807721 0.0013807717 0.9999981
vn -0.0007537173 0.0018196336 0.9999981
vn 0.0013807719 0.001380772 0.9999981
vn -0.0013807727 0.0013807712 0.9999981
vn 0.0018196324 0.0007537169 0.9999981
vn -0.0013807728 0.0013807713 0.9999981
vn 0.0018196325 0.00075371674 0.9999981
vn -0.0018196336 0.0007537157 0.9999981
vn 0.001952706 0 0.9999981
vn -0.0018196339 0.00075371546 0.9999981
vn 0.0019527058 0 0.9999981
vn -0.0019527074 0 0.9999981
vn 0.0018196322 -0.00075371703 0.9999981
vn -0.0019527074 0 0.9999981
vn 0.0018196324 -0.0007537168 0.9999981
vn -0.0018196327 -0.0007537174 0.9999981
vn 0.001380772 -0.0013807726 0.9999981
vn -0.0018196326 -0.0007537178 0.9999981
vn 0.0013807721 -0.0013807724 0.9999981
vn -0.0013807719 -0.0013807729 0.9999981
vn 0.00075371674 -0.0018196328 0.9999981
vn -0.0013807719 -0.0013807728 0.9999981
vn 0.0007537164 -0.0018196327 0.9999981
vn -0.00075371645 -0.0018196326 0.9999981
vn -0 -0.001952706 0.9999981
vn -0.0007537163 -0.0018196326 0.9999981
vn -0 -0.0019527061 0.9999981
g SeparateMesh_Monster_Cottus_Model_Cottus_Head_LOD1_0
f 3/3/3 2/2/2 1/1/1
f 4/4/4 2/2/2 3/3/3
f 5/5/5 4/4/4 3/3/3
f 6/6/6 4/4/4 5/5/5
f 7/7/7 3/3/3 1/1/1
f 5/5/5 3/3/3 7/7/7
f 8/8/8 6/6/6 5/5/5
f 9/9/9 6/6/6 8/8/8
f 10/10/10 5/5/5 7/7/7
f 8/8/8 5/5/5 10/10/10
f 11/11/11 7/7/7 1/1/1
f 10/10/10 7/7/7 11/11/11
f 12/12/12 9/9/9 8/8/8
f 13/13/13 9/9/9 12/12/12
f 14/14/14 11/11/11 1/1/1
f 15/15/15 14/14/14 1/1/1
f 16/16/16 10/10/10 11/11/11
f 16/16/16 11/11/11 14/14/14
f 17/17/17 8/8/8 10/10/10
f 12/12/12 8/8/8 17/17/17
f 17/17/17 10/10/10 16/16/16
f 18/18/18 14/14/14 15/15/15
f 18/18/18 16/16/16 14/14/14
f 19/19/19 18/18/18 15/15/15
f 20/20/20 13/13/13 12/12/12
f 13/13/13 20/20/20 21/21/21
f 22/22/22 17/17/17 16/16/16
f 22/22/22 16/16/16 18/18/18
f 23/23/23 18/18/18 19/19/19
f 23/23/23 22/22/22 18/18/18
f 24/24/24 23/23/23 19/19/19
f 25/25/25 12/12/12 17/17/17
f 20/20/20 12/12/12 25/25/25
f 25/25/25 17/17/17 22/22/22
f 26/26/26 23/23/23 24/24/24
f 27/27/27 26/26/26 24/24/24
f 28/28/28 22/22/22 23/23/23
f 28/28/28 25/25/25 22/22/22
f 26/26/26 28/28/28 23/23/23
f 29/29/29 20/20/20 25/25/25
f 29/29/29 25/25/25 28/28/28
f 20/20/20 29/29/29 21/21/21
f 30/30/30 29/29/29 28/28/28
f 30/30/30 28/28/28 26/26/26
f 29/29/29 30/30/30 21/21/21
f 31/31/31 26/26/26 27/27/27
f 31/31/31 30/30/30 26/26/26
f 30/30/30 31/31/31 21/21/21
f 32/32/32 31/31/31 27/27/27
f 31/31/31 32/32/32 21/21/21
f 35/35/35 34/34/34 33/33/33
f 36/36/36 34/34/34 35/35/35
f 37/37/37 36/36/36 35/35/35
f 38/38/38 36/36/36 37/37/37
f 39/39/39 35/35/35 33/33/33
f 37/37/37 35/35/35 39/39/39
f 40/40/40 38/38/38 37/37/37
f 41/41/41 38/38/38 40/40/40
f 42/42/42 37/37/37 39/39/39
f 40/40/40 37/37/37 42/42/42
f 43/43/43 39/39/39 33/33/33
f 42/42/42 39/39/39 43/43/43
f 44/44/44 41/41/41 40/40/40
f 45/45/45 41/41/41 44/44/44
f 46/46/46 43/43/43 33/33/33
f 47/47/47 46/46/46 33/33/33
f 48/48/48 42/42/42 43/43/43
f 48/48/48 43/43/43 46/46/46
f 49/49/49 40/40/40 42/42/42
f 44/44/44 40/40/40 49/49/49
f 49/49/49 42/42/42 48/48/48
f 50/50/50 46/46/46 47/47/47
f 50/50/50 48/48/48 46/46/46
f 51/51/51 50/50/50 47/47/47
f 52/52/52 45/45/45 44/44/44
f 45/45/45 52/52/52 53/53/53
f 54/54/54 49/49/49 48/48/48
f 54/54/54 48/48/48 50/50/50
f 55/55/55 50/50/50 51/51/51
f 55/55/55 54/54/54 50/50/50
f 56/56/56 55/55/55 51/51/51
f 57/57/57 44/44/44 49/49/49
f 52/52/52 44/44/44 57/57/57
f 57/57/57 49/49/49 54/54/54
f 58/58/58 55/55/55 56/56/56
f 59/59/59 58/58/58 56/56/56
f 60/60/60 54/54/54 55/55/55
f 60/60/60 57/57/57 54/54/54
f 58/58/58 60/60/60 55/55/55
f 61/61/61 52/52/52 57/57/57
f 61/61/61 57/57/57 60/60/60
f 52/52/52 61/61/61 53/53/53
f 62/62/62 61/61/61 60/60/60
f 62/62/62 60/60/60 58/58/58
f 61/61/61 62/62/62 53/53/53
f 63/63/63 58/58/58 59/59/59
f 63/63/63 62/62/62 58/58/58
f 62/62/62 63/63/63 53/53/53
f 64/64/64 63/63/63 59/59/59
f 63/63/63 64/64/64 53/53/53
f 67/67/67 66/66/66 65/65/65
f 68/68/68 67/67/67 65/65/65
f 67/67/67 69/69/69 66/66/66
f 68/68/68 65/65/65 70/70/70
f 69/69/69 71/71/71 66/66/66
f 72/72/72 68/68/68 70/70/70
f 69/69/69 73/73/73 71/71/71
f 72/72/72 70/70/70 74/74/74
f 73/73/73 75/75/75 71/71/71
f 76/76/76 72/72/72 74/74/74
f 73/73/73 77/77/77 75/75/75
f 76/76/76 74/74/74 78/78/78
f 77/77/77 79/79/79 75/75/75
f 80/80/80 76/76/76 78/78/78
f 77/77/77 81/81/81 79/79/79
f 80/80/80 78/78/78 82/82/82
f 81/81/81 83/83/83 79/79/79
f 84/84/84 80/80/80 82/82/82
f 81/81/81 85/85/85 83/83/83
f 84/84/84 82/82/82 86/86/86
f 85/85/85 87/87/87 83/83/83
f 88/88/88 84/84/84 86/86/86
f 85/85/85 89/89/89 87/87/87
f 88/88/88 86/86/86 90/90/90
f 89/89/89 91/91/91 87/87/87
f 92/92/92 88/88/88 90/90/90
f 89/89/89 93/93/93 91/91/91
f 92/92/92 90/90/90 94/94/94
f 93/93/93 95/95/95 91/91/91
f 96/96/96 92/92/92 94/94/94
f 96/96/96 94/94/94 95/95/95
f 93/93/93 96/96/96 95/95/95
