g SeparateMesh_NPC_Eve_Model_Eve_Glass_LOD2
v 0.009506389 -0.08165054 1.4013625
v -0 -0.08399897 1.3966234
v -0 -0.084626235 1.4017044
v 0.009037241 -0.08088665 1.3954059
v 0.011377509 -0.08126886 1.3865176
v 0.0130293295 -0.08158314 1.3979335
v 0.015468091 -0.08128087 1.3878912
v 0.016251741 -0.0808064 1.4044309
v 0.015855445 -0.08036072 1.3787469
v 0.012601027 -0.08078147 1.4076731
v 0.019298537 -0.08053584 1.3813974
v 0.02336939 -0.07943909 1.4068687
v 0.025415858 -0.078501135 1.3716681
v 0.021626217 -0.079061605 1.4114181
v 0.027065532 -0.07891903 1.3758215
v 0.039429896 -0.07621782 1.4080288
v 0.03961878 -0.075487 1.4126707
v 0.051516064 -0.07377301 1.4062066
v 0.0532255 -0.07283233 1.4108315
v 0.034839157 -0.07676735 1.3691838
v 0.03523502 -0.07743919 1.3737338
v 0.058794558 -0.072137564 1.4039694
v 0.041394055 -0.07638379 1.3739097
v 0.041702047 -0.07558327 1.3697599
v 0.048372705 -0.07447882 1.370871
v 0.047197714 -0.07527496 1.3748409
v 0.05211907 -0.0742858 1.3776141
v 0.054694578 -0.073459335 1.3745097
v 0.058195837 -0.072671056 1.3786459
v 0.054828975 -0.07373562 1.3817449
v 0.06026544 -0.07208102 1.3851985
v 0.056240432 -0.07333575 1.3870544
v 0.058669627 -0.07220484 1.3981848
v 0.06259767 -0.07148745 1.3947065
v 0.061805673 -0.07124563 1.4076403
v 0.06596347 -0.06930039 1.4063772
v 0.06557249 -0.069429964 1.3965418
v 0.06596347 -0.06930039 1.4063772
v 0.07206517 0.019821571 1.4033734
v 0.06557249 -0.069429964 1.3965418
v 0.07315251 0.024979422 1.4093399
v 0.07191992 0.026170515 1.4006032
v 0.072940424 0.031747367 1.4057895
v 0.06878737 0.04110144 1.3887984
v 0.06871544 0.031495336 1.3866487
v 0.06731439 0.035823584 1.3812966
v 0.06724894 0.041414402 1.3822457
v -0.009506389 -0.08165054 1.4013625
v -0 -0.084626235 1.4017044
v -0 -0.08399897 1.3966234
v -0.009037241 -0.08088665 1.3954059
v -0.011377509 -0.08126886 1.3865176
v -0.013069622 -0.0815038 1.3979334
v -0.015468091 -0.08128087 1.3878912
v -0.016251745 -0.0808064 1.4044309
v -0.01585545 -0.08036072 1.3787469
v -0.012638039 -0.08078147 1.4076616
v -0.019298537 -0.08053584 1.3813974
v -0.023369392 -0.07943909 1.4068687
v -0.025415858 -0.078501135 1.3716681
v -0.021626217 -0.079061605 1.4114181
v -0.027065875 -0.078920834 1.3758218
v -0.039429896 -0.07621782 1.4080288
v -0.03961878 -0.075487 1.4126707
v -0.051516064 -0.07377301 1.4062066
v -0.0532255 -0.07283233 1.4108315
v -0.058794558 -0.072137564 1.4039694
v -0.034839157 -0.07676735 1.3691838
v -0.03523066 -0.07741306 1.373732
v -0.061805673 -0.07124563 1.4076403
v -0.041394055 -0.07638379 1.3739097
v -0.041702047 -0.07558327 1.3697599
v -0.048372705 -0.07447882 1.370871
v -0.04719677 -0.07542424 1.3748469
v -0.05211907 -0.07454093 1.3776141
v -0.054694578 -0.073459335 1.3745097
v -0.05819583 -0.072671056 1.3786459
v -0.054833844 -0.073882505 1.3817445
v -0.06026544 -0.07208102 1.3851985
v -0.056240432 -0.07333575 1.3870544
v -0.058669627 -0.07220484 1.3981848
v -0.06259767 -0.07148745 1.3947065
v -0.06557249 -0.069429964 1.3965418
v -0.06596347 -0.06930039 1.4063772
v -0.07219578 0.019821571 1.4033734
v -0.06596347 -0.06930039 1.4063772
v -0.06557249 -0.069429964 1.3965418
v -0.07328313 0.024979422 1.4093399
v -0.072050534 0.026170515 1.4006032
v -0.07307104 0.031747367 1.4057895
v -0.06891799 0.04110144 1.3887984
v -0.068846054 0.031495336 1.3866487
v -0.067838676 0.035823584 1.3812966
v -0.06777324 0.041414402 1.3822457
v 0.059423845 -0.070808336 1.3970895
v 0.05514036 -0.07151168 1.4071934
v 0.060143452 -0.07054534 1.4043626
v 0.057149854 -0.071570806 1.3834312
v 0.04589086 -0.07336181 1.4087889
v 0.050473187 -0.07303663 1.3747386
v 0.03721094 -0.07515895 1.4102219
v 0.036992002 -0.07526086 1.3722566
v 0.021232974 -0.07844855 1.376368
v 0.023436418 -0.07800981 1.4078246
v 0.011885603 -0.08028828 1.3922682
v 0.01367963 -0.08003243 1.4038705
v 0.01113024 -0.0804575 1.3993793
v -0.059423845 -0.070808336 1.3970895
v -0.060143452 -0.07054534 1.4043626
v -0.05514036 -0.07151168 1.4071934
v -0.057149854 -0.071570806 1.3834312
v -0.04589086 -0.07336181 1.4087889
v -0.050473187 -0.07303663 1.3747386
v -0.03721094 -0.07515895 1.4102219
v -0.036992002 -0.07526086 1.3722566
v -0.021232974 -0.07844855 1.376368
v -0.023436418 -0.07800981 1.4078246
v -0.011885603 -0.08028828 1.3922682
v -0.01367963 -0.08003243 1.4038705
v -0.01113024 -0.0804575 1.3993793
vt 0.5463014 0.5909957
vt 0.51323724 0.57079625
vt 0.5135068 0.5908537
vt 0.5473372 0.57079625
vt 0.56105775 0.5525809
vt 0.55975187 0.58239555
vt 0.5699372 0.55989623
vt 0.56972474 0.60310876
vt 0.58175 0.53738815
vt 0.5612256 0.6114582
vt 0.58838725 0.54662126
vt 0.59366214 0.61517125
vt 0.6155686 0.5236707
vt 0.5877118 0.625418
vt 0.61816216 0.53439623
vt 0.6466372 0.63079625
vt 0.6459896 0.6423382
vt 0.6890372 0.62209624
vt 0.6936844 0.63283265
vt 0.6443413 0.5190872
vt 0.6442872 0.5299462
vt 0.71323717 0.61099625
vt 0.6625372 0.52809626
vt 0.6644896 0.51764965
vt 0.6820951 0.52483946
vt 0.6783372 0.53484625
vt 0.6941372 0.54159623
vt 0.7016938 0.53363144
vt 0.7097016 0.5478614
vt 0.7012372 0.55534625
vt 0.7185493 0.565364
vt 0.7083372 0.56909627
vt 0.7142372 0.59379625
vt 0.72640884 0.5839657
vt 0.724481 0.623708
vt 0.7411381 0.6235456
vt 0.74242944 0.58876514
vt 0.7044742 0.7208534
vt 0.5488269 0.7064979
vt 0.7045357 0.70633405
vt 0.53886014 0.7208827
vt 0.5372031 0.7027804
vt 0.52602696 0.71332085
vt 0.50809634 0.6807337
vt 0.52694 0.67610353
vt 0.51830035 0.6658612
vt 0.50772864 0.66790897
vt 0.5469274 0.5907129
vt 0.51293623 0.5907873
vt 0.51323724 0.57079625
vt 0.5473372 0.57079625
vt 0.56104255 0.5523616
vt 0.559943 0.58271325
vt 0.5699372 0.55989623
vt 0.56972474 0.60310876
vt 0.5818729 0.5370384
vt 0.5605346 0.6115114
vt 0.58838725 0.54662126
vt 0.59366214 0.61517125
vt 0.6157065 0.52337056
vt 0.5874479 0.6253111
vt 0.61816216 0.53439623
vt 0.6466372 0.63079625
vt 0.6463333 0.64261246
vt 0.6890372 0.62209624
vt 0.6935346 0.63290167
vt 0.71323717 0.61099625
vt 0.6446098 0.51878375
vt 0.6442872 0.5299462
vt 0.7243759 0.6236579
vt 0.6625372 0.52809626
vt 0.66418403 0.517647
vt 0.6825072 0.5247805
vt 0.6783372 0.53484625
vt 0.6941372 0.54159623
vt 0.70146537 0.53349596
vt 0.71002316 0.54806733
vt 0.7012372 0.55534625
vt 0.71841574 0.56542367
vt 0.7083372 0.56909627
vt 0.7142372 0.59379625
vt 0.7265498 0.58402556
vt 0.74144787 0.5860592
vt 0.74148977 0.6217431
vt 0.54884887 0.706453
vt 0.70439994 0.72084695
vt 0.70443 0.7063486
vt 0.53878903 0.72083133
vt 0.5371047 0.7027321
vt 0.52604353 0.7133354
vt 0.50809467 0.6807154
vt 0.5269493 0.67611545
vt 0.51865184 0.6656204
vt 0.50771064 0.6679208
vt 0.7000372 0.5835962
vt 0.6917372 0.60639626
vt 0.70313716 0.5985962
vt 0.6910372 0.5651962
vt 0.6696372 0.61359626
vt 0.6735372 0.54699624
vt 0.6482748 0.61492324
vt 0.6469902 0.54306227
vt 0.6092484 0.5486995
vt 0.61421907 0.60940886
vt 0.5872372 0.5745962
vt 0.5902372 0.6025962
vt 0.5840372 0.5917962
vt 0.7000372 0.5835962
vt 0.70313716 0.5985962
vt 0.6917372 0.60639626
vt 0.6910372 0.5651962
vt 0.6696372 0.61359626
vt 0.6735372 0.54699624
vt 0.6482748 0.61492324
vt 0.6469902 0.54306227
vt 0.60908514 0.54868644
vt 0.61421907 0.60940886
vt 0.5872372 0.5745962
vt 0.5902372 0.6025962
vt 0.5840372 0.5917962
vn 0.124015845 -0.9920919 -0.019334897
vn -0 -0.9904108 -0.13815412
vn -0 -0.9904108 -0.13815413
vn -0.19985141 -0.9742508 -0.10437829
vn -0.009625393 -0.99787605 -0.06442605
vn 0.028001476 -0.9995615 0.009633078
vn 0.014496454 -0.9978115 -0.06451429
vn 0.11067559 -0.9870754 0.115901664
vn 0.056295622 -0.99070287 -0.12384964
vn 0.10751177 -0.9878642 0.11209663
vn 0.058992717 -0.9902451 -0.12623222
vn 0.16041414 -0.97623354 0.14572349
vn 0.11439476 -0.98154885 -0.15321793
vn 0.15614504 -0.9769951 0.1452563
vn 0.111766845 -0.9818827 -0.15301748
vn 0.19697106 -0.9703581 0.14002694
vn 0.19759318 -0.9702861 0.13964961
vn 0.21799132 -0.9696377 0.11082692
vn 0.21949519 -0.96980053 0.10634279
vn 0.15779832 -0.97432005 -0.1606241
vn 0.15691157 -0.9745054 -0.16036814
vn 0.22585757 -0.97279435 0.051570304
vn 0.18666808 -0.9692654 -0.16024841
vn 0.18664226 -0.9692681 -0.16026294
vn 0.213339 -0.9685828 -0.12780333
vn 0.21376273 -0.96858126 -0.12710541
vn 0.24701421 -0.96644676 -0.07045997
vn 0.24705641 -0.9664414 -0.07038572
vn 0.2768664 -0.96053183 -0.026899792
vn 0.2819521 -0.9591907 -0.021361073
vn 0.27668688 -0.96093917 0.0063422476
vn 0.27285478 -0.9620124 0.009072814
vn 0.23473686 -0.9717762 0.023448693
vn 0.31782156 -0.94787514 0.022850946
vn 0.33084336 -0.9425053 0.04718584
vn 0.8280242 -0.5601875 -0.023787007
vn 0.7914141 -0.61102694 -0.017601337
vn 0.8280242 -0.5601875 -0.023787007
vn 0.99349916 -0.060919955 -0.09616829
vn 0.7914141 -0.61102694 -0.017601337
vn 0.9912341 -0.051749058 -0.12156069
vn 0.9835042 -0.004528396 -0.18082844
vn 0.9833415 -0.003537744 -0.18173346
vn 0.974799 0.03976944 -0.21951193
vn 0.9750484 0.03841851 -0.21864273
vn 0.97380245 0.04503082 -0.22289222
vn 0.97380245 0.045030825 -0.22289222
vn -0.12734601 -0.9916088 -0.022246206
vn -0 -0.9904108 -0.13815413
vn -0 -0.9904108 -0.13815412
vn 0.19985141 -0.9742508 -0.10437829
vn 0.004013887 -0.998071 -0.061953474
vn -0.03716602 -0.999252 0.010679249
vn -0.020164078 -0.99787486 -0.061961267
vn -0.112450995 -0.9873209 0.11203676
vn -0.05620587 -0.99070096 -0.12390572
vn -0.109612204 -0.9881024 0.10788381
vn -0.05889485 -0.990243 -0.12629412
vn -0.16054477 -0.9762273 0.1456214
vn -0.11545996 -0.981601 -0.15208043
vn -0.15632069 -0.9769845 0.14513782
vn -0.11270482 -0.9819333 -0.15200177
vn -0.19697103 -0.9703581 0.14002694
vn -0.19759315 -0.9702861 0.13964963
vn -0.2179913 -0.9696377 0.11082691
vn -0.21949519 -0.96980053 0.10634279
vn -0.22585757 -0.97279435 0.051570304
vn -0.1578353 -0.97473335 -0.15805963
vn -0.15704806 -0.97489965 -0.15781815
vn -0.33084333 -0.9425053 0.047185827
vn -0.1813867 -0.96892303 -0.16818735
vn -0.18135414 -0.9689332 -0.1681637
vn -0.21626997 -0.96324414 -0.15933661
vn -0.21686433 -0.96316016 -0.15903585
vn -0.27454132 -0.9560589 -0.10285121
vn -0.2749703 -0.95600146 -0.10223801
vn -0.30860522 -0.9505121 -0.035908837
vn -0.31055284 -0.95018137 -0.026688594
vn -0.28792387 -0.9576089 0.009223262
vn -0.2822238 -0.95928055 0.011426526
vn -0.23473686 -0.9717762 0.023448693
vn -0.31782156 -0.94787514 0.022850944
vn -0.7910729 -0.6114754 -0.01736447
vn -0.8276632 -0.56073236 -0.023515953
vn -0.99347186 -0.06185545 -0.09585196
vn -0.8276632 -0.56073236 -0.023515953
vn -0.7910729 -0.6114754 -0.01736447
vn -0.9912286 -0.052201204 -0.12141243
vn -0.9835042 -0.0045283847 -0.18082844
vn -0.9833415 -0.003537731 -0.18173347
vn -0.98127985 0.033668026 -0.18962169
vn -0.9800411 0.033768207 -0.19590577
vn -0.98569494 0.033267215 -0.1652232
vn -0.98569494 0.033267215 -0.1652232
vn 0.20472206 -0.9786421 0.018666193
vn 0.19916819 -0.9797974 0.018139865
vn 0.20472208 -0.9786421 0.018666195
vn 0.19699459 -0.9802405 0.017933883
vn 0.18548465 -0.9825758 0.011843776
vn 0.18414398 -0.9828367 0.0110905785
vn 0.18920094 -0.98192936 0.0042189416
vn 0.18904473 -0.98195916 0.0042690043
vn 0.19940792 -0.9799166 -0.00015928251
vn 0.19895542 -0.98000836 -0.000540591
vn 0.19440982 -0.9809167 -0.002697597
vn 0.19319561 -0.98115623 -0.0028319375
vn 0.1731097 -0.98488957 -0.0050487895
vn -0.20472202 -0.9786421 0.018666195
vn -0.20472206 -0.9786421 0.018666197
vn -0.19916819 -0.9797974 0.018139865
vn -0.19699456 -0.9802405 0.017933883
vn -0.18548465 -0.9825758 0.011843776
vn -0.18414398 -0.9828367 0.011090577
vn -0.18920094 -0.98192936 0.004218941
vn -0.18904476 -0.98195916 0.004269004
vn -0.19940794 -0.9799166 -0.00015928222
vn -0.19895543 -0.98000836 -0.0005405905
vn -0.19440982 -0.9809167 -0.0026975963
vn -0.1931956 -0.98115623 -0.002831937
vn -0.1731097 -0.98488957 -0.0050487895
g SeparateMesh_NPC_Eve_Model_Eve_Glass_LOD2_0
f 3/3/3 2/2/2 1/1/1
f 2/2/2 4/4/4 1/1/1
f 5/5/5 1/1/1 4/4/4
f 1/1/1 5/5/5 6/6/6
f 5/5/5 7/7/7 6/6/6
f 1/1/1 6/6/6 8/8/8
f 5/5/5 9/9/9 7/7/7
f 10/10/10 1/1/1 8/8/8
f 9/9/9 11/11/11 7/7/7
f 8/8/8 12/12/12 10/10/10
f 9/9/9 13/13/13 11/11/11
f 12/12/12 14/14/14 10/10/10
f 13/13/13 15/15/15 11/11/11
f 12/12/12 16/16/16 14/14/14
f 16/16/16 17/17/17 14/14/14
f 16/16/16 18/18/18 17/17/17
f 18/18/18 19/19/19 17/17/17
f 13/13/13 20/20/20 15/15/15
f 20/20/20 21/21/21 15/15/15
f 18/18/18 22/22/22 19/19/19
f 21/21/21 20/20/20 23/23/23
f 20/20/20 24/24/24 23/23/23
f 24/24/24 25/25/25 23/23/23
f 25/25/25 26/26/26 23/23/23
f 26/26/26 25/25/25 27/27/27
f 25/25/25 28/28/28 27/27/27
f 27/27/27 28/28/28 29/29/29
f 30/30/30 27/27/27 29/29/29
f 30/30/30 29/29/29 31/31/31
f 32/32/32 30/30/30 31/31/31
f 32/32/32 31/31/31 33/33/33
f 31/31/31 34/34/34 33/33/33
f 22/22/22 33/33/33 34/34/34
f 35/35/35 22/22/22 34/34/34
f 22/22/22 35/35/35 19/19/19
f 36/36/36 35/35/35 34/34/34
f 37/37/37 36/36/36 34/34/34
f 40/40/40 39/39/39 38/38/38
f 39/39/39 41/41/41 38/38/38
f 39/39/39 42/42/42 41/41/41
f 42/42/42 43/43/43 41/41/41
f 43/43/43 42/42/42 44/44/44
f 42/42/42 45/45/45 44/44/44
f 45/45/45 46/46/46 44/44/44
f 46/46/46 47/47/47 44/44/44
f 50/50/50 49/49/49 48/48/48
f 51/51/51 50/50/50 48/48/48
f 48/48/48 52/52/52 51/51/51
f 52/52/52 48/48/48 53/53/53
f 54/54/54 52/52/52 53/53/53
f 55/55/55 53/53/53 48/48/48
f 52/52/52 54/54/54 56/56/56
f 57/57/57 55/55/55 48/48/48
f 54/54/54 58/58/58 56/56/56
f 55/55/55 57/57/57 59/59/59
f 56/56/56 58/58/58 60/60/60
f 57/57/57 61/61/61 59/59/59
f 58/58/58 62/62/62 60/60/60
f 63/63/63 59/59/59 61/61/61
f 64/64/64 63/63/63 61/61/61
f 65/65/65 63/63/63 64/64/64
f 66/66/66 65/65/65 64/64/64
f 67/67/67 65/65/65 66/66/66
f 60/60/60 62/62/62 68/68/68
f 62/62/62 69/69/69 68/68/68
f 70/70/70 67/67/67 66/66/66
f 69/69/69 71/71/71 68/68/68
f 71/71/71 72/72/72 68/68/68
f 72/72/72 71/71/71 73/73/73
f 71/71/71 74/74/74 73/73/73
f 73/73/73 74/74/74 75/75/75
f 76/76/76 73/73/73 75/75/75
f 77/77/77 76/76/76 75/75/75
f 78/78/78 77/77/77 75/75/75
f 79/79/79 77/77/77 78/78/78
f 80/80/80 79/79/79 78/78/78
f 79/79/79 80/80/80 81/81/81
f 67/67/67 70/70/70 81/81/81
f 82/82/82 79/79/79 81/81/81
f 70/70/70 82/82/82 81/81/81
f 83/83/83 82/82/82 70/70/70
f 84/84/84 83/83/83 70/70/70
f 87/87/87 86/86/86 85/85/85
f 86/86/86 88/88/88 85/85/85
f 89/89/89 85/85/85 88/88/88
f 90/90/90 89/89/89 88/88/88
f 89/89/89 90/90/90 91/91/91
f 92/92/92 89/89/89 91/91/91
f 93/93/93 92/92/92 91/91/91
f 94/94/94 93/93/93 91/91/91
g SeparateMesh_NPC_Eve_Model_Eve_Glass_LOD2_1
f 97/97/97 96/96/96 95/95/95
f 96/96/96 98/98/98 95/95/95
f 96/96/96 99/99/99 98/98/98
f 99/99/99 100/100/100 98/98/98
f 99/99/99 101/101/101 100/100/100
f 101/101/101 102/102/102 100/100/100
f 102/102/102 101/101/101 103/103/103
f 101/101/101 104/104/104 103/103/103
f 103/103/103 104/104/104 105/105/105
f 104/104/104 106/106/106 105/105/105
f 107/107/107 105/105/105 106/106/106
f 110/110/110 109/109/109 108/108/108
f 111/111/111 110/110/110 108/108/108
f 112/112/112 110/110/110 111/111/111
f 113/113/113 112/112/112 111/111/111
f 114/114/114 112/112/112 113/113/113
f 115/115/115 114/114/114 113/113/113
f 114/114/114 115/115/115 116/116/116
f 117/117/117 114/114/114 116/116/116
f 117/117/117 116/116/116 118/118/118
f 119/119/119 117/117/117 118/118/118
f 118/118/118 120/120/120 119/119/119
