g NPC_Female_Size02_Body_024_LOD3
v 0.015519693 0.023066826 1.3953879
v -0 0.015579169 1.3889813
v -0 0.016224217 1.4121088
v 0.017333813 0.02697228 1.4178208
v 0.031293288 0.053539265 1.4038688
v 0.026436623 0.052610952 1.4241613
v 0.021572288 0.022591436 1.4367272
v -0 0.0114855 1.4272641
v 0.029061312 0.053055856 1.4519856
v 0.017106928 0.0083204815 1.4370703
v -0 0.00392562 1.4313853
v 0.031388316 0.013010448 1.4447764
v 0.04313781 0.017301943 1.4553411
v 0.04573065 0.029085938 1.4621818
v 0.0409939 0.04655341 1.4654018
v 0.054273747 0.03740821 1.4795898
v 0.054467876 0.022626247 1.4748985
v 0.054273747 0.03740821 1.4795898
v 0.031293288 0.053539265 1.4038688
v -0 0.069320574 1.4242666
v -2.2791847E-11 0.07268441 1.3980709
v 0.026436623 0.052610952 1.4241613
v -0 0.07299576 1.4538217
v 0.029061312 0.053055856 1.4519856
v -0.015519693 0.023066826 1.3953879
v -0 0.016224217 1.4121088
v -0 0.015579169 1.3889813
v -0.017333813 0.02697228 1.4178208
v -0.031293288 0.053539265 1.4038688
v -0.026436623 0.052610952 1.4241613
v -0.021572288 0.022591436 1.4367272
v -0 0.0114855 1.4272641
v -0.029061312 0.053055856 1.4519856
v -0.01710922 0.008318135 1.4370681
v -0 0.00392562 1.4313853
v -0.0313884 0.013010119 1.4447763
v -0.043141264 0.017301729 1.4553411
v -0.04573065 0.029085938 1.4621818
v -0.0409939 0.04655341 1.4654018
v -0.054273747 0.03740821 1.4795898
v -0.054467876 0.022626247 1.4748985
v -0.054273747 0.03740821 1.4795898
v -0 0.069320574 1.4242666
v -0.031293288 0.053539265 1.4038688
v -2.2791847E-11 0.07268441 1.3980709
v -0.026436623 0.052610952 1.4241613
v -0 0.07299576 1.4538217
v -0.029061312 0.053055856 1.4519856
v -0 0.07299576 1.4538217
v 0.03693664 0.096498184 1.4880629
v -0 0.103408866 1.4806744
v 0.029061312 0.053055856 1.4519856
v 0.051907618 0.086755976 1.4956683
v 0.0409939 0.04655341 1.4654018
v 0.054273747 0.03740821 1.4795898
v 0.06256112 0.07074446 1.5045484
v 0.054273747 0.03740821 1.4795898
v 0.06966545 0.05113685 1.5112664
v 0.06436702 0.032120414 1.4975723
v 0.070123024 0.03194017 1.5168309
v 0.06645114 0.025462322 1.5107882
v 0.061304502 0.02535066 1.4936813
v 0.054467876 0.022626247 1.4748985
v 0.054273747 0.03740821 1.4795898
v -0.03693664 0.096498184 1.4880629
v -0 0.07299576 1.4538217
v -0 0.103408866 1.4806744
v -0.029061312 0.053055856 1.4519856
v -0.051907618 0.086755976 1.4956683
v -0.0409939 0.04655341 1.4654018
v -0.054273747 0.03740821 1.4795898
v -0.06256112 0.07074446 1.5045484
v -0.06966545 0.05113685 1.5112664
v -0.054273747 0.03740821 1.4795898
v -0.06436702 0.032120414 1.4975723
v -0.070123024 0.03194017 1.5168309
v -0.06645114 0.025462322 1.5107882
v -0.061304502 0.02535066 1.4936813
v -0.054467876 0.022626247 1.4748985
v -0.054273747 0.03740821 1.4795898
vt 0.43870646 0.8964852
vt 0.42674905 0.8918344
vt 0.42592812 0.90645784
vt 0.4393932 0.91244256
vt 0.45798498 0.90493417
vt 0.4542993 0.91810155
vt 0.4368654 0.9264543
vt 0.42216498 0.91564155
vt 0.4534911 0.9333675
vt 0.4265983 0.9279562
vt 0.4178998 0.9192278
vt 0.43298995 0.93659544
vt 0.4373153 0.9461015
vt 0.44601598 0.94911605
vt 0.4528847 0.9475712
vt 0.45064408 0.9605861
vt 0.44415742 0.96081895
vt 0.45064408 0.9605861
vt 0.5982616 0.8856657
vt 0.6237453 0.8866948
vt 0.61850095 0.8698223
vt 0.60693854 0.89631504
vt 0.6342405 0.90401113
vt 0.61505014 0.9134246
vt 0.25818807 0.8964852
vt 0.27096638 0.90645784
vt 0.27014545 0.8918344
vt 0.25750127 0.91244256
vt 0.23890951 0.90493417
vt 0.24259517 0.91810155
vt 0.26002908 0.9264543
vt 0.2747295 0.91564155
vt 0.2434034 0.9333675
vt 0.27029616 0.9279562
vt 0.27899468 0.9192278
vt 0.2639045 0.93659544
vt 0.25957918 0.9461015
vt 0.25087848 0.94911605
vt 0.24400976 0.9475712
vt 0.2462504 0.9605861
vt 0.25273705 0.96081895
vt 0.2462504 0.9605861
vt 0.07314914 0.8866948
vt 0.09863285 0.8856657
vt 0.07839352 0.8698223
vt 0.08995595 0.89631504
vt 0.06265395 0.90401113
vt 0.08184435 0.9134246
vt 0.05700718 0.011472088
vt 0.061625 0.042249687
vt 0.07518144 0.029960373
vt 0.045659784 0.021268051
vt 0.05222349 0.049987312
vt 0.03577138 0.027809197
vt 0.018722503 0.042264387
vt 0.040818647 0.05772908
vt 0.018722503 0.042264387
vt 0.028507281 0.06443698
vt 0.015455144 0.055629168
vt 0.015961893 0.07017642
vt 0.011075696 0.06554747
vt 0.0106075 0.05276958
vt 0.009234418 0.04295388
vt 0.018722503 0.042264387
vt 0.061625 0.042249687
vt 0.05700718 0.011472088
vt 0.07518144 0.029960373
vt 0.045659784 0.021268051
vt 0.05222349 0.049987312
vt 0.03577138 0.027809197
vt 0.018722503 0.042264387
vt 0.040818647 0.05772908
vt 0.028507281 0.06443698
vt 0.018722503 0.042264387
vt 0.015455144 0.055629168
vt 0.015961893 0.07017642
vt 0.011075696 0.06554747
vt 0.0106075 0.05276958
vt 0.009234418 0.04295388
vt 0.018722503 0.042264387
vn 0.6498339 -0.75563186 0.08207552
vn -0 -0.996899 0.078691624
vn -0 -0.99503654 -0.099509634
vn 0.7911368 -0.60602087 -0.08271198
vn 0.9555515 0.25375733 0.15009482
vn 0.93753225 0.34766665 -0.012696773
vn 0.77136135 -0.22435722 -0.595538
vn 4.2849224E-05 -0.71485317 -0.6992746
vn 0.7323291 0.4319444 -0.52642024
vn 0.45444185 -0.06189135 -0.8886237
vn 4.7746144E-05 -0.16762744 -0.9858504
vn 0.6070033 0.008623814 -0.7946525
vn 0.74855244 0.12491635 -0.65120286
vn 0.78076404 0.20761159 -0.5893257
vn 0.7414133 0.27258563 -0.6131911
vn 0.83136874 0.19609079 -0.5199753
vn 0.89474183 0.071119845 -0.44088447
vn 0.83136874 0.19609079 -0.5199753
vn 0.9555515 0.25375733 0.15009482
vn -0 0.9996124 0.027840642
vn -0 0.98810834 0.15375872
vn 0.93753225 0.34766665 -0.012696773
vn -0 0.82929105 -0.55881697
vn 0.7323291 0.4319444 -0.52642024
vn -0.649834 -0.7556318 0.082075514
vn -0 -0.99503654 -0.099509634
vn -0 -0.996899 0.078691624
vn -0.7911368 -0.60602087 -0.08271198
vn -0.9555515 0.25375733 0.15009482
vn -0.93753225 0.34766665 -0.012696769
vn -0.7713706 -0.22427797 -0.59555596
vn 4.2849224E-05 -0.71485317 -0.6992746
vn -0.7323291 0.4319444 -0.5264203
vn -0.45442396 -0.06179232 -0.88863975
vn 4.7746144E-05 -0.16762744 -0.9858504
vn -0.606989 0.008609117 -0.79466355
vn -0.7485435 0.12499301 -0.65119845
vn -0.78075635 0.20769669 -0.58930606
vn -0.7414133 0.27258566 -0.6131911
vn -0.83136874 0.19609079 -0.5199753
vn -0.8947444 0.07113941 -0.44087607
vn -0.83136874 0.19609079 -0.5199753
vn -0 0.9996124 0.027840642
vn -0.9555515 0.25375733 0.15009482
vn -0 0.98810834 0.15375872
vn -0.93753225 0.34766665 -0.012696769
vn -0 0.82929105 -0.55881697
vn -0.7323291 0.4319444 -0.5264203
vn -0 0.82929105 -0.55881697
vn 0.52319974 0.48053348 -0.7038107
vn -0 0.6285028 -0.77780735
vn 0.7323291 0.4319444 -0.52642024
vn 0.7417699 0.28901413 -0.60518444
vn 0.7414133 0.27258563 -0.6131911
vn 0.83136874 0.19609079 -0.5199753
vn 0.81818783 0.19593722 -0.54053426
vn 0.83136874 0.19609079 -0.5199753
vn 0.89477986 0.08637103 -0.43807426
vn 0.93052465 -0.07224091 -0.35903367
vn 0.9324519 -0.086578056 -0.35076717
vn 0.94938743 -0.16728906 -0.26585296
vn 0.9406727 -0.038531132 -0.3371205
vn 0.89474183 0.071119845 -0.44088447
vn 0.90859884 0.04445104 -0.41529766
vn -0.52319974 0.48053345 -0.7038107
vn -0 0.82929105 -0.55881697
vn -0 0.6285028 -0.77780735
vn -0.7323291 0.4319444 -0.5264203
vn -0.7417699 0.28901413 -0.60518444
vn -0.7414133 0.27258566 -0.6131911
vn -0.83136874 0.19609079 -0.5199753
vn -0.81818783 0.19593722 -0.5405342
vn -0.8947798 0.08637102 -0.4380743
vn -0.83136874 0.19609079 -0.5199753
vn -0.93052465 -0.07224091 -0.35903367
vn -0.9324519 -0.08657806 -0.35076717
vn -0.94938743 -0.16728906 -0.2658529
vn -0.9406727 -0.038531132 -0.33712044
vn -0.8947444 0.07113941 -0.44087607
vn -0.90859884 0.044451047 -0.4152977
g NPC_Female_Size02_Body_024_LOD3_0
f 3/3/3 2/2/2 1/1/1
f 4/4/4 3/3/3 1/1/1
f 4/4/4 1/1/1 5/5/5
f 6/6/6 4/4/4 5/5/5
f 4/4/4 6/6/6 7/7/7
f 3/3/3 4/4/4 8/8/8
f 4/4/4 7/7/7 8/8/8
f 6/6/6 9/9/9 7/7/7
f 7/7/7 10/10/10 8/8/8
f 10/10/10 11/11/11 8/8/8
f 7/7/7 12/12/12 10/10/10
f 13/13/13 12/12/12 7/7/7
f 14/14/14 7/7/7 9/9/9
f 13/13/13 7/7/7 14/14/14
f 15/15/15 14/14/14 9/9/9
f 15/15/15 16/16/16 14/14/14
f 17/17/17 13/13/13 14/14/14
f 17/17/17 14/14/14 18/18/18
f 21/21/21 20/20/20 19/19/19
f 20/20/20 22/22/22 19/19/19
f 20/20/20 23/23/23 22/22/22
f 23/23/23 24/24/24 22/22/22
f 27/27/27 26/26/26 25/25/25
f 26/26/26 28/28/28 25/25/25
f 29/29/29 25/25/25 28/28/28
f 30/30/30 29/29/29 28/28/28
f 30/30/30 28/28/28 31/31/31
f 28/28/28 26/26/26 32/32/32
f 31/31/31 28/28/28 32/32/32
f 33/33/33 30/30/30 31/31/31
f 34/34/34 31/31/31 32/32/32
f 35/35/35 34/34/34 32/32/32
f 36/36/36 31/31/31 34/34/34
f 36/36/36 37/37/37 31/31/31
f 33/33/33 31/31/31 38/38/38
f 31/31/31 37/37/37 38/38/38
f 39/39/39 33/33/33 38/38/38
f 40/40/40 39/39/39 38/38/38
f 37/37/37 41/41/41 38/38/38
f 38/38/38 41/41/41 42/42/42
f 45/45/45 44/44/44 43/43/43
f 44/44/44 46/46/46 43/43/43
f 47/47/47 43/43/43 46/46/46
f 48/48/48 47/47/47 46/46/46
f 51/51/51 50/50/50 49/49/49
f 50/50/50 52/52/52 49/49/49
f 52/52/52 50/50/50 53/53/53
f 54/54/54 52/52/52 53/53/53
f 54/54/54 53/53/53 55/55/55
f 53/53/53 56/56/56 55/55/55
f 56/56/56 58/58/58 57/57/57
f 57/57/57 58/58/58 59/59/59
f 58/58/58 60/60/60 59/59/59
f 59/59/59 60/60/60 61/61/61
f 62/62/62 59/59/59 61/61/61
f 59/59/59 62/62/62 63/63/63
f 64/64/64 59/59/59 63/63/63
f 67/67/67 66/66/66 65/65/65
f 66/66/66 68/68/68 65/65/65
f 69/69/69 65/65/65 68/68/68
f 70/70/70 69/69/69 68/68/68
f 69/69/69 70/70/70 71/71/71
f 72/72/72 69/69/69 71/71/71
f 72/72/72 74/74/74 73/73/73
f 74/74/74 75/75/75 73/73/73
f 75/75/75 76/76/76 73/73/73
f 76/76/76 75/75/75 77/77/77
f 75/75/75 78/78/78 77/77/77
f 79/79/79 78/78/78 75/75/75
f 80/80/80 79/79/79 75/75/75
