g NPC_Female_Size02_Body_008_LOD2
v 0.018104805 0.06375554 1.424426
v -0 0.07137047 1.4422556
v -0 0.07054891 1.4240555
v 0.018496923 0.06390079 1.4428515
v -0 0.08128108 1.458345
v 0.022562746 0.074775435 1.4625479
v 0.029670358 0.04515604 1.4419633
v 0.028344864 0.046417244 1.4238429
v 0.0326143 0.04298013 1.4524854
v 0.04794015 0.05805413 1.4787004
v 0.04659982 0.032607708 1.4658145
v 0.06188902 0.043172855 1.4919531
v 0.054467876 0.022626247 1.4748985
v -0 0.0114855 1.4272641
v 0.017333813 0.02697228 1.4178208
v -0 0.016224217 1.4121088
v 0.015504479 0.016667305 1.4324155
v 0.027640099 0.028515568 1.4410387
v 0.028344864 0.046417244 1.4238429
v 0.029670358 0.04515604 1.4419633
v 0.0326143 0.04298013 1.4524854
v 0.04659982 0.032607708 1.4658145
v 0.017104162 0.008318667 1.4370685
v -0 0.00392562 1.4313853
v 0.031388316 0.013010448 1.4447764
v 0.04313781 0.017301943 1.4553411
v 0.054467876 0.022626247 1.4748985
v -0.018104805 0.06375554 1.424426
v -0 0.07054891 1.4240555
v -0 0.07137047 1.4422556
v -0.018496923 0.06390079 1.4428515
v -0 0.08128108 1.458345
v -0.022562746 0.074775435 1.4625479
v -0.029670358 0.04515604 1.4419633
v -0.028344864 0.046417244 1.4238429
v -0.0326143 0.04298013 1.4524854
v -0.04794015 0.05805413 1.4787004
v -0.04659982 0.032607708 1.4658145
v -0.06188902 0.043172855 1.4919531
v -0.054467876 0.022626247 1.4748985
v -0 0.0114855 1.4272641
v -0 0.016224217 1.4121088
v -0.017333813 0.02697228 1.4178208
v -0.015504479 0.016667305 1.4324155
v -0.027640099 0.028515568 1.4410387
v -0.028344864 0.046417244 1.4238429
v -0.029670358 0.04515604 1.4419633
v -0.0326143 0.04298013 1.4524854
v -0.04659982 0.032607708 1.4658145
v -0.017104162 0.008318667 1.4370685
v -0 0.00392562 1.4313853
v -0.031388316 0.013010448 1.4447764
v -0.04313781 0.017301943 1.4553411
v -0.054467876 0.022626247 1.4748985
v 0.022562746 0.074775435 1.4625479
v -0 0.10573844 1.478921
v -0 0.08128108 1.458345
v 0.02817512 0.09937113 1.4848069
v 0.04794015 0.05805413 1.4787004
v 0.057234365 0.078750215 1.5001084
v 0.06188902 0.043172855 1.4919531
v 0.07015121 0.050178543 1.5127767
v 0.06644327 0.025462067 1.5107735
v 0.061304495 0.02535063 1.4936813
v 0.054467876 0.022626247 1.4748985
v -0.022562746 0.074775435 1.4625479
v -0 0.08128108 1.458345
v -0 0.10573844 1.478921
v -0.02817512 0.09937113 1.4848069
v -0.04794015 0.05805413 1.4787004
v -0.057234365 0.078750215 1.5001084
v -0.06188902 0.043172855 1.4919531
v -0.07015121 0.050178543 1.5127767
v -0.061304245 0.02535063 1.4936813
v -0.06644301 0.025462069 1.5107735
v -0.054467876 0.022626247 1.4748985
vt 0.6155049 0.89141995
vt 0.63350445 0.89500433
vt 0.6272139 0.8846741
vt 0.6215672 0.9026851
vt 0.6380058 0.90085226
vt 0.6262444 0.9105463
vt 0.6076669 0.90932417
vt 0.60314405 0.8985057
vt 0.6085064 0.9165292
vt 0.6161765 0.93100756
vt 0.60621077 0.9322486
vt 0.6102825 0.9448322
vt 0.5997078 0.9425231
vt 0.42216498 0.91564155
vt 0.4393932 0.91244256
vt 0.42592812 0.90645784
vt 0.43147004 0.9227196
vt 0.44226074 0.930189
vt 0.4542993 0.91810155
vt 0.45351654 0.92983997
vt 0.4534656 0.9368951
vt 0.44897392 0.95090586
vt 0.4265983 0.9279562
vt 0.4178998 0.9192278
vt 0.43298995 0.93659544
vt 0.4373153 0.9461015
vt 0.44415742 0.96081895
vt 0.08138957 0.89141995
vt 0.069680594 0.8846741
vt 0.06339004 0.89500433
vt 0.0753273 0.9026851
vt 0.058888696 0.90085226
vt 0.07065003 0.9105463
vt 0.08922758 0.90932417
vt 0.09375044 0.8985057
vt 0.08838811 0.9165292
vt 0.08071803 0.93100756
vt 0.09068372 0.9322486
vt 0.08661201 0.9448322
vt 0.09718671 0.9425231
vt 0.2747295 0.91564155
vt 0.27096638 0.90645784
vt 0.25750127 0.91244256
vt 0.26542443 0.9227196
vt 0.25463372 0.930189
vt 0.24259517 0.91810155
vt 0.24337794 0.92983997
vt 0.24342886 0.9368951
vt 0.24792054 0.95090586
vt 0.27029616 0.9279562
vt 0.27899468 0.9192278
vt 0.2639045 0.93659544
vt 0.25957918 0.9461015
vt 0.25273705 0.96081895
vt 0.05323902 0.022549957
vt 0.07987559 0.025956847
vt 0.06446312 0.011981606
vt 0.06605615 0.03810679
vt 0.03546733 0.037929565
vt 0.046521068 0.0538582
vt 0.022947408 0.050603695
vt 0.027781617 0.06549736
vt 0.011069579 0.06949719
vt 0.010844657 0.057183657
vt 0.009234418 0.04295388
vt 0.05323902 0.022549957
vt 0.06446312 0.011981606
vt 0.07987559 0.025956847
vt 0.06605615 0.03810679
vt 0.03546733 0.037929565
vt 0.046521068 0.0538582
vt 0.022947408 0.050603695
vt 0.027781617 0.06549736
vt 0.010844657 0.057183657
vt 0.011069579 0.06949719
vt 0.009234418 0.04295388
vn 0.64556843 0.76318306 -0.028161252
vn -0 0.95223767 -0.30535784
vn -0 0.9995328 -0.030563306
vn 0.66395456 0.70628226 -0.2456213
vn -0 0.74808997 -0.6635974
vn 0.5529982 0.5619274 -0.615167
vn 0.9565488 0.16107091 -0.24304417
vn 0.9814404 0.10315415 -0.16165946
vn 0.82049733 0.27050626 -0.50359756
vn 0.74294186 0.31825018 -0.58885837
vn 0.80493563 0.20820953 -0.5556323
vn 0.8768277 0.115939215 -0.46661675
vn 0.89474183 0.07111984 -0.44088438
vn -0.0010207169 -0.53041106 -0.84774005
vn 0.73510855 -0.5928091 -0.32892695
vn -0 -0.90629095 -0.42265445
vn 0.51567185 -0.4685196 -0.71733665
vn 0.83918875 -0.021143073 -0.54342914
vn 0.9814404 0.10315415 -0.16165946
vn 0.9565488 0.16107091 -0.24304417
vn 0.82049733 0.27050626 -0.50359756
vn 0.80493563 0.20820953 -0.5556323
vn 0.45444196 -0.061891347 -0.88862365
vn 4.783233E-05 -0.16762744 -0.9858504
vn 0.60700333 0.008623814 -0.79465246
vn 0.7485525 0.12491637 -0.6512028
vn 0.89474183 0.07111984 -0.44088438
vn -0.64556843 0.76318306 -0.028161252
vn -0 0.9995328 -0.030563306
vn -0 0.95223767 -0.30535784
vn -0.66395444 0.7062823 -0.24562128
vn -0 0.74808997 -0.6635974
vn -0.5529982 0.5619274 -0.615167
vn -0.9565488 0.16107091 -0.24304417
vn -0.9814404 0.10315412 -0.16165946
vn -0.82049733 0.27050623 -0.50359756
vn -0.74294186 0.31825018 -0.5888584
vn -0.80335575 0.2111978 -0.5567898
vn -0.8741302 0.1204716 -0.47051346
vn -0.8947443 0.07113941 -0.44087616
vn -0.0010207169 -0.53041106 -0.84774005
vn -0 -0.90629095 -0.42265445
vn -0.73510855 -0.5928091 -0.32892695
vn -0.5220989 -0.45377693 -0.722149
vn -0.84808713 -0.026115563 -0.5292128
vn -0.9814404 0.10315412 -0.16165946
vn -0.9565488 0.16107091 -0.24304417
vn -0.82049733 0.27050623 -0.50359756
vn -0.80335575 0.2111978 -0.5567898
vn -0.45442384 -0.061792318 -0.8886398
vn 4.783233E-05 -0.16762744 -0.9858504
vn -0.60698897 0.008609117 -0.7946636
vn -0.74854344 0.12499301 -0.6511985
vn -0.8947443 0.07113941 -0.44087616
vn 0.5529982 0.5619274 -0.615167
vn -0 0.63706946 -0.7708064
vn -0 0.74808997 -0.6635974
vn 0.49336338 0.51342565 -0.7021301
vn 0.74294186 0.31825018 -0.58885837
vn 0.7515113 0.3198606 -0.5769922
vn 0.8768277 0.115939215 -0.46661675
vn 0.87985706 0.11319531 -0.46156088
vn 0.94938743 -0.16728906 -0.26585284
vn 0.9406727 -0.038531132 -0.33712044
vn 0.9407221 -0.063167684 -0.33324444
vn -0.5529982 0.5619274 -0.615167
vn -0 0.74808997 -0.6635974
vn -0 0.63706946 -0.7708064
vn -0.49336338 0.51342565 -0.7021301
vn -0.74294186 0.31825018 -0.5888584
vn -0.7515113 0.31986055 -0.5769922
vn -0.8741302 0.1204716 -0.47051346
vn -0.8793105 0.11413249 -0.46237096
vn -0.9406727 -0.038531136 -0.33712056
vn -0.94938743 -0.16728908 -0.26585302
vn -0.94072586 -0.06317987 -0.3332314
g NPC_Female_Size02_Body_008_LOD2_0
f 3/3/3 2/2/2 1/1/1
f 2/2/2 4/4/4 1/1/1
f 4/4/4 2/2/2 5/5/5
f 6/6/6 4/4/4 5/5/5
f 4/4/4 7/7/7 1/1/1
f 7/7/7 8/8/8 1/1/1
f 9/9/9 7/7/7 4/4/4
f 6/6/6 9/9/9 4/4/4
f 6/6/6 10/10/10 9/9/9
f 10/10/10 11/11/11 9/9/9
f 10/10/10 12/12/12 11/11/11
f 12/12/12 13/13/13 11/11/11
f 16/16/16 15/15/15 14/14/14
f 15/15/15 17/17/17 14/14/14
f 18/18/18 17/17/17 15/15/15
f 15/15/15 19/19/19 18/18/18
f 19/19/19 20/20/20 18/18/18
f 18/18/18 20/20/20 21/21/21
f 21/21/21 22/22/22 18/18/18
f 17/17/17 23/23/23 14/14/14
f 23/23/23 24/24/24 14/14/14
f 17/17/17 25/25/25 23/23/23
f 17/17/17 18/18/18 25/25/25
f 26/26/26 25/25/25 18/18/18
f 26/26/26 18/18/18 22/22/22
f 27/27/27 26/26/26 22/22/22
f 30/30/30 29/29/29 28/28/28
f 31/31/31 30/30/30 28/28/28
f 30/30/30 31/31/31 32/32/32
f 31/31/31 33/33/33 32/32/32
f 34/34/34 31/31/31 28/28/28
f 35/35/35 34/34/34 28/28/28
f 34/34/34 36/36/36 31/31/31
f 36/36/36 33/33/33 31/31/31
f 37/37/37 33/33/33 36/36/36
f 38/38/38 37/37/37 36/36/36
f 39/39/39 37/37/37 38/38/38
f 40/40/40 39/39/39 38/38/38
f 43/43/43 42/42/42 41/41/41
f 44/44/44 43/43/43 41/41/41
f 44/44/44 45/45/45 43/43/43
f 46/46/46 43/43/43 45/45/45
f 47/47/47 46/46/46 45/45/45
f 47/47/47 45/45/45 48/48/48
f 49/49/49 48/48/48 45/45/45
f 50/50/50 44/44/44 41/41/41
f 51/51/51 50/50/50 41/41/41
f 52/52/52 44/44/44 50/50/50
f 45/45/45 44/44/44 52/52/52
f 52/52/52 53/53/53 45/45/45
f 45/45/45 53/53/53 49/49/49
f 53/53/53 54/54/54 49/49/49
f 57/57/57 56/56/56 55/55/55
f 56/56/56 58/58/58 55/55/55
f 59/59/59 55/55/55 58/58/58
f 60/60/60 59/59/59 58/58/58
f 59/59/59 60/60/60 61/61/61
f 60/60/60 62/62/62 61/61/61
f 61/61/61 62/62/62 63/63/63
f 64/64/64 61/61/61 63/63/63
f 65/65/65 61/61/61 64/64/64
f 68/68/68 67/67/67 66/66/66
f 69/69/69 68/68/68 66/66/66
f 66/66/66 70/70/70 69/69/69
f 70/70/70 71/71/71 69/69/69
f 71/71/71 70/70/70 72/72/72
f 73/73/73 71/71/71 72/72/72
f 72/72/72 74/74/74 73/73/73
f 74/74/74 75/75/75 73/73/73
f 72/72/72 76/76/76 74/74/74
