g NPC_Female_Size02_Body_019_LOD0
v 0.052214332 0.033326432 1.4747305
v 0.05663855 0.023615064 1.480024
v 0.056458067 0.030565003 1.4806114
v 0.0522972 0.021637432 1.469773
v 0.05663855 0.023615064 1.480024
v 0.04573065 0.029085938 1.4621818
v 0.04678378 0.018790916 1.4595906
v 0.04272365 0.038932513 1.4641634
v 0.039491843 0.01581297 1.4510915
v 0.030258851 0.026453052 1.4451996
v 0.0326143 0.04298013 1.4524854
v 0.031388316 0.013010448 1.4447764
v 0.016392516 0.014986038 1.434321
v 0.0229494 0.010184946 1.4395746
v 0.011258926 0.006452389 1.4345622
v 0.025021348 0.030578082 1.4368782
v 0.029670358 0.04515604 1.4419633
v 0.028344864 0.046417244 1.4238429
v -0 0.010016496 1.4284892
v -0 0.00392562 1.4313853
v -0 0.012954504 1.4260387
v 0.014616441 0.01834857 1.4305096
v 0.02374216 0.032573238 1.4205077
v 0.014649304 0.021382106 1.4165407
v -0 0.016224217 1.4121088
v 0.024916738 0.03369663 1.4061803
v 0.030265078 0.04681121 1.4092938
v 0.016004028 0.022102622 1.4035223
v 3.5390257E-10 0.0165152 1.4016534
v 0.056458067 0.030565003 1.4806114
v 0.05844592 0.039232995 1.4851853
v 0.052214332 0.033326432 1.4747305
v 0.05844592 0.039232995 1.4851853
v 0.04462041 0.050341357 1.472236
v 0.04272365 0.038932513 1.4641634
v 0.0326143 0.04298013 1.4524854
v 0.026980298 0.062043626 1.4567468
v 0.024771864 0.05851645 1.4430751
v 0.029670358 0.04515604 1.4419633
v 0.014388012 0.072141 1.4543378
v 0.024528386 0.058804665 1.4244796
v 0.028344864 0.046417244 1.4238429
v 0.012221984 0.06928515 1.442628
v -0 0.07470527 1.4527888
v -0 0.07137047 1.4422556
v 0.011681222 0.06870641 1.4243721
v -0 0.07054891 1.4240555
v 0.0119588375 0.06946382 1.4126664
v -1.6018747E-08 0.07154326 1.4127145
v 0.027076283 0.059564352 1.4112898
v 0.030265078 0.04681121 1.4092938
v 0.06436702 0.032120414 1.4975723
v 0.065332115 0.04711271 1.4987208
v 0.05844592 0.039232995 1.4851853
v 0.06436702 0.032120414 1.4975723
v 0.05844592 0.039232995 1.4851853
v 0.056458067 0.030565003 1.4806114
v -0.052214332 0.033326432 1.4747305
v -0.056458067 0.030565003 1.4806114
v -0.05663855 0.023615064 1.480024
v -0.05663855 0.023615064 1.480024
v -0.0522972 0.021637432 1.469773
v -0.04573065 0.029085938 1.4621818
v -0.04678378 0.018790916 1.4595906
v -0.04272365 0.038932513 1.4641634
v -0.039491843 0.01581297 1.4510915
v -0.030258851 0.026453052 1.4451996
v -0.0326143 0.04298013 1.4524854
v -0.031388316 0.013010448 1.4447764
v -0.016392516 0.014986038 1.434321
v -0.0229494 0.010184946 1.4395746
v -0.011258926 0.006452389 1.4345622
v -0.025021348 0.030578082 1.4368782
v -0.029670358 0.04515604 1.4419633
v -0.028344864 0.046417244 1.4238429
v -0 0.010016496 1.4284892
v -0 0.00392562 1.4313853
v -0 0.012954504 1.4260387
v -0.014616441 0.01834857 1.4305096
v -0.02374216 0.032573238 1.4205077
v -0.014649304 0.021382106 1.4165407
v -0 0.016224217 1.4121088
v -0.024916701 0.033696603 1.40618
v -0.030265111 0.046811216 1.4092938
v -0.016004007 0.02210265 1.4035223
v 3.5390257E-10 0.0165152 1.4016534
v -0.056458067 0.030565003 1.4806114
v -0.052214332 0.033326432 1.4747305
v -0.05844592 0.039232995 1.4851853
v -0.04462041 0.050341357 1.472236
v -0.05844592 0.039232995 1.4851853
v -0.04272365 0.038932513 1.4641634
v -0.0326143 0.04298013 1.4524854
v -0.026980298 0.062043626 1.4567468
v -0.024771864 0.05851645 1.4430751
v -0.029670358 0.04515604 1.4419633
v -0.014388012 0.072141 1.4543378
v -0.024528386 0.058804665 1.4244796
v -0.028344864 0.046417244 1.4238429
v -0.012221984 0.06928515 1.442628
v -0 0.07470527 1.4527888
v -0 0.07137047 1.4422556
v -0.011681222 0.06870641 1.4243721
v -0 0.07054891 1.4240555
v -0.011958765 0.06946388 1.4126664
v -1.6018747E-08 0.07154326 1.4127145
v -0.027076354 0.05956439 1.4112898
v -0.030265111 0.046811216 1.4092938
v -0.06436702 0.032120414 1.4975723
v -0.05844592 0.039232995 1.4851853
v -0.065332115 0.04711271 1.4987208
v -0.06436702 0.032120414 1.4975723
v -0.056458067 0.030565003 1.4806114
v -0.05844592 0.039232995 1.4851853
v -0 0.09470611 1.4730742
v -0 0.07470527 1.4527888
v 0.014388012 0.072141 1.4543378
v 0.0345405 0.088169344 1.4804548
v 0.026980298 0.062043626 1.4567468
v -0 0.113671064 1.4939024
v 0.04462041 0.050341357 1.472236
v 0.040577043 0.106209554 1.5021706
v 0.05424713 0.07225857 1.4926366
v 0.05844592 0.039232995 1.4851853
v 0.065332115 0.04711271 1.4987208
v 0.061429612 0.08523261 1.5143121
v 0.06982401 0.054008782 1.5117614
v 0.065332115 0.04711271 1.4987208
v 0.07253739 0.057112258 1.5225075
v 0.071449965 0.04443168 1.516813
v 0.073905945 0.0390289 1.5263574
v 0.06950688 0.048264917 1.5107712
v 0.065332115 0.04711271 1.4987208
v 0.065332115 0.04711271 1.4987208
v 0.071632795 0.03864632 1.5187767
v 0.07093863 0.033638384 1.5178331
v 0.07065284 0.024518268 1.5268953
v 0.06784546 0.025226427 1.5159119
v 0.06436702 0.032120414 1.4975723
v 0.065332115 0.04711271 1.4987208
v 0.06930741 0.030241951 1.5158287
v 0.06436702 0.032120414 1.4975723
v 0.06505683 0.025698218 1.5056643
v 0.06436702 0.032120414 1.4975723
v 0.06436702 0.032120414 1.4975723
v 0.061304502 0.02535066 1.4936813
v 0.056458067 0.030565003 1.4806114
v 0.05663855 0.023615064 1.480024
v -0 0.09470611 1.4730742
v -0.014388012 0.072141 1.4543378
v -0 0.07470527 1.4527888
v -0.0345405 0.088169344 1.4804548
v -0.026980298 0.062043626 1.4567468
v -0 0.113671064 1.4939024
v -0.04462041 0.050341357 1.472236
v -0.040577043 0.106209554 1.5021706
v -0.05424713 0.07225857 1.4926366
v -0.05844592 0.039232995 1.4851853
v -0.065332115 0.04711271 1.4987208
v -0.061429612 0.08523261 1.5143121
v -0.06982401 0.054008782 1.5117614
v -0.065332115 0.04711271 1.4987208
v -0.07253739 0.057112258 1.5225075
v -0.071449965 0.04443168 1.516813
v -0.073905945 0.0390289 1.5263574
v -0.06950688 0.048264917 1.5107712
v -0.065332115 0.04711271 1.4987208
v -0.065332115 0.04711271 1.4987208
v -0.071632795 0.03864632 1.5187767
v -0.07093863 0.033638384 1.5178331
v -0.07065284 0.024518268 1.5268953
v -0.06784546 0.025226427 1.5159119
v -0.06436702 0.032120414 1.4975723
v -0.065332115 0.04711271 1.4987208
v -0.06930741 0.030241951 1.5158287
v -0.06436702 0.032120414 1.4975723
v -0.06505683 0.025698218 1.5056643
v -0.06436702 0.032120414 1.4975723
v -0.061304502 0.02535066 1.4936813
v -0.06436702 0.032120414 1.4975723
v -0.056458067 0.030565003 1.4806114
v -0.05663855 0.023615064 1.480024
vt 0.45097902 0.9578201
vt 0.44591233 0.9648293
vt 0.4503091 0.963352
vt 0.44240248 0.95680857
vt 0.44591233 0.9648293
vt 0.44601598 0.94911605
vt 0.43885002 0.94957894
vt 0.4528847 0.9475712
vt 0.43578053 0.94262403
vt 0.44153917 0.93388265
vt 0.4534656 0.9368951
vt 0.43298995 0.93659544
vt 0.4306001 0.9244995
vt 0.42950386 0.9311019
vt 0.42369276 0.92481047
vt 0.4429823 0.9264954
vt 0.45351654 0.92983997
vt 0.4542993 0.91810155
vt 0.42138287 0.91634125
vt 0.4178998 0.9192278
vt 0.42294705 0.9149418
vt 0.43234 0.9209397
vt 0.4448073 0.91491646
vt 0.43552744 0.91122776
vt 0.42592812 0.90645784
vt 0.44736665 0.90490633
vt 0.45629743 0.9086945
vt 0.4379282 0.9020071
vt 0.42692336 0.8999493
vt 0.6038908 0.94274
vt 0.6102825 0.9448322
vt 0.6050044 0.9372856
vt 0.6102825 0.9448322
vt 0.6161765 0.93100756
vt 0.60741717 0.9272116
vt 0.6085064 0.9165292
vt 0.6220136 0.9139226
vt 0.6166817 0.90560526
vt 0.6076669 0.90932417
vt 0.6304753 0.90717006
vt 0.61073303 0.8941244
vt 0.60314405 0.8985057
vt 0.6264527 0.89976496
vt 0.6380058 0.90085226
vt 0.63350445 0.89500433
vt 0.6202768 0.8887155
vt 0.6272139 0.8846741
vt 0.61643 0.88147783
vt 0.62392175 0.87795824
vt 0.6052059 0.8863678
vt 0.5978789 0.89120096
vt 0.015455144 0.055629168
vt 0.025626473 0.05561186
vt 0.020268343 0.045595534
vt 0.015455144 0.055629168
vt 0.020268343 0.045595534
vt 0.013907999 0.043015018
vt 0.24598488 0.95792085
vt 0.24665478 0.96345276
vt 0.25105152 0.96493006
vt 0.25105152 0.96493006
vt 0.2545614 0.9569093
vt 0.25094792 0.9492168
vt 0.25811383 0.9496797
vt 0.2440792 0.94767195
vt 0.26118335 0.94272476
vt 0.2554247 0.9339834
vt 0.2434983 0.9369958
vt 0.26397392 0.9366962
vt 0.26636377 0.92460024
vt 0.26746002 0.93120265
vt 0.2732711 0.9249112
vt 0.25398156 0.9265961
vt 0.24344733 0.9299407
vt 0.24266455 0.9182023
vt 0.27558097 0.916442
vt 0.2790641 0.9193285
vt 0.27401683 0.9150425
vt 0.26462385 0.9210404
vt 0.2521566 0.9150172
vt 0.26143643 0.9113285
vt 0.27103576 0.9065586
vt 0.24954957 0.90502673
vt 0.24070984 0.90878433
vt 0.25890943 0.902117
vt 0.27033022 0.89994764
vt 0.0930731 0.94284075
vt 0.091959506 0.93738633
vt 0.086681396 0.94493294
vt 0.08078739 0.9311083
vt 0.086681396 0.94493294
vt 0.08954671 0.9273123
vt 0.088457495 0.9166299
vt 0.07495025 0.91402334
vt 0.08028218 0.905706
vt 0.08929697 0.9094249
vt 0.066488594 0.9072708
vt 0.086230844 0.8942251
vt 0.09381983 0.8986064
vt 0.07051119 0.8998657
vt 0.05895809 0.900953
vt 0.063459426 0.89510506
vt 0.07668707 0.88881624
vt 0.06974998 0.8847748
vt 0.080490895 0.881573
vt 0.07311547 0.8781271
vt 0.09167995 0.88640296
vt 0.09916976 0.89135236
vt 0.015455144 0.055629168
vt 0.020268343 0.045595534
vt 0.025626473 0.05561186
vt 0.015455144 0.055629168
vt 0.013907999 0.043015018
vt 0.020268343 0.045595534
vt 0.069899336 0.024668228
vt 0.06043104 0.008321503
vt 0.05358332 0.014622673
vt 0.057299364 0.03672417
vt 0.045659784 0.021268051
vt 0.08228431 0.038768664
vt 0.031288527 0.03262059
vt 0.06668118 0.051207602
vt 0.0430836 0.04854837
vt 0.020268343 0.045595534
vt 0.025626473 0.05561186
vt 0.05008932 0.06241712
vt 0.030398546 0.06451617
vt 0.025626473 0.05561186
vt 0.03249917 0.071381085
vt 0.023713361 0.06859931
vt 0.021198008 0.07638922
vt 0.026616018 0.06435779
vt 0.025626473 0.05561186
vt 0.025626473 0.05561186
vt 0.02028957 0.07119831
vt 0.017205179 0.07116301
vt 0.011446039 0.0781808
vt 0.011069579 0.06949719
vt 0.015455144 0.055629168
vt 0.025626473 0.05561186
vt 0.014718608 0.069189824
vt 0.015455144 0.055629168
vt 0.011081814 0.061597735
vt 0.015455144 0.055629168
vt 0.015455144 0.055629168
vt 0.0106075 0.05276958
vt 0.013907999 0.043015018
vt 0.009234418 0.04295388
vt 0.069899336 0.024668228
vt 0.05358332 0.014622673
vt 0.06043104 0.008321503
vt 0.057299364 0.03672417
vt 0.045659784 0.021268051
vt 0.08228431 0.038768664
vt 0.031288527 0.03262059
vt 0.06668118 0.051207602
vt 0.0430836 0.04854837
vt 0.020268343 0.045595534
vt 0.025626473 0.05561186
vt 0.05008932 0.06241712
vt 0.030398546 0.06451617
vt 0.025626473 0.05561186
vt 0.03249917 0.071381085
vt 0.023713361 0.06859931
vt 0.021198008 0.07638922
vt 0.026616018 0.06435779
vt 0.025626473 0.05561186
vt 0.025626473 0.05561186
vt 0.02028957 0.07119831
vt 0.017205179 0.07116301
vt 0.011446039 0.0781808
vt 0.011069579 0.06949719
vt 0.015455144 0.055629168
vt 0.025626473 0.05561186
vt 0.014718608 0.069189824
vt 0.015455144 0.055629168
vt 0.011081814 0.061597735
vt 0.015455144 0.055629168
vt 0.0106075 0.05276958
vt 0.015455144 0.055629168
vt 0.013907999 0.043015018
vt 0.009234418 0.04295388
vn 0.8167134 0.21348368 -0.5361006
vn 0.8714108 0.14086153 -0.46989498
vn 0.8263539 0.08404694 -0.55684394
vn 0.85399497 0.20616245 -0.47769192
vn 0.8714108 0.14086153 -0.46989498
vn 0.7710272 0.25459224 -0.583695
vn 0.7527515 0.22917478 -0.6171256
vn 0.7585455 0.29204127 -0.58251226
vn 0.6680894 0.18371359 -0.721045
vn 0.7567696 0.03705149 -0.65263075
vn 0.8413717 0.23509488 -0.48664585
vn 0.5840291 0.04803227 -0.8103104
vn 0.55583507 -0.3065402 -0.7727098
vn 0.52901274 -0.18400285 -0.8284253
vn 0.39953282 -0.29593197 -0.8676392
vn 0.8876136 -0.30625707 -0.3440185
vn 0.9722321 0.10687383 -0.20818903
vn 0.99953914 -0.0132770995 0.027299333
vn -0 -0.5077031 -0.8615321
vn -0 -0.42941388 -0.9031078
vn -0 -0.8590763 -0.51184744
vn 0.63208014 -0.6293853 -0.45204964
vn 0.8777478 -0.47805557 -0.03196473
vn 0.59816945 -0.7966736 -0.086628795
vn -4.089915E-07 -0.99431384 -0.10649013
vn 0.86009127 -0.5072302 0.05441123
vn 0.98815954 -0.08985765 0.12436314
vn 0.5745199 -0.8184811 0.00394849
vn -6.668429E-07 -0.99974483 -0.022586789
vn 0.8263539 0.08404694 -0.55684394
vn 0.7841869 0.21569623 -0.5818299
vn 0.8167134 0.21348368 -0.5361006
vn 0.7841869 0.21569623 -0.5818299
vn 0.75066 0.28913933 -0.59406054
vn 0.7585455 0.29204127 -0.58251226
vn 0.8413717 0.23509488 -0.48664585
vn 0.72493094 0.4695944 -0.5039407
vn 0.8205826 0.55199283 -0.1481489
vn 0.9722321 0.10687383 -0.20818903
vn 0.40707913 0.7502164 -0.5210201
vn 0.81552213 0.57553166 0.06072092
vn 0.99953914 -0.0132770995 0.027299333
vn 0.41675976 0.89341885 -0.1676723
vn -0 0.86111027 -0.5084182
vn -0 0.9864652 -0.1639706
vn 0.39529815 0.91793233 0.033759207
vn 5.5020905E-07 0.9998074 0.019629037
vn 0.38488242 0.9176644 0.09878039
vn 7.648625E-07 0.99697196 0.07776207
vn 0.8355972 0.5281892 0.15097491
vn 0.98815954 -0.08985765 0.12436314
vn 0.8996735 -0.011098939 -0.43642226
vn 0.8965734 -0.023834733 -0.44225326
vn 0.9024739 0.0011230399 -0.43074316
vn 0.8996735 -0.011098939 -0.43642226
vn 0.9024739 0.0011230399 -0.43074316
vn 0.9056342 0.015913744 -0.4237611
vn -0.8167134 0.21348368 -0.5361006
vn -0.8263539 0.08404694 -0.55684394
vn -0.8714108 0.14086153 -0.46989498
vn -0.8714108 0.14086153 -0.46989498
vn -0.85399497 0.20616245 -0.47769192
vn -0.7710272 0.25459224 -0.583695
vn -0.7527515 0.22917481 -0.6171256
vn -0.7585455 0.29204127 -0.58251226
vn -0.6680894 0.1837136 -0.721045
vn -0.7567696 0.03705148 -0.65263075
vn -0.8413716 0.23509486 -0.4866458
vn -0.5840291 0.04803227 -0.8103104
vn -0.55583507 -0.30654022 -0.7727099
vn -0.52901274 -0.18400285 -0.8284253
vn -0.39953282 -0.29593197 -0.8676392
vn -0.8876136 -0.30625707 -0.3440185
vn -0.9722321 0.106873855 -0.20818903
vn -0.99953914 -0.0132781975 0.027300268
vn -0 -0.5077031 -0.8615321
vn -0 -0.42941388 -0.9031078
vn -0 -0.8590763 -0.51184744
vn -0.63208014 -0.6293853 -0.45204964
vn -0.87774754 -0.47805595 -0.03196527
vn -0.5981697 -0.79667336 -0.08662965
vn -4.089915E-07 -0.99431384 -0.10649013
vn -0.8600905 -0.50723153 0.0544099
vn -0.9881592 -0.089860514 0.124364585
vn -0.5745211 -0.81848025 0.0039468785
vn -6.668429E-07 -0.99974483 -0.022586789
vn -0.8263539 0.08404694 -0.55684394
vn -0.8167134 0.21348368 -0.5361006
vn -0.7841869 0.21569623 -0.5818299
vn -0.75066 0.28913933 -0.59406054
vn -0.7841869 0.21569623 -0.5818299
vn -0.7585455 0.29204127 -0.58251226
vn -0.8413716 0.23509486 -0.4866458
vn -0.72493094 0.4695944 -0.5039407
vn -0.8205826 0.55199283 -0.14814892
vn -0.9722321 0.106873855 -0.20818903
vn -0.4070791 0.75021636 -0.5210202
vn -0.81552196 0.5755316 0.06072279
vn -0.99953914 -0.0132781975 0.027300268
vn -0.41675976 0.89341885 -0.1676723
vn -0 0.86111027 -0.5084182
vn -0 0.9864652 -0.1639706
vn -0.39529783 0.9179324 0.03376066
vn 5.5020905E-07 0.9998074 0.019629037
vn -0.38487968 0.9176652 0.09878306
vn 7.648625E-07 0.99697196 0.07776207
vn -0.835597 0.5281886 0.1509787
vn -0.9881592 -0.089860514 0.124364585
vn -0.8996735 -0.011098939 -0.43642226
vn -0.9024739 0.0011230399 -0.43074316
vn -0.8965734 -0.023834733 -0.44225326
vn -0.8996735 -0.011098939 -0.43642226
vn -0.9056342 0.015913744 -0.4237611
vn -0.9024739 0.0011230399 -0.43074316
vn -0 0.7331025 -0.6801182
vn -0 0.86111027 -0.5084182
vn 0.40707913 0.7502164 -0.5210201
vn 0.52440435 0.55360055 -0.64693636
vn 0.72493094 0.4695944 -0.5039407
vn -0 0.73462987 -0.6784681
vn 0.75066 0.28913933 -0.59406054
vn 0.5339576 0.58399785 -0.6114213
vn 0.77716863 0.32841414 -0.53679895
vn 0.7841869 0.21569623 -0.5818299
vn 0.8860917 0.13471721 -0.44350064
vn 0.80698013 0.35646087 -0.47087
vn 0.9219663 0.15014273 -0.35698083
vn 0.8860917 0.13471721 -0.44350064
vn 0.93408674 0.14767669 -0.3250748
vn 0.9592504 -0.016930364 -0.28204998
vn 0.9656241 -0.09587307 -0.24161647
vn 0.94741654 -0.011508168 -0.31979594
vn 0.8860917 0.13471721 -0.44350064
vn 0.8860917 0.13471721 -0.44350064
vn 0.95342034 -0.0731472 -0.29264155
vn 0.94730943 -0.17570817 -0.2678271
vn 0.94119006 -0.25158194 -0.2255389
vn 0.9245916 -0.27749076 -0.26101565
vn 0.9373025 -0.1578339 -0.3107291
vn 0.8860917 0.13471721 -0.44350064
vn 0.92328376 -0.27622747 -0.26691878
vn 0.9373025 -0.1578339 -0.3107291
vn 0.92687553 -0.2541688 -0.2762247
vn 0.9373025 -0.1578339 -0.3107291
vn 0.9373025 -0.1578339 -0.3107291
vn 0.92912674 -0.12775245 -0.34699085
vn 0.92529327 -0.07288229 -0.37218344
vn 0.92529327 -0.072882295 -0.37218347
vn -0 0.7331025 -0.6801182
vn -0.4070791 0.75021636 -0.5210202
vn -0 0.86111027 -0.5084182
vn -0.52440435 0.55360055 -0.64693636
vn -0.72493094 0.4695944 -0.5039407
vn -0 0.73462987 -0.6784681
vn -0.75066 0.28913933 -0.59406054
vn -0.5339576 0.58399785 -0.6114213
vn -0.77716863 0.32841414 -0.53679895
vn -0.7841869 0.21569623 -0.5818299
vn -0.8860917 0.13471721 -0.44350064
vn -0.80698013 0.35646087 -0.47087
vn -0.9219663 0.15014273 -0.35698083
vn -0.8860917 0.13471721 -0.44350064
vn -0.93408674 0.14767669 -0.3250748
vn -0.9592504 -0.016930362 -0.28204995
vn -0.9656241 -0.09587307 -0.24161647
vn -0.94741654 -0.011508168 -0.31979594
vn -0.8860917 0.13471721 -0.44350064
vn -0.8860917 0.13471721 -0.44350064
vn -0.95342034 -0.0731472 -0.29264155
vn -0.94730943 -0.17570817 -0.2678271
vn -0.94119006 -0.25158194 -0.2255389
vn -0.9245916 -0.27749076 -0.26101565
vn -0.9373025 -0.1578339 -0.3107291
vn -0.8860917 0.13471721 -0.44350064
vn -0.92328376 -0.27622747 -0.26691878
vn -0.9373025 -0.1578339 -0.3107291
vn -0.92687553 -0.2541688 -0.2762247
vn -0.9373025 -0.1578339 -0.3107291
vn -0.92912674 -0.12775245 -0.34699088
vn -0.9373025 -0.1578339 -0.3107291
vn -0.92529327 -0.072882324 -0.37218347
vn -0.92529327 -0.07288232 -0.3721835
g NPC_Female_Size02_Body_019_LOD0_0
f 3/3/3 2/2/2 1/1/1
f 5/5/5 4/4/4 1/1/1
f 4/4/4 6/6/6 1/1/1
f 4/4/4 7/7/7 6/6/6
f 8/8/8 1/1/1 6/6/6
f 7/7/7 9/9/9 6/6/6
f 8/8/8 6/6/6 10/10/10
f 9/9/9 10/10/10 6/6/6
f 11/11/11 8/8/8 10/10/10
f 9/9/9 12/12/12 10/10/10
f 13/13/13 10/10/10 12/12/12
f 13/13/13 12/12/12 14/14/14
f 15/15/15 13/13/13 14/14/14
f 10/10/10 16/16/16 11/11/11
f 10/10/10 13/13/13 16/16/16
f 16/16/16 17/17/17 11/11/11
f 18/18/18 17/17/17 16/16/16
f 13/13/13 15/15/15 19/19/19
f 15/15/15 20/20/20 19/19/19
f 19/19/19 21/21/21 13/13/13
f 13/13/13 22/22/22 16/16/16
f 21/21/21 22/22/22 13/13/13
f 23/23/23 18/18/18 16/16/16
f 16/16/16 22/22/22 23/23/23
f 24/24/24 22/22/22 21/21/21
f 22/22/22 24/24/24 23/23/23
f 25/25/25 24/24/24 21/21/21
f 23/23/23 26/26/26 18/18/18
f 23/23/23 24/24/24 26/26/26
f 26/26/26 27/27/27 18/18/18
f 24/24/24 28/28/28 26/26/26
f 28/28/28 24/24/24 25/25/25
f 29/29/29 28/28/28 25/25/25
f 32/32/32 31/31/31 30/30/30
f 34/34/34 33/33/33 32/32/32
f 35/35/35 34/34/34 32/32/32
f 34/34/34 35/35/35 36/36/36
f 37/37/37 34/34/34 36/36/36
f 37/37/37 36/36/36 38/38/38
f 36/36/36 39/39/39 38/38/38
f 40/40/40 37/37/37 38/38/38
f 38/38/38 39/39/39 41/41/41
f 39/39/39 42/42/42 41/41/41
f 43/43/43 40/40/40 38/38/38
f 43/43/43 38/38/38 41/41/41
f 40/40/40 43/43/43 44/44/44
f 43/43/43 45/45/45 44/44/44
f 45/45/45 43/43/43 46/46/46
f 46/46/46 43/43/43 41/41/41
f 47/47/47 45/45/45 46/46/46
f 47/47/47 46/46/46 48/48/48
f 48/48/48 46/46/46 41/41/41
f 49/49/49 47/47/47 48/48/48
f 50/50/50 48/48/48 41/41/41
f 50/50/50 41/41/41 42/42/42
f 51/51/51 50/50/50 42/42/42
f 54/54/54 53/53/53 52/52/52
f 57/57/57 56/56/56 55/55/55
f 60/60/60 59/59/59 58/58/58
f 62/62/62 61/61/61 58/58/58
f 63/63/63 62/62/62 58/58/58
f 64/64/64 62/62/62 63/63/63
f 58/58/58 65/65/65 63/63/63
f 66/66/66 64/64/64 63/63/63
f 63/63/63 65/65/65 67/67/67
f 67/67/67 66/66/66 63/63/63
f 65/65/65 68/68/68 67/67/67
f 69/69/69 66/66/66 67/67/67
f 67/67/67 70/70/70 69/69/69
f 69/69/69 70/70/70 71/71/71
f 70/70/70 72/72/72 71/71/71
f 73/73/73 67/67/67 68/68/68
f 70/70/70 67/67/67 73/73/73
f 74/74/74 73/73/73 68/68/68
f 74/74/74 75/75/75 73/73/73
f 72/72/72 70/70/70 76/76/76
f 77/77/77 72/72/72 76/76/76
f 78/78/78 76/76/76 70/70/70
f 79/79/79 70/70/70 73/73/73
f 79/79/79 78/78/78 70/70/70
f 75/75/75 80/80/80 73/73/73
f 73/73/73 80/80/80 79/79/79
f 78/78/78 79/79/79 81/81/81
f 80/80/80 81/81/81 79/79/79
f 82/82/82 78/78/78 81/81/81
f 80/80/80 75/75/75 83/83/83
f 81/81/81 80/80/80 83/83/83
f 75/75/75 84/84/84 83/83/83
f 85/85/85 81/81/81 83/83/83
f 82/82/82 81/81/81 85/85/85
f 86/86/86 82/82/82 85/85/85
f 89/89/89 88/88/88 87/87/87
f 91/91/91 90/90/90 88/88/88
f 90/90/90 92/92/92 88/88/88
f 92/92/92 90/90/90 93/93/93
f 90/90/90 94/94/94 93/93/93
f 93/93/93 94/94/94 95/95/95
f 96/96/96 93/93/93 95/95/95
f 94/94/94 97/97/97 95/95/95
f 96/96/96 95/95/95 98/98/98
f 99/99/99 96/96/96 98/98/98
f 97/97/97 100/100/100 95/95/95
f 95/95/95 100/100/100 98/98/98
f 100/100/100 97/97/97 101/101/101
f 102/102/102 100/100/100 101/101/101
f 100/100/100 102/102/102 103/103/103
f 100/100/100 103/103/103 98/98/98
f 102/102/102 104/104/104 103/103/103
f 103/103/103 104/104/104 105/105/105
f 103/103/103 105/105/105 98/98/98
f 104/104/104 106/106/106 105/105/105
f 105/105/105 107/107/107 98/98/98
f 98/98/98 107/107/107 99/99/99
f 107/107/107 108/108/108 99/99/99
f 111/111/111 110/110/110 109/109/109
f 114/114/114 113/113/113 112/112/112
f 117/117/117 116/116/116 115/115/115
f 115/115/115 118/118/118 117/117/117
f 117/117/117 118/118/118 119/119/119
f 118/118/118 115/115/115 120/120/120
f 121/121/121 119/119/119 118/118/118
f 122/122/122 118/118/118 120/120/120
f 123/123/123 121/121/121 118/118/118
f 118/118/118 122/122/122 123/123/123
f 121/121/121 123/123/123 124/124/124
f 123/123/123 125/125/125 124/124/124
f 122/122/122 126/126/126 123/123/123
f 123/123/123 126/126/126 127/127/127
f 123/123/123 127/127/127 128/128/128
f 126/126/126 129/129/129 127/127/127
f 130/130/130 127/127/127 129/129/129
f 131/131/131 130/130/130 129/129/129
f 127/127/127 130/130/130 132/132/132
f 132/132/132 133/133/133 127/127/127
f 134/134/134 132/132/132 130/130/130
f 135/135/135 130/130/130 131/131/131
f 136/136/136 135/135/135 131/131/131
f 136/136/136 130/130/130 135/135/135
f 131/131/131 137/137/137 136/136/136
f 137/137/137 138/138/138 136/136/136
f 130/130/130 136/136/136 139/139/139
f 140/140/140 130/130/130 139/139/139
f 138/138/138 141/141/141 136/136/136
f 142/142/142 136/136/136 141/141/141
f 143/143/143 141/141/141 138/138/138
f 144/144/144 141/141/141 143/143/143
f 146/146/146 145/145/145 143/143/143
f 147/147/147 144/144/144 146/146/146
f 148/148/148 147/147/147 146/146/146
f 151/151/151 150/150/150 149/149/149
f 152/152/152 149/149/149 150/150/150
f 152/152/152 150/150/150 153/153/153
f 149/149/149 152/152/152 154/154/154
f 153/153/153 155/155/155 152/152/152
f 152/152/152 156/156/156 154/154/154
f 155/155/155 157/157/157 152/152/152
f 156/156/156 152/152/152 157/157/157
f 155/155/155 158/158/158 157/157/157
f 158/158/158 159/159/159 157/157/157
f 160/160/160 156/156/156 157/157/157
f 160/160/160 157/157/157 161/161/161
f 161/161/161 157/157/157 162/162/162
f 163/163/163 160/160/160 161/161/161
f 163/163/163 161/161/161 164/164/164
f 165/165/165 163/163/163 164/164/164
f 164/164/164 161/161/161 166/166/166
f 167/167/167 166/166/166 161/161/161
f 166/166/166 168/168/168 164/164/164
f 164/164/164 169/169/169 165/165/165
f 169/169/169 170/170/170 165/165/165
f 164/164/164 170/170/170 169/169/169
f 171/171/171 165/165/165 170/170/170
f 172/172/172 171/171/171 170/170/170
f 173/173/173 170/170/170 164/164/164
f 174/174/174 173/173/173 164/164/164
f 175/175/175 172/172/172 170/170/170
f 170/170/170 176/176/176 175/175/175
f 175/175/175 177/177/177 172/172/172
f 175/175/175 178/178/178 177/177/177
f 180/180/180 179/179/179 177/177/177
f 178/178/178 181/181/181 179/179/179
f 181/181/181 182/182/182 179/179/179
