g NPC_Female_Size02_Body_012_LOD3
v 0.052213997 0.033326 1.474731
v 0.054468002 0.022626 1.4748983
v 0.056458 0.030565 1.480611
v 0.0442275 0.034009498 1.4631729
v 0.054468002 0.022626 1.4748983
v 0.031142 0.044068 1.4472244
v 0.021572249 0.0225915 1.4367273
v 0.028345 0.046416998 1.4238429
v 0.043137997 0.017302 1.4553415
v 0.054468002 0.022626 1.4748983
v 0.031388 0.01301 1.4447759
v 0.017104 0.0083185 1.4370685
v 0.017333997 0.026971998 1.417821
v 0.031247249 0.043378 1.4025667
v -0 0.0114855 1.4272641
v -0 0.003926 1.431385
v -0 0.016224 1.412109
v 0.015519749 0.023067 1.3953876
v -0 0.015578999 1.388981
v -0 0.0057669994 1.3693719
v 0.03563798 0.028827023 1.3850019
v -0 -0.0265825 1.3291266
v 0.0463145 -0.0155925 1.3348285
v 0.051733 -0.035315998 1.3160049
v -0 -0.047645 1.29985
v 0.025137998 -0.073801994 1.281443
v -0 -0.055290997 1.285897
v 0.056458 0.030565 1.480611
v 0.058446 0.039233 1.4851849
v 0.052213997 0.033326 1.474731
v 0.058446 0.039233 1.4851849
v 0.0446205 0.050341 1.472236
v 0.0442275 0.034009498 1.4631729
v 0.031142 0.044068 1.4472244
v 0.025875999 0.06028 1.4499109
v 0.024528 0.058804996 1.42448
v -0 0.0730375 1.4475225
v 0.028345 0.046416998 1.4238429
v -0 0.070549004 1.424055
v 0.0299375 0.060089998 1.4044579
v 0.031247249 0.043378 1.4025667
v -0 0.0727785 1.4038459
v 0.041708987 0.062729 1.3912199
v 0.03563798 0.028827023 1.3850019
v -0 0.07807 1.379515
v 0.025046 0.077006 1.3784449
v 0.064367 0.032119997 1.497572
v 0.065331995 0.047112998 1.498721
v 0.058446 0.039233 1.4851849
v 0.064367 0.032119997 1.497572
v 0.058446 0.039233 1.4851849
v 0.056458 0.030565 1.480611
v -0.052213997 0.033326 1.474731
v -0.056458 0.030565 1.480611
v -0.054468002 0.022626 1.4748983
v -0.054468002 0.022626 1.4748983
v -0.0442275 0.034009498 1.4631729
v -0.021572249 0.0225915 1.4367273
v -0.031142 0.044068 1.4472244
v -0.028345 0.046416998 1.4238429
v -0.043137997 0.017302 1.4553415
v -0.054468002 0.022626 1.4748983
v -0.031388 0.01301 1.4447759
v -0.017104 0.0083185 1.4370685
v -0.017333997 0.026971998 1.417821
v -0.031247249 0.043378 1.4025667
v -0 0.0114855 1.4272641
v -0 0.003926 1.431385
v -0 0.016224 1.412109
v -0.015519749 0.023067 1.3953876
v -0 0.015578999 1.388981
v -0 0.0057669994 1.3693719
v -0.035638 0.02882698 1.3850021
v -0 -0.0265825 1.3291266
v -0.0463145 -0.0155925 1.3348285
v -0.051733 -0.035315998 1.3160049
v -0 -0.047645 1.29985
v -0.025137998 -0.073801994 1.281443
v -0 -0.055290997 1.285897
v -0.056458 0.030565 1.480611
v -0.052213997 0.033326 1.474731
v -0.058446 0.039233 1.4851849
v -0.0446205 0.050341 1.472236
v -0.058446 0.039233 1.4851849
v -0.0442275 0.034009498 1.4631729
v -0.031142 0.044068 1.4472244
v -0.025875999 0.06028 1.4499109
v -0.024528 0.058804996 1.42448
v -0 0.0730375 1.4475225
v -0.028345 0.046416998 1.4238429
v -0 0.070549004 1.424055
v -0.0299375 0.060089998 1.4044579
v -0.031247249 0.043378 1.4025667
v -0 0.0727785 1.4038459
v -0.04170902 0.06272898 1.3912199
v -0.035638 0.02882698 1.3850021
v -0 0.07807 1.379515
v -0.025046 0.077006 1.3784449
v -0.064367 0.032119997 1.497572
v -0.058446 0.039233 1.4851849
v -0.065331995 0.047112998 1.498721
v -0.064367 0.032119997 1.497572
v -0.056458 0.030565 1.480611
v -0.058446 0.039233 1.4851849
v -0.066451 0.025461998 1.510788
v -0.061304998 0.025351 1.493681
v -0.064367 0.032119997 1.497572
v -0.056458 0.030565 1.480611
v -0.064367 0.032119997 1.497572
v -0.054468002 0.022626 1.4748983
v 0.316804 0.0468755 1.053221
v 0.36811548 0.0488945 1.002473
v 0.369081 0.061309 1.003353
v 0.316007 0.062617 1.054045
v 0.325193 0.073098 1.062428
v 0.37408796 0.068944 1.007936
v 0.3855 0.065472 1.0163535
v 0.34045348 0.069841996 1.077071
v 0.347998 0.049159 1.081078
v 0.39112097 0.048727002 1.020251
v 0.38445053 0.0359925 1.0164145
v 0.340877 0.0335045 1.0749124
v 0.326105 0.0341 1.0617169
v 0.372933 0.037355 1.0071019
v 0.36811548 0.0488945 1.002473
v 0.316804 0.0468755 1.053221
v -0.316804 0.0468755 1.053221
v -0.369081 0.061309 1.003353
v -0.36811548 0.0488945 1.002473
v -0.316007 0.062617 1.054045
v -0.325193 0.073098 1.062428
v -0.37408796 0.068944 1.007936
v -0.3855 0.065472 1.0163535
v -0.34045348 0.069841996 1.077071
v -0.347998 0.049159 1.081078
v -0.39112097 0.048727002 1.020251
v -0.38445053 0.0359925 1.0164145
v -0.340877 0.0335045 1.0749124
v -0.326105 0.0341 1.0617169
v -0.372933 0.037355 1.0071019
v -0.36811548 0.0488945 1.002473
v -0.316804 0.0468755 1.053221
v 0.066834 0.076297 1.5176879
v 0.062561 0.070744 1.504548
v 0.069823995 0.054008998 1.511761
v 0.072537 0.057112 1.5225079
v 0.069506995 0.048265 1.510771
v 0.071449995 0.044432 1.516813
v 0.073878 0.043881 1.525767
v 0.071632996 0.038645998 1.518777
v 0.073934 0.034177 1.5269479
v 0.070939 0.033638 1.5178329
v 0.070653 0.024518 1.5268949
v 0.069307 0.030242 1.515829
v 0.064367 0.032119997 1.497572
v 0.066451 0.025461998 1.510788
v 0.064367 0.032119997 1.497572
v 0.064367 0.032119997 1.497572
v 0.061304998 0.025351 1.493681
v 0.056458 0.030565 1.480611
v 0.054468002 0.022626 1.4748983
v 0.064367 0.032119997 1.497572
v -0 0.0730375 1.4475225
v 0.032144 0.079840995 1.472847
v -0 0.08785699 1.463901
v 0.025875999 0.06028 1.4499109
v 0.0446205 0.050341 1.472236
v 0.05126 0.065767 1.4851644
v 0.058446 0.039233 1.4851849
v 0.065331995 0.047112998 1.498721
v 0.062561 0.070744 1.504548
v 0.05126 0.065767 1.4851644
v 0.065331995 0.047112998 1.498721
v 0.069823995 0.054008998 1.511761
v 0.065331995 0.047112998 1.498721
v 0.069506995 0.048265 1.510771
v 0.071449995 0.044432 1.516813
v 0.065331995 0.047112998 1.498721
v 0.065331995 0.047112998 1.498721
v 0.064367 0.032119997 1.497572
v 0.070939 0.033638 1.5178329
v -0.066834 0.076297 1.5176879
v -0.069823995 0.054008998 1.511761
v -0.062561 0.070744 1.504548
v -0.072537 0.057112 1.5225079
v -0.069506995 0.048265 1.510771
v -0.071449995 0.044432 1.516813
v -0.073878 0.043881 1.525767
v -0.071632996 0.038645998 1.518777
v -0.073934 0.034177 1.5269479
v -0.070939 0.033638 1.5178329
v -0.070653 0.024518 1.5268949
v -0.069307 0.030242 1.515829
v -0.064367 0.032119997 1.497572
v -0.032144 0.079840995 1.472847
v -0 0.0730375 1.4475225
v -0 0.08785699 1.463901
v -0.025875999 0.06028 1.4499109
v -0.0446205 0.050341 1.472236
v -0.05126 0.065767 1.4851644
v -0.058446 0.039233 1.4851849
v -0.065331995 0.047112998 1.498721
v -0.062561 0.070744 1.504548
v -0.065331995 0.047112998 1.498721
v -0.05126 0.065767 1.4851644
v -0.069823995 0.054008998 1.511761
v -0.069506995 0.048265 1.510771
v -0.065331995 0.047112998 1.498721
v -0.071449995 0.044432 1.516813
v -0.065331995 0.047112998 1.498721
v -0.064367 0.032119997 1.497572
v -0.065331995 0.047112998 1.498721
v -0.070939 0.033638 1.5178329
v -0.066451 0.025461998 1.510788
v -0.064367 0.032119997 1.497572
v -0.069307 0.030242 1.515829
v -0.070653 0.024518 1.5268949
vt 0.451 0.9578
vt 0.44415 0.9608
vt 0.4503 0.9634
vt 0.44945002 0.94835
vt 0.44415 0.9608
vt 0.4535 0.93334997
vt 0.43685 0.92645
vt 0.4543 0.9181
vt 0.43734998 0.9461
vt 0.44415 0.9608
vt 0.433 0.9366
vt 0.4266 0.92795
vt 0.43940002 0.9124
vt 0.4556 0.903675
vt 0.42215002 0.9156
vt 0.4179 0.9192
vt 0.4259 0.9065
vt 0.4387 0.8965
vt 0.42675 0.8918
vt 0.4241 0.8779
vt 0.46 0.8907
vt 0.4112 0.8453
vt 0.44505 0.84215
vt 0.4409 0.8251
vt 0.4003 0.821
vt 0.411 0.796
vt 0.3948 0.8074
vt 0.6039 0.9427
vt 0.6103 0.9448
vt 0.605 0.9373
vt 0.6103 0.9448
vt 0.61615 0.931
vt 0.6074 0.9272
vt 0.6081 0.9129
vt 0.61934996 0.90975
vt 0.6107 0.8941
vt 0.63575 0.89795
vt 0.6031 0.8985
vt 0.6272 0.8847
vt 0.60144997 0.88250005
vt 0.5951 0.88885
vt 0.62165 0.87265
vt 0.5885 0.8758
vt 0.5852 0.8849
vt 0.6173 0.857
vt 0.6005 0.8604
vt 0.0155 0.0556
vt 0.023899999 0.09335
vt 0.0203 0.0456
vt 0.0155 0.0556
vt 0.0203 0.0456
vt 0.0139 0.043
vt 0.2459 0.9578
vt 0.2466 0.9634
vt 0.25274998 0.9608
vt 0.25274998 0.9608
vt 0.24745 0.94835
vt 0.26005 0.92645
vt 0.2434 0.93334997
vt 0.2426 0.9181
vt 0.25954998 0.9461
vt 0.25274998 0.9608
vt 0.2639 0.9366
vt 0.2703 0.92795
vt 0.2575 0.9124
vt 0.24127501 0.903675
vt 0.2747 0.9156
vt 0.279 0.9192
vt 0.271 0.9065
vt 0.25817502 0.8965
vt 0.27015 0.8918
vt 0.2728 0.8779
vt 0.23685 0.8907
vt 0.28570002 0.8453
vt 0.25185 0.84215
vt 0.256 0.8251
vt 0.2966 0.821
vt 0.2859 0.796
vt 0.3021 0.8074
vt 0.093 0.9427
vt 0.0919 0.9373
vt 0.0866 0.9448
vt 0.08075 0.931
vt 0.0866 0.9448
vt 0.0895 0.9272
vt 0.0888 0.9129
vt 0.07755 0.90975
vt 0.0862 0.8941
vt 0.06115 0.89795
vt 0.0938 0.8985
vt 0.0697 0.8847
vt 0.09545 0.88250005
vt 0.1018 0.88885
vt 0.07525 0.87265
vt 0.1084 0.8758
vt 0.1117 0.8849
vt 0.0796 0.857
vt 0.0964 0.8604
vt 0.0155 0.0556
vt 0.0203 0.0456
vt 0.023899999 0.09335
vt 0.0155 0.0556
vt 0.0139 0.043
vt 0.0203 0.0456
vt 0.0222 0.1311
vt 0.0106 0.0528
vt 0.0155 0.0556
vt 0.0139 0.043
vt 0.0155 0.0556
vt 0.0092 0.043
vt 0.7985 0.5705
vt 0.7828 0.5091
vt 0.7753 0.5106
vt 0.7893 0.5734
vt 0.7752 0.5757
vt 0.7664 0.5123
vt 0.7524 0.51255
vt 0.75575 0.57825
vt 0.735 0.5773
vt 0.7355 0.5125
vt 0.7212 0.51335
vt 0.7181 0.57695
vt 0.6997 0.5755
vt 0.7068 0.5127
vt 0.69455004 0.51125
vt 0.68345 0.57335
vt 0.7985 0.5705
vt 0.7753 0.5106
vt 0.7828 0.5091
vt 0.7893 0.5734
vt 0.7752 0.5757
vt 0.7664 0.5123
vt 0.7524 0.51255
vt 0.75575 0.57825
vt 0.735 0.5773
vt 0.7355 0.5125
vt 0.7212 0.51335
vt 0.7181 0.57695
vt 0.6997 0.5755
vt 0.7068 0.5127
vt 0.69455004 0.51125
vt 0.68345 0.57335
vt 0.044 0.0656
vt 0.0408 0.0577
vt 0.0304 0.0645
vt 0.0325 0.0714
vt 0.0266 0.0644
vt 0.0237 0.0686
vt 0.0242 0.0753
vt 0.0203 0.0712
vt 0.0182 0.0775
vt 0.0172 0.0712
vt 0.0114 0.0782
vt 0.0147 0.0692
vt 0.0155 0.0556
vt 0.0111 0.0695
vt 0.0155 0.0556
vt 0.0155 0.0556
vt 0.0106 0.0528
vt 0.0139 0.043
vt 0.0092 0.043
vt 0.0155 0.0556
vt 0.0604 0.0083
vt 0.053 0.0312
vt 0.0685 0.0156
vt 0.0457 0.0213
vt 0.0626 0.0652
vt 0.1239 0.1254
vt 0.0203 0.0456
vt 0.023899999 0.09335
vt 0.0408 0.0577
vt 0.1239 0.1254
vt 0.023899999 0.09335
vt 0.0304 0.0645
vt 0.023899999 0.09335
vt 0.0266 0.0644
vt 0.0237 0.0686
vt 0.023899999 0.09335
vt 0.023899999 0.09335
vt 0.0155 0.0556
vt 0.0172 0.0712
vt 0.044 0.0656
vt 0.0304 0.0645
vt 0.0408 0.0577
vt 0.0325 0.0714
vt 0.0266 0.0644
vt 0.0237 0.0686
vt 0.0242 0.0753
vt 0.0203 0.0712
vt 0.0182 0.0775
vt 0.0172 0.0712
vt 0.0114 0.0782
vt 0.0147 0.0692
vt 0.0155 0.0556
vt 0.053 0.0312
vt 0.0604 0.0083
vt 0.0685 0.0156
vt 0.0457 0.0213
vt 0.0894 0.1026
vt 0.0793 0.0864
vt 0.0203 0.0456
vt 0.023899999 0.09335
vt 0.0408 0.0577
vt 0.023899999 0.09335
vt 0.0793 0.0864
vt 0.0304 0.0645
vt 0.0266 0.0644
vt 0.023899999 0.09335
vt 0.0237 0.0686
vt 0.023899999 0.09335
vt 0.0155 0.0556
vt 0.023899999 0.09335
vt 0.0172 0.0712
vt 0.0222 0.1311
vt 0.0155 0.0556
vt 0.0147 0.0692
vt 0.0114 0.0782
vn 0.81994766 0.18289196 -0.54243565
vn 0.89474183 0.07111984 -0.44088438
vn 0.89115816 0.052861426 -0.45060286
vn 0.8299703 0.15477312 -0.5359053
vn 0.89474183 0.07111984 -0.44088438
vn 0.9059187 0.10357982 -0.41058788
vn 0.7440442 -0.29821327 -0.59788555
vn 0.9948172 -0.101612695 -0.0036999867
vn 0.7485525 0.12491637 -0.6512028
vn 0.89474183 0.07111984 -0.44088438
vn 0.60700333 0.008623814 -0.79465246
vn 0.45444196 -0.061891347 -0.88862365
vn 0.7274248 -0.68102515 -0.084011234
vn 0.8743536 -0.3359602 0.35019514
vn -0.00031689455 -0.6090082 -0.79316384
vn 4.783233E-05 -0.16762744 -0.9858504
vn -0 -0.9950363 -0.09951215
vn 0.5170591 -0.8110618 0.273548
vn -0 -0.94542044 0.32585284
vn 8.364121E-07 -0.79586303 0.6054766
vn 0.47521678 -0.6852428 0.55191606
vn 2.2081801E-07 -0.75785685 0.652421
vn 0.09097064 -0.75406075 0.6504743
vn -0.023057818 -0.7372852 0.6751881
vn -0 -0.71071917 0.7034758
vn -0.16418175 -0.6683376 0.72551304
vn -0 -0.67753166 0.7354936
vn 0.89115816 0.052861426 -0.45060286
vn 0.7853771 0.20495272 -0.5841037
vn 0.81994766 0.18289196 -0.54243565
vn 0.7853771 0.20495272 -0.5841037
vn 0.7761589 0.282619 -0.56365216
vn 0.8299703 0.15477312 -0.5359053
vn 0.9059187 0.10357982 -0.41058788
vn 0.70793647 0.57687265 -0.40748483
vn 0.76132286 0.64686006 0.044266123
vn -0 0.8974966 -0.4410213
vn 0.9948172 -0.101612695 -0.0036999867
vn -0 0.9995994 0.028301856
vn 0.7285316 0.56510544 0.38716608
vn 0.8743536 -0.3359602 0.35019514
vn -0 0.9567502 0.29091075
vn 0.671254 0.48353466 0.56179386
vn 0.47521678 -0.6852428 0.55191606
vn -0 0.9121808 0.4097879
vn 0.25445533 0.88215595 0.39629957
vn 0.89967865 -0.011089133 -0.43641195
vn 0.8965809 -0.023815963 -0.44223925
vn 0.902477 0.0011237286 -0.43073654
vn 0.89967865 -0.011089133 -0.43641195
vn 0.902477 0.0011237286 -0.43073654
vn 0.90563536 0.01590427 -0.42375886
vn -0.81994796 0.18289584 -0.5424339
vn -0.8911588 0.052866198 -0.450601
vn -0.8947443 0.07113941 -0.44087616
vn -0.8947443 0.07113941 -0.44087616
vn -0.8301428 0.15491857 -0.5355961
vn -0.7440237 -0.2903993 -0.601745
vn -0.9059187 0.10357982 -0.41058788
vn -0.9948172 -0.101612695 -0.0036999881
vn -0.74854344 0.12499301 -0.6511985
vn -0.8947443 0.07113941 -0.44087616
vn -0.60698897 0.008609117 -0.7946636
vn -0.45442384 -0.061792318 -0.8886398
vn -0.72742474 -0.6810252 -0.08401123
vn -0.8743529 -0.33595967 0.3501972
vn -0.00031689455 -0.6090082 -0.79316384
vn 4.783233E-05 -0.16762744 -0.9858504
vn -0 -0.9950363 -0.09951215
vn -0.51705784 -0.8110622 0.27354965
vn -0 -0.94542044 0.32585284
vn 8.364121E-07 -0.79586303 0.6054766
vn -0.4752142 -0.6852428 0.5519183
vn 2.2081801E-07 -0.75785685 0.652421
vn -0.090970084 -0.7540611 0.65047383
vn 0.023057818 -0.7372851 0.6751881
vn -0 -0.71071917 0.7034758
vn 0.16418175 -0.6683376 0.72551304
vn -0 -0.67753166 0.7354936
vn -0.8911588 0.052866198 -0.450601
vn -0.81994796 0.18289584 -0.5424339
vn -0.7853771 0.20495269 -0.5841037
vn -0.7761589 0.282619 -0.56365204
vn -0.7853771 0.20495269 -0.5841037
vn -0.8301428 0.15491857 -0.5355961
vn -0.9059187 0.10357982 -0.41058788
vn -0.7079366 0.5768726 -0.40748483
vn -0.76132286 0.64686006 0.044266123
vn -0 0.8974966 -0.4410213
vn -0.9948172 -0.101612695 -0.0036999881
vn -0 0.9995994 0.028301856
vn -0.72853076 0.5651059 0.3871669
vn -0.8743529 -0.33595967 0.3501972
vn -0 0.9567502 0.29091075
vn -0.67125255 0.4835349 0.56179535
vn -0.4752142 -0.6852428 0.5519183
vn -0 0.9121808 0.4097879
vn -0.2544555 0.88215584 0.39629954
vn -0.89967865 -0.011089133 -0.43641195
vn -0.902477 0.0011237286 -0.43073654
vn -0.8965809 -0.023815963 -0.44223925
vn -0.89967865 -0.011089133 -0.43641195
vn -0.90563536 0.01590427 -0.42375886
vn -0.902477 0.0011237286 -0.43073654
vn -0.94938743 -0.16728908 -0.26585302
vn -0.9406727 -0.038531136 -0.33712056
vn -0.92355657 -0.018154284 -0.38303217
vn -0.92497116 -0.07436741 -0.37268996
vn -0.92355657 -0.018154284 -0.38303217
vn -0.92497116 -0.07436741 -0.37269005
vn -0.67110187 -0.29949656 -0.67817706
vn -0.6707455 -0.3012567 -0.6777498
vn -0.6300071 0.41989702 -0.65328205
vn -0.6288052 0.4235238 -0.6520978
vn -0.15584363 0.9607718 -0.22941317
vn -0.1573588 0.96020716 -0.23073883
vn 0.54124504 0.7632656 0.3528163
vn 0.5335151 0.77149063 0.34664673
vn 0.81419975 -0.058609102 0.57761896
vn 0.81354284 -0.07036875 0.5772314
vn 0.40263525 -0.8784279 0.2573892
vn 0.40993327 -0.87333393 0.26313987
vn -0.30840442 -0.89183265 -0.33094013
vn -0.31955382 -0.88409436 -0.34097314
vn -0.6707455 -0.3012567 -0.6777498
vn -0.67110187 -0.29949656 -0.67817706
vn 0.67110187 -0.29949656 -0.67817706
vn 0.6300071 0.41989708 -0.65328205
vn 0.6707455 -0.3012567 -0.67774975
vn 0.6288052 0.4235238 -0.6520978
vn 0.15584363 0.9607718 -0.22941317
vn 0.1573588 0.96020716 -0.23073883
vn -0.54124516 0.7632656 0.35281637
vn -0.53351504 0.77149063 0.3466467
vn -0.8141998 -0.058609087 0.5776189
vn -0.81354284 -0.07036873 0.5772314
vn -0.4026352 -0.8784279 0.2573892
vn -0.40993327 -0.87333393 0.26313987
vn 0.30840445 -0.89183253 -0.33094007
vn 0.31955385 -0.88409436 -0.3409731
vn 0.6707455 -0.3012567 -0.67774975
vn 0.67110187 -0.29949656 -0.67817706
vn 0.9138348 0.2143183 -0.34492537
vn 0.8766994 0.21819352 -0.428707
vn 0.92629886 0.1254462 -0.3552937
vn 0.9444104 0.12116105 -0.30562913
vn 0.95174944 -0.003057373 -0.30686116
vn 0.9585425 -0.019462757 -0.28428414
vn 0.9622656 -0.01230028 -0.27183378
vn 0.9535904 -0.06303012 -0.29443613
vn 0.94122285 -0.17337638 -0.28989685
vn 0.93930584 -0.17780052 -0.29341358
vn 0.9391601 -0.19962606 -0.27951354
vn 0.9415295 -0.17640711 -0.28705886
vn 0.92359656 -0.015389808 -0.3830569
vn 0.94938743 -0.16728906 -0.26585284
vn 0.92359656 -0.015389808 -0.3830569
vn 0.92359656 -0.015389808 -0.3830569
vn 0.9406727 -0.038531132 -0.33712044
vn 0.92497116 -0.07436743 -0.37268996
vn 0.92497116 -0.074367434 -0.37269002
vn 0.92359656 -0.015389808 -0.3830569
vn -0 0.8974966 -0.4410213
vn 0.5982099 0.4924915 -0.63213694
vn -0 0.72083706 -0.6931045
vn 0.70793647 0.57687265 -0.40748483
vn 0.7761589 0.282619 -0.56365216
vn 0.7855464 0.25589213 -0.5634147
vn 0.7853771 0.20495272 -0.5841037
vn 0.8848803 0.11416073 -0.45161274
vn 0.8766994 0.21819352 -0.428707
vn 0.7855464 0.25589213 -0.5634147
vn 0.8848803 0.11416073 -0.45161274
vn 0.92629886 0.1254462 -0.3552937
vn 0.8848803 0.11416073 -0.45161274
vn 0.95174944 -0.003057373 -0.30686116
vn 0.9585425 -0.019462757 -0.28428414
vn 0.8848803 0.11416073 -0.45161274
vn 0.8848803 0.11416073 -0.45161274
vn 0.92359656 -0.015389808 -0.3830569
vn 0.93930584 -0.17780052 -0.29341358
vn -0.9138348 0.21431835 -0.34492537
vn -0.92629886 0.1254462 -0.3552937
vn -0.8766994 0.21819352 -0.428707
vn -0.9444104 0.12116105 -0.3056291
vn -0.95174944 -0.003057373 -0.30686116
vn -0.9585425 -0.019462757 -0.28428414
vn -0.9622656 -0.01230028 -0.27183378
vn -0.9535904 -0.06303012 -0.29443613
vn -0.94122285 -0.17337638 -0.28989685
vn -0.93930584 -0.17780052 -0.29341358
vn -0.9419153 -0.17985657 -0.2836321
vn -0.9371875 -0.20085388 -0.285197
vn -0.92355657 -0.018154284 -0.38303217
vn -0.5982099 0.4924915 -0.63213694
vn -0 0.8974966 -0.4410213
vn -0 0.72083706 -0.6931045
vn -0.7079366 0.5768726 -0.40748483
vn -0.7761589 0.282619 -0.56365204
vn -0.7855464 0.25589213 -0.5634147
vn -0.7853771 0.20495269 -0.5841037
vn -0.8848803 0.11416073 -0.45161274
vn -0.8766994 0.21819352 -0.428707
vn -0.8848803 0.11416073 -0.45161274
vn -0.7855464 0.25589213 -0.5634147
vn -0.92629886 0.1254462 -0.3552937
vn -0.95174944 -0.003057373 -0.30686116
vn -0.8848803 0.11416073 -0.45161274
vn -0.9585425 -0.019462757 -0.28428414
vn -0.8848803 0.11416073 -0.45161274
vn -0.92355657 -0.018154284 -0.38303217
vn -0.8848803 0.11416073 -0.45161274
vn -0.93930584 -0.17780052 -0.29341358
vn -0.94938743 -0.16728908 -0.26585302
vn -0.92355657 -0.018154284 -0.38303217
vn -0.9371875 -0.20085388 -0.285197
vn -0.9419153 -0.17985657 -0.2836321
g NPC_Female_Size02_Body_012_LOD3_0
f 3/3/3 2/2/2 1/1/1
f 5/5/5 4/4/4 1/1/1
f 4/4/4 7/7/7 6/6/6
f 6/6/6 7/7/7 8/8/8
f 9/9/9 7/7/7 4/4/4
f 10/10/10 9/9/9 4/4/4
f 9/9/9 11/11/11 7/7/7
f 7/7/7 11/11/11 12/12/12
f 7/7/7 13/13/13 8/8/8
f 14/14/14 8/8/8 13/13/13
f 7/7/7 12/12/12 15/15/15
f 7/7/7 15/15/15 13/13/13
f 12/12/12 16/16/16 15/15/15
f 15/15/15 17/17/17 13/13/13
f 18/18/18 14/14/14 13/13/13
f 18/18/18 13/13/13 17/17/17
f 19/19/19 18/18/18 17/17/17
f 19/19/19 20/20/20 18/18/18
f 14/14/14 18/18/18 21/21/21
f 18/18/18 20/20/20 21/21/21
f 20/20/20 22/22/22 21/21/21
f 22/22/22 23/23/23 21/21/21
f 23/23/23 22/22/22 24/24/24
f 22/22/22 25/25/25 24/24/24
f 26/26/26 24/24/24 25/25/25
f 27/27/27 26/26/26 25/25/25
f 30/30/30 29/29/29 28/28/28
f 32/32/32 31/31/31 30/30/30
f 33/33/33 32/32/32 30/30/30
f 33/33/33 34/34/34 32/32/32
f 34/34/34 35/35/35 32/32/32
f 36/36/36 35/35/35 34/34/34
f 37/37/37 35/35/35 36/36/36
f 38/38/38 36/36/36 34/34/34
f 39/39/39 37/37/37 36/36/36
f 36/36/36 38/38/38 40/40/40
f 39/39/39 36/36/36 40/40/40
f 38/38/38 41/41/41 40/40/40
f 42/42/42 39/39/39 40/40/40
f 40/40/40 41/41/41 43/43/43
f 42/42/42 40/40/40 43/43/43
f 41/41/41 44/44/44 43/43/43
f 45/45/45 42/42/42 43/43/43
f 43/43/43 46/46/46 45/45/45
f 49/49/49 48/48/48 47/47/47
f 52/52/52 51/51/51 50/50/50
f 55/55/55 54/54/54 53/53/53
f 57/57/57 56/56/56 53/53/53
f 59/59/59 58/58/58 57/57/57
f 58/58/58 59/59/59 60/60/60
f 58/58/58 61/61/61 57/57/57
f 61/61/61 62/62/62 57/57/57
f 63/63/63 61/61/61 58/58/58
f 63/63/63 58/58/58 64/64/64
f 65/65/65 58/58/58 60/60/60
f 60/60/60 66/66/66 65/65/65
f 64/64/64 58/58/58 67/67/67
f 67/67/67 58/58/58 65/65/65
f 68/68/68 64/64/64 67/67/67
f 69/69/69 67/67/67 65/65/65
f 66/66/66 70/70/70 65/65/65
f 65/65/65 70/70/70 69/69/69
f 70/70/70 71/71/71 69/69/69
f 72/72/72 71/71/71 70/70/70
f 66/66/66 73/73/73 70/70/70
f 73/73/73 72/72/72 70/70/70
f 74/74/74 72/72/72 73/73/73
f 75/75/75 74/74/74 73/73/73
f 75/75/75 76/76/76 74/74/74
f 76/76/76 77/77/77 74/74/74
f 77/77/77 76/76/76 78/78/78
f 79/79/79 77/77/77 78/78/78
f 82/82/82 81/81/81 80/80/80
f 84/84/84 83/83/83 81/81/81
f 85/85/85 81/81/81 83/83/83
f 86/86/86 85/85/85 83/83/83
f 87/87/87 86/86/86 83/83/83
f 87/87/87 88/88/88 86/86/86
f 87/87/87 89/89/89 88/88/88
f 88/88/88 90/90/90 86/86/86
f 89/89/89 91/91/91 88/88/88
f 90/90/90 88/88/88 92/92/92
f 92/92/92 88/88/88 91/91/91
f 93/93/93 90/90/90 92/92/92
f 94/94/94 92/92/92 91/91/91
f 93/93/93 92/92/92 95/95/95
f 95/95/95 92/92/92 94/94/94
f 96/96/96 93/93/93 95/95/95
f 95/95/95 94/94/94 97/97/97
f 97/97/97 98/98/98 95/95/95
f 101/101/101 100/100/100 99/99/99
f 104/104/104 103/103/103 102/102/102
f 107/107/107 106/106/106 105/105/105
f 106/106/106 109/109/109 108/108/108
f 110/110/110 106/106/106 108/108/108
f 113/113/113 112/112/112 111/111/111
f 114/114/114 113/113/113 111/111/111
f 114/114/114 115/115/115 113/113/113
f 115/115/115 116/116/116 113/113/113
f 117/117/117 116/116/116 115/115/115
f 118/118/118 117/117/117 115/115/115
f 118/118/118 119/119/119 117/117/117
f 119/119/119 120/120/120 117/117/117
f 121/121/121 120/120/120 119/119/119
f 122/122/122 121/121/121 119/119/119
f 122/122/122 123/123/123 121/121/121
f 123/123/123 124/124/124 121/121/121
f 124/124/124 123/123/123 125/125/125
f 123/123/123 126/126/126 125/125/125
f 129/129/129 128/128/128 127/127/127
f 128/128/128 130/130/130 127/127/127
f 131/131/131 130/130/130 128/128/128
f 132/132/132 131/131/131 128/128/128
f 132/132/132 133/133/133 131/131/131
f 133/133/133 134/134/134 131/131/131
f 135/135/135 134/134/134 133/133/133
f 136/136/136 135/135/135 133/133/133
f 136/136/136 137/137/137 135/135/135
f 137/137/137 138/138/138 135/135/135
f 139/139/139 138/138/138 137/137/137
f 140/140/140 139/139/139 137/137/137
f 139/139/139 140/140/140 141/141/141
f 142/142/142 139/139/139 141/141/141
f 145/145/145 144/144/144 143/143/143
f 146/146/146 145/145/145 143/143/143
f 147/147/147 145/145/145 146/146/146
f 148/148/148 147/147/147 146/146/146
f 146/146/146 149/149/149 148/148/148
f 150/150/150 148/148/148 149/149/149
f 151/151/151 150/150/150 149/149/149
f 152/152/152 148/148/148 150/150/150
f 152/152/152 150/150/150 151/151/151
f 151/151/151 153/153/153 152/152/152
f 153/153/153 154/154/154 152/152/152
f 155/155/155 152/152/152 154/154/154
f 156/156/156 154/154/154 153/153/153
f 157/157/157 154/154/154 156/156/156
f 159/159/159 158/158/158 156/156/156
f 159/159/159 161/161/161 160/160/160
f 162/162/162 159/159/159 160/160/160
f 165/165/165 164/164/164 163/163/163
f 164/164/164 166/166/166 163/163/163
f 166/166/166 164/164/164 167/167/167
f 164/164/164 168/168/168 167/167/167
f 169/169/169 167/167/167 168/168/168
f 170/170/170 169/169/169 168/168/168
f 173/173/173 172/172/172 171/171/171
f 174/174/174 173/173/173 171/171/171
f 176/176/176 175/175/175 174/174/174
f 178/178/178 176/176/176 177/177/177
f 180/180/180 179/179/179 177/177/177
f 181/181/181 180/180/180 177/177/177
f 184/184/184 183/183/183 182/182/182
f 183/183/183 185/185/185 182/182/182
f 185/185/185 183/183/183 186/186/186
f 185/185/185 186/186/186 187/187/187
f 187/187/187 188/188/188 185/185/185
f 187/187/187 189/189/189 188/188/188
f 189/189/189 190/190/190 188/188/188
f 187/187/187 191/191/191 189/189/189
f 189/189/189 191/191/191 190/190/190
f 192/192/192 190/190/190 191/191/191
f 193/193/193 192/192/192 191/191/191
f 191/191/191 194/194/194 193/193/193
f 197/197/197 196/196/196 195/195/195
f 196/196/196 198/198/198 195/195/195
f 195/195/195 198/198/198 199/199/199
f 200/200/200 195/195/195 199/199/199
f 200/200/200 199/199/199 201/201/201
f 202/202/202 200/200/200 201/201/201
f 205/205/205 204/204/204 203/203/203
f 204/204/204 206/206/206 203/203/203
f 208/208/208 207/207/207 206/206/206
f 207/207/207 210/210/210 209/209/209
f 209/209/209 212/212/212 211/211/211
f 213/213/213 209/209/209 211/211/211
f 216/216/216 215/215/215 214/214/214
f 214/214/214 217/217/217 216/216/216
