g NPC_Female_Size02_Body_024_LOD1
v 0.056458067 0.030565003 1.4806114
v 0.05844592 0.039232995 1.4851853
v 0.052214332 0.033326432 1.4747305
v 0.05844592 0.039232995 1.4851853
v 0.049976666 0.046508405 1.4778322
v 0.04272365 0.038932513 1.4641634
v 0.039264143 0.054174308 1.46664
v 0.0326143 0.04298013 1.4524854
v 0.026980298 0.062043626 1.4567468
v 0.024771864 0.05851645 1.4430751
v -0 0.07299576 1.4538217
v 0.029670358 0.04515604 1.4419633
v -0 0.069980256 1.4425039
v 0.024528386 0.058804665 1.4244796
v 0.028344864 0.046417244 1.4238429
v -0 0.069320574 1.4242666
v 0.029937834 0.060089797 1.4044583
v 0.032648742 0.046988733 1.4032794
v -0 0.07121804 1.4039421
v 0.06436702 0.032120414 1.4975723
v 0.065332115 0.04711271 1.4987208
v 0.05844592 0.039232995 1.4851853
v 0.06982401 0.054008782 1.5117614
v 0.065332115 0.04711271 1.4987208
v 0.06950688 0.048264917 1.5107712
v 0.071449965 0.04443168 1.516813
v 0.065332115 0.04711271 1.4987208
v 0.06436702 0.032120414 1.4975723
v 0.065332115 0.04711271 1.4987208
v 0.07093863 0.033638384 1.5178331
v 0.071632795 0.03864632 1.5187767
v 0.06930741 0.030241951 1.5158287
v 0.06436702 0.032120414 1.4975723
v 0.06784546 0.025226427 1.5159119
v 0.06505683 0.025698218 1.5056643
v 0.06436702 0.032120414 1.4975723
v 0.06436702 0.032120414 1.4975723
v 0.061304502 0.02535066 1.4936813
v 0.05663855 0.023615064 1.480024
v 0.056458067 0.030565003 1.4806114
v 0.06436702 0.032120414 1.4975723
v 0.05844592 0.039232995 1.4851853
v 0.056458067 0.030565003 1.4806114
v -0.056458067 0.030565003 1.4806114
v -0.052214332 0.033326432 1.4747305
v -0.05844592 0.039232995 1.4851853
v -0.049976666 0.046508405 1.4778322
v -0.05844592 0.039232995 1.4851853
v -0.04272365 0.038932513 1.4641634
v -0.039264143 0.054174308 1.46664
v -0.0326143 0.04298013 1.4524854
v -0.026980298 0.062043626 1.4567468
v -0.024771864 0.05851645 1.4430751
v -0 0.07299576 1.4538217
v -0.029670358 0.04515604 1.4419633
v -0 0.069980256 1.4425039
v -0.024528386 0.058804665 1.4244796
v -0.028344864 0.046417244 1.4238429
v -0 0.069320574 1.4242666
v -0.029937834 0.060089797 1.4044583
v -0.032648742 0.046988733 1.4032794
v -0 0.07121804 1.4039421
v -0.06436702 0.032120414 1.4975723
v -0.05844592 0.039232995 1.4851853
v -0.065332115 0.04711271 1.4987208
v -0.06982401 0.054008782 1.5117614
v -0.06950688 0.048264917 1.5107712
v -0.065332115 0.04711271 1.4987208
v -0.071449965 0.04443168 1.516813
v -0.065332115 0.04711271 1.4987208
v -0.06436702 0.032120414 1.4975723
v -0.065332115 0.04711271 1.4987208
v -0.07093863 0.033638384 1.5178331
v -0.071632795 0.03864632 1.5187767
v -0.06930741 0.030241951 1.5158287
v -0.06436702 0.032120414 1.4975723
v -0.06784546 0.025226427 1.5159119
v -0.06505683 0.025698218 1.5056643
v -0.06436702 0.032120414 1.4975723
v -0.061304502 0.02535066 1.4936813
v -0.06436702 0.032120414 1.4975723
v -0.05663855 0.023615064 1.480024
v -0.056458067 0.030565003 1.4806114
v -0.06436702 0.032120414 1.4975723
v -0.056458067 0.030565003 1.4806114
v -0.05844592 0.039232995 1.4851853
v 0.015519693 0.023066826 1.3953879
v -0 0.015579169 1.3889813
v -0 0.016224217 1.4121088
v 0.017333813 0.02697228 1.4178208
v 0.032648742 0.046988733 1.4032794
v 0.028344864 0.046417244 1.4238429
v -0 0.012954504 1.4260387
v 0.019818895 0.024463326 1.4336938
v 0.029670358 0.04515604 1.4419633
v 0.023325684 0.020719545 1.4397604
v -0 0.010016496 1.4284892
v 0.0326143 0.04298013 1.4524854
v 0.011258926 0.006452389 1.4345622
v -0 0.00392562 1.4313853
v 0.0229494 0.010184946 1.4395746
v 0.031388316 0.013010448 1.4447764
v 0.039491843 0.01581297 1.4510915
v 0.04573065 0.029085938 1.4621818
v 0.04272365 0.038932513 1.4641634
v 0.04678378 0.018790916 1.4595906
v 0.0522972 0.021637432 1.469773
v 0.052214332 0.033326432 1.4747305
v 0.05663855 0.023615064 1.480024
v 0.056458067 0.030565003 1.4806114
v -0.015519693 0.023066826 1.3953879
v -0 0.016224217 1.4121088
v -0 0.015579169 1.3889813
v -0.017333813 0.02697228 1.4178208
v -0.032648742 0.046988733 1.4032794
v -0.028344864 0.046417244 1.4238429
v -0 0.012954504 1.4260387
v -0.019818895 0.024463326 1.4336938
v -0.029670358 0.04515604 1.4419633
v -0.023325684 0.020719545 1.4397604
v -0 0.010016496 1.4284892
v -0.0326143 0.04298013 1.4524854
v -0.011258926 0.006452389 1.4345622
v -0 0.00392562 1.4313853
v -0.0229494 0.010184946 1.4395746
v -0.031388316 0.013010448 1.4447764
v -0.039491843 0.01581297 1.4510915
v -0.04573065 0.029085938 1.4621818
v -0.04272365 0.038932513 1.4641634
v -0.04678378 0.018790916 1.4595906
v -0.0522972 0.021637432 1.469773
v -0.052214332 0.033326432 1.4747305
v -0.05663855 0.023615064 1.480024
v -0.056458067 0.030565003 1.4806114
v 0.065332115 0.04711271 1.4987208
v 0.06982401 0.054008782 1.5117614
v 0.06256112 0.07074446 1.5045484
v 0.056839082 0.05988208 1.4897397
v 0.05844592 0.039232995 1.4851853
v 0.051907618 0.086755976 1.4956683
v 0.049976666 0.046508405 1.4778322
v 0.045680698 0.071651734 1.4805894
v 0.039264143 0.054174308 1.46664
v 0.03693664 0.096498184 1.4880629
v 0.026980298 0.062043626 1.4567468
v 0.032144357 0.0798405 1.4728467
v -0 0.103408866 1.4806744
v -0 0.07299576 1.4538217
v -0 0.08600337 1.465474
v -0.065332115 0.04711271 1.4987208
v -0.06256112 0.07074446 1.5045484
v -0.06982401 0.054008782 1.5117614
v -0.056839082 0.05988208 1.4897397
v -0.05844592 0.039232995 1.4851853
v -0.051907618 0.086755976 1.4956683
v -0.049976666 0.046508405 1.4778322
v -0.045680698 0.071651734 1.4805894
v -0.039264143 0.054174308 1.46664
v -0.03693664 0.096498184 1.4880629
v -0.026980298 0.062043626 1.4567468
v -0.032144357 0.0798405 1.4728467
v -0 0.103408866 1.4806744
v -0 0.07299576 1.4538217
v -0 0.08600337 1.465474
vt 0.6038908 0.94274
vt 0.6102825 0.9448322
vt 0.6050044 0.9372856
vt 0.6102825 0.9448322
vt 0.61432713 0.93662953
vt 0.60741717 0.9272116
vt 0.6180258 0.9253856
vt 0.6085064 0.9165292
vt 0.6220136 0.9139226
vt 0.6166817 0.90560526
vt 0.6342405 0.90401113
vt 0.6076669 0.90932417
vt 0.62997854 0.89738464
vt 0.61073303 0.8941244
vt 0.60314405 0.8985057
vt 0.6237453 0.8866948
vt 0.6014393 0.8824564
vt 0.59508395 0.888875
vt 0.61760604 0.8743448
vt 0.015455144 0.055629168
vt 0.025626473 0.05561186
vt 0.020268343 0.045595534
vt 0.030398546 0.06451617
vt 0.025626473 0.05561186
vt 0.026616018 0.06435779
vt 0.023713361 0.06859931
vt 0.025626473 0.05561186
vt 0.015455144 0.055629168
vt 0.025626473 0.05561186
vt 0.017205179 0.07116301
vt 0.02028957 0.07119831
vt 0.014718608 0.069189824
vt 0.015455144 0.055629168
vt 0.011069579 0.06949719
vt 0.011081814 0.061597735
vt 0.015455144 0.055629168
vt 0.015455144 0.055629168
vt 0.0106075 0.05276958
vt 0.009234418 0.04295388
vt 0.013907999 0.043015018
vt 0.015455144 0.055629168
vt 0.020268343 0.045595534
vt 0.013907999 0.043015018
vt 0.09300371 0.94274
vt 0.09189012 0.9372856
vt 0.08661201 0.9448322
vt 0.08256736 0.93662953
vt 0.08661201 0.9448322
vt 0.08947732 0.9272116
vt 0.07886871 0.9253856
vt 0.08838811 0.9165292
vt 0.07488086 0.9139226
vt 0.080212794 0.90560526
vt 0.06265395 0.90401113
vt 0.08922758 0.90932417
vt 0.06691592 0.89738464
vt 0.08616146 0.8941244
vt 0.09375044 0.8985057
vt 0.07314914 0.8866948
vt 0.09545519 0.8824564
vt 0.10181051 0.888875
vt 0.079288445 0.8743448
vt 0.015455144 0.055629168
vt 0.020268343 0.045595534
vt 0.025626473 0.05561186
vt 0.030398546 0.06451617
vt 0.026616018 0.06435779
vt 0.025626473 0.05561186
vt 0.023713361 0.06859931
vt 0.025626473 0.05561186
vt 0.015455144 0.055629168
vt 0.025626473 0.05561186
vt 0.017205179 0.07116301
vt 0.02028957 0.07119831
vt 0.014718608 0.069189824
vt 0.015455144 0.055629168
vt 0.011069579 0.06949719
vt 0.011081814 0.061597735
vt 0.015455144 0.055629168
vt 0.0106075 0.05276958
vt 0.015455144 0.055629168
vt 0.009234418 0.04295388
vt 0.013907999 0.043015018
vt 0.015455144 0.055629168
vt 0.013907999 0.043015018
vt 0.020268343 0.045595534
vt 0.43870646 0.8964852
vt 0.42674905 0.8918344
vt 0.42592812 0.90645784
vt 0.4393932 0.91244256
vt 0.45798498 0.90493417
vt 0.4542993 0.91810155
vt 0.42294705 0.9149418
vt 0.43766114 0.9237175
vt 0.45351654 0.92983997
vt 0.43606964 0.9291911
vt 0.42138287 0.91634125
vt 0.4534656 0.9368951
vt 0.42369276 0.92481047
vt 0.4178998 0.9192278
vt 0.42950386 0.9311019
vt 0.43298995 0.93659544
vt 0.43578053 0.94262403
vt 0.44601598 0.94911605
vt 0.4528847 0.9475712
vt 0.43885002 0.94957894
vt 0.44240248 0.95680857
vt 0.45097902 0.9578201
vt 0.44591233 0.9648293
vt 0.4503091 0.963352
vt 0.25818807 0.8964852
vt 0.27096638 0.90645784
vt 0.27014545 0.8918344
vt 0.25750127 0.91244256
vt 0.23890951 0.90493417
vt 0.24259517 0.91810155
vt 0.27394742 0.9149418
vt 0.25923333 0.9237175
vt 0.24337794 0.92983997
vt 0.26082483 0.9291911
vt 0.2755116 0.91634125
vt 0.24342886 0.9368951
vt 0.2732017 0.92481047
vt 0.27899468 0.9192278
vt 0.2673906 0.9311019
vt 0.2639045 0.93659544
vt 0.26111394 0.94262403
vt 0.25087848 0.94911605
vt 0.24400976 0.9475712
vt 0.25804445 0.94957894
vt 0.25449198 0.95680857
vt 0.24591544 0.9578201
vt 0.25098214 0.9648293
vt 0.24658537 0.963352
vt 0.025626473 0.05561186
vt 0.030398546 0.06451617
vt 0.040818647 0.05772908
vt 0.03466563 0.047429413
vt 0.020268343 0.045595534
vt 0.05222349 0.049987312
vt 0.026805671 0.03743198
vt 0.044626642 0.039047673
vt 0.03577138 0.027809197
vt 0.061625 0.042249687
vt 0.045659784 0.021268051
vt 0.05297373 0.03119865
vt 0.07518144 0.029960373
vt 0.05700718 0.011472088
vt 0.064617224 0.019376084
vt 0.025626473 0.05561186
vt 0.040818647 0.05772908
vt 0.030398546 0.06451617
vt 0.03466563 0.047429413
vt 0.020268343 0.045595534
vt 0.05222349 0.049987312
vt 0.026805671 0.03743198
vt 0.044626642 0.039047673
vt 0.03577138 0.027809197
vt 0.061625 0.042249687
vt 0.045659784 0.021268051
vt 0.05297373 0.03119865
vt 0.07518144 0.029960373
vt 0.05700718 0.011472088
vt 0.064617224 0.019376084
vn 0.89112765 0.0090808235 -0.45366183
vn 0.7861604 0.19892381 -0.58513343
vn 0.81663716 0.2172836 -0.5346883
vn 0.7861604 0.19892381 -0.58513343
vn 0.771541 0.22993001 -0.5931751
vn 0.75269717 0.2661302 -0.6021808
vn 0.73215663 0.29021066 -0.61621773
vn 0.8307376 0.19246562 -0.5223332
vn 0.62676054 0.5580673 -0.54381263
vn 0.73651564 0.6599805 -0.14822468
vn -0 0.819655 -0.57285744
vn 0.97324514 0.03602211 -0.2269279
vn -0 0.9876995 -0.1563639
vn 0.7282872 0.6796277 0.08777218
vn 0.9930091 -0.11241297 0.03600375
vn -0 0.9981628 0.06058973
vn 0.7666878 0.6076316 0.20730072
vn 0.9612466 -0.21411861 0.173661
vn -0 0.9914097 0.13079312
vn 0.8996735 -0.011098939 -0.43642226
vn 0.8965734 -0.023834733 -0.44225326
vn 0.9024739 0.0011230399 -0.43074316
vn 0.94476384 0.0043410175 -0.32772318
vn 0.89264643 0.1064112 -0.43801722
vn 0.94526255 -0.016719876 -0.3258822
vn 0.9474398 -0.051420454 -0.31577504
vn 0.89264643 0.1064112 -0.43801722
vn 0.9373025 -0.1578339 -0.3107291
vn 0.89264643 0.1064112 -0.43801722
vn 0.9439959 -0.12925823 -0.30358517
vn 0.9491358 -0.07389162 -0.30607417
vn 0.92240727 -0.27276948 -0.27342555
vn 0.9373025 -0.1578339 -0.3107291
vn 0.94959617 -0.17791186 -0.2580979
vn 0.9486648 -0.15836395 -0.27378088
vn 0.9373025 -0.1578339 -0.3107291
vn 0.9373025 -0.1578339 -0.3107291
vn 0.9439996 -0.08158282 -0.31970128
vn 0.91849875 0.02349225 -0.39472526
vn 0.89112765 0.0090808235 -0.45366183
vn 0.8996735 -0.011098939 -0.43642226
vn 0.9024739 0.0011230399 -0.43074316
vn 0.89112765 0.0090808235 -0.45366183
vn -0.89112765 0.009080816 -0.45366183
vn -0.81663716 0.2172836 -0.53468835
vn -0.7861604 0.19892381 -0.58513343
vn -0.771541 0.22993001 -0.5931751
vn -0.7861604 0.19892381 -0.58513343
vn -0.75269717 0.2661302 -0.6021808
vn -0.73215663 0.29021066 -0.6162178
vn -0.8307376 0.19246562 -0.5223332
vn -0.6267605 0.5580672 -0.5438127
vn -0.73651564 0.6599805 -0.14822468
vn -0 0.819655 -0.57285744
vn -0.97324514 0.03602213 -0.2269279
vn -0 0.9876995 -0.1563639
vn -0.72828716 0.6796277 0.087772146
vn -0.9930091 -0.11241297 0.03600375
vn -0 0.9981628 0.06058973
vn -0.7666878 0.6076316 0.20730072
vn -0.9612466 -0.2141186 0.173661
vn -0 0.9914097 0.13079312
vn -0.8996735 -0.011098939 -0.43642226
vn -0.9024739 0.0011230399 -0.43074316
vn -0.8965734 -0.023834733 -0.44225326
vn -0.94476384 0.0043410175 -0.32772318
vn -0.94526255 -0.016719876 -0.3258822
vn -0.89264643 0.10641116 -0.43801725
vn -0.9474398 -0.051420454 -0.31577504
vn -0.89264643 0.10641116 -0.43801725
vn -0.9373025 -0.1578339 -0.3107291
vn -0.89264643 0.10641116 -0.43801725
vn -0.943996 -0.12925823 -0.30358514
vn -0.9491358 -0.07389162 -0.30607417
vn -0.92240727 -0.27276948 -0.27342555
vn -0.9373025 -0.1578339 -0.3107291
vn -0.94959617 -0.17791186 -0.2580978
vn -0.9486648 -0.15836395 -0.27378076
vn -0.9373025 -0.1578339 -0.3107291
vn -0.9439997 -0.08158282 -0.31970122
vn -0.9373025 -0.1578339 -0.3107291
vn -0.9184989 0.02349225 -0.39472523
vn -0.89112765 0.009080816 -0.45366183
vn -0.8996735 -0.011098939 -0.43642226
vn -0.89112765 0.009080816 -0.45366183
vn -0.9024739 0.0011230399 -0.43074316
vn 0.6061889 -0.7913502 0.07937211
vn -0 -0.996899 0.078691624
vn -0 -0.9983783 -0.05692789
vn 0.7252199 -0.6865663 -0.05179513
vn 0.9612466 -0.21411861 0.173661
vn 0.9930091 -0.11241297 0.03600375
vn -0 -0.8466337 -0.5321761
vn 0.7742182 -0.49746558 -0.39129806
vn 0.97324514 0.03602211 -0.2269279
vn 0.6803995 -0.09602894 -0.7265226
vn -0 -0.4591688 -0.88834906
vn 0.8307376 0.19246562 -0.5223332
vn 0.3742855 0.026341775 -0.9269393
vn -0 -0.12750494 -0.9918379
vn 0.4675148 0.028096996 -0.8835386
vn 0.5779412 0.04545332 -0.81481165
vn 0.6635149 0.15345344 -0.7322567
vn 0.7534534 0.2508822 -0.60775495
vn 0.75269717 0.2661302 -0.6021808
vn 0.773606 0.16520178 -0.6117534
vn 0.88075125 0.12732953 -0.45614082
vn 0.81663716 0.2172836 -0.5346883
vn 0.91849875 0.02349225 -0.39472526
vn 0.89112765 0.0090808235 -0.45366183
vn -0.6061889 -0.7913502 0.07937211
vn -0 -0.9983783 -0.05692789
vn -0 -0.996899 0.078691624
vn -0.7252199 -0.6865663 -0.05179513
vn -0.9612466 -0.2141186 0.173661
vn -0.9930091 -0.11241297 0.03600375
vn -0 -0.8466337 -0.5321761
vn -0.7742182 -0.49746558 -0.39129806
vn -0.97324514 0.03602213 -0.2269279
vn -0.6803995 -0.09602895 -0.7265226
vn -0 -0.4591688 -0.88834906
vn -0.8307376 0.19246562 -0.5223332
vn -0.37428552 0.026341762 -0.9269393
vn -0 -0.12750494 -0.9918379
vn -0.46751496 0.028096998 -0.88353854
vn -0.57794124 0.045453317 -0.8148115
vn -0.66351503 0.15345345 -0.73225665
vn -0.7534534 0.2508822 -0.60775495
vn -0.75269717 0.2661302 -0.6021808
vn -0.77360606 0.16520177 -0.6117533
vn -0.88075125 0.12732953 -0.45614064
vn -0.81663716 0.2172836 -0.53468835
vn -0.9184989 0.02349225 -0.39472523
vn -0.89112765 0.009080816 -0.45366183
vn 0.89264643 0.1064112 -0.43801722
vn 0.86541295 0.21328507 -0.45339808
vn 0.83029103 0.24075599 -0.5026463
vn 0.80213445 0.21958174 -0.5553056
vn 0.7861604 0.19892381 -0.58513343
vn 0.7139287 0.3436582 -0.61008596
vn 0.771541 0.22993001 -0.5931751
vn 0.7107894 0.31237373 -0.63023895
vn 0.73215663 0.29021066 -0.61621773
vn 0.47179398 0.5205792 -0.7116232
vn 0.62676054 0.5580673 -0.54381263
vn 0.47766715 0.5090443 -0.7160363
vn -0 0.64341664 -0.76551616
vn -0 0.819655 -0.57285744
vn -0 0.64135796 -0.7672418
vn -0.89264643 0.10641116 -0.43801725
vn -0.83029103 0.24075599 -0.5026463
vn -0.86541295 0.21328506 -0.45339808
vn -0.80213445 0.21958171 -0.55530554
vn -0.7861604 0.19892381 -0.58513343
vn -0.71392876 0.34365818 -0.6100859
vn -0.771541 0.22993001 -0.5931751
vn -0.7107894 0.3123738 -0.63023895
vn -0.73215663 0.29021066 -0.6162178
vn -0.47179398 0.5205792 -0.7116232
vn -0.6267605 0.5580672 -0.5438127
vn -0.47766706 0.5090443 -0.71603644
vn -0 0.64341664 -0.76551616
vn -0 0.819655 -0.57285744
vn -0 0.64135796 -0.7672418
g NPC_Female_Size02_Body_024_LOD1_0
f 3/3/3 2/2/2 1/1/1
f 5/5/5 4/4/4 3/3/3
f 3/3/3 6/6/6 5/5/5
f 6/6/6 7/7/7 5/5/5
f 7/7/7 6/6/6 8/8/8
f 9/9/9 7/7/7 8/8/8
f 9/9/9 8/8/8 10/10/10
f 11/11/11 9/9/9 10/10/10
f 8/8/8 12/12/12 10/10/10
f 13/13/13 11/11/11 10/10/10
f 10/10/10 12/12/12 14/14/14
f 13/13/13 10/10/10 14/14/14
f 12/12/12 15/15/15 14/14/14
f 16/16/16 13/13/13 14/14/14
f 17/17/17 14/14/14 15/15/15
f 16/16/16 14/14/14 17/17/17
f 18/18/18 17/17/17 15/15/15
f 19/19/19 16/16/16 17/17/17
f 22/22/22 21/21/21 20/20/20
f 25/25/25 24/24/24 23/23/23
f 27/27/27 25/25/25 26/26/26
f 29/29/29 26/26/26 28/28/28
f 26/26/26 30/30/30 28/28/28
f 30/30/30 26/26/26 31/31/31
f 33/33/33 30/30/30 32/32/32
f 35/35/35 32/32/32 34/34/34
f 36/36/36 32/32/32 35/35/35
f 38/38/38 37/37/37 35/35/35
f 36/36/36 38/38/38 39/39/39
f 40/40/40 36/36/36 39/39/39
f 43/43/43 42/42/42 41/41/41
f 46/46/46 45/45/45 44/44/44
f 48/48/48 47/47/47 45/45/45
f 49/49/49 45/45/45 47/47/47
f 50/50/50 49/49/49 47/47/47
f 49/49/49 50/50/50 51/51/51
f 50/50/50 52/52/52 51/51/51
f 51/51/51 52/52/52 53/53/53
f 52/52/52 54/54/54 53/53/53
f 55/55/55 51/51/51 53/53/53
f 54/54/54 56/56/56 53/53/53
f 55/55/55 53/53/53 57/57/57
f 53/53/53 56/56/56 57/57/57
f 58/58/58 55/55/55 57/57/57
f 56/56/56 59/59/59 57/57/57
f 57/57/57 60/60/60 58/58/58
f 60/60/60 57/57/57 59/59/59
f 60/60/60 61/61/61 58/58/58
f 62/62/62 60/60/60 59/59/59
f 65/65/65 64/64/64 63/63/63
f 68/68/68 67/67/67 66/66/66
f 67/67/67 70/70/70 69/69/69
f 72/72/72 71/71/71 69/69/69
f 71/71/71 73/73/73 69/69/69
f 69/69/69 73/73/73 74/74/74
f 73/73/73 76/76/76 75/75/75
f 75/75/75 78/78/78 77/77/77
f 75/75/75 79/79/79 78/78/78
f 81/81/81 80/80/80 78/78/78
f 82/82/82 80/80/80 79/79/79
f 83/83/83 82/82/82 79/79/79
f 86/86/86 85/85/85 84/84/84
f 89/89/89 88/88/88 87/87/87
f 90/90/90 89/89/89 87/87/87
f 90/90/90 87/87/87 91/91/91
f 92/92/92 90/90/90 91/91/91
f 89/89/89 90/90/90 93/93/93
f 90/90/90 92/92/92 94/94/94
f 90/90/90 94/94/94 93/93/93
f 92/92/92 95/95/95 94/94/94
f 93/93/93 94/94/94 96/96/96
f 94/94/94 95/95/95 96/96/96
f 97/97/97 93/93/93 96/96/96
f 95/95/95 98/98/98 96/96/96
f 96/96/96 99/99/99 97/97/97
f 99/99/99 100/100/100 97/97/97
f 99/99/99 96/96/96 101/101/101
f 96/96/96 102/102/102 101/101/101
f 103/103/103 102/102/102 96/96/96
f 104/104/104 96/96/96 98/98/98
f 103/103/103 96/96/96 104/104/104
f 105/105/105 104/104/104 98/98/98
f 106/106/106 103/103/103 104/104/104
f 107/107/107 106/106/106 104/104/104
f 105/105/105 108/108/108 104/104/104
f 107/107/107 104/104/104 108/108/108
f 109/109/109 107/107/107 108/108/108
f 110/110/110 109/109/109 108/108/108
f 113/113/113 112/112/112 111/111/111
f 112/112/112 114/114/114 111/111/111
f 115/115/115 111/111/111 114/114/114
f 116/116/116 115/115/115 114/114/114
f 114/114/114 112/112/112 117/117/117
f 116/116/116 114/114/114 118/118/118
f 118/118/118 114/114/114 117/117/117
f 119/119/119 116/116/116 118/118/118
f 118/118/118 117/117/117 120/120/120
f 118/118/118 120/120/120 119/119/119
f 117/117/117 121/121/121 120/120/120
f 120/120/120 122/122/122 119/119/119
f 123/123/123 120/120/120 121/121/121
f 124/124/124 123/123/123 121/121/121
f 120/120/120 123/123/123 125/125/125
f 126/126/126 120/120/120 125/125/125
f 126/126/126 127/127/127 120/120/120
f 122/122/122 120/120/120 128/128/128
f 120/120/120 127/127/127 128/128/128
f 129/129/129 122/122/122 128/128/128
f 127/127/127 130/130/130 128/128/128
f 130/130/130 131/131/131 128/128/128
f 132/132/132 129/129/129 128/128/128
f 128/128/128 131/131/131 132/132/132
f 131/131/131 133/133/133 132/132/132
f 133/133/133 134/134/134 132/132/132
f 137/137/137 136/136/136 135/135/135
f 138/138/138 137/137/137 135/135/135
f 138/138/138 135/135/135 139/139/139
f 140/140/140 137/137/137 138/138/138
f 141/141/141 138/138/138 139/139/139
f 142/142/142 140/140/140 138/138/138
f 142/142/142 138/138/138 141/141/141
f 143/143/143 142/142/142 141/141/141
f 140/140/140 142/142/142 144/144/144
f 143/143/143 145/145/145 142/142/142
f 142/142/142 146/146/146 144/144/144
f 145/145/145 146/146/146 142/142/142
f 144/144/144 146/146/146 147/147/147
f 146/146/146 145/145/145 148/148/148
f 146/146/146 149/149/149 147/147/147
f 149/149/149 146/146/146 148/148/148
f 152/152/152 151/151/151 150/150/150
f 151/151/151 153/153/153 150/150/150
f 154/154/154 150/150/150 153/153/153
f 151/151/151 155/155/155 153/153/153
f 156/156/156 154/154/154 153/153/153
f 155/155/155 157/157/157 153/153/153
f 153/153/153 157/157/157 156/156/156
f 157/157/157 158/158/158 156/156/156
f 157/157/157 155/155/155 159/159/159
f 158/158/158 157/157/157 160/160/160
f 161/161/161 157/157/157 159/159/159
f 157/157/157 161/161/161 160/160/160
f 161/161/161 159/159/159 162/162/162
f 163/163/163 160/160/160 161/161/161
f 164/164/164 161/161/161 162/162/162
f 164/164/164 163/163/163 161/161/161
