g NPC_Female_Size02_Body_019_LOD1
v 0.052214332 0.033326432 1.4747305
v 0.05663855 0.023615064 1.480024
v 0.056458067 0.030565003 1.4806114
v 0.0522972 0.021637432 1.469773
v 0.05663855 0.023615064 1.480024
v 0.04573065 0.029085938 1.4621818
v 0.04678378 0.018790916 1.4595906
v 0.04272365 0.038932513 1.4641634
v 0.039491843 0.01581297 1.4510915
v 0.023325684 0.020719545 1.4397604
v 0.031388316 0.013010448 1.4447764
v 0.0229494 0.010184946 1.4395746
v 0.0326143 0.04298013 1.4524854
v 0.011258926 0.006452389 1.4345622
v -0 0.010016496 1.4284892
v -0 0.00392562 1.4313853
v -0 0.012954504 1.4260387
v 0.019818895 0.024463326 1.4336938
v 0.029670358 0.04515604 1.4419633
v 0.028344864 0.046417244 1.4238429
v 0.017333813 0.02697228 1.4178208
v -0 0.016224217 1.4121088
v 0.024916738 0.033696625 1.4061803
v 0.03026513 0.04681121 1.4092938
v 0.016004028 0.022102622 1.4035223
v 3.5390257E-10 0.0165152 1.4016534
v 0.056458067 0.030565003 1.4806114
v 0.05844592 0.039232995 1.4851853
v 0.052214332 0.033326432 1.4747305
v 0.05844592 0.039232995 1.4851853
v 0.049976666 0.046508405 1.4778322
v 0.04272365 0.038932513 1.4641634
v 0.039264143 0.054174308 1.46664
v 0.0326143 0.04298013 1.4524854
v 0.026980298 0.062043626 1.4567468
v 0.024771864 0.05851645 1.4430751
v -0 0.07299576 1.4538217
v 0.029670358 0.04515604 1.4419633
v -0 0.069980256 1.4425039
v 0.024528386 0.058804665 1.4244796
v -0 0.069320574 1.4242666
v -2.5816261E-08 0.07154322 1.4127146
v 0.028344864 0.046417244 1.4238429
v 0.027076295 0.059564352 1.4112898
v 0.03026513 0.04681121 1.4092938
v 0.06436702 0.032120414 1.4975723
v 0.065332115 0.04711271 1.4987208
v 0.05844592 0.039232995 1.4851853
v 0.06982401 0.054008782 1.5117614
v 0.065332115 0.04711271 1.4987208
v 0.06950688 0.048264917 1.5107712
v 0.071449965 0.04443168 1.516813
v 0.065332115 0.04711271 1.4987208
v 0.06436702 0.032120414 1.4975723
v 0.065332115 0.04711271 1.4987208
v 0.07093863 0.033638384 1.5178331
v 0.071632795 0.03864632 1.5187767
v 0.06930741 0.030241951 1.5158287
v 0.06436702 0.032120414 1.4975723
v 0.06784546 0.025226427 1.5159119
v 0.06505683 0.025698218 1.5056643
v 0.06436702 0.032120414 1.4975723
v 0.06436702 0.032120414 1.4975723
v 0.061304502 0.02535066 1.4936813
v 0.056458067 0.030565003 1.4806114
v 0.05663855 0.023615064 1.480024
v 0.06436702 0.032120414 1.4975723
v 0.05844592 0.039232995 1.4851853
v 0.056458067 0.030565003 1.4806114
v -0.052214332 0.033326432 1.4747305
v -0.056458067 0.030565003 1.4806114
v -0.05663855 0.023615064 1.480024
v -0.05663855 0.023615064 1.480024
v -0.0522972 0.021637432 1.469773
v -0.04573065 0.029085938 1.4621818
v -0.04678378 0.018790916 1.4595906
v -0.04272365 0.038932513 1.4641634
v -0.039491843 0.01581297 1.4510915
v -0.023325684 0.020719545 1.4397604
v -0.031388316 0.013010448 1.4447764
v -0.0229494 0.010184946 1.4395746
v -0.0326143 0.04298013 1.4524854
v -0.011258926 0.006452389 1.4345622
v -0 0.010016496 1.4284892
v -0 0.00392562 1.4313853
v -0 0.012954504 1.4260387
v -0.019818895 0.024463326 1.4336938
v -0.029670358 0.04515604 1.4419633
v -0.028344864 0.046417244 1.4238429
v -0.017333813 0.02697228 1.4178208
v -0 0.016224217 1.4121088
v -0.02491671 0.033696603 1.40618
v -0.030265111 0.046811223 1.4092939
v -0.016004007 0.02210265 1.4035223
v 3.5390257E-10 0.0165152 1.4016534
v -0.056458067 0.030565003 1.4806114
v -0.052214332 0.033326432 1.4747305
v -0.05844592 0.039232995 1.4851853
v -0.049976666 0.046508405 1.4778322
v -0.05844592 0.039232995 1.4851853
v -0.04272365 0.038932513 1.4641634
v -0.039264143 0.054174308 1.46664
v -0.0326143 0.04298013 1.4524854
v -0.026980298 0.062043626 1.4567468
v -0.024771864 0.05851645 1.4430751
v -0 0.07299576 1.4538217
v -0.029670358 0.04515604 1.4419633
v -0 0.069980256 1.4425039
v -0.024528386 0.058804665 1.4244796
v -0 0.069320574 1.4242666
v -2.5816261E-08 0.07154322 1.4127146
v -0.028344864 0.046417244 1.4238429
v -0.027076343 0.05956439 1.4112898
v -0.030265111 0.046811223 1.4092939
v -0.06436702 0.032120414 1.4975723
v -0.05844592 0.039232995 1.4851853
v -0.065332115 0.04711271 1.4987208
v -0.06982401 0.054008782 1.5117614
v -0.06950688 0.048264917 1.5107712
v -0.065332115 0.04711271 1.4987208
v -0.071449965 0.04443168 1.516813
v -0.065332115 0.04711271 1.4987208
v -0.06436702 0.032120414 1.4975723
v -0.065332115 0.04711271 1.4987208
v -0.07093863 0.033638384 1.5178331
v -0.071632795 0.03864632 1.5187767
v -0.06930741 0.030241951 1.5158287
v -0.06436702 0.032120414 1.4975723
v -0.06784546 0.025226427 1.5159119
v -0.06505683 0.025698218 1.5056643
v -0.06436702 0.032120414 1.4975723
v -0.061304502 0.02535066 1.4936813
v -0.06436702 0.032120414 1.4975723
v -0.056458067 0.030565003 1.4806114
v -0.05663855 0.023615064 1.480024
v -0.06436702 0.032120414 1.4975723
v -0.056458067 0.030565003 1.4806114
v -0.05844592 0.039232995 1.4851853
v 0.026980298 0.062043626 1.4567468
v -0 0.08600337 1.465474
v -0 0.07299576 1.4538217
v 0.032144357 0.0798405 1.4728467
v -0 0.103408866 1.4806744
v 0.039264143 0.054174308 1.46664
v 0.03693664 0.096498184 1.4880629
v 0.045680698 0.071651734 1.4805894
v 0.049976666 0.046508405 1.4778322
v 0.051907618 0.086755976 1.4956683
v 0.056839082 0.05988208 1.4897397
v 0.05844592 0.039232995 1.4851853
v 0.06256112 0.07074446 1.5045484
v 0.065332115 0.04711271 1.4987208
v 0.06982401 0.054008782 1.5117614
v -0.026980298 0.062043626 1.4567468
v -0 0.07299576 1.4538217
v -0 0.08600337 1.465474
v -0.032144357 0.0798405 1.4728467
v -0 0.103408866 1.4806744
v -0.039264143 0.054174308 1.46664
v -0.03693664 0.096498184 1.4880629
v -0.045680698 0.071651734 1.4805894
v -0.049976666 0.046508405 1.4778322
v -0.051907618 0.086755976 1.4956683
v -0.056839082 0.05988208 1.4897397
v -0.05844592 0.039232995 1.4851853
v -0.06256112 0.07074446 1.5045484
v -0.065332115 0.04711271 1.4987208
v -0.06982401 0.054008782 1.5117614
vt 0.45097902 0.9578201
vt 0.44591233 0.9648293
vt 0.4503091 0.963352
vt 0.44240248 0.95680857
vt 0.44591233 0.9648293
vt 0.44601598 0.94911605
vt 0.43885002 0.94957894
vt 0.4528847 0.9475712
vt 0.43578053 0.94262403
vt 0.43606964 0.9291911
vt 0.43298995 0.93659544
vt 0.42950386 0.9311019
vt 0.4534656 0.9368951
vt 0.42369276 0.92481047
vt 0.42138287 0.91634125
vt 0.4178998 0.9192278
vt 0.42294705 0.9149418
vt 0.43766114 0.9237175
vt 0.45351654 0.92983997
vt 0.4542993 0.91810155
vt 0.4393932 0.91244256
vt 0.42592812 0.90645784
vt 0.45324838 0.90248644
vt 0.45798498 0.90493417
vt 0.43870646 0.8964852
vt 0.42674905 0.8918344
vt 0.6038908 0.94274
vt 0.6102825 0.9448322
vt 0.6050044 0.9372856
vt 0.6102825 0.9448322
vt 0.61432713 0.93662953
vt 0.60741717 0.9272116
vt 0.6180258 0.9253856
vt 0.6085064 0.9165292
vt 0.6220136 0.9139226
vt 0.6166817 0.90560526
vt 0.6342405 0.90401113
vt 0.6076669 0.90932417
vt 0.62997854 0.89738464
vt 0.61073303 0.8941244
vt 0.6237453 0.8866948
vt 0.61760604 0.8743448
vt 0.60314405 0.8985057
vt 0.6014393 0.8824564
vt 0.59508395 0.888875
vt 0.015455144 0.055629168
vt 0.025626473 0.05561186
vt 0.020268343 0.045595534
vt 0.030398546 0.06451617
vt 0.025626473 0.05561186
vt 0.026616018 0.06435779
vt 0.023713361 0.06859931
vt 0.025626473 0.05561186
vt 0.015455144 0.055629168
vt 0.025626473 0.05561186
vt 0.017205179 0.07116301
vt 0.02028957 0.07119831
vt 0.014718608 0.069189824
vt 0.015455144 0.055629168
vt 0.011069579 0.06949719
vt 0.011081814 0.061597735
vt 0.015455144 0.055629168
vt 0.015455144 0.055629168
vt 0.0106075 0.05276958
vt 0.013907999 0.043015018
vt 0.009234418 0.04295388
vt 0.015455144 0.055629168
vt 0.020268343 0.045595534
vt 0.013907999 0.043015018
vt 0.24591544 0.9578201
vt 0.24658537 0.963352
vt 0.25098214 0.9648293
vt 0.25098214 0.9648293
vt 0.25449198 0.95680857
vt 0.25087848 0.94911605
vt 0.25804445 0.94957894
vt 0.24400976 0.9475712
vt 0.26111394 0.94262403
vt 0.26082483 0.9291911
vt 0.2639045 0.93659544
vt 0.2673906 0.9311019
vt 0.24342886 0.9368951
vt 0.2732017 0.92481047
vt 0.2755116 0.91634125
vt 0.27899468 0.9192278
vt 0.27394742 0.9149418
vt 0.25923333 0.9237175
vt 0.24337794 0.92983997
vt 0.24259517 0.91810155
vt 0.25750127 0.91244256
vt 0.27096638 0.90645784
vt 0.24364609 0.90248644
vt 0.23890951 0.90493417
vt 0.25818807 0.8964852
vt 0.27014545 0.8918344
vt 0.09300371 0.94274
vt 0.09189012 0.9372856
vt 0.08661201 0.9448322
vt 0.08256736 0.93662953
vt 0.08661201 0.9448322
vt 0.08947732 0.9272116
vt 0.07886871 0.9253856
vt 0.08838811 0.9165292
vt 0.07488086 0.9139226
vt 0.080212794 0.90560526
vt 0.06265395 0.90401113
vt 0.08922758 0.90932417
vt 0.06691592 0.89738464
vt 0.08616146 0.8941244
vt 0.07314914 0.8866948
vt 0.079288445 0.8743448
vt 0.09375044 0.8985057
vt 0.09545519 0.8824564
vt 0.10181051 0.888875
vt 0.015455144 0.055629168
vt 0.020268343 0.045595534
vt 0.025626473 0.05561186
vt 0.030398546 0.06451617
vt 0.026616018 0.06435779
vt 0.025626473 0.05561186
vt 0.023713361 0.06859931
vt 0.025626473 0.05561186
vt 0.015455144 0.055629168
vt 0.025626473 0.05561186
vt 0.017205179 0.07116301
vt 0.02028957 0.07119831
vt 0.014718608 0.069189824
vt 0.015455144 0.055629168
vt 0.011069579 0.06949719
vt 0.011081814 0.061597735
vt 0.015455144 0.055629168
vt 0.0106075 0.05276958
vt 0.015455144 0.055629168
vt 0.013907999 0.043015018
vt 0.009234418 0.04295388
vt 0.015455144 0.055629168
vt 0.013907999 0.043015018
vt 0.020268343 0.045595534
vt 0.045659784 0.021268051
vt 0.064617224 0.019376084
vt 0.05700718 0.011472088
vt 0.05297373 0.03119865
vt 0.07518144 0.029960373
vt 0.03577138 0.027809197
vt 0.061625 0.042249687
vt 0.044626642 0.039047673
vt 0.026805671 0.03743198
vt 0.05222349 0.049987312
vt 0.03466563 0.047429413
vt 0.020268343 0.045595534
vt 0.040818647 0.05772908
vt 0.025626473 0.05561186
vt 0.030398546 0.06451617
vt 0.045659784 0.021268051
vt 0.05700718 0.011472088
vt 0.064617224 0.019376084
vt 0.05297373 0.03119865
vt 0.07518144 0.029960373
vt 0.03577138 0.027809197
vt 0.061625 0.042249687
vt 0.044626642 0.039047673
vt 0.026805671 0.03743198
vt 0.05222349 0.049987312
vt 0.03466563 0.047429413
vt 0.020268343 0.045595534
vt 0.040818647 0.05772908
vt 0.025626473 0.05561186
vt 0.030398546 0.06451617
vn 0.81663716 0.2172836 -0.5346883
vn 0.8714108 0.14086153 -0.46989498
vn 0.8263539 0.08404694 -0.55684394
vn 0.85399497 0.20616245 -0.47769192
vn 0.8714108 0.14086153 -0.46989498
vn 0.7534534 0.2508822 -0.60775495
vn 0.71365386 0.27174243 -0.64564246
vn 0.75269717 0.2661302 -0.6021808
vn 0.62554926 0.2688876 -0.73238486
vn 0.6803995 -0.09602894 -0.7265226
vn 0.57195085 0.06619026 -0.817613
vn 0.44727165 -0.0001970168 -0.8943981
vn 0.8307376 0.19246562 -0.5223332
vn 0.42970657 -0.1120494 -0.89598954
vn -0 -0.4591688 -0.88834906
vn -0 -0.42941388 -0.9031078
vn -0 -0.8466337 -0.5321761
vn 0.7742182 -0.49746558 -0.39129806
vn 0.97324514 0.03602211 -0.2269279
vn 0.99598986 -0.084657766 0.028932758
vn 0.7209264 -0.6930088 -0.0019890214
vn -3.9435878E-07 -0.99996376 -0.008512171
vn 0.83001894 -0.5298092 0.17427206
vn 0.98365825 -0.11089539 0.14184047
vn 0.570104 -0.8042493 0.16782308
vn -5.996723E-07 -0.987347 0.1585743
vn 0.8263539 0.08404694 -0.55684394
vn 0.7861604 0.19892381 -0.58513343
vn 0.81663716 0.2172836 -0.5346883
vn 0.7861604 0.19892381 -0.58513343
vn 0.771541 0.22993001 -0.5931751
vn 0.75269717 0.2661302 -0.6021808
vn 0.73215663 0.29021066 -0.61621773
vn 0.8307376 0.19246562 -0.5223332
vn 0.62676054 0.5580673 -0.54381263
vn 0.73651564 0.6599805 -0.14822468
vn -0 0.819655 -0.57285744
vn 0.97324514 0.03602211 -0.2269279
vn -0 0.9876995 -0.1563639
vn 0.7381572 0.67028993 0.07638987
vn 4.4522287E-07 0.9969638 0.07786548
vn -2.3179953E-07 0.9865275 0.16359559
vn 0.99598986 -0.084657766 0.028932758
vn 0.78187335 0.598478 0.17463744
vn 0.98365825 -0.11089539 0.14184047
vn 0.8996735 -0.011098939 -0.43642226
vn 0.8965734 -0.023834733 -0.44225326
vn 0.9024739 0.0011230399 -0.43074316
vn 0.94476384 0.0043410175 -0.32772318
vn 0.89264643 0.1064112 -0.43801722
vn 0.94526255 -0.016719876 -0.3258822
vn 0.9474398 -0.051420454 -0.31577504
vn 0.89264643 0.1064112 -0.43801722
vn 0.9373025 -0.1578339 -0.3107291
vn 0.89264643 0.1064112 -0.43801722
vn 0.9439959 -0.12925823 -0.30358517
vn 0.9491358 -0.07389162 -0.30607417
vn 0.92240727 -0.27276948 -0.27342555
vn 0.9373025 -0.1578339 -0.3107291
vn 0.92473197 -0.27393666 -0.26425284
vn 0.92687553 -0.2541688 -0.2762247
vn 0.9373025 -0.1578339 -0.3107291
vn 0.9373025 -0.1578339 -0.3107291
vn 0.92912674 -0.12775245 -0.34699085
vn 0.92529327 -0.07288229 -0.37218344
vn 0.92529327 -0.072882295 -0.37218347
vn 0.8996735 -0.011098939 -0.43642226
vn 0.9024739 0.0011230399 -0.43074316
vn 0.9056342 0.015913744 -0.4237611
vn -0.81663716 0.2172836 -0.53468835
vn -0.8263539 0.08404694 -0.55684394
vn -0.8714108 0.14086153 -0.46989498
vn -0.8714108 0.14086153 -0.46989498
vn -0.85399497 0.20616245 -0.47769192
vn -0.7534534 0.2508822 -0.60775495
vn -0.71365386 0.27174243 -0.64564246
vn -0.75269717 0.2661302 -0.6021808
vn -0.62554926 0.2688876 -0.73238486
vn -0.6803995 -0.09602895 -0.7265226
vn -0.57195085 0.06619026 -0.817613
vn -0.44727165 -0.0001970168 -0.8943981
vn -0.8307376 0.19246562 -0.5223332
vn -0.42970657 -0.1120494 -0.89598954
vn -0 -0.4591688 -0.88834906
vn -0 -0.42941388 -0.9031078
vn -0 -0.8466337 -0.5321761
vn -0.7742182 -0.49746558 -0.39129806
vn -0.97324514 0.03602213 -0.2269279
vn -0.99598986 -0.084658675 0.028933067
vn -0.7209267 -0.6930085 -0.0019902298
vn -3.9435878E-07 -0.99996376 -0.008512171
vn -0.83001894 -0.5298098 0.17427023
vn -0.9836578 -0.110897765 0.14184129
vn -0.57010597 -0.8042483 0.16782123
vn -5.996723E-07 -0.987347 0.1585743
vn -0.8263539 0.08404694 -0.55684394
vn -0.81663716 0.2172836 -0.53468835
vn -0.7861604 0.19892381 -0.58513343
vn -0.771541 0.22993001 -0.5931751
vn -0.7861604 0.19892381 -0.58513343
vn -0.75269717 0.2661302 -0.6021808
vn -0.73215663 0.29021066 -0.6162178
vn -0.8307376 0.19246562 -0.5223332
vn -0.6267605 0.5580672 -0.5438127
vn -0.73651564 0.6599805 -0.14822468
vn -0 0.819655 -0.57285744
vn -0.97324514 0.03602213 -0.2269279
vn -0 0.9876995 -0.1563639
vn -0.7381573 0.6702897 0.07639142
vn 4.4522287E-07 0.9969638 0.07786548
vn -2.3179953E-07 0.9865275 0.16359559
vn -0.99598986 -0.084658675 0.028933067
vn -0.78187245 0.59847814 0.17464042
vn -0.9836578 -0.110897765 0.14184129
vn -0.8996735 -0.011098939 -0.43642226
vn -0.9024739 0.0011230399 -0.43074316
vn -0.8965734 -0.023834733 -0.44225326
vn -0.94476384 0.0043410175 -0.32772318
vn -0.94526255 -0.016719876 -0.3258822
vn -0.89264643 0.10641116 -0.43801725
vn -0.9474398 -0.051420454 -0.31577504
vn -0.89264643 0.10641116 -0.43801725
vn -0.9373025 -0.1578339 -0.3107291
vn -0.89264643 0.10641116 -0.43801725
vn -0.943996 -0.12925823 -0.30358514
vn -0.9491358 -0.07389162 -0.30607417
vn -0.92240727 -0.27276948 -0.27342555
vn -0.9373025 -0.1578339 -0.3107291
vn -0.92473197 -0.27393666 -0.26425284
vn -0.92687553 -0.2541688 -0.2762247
vn -0.9373025 -0.1578339 -0.3107291
vn -0.92912674 -0.12775245 -0.34699088
vn -0.9373025 -0.1578339 -0.3107291
vn -0.92529327 -0.072882324 -0.37218347
vn -0.92529327 -0.07288232 -0.3721835
vn -0.8996735 -0.011098939 -0.43642226
vn -0.9056342 0.015913744 -0.4237611
vn -0.9024739 0.0011230399 -0.43074316
vn 0.62676054 0.5580673 -0.54381263
vn -0 0.64135796 -0.7672418
vn -0 0.819655 -0.57285744
vn 0.47766715 0.5090443 -0.7160363
vn -0 0.64341664 -0.76551616
vn 0.73215663 0.29021066 -0.61621773
vn 0.47179398 0.5205792 -0.7116232
vn 0.7107894 0.31237373 -0.63023895
vn 0.771541 0.22993001 -0.5931751
vn 0.7139287 0.3436582 -0.61008596
vn 0.80213445 0.21958174 -0.5553056
vn 0.7861604 0.19892381 -0.58513343
vn 0.83029103 0.24075599 -0.5026463
vn 0.89264643 0.1064112 -0.43801722
vn 0.86541295 0.21328507 -0.45339808
vn -0.6267605 0.5580672 -0.5438127
vn -0 0.819655 -0.57285744
vn -0 0.64135796 -0.7672418
vn -0.47766706 0.5090443 -0.71603644
vn -0 0.64341664 -0.76551616
vn -0.73215663 0.29021066 -0.6162178
vn -0.47179398 0.5205792 -0.7116232
vn -0.7107894 0.3123738 -0.63023895
vn -0.771541 0.22993001 -0.5931751
vn -0.71392876 0.34365818 -0.6100859
vn -0.80213445 0.21958171 -0.55530554
vn -0.7861604 0.19892381 -0.58513343
vn -0.83029103 0.24075599 -0.5026463
vn -0.89264643 0.10641116 -0.43801725
vn -0.86541295 0.21328506 -0.45339808
g NPC_Female_Size02_Body_019_LOD1_0
f 3/3/3 2/2/2 1/1/1
f 5/5/5 4/4/4 1/1/1
f 4/4/4 6/6/6 1/1/1
f 4/4/4 7/7/7 6/6/6
f 8/8/8 1/1/1 6/6/6
f 7/7/7 9/9/9 6/6/6
f 8/8/8 6/6/6 10/10/10
f 9/9/9 10/10/10 6/6/6
f 9/9/9 11/11/11 10/10/10
f 10/10/10 11/11/11 12/12/12
f 13/13/13 8/8/8 10/10/10
f 14/14/14 10/10/10 12/12/12
f 10/10/10 14/14/14 15/15/15
f 14/14/14 16/16/16 15/15/15
f 15/15/15 17/17/17 10/10/10
f 10/10/10 18/18/18 13/13/13
f 17/17/17 18/18/18 10/10/10
f 18/18/18 19/19/19 13/13/13
f 20/20/20 19/19/19 18/18/18
f 21/21/21 18/18/18 17/17/17
f 21/21/21 20/20/20 18/18/18
f 22/22/22 21/21/21 17/17/17
f 20/20/20 21/21/21 23/23/23
f 24/24/24 20/20/20 23/23/23
f 21/21/21 25/25/25 23/23/23
f 21/21/21 22/22/22 25/25/25
f 22/22/22 26/26/26 25/25/25
f 29/29/29 28/28/28 27/27/27
f 31/31/31 30/30/30 29/29/29
f 29/29/29 32/32/32 31/31/31
f 32/32/32 33/33/33 31/31/31
f 33/33/33 32/32/32 34/34/34
f 35/35/35 33/33/33 34/34/34
f 35/35/35 34/34/34 36/36/36
f 37/37/37 35/35/35 36/36/36
f 34/34/34 38/38/38 36/36/36
f 39/39/39 37/37/37 36/36/36
f 36/36/36 38/38/38 40/40/40
f 39/39/39 36/36/36 40/40/40
f 41/41/41 39/39/39 40/40/40
f 42/42/42 41/41/41 40/40/40
f 38/38/38 43/43/43 40/40/40
f 44/44/44 42/42/42 40/40/40
f 44/44/44 40/40/40 43/43/43
f 45/45/45 44/44/44 43/43/43
f 48/48/48 47/47/47 46/46/46
f 51/51/51 50/50/50 49/49/49
f 53/53/53 51/51/51 52/52/52
f 55/55/55 52/52/52 54/54/54
f 52/52/52 56/56/56 54/54/54
f 56/56/56 52/52/52 57/57/57
f 59/59/59 56/56/56 58/58/58
f 61/61/61 58/58/58 60/60/60
f 62/62/62 58/58/58 61/61/61
f 64/64/64 63/63/63 61/61/61
f 65/65/65 62/62/62 64/64/64
f 66/66/66 65/65/65 64/64/64
f 69/69/69 68/68/68 67/67/67
f 72/72/72 71/71/71 70/70/70
f 74/74/74 73/73/73 70/70/70
f 75/75/75 74/74/74 70/70/70
f 76/76/76 74/74/74 75/75/75
f 70/70/70 77/77/77 75/75/75
f 78/78/78 76/76/76 75/75/75
f 75/75/75 77/77/77 79/79/79
f 79/79/79 78/78/78 75/75/75
f 80/80/80 78/78/78 79/79/79
f 80/80/80 79/79/79 81/81/81
f 77/77/77 82/82/82 79/79/79
f 79/79/79 83/83/83 81/81/81
f 83/83/83 79/79/79 84/84/84
f 85/85/85 83/83/83 84/84/84
f 86/86/86 84/84/84 79/79/79
f 87/87/87 79/79/79 82/82/82
f 87/87/87 86/86/86 79/79/79
f 88/88/88 87/87/87 82/82/82
f 88/88/88 89/89/89 87/87/87
f 87/87/87 90/90/90 86/86/86
f 89/89/89 90/90/90 87/87/87
f 90/90/90 91/91/91 86/86/86
f 90/90/90 89/89/89 92/92/92
f 89/89/89 93/93/93 92/92/92
f 94/94/94 90/90/90 92/92/92
f 91/91/91 90/90/90 94/94/94
f 95/95/95 91/91/91 94/94/94
f 98/98/98 97/97/97 96/96/96
f 100/100/100 99/99/99 97/97/97
f 101/101/101 97/97/97 99/99/99
f 102/102/102 101/101/101 99/99/99
f 101/101/101 102/102/102 103/103/103
f 102/102/102 104/104/104 103/103/103
f 103/103/103 104/104/104 105/105/105
f 104/104/104 106/106/106 105/105/105
f 107/107/107 103/103/103 105/105/105
f 106/106/106 108/108/108 105/105/105
f 107/107/107 105/105/105 109/109/109
f 105/105/105 108/108/108 109/109/109
f 108/108/108 110/110/110 109/109/109
f 110/110/110 111/111/111 109/109/109
f 112/112/112 107/107/107 109/109/109
f 111/111/111 113/113/113 109/109/109
f 109/109/109 113/113/113 112/112/112
f 113/113/113 114/114/114 112/112/112
f 117/117/117 116/116/116 115/115/115
f 120/120/120 119/119/119 118/118/118
f 119/119/119 122/122/122 121/121/121
f 124/124/124 123/123/123 121/121/121
f 123/123/123 125/125/125 121/121/121
f 121/121/121 125/125/125 126/126/126
f 125/125/125 128/128/128 127/127/127
f 127/127/127 130/130/130 129/129/129
f 127/127/127 131/131/131 130/130/130
f 133/133/133 132/132/132 130/130/130
f 131/131/131 134/134/134 132/132/132
f 134/134/134 135/135/135 132/132/132
f 138/138/138 137/137/137 136/136/136
f 141/141/141 140/140/140 139/139/139
f 140/140/140 142/142/142 139/139/139
f 142/142/142 140/140/140 143/143/143
f 144/144/144 139/139/139 142/142/142
f 145/145/145 142/142/142 143/143/143
f 146/146/146 144/144/144 142/142/142
f 146/146/146 142/142/142 145/145/145
f 144/144/144 146/146/146 147/147/147
f 148/148/148 146/146/146 145/145/145
f 146/146/146 149/149/149 147/147/147
f 146/146/146 148/148/148 149/149/149
f 147/147/147 149/149/149 150/150/150
f 148/148/148 151/151/151 149/149/149
f 149/149/149 152/152/152 150/150/150
f 149/149/149 151/151/151 152/152/152
f 151/151/151 153/153/153 152/152/152
f 156/156/156 155/155/155 154/154/154
f 157/157/157 156/156/156 154/154/154
f 156/156/156 157/157/157 158/158/158
f 154/154/154 159/159/159 157/157/157
f 157/157/157 160/160/160 158/158/158
f 159/159/159 161/161/161 157/157/157
f 157/157/157 161/161/161 160/160/160
f 161/161/161 159/159/159 162/162/162
f 161/161/161 163/163/163 160/160/160
f 164/164/164 161/161/161 162/162/162
f 163/163/163 161/161/161 164/164/164
f 162/162/162 165/165/165 164/164/164
f 166/166/166 163/163/163 164/164/164
f 165/165/165 167/167/167 164/164/164
f 166/166/166 164/164/164 167/167/167
f 168/168/168 166/166/166 167/167/167
