g SeparateMesh_Avatar_Male_Size01_Harumasa_Model_Harumasa_Weapon_4_04_LOD2
v -1.510848 0.0055037756 0.5124125
v -1.5104834 0.002656638 0.500541
v -1.510302 0.005495612 0.5123865
v -1.5105685 0.0035658325 0.51499057
v -1.5108339 0.0054644067 0.5206155
v -1.5103174 0.0054145865 0.5206205
v -1.5103174 0.0054145865 0.5206205
v -1.5108339 0.0054644067 0.5206155
v -1.510302 0.005495612 0.5123865
v -1.5104834 0.002656638 0.500541
v -1.5105685 0.0035658325 0.51499057
v -1.5103174 0.0054145865 0.5206205
v -1.5105685 0.0035658325 0.51499057
v -1.5104834 0.002656638 0.500541
v -1.510848 0.0055037756 0.5124125
v -1.5108339 0.0054644067 0.5206155
v -1.5179745 0.004373131 1.6614959
v -1.5139232 0.0012192917 1.625237
v -1.513218 0.0024406433 1.625237
v -1.5128479 0.0022268677 1.7005858
v -1.5135536 0.0010045624 1.7005858
v -1.5172328 0.003944931 1.7067934
v -1.5179745 0.004373131 1.6614959
v -1.513218 0.0024406433 1.625237
v -1.5128479 0.0022268677 1.7005858
v -1.5172328 0.003944931 1.7067934
v -1.5135536 0.0010045624 1.7005858
v -1.5139232 0.0012192917 1.625237
v -1.5179745 0.004373131 1.6614959
v -1.5172328 0.003944931 1.7067934
v -1.5151875 -0.003002994 0.5124125
v -1.5131586 -0.0012967977 0.50044006
v -1.5154535 -0.002525994 0.5123865
v -1.513649 -0.0017919934 0.51499057
v -1.5151604 -0.0029709945 0.5206155
v -1.5153755 -0.0024989932 0.5206205
v -1.5153755 -0.0024989932 0.5206205
v -1.5151604 -0.0029709945 0.5206155
v -1.5154535 -0.002525994 0.5123865
v -1.5131586 -0.0012967977 0.50044006
v -1.513649 -0.0017919934 0.51499057
v -1.5153755 -0.0024989932 0.5206205
v -1.513649 -0.0017919934 0.51499057
v -1.5131586 -0.0012967977 0.50044006
v -1.5151875 -0.003002994 0.5124125
v -1.5151604 -0.0029709945 0.5206155
v -1.5102752 -0.008823 1.6614959
v -1.5095695 -0.0037375 1.625237
v -1.5109799 -0.0037375 1.625237
v -1.5109799 -0.0033099998 1.7005858
v -1.5095685 -0.0033099998 1.7005858
v -1.5102752 -0.0079665 1.7067934
v -1.5102752 -0.008823 1.6614959
v -1.5109799 -0.0037375 1.625237
v -1.5109799 -0.0033099998 1.7005858
v -1.5102752 -0.0079665 1.7067934
v -1.5095685 -0.0033099998 1.7005858
v -1.5095695 -0.0037375 1.625237
v -1.5102752 -0.008823 1.6614959
v -1.5102752 -0.0079665 1.7067934
v -1.5056508 -0.0025076233 0.5124125
v -1.5083414 -0.0013322383 0.500541
v -1.5059309 -0.0029764497 0.5123865
v -1.5074688 -0.0017806941 0.51499057
v -1.505692 -0.0025002223 0.5206155
v -1.5059934 -0.002922434 0.5206205
v -1.5059934 -0.002922434 0.5206205
v -1.505692 -0.0025002223 0.5206155
v -1.5059309 -0.0029764497 0.5123865
v -1.5083414 -0.0013322383 0.500541
v -1.5074688 -0.0017806941 0.51499057
v -1.5059934 -0.002922434 0.5206205
v -1.5074688 -0.0017806941 0.51499057
v -1.5083414 -0.0013322383 0.500541
v -1.5056508 -0.0025076233 0.5124125
v -1.505692 -0.0025002223 0.5206155
v -1.5026966 0.0044429395 1.6614959
v -1.5074539 0.0025113677 1.625237
v -1.5067487 0.001289978 1.625237
v -1.5071188 0.0010762024 1.7005858
v -1.5078245 0.0022985076 1.7005858
v -1.5034386 0.0040147398 1.7067934
v -1.5026966 0.0044429395 1.6614959
v -1.5067487 0.001289978 1.625237
v -1.5071188 0.0010762024 1.7005858
v -1.5034386 0.0040147398 1.7067934
v -1.5078245 0.0022985076 1.7005858
v -1.5074539 0.0025113677 1.625237
v -1.5026966 0.0044429395 1.6614959
v -1.5034386 0.0040147398 1.7067934
v -1.5159147 0.00017594446 0.5275915
v -1.5140122 0.00017594393 0.5005275
v -1.5081129 0.0020928965 0.5005275
v -1.5064291 0.0032581273 0.5275915
v -1.5159147 0.00017594446 0.5275915
v -1.5086688 -0.0059884256 0.5275915
v -1.5095056 -0.0036579636 0.5005275
v -1.5140122 0.00017594393 0.5005275
v -1.5072742 0.0024689913 1.717519
v -1.5089401 -0.0044101765 1.717519
v -1.5143316 0.00017593536 1.717519
v -1.5072637 0.0024767667 1.6193981
v -1.5072742 0.0024689913 1.717519
v -1.5143316 0.00017593536 1.717519
v -1.5143449 0.00017593536 1.6193981
v -1.5143449 0.00017593536 1.6193981
v -1.5143316 0.00017593536 1.717519
v -1.5089401 -0.0044101765 1.717519
v -1.5089351 -0.0044257273 1.6193981
v -1.5107423 0.000118622665 0.492699
v -1.5072206 0.002508389 0.53142375
v -1.5143988 0.00017594393 0.53142375
v -1.5143988 0.00017594393 0.53142375
v -1.5089154 -0.004488946 0.53142375
v -1.5064291 0.0032581273 0.5275915
v -1.5159147 0.00017594446 0.5275915
v -1.5159147 0.00017594446 0.5275915
v -1.5086688 -0.0059884256 0.5275915
vt 0.4343273 0.18401952
vt 0.39625043 0.18613304
vt 0.4343273 0.18824627
vt 0.43204278 0.17853262
vt 0.41353434 0.18063666
vt 0.41353434 0.17642845
vt 0.4598114 0.18824627
vt 0.4598114 0.18401952
vt 0.43865222 0.15577336
vt 0.40788406 0.16501029
vt 0.44605988 0.16501029
vt 0.46021146 0.15577342
vt 0.44605988 0.16799106
vt 0.40788406 0.16799106
vt 0.43865222 0.17713518
vt 0.46021146 0.17713518
vt 0.33777666 0.6002797
vt 0.3789717 0.60272574
vt 0.37897348 0.59784675
vt 0.27752638 0.59784126
vt 0.27752638 0.602726
vt 0.2866969 0.6002797
vt 0.33503008 0.5935666
vt 0.28486824 0.5858991
vt 0.39233375 0.58535427
vt 0.40208125 0.5926766
vt 0.39233375 0.5821521
vt 0.28486824 0.58160734
vt 0.33503008 0.57393986
vt 0.40208125 0.5748298
vt 0.4343273 0.18401952
vt 0.39625043 0.18613304
vt 0.4343273 0.18824627
vt 0.43204278 0.17853262
vt 0.41353434 0.18063666
vt 0.41353434 0.17642845
vt 0.4598114 0.18824627
vt 0.4598114 0.18401952
vt 0.43865222 0.15577336
vt 0.40788406 0.16501029
vt 0.44605988 0.16501029
vt 0.46021146 0.15577342
vt 0.44605988 0.16799106
vt 0.40788406 0.16799106
vt 0.43865222 0.17713518
vt 0.46021146 0.17713518
vt 0.3377781 0.6002872
vt 0.37897408 0.6027273
vt 0.37897408 0.5978465
vt 0.27752805 0.5978449
vt 0.2775278 0.6027296
vt 0.28669804 0.6002872
vt 0.33503008 0.5935666
vt 0.28486824 0.5858991
vt 0.39233375 0.58535427
vt 0.40208125 0.5926766
vt 0.39233375 0.5821521
vt 0.28486824 0.58160734
vt 0.33503008 0.57393986
vt 0.40208125 0.5748298
vt 0.4343273 0.18401952
vt 0.39625043 0.18613304
vt 0.4343273 0.18824627
vt 0.43204278 0.17853262
vt 0.41353434 0.18063666
vt 0.41353434 0.17642845
vt 0.4598114 0.18824627
vt 0.4598114 0.18401952
vt 0.43865222 0.15577336
vt 0.40788406 0.16501029
vt 0.44605988 0.16501029
vt 0.46021146 0.15577342
vt 0.44605988 0.16799106
vt 0.40788406 0.16799106
vt 0.43865222 0.17713518
vt 0.46021146 0.17713518
vt 0.33777714 0.60027885
vt 0.37897205 0.60272527
vt 0.37897408 0.5978464
vt 0.27752733 0.597842
vt 0.27752733 0.6027267
vt 0.28669745 0.60028005
vt 0.33503008 0.5935666
vt 0.28486824 0.5858991
vt 0.39233375 0.58535427
vt 0.40208125 0.5926766
vt 0.39233375 0.5821521
vt 0.28486824 0.58160734
vt 0.33503008 0.57393986
vt 0.40208125 0.5748298
vt 0.887753 0.38975373
vt 0.887753 0.437748
vt 0.9055167 0.437748
vt 0.9055167 0.38975373
vt 0.92768383 0.38975373
vt 0.9223128 0.38975373
vt 0.9188746 0.437748
vt 0.92768383 0.437748
vt 0.41918626 0.30206606
vt 0.41319793 0.31203082
vt 0.4069191 0.30206606
vt 0.37819904 0.45687875
vt 0.37819904 0.5670606
vt 0.37112373 0.5670606
vt 0.37112373 0.45687875
vt 0.3870432 0.45687875
vt 0.3870432 0.5670606
vt 0.38350546 0.5670606
vt 0.38350546 0.45687875
vt 0.9055585 0.4518952
vt 0.37819904 0.0089075435
vt 0.37112373 0.008907538
vt 0.38704318 0.008907538
vt 0.38350546 0.008907538
vt 0.37819904 0.004604216
vt 0.37112373 0.004604216
vt 0.3870432 0.004604216
vt 0.38350546 0.004604216
vn 0.030298637 0.99359304 -0.10887959
vn 0.0034310638 0.9724434 -0.23311402
vn 0.028562758 0.99271727 -0.117032185
vn -0.094204895 -0.9446086 0.3143886
vn -0.094204895 -0.9446085 0.3143886
vn -0.09420488 -0.9446085 0.3143886
vn 0.05463571 0.99847955 0.007318017
vn 0.054635707 0.99847955 0.007318016
vn 0.9921227 -0.12494788 0.008966493
vn 0.9921227 -0.12494788 0.008966492
vn 0.9921227 -0.12494788 0.008966493
vn 0.9921227 -0.12494788 0.008966492
vn -0.9901753 -0.1398131 0.0022671483
vn -0.9901753 -0.13981311 0.0022671483
vn -0.9901753 -0.1398131 0.0022671479
vn -0.9901753 -0.13981311 0.0022671483
vn -0.8576431 0.49513292 -0.13889493
vn -0.8576431 0.49513292 -0.13889493
vn -0.8576431 0.49513292 -0.13889495
vn 0.69277304 -0.39998442 0.600065
vn 0.69277304 -0.39998442 0.600065
vn 0.69277304 -0.39998442 0.600065
vn 0.37669632 0.9263356 0.0014574237
vn 0.37669632 0.9263357 0.0014574238
vn 0.3766963 0.9263356 0.0014574237
vn 0.37669635 0.9263356 0.0014574236
vn -0.6141588 -0.78918123 0.001451559
vn -0.6141588 -0.78918123 0.001451559
vn -0.6141588 -0.78918123 0.001451559
vn -0.6141588 -0.78918123 0.0014515588
vn -0.87680376 -0.47061637 -0.09866743
vn -0.8484116 -0.48465768 -0.21284868
vn -0.8752199 -0.47181246 -0.10669175
vn 0.8651574 0.3907248 0.31438318
vn 0.8651574 0.39072478 0.31438318
vn 0.8651574 0.39072478 0.31438315
vn -0.892028 -0.45192108 0.0073194136
vn -0.892028 -0.45192108 0.007319413
vn -0.39135024 0.92016584 0.011824103
vn -0.39135024 0.92016584 0.011824102
vn -0.3913502 0.92016584 0.011824102
vn -0.3913502 0.92016584 0.011824101
vn 0.6218794 -0.7831062 -0.003276291
vn 0.6218794 -0.78310615 -0.0032762908
vn 0.6218794 -0.7831062 -0.003276291
vn 0.6218794 -0.78310615 -0.0032762908
vn -0 -0.9903071 -0.13889536
vn -0 -0.9903071 -0.13889536
vn -0 -0.9903071 -0.13889539
vn -0 0.7999496 0.6000672
vn -0 0.79994965 0.60006714
vn -0 0.7999496 0.6000672
vn -0.99057746 -0.13694608 0.0014574712
vn -0.99057746 -0.1369461 0.0014574714
vn -0.99057746 -0.13694608 0.0014574712
vn -0.99057746 -0.1369461 0.0014574713
vn 0.9905302 -0.13728745 0.0014523345
vn 0.9905302 -0.13728745 0.0014523345
vn 0.9905302 -0.13728744 0.0014523346
vn 0.9905302 -0.13728744 0.0014523343
vn 0.84509045 -0.52282476 -0.11169767
vn 0.83939564 -0.4883478 -0.23860268
vn 0.8451643 -0.52090865 -0.119797826
vn -0.7708862 0.5539832 0.31438354
vn -0.7708862 0.55398315 0.3143835
vn -0.7708862 0.5539832 0.31438354
vn 0.83733684 -0.5466382 0.0073204944
vn 0.83733684 -0.5466382 0.0073204944
vn -0.6055337 -0.7957815 0.007791546
vn -0.6055337 -0.7957815 0.0077915466
vn -0.6055337 -0.7957815 0.0077915466
vn -0.60553384 -0.7957815 0.0077915476
vn 0.37640953 0.92644376 0.004222304
vn 0.37640953 0.92644376 0.004222304
vn 0.37640953 0.92644376 0.004222304
vn 0.37640956 0.92644376 0.0042223046
vn 0.8576028 0.4952015 -0.1388988
vn 0.8576028 0.49520153 -0.13889882
vn 0.8576028 0.4952016 -0.13889883
vn -0.69277257 -0.39998412 0.60006577
vn -0.69277257 -0.39998412 0.60006577
vn -0.69277257 -0.39998406 0.60006565
vn 0.6138827 -0.7893958 0.0014579957
vn 0.6138828 -0.7893958 0.0014579959
vn 0.6138827 -0.7893958 0.0014579957
vn 0.6138828 -0.7893958 0.0014579959
vn -0.37637106 0.9264679 0.00145219
vn -0.37637106 0.9264679 0.0014521899
vn -0.37637106 0.9264679 0.0014521899
vn -0.3763711 0.9264679 0.0014521899
vn -0.9800076 0.18665296 -0.06888979
vn -0.9604287 0.1823531 -0.21053296
vn 0.6687742 0.71209717 -0.21367899
vn 0.68392146 0.7258139 -0.073795125
vn -0.9800076 0.18665296 -0.06888979
vn 0.30903843 -0.9466784 -0.09107787
vn 0.29822654 -0.92040217 -0.25282562
vn -0.9604287 0.1823531 -0.21053296
vn -0 0 1
vn -0 0 1
vn -0 0 1
vn 0.6795295 0.73364824 8.980076E-05
vn 0.67951536 0.7336612 0.00013163607
vn -0.9809776 0.19412133 0.00013282875
vn -0.9809801 0.19410829 9.0843845E-05
vn -0.9809801 0.19410829 9.0843845E-05
vn -0.9809776 0.19412133 0.00013282875
vn 0.30903637 -0.9510502 0.00016594293
vn 0.3090249 -0.951054 0.00011336516
vn -0.023410156 0.06859411 -0.9973699
vn 0.6669239 0.72996503 0.14954437
vn -0.9542061 0.21938117 0.20337811
vn -0.9542061 0.21938117 0.20337811
vn 0.32370895 -0.9234809 0.20590153
vn 0.65940315 0.7003918 0.2732009
vn -0.91898316 0.15269145 0.36353153
vn -0.91898316 0.15269145 0.36353153
vn 0.26677287 -0.89155024 0.36601952
g SeparateMesh_Avatar_Male_Size01_Harumasa_Model_Harumasa_Weapon_4_04_LOD2_0
f 3/3/3 2/2/2 1/1/1
f 6/6/6 5/5/5 4/4/4
f 1/1/1 8/8/8 7/7/7
f 3/3/3 1/1/1 7/7/7
f 11/11/11 10/10/10 9/9/9
f 12/12/12 11/11/11 9/9/9
f 15/15/15 14/14/14 13/13/13
f 16/16/16 15/15/15 13/13/13
f 19/19/19 18/18/18 17/17/17
f 22/22/22 21/21/21 20/20/20
f 25/25/25 24/24/24 23/23/23
f 26/26/26 25/25/25 23/23/23
f 29/29/29 28/28/28 27/27/27
f 30/30/30 29/29/29 27/27/27
f 33/33/33 32/32/32 31/31/31
f 36/36/36 35/35/35 34/34/34
f 31/31/31 38/38/38 37/37/37
f 33/33/33 31/31/31 37/37/37
f 41/41/41 40/40/40 39/39/39
f 42/42/42 41/41/41 39/39/39
f 45/45/45 44/44/44 43/43/43
f 46/46/46 45/45/45 43/43/43
f 49/49/49 48/48/48 47/47/47
f 52/52/52 51/51/51 50/50/50
f 55/55/55 54/54/54 53/53/53
f 56/56/56 55/55/55 53/53/53
f 59/59/59 58/58/58 57/57/57
f 60/60/60 59/59/59 57/57/57
f 63/63/63 62/62/62 61/61/61
f 66/66/66 65/65/65 64/64/64
f 61/61/61 68/68/68 67/67/67
f 63/63/63 61/61/61 67/67/67
f 71/71/71 70/70/70 69/69/69
f 72/72/72 71/71/71 69/69/69
f 75/75/75 74/74/74 73/73/73
f 76/76/76 75/75/75 73/73/73
f 79/79/79 78/78/78 77/77/77
f 82/82/82 81/81/81 80/80/80
f 85/85/85 84/84/84 83/83/83
f 86/86/86 85/85/85 83/83/83
f 89/89/89 88/88/88 87/87/87
f 90/90/90 89/89/89 87/87/87
f 93/93/93 92/92/92 91/91/91
f 94/94/94 93/93/93 91/91/91
f 97/97/97 96/96/96 95/95/95
f 98/98/98 97/97/97 95/95/95
f 93/93/93 94/94/94 96/96/96
f 97/97/97 93/93/93 96/96/96
f 101/101/101 100/100/100 99/99/99
f 104/104/104 103/103/103 102/102/102
f 105/105/105 104/104/104 102/102/102
f 108/108/108 107/107/107 106/106/106
f 109/109/109 108/108/108 106/106/106
f 103/103/103 108/108/108 109/109/109
f 102/102/102 103/103/103 109/109/109
f 93/93/93 110/110/110 92/92/92
f 98/98/98 110/110/110 97/97/97
f 97/97/97 110/110/110 93/93/93
f 105/105/105 102/102/102 111/111/111
f 112/112/112 105/105/105 111/111/111
f 109/109/109 106/106/106 113/113/113
f 114/114/114 109/109/109 113/113/113
f 102/102/102 109/109/109 114/114/114
f 111/111/111 102/102/102 114/114/114
f 112/112/112 111/111/111 115/115/115
f 116/116/116 112/112/112 115/115/115
f 114/114/114 113/113/113 117/117/117
f 118/118/118 114/114/114 117/117/117
f 111/111/111 114/114/114 118/118/118
f 115/115/115 111/111/111 118/118/118
