g SeparateMesh_Avatar_Male_Size01_Harumasa_Model_Harumasa_Weapon_3_03_LOD1
v -0.75808793 -0.00027009437 1.0793364
v -0.75000715 -0.00027009618 1.8486058
v -0.75155395 0.00062271045 1.8486058
v -0.75964177 0.000626736 1.0793364
v -0.75155395 -0.00116322 1.8486058
v -0.75964177 -0.0011672437 1.0793364
v -0.75000715 -0.00027009618 1.8486058
v -0.75808793 -0.00027009437 1.0793364
v -0.7661782 -0.00027009344 0.31006703
v -0.767725 0.0006227131 0.31006703
v -0.767725 -0.0011632176 0.31006703
v -0.7661782 -0.00027009344 0.31006703
vt 0.14387345 0.8968094
vt 0.16454268 0.8968094
vt 0.16454268 0.8959268
vt 0.14387345 0.8959268
vt 0.16454268 0.895042
vt 0.14387345 0.895042
vt 0.16454268 0.8941589
vt 0.14387345 0.8941589
vt 0.12320423 0.8968094
vt 0.12320423 0.8959268
vt 0.12320423 0.895042
vt 0.12320423 0.8941589
vn 0.9999448 7.7033306E-05 -0.010510028
vn 0.9999448 7.6489385E-05 -0.010503948
vn -0.49567866 0.8684903 0.005215988
vn -0.50001764 0.8659992 0.005255493
vn -0.49561152 -0.8685287 0.0052152793
vn -0.49995112 -0.86603767 0.0052547893
vn 0.9999448 7.6489385E-05 -0.010503948
vn 0.9999448 7.7033306E-05 -0.010510028
vn 0.9999447 7.749445E-05 -0.010516181
vn -0.50436926 0.8634718 0.005295165
vn -0.50430334 -0.8635104 0.005294468
vn 0.9999447 7.749445E-05 -0.010516181
g SeparateMesh_Avatar_Male_Size01_Harumasa_Model_Harumasa_Weapon_3_03_LOD1_0
f 3/3/3 2/2/2 1/1/1
f 4/4/4 3/3/3 1/1/1
f 5/5/5 3/3/3 4/4/4
f 6/6/6 5/5/5 4/4/4
f 7/7/7 5/5/5 6/6/6
f 8/8/8 7/7/7 6/6/6
f 4/4/4 1/1/1 9/9/9
f 10/10/10 4/4/4 9/9/9
f 6/6/6 4/4/4 10/10/10
f 11/11/11 6/6/6 10/10/10
f 8/8/8 6/6/6 11/11/11
f 12/12/12 8/8/8 11/11/11
