g SeparateMesh_Avatar_Male_Size01_Harumasa_Model_Harumasa_Weapon_3_03
v -0.7580618 -0.0002700917 1.0793364
v -0.74997634 -0.00027009303 1.8486058
v -0.75156933 0.00064933195 1.8486058
v -0.75965476 0.0006493333 1.0793364
v -0.75156933 -0.0011898451 1.8486058
v -0.75965476 -0.0011898435 1.0793364
v -0.74997634 -0.00027009303 1.8486058
v -0.7580618 -0.0002700917 1.0793364
v -0.76614743 -0.00027009018 0.31006703
v -0.7677405 0.0006493351 0.31006703
v -0.7677405 -0.001189842 0.31006703
v -0.76614743 -0.00027009018 0.31006703
vt 0.14387345 0.8968094
vt 0.16454268 0.8968094
vt 0.16454268 0.8959268
vt 0.14387345 0.8959268
vt 0.16454268 0.895042
vt 0.14387345 0.895042
vt 0.16454268 0.8941589
vt 0.14387345 0.8941589
vt 0.12320423 0.8968094
vt 0.12320423 0.8959268
vt 0.12320423 0.895042
vt 0.12320423 0.8941589
vn 0.9999448 7.691978E-05 -0.010510114
vn 0.9999448 7.656656E-05 -0.010509966
vn -0.49568063 0.8684892 0.005209828
vn -0.50001955 0.86599827 0.005255555
vn -0.49561346 -0.8685276 0.0052091186
vn -0.49995294 -0.8660367 0.005254851
vn 0.9999448 7.656656E-05 -0.010509966
vn 0.9999448 7.691978E-05 -0.010510114
vn 0.9999448 7.741984E-05 -0.010510263
vn -0.50437135 0.86347055 0.0053014187
vn -0.5043053 -0.8635092 0.0053007207
vn 0.9999448 7.741984E-05 -0.010510263
g SeparateMesh_Avatar_Male_Size01_Harumasa_Model_Harumasa_Weapon_3_03_0
f 3/3/3 2/2/2 1/1/1
f 4/4/4 3/3/3 1/1/1
f 5/5/5 3/3/3 4/4/4
f 6/6/6 5/5/5 4/4/4
f 7/7/7 5/5/5 6/6/6
f 8/8/8 7/7/7 6/6/6
f 4/4/4 1/1/1 9/9/9
f 10/10/10 4/4/4 9/9/9
f 6/6/6 4/4/4 10/10/10
f 11/11/11 6/6/6 10/10/10
f 8/8/8 6/6/6 11/11/11
f 12/12/12 8/8/8 11/11/11
