g SeparateMesh_Avatar_Male_Size01_Harumasa_Model_Harumasa_Weapon_4_04_LOD1
v -1.510848 0.0055037756 0.5124125
v -1.5104834 0.002656638 0.500541
v -1.510302 0.005495612 0.5123865
v -1.5105685 0.0035658325 0.51499057
v -1.5108339 0.0054644067 0.5206155
v -1.5103174 0.0054145865 0.5206205
v -1.5103174 0.0054145865 0.5206205
v -1.5108339 0.0054644067 0.5206155
v -1.510302 0.005495612 0.5123865
v -1.5104834 0.002656638 0.500541
v -1.5105685 0.0035658325 0.51499057
v -1.5103174 0.0054145865 0.5206205
v -1.5105685 0.0035658325 0.51499057
v -1.5104834 0.002656638 0.500541
v -1.510848 0.0055037756 0.5124125
v -1.5108339 0.0054644067 0.5206155
v -1.5183269 0.0037628936 1.6614959
v -1.5139232 0.0012192917 1.625237
v -1.513218 0.0024406433 1.625237
v -1.5176222 0.004983368 1.6614959
v -1.5128479 0.0022268677 1.7005858
v -1.5135536 0.0010045624 1.7005858
v -1.5175852 0.0033346938 1.7067934
v -1.5168805 0.004555168 1.7067934
v -1.5176222 0.004983368 1.6614959
v -1.513218 0.0024406433 1.625237
v -1.5128479 0.0022268677 1.7005858
v -1.5168805 0.004555168 1.7067934
v -1.5135536 0.0010045624 1.7005858
v -1.5139232 0.0012192917 1.625237
v -1.5183269 0.0037628936 1.6614959
v -1.5175852 0.0033346938 1.7067934
v -1.5151875 -0.003002994 0.5124125
v -1.5131586 -0.0012967977 0.50044006
v -1.5154535 -0.002525994 0.5123865
v -1.513649 -0.0017919934 0.51499057
v -1.5151604 -0.0029709945 0.5206155
v -1.5153755 -0.0024989932 0.5206205
v -1.5153755 -0.0024989932 0.5206205
v -1.5151604 -0.0029709945 0.5206155
v -1.5154535 -0.002525994 0.5123865
v -1.5131586 -0.0012967977 0.50044006
v -1.513649 -0.0017919934 0.51499057
v -1.5153755 -0.0024989932 0.5206205
v -1.513649 -0.0017919934 0.51499057
v -1.5131586 -0.0012967977 0.50044006
v -1.5151875 -0.003002994 0.5124125
v -1.5151604 -0.0029709945 0.5206155
v -1.5095706 -0.008823 1.6614959
v -1.5095695 -0.0037375 1.625237
v -1.5109799 -0.0037375 1.625237
v -1.5109799 -0.008823 1.6614959
v -1.5109799 -0.0033099998 1.7005858
v -1.5095685 -0.0033099998 1.7005858
v -1.5095706 -0.0079665 1.7067934
v -1.5109799 -0.0079665 1.7067934
v -1.5109799 -0.008823 1.6614959
v -1.5109799 -0.0037375 1.625237
v -1.5109799 -0.0033099998 1.7005858
v -1.5109799 -0.0079665 1.7067934
v -1.5095685 -0.0033099998 1.7005858
v -1.5095695 -0.0037375 1.625237
v -1.5095706 -0.008823 1.6614959
v -1.5095706 -0.0079665 1.7067934
v -1.5056508 -0.0025076233 0.5124125
v -1.5083414 -0.0013322383 0.500541
v -1.5059309 -0.0029764497 0.5123865
v -1.5074688 -0.0017806941 0.51499057
v -1.505692 -0.0025002223 0.5206155
v -1.5059934 -0.002922434 0.5206205
v -1.5059934 -0.002922434 0.5206205
v -1.505692 -0.0025002223 0.5206155
v -1.5059309 -0.0029764497 0.5123865
v -1.5083414 -0.0013322383 0.500541
v -1.5074688 -0.0017806941 0.51499057
v -1.5059934 -0.002922434 0.5206205
v -1.5074688 -0.0017806941 0.51499057
v -1.5083414 -0.0013322383 0.500541
v -1.5056508 -0.0025076233 0.5124125
v -1.505692 -0.0025002223 0.5206155
v -1.503049 0.0050531765 1.6614959
v -1.5074539 0.0025113677 1.625237
v -1.5067487 0.001289978 1.625237
v -1.5023444 0.0038327025 1.6614959
v -1.5071188 0.0010762024 1.7005858
v -1.5078245 0.0022985076 1.7005858
v -1.5037909 0.004624977 1.7067934
v -1.5030862 0.0034045028 1.7067934
v -1.5023444 0.0038327025 1.6614959
v -1.5067487 0.001289978 1.625237
v -1.5071188 0.0010762024 1.7005858
v -1.5030862 0.0034045028 1.7067934
v -1.5078245 0.0022985076 1.7005858
v -1.5074539 0.0025113677 1.625237
v -1.503049 0.0050531765 1.6614959
v -1.5037909 0.004624977 1.7067934
v -1.5090495 0.004736748 0.5275915
v -1.5096925 0.0029460057 0.5005275
v -1.5075525 6.5390484E-09 0.5005275
v -1.5056076 6.6261565E-09 0.5275915
v -1.5146173 0.0029266134 0.5275915
v -1.5131555 0.0018200065 0.5005275
v -1.5146173 -0.0029265992 0.5275915
v -1.5131555 -0.0018199934 0.5005275
v -1.5146173 -0.0029265992 0.5275915
v -1.5090495 -0.004736737 0.5275915
v -1.5096925 -0.0029459943 0.5005275
v -1.5131555 -0.0018199934 0.5005275
v -1.506698 0 1.717519
v -1.5092579 -0.003524 1.717519
v -1.5134008 -0.002178 1.717519
v -1.5066855 0 1.6193981
v -1.506698 0 1.717519
v -1.5092579 0.003524 1.717519
v -1.5092541 0.0035359496 1.6193981
v -1.5134008 0.002178 1.717519
v -1.513411 0.002185248 1.6193981
v -1.5134008 -0.002178 1.717519
v -1.513411 -0.002185248 1.6193981
v -1.513411 -0.002185248 1.6193981
v -1.5134008 -0.002178 1.717519
v -1.5092579 -0.003524 1.717519
v -1.5092541 -0.0035359496 1.6193981
v -1.5106428 -4.4039487E-05 0.492699
v -1.5134008 0.002178 1.717519
v -1.5092579 0.003524 1.717519
v -1.5066344 6.5390484E-09 0.53142375
v -1.509239 0.0035845398 0.53142375
v -1.5134524 0.0022147233 0.53142375
v -1.5134524 -0.0022147102 0.53142375
v -1.5134524 -0.0022147102 0.53142375
v -1.509239 -0.0035845267 0.53142375
v -1.5056076 6.6261565E-09 0.5275915
v -1.5090495 0.004736748 0.5275915
v -1.5146173 0.0029266134 0.5275915
v -1.5146173 -0.0029265992 0.5275915
v -1.5146173 -0.0029265992 0.5275915
v -1.5090495 -0.004736737 0.5275915
vt 0.4343273 0.18401952
vt 0.39625043 0.18613304
vt 0.4343273 0.18824627
vt 0.43204278 0.17853262
vt 0.41353434 0.18063666
vt 0.41353434 0.17642845
vt 0.4598114 0.18824627
vt 0.4598114 0.18401952
vt 0.43865222 0.15577336
vt 0.40788406 0.16501029
vt 0.44605988 0.16501029
vt 0.46021146 0.15577342
vt 0.44605988 0.16799106
vt 0.40788406 0.16799106
vt 0.43865222 0.17713518
vt 0.46021146 0.17713518
vt 0.33777666 0.60271806
vt 0.3789717 0.60272574
vt 0.37897348 0.59784675
vt 0.33777666 0.59784126
vt 0.27752638 0.59784126
vt 0.27752638 0.602726
vt 0.28669703 0.60271823
vt 0.2866968 0.5978411
vt 0.33503008 0.5935666
vt 0.28486824 0.5858991
vt 0.39233375 0.58535427
vt 0.40208125 0.5926766
vt 0.39233375 0.5821521
vt 0.28486824 0.58160734
vt 0.33503008 0.57393986
vt 0.40208125 0.5748298
vt 0.4343273 0.18401952
vt 0.39625043 0.18613304
vt 0.4343273 0.18824627
vt 0.43204278 0.17853262
vt 0.41353434 0.18063666
vt 0.41353434 0.17642845
vt 0.4598114 0.18824627
vt 0.4598114 0.18401952
vt 0.43865222 0.15577336
vt 0.40788406 0.16501029
vt 0.44605988 0.16501029
vt 0.46021146 0.15577342
vt 0.44605988 0.16799106
vt 0.40788406 0.16799106
vt 0.43865222 0.17713518
vt 0.46021146 0.17713518
vt 0.3377781 0.602726
vt 0.37897408 0.6027273
vt 0.37897408 0.5978465
vt 0.3377781 0.5978484
vt 0.27752805 0.5978449
vt 0.2775278 0.6027296
vt 0.28669798 0.602726
vt 0.2866981 0.5978484
vt 0.33503008 0.5935666
vt 0.28486824 0.5858991
vt 0.39233375 0.58535427
vt 0.40208125 0.5926766
vt 0.39233375 0.5821521
vt 0.28486824 0.58160734
vt 0.33503008 0.57393986
vt 0.40208125 0.5748298
vt 0.4343273 0.18401952
vt 0.39625043 0.18613304
vt 0.4343273 0.18824627
vt 0.43204278 0.17853262
vt 0.41353434 0.18063666
vt 0.41353434 0.17642845
vt 0.4598114 0.18824627
vt 0.4598114 0.18401952
vt 0.43865222 0.15577336
vt 0.40788406 0.16501029
vt 0.44605988 0.16501029
vt 0.46021146 0.15577342
vt 0.44605988 0.16799106
vt 0.40788406 0.16799106
vt 0.43865222 0.17713518
vt 0.46021146 0.17713518
vt 0.33777714 0.60271734
vt 0.37897205 0.60272527
vt 0.37897408 0.5978464
vt 0.33777714 0.5978404
vt 0.27752733 0.597842
vt 0.27752733 0.6027267
vt 0.2866975 0.6027186
vt 0.2866974 0.59784144
vt 0.33503008 0.5935666
vt 0.28486824 0.5858991
vt 0.39233375 0.58535427
vt 0.40208125 0.5926766
vt 0.39233375 0.5821521
vt 0.28486824 0.58160734
vt 0.33503008 0.57393986
vt 0.40208125 0.5748298
vt 0.9010565 0.38975373
vt 0.9010565 0.437748
vt 0.90997684 0.437748
vt 0.90997684 0.38975373
vt 0.89215714 0.38975373
vt 0.89215714 0.437748
vt 0.88334894 0.38975373
vt 0.88334894 0.437748
vt 0.92768383 0.38975373
vt 0.9223128 0.38975373
vt 0.9188746 0.437748
vt 0.92768383 0.437748
vt 0.4206987 0.30652234
vt 0.41319793 0.31203082
vt 0.40553588 0.30652234
vt 0.37996793 0.45687875
vt 0.37996793 0.5670606
vt 0.37643018 0.5670606
vt 0.37643018 0.45687875
vt 0.37289244 0.5670606
vt 0.37289244 0.45687875
vt 0.36935502 0.5670606
vt 0.36935502 0.45687875
vt 0.3870432 0.45687875
vt 0.3870432 0.5670606
vt 0.38350546 0.5670606
vt 0.38350546 0.45687875
vt 0.9055585 0.4518952
vt 0.4083023 0.29760978
vt 0.41767383 0.29760978
vt 0.37996793 0.008907549
vt 0.37643018 0.008907538
vt 0.37289244 0.008907538
vt 0.369355 0.008907538
vt 0.38704318 0.008907538
vt 0.38350546 0.008907538
vt 0.37996793 0.004604216
vt 0.37643018 0.004604216
vt 0.37289244 0.004604216
vt 0.36935502 0.004604216
vt 0.3870432 0.004604216
vt 0.38350546 0.004604216
vn 0.030298637 0.99359304 -0.10887959
vn 0.0034310638 0.9724434 -0.23311402
vn 0.028562758 0.99271727 -0.117032185
vn -0.094204895 -0.9446086 0.3143886
vn -0.094204895 -0.9446085 0.3143886
vn -0.09420488 -0.9446085 0.3143886
vn 0.05463571 0.99847955 0.007318017
vn 0.054635707 0.99847955 0.007318016
vn 0.9921227 -0.12494788 0.008966493
vn 0.9921227 -0.12494788 0.008966492
vn 0.9921227 -0.12494788 0.008966493
vn 0.9921227 -0.12494788 0.008966492
vn -0.9901753 -0.1398131 0.0022671483
vn -0.9901753 -0.13981311 0.0022671483
vn -0.9901753 -0.1398131 0.0022671479
vn -0.9901753 -0.13981311 0.0022671483
vn -0.8644563 0.49909243 -0.06018445
vn -0.85763556 0.4951459 -0.13889493
vn -0.85763556 0.4951459 -0.13889493
vn -0.8644563 0.49909237 -0.060183767
vn 0.6927744 -0.39998215 0.600065
vn 0.6927743 -0.39998212 0.600065
vn -0.26590595 0.1535181 0.9516965
vn -0.26612157 0.15364258 0.95161617
vn 0.5000057 0.8660221 0
vn 0.5000057 0.8660221 0
vn 0.5000057 0.8660221 0
vn 0.5000057 0.8660221 0
vn -0.5003037 -0.86585003 -5.75185E-06
vn -0.5003037 -0.86585003 -5.751851E-06
vn -0.5003037 -0.86585003 -5.75185E-06
vn -0.5003037 -0.86585003 -5.75185E-06
vn -0.87680376 -0.47061637 -0.09866743
vn -0.8484116 -0.48465768 -0.21284868
vn -0.8752199 -0.47181246 -0.10669175
vn 0.8651574 0.3907248 0.31438318
vn 0.8651574 0.39072478 0.31438318
vn 0.8651574 0.39072478 0.31438315
vn -0.892028 -0.45192108 0.0073194136
vn -0.892028 -0.45192108 0.007319413
vn -0.39135024 0.92016584 0.011824103
vn -0.39135024 0.92016584 0.011824102
vn -0.3913502 0.92016584 0.011824102
vn -0.3913502 0.92016584 0.011824101
vn 0.6218794 -0.7831062 -0.003276291
vn 0.6218794 -0.78310615 -0.0032762908
vn 0.6218794 -0.7831062 -0.003276291
vn 0.6218794 -0.78310615 -0.0032762908
vn -0 -0.99818724 -0.060184237
vn -0 -0.9903071 -0.13889533
vn -0 -0.9903071 -0.13889533
vn -0 -0.99818736 -0.060183514
vn -0 0.7999496 0.60006726
vn -0 0.79994965 0.6000672
vn -0 -0.30704325 0.95169556
vn -0 -0.30728573 0.95161724
vn -1 0 0
vn -1 0 0
vn -1 0 0
vn -1 0 0
vn 1 -0.00035121918 -5.1153543E-06
vn 1 -0.00035121918 -5.1153543E-06
vn 1 -0.0003512192 -5.115354E-06
vn 1 -0.00035121918 -5.1153543E-06
vn 0.84509045 -0.52282476 -0.11169767
vn 0.83939564 -0.4883478 -0.23860268
vn 0.8451643 -0.52090865 -0.119797826
vn -0.7708862 0.5539832 0.31438354
vn -0.7708862 0.55398315 0.3143835
vn -0.7708862 0.5539832 0.31438354
vn 0.83733684 -0.5466382 0.0073204944
vn 0.83733684 -0.5466382 0.0073204944
vn -0.6055337 -0.7957815 0.007791546
vn -0.6055337 -0.7957815 0.0077915466
vn -0.6055337 -0.7957815 0.0077915466
vn -0.60553384 -0.7957815 0.0077915476
vn 0.37640953 0.92644376 0.004222304
vn 0.37640953 0.92644376 0.004222304
vn 0.37640953 0.92644376 0.004222304
vn 0.37640956 0.92644376 0.0042223046
vn 0.8644462 0.4991096 -0.060185064
vn 0.85761523 0.49518 -0.13889885
vn 0.85761523 0.49518 -0.13889885
vn 0.86444634 0.49910966 -0.060184292
vn -0.6927738 -0.39998183 0.60006577
vn -0.6927739 -0.39998186 0.6000657
vn 0.26591077 0.15352093 0.95169467
vn 0.26611453 0.15363857 0.9516188
vn 0.49999696 -0.8660271 4.8736524E-07
vn 0.49999696 -0.8660271 4.8736524E-07
vn 0.49999696 -0.86602724 4.873653E-07
vn 0.49999696 -0.8660271 4.8736524E-07
vn -0.49969307 0.8662026 -5.2213504E-06
vn -0.49969307 0.8662026 -5.221351E-06
vn -0.49969304 0.8662026 -5.2213504E-06
vn -0.49969307 0.8662026 -5.221351E-06
vn 0.30889845 0.9485075 -0.070108324
vn 0.30117592 0.9296966 -0.2120311
vn 0.97757226 0.0007092879 -0.21059921
vn 0.99742883 0 -0.07166301
vn -0.80693996 0.5867551 -0.06757432
vn -0.790841 0.57473534 -0.21035628
vn -0.8069402 -0.5867549 -0.067574315
vn -0.79193914 -0.57411504 -0.2079045
vn -0.8069402 -0.5867549 -0.067574315
vn 0.30889836 -0.9485076 -0.07010835
vn 0.30185598 -0.93037325 -0.20805936
vn -0.79193914 -0.57411504 -0.2079045
vn -0 0 1
vn -0 0 1
vn -0 0 1
vn 1 0 8.704388E-05
vn 1 0 0.0001274323
vn 0.30905363 0.9510446 0.0001274598
vn 0.30901393 0.95105755 8.70903E-05
vn -0.80901384 0.5877896 0.0001281324
vn -0.80902874 0.58776903 8.750401E-05
vn -0.80901384 -0.5877896 0.0001281324
vn -0.80902874 -0.58776903 8.750048E-05
vn -0.80902874 -0.58776903 8.750048E-05
vn -0.80901384 -0.5877896 0.0001281324
vn 0.30905363 -0.9510446 0.0001274598
vn 0.30901393 -0.95105755 8.708458E-05
vn 0.00076870876 -0.0050233174 -0.9999871
vn -0 0 1
vn -0 0 1
vn 0.99052316 0 0.13734552
vn 0.31475526 0.9366165 0.15387893
vn -0.79194194 0.5830459 0.18134353
vn -0.79194194 -0.5830458 0.18134353
vn -0.79194194 -0.5830458 0.18134353
vn 0.31475523 -0.9366165 0.153879
vn 0.9659312 0 0.258799
vn 0.28278473 0.9146181 0.28897506
vn -0.7670219 0.5473327 0.33481964
vn -0.7670221 -0.5473325 0.3348197
vn -0.7670221 -0.5473325 0.3348197
vn 0.28278458 -0.9146181 0.28897527
g SeparateMesh_Avatar_Male_Size01_Harumasa_Model_Harumasa_Weapon_4_04_LOD1_0
f 3/3/3 2/2/2 1/1/1
f 6/6/6 5/5/5 4/4/4
f 1/1/1 8/8/8 7/7/7
f 3/3/3 1/1/1 7/7/7
f 11/11/11 10/10/10 9/9/9
f 12/12/12 11/11/11 9/9/9
f 15/15/15 14/14/14 13/13/13
f 16/16/16 15/15/15 13/13/13
f 19/19/19 18/18/18 17/17/17
f 20/20/20 19/19/19 17/17/17
f 23/23/23 22/22/22 21/21/21
f 24/24/24 23/23/23 21/21/21
f 17/17/17 23/23/23 24/24/24
f 20/20/20 17/17/17 24/24/24
f 27/27/27 26/26/26 25/25/25
f 28/28/28 27/27/27 25/25/25
f 31/31/31 30/30/30 29/29/29
f 32/32/32 31/31/31 29/29/29
f 35/35/35 34/34/34 33/33/33
f 38/38/38 37/37/37 36/36/36
f 33/33/33 40/40/40 39/39/39
f 35/35/35 33/33/33 39/39/39
f 43/43/43 42/42/42 41/41/41
f 44/44/44 43/43/43 41/41/41
f 47/47/47 46/46/46 45/45/45
f 48/48/48 47/47/47 45/45/45
f 51/51/51 50/50/50 49/49/49
f 52/52/52 51/51/51 49/49/49
f 55/55/55 54/54/54 53/53/53
f 56/56/56 55/55/55 53/53/53
f 49/49/49 55/55/55 56/56/56
f 52/52/52 49/49/49 56/56/56
f 59/59/59 58/58/58 57/57/57
f 60/60/60 59/59/59 57/57/57
f 63/63/63 62/62/62 61/61/61
f 64/64/64 63/63/63 61/61/61
f 67/67/67 66/66/66 65/65/65
f 70/70/70 69/69/69 68/68/68
f 65/65/65 72/72/72 71/71/71
f 67/67/67 65/65/65 71/71/71
f 75/75/75 74/74/74 73/73/73
f 76/76/76 75/75/75 73/73/73
f 79/79/79 78/78/78 77/77/77
f 80/80/80 79/79/79 77/77/77
f 83/83/83 82/82/82 81/81/81
f 84/84/84 83/83/83 81/81/81
f 87/87/87 86/86/86 85/85/85
f 88/88/88 87/87/87 85/85/85
f 81/81/81 87/87/87 88/88/88
f 84/84/84 81/81/81 88/88/88
f 91/91/91 90/90/90 89/89/89
f 92/92/92 91/91/91 89/89/89
f 95/95/95 94/94/94 93/93/93
f 96/96/96 95/95/95 93/93/93
f 99/99/99 98/98/98 97/97/97
f 100/100/100 99/99/99 97/97/97
f 98/98/98 102/102/102 101/101/101
f 97/97/97 98/98/98 101/101/101
f 102/102/102 104/104/104 103/103/103
f 101/101/101 102/102/102 103/103/103
f 107/107/107 106/106/106 105/105/105
f 108/108/108 107/107/107 105/105/105
f 99/99/99 100/100/100 106/106/106
f 107/107/107 99/99/99 106/106/106
f 111/111/111 110/110/110 109/109/109
f 114/114/114 113/113/113 112/112/112
f 115/115/115 114/114/114 112/112/112
f 116/116/116 114/114/114 115/115/115
f 117/117/117 116/116/116 115/115/115
f 118/118/118 116/116/116 117/117/117
f 119/119/119 118/118/118 117/117/117
f 122/122/122 121/121/121 120/120/120
f 123/123/123 122/122/122 120/120/120
f 113/113/113 122/122/122 123/123/123
f 112/112/112 113/113/113 123/123/123
f 99/99/99 124/124/124 98/98/98
f 98/98/98 124/124/124 102/102/102
f 102/102/102 124/124/124 104/104/104
f 108/108/108 124/124/124 107/107/107
f 107/107/107 124/124/124 99/99/99
f 109/109/109 126/126/126 125/125/125
f 111/111/111 109/109/109 125/125/125
f 115/115/115 112/112/112 127/127/127
f 128/128/128 115/115/115 127/127/127
f 117/117/117 115/115/115 128/128/128
f 129/129/129 117/117/117 128/128/128
f 119/119/119 117/117/117 129/129/129
f 130/130/130 119/119/119 129/129/129
f 123/123/123 120/120/120 131/131/131
f 132/132/132 123/123/123 131/131/131
f 112/112/112 123/123/123 132/132/132
f 127/127/127 112/112/112 132/132/132
f 128/128/128 127/127/127 133/133/133
f 134/134/134 128/128/128 133/133/133
f 129/129/129 128/128/128 134/134/134
f 135/135/135 129/129/129 134/134/134
f 130/130/130 129/129/129 135/135/135
f 136/136/136 130/130/130 135/135/135
f 132/132/132 131/131/131 137/137/137
f 138/138/138 132/132/132 137/137/137
f 127/127/127 132/132/132 138/138/138
f 133/133/133 127/127/127 138/138/138
