g NPC_Male_Size02_Hair_505_LOD3
v 0.075682 -0.081718 1.6890401
v 0.054006 -0.115004994 1.685574
v 0.0678115 -0.073284 1.7057
v 0.054006 -0.115004994 1.685574
v -0 -0.124574 1.6886839
v -0 -0.098341994 1.707176
v 0.058681495 -0.061363496 1.7473221
v 0.000156 -0.078684 1.753381
v -0 -0.033038247 1.794426
v 0.09045938 -0.02492325 1.6968069
v 0.075682 -0.081718 1.6890401
v 0.0949385 -0.029071497 1.6824502
v 0.035497375 -0.03200238 1.7874001
v -0 0.024284998 1.801904
v 0.074903995 -0.0195805 1.7542999
v 0.0369545 0.022031002 1.7929745
v 0.035101876 0.071375005 1.7698135
v -0 0.07643975 1.7762792
v 0.0731365 0.052902002 1.740399
v 0.032498 0.098240495 1.7411975
v -0 0.104224004 1.7434989
v -0 0.11108499 1.7160499
v 0.053240497 0.0924855 1.7174205
v 0.08538025 0.04826175 1.7020618
v 0.09045938 -0.02492325 1.6968069
v 0.088048495 0.04525625 1.6827158
v 0.058475997 0.0928195 1.693255
v -0 0.11536899 1.6891029
v -0 0.115753 1.6692529
v 0.060725 0.0912885 1.6737149
v -0 0.120326996 1.6540629
v 0.0634795 0.094808996 1.658765
v 0.088048495 0.04525625 1.6827158
v 0.08538025 0.04826175 1.7020618
v 0.0634795 0.094808996 1.658765
v 0.088048495 0.04525625 1.6827158
v 0.0923265 0.0455685 1.667959
v 0.0923265 0.0455685 1.667959
v 0.0949385 -0.029071497 1.6824502
v -0.00017761588 0.0032745898 1.6880554
v 0.0923265 0.0455685 1.667959
v 0.0634795 0.094808996 1.658765
v 0.0634795 0.094808996 1.658765
v -0 0.120326996 1.6540629
v 0.054006 -0.115004994 1.685574
v 0.075682 -0.081718 1.6890401
v -0 -0.124574 1.6886839
v 0.054006 -0.115004994 1.685574
v 0.075682 -0.081718 1.6890401
v 0.0949385 -0.029071497 1.6824502
v 0.0949385 -0.029071497 1.6824502
v 0.0923265 0.0455685 1.667959
v -0.0634795 0.094808996 1.658765
v -0.0923265 0.0455685 1.667959
v -0.054006 -0.115004994 1.685574
v -0 -0.124574 1.6886839
v -0 0.120326996 1.6540629
v -0.0634795 0.094808996 1.658765
v -0.075682 -0.081718 1.6890401
v -0.054006 -0.115004994 1.685574
v -0.0949385 -0.029071497 1.6824502
v -0.075682 -0.081718 1.6890401
v -0.0949385 -0.029071497 1.6824502
v -0.0923265 0.0455685 1.667959
v -0.075682 -0.081718 1.6890401
v -0.0678115 -0.073284 1.7057
v -0.054006 -0.115004994 1.685574
v -0 -0.124574 1.6886839
v -0.054006 -0.115004994 1.685574
v -0 -0.098341994 1.707176
v 0.000156 -0.078684 1.753381
v -0.058681495 -0.061363496 1.7473221
v -0.09045938 -0.02492325 1.6968069
v -0.075682 -0.081718 1.6890401
v -0.0949385 -0.029071497 1.6824502
v -0.035497375 -0.03200238 1.7874001
v -0 -0.033038247 1.794426
v -0 0.024284998 1.801904
v -0.074903995 -0.0195805 1.7542999
v -0.0369545 0.022031002 1.7929745
v -0.035101876 0.071375005 1.7698135
v -0 0.07643975 1.7762792
v -0.0731365 0.052902002 1.740399
v -0.053240497 0.0924855 1.7174205
v -0.032498 0.098240495 1.7411975
v -0 0.104224004 1.7434989
v -0 0.11108499 1.7160499
v -0 0.11536899 1.6891029
v -0.08532503 0.04826175 1.7020618
v -0.09045938 -0.02492325 1.6968069
v -0.088048495 0.04525625 1.6827158
v -0.058475997 0.0928195 1.693255
v -0 0.115753 1.6692529
v -0.060725 0.0912885 1.6737149
v -0.08532503 0.04826175 1.7020618
v -0.088048495 0.04525625 1.6827158
v -0.0634795 0.094808996 1.658765
v -0 0.120326996 1.6540629
v -0.0634795 0.094808996 1.658765
v -0.088048495 0.04525625 1.6827158
v -0.0923265 0.0455685 1.667959
v -0.0949385 -0.029071497 1.6824502
v -0.0923265 0.0455685 1.667959
v 0.07296961 -0.022745883 1.672012
v 0.07278749 -0.015314715 1.6851519
v 0.07592159 -0.003144785 1.6827253
v 0.0780931 0.018147124 1.6784796
v 0.07780712 0.020318627 1.6566871
v 0.072147675 -0.016097127 1.6551559
v 0.07415694 0.052855127 1.6715586
v 0.070919834 0.004910999 1.640821
v 0.06901437 -0.012649434 1.6403189
v 0.06389613 -0.007880932 1.6183357
v 0.06411506 0.0014386576 1.6169746
v 0.07104692 0.021786587 1.6379238
v 0.07630812 0.05307125 1.6549702
v 0.06485711 0.04215234 1.6204002
v 0.063585915 0.023242649 1.6152976
v 0.05191754 0.02937277 1.5950173
v 0.059053972 0.087410115 1.6646681
v 0.045527324 0.03228104 1.5852457
v 0.05496966 0.086210914 1.6517183
v -0 0.10115377 1.6619277
v 0.034769155 0.051865418 1.5843549
v 0.043124877 0.03589009 1.5720097
v 0.032659136 0.05191013 1.5736456
v 0.044492505 0.066801034 1.6109538
v -0 0.07977319 1.606138
v 5.763774E-11 0.061859045 1.5829812
v 1.779001E-10 0.06159362 1.5746231
v -0.032659136 0.051910132 1.5736456
v -0.034769155 0.051865418 1.5843549
v -0.043124877 0.03589009 1.5720097
v -0.045527324 0.03228104 1.5852457
v -0.06485711 0.04215234 1.6204002
v -0.05191754 0.02937277 1.5950173
v -0.063585915 0.023242649 1.6152976
v -0.07104692 0.021786587 1.6379238
v -0 0.100782715 1.649952
v -0.05496966 0.086210914 1.6517183
v -0.059053972 0.087410115 1.6646681
v -0.044492505 0.066801034 1.6109538
v -0.07630812 0.05307125 1.6549702
v -0.07415694 0.052855127 1.6715586
v -0.07780712 0.020318627 1.6566871
v -0.0780931 0.018147122 1.6784796
v -0.070919834 0.004910999 1.640821
v -0.07296961 -0.022745883 1.672012
v -0.07592159 -0.003144785 1.6827253
v -0.07278749 -0.015314715 1.6851519
v -0.072147675 -0.016097127 1.6551559
v -0.0691387 -0.012265849 1.6386681
v -0.06411506 0.0014386576 1.6169746
v -0.06389613 -0.007880932 1.6183357
vt 0.835 0.5714
vt 0.8645 0.5198
vt 0.7993 0.56785
vt 0.8645 0.5198
vt 0.8564 0.4333
vt 0.7993 0.4333
vt 0.71805 0.5726
vt 0.6747 0.4515
vt 0.55535 0.564675
vt 0.801575 0.66255
vt 0.835 0.5714
vt 0.83229995 0.6622
vt 0.6222125 0.60344994
vt 0.5138 0.7074
vt 0.69855 0.65155005
vt 0.59290004 0.709
vt 0.6151 0.818275
vt 0.5453 0.857025
vt 0.6955 0.7787
vt 0.6594 0.8865
vt 0.6158 0.9511
vt 0.6882 0.9857
vt 0.71625 0.8692
vt 0.75595 0.78125
vt 0.7883799 0.67493165
vt 0.78535175 0.78615963
vt 0.76 0.87584996
vt 0.76 0.9937
vt 0.7993 0.9937
vt 0.7993 0.87635005
vt 0.8299 0.9937
vt 0.82955 0.87979996
vt 0.7993 0.781
vt 0.76 0.7808
vt 0.82955 0.87979996
vt 0.80410004 0.78104997
vt 0.8341 0.78365004
vt 0.8341 0.78365004
vt 0.83229995 0.6622
vt 0.49890003 0.50136256
vt 0.55904996 0.47505
vt 0.53709996 0.4461
vt 0.53709996 0.4461
vt 0.4989 0.4313
vt 0.5306 0.5718
vt 0.5439 0.5527
vt 0.4989 0.5773
vt 0.5306 0.5718
vt 0.5439 0.5527
vt 0.561 0.521
vt 0.561 0.521
vt 0.55904996 0.47505
vt 0.4607 0.4461
vt 0.43875 0.47505
vt 0.4672 0.5718
vt 0.4989 0.5773
vt 0.4989 0.4313
vt 0.4607 0.4461
vt 0.4539 0.5527
vt 0.4672 0.5718
vt 0.4368 0.521
vt 0.4539 0.5527
vt 0.4368 0.521
vt 0.43875 0.47505
vt 0.165 0.5714
vt 0.2007 0.56785
vt 0.1355 0.5198
vt 0.1436 0.4333
vt 0.1355 0.5198
vt 0.2007 0.4333
vt 0.326 0.4518
vt 0.28175 0.57299995
vt 0.19918333 0.67270005
vt 0.165 0.5714
vt 0.1677 0.6622
vt 0.37668747 0.604325
vt 0.442725 0.5664
vt 0.4863 0.7073
vt 0.30105 0.65174997
vt 0.4061 0.709
vt 0.383875 0.81747496
vt 0.4529 0.855325
vt 0.30415 0.7785
vt 0.2836 0.86895
vt 0.34035 0.88575
vt 0.3844 0.9498
vt 0.3121 0.9853
vt 0.24 0.9937
vt 0.24405 0.78125
vt 0.21175435 0.6749297
vt 0.21477327 0.7861568
vt 0.24 0.87584996
vt 0.2007 0.9937
vt 0.2007 0.87635005
vt 0.24 0.7808
vt 0.2007 0.781
vt 0.17045 0.87979996
vt 0.1701 0.9937
vt 0.17045 0.87979996
vt 0.1959 0.78104997
vt 0.16589999 0.78365004
vt 0.1677 0.6622
vt 0.16589999 0.78365004
vt 0.07663839 0.5377965
vt 0.12265458 0.58258617
vt 0.14026648 0.53890634
vt 0.19108196 0.48944795
vt 0.17167495 0.41788873
vt 0.07768904 0.47275424
vt 0.26456034 0.41226804
vt 0.12034468 0.40022895
vt 0.076469615 0.42290965
vt 0.075515896 0.35001868
vt 0.09980599 0.3426433
vt 0.16693085 0.34526026
vt 0.25508985 0.36729577
vt 0.24204978 0.25976187
vt 0.193064 0.2423089
vt 0.24218792 0.16311722
vt 0.34879333 0.35774487
vt 0.27558395 0.12412786
vt 0.35136798 0.32822275
vt 0.5 0.32816026
vt 0.35463202 0.12754816
vt 0.29991838 0.086050056
vt 0.36200887 0.09832553
vt 0.3460441 0.21554686
vt 0.5 0.1866652
vt 0.4997896 0.11200258
vt 0.4995615 0.09121294
vt 0.6378387 0.097854756
vt 0.64582944 0.1268535
vt 0.7000816 0.086050056
vt 0.724416 0.12412786
vt 0.7579737 0.25973967
vt 0.7578121 0.16311722
vt 0.806936 0.2423089
vt 0.83306915 0.34526026
vt 0.5 0.3008557
vt 0.64960533 0.32737288
vt 0.652147 0.35647678
vt 0.6543077 0.21533765
vt 0.74506825 0.3672534
vt 0.73543966 0.41226804
vt 0.8282483 0.41752446
vt 0.80891806 0.48944795
vt 0.8796553 0.40022895
vt 0.92326146 0.5380207
vt 0.8597335 0.53890634
vt 0.87734544 0.58258617
vt 0.9223802 0.47278824
vt 0.92360413 0.4173521
vt 0.89986193 0.34114984
vt 0.92393196 0.34881532
vn 0.76340437 -0.41312745 -0.49652734
vn 0.6080628 -0.67480373 -0.4182099
vn 0.60503817 -0.63301104 0.48293456
vn 0.6080628 -0.67480373 -0.4182099
vn 2.5668192E-05 -0.95615685 -0.29285488
vn -0.0003588669 -0.7673436 0.641236
vn 0.5532714 -0.6883129 0.46916533
vn 0.00051646243 -0.8461326 0.5329722
vn -0.00023348218 -0.46057448 0.88762105
vn 0.9410819 -0.14493163 0.3055483
vn 0.76340437 -0.41312745 -0.49652734
vn 0.7679766 -0.23119752 -0.5972936
vn 0.35168856 -0.43162337 0.83067226
vn 1.2230333E-07 0.16897531 0.98562026
vn 0.87557024 -0.13785008 0.4630055
vn 0.4618444 0.15029517 0.8741345
vn 0.44411525 0.5403138 0.7147186
vn 6.532775E-07 0.5755721 0.81775105
vn 0.8283706 0.34599337 0.4405575
vn 0.4371633 0.78686005 0.43559086
vn -2.8155117E-07 0.8962781 0.44349247
vn -4.9464126E-07 0.9914225 0.1306958
vn 0.62040305 0.7390715 0.26243728
vn 0.9323448 0.3053667 0.19360894
vn 0.9410819 -0.14493163 0.3055483
vn 0.93327117 0.30463755 0.19026552
vn 0.62430435 0.77461123 0.101101704
vn -0 0.9980349 0.06266079
vn 1.2472489E-07 0.98993874 0.14149658
vn 0.6150135 0.7750292 0.14521779
vn 2.756915E-05 0.6705109 -0.7418998
vn 0.5190395 0.46687597 -0.71597826
vn 0.93327117 0.30463755 0.19026552
vn 0.9323448 0.3053667 0.19360894
vn 0.5190395 0.46687597 -0.71597826
vn 0.93327117 0.30463755 0.19026552
vn 0.73698956 0.086952075 -0.67028785
vn 0.73698956 0.086952075 -0.67028785
vn 0.7679766 -0.23119752 -0.5972936
vn 9.1463044E-05 -0.16274899 -0.9866676
vn 0.73698956 0.086952075 -0.67028785
vn 0.5190395 0.46687597 -0.71597826
vn 0.5190395 0.46687597 -0.71597826
vn 2.756915E-05 0.6705109 -0.7418998
vn 0.6080628 -0.67480373 -0.4182099
vn 0.76340437 -0.41312745 -0.49652734
vn 2.5668192E-05 -0.95615685 -0.29285488
vn 0.6080628 -0.67480373 -0.4182099
vn 0.76340437 -0.41312745 -0.49652734
vn 0.7679766 -0.23119752 -0.5972936
vn 0.7679766 -0.23119752 -0.5972936
vn 0.73698956 0.086952075 -0.67028785
vn -0.5189633 0.4668279 -0.71606493
vn -0.7368602 0.086900845 -0.6704367
vn -0.6081513 -0.6747425 -0.41818002
vn 2.5668192E-05 -0.95615685 -0.29285488
vn 2.756915E-05 0.6705109 -0.7418998
vn -0.5189633 0.4668279 -0.71606493
vn -0.76338667 -0.4131519 -0.49653435
vn -0.6081513 -0.6747425 -0.41818002
vn -0.76785296 -0.23121864 -0.5974444
vn -0.76338667 -0.4131519 -0.49653435
vn -0.76785296 -0.23121864 -0.5974444
vn -0.7368602 0.086900845 -0.6704367
vn -0.76338667 -0.4131519 -0.49653435
vn -0.60452455 -0.6332611 0.48324993
vn -0.6081513 -0.6747425 -0.41818002
vn 2.5668192E-05 -0.95615685 -0.29285488
vn -0.6081513 -0.6747425 -0.41818002
vn -0.0003588669 -0.7673436 0.641236
vn 0.00051646243 -0.8461326 0.5329722
vn -0.5524434 -0.6887139 0.46955222
vn -0.9411032 -0.14470778 0.30558854
vn -0.76338667 -0.4131519 -0.49653435
vn -0.76785296 -0.23121864 -0.5974444
vn -0.35123083 -0.4324603 0.8304306
vn -0.00023348218 -0.46057448 0.88762105
vn 1.2230333E-07 0.16897531 0.98562026
vn -0.87562907 -0.13772963 0.46293005
vn -0.46184435 0.15029529 0.8741345
vn -0.44411433 0.54031414 0.71471894
vn 6.532775E-07 0.5755721 0.81775105
vn -0.82861423 0.34582955 0.44022763
vn -0.6205662 0.73899233 0.26227456
vn -0.43716314 0.78686005 0.4355911
vn -2.8155117E-07 0.8962781 0.44349247
vn -4.9464126E-07 0.9914225 0.1306958
vn -0 0.9980349 0.06266079
vn -0.93234 0.30531764 0.19370905
vn -0.9411032 -0.14470778 0.30558854
vn -0.9331242 0.3045511 0.19112283
vn -0.62443995 0.7744922 0.10117638
vn 1.2472489E-07 0.98993874 0.14149658
vn -0.6150184 0.7749658 0.14553478
vn -0.93234 0.30531764 0.19370905
vn -0.9331242 0.3045511 0.19112283
vn -0.5189633 0.4668279 -0.71606493
vn 2.756915E-05 0.6705109 -0.7418998
vn -0.5189633 0.4668279 -0.71606493
vn -0.9331242 0.3045511 0.19112283
vn -0.7368602 0.086900845 -0.6704367
vn -0.76785296 -0.23121864 -0.5974444
vn -0.7368602 0.086900845 -0.6704367
vn 0.9896808 -0.13513082 -0.04765921
vn 0.9654027 -0.2210196 0.13837594
vn 0.9920041 -0.12303789 -0.028099215
vn 0.9994599 -0.032795563 0.0020818627
vn 0.9906715 -0.0062577454 -0.13612778
vn 0.9773194 -0.14039621 -0.15854244
vn 0.96834743 0.24960475 0.0008076729
vn 0.955603 -0.1045263 -0.27549437
vn 0.9655753 -0.0891904 -0.2443553
vn 0.9637601 -0.08425698 -0.25311536
vn 0.9637601 -0.08425698 -0.2531154
vn 0.9450676 0.010620412 -0.32670256
vn 0.9083632 0.32294473 -0.26567483
vn 0.8397751 0.34379032 -0.42022142
vn 0.9125559 0.04823708 -0.40609714
vn 0.85756665 0.12348002 -0.49933162
vn 0.6339616 0.7675873 -0.094352394
vn 0.8005077 0.4021558 -0.44436243
vn 0.50230056 0.78473425 -0.3631616
vn -2.5053973E-07 0.99459815 -0.10380056
vn 0.52846116 0.69377005 -0.48929748
vn 0.86556166 0.49744752 -0.057871334
vn 0.48578852 0.8693785 -0.09050182
vn 0.48149946 0.73480487 -0.47772396
vn 5.649232E-07 0.8746851 -0.48469156
vn 2.1758083E-06 0.8623066 -0.5063867
vn -0 0.999496 -0.031744596
vn -0.4857874 0.8693792 -0.09050119
vn -0.5284597 0.69377065 -0.48929793
vn -0.86556005 0.49745014 -0.05787207
vn -0.8005079 0.40215507 -0.44436282
vn -0.83977455 0.34379077 -0.4202221
vn -0.85756665 0.1234801 -0.49933174
vn -0.9125553 0.048237287 -0.40609857
vn -0.94506717 0.010620511 -0.3267037
vn 1.7353521E-07 0.92553055 -0.37867314
vn -0.50229996 0.7847344 -0.3631619
vn -0.6339619 0.76758707 -0.094352335
vn -0.48149863 0.73480517 -0.47772425
vn -0.9083626 0.32294533 -0.26567587
vn -0.9683473 0.24960515 0.00080771145
vn -0.9906714 -0.0062579038 -0.13612895
vn -0.9994599 -0.032796048 0.0020817395
vn -0.9562202 -0.09670139 -0.2762097
vn -0.9896808 -0.13513115 -0.0476591
vn -0.992004 -0.123038545 -0.028099328
vn -0.965402 -0.22102188 0.13837703
vn -0.978268 -0.13724208 -0.15542296
vn -0.9682341 -0.06899319 -0.24033879
vn -0.96240544 -0.06476321 -0.26378307
vn -0.96240544 -0.06476322 -0.26378307
g NPC_Male_Size02_Hair_505_LOD3_0
f 3/3/3 2/2/2 1/1/1
f 5/5/5 4/4/4 3/3/3
f 6/6/6 5/5/5 3/3/3
f 3/3/3 7/7/7 6/6/6
f 7/7/7 8/8/8 6/6/6
f 8/8/8 7/7/7 9/9/9
f 3/3/3 10/10/10 7/7/7
f 3/3/3 11/11/11 10/10/10
f 11/11/11 12/12/12 10/10/10
f 7/7/7 13/13/13 9/9/9
f 9/9/9 13/13/13 14/14/14
f 10/10/10 15/15/15 7/7/7
f 13/13/13 7/7/7 15/15/15
f 13/13/13 16/16/16 14/14/14
f 13/13/13 15/15/15 16/16/16
f 16/16/16 17/17/17 14/14/14
f 17/17/17 18/18/18 14/14/14
f 16/16/16 15/15/15 19/19/19
f 17/17/17 16/16/16 19/19/19
f 17/17/17 20/20/20 18/18/18
f 20/20/20 21/21/21 18/18/18
f 21/21/21 20/20/20 22/22/22
f 20/20/20 17/17/17 23/23/23
f 17/17/17 19/19/19 23/23/23
f 20/20/20 23/23/23 22/22/22
f 24/24/24 19/19/19 15/15/15
f 19/19/19 24/24/24 23/23/23
f 25/25/25 24/24/24 15/15/15
f 26/26/26 24/24/24 25/25/25
f 24/24/24 27/27/27 23/23/23
f 23/23/23 27/27/27 22/22/22
f 27/27/27 28/28/28 22/22/22
f 29/29/29 28/28/28 27/27/27
f 30/30/30 29/29/29 27/27/27
f 29/29/29 30/30/30 31/31/31
f 30/30/30 32/32/32 31/31/31
f 33/33/33 30/30/30 27/27/27
f 34/34/34 33/33/33 27/27/27
f 30/30/30 36/36/36 35/35/35
f 36/36/36 37/37/37 35/35/35
f 39/39/39 38/38/38 36/36/36
f 10/10/10 39/39/39 36/36/36
f 42/42/42 41/41/41 40/40/40
f 40/40/40 44/44/44 43/43/43
f 46/46/46 45/45/45 40/40/40
f 40/40/40 48/48/48 47/47/47
f 50/50/50 49/49/49 40/40/40
f 40/40/40 52/52/52 51/51/51
f 54/54/54 53/53/53 40/40/40
f 40/40/40 56/56/56 55/55/55
f 40/40/40 58/58/58 57/57/57
f 60/60/60 59/59/59 40/40/40
f 62/62/62 61/61/61 40/40/40
f 64/64/64 40/40/40 63/63/63
f 67/67/67 66/66/66 65/65/65
f 69/69/69 68/68/68 66/66/66
f 68/68/68 70/70/70 66/66/66
f 70/70/70 71/71/71 66/66/66
f 71/71/71 72/72/72 66/66/66
f 66/66/66 72/72/72 73/73/73
f 66/66/66 73/73/73 74/74/74
f 73/73/73 75/75/75 74/74/74
f 72/72/72 71/71/71 76/76/76
f 71/71/71 77/77/77 76/76/76
f 77/77/77 78/78/78 76/76/76
f 72/72/72 79/79/79 73/73/73
f 79/79/79 72/72/72 76/76/76
f 78/78/78 80/80/80 76/76/76
f 76/76/76 80/80/80 79/79/79
f 80/80/80 78/78/78 81/81/81
f 78/78/78 82/82/82 81/81/81
f 80/80/80 83/83/83 79/79/79
f 81/81/81 83/83/83 80/80/80
f 83/83/83 81/81/81 84/84/84
f 81/81/81 82/82/82 85/85/85
f 81/81/81 85/85/85 84/84/84
f 82/82/82 86/86/86 85/85/85
f 85/85/85 86/86/86 84/84/84
f 86/86/86 87/87/87 84/84/84
f 84/84/84 87/87/87 88/88/88
f 89/89/89 79/79/79 83/83/83
f 89/89/89 83/83/83 84/84/84
f 90/90/90 79/79/79 89/89/89
f 91/91/91 90/90/90 89/89/89
f 92/92/92 89/89/89 84/84/84
f 92/92/92 84/84/84 88/88/88
f 88/88/88 93/93/93 92/92/92
f 93/93/93 94/94/94 92/92/92
f 95/95/95 92/92/92 94/94/94
f 96/96/96 95/95/95 94/94/94
f 94/94/94 93/93/93 97/97/97
f 93/93/93 98/98/98 97/97/97
f 100/100/100 94/94/94 99/99/99
f 101/101/101 100/100/100 99/99/99
f 102/102/102 73/73/73 100/100/100
f 103/103/103 102/102/102 100/100/100
g NPC_Male_Size02_Hair_505_LOD3_1
f 106/106/106 105/105/105 104/104/104
f 107/107/107 106/106/106 104/104/104
f 108/108/108 107/107/107 104/104/104
f 109/109/109 108/108/108 104/104/104
f 110/110/110 107/107/107 108/108/108
f 109/109/109 111/111/111 108/108/108
f 109/109/109 112/112/112 111/111/111
f 111/111/111 112/112/112 113/113/113
f 114/114/114 111/111/111 113/113/113
f 111/111/111 115/115/115 108/108/108
f 116/116/116 110/110/110 108/108/108
f 108/108/108 115/115/115 116/116/116
f 115/115/115 117/117/117 116/116/116
f 117/117/117 115/115/115 118/118/118
f 118/118/118 119/119/119 117/117/117
f 110/110/110 116/116/116 120/120/120
f 117/117/117 119/119/119 121/121/121
f 116/116/116 122/122/122 120/120/120
f 116/116/116 117/117/117 122/122/122
f 123/123/123 120/120/120 122/122/122
f 117/117/117 121/121/121 124/124/124
f 125/125/125 124/124/124 121/121/121
f 126/126/126 124/124/124 125/125/125
f 117/117/117 127/127/127 122/122/122
f 117/117/117 124/124/124 127/127/127
f 127/127/127 128/128/128 122/122/122
f 124/124/124 128/128/128 127/127/127
f 126/126/126 129/129/129 124/124/124
f 129/129/129 128/128/128 124/124/124
f 130/130/130 129/129/129 126/126/126
f 130/130/130 131/131/131 129/129/129
f 129/129/129 131/131/131 132/132/132
f 132/132/132 128/128/128 129/129/129
f 132/132/132 131/131/131 133/133/133
f 132/132/132 133/133/133 134/134/134
f 134/134/134 135/135/135 132/132/132
f 136/136/136 135/135/135 134/134/134
f 136/136/136 137/137/137 135/135/135
f 138/138/138 135/135/135 137/137/137
f 128/128/128 139/139/139 122/122/122
f 139/139/139 123/123/123 122/122/122
f 139/139/139 140/140/140 123/123/123
f 139/139/139 128/128/128 140/140/140
f 140/140/140 141/141/141 123/123/123
f 142/142/142 128/128/128 132/132/132
f 132/132/132 135/135/135 142/142/142
f 128/128/128 142/142/142 140/140/140
f 142/142/142 135/135/135 140/140/140
f 141/141/141 140/140/140 143/143/143
f 135/135/135 143/143/143 140/140/140
f 135/135/135 138/138/138 143/143/143
f 144/144/144 141/141/141 143/143/143
f 138/138/138 145/145/145 143/143/143
f 144/144/144 143/143/143 145/145/145
f 146/146/146 144/144/144 145/145/145
f 145/145/145 138/138/138 147/147/147
f 146/146/146 145/145/145 148/148/148
f 149/149/149 146/146/146 148/148/148
f 150/150/150 149/149/149 148/148/148
f 145/145/145 151/151/151 148/148/148
f 147/147/147 151/151/151 145/145/145
f 152/152/152 151/151/151 147/147/147
f 152/152/152 147/147/147 153/153/153
f 154/154/154 152/152/152 153/153/153
