g NPC_Male_Size02_Hair_505_LOD2
v 0.075682 -0.081718 1.6890401
v 0.054006 -0.115004994 1.685574
v 0.059562996 -0.082936 1.7055
v 0.054006 -0.115004994 1.685574
v -0 -0.124574 1.6886839
v -0 -0.098341994 1.707176
v -0 -0.089237005 1.7298249
v 0.054545 -0.077146 1.728889
v 0.049889997 -0.068374 1.7489799
v 0.000156 -0.078684 1.753381
v -0 -0.051002998 1.7872099
v 0.045169 -0.04829 1.776772
v -0 -0.0150735 1.801642
v 0.0647065 -0.051497497 1.7524014
v 0.072439 -0.060514998 1.724698
v 0.07606 -0.063632004 1.7059
v 0.075682 -0.081718 1.6890401
v 0.08317199 -0.038768 1.720034
v 0.074903995 -0.0195805 1.7542999
v 0.0482585 -0.0147425 1.7875384
v 0.048589 0.020559 1.7873759
v -0 0.024284998 1.801904
v -0 0.0610035 1.7886535
v 0.086397 -0.042466 1.7005569
v 0.075682 -0.081718 1.6890401
v 0.09033 -0.047909997 1.6860949
v 0.09158149 -0.0039594993 1.7121587
v 0.09158149 -0.0039594993 1.7121587
v 0.07802849 0.016394 1.7511485
v 0.08538025 0.04826175 1.7020618
v 0.094521746 -0.0073804995 1.693057
v 0.08538025 0.04826175 1.7020618
v 0.088048495 0.04525625 1.6827158
v 0.069915 0.08368 1.6949139
v 0.07175 0.081549995 1.6755129
v 0.0731365 0.052902002 1.740399
v 0.063336 0.0818 1.727756
v 0.047209 0.054153003 1.7767864
v 0.043886 0.082691 1.755872
v -0 0.091876 1.763905
v 0.041279495 0.098326996 1.7279636
v -0 0.10765449 1.7297745
v 0.035017498 0.106876 1.6907384
v -0 0.11536899 1.6891029
v -0 0.115753 1.6692529
v 0.037676 0.106391504 1.670957
v 0.04006275 0.110141754 1.6559124
v -0 0.120326996 1.6540629
v 0.07414799 0.084777 1.6605079
v 0.04006275 0.110141754 1.6559124
v 0.07414799 0.084777 1.6605079
v 0.088048495 0.04525625 1.6827158
v 0.0923265 0.0455685 1.667959
v 0.0923265 0.0455685 1.667959
v 0.099547006 -0.010232999 1.6788055
v 0.094521746 -0.0073804995 1.693057
v 0.099547006 -0.010232999 1.6788055
v 0.09033 -0.047909997 1.6860949
v -0.00015788052 0.0042294133 1.6956226
v 0.0923265 0.0455685 1.667959
v 0.07414799 0.084777 1.6605079
v 0.054006 -0.115004994 1.685574
v 0.075682 -0.081718 1.6890401
v 0.075682 -0.081718 1.6890401
v 0.09033 -0.047909997 1.6860949
v -0.07414799 0.084777 1.6605079
v -0.0923265 0.0455685 1.667959
v -0.075682 -0.081718 1.6890401
v -0.054006 -0.115004994 1.685574
v -0.09033 -0.047909997 1.6860949
v -0.075682 -0.081718 1.6890401
v 0.09033 -0.047909997 1.6860949
v 0.099547006 -0.010232999 1.6788055
v 0.0923265 0.0455685 1.667959
v -0 -0.124574 1.6886839
v 0.054006 -0.115004994 1.685574
v -0.054006 -0.115004994 1.685574
v 0.07414799 0.084777 1.6605079
v 0.04006275 0.110141754 1.6559124
v -0 0.120326996 1.6540629
v -0.099547006 -0.010232999 1.6788055
v -0.09033 -0.047909997 1.6860949
v -0.0923265 0.0455685 1.667959
v -0.04006275 0.110141754 1.6559124
v -0.07414799 0.084777 1.6605079
v -0 0.120326996 1.6540629
v -0.075682 -0.081718 1.6890401
v -0.059562996 -0.082936 1.7055
v -0.054006 -0.115004994 1.685574
v -0 -0.124574 1.6886839
v -0.054006 -0.115004994 1.685574
v -0 -0.098341994 1.707176
v -0 -0.089237005 1.7298249
v -0.054545 -0.077146 1.728889
v -0.049889997 -0.068374 1.7489799
v 0.000156 -0.078684 1.753381
v -0 -0.051002998 1.7872099
v -0.072439 -0.060514998 1.724698
v -0.0647065 -0.051497497 1.7524014
v -0.045169 -0.04829 1.776772
v -0.07606 -0.063632004 1.7059
v -0.075682 -0.081718 1.6890401
v -0.0482585 -0.0147425 1.7875384
v -0 -0.0150735 1.801642
v -0.048589 0.020559 1.7873759
v -0 0.024284998 1.801904
v -0 0.0610035 1.7886535
v -0.074903995 -0.0195805 1.7542999
v -0.08317199 -0.038768 1.720034
v -0.086397 -0.042466 1.7005569
v -0.075682 -0.081718 1.6890401
v -0.09033 -0.047909997 1.6860949
v -0.09158149 -0.0039594993 1.7121587
v -0.09158149 -0.0039594993 1.7121587
v -0.07802849 0.016394 1.7511485
v -0.08532503 0.04826175 1.7020618
v -0.094521746 -0.0073804995 1.693057
v -0.08532503 0.04826175 1.7020618
v -0.088048495 0.04525625 1.6827158
v -0.07175 0.081549995 1.6755129
v -0.069915 0.08368 1.6949139
v -0.0731365 0.052902002 1.740399
v -0.063336 0.0818 1.727756
v -0.047209 0.054153003 1.7767864
v -0.043886 0.082691 1.755872
v -0 0.091876 1.763905
v -0.041279495 0.098326996 1.7279636
v -0 0.10765449 1.7297745
v -0.035017498 0.106876 1.6907384
v -0 0.11536899 1.6891029
v -0 0.115753 1.6692529
v -0.037676 0.106391504 1.670957
v -0.04006275 0.110141754 1.6559124
v -0 0.120326996 1.6540629
v -0.07414799 0.084777 1.6605079
v -0.04006275 0.110141754 1.6559124
v -0.07414799 0.084777 1.6605079
v -0.088048495 0.04525625 1.6827158
v -0.0923265 0.0455685 1.667959
v -0.099547006 -0.010232999 1.6788055
v -0.0923265 0.0455685 1.667959
v -0.094521746 -0.0073804995 1.693057
v -0.099547006 -0.010232999 1.6788055
v -0.09033 -0.047909997 1.6860949
v 0.06389613 -0.007880932 1.6183357
v 0.072292134 0.004910999 1.640821
v 0.06411506 0.0014386576 1.6169746
v 0.068529464 -0.012647595 1.6379803
v 0.072173186 -0.016097127 1.6551559
v 0.0751599 0.023259087 1.6568582
v 0.07296961 -0.022745883 1.672012
v 0.07104692 0.021786587 1.6379238
v 0.077895276 0.022435956 1.6857371
v 0.073756136 -0.0137058515 1.687997
v 0.071990795 -0.016383443 1.6922714
v 0.07614229 0.057132866 1.6784706
v 0.07548821 0.05723276 1.6524724
v 0.05201165 0.08521616 1.6717527
v 0.065354824 0.048579752 1.6215967
v 0.063585915 0.023242649 1.6152976
v 0.057608385 0.027510643 1.6011778
v 0.045527324 0.035093542 1.5852457
v 0.05235642 0.085494444 1.646345
v 8.0706046E-11 0.10321108 1.6668153
v 0.0438358 0.06779276 1.612112
v 5.1793094E-11 0.080958076 1.6064956
v 0.030807793 0.051041704 1.5840896
v 0.043124877 0.03589009 1.5720097
v 0.02671449 0.05060922 1.5738236
v -0 0.060928475 1.5820265
v -0 0.058496553 1.5746231
v -0.02671449 0.05060922 1.5738236
v -0.030807793 0.051041704 1.5840896
v -0.043124877 0.03589009 1.5720097
v -0.045527324 0.035093542 1.5852457
v 2.6044344E-11 0.10137852 1.643048
v -0.05235642 0.085494444 1.646345
v -0.05201165 0.08521616 1.6717529
v -0.0438358 0.06779276 1.612112
v -0.065354824 0.04857975 1.6215967
v -0.057608385 0.027510643 1.6011778
v -0.063585915 0.023242649 1.6152976
v -0.07104692 0.021786587 1.6379238
v -0.07548821 0.05723276 1.6524724
v -0.07614229 0.057132866 1.6784706
v -0.0751599 0.023259087 1.6568582
v -0.072292134 0.004910999 1.640821
v -0.077895276 0.022435956 1.6857371
v -0.072173186 -0.016097127 1.6551559
v -0.07296961 -0.022745883 1.672012
v -0.073756136 -0.0137058515 1.687997
v -0.0719908 -0.016383443 1.6922714
v -0.06847679 -0.0122676855 1.6386759
v -0.06411506 0.0014386576 1.6169746
v -0.06389613 -0.007880932 1.6183357
vt 0.835 0.5714
vt 0.8645 0.5198
vt 0.7993 0.5454
vt 0.8645 0.5198
vt 0.8564 0.4333
vt 0.7993 0.4333
vt 0.7367 0.4353
vt 0.7552 0.5464
vt 0.7139 0.5532
vt 0.6747 0.4515
vt 0.5787 0.5219
vt 0.6573 0.5837
vt 0.532 0.60745
vt 0.70935 0.59389997
vt 0.762 0.5886
vt 0.7993 0.5903
vt 0.835 0.5714
vt 0.76 0.6297
vt 0.69855 0.65155005
vt 0.62975 0.64355
vt 0.6172 0.7088
vt 0.5138 0.7074
vt 0.5238 0.80985
vt 0.7993 0.6324
vt 0.835 0.5714
vt 0.8307 0.6315
vt 0.75645 0.69149995
vt 0.76 0.69145
vt 0.69305 0.71295
vt 0.75595 0.78125
vt 0.7993 0.693
vt 0.76 0.7808
vt 0.7993 0.781
vt 0.76 0.8497
vt 0.7993 0.8506
vt 0.6955 0.7787
vt 0.7051 0.83665
vt 0.62294996 0.77515
vt 0.6469 0.8383
vt 0.5668 0.9042
vt 0.69194996 0.88325
vt 0.652 0.9684
vt 0.76 0.92505
vt 0.76 0.9937
vt 0.7993 0.9937
vt 0.7993 0.9247
vt 0.829475 0.925925
vt 0.8299 0.9937
vt 0.83000004 0.8562
vt 0.829475 0.925925
vt 0.83000004 0.8562
vt 0.80410004 0.78104997
vt 0.8341 0.78365004
vt 0.8341 0.78365004
vt 0.8339 0.6929
vt 0.80385 0.6927
vt 0.8339 0.6929
vt 0.8307 0.6315
vt 0.4989 0.5016556
vt 0.55904996 0.47505
vt 0.5441 0.4519
vt 0.5306 0.5718
vt 0.5439 0.5527
vt 0.5439 0.5527
vt 0.5576 0.5326
vt 0.4537 0.4519
vt 0.43875 0.47505
vt 0.4539 0.5527
vt 0.4672 0.5718
vt 0.4402 0.5326
vt 0.4539 0.5527
vt 0.5576 0.5326
vt 0.5644 0.5094
vt 0.55904996 0.47505
vt 0.4989 0.5773
vt 0.5306 0.5718
vt 0.4672 0.5718
vt 0.5441 0.4519
vt 0.522525 0.437275
vt 0.4989 0.4313
vt 0.4334 0.5094
vt 0.4402 0.5326
vt 0.43875 0.47505
vt 0.475275 0.437275
vt 0.4537 0.4519
vt 0.4989 0.4313
vt 0.165 0.5714
vt 0.2007 0.5454
vt 0.1355 0.5198
vt 0.1436 0.4333
vt 0.1355 0.5198
vt 0.2007 0.4333
vt 0.2637 0.4356
vt 0.2448 0.5466
vt 0.2859 0.5537
vt 0.326 0.4518
vt 0.4204 0.524
vt 0.2379 0.5888
vt 0.29035 0.59430003
vt 0.3421 0.5845
vt 0.2007 0.5903
vt 0.165 0.5714
vt 0.36914998 0.64405
vt 0.46504998 0.6088
vt 0.3817 0.7088
vt 0.4863 0.7073
vt 0.47329998 0.80845
vt 0.30105 0.65174997
vt 0.24 0.6297
vt 0.2007 0.6324
vt 0.165 0.5714
vt 0.1693 0.6315
vt 0.24355 0.69149995
vt 0.24 0.69145
vt 0.30655 0.71295
vt 0.24405 0.78125
vt 0.2007 0.693
vt 0.24 0.7808
vt 0.2007 0.781
vt 0.2007 0.8506
vt 0.24 0.8497
vt 0.30415 0.7785
vt 0.29465 0.83634996
vt 0.376 0.7747
vt 0.3525 0.8376
vt 0.4325 0.9022
vt 0.30785 0.8828
vt 0.34825 0.96755004
vt 0.24 0.92505
vt 0.24 0.9937
vt 0.2007 0.9937
vt 0.2007 0.9247
vt 0.170525 0.925925
vt 0.1701 0.9937
vt 0.17 0.8562
vt 0.170525 0.925925
vt 0.17 0.8562
vt 0.1959 0.78104997
vt 0.16589999 0.78365004
vt 0.1661 0.6929
vt 0.16589999 0.78365004
vt 0.19615 0.6927
vt 0.1661 0.6929
vt 0.1693 0.6315
vt 0.075515896 0.35001868
vt 0.12034468 0.40022895
vt 0.09980599 0.3426433
vt 0.076068036 0.42242497
vt 0.07700058 0.4730472
vt 0.17873594 0.4129649
vt 0.07636304 0.5382911
vt 0.16693085 0.34526026
vt 0.20775732 0.50433826
vt 0.13274066 0.59214795
vt 0.14247343 0.6181013
vt 0.27749416 0.42573696
vt 0.26241833 0.35656914
vt 0.37789664 0.3732306
vt 0.25156072 0.26248348
vt 0.193064 0.2423089
vt 0.22229677 0.18521245
vt 0.28370368 0.12741987
vt 0.3688223 0.30645323
vt 0.49965715 0.3396431
vt 0.36254552 0.21355358
vt 0.49995968 0.18906215
vt 0.35726318 0.12058486
vt 0.29991838 0.086050056
vt 0.38022318 0.09291985
vt 0.5 0.10924733
vt 0.5 0.08716367
vt 0.6200751 0.09309644
vt 0.6432711 0.11959843
vt 0.7000816 0.086050056
vt 0.7165776 0.12655415
vt 0.49964038 0.28601274
vt 0.6304446 0.30625138
vt 0.62257886 0.3727463
vt 0.6377338 0.21378046
vt 0.7485864 0.26249987
vt 0.7771488 0.1861755
vt 0.806936 0.2423089
vt 0.83306915 0.34526026
vt 0.73732424 0.35694325
vt 0.722316 0.42830634
vt 0.82123655 0.41310987
vt 0.8796553 0.40022895
vt 0.7901485 0.5046869
vt 0.92300564 0.47293586
vt 0.92359823 0.5383812
vt 0.8672593 0.59214795
vt 0.8575266 0.61810136
vt 0.92393196 0.41689986
vt 0.89986193 0.34114984
vt 0.92393196 0.34881532
vn 0.7370805 -0.44857424 0.50546354
vn 0.1901494 -0.55404973 0.8104765
vn 0.34504098 -0.72896326 0.5912354
vn 0.1901494 -0.55404973 0.8104765
vn -0 -0.5607079 0.82801366
vn -1.9904554E-07 -0.7401625 0.6724281
vn -0.00038637282 -0.9276394 0.37347692
vn 0.36589566 -0.854023 0.36981776
vn 0.31360173 -0.79655665 0.51686704
vn 0.0006015187 -0.83916056 0.5438834
vn -0.0002536618 -0.58326036 0.8122852
vn 0.38793004 -0.5275657 0.7557677
vn -7.4754684E-07 -0.1703437 0.98538476
vn 0.771663 -0.38772774 0.5041859
vn 0.8058817 -0.4849352 0.33969483
vn 0.82515293 -0.46329942 0.32322788
vn 0.7370805 -0.44857424 0.50546354
vn 0.92507553 -0.22677222 0.30464658
vn 0.8525346 -0.14262974 0.5028334
vn 0.5046631 -0.1484645 0.8504548
vn 0.53493226 0.14412336 0.83251184
vn -1.0655543E-06 0.16531397 0.986241
vn -3.914305E-07 0.47677365 0.8790261
vn 0.9274053 -0.25297484 0.2755414
vn 0.7370805 -0.44857424 0.50546354
vn 0.9031812 -0.2525573 0.3471
vn 0.9686915 0.024263829 0.24707907
vn 0.9686915 0.024263829 0.24707907
vn 0.8856352 0.10600847 0.4521199
vn 0.94420266 0.2702774 0.18823238
vn 0.97421014 0.02393375 0.22436951
vn 0.94420266 0.2702774 0.18823238
vn 0.94627225 0.27143484 0.17576075
vn 0.756111 0.64383113 0.11737788
vn 0.75761074 0.6372285 0.14130001
vn 0.8797095 0.28932753 0.37736022
vn 0.75313026 0.6114 0.24286796
vn 0.4982237 0.40479594 0.76675516
vn 0.37639052 0.69997585 0.60693
vn -2.2842241E-07 0.7652766 0.6437015
vn 0.38169923 0.87962204 0.28384984
vn -3.813427E-07 0.9338801 0.35758626
vn 0.40977716 0.9078527 0.08880382
vn -1.4388793E-07 0.9953061 0.09677717
vn -3.7210808E-07 0.98939615 0.14524181
vn 0.4171923 0.8983226 0.1377212
vn 0.39046854 0.87781405 0.27744678
vn -6.389955E-07 0.9593675 0.28215942
vn 0.700298 0.6617069 0.26781803
vn 0.39046854 0.87781405 0.27744678
vn 0.700298 0.6617069 0.26781803
vn 0.94627225 0.27143484 0.17576075
vn 0.9140311 0.30233046 0.27045074
vn 0.9140311 0.30233046 0.27045074
vn 0.9497052 0.041450437 0.31039008
vn 0.97421014 0.02393375 0.22436951
vn 0.9497052 0.041450437 0.31039008
vn 0.9031812 -0.2525573 0.3471
vn 0.00012268354 -0.14786214 -0.98900807
vn -0.18032157 -0.23563549 -0.95496595
vn -0.1323351 -0.2909929 -0.9475286
vn -0.039447114 0.06610675 -0.9970325
vn -0.03179296 0.048404515 -0.9983217
vn -0.03179296 0.048404515 -0.9983217
vn -0.15118964 -0.082386695 -0.98506564
vn 0.13256508 -0.2912541 -0.94741625
vn 0.18083316 -0.23578376 -0.9548327
vn 0.03177918 0.048533 -0.99831593
vn 0.039561763 0.0661593 -0.9970245
vn 0.15159231 -0.08217617 -0.9850212
vn 0.03177918 0.048533 -0.99831593
vn -0.15118964 -0.082386695 -0.98506564
vn -0.1891346 -0.18182737 -0.96496993
vn -0.18032157 -0.23563549 -0.95496595
vn -5.7641373E-05 0.05379184 -0.99855214
vn -0.039447114 0.06610675 -0.9970325
vn 0.039561763 0.0661593 -0.9970245
vn -0.1323351 -0.2909929 -0.9475286
vn -0.07167215 -0.32618815 -0.94258386
vn -3.9632065E-05 -0.337028 -0.94149464
vn 0.18971117 -0.1817823 -0.96486527
vn 0.15159231 -0.08217617 -0.9850212
vn 0.18083316 -0.23578376 -0.9548327
vn 0.07169757 -0.32636937 -0.94251925
vn 0.13256508 -0.2912541 -0.94741625
vn -3.9632065E-05 -0.337028 -0.94149464
vn -0.73708194 -0.44857332 0.5054624
vn -0.34504172 -0.72896314 0.59123504
vn -0.1901497 -0.55404973 0.8104765
vn -0 -0.5607079 0.82801366
vn -0.1901497 -0.55404973 0.8104765
vn -1.9904554E-07 -0.7401625 0.6724281
vn -0.00038637282 -0.9276394 0.37347692
vn -0.36556017 -0.85396945 0.37027255
vn -0.3128135 -0.79673743 0.5170659
vn 0.0006015187 -0.83916056 0.5438834
vn -0.0002536618 -0.58326036 0.8122852
vn -0.8058811 -0.48493594 0.33969522
vn -0.77166224 -0.38772827 0.50418675
vn -0.3874871 -0.52827305 0.7555007
vn -0.82515264 -0.46329984 0.32322824
vn -0.73708194 -0.44857332 0.5054624
vn -0.5046638 -0.14846446 0.85045445
vn -7.4754684E-07 -0.1703437 0.98538476
vn -0.5349337 0.14412306 0.832511
vn -1.0655543E-06 0.16531397 0.986241
vn -3.914305E-07 0.47677365 0.8790261
vn -0.8303783 -0.14917964 0.5368587
vn -0.9183373 -0.2668821 0.29228494
vn -0.9274052 -0.2529749 0.27554175
vn -0.73708194 -0.44857332 0.5054624
vn -0.903181 -0.25255764 0.34710047
vn -0.9722837 0.048628587 0.22869124
vn -0.9722837 0.048628587 0.22869124
vn -0.8768692 0.13012671 0.4627822
vn -0.95095044 0.24894692 0.18362649
vn -0.9741114 0.024185281 0.22477113
vn -0.95095044 0.24894692 0.18362649
vn -0.9461227 0.27149755 0.17646791
vn -0.7576276 0.6371273 0.14166659
vn -0.72611344 0.6808788 0.0957249
vn -0.86166954 0.29683784 0.4115979
vn -0.71869075 0.6274409 0.29966897
vn -0.5161722 0.41054258 0.7516789
vn -0.4379701 0.67131597 0.5979273
vn -2.2842241E-07 0.7652766 0.6437015
vn -0.38169974 0.87962186 0.28384978
vn -3.813427E-07 0.9338801 0.35758626
vn -0.40977728 0.9078527 0.08880373
vn -1.4388793E-07 0.9953061 0.09677717
vn -3.7210808E-07 0.98939615 0.14524181
vn -0.41719255 0.89832246 0.13772099
vn -0.39046946 0.8778138 0.27744654
vn -6.389955E-07 0.9593675 0.28215942
vn -0.70029855 0.6617065 0.26781783
vn -0.39046946 0.8778138 0.27744654
vn -0.70029855 0.6617065 0.26781783
vn -0.9461227 0.27149755 0.17646791
vn -0.9140312 0.3023303 0.27045053
vn -0.9497052 0.04145012 0.3103901
vn -0.9140312 0.3023303 0.27045053
vn -0.9741114 0.024185281 0.22477113
vn -0.9497052 0.04145012 0.3103901
vn -0.903181 -0.25255764 0.34710047
vn 0.95068717 -0.1252099 -0.2837542
vn 0.97898704 -0.085282125 -0.1852329
vn 0.95068717 -0.1252099 -0.2837542
vn 0.95338625 -0.13979732 -0.26741645
vn 0.9912243 -0.084835105 -0.10137751
vn 0.9898628 -0.01858665 -0.14080562
vn 0.9944067 -0.08519387 -0.062429164
vn 0.9622436 -0.0011437049 -0.2721871
vn 0.997095 -0.030471584 -0.069807135
vn 0.9903964 -0.10802926 0.08628214
vn 0.9387767 -0.086671226 0.33344635
vn 0.9521794 0.30331856 -0.036772273
vn 0.9088501 0.36188143 -0.20744476
vn 0.53631014 0.8438721 -0.015858596
vn 0.8268518 0.36959723 -0.4239269
vn 0.9392197 0.019641217 -0.34275427
vn 0.856372 0.16070838 -0.49071357
vn 0.71110326 0.4931028 -0.5011804
vn 0.49923152 0.81669545 -0.2894417
vn 1.8167331E-07 0.99957055 -0.0293019
vn 0.46173397 0.72669774 -0.5086375
vn -0 0.8474408 -0.5308898
vn 0.4358709 0.72249 -0.5366794
vn 0.7094349 0.69023746 -0.1423883
vn 0.42930776 0.8764741 -0.21791756
vn -0 0.8169876 -0.57665527
vn -0 0.9500557 -0.3120805
vn -0.42930612 0.8764748 -0.21791758
vn -0.43587214 0.7224897 -0.5366786
vn -0.7094341 0.6902381 -0.14238839
vn -0.711105 0.49310157 -0.50117916
vn 1.9233855E-07 0.9473761 -0.3201225
vn -0.49923077 0.8166959 -0.2894414
vn -0.5363086 0.84387296 -0.015858583
vn -0.46173435 0.7266977 -0.50863713
vn -0.8268521 0.3695968 -0.42392668
vn -0.85637134 0.16070908 -0.49071458
vn -0.9392204 0.01964111 -0.3427525
vn -0.9622435 -0.0011437729 -0.2721879
vn -0.90884995 0.36188158 -0.20744495
vn -0.9521791 0.3033195 -0.036772195
vn -0.9898627 -0.018586677 -0.14080599
vn -0.97859406 -0.08964187 -0.18525119
vn -0.997095 -0.030471591 -0.06980711
vn -0.9911083 -0.08540509 -0.102031164
vn -0.9944067 -0.08519401 -0.06242914
vn -0.99039626 -0.10802981 0.086282186
vn -0.93877697 -0.08667186 0.33344537
vn -0.9509871 -0.15134338 -0.269664
vn -0.9509976 -0.13657786 -0.27739877
vn -0.9509976 -0.13657786 -0.2773988
g NPC_Male_Size02_Hair_505_LOD2_0
f 3/3/3 2/2/2 1/1/1
f 5/5/5 4/4/4 3/3/3
f 6/6/6 5/5/5 3/3/3
f 7/7/7 6/6/6 3/3/3
f 8/8/8 7/7/7 3/3/3
f 8/8/8 9/9/9 7/7/7
f 9/9/9 10/10/10 7/7/7
f 10/10/10 9/9/9 11/11/11
f 9/9/9 12/12/12 11/11/11
f 11/11/11 12/12/12 13/13/13
f 9/9/9 8/8/8 14/14/14
f 12/12/12 9/9/9 14/14/14
f 8/8/8 3/3/3 15/15/15
f 8/8/8 15/15/15 14/14/14
f 3/3/3 16/16/16 15/15/15
f 16/16/16 3/3/3 17/17/17
f 14/14/14 15/15/15 18/18/18
f 15/15/15 16/16/16 18/18/18
f 14/14/14 19/19/19 12/12/12
f 19/19/19 14/14/14 18/18/18
f 12/12/12 20/20/20 13/13/13
f 19/19/19 20/20/20 12/12/12
f 20/20/20 21/21/21 13/13/13
f 20/20/20 19/19/19 21/21/21
f 21/21/21 22/22/22 13/13/13
f 23/23/23 22/22/22 21/21/21
f 16/16/16 24/24/24 18/18/18
f 16/16/16 25/25/25 24/24/24
f 25/25/25 26/26/26 24/24/24
f 18/18/18 27/27/27 19/19/19
f 18/18/18 24/24/24 28/28/28
f 27/27/27 29/29/29 19/19/19
f 19/19/19 29/29/29 21/21/21
f 29/29/29 27/27/27 30/30/30
f 24/24/24 31/31/31 28/28/28
f 32/32/32 28/28/28 31/31/31
f 33/33/33 32/32/32 31/31/31
f 32/32/32 33/33/33 34/34/34
f 33/33/33 35/35/35 34/34/34
f 21/21/21 29/29/29 36/36/36
f 36/36/36 29/29/29 30/30/30
f 30/30/30 34/34/34 37/37/37
f 36/36/36 30/30/30 37/37/37
f 38/38/38 21/21/21 36/36/36
f 38/38/38 23/23/23 21/21/21
f 39/39/39 38/38/38 36/36/36
f 38/38/38 39/39/39 23/23/23
f 39/39/39 36/36/36 37/37/37
f 39/39/39 40/40/40 23/23/23
f 39/39/39 41/41/41 40/40/40
f 41/41/41 39/39/39 37/37/37
f 41/41/41 42/42/42 40/40/40
f 41/41/41 37/37/37 43/43/43
f 41/41/41 43/43/43 42/42/42
f 37/37/37 34/34/34 43/43/43
f 43/43/43 44/44/44 42/42/42
f 44/44/44 43/43/43 45/45/45
f 43/43/43 34/34/34 46/46/46
f 43/43/43 46/46/46 45/45/45
f 34/34/34 35/35/35 46/46/46
f 45/45/45 46/46/46 47/47/47
f 48/48/48 45/45/45 47/47/47
f 35/35/35 49/49/49 46/46/46
f 49/49/49 50/50/50 46/46/46
f 35/35/35 52/52/52 51/51/51
f 52/52/52 53/53/53 51/51/51
f 55/55/55 54/54/54 52/52/52
f 56/56/56 55/55/55 52/52/52
f 56/56/56 24/24/24 57/57/57
f 24/24/24 58/58/58 57/57/57
f 61/61/61 60/60/60 59/59/59
f 63/63/63 62/62/62 59/59/59
f 65/65/65 64/64/64 59/59/59
f 67/67/67 66/66/66 59/59/59
f 69/69/69 68/68/68 59/59/59
f 71/71/71 70/70/70 59/59/59
f 73/73/73 72/72/72 59/59/59
f 59/59/59 74/74/74 73/73/73
f 59/59/59 76/76/76 75/75/75
f 77/77/77 59/59/59 75/75/75
f 79/79/79 78/78/78 59/59/59
f 79/79/79 59/59/59 80/80/80
f 82/82/82 81/81/81 59/59/59
f 83/83/83 59/59/59 81/81/81
f 85/85/85 84/84/84 59/59/59
f 59/59/59 84/84/84 86/86/86
f 89/89/89 88/88/88 87/87/87
f 91/91/91 90/90/90 88/88/88
f 90/90/90 92/92/92 88/88/88
f 88/88/88 92/92/92 93/93/93
f 94/94/94 88/88/88 93/93/93
f 94/94/94 93/93/93 95/95/95
f 93/93/93 96/96/96 95/95/95
f 95/95/95 96/96/96 97/97/97
f 94/94/94 98/98/98 88/88/88
f 94/94/94 95/95/95 99/99/99
f 98/98/98 94/94/94 99/99/99
f 100/100/100 95/95/95 97/97/97
f 95/95/95 100/100/100 99/99/99
f 98/98/98 101/101/101 88/88/88
f 88/88/88 101/101/101 102/102/102
f 103/103/103 100/100/100 97/97/97
f 104/104/104 103/103/103 97/97/97
f 105/105/105 103/103/103 104/104/104
f 106/106/106 105/105/105 104/104/104
f 106/106/106 107/107/107 105/105/105
f 103/103/103 108/108/108 100/100/100
f 108/108/108 99/99/99 100/100/100
f 103/103/103 105/105/105 108/108/108
f 98/98/98 99/99/99 109/109/109
f 101/101/101 98/98/98 109/109/109
f 99/99/99 108/108/108 109/109/109
f 110/110/110 101/101/101 109/109/109
f 101/101/101 110/110/110 111/111/111
f 110/110/110 112/112/112 111/111/111
f 109/109/109 108/108/108 113/113/113
f 110/110/110 109/109/109 114/114/114
f 113/113/113 108/108/108 115/115/115
f 105/105/105 115/115/115 108/108/108
f 113/113/113 115/115/115 116/116/116
f 117/117/117 110/110/110 114/114/114
f 114/114/114 118/118/118 117/117/117
f 118/118/118 119/119/119 117/117/117
f 119/119/119 118/118/118 120/120/120
f 118/118/118 121/121/121 120/120/120
f 122/122/122 115/115/115 105/105/105
f 115/115/115 122/122/122 116/116/116
f 116/116/116 123/123/123 121/121/121
f 116/116/116 122/122/122 123/123/123
f 124/124/124 122/122/122 105/105/105
f 107/107/107 124/124/124 105/105/105
f 122/122/122 124/124/124 125/125/125
f 125/125/125 124/124/124 107/107/107
f 123/123/123 122/122/122 125/125/125
f 126/126/126 125/125/125 107/107/107
f 125/125/125 126/126/126 127/127/127
f 125/125/125 127/127/127 123/123/123
f 126/126/126 128/128/128 127/127/127
f 127/127/127 129/129/129 123/123/123
f 129/129/129 127/127/127 128/128/128
f 129/129/129 121/121/121 123/123/123
f 130/130/130 129/129/129 128/128/128
f 129/129/129 130/130/130 131/131/131
f 121/121/121 129/129/129 132/132/132
f 132/132/132 129/129/129 131/131/131
f 120/120/120 121/121/121 132/132/132
f 133/133/133 132/132/132 131/131/131
f 134/134/134 133/133/133 131/131/131
f 120/120/120 132/132/132 135/135/135
f 132/132/132 136/136/136 135/135/135
f 138/138/138 120/120/120 137/137/137
f 139/139/139 138/138/138 137/137/137
f 141/141/141 140/140/140 138/138/138
f 140/140/140 142/142/142 138/138/138
f 142/142/142 143/143/143 110/110/110
f 143/143/143 144/144/144 110/110/110
g NPC_Male_Size02_Hair_505_LOD2_1
f 147/147/147 146/146/146 145/145/145
f 146/146/146 148/148/148 145/145/145
f 149/149/149 148/148/148 146/146/146
f 149/149/149 146/146/146 150/150/150
f 149/149/149 150/150/150 151/151/151
f 146/146/146 152/152/152 150/150/150
f 150/150/150 153/153/153 151/151/151
f 153/153/153 154/154/154 151/151/151
f 154/154/154 153/153/153 155/155/155
f 156/156/156 153/153/153 150/150/150
f 157/157/157 156/156/156 150/150/150
f 150/150/150 152/152/152 157/157/157
f 156/156/156 157/157/157 158/158/158
f 152/152/152 159/159/159 157/157/157
f 159/159/159 152/152/152 160/160/160
f 160/160/160 161/161/161 159/159/159
f 159/159/159 161/161/161 162/162/162
f 157/157/157 163/163/163 158/158/158
f 157/157/157 159/159/159 163/163/163
f 164/164/164 158/158/158 163/163/163
f 159/159/159 162/162/162 165/165/165
f 159/159/159 165/165/165 163/163/163
f 165/165/165 166/166/166 163/163/163
f 162/162/162 167/167/167 165/165/165
f 167/167/167 166/166/166 165/165/165
f 168/168/168 167/167/167 162/162/162
f 169/169/169 167/167/167 168/168/168
f 169/169/169 170/170/170 167/167/167
f 170/170/170 166/166/166 167/167/167
f 171/171/171 170/170/170 169/169/169
f 171/171/171 172/172/172 170/170/170
f 170/170/170 172/172/172 173/173/173
f 173/173/173 166/166/166 170/170/170
f 173/173/173 172/172/172 174/174/174
f 173/173/173 174/174/174 175/175/175
f 176/176/176 164/164/164 163/163/163
f 166/166/166 176/176/176 163/163/163
f 176/176/176 177/177/177 164/164/164
f 176/176/176 166/166/166 177/177/177
f 177/177/177 178/178/178 164/164/164
f 179/179/179 166/166/166 173/173/173
f 173/173/173 175/175/175 179/179/179
f 166/166/166 179/179/179 177/177/177
f 175/175/175 180/180/180 179/179/179
f 179/179/179 180/180/180 177/177/177
f 181/181/181 180/180/180 175/175/175
f 181/181/181 182/182/182 180/180/180
f 183/183/183 180/180/180 182/182/182
f 178/178/178 177/177/177 184/184/184
f 180/180/180 184/184/184 177/177/177
f 180/180/180 183/183/183 184/184/184
f 185/185/185 178/178/178 184/184/184
f 183/183/183 186/186/186 184/184/184
f 185/185/185 184/184/184 186/186/186
f 186/186/186 183/183/183 187/187/187
f 188/188/188 185/185/185 186/186/186
f 187/187/187 189/189/189 186/186/186
f 186/186/186 189/189/189 190/190/190
f 188/188/188 186/186/186 190/190/190
f 191/191/191 188/188/188 190/190/190
f 191/191/191 192/192/192 188/188/188
f 193/193/193 189/189/189 187/187/187
f 193/193/193 187/187/187 194/194/194
f 195/195/195 193/193/193 194/194/194
