g SeparateMesh_Monster_ThugBulkyAbuser_Model_ThugBulky_Vizor_01_LOD1
v 0.047452 -0.123395994 1.80007
v 0.038888574 -0.13500135 1.7899982
v 0.027506592 -0.14551833 1.789728
v 0.0320845 -0.1597335 1.870099
v 0.054736994 -0.13661355 1.874404
v 0.067953 -0.11607799 1.8786368
v 0.060452998 -0.099681996 1.816577
v 0.071237415 -0.083342 1.8534911
v 0.076019004 -0.09042169 1.8835531
v 0.068496995 -0.077361 1.8316729
v 0.07263997 -0.051413 1.8484759
v 0.059426002 -0.12610464 1.891368
v 0.06690375 -0.116262406 1.8942082
v 0.031612 -0.14292553 1.8987802
v 0.07491021 -0.093107305 1.9035059
v -0 -0.1585696 1.9068576
v -0 -0.178932 1.866239
v 0.07741061 -0.06715648 1.8920916
v 0.08098944 -0.06390332 1.9166348
v 0.07780616 -0.059340417 1.8937446
v 0.08243709 -0.046364773 1.913751
v 0.08322144 -0.049285315 1.9233166
v 0.07584956 -0.06982598 1.8834149
v 0.07516391 -0.06636335 1.8795027
v 0.074256316 -0.06934679 1.8729464
v 0.084705085 -0.03222743 1.9255575
v 0.0853477 -0.028125998 1.932639
v 0.08550518 -0.01667356 1.9308646
v 0.08544641 -0.018073004 1.9265245
v 0.083935 -0.005128008 1.9155968
v 0.083766 -0.009120008 1.914004
v 0.08165 -0.0037181969 1.8995479
v 0.08150099 -0.008312197 1.8998011
v 0.078955 -0.0084153265 1.8849515
v 0.078786 -0.012803991 1.8864868
v 0.07438179 -0.03141668 1.8595037
v 0.074150786 -0.03351877 1.8628478
v 0.07269042 -0.055012763 1.8592247
v 0.07325397 -0.06559683 1.8632976
v 0.019858066 -0.145619 1.7740479
v 0.019497227 -0.1473843 1.777776
v 0.026085999 -0.144075 1.7783369
v 0.016060514 -0.14974499 1.7797438
v 0.036029328 -0.13887626 1.786635
v -1.1E-05 -0.157178 1.783456
v 0.008487575 -0.15106004 1.7743979
v -1.2E-05 -0.154729 1.7745249
v -0.00038331747 -0.151354 1.7624329
v 0.0065409997 -0.14918 1.765284
v -0.0009057382 -0.1480858 1.7527648
v -0.012398 -0.147698 1.763928
v -0.0137 -0.14843 1.7711481
v -0.018449565 -0.14820129 1.7782841
v -0.026034584 -0.14598747 1.7851645
v -0.0320845 -0.1597335 1.870099
v -0.031612 -0.14292553 1.8987802
v -0.047452 -0.123395994 1.80007
v -0.059426002 -0.12610464 1.891368
v -0.054736994 -0.13661355 1.874404
v -0.068095 -0.116028 1.878641
v -0.06690375 -0.116262406 1.8942082
v -0.060452998 -0.099681996 1.816577
v -0.071658 -0.083354 1.8534869
v -0.076019004 -0.09042169 1.8835531
v -0.07491021 -0.093107305 1.9035059
v -0.068496995 -0.077361 1.8316729
v -0.08098944 -0.06390332 1.9166348
v -0.07263997 -0.051413 1.8484759
v -0.07269042 -0.055012763 1.8592247
v -0.074150786 -0.03351877 1.8628478
v -0.0737218 -0.065583326 1.8633395
v -0.07438179 -0.03141668 1.8595037
v -0.074256316 -0.06934679 1.8729464
v -0.078786 -0.012803991 1.8864868
v -0.078955 -0.0084153265 1.8849515
v -0.08150099 -0.008312197 1.8998011
v -0.08165 -0.0037181969 1.8995479
v -0.083766 -0.009120008 1.914004
v -0.083935 -0.005128008 1.9155968
v -0.08544641 -0.018073004 1.9265245
v -0.08550518 -0.01667356 1.9308646
v -0.085641004 -0.027817413 1.9280279
v -0.0853477 -0.028125998 1.932639
v -0.08376916 -0.036637448 1.9230872
v -0.08322144 -0.049285315 1.9233166
v -0.08243709 -0.046364773 1.913751
v -0.07780616 -0.059340417 1.8937446
v -0.07741061 -0.06715648 1.8920916
v -0.07584956 -0.06982598 1.8834149
v -0.07516391 -0.06636335 1.8795027
vt 0.6539699 0.29145688
vt 0.61524963 0.27043104
vt 0.5764751 0.27216962
vt 0.58038497 0.46804082
vt 0.6548254 0.47394875
vt 0.712994 0.47843882
vt 0.7236838 0.3239046
vt 0.7808997 0.4065425
vt 0.7777756 0.48132208
vt 0.7851734 0.35211262
vt 0.854568 0.38173366
vt 0.6796495 0.5134454
vt 0.7156925 0.5156886
vt 0.59641147 0.54371935
vt 0.7777493 0.5295249
vt 0.49922168 0.5679449
vt 0.4999692 0.45950302
vt 0.83677083 0.4937765
vt 0.85176605 0.5518055
vt 0.8563804 0.49587652
vt 0.89361477 0.5410291
vt 0.888064 0.56446624
vt 0.8267095 0.47309706
vt 0.83306366 0.461775
vt 0.82288796 0.44702736
vt 0.92925155 0.56621426
vt 0.94061935 0.5821801
vt 0.9670881 0.57362384
vt 0.96179104 0.5641527
vt 0.98546654 0.5316467
vt 0.9753275 0.53001887
vt 0.98092455 0.49327537
vt 0.9702043 0.49569926
vt 0.9648575 0.4600459
vt 0.9548 0.46476454
vt 0.9054946 0.40254623
vt 0.90117276 0.4108932
vt 0.85004014 0.40833092
vt 0.82715344 0.42239225
vt 0.5590819 0.23395821
vt 0.55665606 0.24355286
vt 0.57429653 0.244376
vt 0.5451597 0.24827884
vt 0.6023213 0.26341072
vt 0.50153095 0.26088947
vt 0.5224163 0.23559697
vt 0.50016433 0.23907858
vt 0.49831498 0.20912454
vt 0.5164046 0.21348888
vt 0.49624142 0.18481368
vt 0.468165 0.21091476
vt 0.4647123 0.22825414
vt 0.45231545 0.2449378
vt 0.43006492 0.26060122
vt 0.41944242 0.4669267
vt 0.40238124 0.5423767
vt 0.34808385 0.2892118
vt 0.31965393 0.51098275
vt 0.344991 0.4717902
vt 0.2865491 0.47558305
vt 0.28368995 0.51279837
vt 0.27785027 0.32091343
vt 0.2196401 0.40303636
vt 0.22198531 0.4778035
vt 0.22167324 0.52600944
vt 0.21596588 0.34851435
vt 0.14784302 0.5481114
vt 0.14619367 0.37750176
vt 0.1505239 0.40411472
vt 0.099629834 0.4067799
vt 0.1731591 0.41852462
vt 0.09523815 0.39848322
vt 0.17720255 0.44308054
vt 0.046635892 0.461404
vt 0.03656373 0.4567218
vt 0.031120477 0.49237004
vt 0.020425066 0.48985127
vt 0.02546444 0.52666587
vt 0.01529734 0.52810353
vt 0.038229354 0.5610385
vt 0.032817375 0.57043236
vt 0.059775665 0.5681055
vt 0.059270293 0.57911676
vt 0.08131213 0.558026
vt 0.11168135 0.560996
vt 0.10597447 0.53759074
vt 0.1429934 0.49221066
vt 0.1627646 0.4900068
vt 0.17310674 0.4692266
vt 0.16686961 0.45779172
vn 0.81113607 -0.56819963 -0.13859102
vn 0.65076673 -0.7111239 0.26609296
vn 0.5671404 -0.80207247 -0.18716712
vn 0.59967023 -0.7921337 0.11366466
vn 0.7681209 -0.64013934 0.014560389
vn 0.9056704 -0.4190382 -0.064560615
vn 0.93116826 -0.30801687 -0.19506724
vn 0.97785234 -0.13777736 -0.15755065
vn 0.97956526 -0.17378199 -0.10125125
vn 0.97569865 -0.15890233 -0.15087116
vn 0.9957633 -0.06480638 -0.06523365
vn 0.74823415 -0.6371944 0.18474008
vn 0.89193237 -0.4505554 0.038164243
vn 0.51810986 -0.7341848 0.43878803
vn 0.97844815 -0.2057399 -0.017610671
vn -0 -0.8779743 0.4787078
vn 0.0009519617 -0.9957344 0.092260614
vn 0.9922666 -0.06280255 -0.10706403
vn 0.9881953 -0.100814566 -0.11535426
vn 0.9886185 -0.047696028 -0.14268325
vn 0.98695916 -0.094049916 -0.13063821
vn 0.9892175 -0.088241026 -0.116885774
vn 0.9850358 0.006948116 -0.17220968
vn 0.98856 0.009796407 -0.15050942
vn 0.9898616 -0.005717724 -0.14192015
vn 0.9962871 -0.06818012 -0.05256769
vn 0.9979235 -0.047306888 -0.04371208
vn 0.9982514 -0.002447864 -0.05906089
vn 0.9979291 0.008132758 -0.06380675
vn 0.9931827 0.017514471 -0.11524436
vn 0.99305665 0.016408073 -0.11648691
vn 0.98655593 -0.03957705 -0.158559
vn 0.98631567 -0.042093996 -0.15940338
vn 0.98737925 -0.09069992 -0.12982981
vn 0.98816353 -0.09712773 -0.1187395
vn 0.9945445 -0.09403267 -0.04515568
vn 0.99439174 -0.09502461 -0.04642711
vn 0.99507505 -0.057298876 -0.080886245
vn 0.98799664 -0.028357971 -0.15185073
vn 0.44427603 -0.8255764 -0.3479114
vn 0.47496057 -0.86451155 -0.1644146
vn 0.4800844 -0.86948586 -0.11624671
vn 0.42195186 -0.89664435 -0.13411058
vn 0.51622355 -0.83405 -0.19461198
vn 0.0048763687 -0.97122306 -0.23812157
vn 0.3677197 -0.89145327 -0.26475126
vn 0.008953324 -0.9674682 -0.25283417
vn 0.037658483 -0.9556556 -0.29206914
vn 0.3899035 -0.87807715 -0.277409
vn -0.051562287 -0.9469198 -0.31730792
vn -0.30730626 -0.93269444 -0.1887957
vn -0.34854335 -0.9146373 -0.20483187
vn -0.37915352 -0.90316135 -0.20135055
vn -0.5485138 -0.81259555 -0.19703078
vn -0.6001687 -0.7915895 0.11481906
vn -0.51810986 -0.7341848 0.43878803
vn -0.8147109 -0.5521055 -0.17727289
vn -0.7466845 -0.6382905 0.1872099
vn -0.76712227 -0.64132917 0.014842139
vn -0.9050943 -0.42071778 -0.06165033
vn -0.8915722 -0.45088494 0.042449754
vn -0.93016607 -0.3081075 -0.1996519
vn -0.97783214 -0.1362928 -0.15896119
vn -0.98051375 -0.17203446 -0.09485181
vn -0.97859097 -0.205181 -0.016135132
vn -0.9752863 -0.14789201 -0.16414812
vn -0.9881953 -0.100814536 -0.11535426
vn -0.9958061 -0.0582102 -0.07058174
vn -0.99452835 -0.04806496 -0.09275302
vn -0.99439174 -0.09502461 -0.046427112
vn -0.98653686 -0.024963457 -0.1616224
vn -0.9945445 -0.09403267 -0.045155693
vn -0.9918967 -0.008942213 -0.12673204
vn -0.98816353 -0.09712773 -0.1187395
vn -0.98737925 -0.09069992 -0.1298298
vn -0.98631567 -0.04209399 -0.15940338
vn -0.98655593 -0.03957704 -0.158559
vn -0.99305665 0.016408069 -0.11648691
vn -0.9931827 0.01751447 -0.11524436
vn -0.998979 0.029188318 -0.034484368
vn -0.99958473 0.022659723 -0.017799996
vn -0.9920346 -0.120498225 0.036709126
vn -0.99692184 -0.07803683 0.00754489
vn -0.9928866 -0.06363366 -0.100632325
vn -0.9899116 -0.072417244 -0.12178191
vn -0.98802096 -0.08542247 -0.12852138
vn -0.9886185 -0.04769601 -0.14268325
vn -0.9922666 -0.062802546 -0.107064016
vn -0.9850358 0.006948116 -0.17220968
vn -0.98856 0.009796407 -0.15050942
g SeparateMesh_Monster_ThugBulkyAbuser_Model_ThugBulky_Vizor_01_LOD1_0
f 3/3/3 2/2/2 1/1/1
f 4/4/4 3/3/3 1/1/1
f 5/5/5 4/4/4 1/1/1
f 1/1/1 6/6/6 5/5/5
f 7/7/7 6/6/6 1/1/1
f 6/6/6 7/7/7 8/8/8
f 9/9/9 6/6/6 8/8/8
f 7/7/7 10/10/10 8/8/8
f 10/10/10 11/11/11 8/8/8
f 5/5/5 6/6/6 12/12/12
f 5/5/5 12/12/12 4/4/4
f 13/13/13 12/12/12 6/6/6
f 13/13/13 6/6/6 9/9/9
f 12/12/12 14/14/14 4/4/4
f 15/15/15 13/13/13 9/9/9
f 14/14/14 16/16/16 4/4/4
f 16/16/16 17/17/17 4/4/4
f 3/3/3 4/4/4 17/17/17
f 9/9/9 18/18/18 15/15/15
f 18/18/18 19/19/19 15/15/15
f 18/18/18 20/20/20 19/19/19
f 19/19/19 20/20/20 21/21/21
f 22/22/22 19/19/19 21/21/21
f 23/23/23 18/18/18 9/9/9
f 9/9/9 24/24/24 23/23/23
f 25/25/25 24/24/24 9/9/9
f 21/21/21 26/26/26 22/22/22
f 22/22/22 26/26/26 27/27/27
f 28/28/28 27/27/27 26/26/26
f 29/29/29 28/28/28 26/26/26
f 30/30/30 28/28/28 29/29/29
f 31/31/31 30/30/30 29/29/29
f 30/30/30 31/31/31 32/32/32
f 31/31/31 33/33/33 32/32/32
f 34/34/34 32/32/32 33/33/33
f 35/35/35 34/34/34 33/33/33
f 36/36/36 34/34/34 35/35/35
f 37/37/37 36/36/36 35/35/35
f 36/36/36 37/37/37 11/11/11
f 37/37/37 38/38/38 11/11/11
f 11/11/11 38/38/38 8/8/8
f 39/39/39 8/8/8 38/38/38
f 25/25/25 8/8/8 39/39/39
f 8/8/8 25/25/25 9/9/9
f 42/42/42 41/41/41 40/40/40
f 41/41/41 42/42/42 43/43/43
f 42/42/42 44/44/44 43/43/43
f 3/3/3 43/43/43 44/44/44
f 3/3/3 45/45/45 43/43/43
f 43/43/43 45/45/45 46/46/46
f 45/45/45 3/3/3 17/17/17
f 45/45/45 47/47/47 46/46/46
f 48/48/48 46/46/46 47/47/47
f 49/49/49 46/46/46 48/48/48
f 50/50/50 49/49/49 48/48/48
f 50/50/50 48/48/48 51/51/51
f 51/51/51 48/48/48 52/52/52
f 48/48/48 47/47/47 52/52/52
f 52/52/52 47/47/47 53/53/53
f 47/47/47 45/45/45 53/53/53
f 45/45/45 54/54/54 53/53/53
f 54/54/54 45/45/45 17/17/17
f 55/55/55 54/54/54 17/17/17
f 17/17/17 16/16/16 55/55/55
f 16/16/16 56/56/56 55/55/55
f 54/54/54 55/55/55 57/57/57
f 56/56/56 58/58/58 55/55/55
f 55/55/55 59/59/59 57/57/57
f 58/58/58 59/59/59 55/55/55
f 60/60/60 57/57/57 59/59/59
f 60/60/60 59/59/59 58/58/58
f 58/58/58 61/61/61 60/60/60
f 62/62/62 57/57/57 60/60/60
f 62/62/62 60/60/60 63/63/63
f 60/60/60 64/64/64 63/63/63
f 61/61/61 65/65/65 60/60/60
f 65/65/65 64/64/64 60/60/60
f 66/66/66 62/62/62 63/63/63
f 64/64/64 65/65/65 67/67/67
f 66/66/66 63/63/63 68/68/68
f 63/63/63 69/69/69 68/68/68
f 69/69/69 70/70/70 68/68/68
f 63/63/63 71/71/71 69/69/69
f 70/70/70 72/72/72 68/68/68
f 73/73/73 71/71/71 63/63/63
f 73/73/73 63/63/63 64/64/64
f 72/72/72 70/70/70 74/74/74
f 75/75/75 72/72/72 74/74/74
f 75/75/75 74/74/74 76/76/76
f 77/77/77 75/75/75 76/76/76
f 77/77/77 76/76/76 78/78/78
f 79/79/79 77/77/77 78/78/78
f 79/79/79 78/78/78 80/80/80
f 81/81/81 79/79/79 80/80/80
f 80/80/80 82/82/82 81/81/81
f 82/82/82 83/83/83 81/81/81
f 84/84/84 83/83/83 82/82/82
f 85/85/85 83/83/83 84/84/84
f 86/86/86 85/85/85 84/84/84
f 67/67/67 85/85/85 86/86/86
f 87/87/87 67/67/67 86/86/86
f 67/67/67 87/87/87 88/88/88
f 88/88/88 64/64/64 67/67/67
f 88/88/88 89/89/89 64/64/64
f 90/90/90 64/64/64 89/89/89
f 90/90/90 73/73/73 64/64/64
