g SeparateMesh_Avatar_Female_Size02_Ellen_Model_Ellen_Weapon_1_LOD2
v 0.011449282 -0.3616016 -0.036283176
v 0.016517362 -0.34744084 -0.03628318
v 0.01428044 -0.34744084 -0.06803579
v 0.009867538 -0.35977095 -0.068035275
v 0.016517362 -0.34744084 -0.03628318
v 0.011449279 -0.33328006 -0.036283184
v 0.009867527 -0.3351107 -0.0680363
v 0.01428044 -0.34744084 -0.06803579
v -0.00078615546 -0.32776344 -0.036283463
v -0.0007861787 -0.3287596 -0.068035714
v 0.009867527 -0.3351107 -0.0680363
v -0.0007861787 -0.3287596 -0.068035714
v -0.00078615546 -0.32776344 -0.036283463
v -0.013021593 -0.33328006 -0.03628317
v -0.011439862 -0.33511072 -0.06803323
v -0.015852759 -0.34744087 -0.06803375
v -0.011439862 -0.33511072 -0.06803323
v -0.01808968 -0.34744084 -0.03628317
v -0.01143984 -0.35977095 -0.068034254
v -0.01808968 -0.34744084 -0.03628317
v -0.013021598 -0.3616016 -0.036283173
v -0.0007861638 -0.36487824 -0.06803477
v -0.01143984 -0.35977095 -0.068034254
v -0.00078616024 -0.36746714 -0.036283176
v 0.009867538 -0.35977095 -0.068035275
v 0.011449282 -0.3616016 -0.036283176
vt 0.9133737 0.047343347
vt 0.91374224 0.035913013
vt 0.8997472 0.035955727
vt 0.8997472 0.046660457
vt 0.91183954 0.45362282
vt 0.91183954 0.44552395
vt 0.90084827 0.446068
vt 0.8994141 0.4536586
vt 0.91183954 0.437422
vt 0.9004252 0.43765754
vt 0.90205604 0.44547868
vt 0.8997472 0.09937094
vt 0.9114497 0.099867485
vt 0.909635 0.08847175
vt 0.8997472 0.08864292
vt 0.8997472 0.07795174
vt 0.8997472 0.08864292
vt 0.90999657 0.07776617
vt 0.8997472 0.067662895
vt 0.91046834 0.0784031
vt 0.9120777 0.06749841
vt 0.8997472 0.05734066
vt 0.8997472 0.067662895
vt 0.9125749 0.057202034
vt 0.8997472 0.046660457
vt 0.9131327 0.046598542
vn 0.7390781 -0.66938543 -0.07541037
vn 0.99752766 -9.613369E-07 -0.07027434
vn 0.99752766 7.819476E-06 -0.07027433
vn 0.7421388 -0.66599536 -0.07536739
vn 0.99752766 -9.613369E-07 -0.07027434
vn 0.7501481 0.6582763 -0.06284991
vn 0.75341177 0.6545285 -0.062953666
vn 0.99752766 7.819476E-06 -0.07027433
vn -3.8126477E-06 0.998355 -0.05733422
vn 3.624896E-05 0.998355 -0.057334214
vn 0.75341177 0.6545285 -0.062953666
vn 3.624896E-05 0.998355 -0.057334214
vn -3.8126477E-06 0.998355 -0.05733422
vn -0.7501495 0.65827435 -0.06285399
vn -0.7534 0.6545416 -0.062957354
vn -0.9975274 -8.256089E-06 -0.070278846
vn -0.7534 0.6545416 -0.062957354
vn -0.9975274 1.0227E-06 -0.070278846
vn -0.7421263 -0.66600907 -0.0753699
vn -0.9975274 1.0227E-06 -0.070278846
vn -0.73907965 -0.66938347 -0.07541267
vn 1.1044563E-05 -0.9966924 -0.08126686
vn -0.7421263 -0.66600907 -0.0753699
vn -1.7206683E-06 -0.9966924 -0.08126687
vn 0.7421388 -0.66599536 -0.07536739
vn 0.7390781 -0.66938543 -0.07541037
g SeparateMesh_Avatar_Female_Size02_Ellen_Model_Ellen_Weapon_1_LOD2_0
f 3/3/3 2/2/2 1/1/1
f 4/4/4 3/3/3 1/1/1
f 7/7/7 6/6/6 5/5/5
f 8/8/8 7/7/7 5/5/5
f 10/10/10 9/9/9 6/6/6
f 11/11/11 10/10/10 6/6/6
f 14/14/14 13/13/13 12/12/12
f 15/15/15 14/14/14 12/12/12
f 14/14/14 17/17/17 16/16/16
f 18/18/18 14/14/14 16/16/16
f 20/20/20 16/16/16 19/19/19
f 21/21/21 20/20/20 19/19/19
f 21/21/21 23/23/23 22/22/22
f 24/24/24 21/21/21 22/22/22
f 24/24/24 22/22/22 25/25/25
f 26/26/26 24/24/24 25/25/25
