g SeparateMesh_Monster_StrikeJaeger_Model_MeleeJaeger_Weaopn_02_LOD2
v -0.5383539 -0.15209746 0.99330413
v -0.5425296 -0.13961673 0.9888854
v -0.5568723 -0.16305767 0.9578176
v -0.5568723 -0.16305767 0.9578176
v -0.55687237 -0.23376052 0.95489883
v -0.5359362 -0.2620179 0.98827755
v -0.55687237 -0.23376052 0.95489883
v -0.55687237 -0.26294 0.94165134
v -0.55687237 -0.41251618 0.95117164
v -0.55687237 -0.26294 0.94165134
v -0.5383539 -0.15267387 1.0408578
v -0.5425296 -0.13961673 0.9888854
v -0.5425296 -0.13961673 1.0353818
v -0.54167444 -0.6899276 0.99415225
v -0.53834504 -0.28142983 0.9970767
v -0.55687237 -0.5401844 0.9574942
v -0.54167444 -0.6899276 0.99415225
v -0.55687237 -0.41251618 0.95117164
v -0.5416702 -0.28140712 1.0090946
v -0.54167444 -0.6899276 0.99415225
v -0.54167444 -0.6989175 1.0090989
v -0.55687237 -0.5401844 0.9574942
v -0.5568724 -0.6661096 0.9537607
v -0.57780844 -0.2620179 1.0090903
v -0.5720745 -0.28140712 1.0090946
v -0.57539964 -0.28142983 0.9970767
v -0.57780844 -0.2620179 1.0090903
v -0.5778084 -0.26201785 0.98827755
v -0.5753897 -0.2216928 1.0090877
v -0.57780844 -0.2620179 1.0090903
v -0.5753907 -0.15209746 0.99330413
v -0.5753897 -0.2216928 1.0090877
v -0.5753907 -0.15267387 1.0408578
v -0.5753897 -0.2216928 1.0090877
v -0.57538795 -0.19788466 1.0410788
v -0.5712151 -0.13961673 0.9888854
v -0.5753907 -0.15209746 0.99330413
v -0.5568723 -0.16305767 0.9578176
v -0.55687237 -0.23376052 0.95489883
v -0.5568723 -0.16305767 0.9578176
v -0.5778084 -0.26201785 0.98827755
v -0.55687237 -0.26294 0.94165134
v -0.55687237 -0.23376052 0.95489883
v -0.55687237 -0.41251618 0.95117164
v -0.55687237 -0.26294 0.94165134
v -0.5712151 -0.13961673 0.9888854
v -0.5753907 -0.15267387 1.0408578
v -0.5712151 -0.13961673 1.0353818
v -0.5720705 -0.6899276 0.99415225
v -0.57539964 -0.28142983 0.9970767
v -0.5720705 -0.6899276 0.99415225
v -0.55687237 -0.5401844 0.9574942
v -0.55687237 -0.41251618 0.95117164
v -0.5720745 -0.28140712 1.0090946
v -0.5720705 -0.6899276 0.99415225
v -0.5720705 -0.6989175 1.0090989
v -0.5568724 -0.6661096 0.9537607
v -0.55687237 -0.5401844 0.9574942
v -0.5359362 -0.2620179 1.0090903
v -0.53834504 -0.28142983 0.9970767
v -0.5416702 -0.28140712 1.0090946
v -0.5359362 -0.2620179 1.0090903
v -0.5359362 -0.2620179 0.98827755
v -0.538355 -0.22169283 1.0090877
v -0.5383539 -0.15209746 0.99330413
v -0.538355 -0.22169283 1.0090877
v -0.5383539 -0.15267387 1.0408578
v -0.538355 -0.22169283 1.0090877
v -0.5383568 -0.1978847 1.0410788
v -0.538355 -0.22169283 1.0090877
v -0.5753897 -0.2216928 1.0090877
v -0.57538795 -0.19788466 1.0410788
v -0.5383568 -0.1978847 1.0410788
v -0.5425296 -0.13961673 1.0353818
v -0.5712151 -0.13961673 1.0353818
v -0.5712151 -0.13961673 0.9888854
v -0.5425296 -0.13961673 0.9888854
v -0.5568723 -0.16305767 0.9578176
v -0.5753907 -0.15267387 1.0408578
v -0.5383539 -0.15267387 1.0408578
v -0.5383568 -0.1978847 1.0410788
v -0.57538795 -0.19788466 1.0410788
v -0.5720705 -0.6899276 0.99415225
v -0.54167444 -0.6899276 0.99415225
v -0.5568724 -0.6661096 0.9537607
v -0.5720705 -0.6989175 1.0090989
v -0.54167444 -0.6989175 1.0090989
v -0.5753897 -0.2216928 1.0090877
v -0.538355 -0.22169283 1.0090877
v -0.5359362 -0.2620179 1.0090903
v -0.57780844 -0.2620179 1.0090903
v -0.5720745 -0.28140712 1.0090946
v -0.5416702 -0.28140712 1.0090946
v -0.54167444 -0.6989175 1.0090989
v -0.5720705 -0.6989175 1.0090989
v -0.5416702 -0.28140712 1.0090946
v -0.5753907 -0.15267387 1.0408578
v -0.5712151 -0.13961673 1.0353818
v -0.5425296 -0.13961673 1.0353818
v -0.5383539 -0.15267387 1.0408578
v -0.55667186 -0.12597263 0.99145406
v -0.55668736 0.04287807 0.9929579
v -0.5748219 0.042878073 1.0107225
v -0.5763257 -0.12597263 1.010707
v -0.55705726 0.042878073 1.028857
v -0.5570728 -0.12597263 1.0303608
v -0.5389227 0.042878065 1.0110924
v -0.53741896 -0.12597263 1.0111079
v -0.55668736 0.04287807 0.9929579
v -0.55667186 -0.12597263 0.99145406
v -0.55668736 0.04287807 0.9929579
v -0.556817 0.12094895 0.9931748
v -0.5746049 0.12094895 1.0108521
v -0.5748219 0.042878073 1.0107225
v -0.5569277 0.12094894 1.02864
v -0.55705726 0.042878073 1.028857
v -0.53913975 0.12094894 1.0109628
v -0.5389227 0.042878065 1.0110924
v -0.556817 0.12094895 0.9931748
v -0.55668736 0.04287807 0.9929579
v -0.5809362 -0.13781998 1.0109073
v -0.5568725 -0.13782 0.9871606
v -0.5568725 -0.10745983 0.9879252
v -0.58017164 -0.120535925 1.0109073
v -0.5568725 -0.13782 1.0346541
v -0.5568725 -0.10745983 1.0338897
v -0.53344274 -0.13782005 1.0109073
v -0.5342073 -0.120536 1.0109073
v -0.5568725 -0.13782 0.9871606
v -0.5568725 -0.10745983 0.9879252
v -0.55681705 0.12094895 0.99317473
v -0.55680776 0.14230609 1.0046334
v -0.5631464 0.14230609 1.0108427
v -0.574605 0.12094895 1.010852
v -0.5631464 0.14230609 1.0108427
v -0.55693704 0.14230609 1.0171814
v -0.5569278 0.12094894 1.0286399
v -0.55693704 0.14230609 1.0171814
v -0.5505984 0.14230609 1.0109719
v -0.53913987 0.12094897 1.0109627
v -0.5505984 0.14230609 1.0109719
v -0.55680776 0.14230609 1.0046334
v -0.55681705 0.12094895 0.99317473
v -0.55680776 0.14230609 1.0046334
v -0.5505984 0.14230609 1.0109719
v -0.55693704 0.14230609 1.0171814
v -0.5631464 0.14230609 1.0108427
v -0.5468938 -0.15543488 1.0407321
v -0.54434264 -0.21053436 1.0007621
v -0.5443428 -0.6934589 1.0007621
v -0.5468939 -0.71631163 1.0407321
v -0.5468939 -0.71631163 1.0407321
v -0.56728375 -0.71631163 1.0407321
v -0.56728363 -0.15543488 1.0407321
v -0.5468938 -0.15543488 1.0407321
v -0.5468939 -0.71631163 1.0407321
v -0.5443428 -0.6934589 1.0007621
v -0.5694022 -0.6934589 1.0007621
v -0.56728375 -0.71631163 1.0407321
v -0.5694021 -0.21053436 1.0007621
v -0.56728363 -0.15543488 1.0407321
v -0.56728375 -0.71631163 1.0407321
v -0.5694022 -0.6934589 1.0007621
vt 0.8132609 0.36804965
vt 0.81042093 0.37488595
vt 0.78765285 0.3596871
vt 0.78765285 0.3596871
vt 0.78592825 0.31384426
vt 0.8054587 0.2920197
vt 0.78592825 0.31384426
vt 0.77620095 0.29492474
vt 0.783098 0.1979413
vt 0.77620095 0.29492474
vt 0.8441059 0.3690695
vt 0.81042093 0.37488595
vt 0.8441059 0.37488595
vt 0.8142367 0.018070936
vt 0.8131699 0.282936
vt 0.7876788 0.11516276
vt 0.8142367 0.018070936
vt 0.783098 0.1979413
vt 0.825061 0.28295067
vt 0.8142367 0.018070936
vt 0.82506484 0.012241999
vt 0.7876788 0.11516276
vt 0.78497416 0.0335143
vt 0.6515602 0.5307699
vt 0.65156364 0.51079106
vt 0.6326668 0.5107677
vt 0.6515602 0.5307699
vt 0.61858165 0.52425987
vt 0.6515602 0.57620776
vt 0.6515602 0.5307699
vt 0.62071455 0.6302668
vt 0.6515602 0.57620776
vt 0.6832602 0.6434376
vt 0.6515602 0.57620776
vt 0.685628 0.5968524
vt 0.81042093 0.37488595
vt 0.805649 0.35813197
vt 0.78765285 0.3596871
vt 0.78592825 0.31384426
vt 0.78765285 0.3596871
vt 0.8054971 0.292095
vt 0.77620095 0.29492474
vt 0.78592825 0.31384426
vt 0.783098 0.1979413
vt 0.77620095 0.29492474
vt 0.81042093 0.37488595
vt 0.8441059 0.3690695
vt 0.8441059 0.37488595
vt 0.8142367 0.018070936
vt 0.8131699 0.282936
vt 0.8142367 0.018070936
vt 0.7876788 0.11516276
vt 0.783098 0.1979413
vt 0.825061 0.28295067
vt 0.8142367 0.018070936
vt 0.82506484 0.012241999
vt 0.78497416 0.0335143
vt 0.7876788 0.11516276
vt 0.6515602 0.5307699
vt 0.63266677 0.5107677
vt 0.6515637 0.51079106
vt 0.6515602 0.5307699
vt 0.6276189 0.5307905
vt 0.6515602 0.57620776
vt 0.6333852 0.64403147
vt 0.6515602 0.57620776
vt 0.6832602 0.6434376
vt 0.6515602 0.57620776
vt 0.685628 0.5968524
vt 0.931046 0.20951957
vt 0.9146714 0.2095516
vt 0.9145608 0.22646655
vt 0.931116 0.22646597
vt 0.93371546 0.30464327
vt 0.9459177 0.30464327
vt 0.9459177 0.28486508
vt 0.93371546 0.28486508
vt 0.9398166 0.2683104
vt 0.9156701 0.24658832
vt 0.9300265 0.24658832
vt 0.931116 0.22646597
vt 0.9145608 0.22646655
vt 0.77928853 0.0045915106
vt 0.77928853 0.022693302
vt 0.8072143 0.013642407
vt 0.7689016 0.0045915106
vt 0.7689016 0.022693302
vt 0.9146714 0.2095516
vt 0.931046 0.20951957
vt 0.9324742 0.19241275
vt 0.91330683 0.19247644
vt 0.9163674 0.184238
vt 0.9292854 0.184238
vt 0.929284 0.0068438165
vt 0.91636884 0.0068438165
vt 0.9292854 0.184238
vt 0.9466673 0.30997485
vt 0.9459177 0.30615905
vt 0.93371546 0.30615905
vt 0.9329654 0.3099749
vt 0.8524673 0.36751533
vt 0.8524673 0.5147184
vt 0.8734978 0.5147184
vt 0.87419724 0.36751533
vt 0.89994067 0.5147184
vt 0.89960706 0.36751533
vt 0.92660844 0.5147184
vt 0.92678404 0.36751533
vt 0.9539137 0.5147184
vt 0.95407915 0.36751533
vt 0.8524157 0.5263514
vt 0.8527506 0.59585345
vt 0.8732436 0.59585345
vt 0.87272936 0.5263503
vt 0.9000554 0.59585345
vt 0.899305 0.5263503
vt 0.92676294 0.59585345
vt 0.9258736 0.5263503
vt 0.95389557 0.59585345
vt 0.9533512 0.52635026
vt 0.2689343 0.38382044
vt 0.23128325 0.38382044
vt 0.23128325 0.41316
vt 0.26901817 0.40017694
vt 0.3070235 0.38382044
vt 0.3070404 0.41316
vt 0.34451583 0.38382044
vt 0.344433 0.40017426
vt 0.38154528 0.38382044
vt 0.38154528 0.41316
vt 0.819763 0.3323513
vt 0.8238525 0.35590515
vt 0.84172606 0.35590515
vt 0.8398641 0.3323513
vt 0.84172606 0.35590515
vt 0.8648942 0.35590515
vt 0.86502916 0.3323513
vt 0.8648942 0.35590515
vt 0.8905755 0.35590515
vt 0.8910581 0.3323513
vt 0.8905755 0.35590515
vt 0.91773677 0.35590515
vt 0.9186128 0.3323513
vt 0.66263604 0.4482381
vt 0.66834736 0.43444908
vt 0.65455866 0.42873746
vt 0.6488466 0.4425268
vt 0.618049 0.98238194
vt 0.63692087 0.9558217
vt 0.6369203 0.7230316
vt 0.618049 0.7120154
vt 0.6150305 0.7120154
vt 0.60520166 0.7120152
vt 0.60520166 0.9624982
vt 0.6150301 0.9624984
vt 0.7385194 0.015167776
vt 0.7596356 0.01625678
vt 0.7596356 0.004568226
vt 0.7385194 0.005657229
vt 0.5837766 0.95582134
vt 0.60222363 0.982198
vt 0.6026484 0.7120152
vt 0.5837766 0.72303104
vn 0.96689636 0.13561992 -0.21614492
vn 0.93912613 0.21619166 -0.26702654
vn 0.87033045 0.045969225 -0.4903179
vn 0.87033045 0.045969225 -0.4903179
vn 0.8832803 0.09090478 -0.45994824
vn 0.97835857 0.006947467 -0.20679982
vn 0.8832803 0.09090478 -0.45994824
vn 0.9098305 0.06521856 -0.40982324
vn 0.8995016 -0.019677991 -0.43647417
vn 0.9098305 0.06521856 -0.40982324
vn 0.9909304 0.13437374 0.0008416876
vn 0.93912613 0.21619166 -0.26702654
vn 0.9502489 0.31148586 0.0019089889
vn 0.99910176 -0.0019401101 -0.042332396
vn 0.9811255 -0.07137701 0.17971683
vn 0.90192103 -0.016329436 -0.43159214
vn 0.99910176 -0.0019401101 -0.042332396
vn 0.8995016 -0.019677991 -0.43647417
vn 0.9721562 -0.13769832 0.18960842
vn 0.99910176 -0.0019401101 -0.042332396
vn 0.99265045 -0.004433599 0.12093506
vn 0.90192103 -0.016329436 -0.43159214
vn 0.93787277 0.010282404 -0.346827
vn -0.9970605 -0.060395915 0.0471443
vn -0.9721566 -0.13769634 0.18960857
vn -0.9811265 -0.07137526 0.17971177
vn -0.9970605 -0.060395915 0.0471443
vn -0.9783584 0.006948268 -0.20680067
vn -0.99867105 0.017943064 0.048312478
vn -0.9970605 -0.060395915 0.0471443
vn -0.9668968 0.13561748 -0.21614479
vn -0.99867105 0.017943064 0.048312478
vn -0.9909306 0.13437204 0.0008412567
vn -0.99867105 0.017943064 0.048312478
vn -1 -2.8333869E-05 3.0335133E-05
vn -0.9391274 0.21618682 -0.26702607
vn -0.9668968 0.13561748 -0.21614479
vn -0.87033117 0.045968637 -0.49031675
vn -0.883281 0.090904556 -0.4599468
vn -0.87033117 0.045968637 -0.49031675
vn -0.9783584 0.006948268 -0.20680067
vn -0.9098313 0.06521826 -0.4098213
vn -0.883281 0.090904556 -0.4599468
vn -0.8995015 -0.019677596 -0.4364743
vn -0.9098313 0.06521826 -0.4098213
vn -0.9391274 0.21618682 -0.26702607
vn -0.9909306 0.13437204 0.0008412567
vn -0.9502504 0.311481 0.0019089895
vn -0.99910176 -0.001939526 -0.042332493
vn -0.9811265 -0.07137526 0.17971177
vn -0.99910176 -0.001939526 -0.042332493
vn -0.90192086 -0.016328944 -0.43159243
vn -0.8995015 -0.019677596 -0.4364743
vn -0.9721566 -0.13769634 0.18960857
vn -0.99910176 -0.001939526 -0.042332493
vn -0.99265045 -0.0044332314 0.12093516
vn -0.9378729 0.010283521 -0.34682643
vn -0.90192086 -0.016328944 -0.43159243
vn 0.99706036 -0.060397778 0.047145788
vn 0.9811255 -0.07137701 0.17971683
vn 0.9721562 -0.13769832 0.18960842
vn 0.99706036 -0.060397778 0.047145788
vn 0.97835857 0.006947467 -0.20679982
vn 0.99867094 0.01794304 0.048314873
vn 0.96689636 0.13561992 -0.21614492
vn 0.99867094 0.01794304 0.048314873
vn 0.9909304 0.13437374 0.0008416876
vn 0.99867094 0.01794304 0.048314873
vn 1 -2.9227449E-05 3.1075677E-05
vn -4.1167777E-07 -0.8022244 0.59702265
vn -4.1167777E-07 -0.8022244 0.59702265
vn -4.1167775E-07 -0.80222434 0.59702265
vn -4.1167777E-07 -0.8022244 0.59702265
vn -1.6622917E-07 1 1.0255351E-07
vn -1.6622917E-07 1 1.0255351E-07
vn -0 0.9608324 -0.27712986
vn -0 0.9608324 -0.27713007
vn -0 0.7982689 -0.6023012
vn -0 0.18006045 0.9836556
vn -0 0.18006012 0.9836556
vn -0 0.0048886733 0.9999881
vn -0 0.0048886733 0.9999881
vn -0 -0.8589256 -0.51210046
vn -0 -0.8589256 -0.51210046
vn -0 -0.86139137 -0.50794196
vn -0 -0.85693747 -0.5154205
vn -0 -0.85693747 -0.5154205
vn -0 6.621902E-05 1
vn -0 6.621903E-05 1
vn -0 0.00013700746 1
vn -0 0.00013700749 1
vn -0 0.00012418612 1
vn -0 0.00012418622 1
vn -0 1.041592E-05 1
vn -0 1.041592E-05 1
vn -0 0.00012418622 1
vn -0 0.18006045 0.9836556
vn -0 0.38675216 0.9221837
vn -0 0.38675216 0.9221837
vn -0 0.18006012 0.9836556
vn 0.010304377 0.008906217 -0.99990726
vn 0.010304176 0.008906216 -0.99990726
vn -0.99990726 0.008906394 -0.010303972
vn -0.99990726 0.008906394 -0.0103039
vn -0.01030375 0.00890622 0.99990726
vn -0.010303894 0.00890622 0.99990726
vn 0.99990726 0.008906052 0.01030418
vn 0.99990726 0.0089060515 0.010304218
vn 0.010304176 0.008906216 -0.99990726
vn 0.010304377 0.008906217 -0.99990726
vn 0.0074704285 0.0027901353 -0.9999683
vn 0.0059922785 0.0027901346 -0.9999782
vn -0.9999782 0.002790128 -0.0059920563
vn -0.9999683 0.0027901286 -0.0074698906
vn -0.0059930184 0.0027906161 0.9999782
vn -0.007469884 0.002790615 0.9999683
vn 0.9999782 0.0027906212 0.0059929118
vn 0.9999682 0.0027906217 0.007470859
vn 0.0059922785 0.0027901346 -0.9999782
vn 0.0074704285 0.0027901353 -0.9999683
vn -0.999483 0.032150388 -8.2305866E-07
vn 0.0067342254 0.032222528 -0.999458
vn 0.0049153185 0.032222472 -0.9994686
vn -0.999483 0.03215039 -1.0226796E-06
vn 0.0067341826 0.032222595 0.999458
vn 0.004915289 0.032222535 0.9994686
vn 0.99949694 0.031717576 -7.576886E-07
vn 0.99949694 0.03171758 -9.648217E-07
vn 0.0067342254 0.032222528 -0.999458
vn 0.0049153185 0.032222472 -0.9994686
vn 0.003404886 0.47276843 -0.88118017
vn 0.0062222257 0.47276783 -0.8811651
vn -0.8811654 0.4727672 -0.006223302
vn -0.8811805 0.47276777 -0.0034053863
vn -0.8811654 0.4727672 -0.006223302
vn -0.006221402 0.47276703 0.88116544
vn -0.003406042 0.47276762 0.8811805
vn -0.006221402 0.47276703 0.88116544
vn 0.8811659 0.47276625 0.006219358
vn 0.881181 0.47276676 0.0034059645
vn 0.8811659 0.47276625 0.006219358
vn 0.0062222257 0.47276783 -0.8811651
vn 0.003404886 0.47276843 -0.88118017
vn -0 1 0
vn -0 1 0
vn -0 1 0
vn -0 1 0
vn 0.9979693 -2.8258475E-07 0.063696265
vn 0.9979693 -2.8258478E-07 0.06369628
vn 0.9979693 -2.8258475E-07 0.06369627
vn 0.9979693 -2.8258478E-07 0.06369627
vn -0 1.3602623E-07 1
vn -0 1.3602622E-07 1
vn -0 1.3602622E-07 1
vn -0 1.3602623E-07 1
vn -0 -0.8681243 -0.49634674
vn -0 -0.8681243 -0.4963468
vn -0 -0.8681243 -0.49634674
vn -0 -0.8681243 -0.4963468
vn -0.9985984 2.9974004E-07 0.052926663
vn -0.9985984 2.9974007E-07 0.05292667
vn -0.9985984 2.9974007E-07 0.05292667
vn -0.9985984 2.9974007E-07 0.05292667
g SeparateMesh_Monster_StrikeJaeger_Model_MeleeJaeger_Weaopn_02_LOD2_0
f 3/3/3 2/2/2 1/1/1
f 5/5/5 4/4/4 1/1/1
f 6/6/6 5/5/5 1/1/1
f 8/8/8 7/7/7 6/6/6
f 10/10/10 6/6/6 9/9/9
f 1/1/1 12/12/12 11/11/11
f 12/12/12 13/13/13 11/11/11
f 6/6/6 15/15/15 14/14/14
f 6/6/6 17/17/17 16/16/16
f 18/18/18 6/6/6 16/16/16
f 20/20/20 15/15/15 19/19/19
f 21/21/21 20/20/20 19/19/19
f 23/23/23 22/22/22 20/20/20
f 26/26/26 25/25/25 24/24/24
f 28/28/28 26/26/26 27/27/27
f 30/30/30 29/29/29 28/28/28
f 28/28/28 32/32/32 31/31/31
f 31/31/31 34/34/34 33/33/33
f 34/34/34 35/35/35 33/33/33
f 38/38/38 37/37/37 36/36/36
f 40/40/40 39/39/39 37/37/37
f 39/39/39 41/41/41 37/37/37
f 43/43/43 42/42/42 41/41/41
f 41/41/41 45/45/45 44/44/44
f 37/37/37 47/47/47 46/46/46
f 47/47/47 48/48/48 46/46/46
f 50/50/50 41/41/41 49/49/49
f 52/52/52 51/51/51 41/41/41
f 53/53/53 52/52/52 41/41/41
f 50/50/50 55/55/55 54/54/54
f 55/55/55 56/56/56 54/54/54
f 58/58/58 57/57/57 55/55/55
f 61/61/61 60/60/60 59/59/59
f 60/60/60 63/63/63 62/62/62
f 62/62/62 63/63/63 64/64/64
f 66/66/66 63/63/63 65/65/65
f 68/68/68 65/65/65 67/67/67
f 69/69/69 68/68/68 67/67/67
f 72/72/72 71/71/71 70/70/70
f 73/73/73 72/72/72 70/70/70
f 76/76/76 75/75/75 74/74/74
f 77/77/77 76/76/76 74/74/74
f 76/76/76 77/77/77 78/78/78
f 81/81/81 80/80/80 79/79/79
f 82/82/82 81/81/81 79/79/79
f 85/85/85 84/84/84 83/83/83
f 83/83/83 84/84/84 86/86/86
f 84/84/84 87/87/87 86/86/86
f 90/90/90 89/89/89 88/88/88
f 91/91/91 90/90/90 88/88/88
f 90/90/90 91/91/91 92/92/92
f 93/93/93 90/90/90 92/92/92
f 92/92/92 95/95/95 94/94/94
f 96/96/96 92/92/92 94/94/94
f 99/99/99 98/98/98 97/97/97
f 100/100/100 99/99/99 97/97/97
f 103/103/103 102/102/102 101/101/101
f 104/104/104 103/103/103 101/101/101
f 105/105/105 103/103/103 104/104/104
f 106/106/106 105/105/105 104/104/104
f 107/107/107 105/105/105 106/106/106
f 108/108/108 107/107/107 106/106/106
f 109/109/109 107/107/107 108/108/108
f 110/110/110 109/109/109 108/108/108
f 113/113/113 112/112/112 111/111/111
f 114/114/114 113/113/113 111/111/111
f 115/115/115 113/113/113 114/114/114
f 116/116/116 115/115/115 114/114/114
f 117/117/117 115/115/115 116/116/116
f 118/118/118 117/117/117 116/116/116
f 119/119/119 117/117/117 118/118/118
f 120/120/120 119/119/119 118/118/118
f 123/123/123 122/122/122 121/121/121
f 124/124/124 123/123/123 121/121/121
f 124/124/124 121/121/121 125/125/125
f 126/126/126 124/124/124 125/125/125
f 126/126/126 125/125/125 127/127/127
f 128/128/128 126/126/126 127/127/127
f 128/128/128 127/127/127 129/129/129
f 130/130/130 128/128/128 129/129/129
f 133/133/133 132/132/132 131/131/131
f 134/134/134 133/133/133 131/131/131
f 136/136/136 135/135/135 134/134/134
f 137/137/137 136/136/136 134/134/134
f 139/139/139 138/138/138 137/137/137
f 140/140/140 139/139/139 137/137/137
f 142/142/142 141/141/141 140/140/140
f 143/143/143 142/142/142 140/140/140
f 146/146/146 145/145/145 144/144/144
f 147/147/147 146/146/146 144/144/144
f 150/150/150 149/149/149 148/148/148
f 151/151/151 150/150/150 148/148/148
f 154/154/154 153/153/153 152/152/152
f 155/155/155 154/154/154 152/152/152
f 158/158/158 157/157/157 156/156/156
f 159/159/159 158/158/158 156/156/156
f 162/162/162 161/161/161 160/160/160
f 163/163/163 162/162/162 160/160/160
