g SeparateMesh_NPC_Orlenda_Model_Orlenda_Phone_LOD2
v 0.024170179 0.004987095 0.123748854
v 0.026743459 0.004987094 0.1311807
v 0.021597767 0.004987095 0.13118014
v 0.024170179 0.004987095 0.123748854
v 0.021597767 0.004987095 0.13118014
v 0.019319315 0.0049870955 0.12200114
v 0.028994014 0.0049870936 0.122013986
v 0.026743459 0.004987094 0.1311807
v 0.024170179 0.004987095 0.123748854
v 0.028994014 0.0049870936 0.122013986
v 0.030693565 0.004987093 0.13445944
v 0.026743459 0.004987094 0.1311807
v 0.031580627 0.004987093 0.117588595
v 0.030693565 0.004987093 0.13445944
v 0.028994014 0.0049870936 0.122013986
v 0.019319315 0.0049870955 0.12200114
v 0.021597767 0.004987095 0.13118014
v 0.01763639 0.0049870955 0.13446811
v 0.019319315 0.0049870955 0.12200114
v 0.01763639 0.0049870955 0.13446811
v 0.01674558 0.0049870005 0.11758479
v 0.016745578 0.0049870005 0.13945922
v -0.037707236 0.0049870973 0.14927159
v 0.01763639 0.0049870955 0.13446811
v 0.030693565 0.004987093 0.13445944
v 0.031580627 0.004987093 0.117588595
v 0.031580627 0.004987093 0.13946302
v 0.030693565 0.004987093 0.11258501
v 0.03771117 0.004987098 0.0070522544
v 0.031580627 0.004987093 0.117588595
v 0.01674558 0.0049870005 0.11758479
v -0.037707098 0.004987098 0.0070522544
v 0.017636392 0.0049870955 0.112593666
v -0.037707236 0.0049870973 0.14927159
v 0.01763639 0.0049870955 0.13446811
v -0.037707236 0.0049870973 0.14927159
v -0.037707098 0.004987098 0.0070522544
v 0.01674558 0.0049870005 0.11758479
v 0.024170179 0.004987095 0.1456233
v 0.019319315 0.0049870955 0.14387558
v -0.037707236 0.0049870973 0.14927159
v 0.016745578 0.0049870005 0.13945922
v 0.037709475 0.0049870973 0.14927159
v 0.032796714 0.004987099 0.15394898
v -0.032792643 0.004987099 0.15394898
v 0.031580627 0.004987093 0.13946302
v 0.028994014 0.0049870936 0.14388843
v 0.03771117 0.004987098 0.0070522544
v 0.037709475 0.0049870973 0.14927159
v 0.031580627 0.004987093 0.117588595
v 0.028994014 0.0049870936 0.14388843
v 0.037709475 0.0049870973 0.14927159
v 0.024170179 0.004987095 0.1456233
v 0.031580627 0.004987093 0.13946302
v 0.031580627 0.004987093 0.117588595
v 0.037709475 0.0049870973 0.14927159
v -0.032796707 -0.0049870717 0.00072358904
v 0.03279265 -0.0049870717 0.00072358904
v 0.032796714 0.0049870973 0.0004531962
v -0.032792643 0.0049870973 0.0004531962
v -0.032792643 0.004987099 0.15394898
v 0.032796714 0.004987099 0.15394898
v 0.03279265 -0.0049870694 0.15421934
v -0.032796707 -0.0049870694 0.15421933
v 0.03771117 0.004987098 0.0070522544
v 0.03770711 -0.0049870717 0.0073226457
v 0.037705414 -0.004987071 0.14954199
v 0.037709475 0.0049870973 0.14927159
v -0.037711162 -0.0049870717 0.0073226457
v -0.037707236 0.0049870973 0.14927159
v -0.037711296 -0.004987071 0.14954196
v -0.037707098 0.004987098 0.0070522544
v -0.032792643 0.0049870973 0.0004531962
v -0.032796707 -0.0049870717 0.00072358904
v 0.03771117 0.004987098 0.0070522544
v 0.032796714 0.0049870973 0.0004531962
v 0.03279265 -0.0049870717 0.00072358904
v 0.03770711 -0.0049870717 0.0073226457
v 0.037705414 -0.004987071 0.14954199
v 0.03279265 -0.0049870694 0.15421934
v 0.032796714 0.004987099 0.15394898
v 0.037709475 0.0049870973 0.14927159
v -0.037707236 0.0049870973 0.14927159
v -0.032792643 0.004987099 0.15394898
v -0.032796707 -0.0049870694 0.15421933
v -0.037711296 -0.004987071 0.14954196
v -0.032792643 0.0049870973 0.0004531962
v 0.032796714 0.0049870973 0.0004531962
v 0.03771117 0.004987098 0.0070522544
v -0.037707098 0.004987098 0.0070522544
v 0.021597767 0.004987095 0.1093057
v 0.017636392 0.0049870955 0.112593666
v 0.026743459 0.004987094 0.10930627
v 0.030693565 0.004987093 0.11258501
v 0.03279265 -0.0049870717 0.00072358904
v -0.032796707 -0.0049870717 0.00072358904
v -0.037711162 -0.0049870717 0.0073226457
v 0.03770711 -0.0049870717 0.0073226457
v -0.03155049 -0.004987071 0.03626443
v 0.031924613 -0.0049870834 0.036392927
v -0.037711296 -0.004987071 0.14954196
v -0.0314551 -0.0049870694 0.13871717
v 0.037705414 -0.004987071 0.14954199
v 0.031913415 -0.0049870694 0.13867494
v 0.037705414 -0.004987071 0.14954199
v 0.03770711 -0.0049870717 0.0073226457
v 0.03279265 -0.0049870694 0.15421934
v -0.032796707 -0.0049870694 0.15421933
v 0.029704064 0.0029124294 0.13914068
v 0.029035807 0.00291243 0.13539736
v 0.030693565 0.004987093 0.13445944
v 0.031580627 0.004987093 0.13946302
v 0.02777989 0.0029124303 0.14243253
v 0.029704064 0.0029124294 0.13914068
v 0.028994014 0.0049870936 0.14388843
v 0.029035807 0.00291243 0.13539736
v 0.026087806 0.0029124299 0.13295408
v 0.026743459 0.004987094 0.1311807
v 0.030693565 0.004987093 0.13445944
v 0.026087806 0.0029124299 0.13295408
v 0.021597767 0.004987095 0.13118014
v 0.026743459 0.004987094 0.1311807
v 0.022239465 0.0029124308 0.13295408
v 0.019291466 0.002912432 0.13539736
v 0.01763639 0.0049870955 0.13446811
v 0.021597767 0.004987095 0.13118014
v 0.019291466 0.002912432 0.13539736
v 0.018623209 0.002912432 0.13914068
v 0.016745578 0.0049870005 0.13945922
v 0.01763639 0.0049870955 0.13446811
v 0.018623209 0.002912432 0.13914068
v 0.019319315 0.0049870955 0.14387558
v 0.020547377 0.0029124315 0.14243251
v 0.020547377 0.0029124315 0.14243251
v 0.024170179 0.004987095 0.1456233
v 0.019319315 0.0049870955 0.14387558
v 0.024163634 0.00291243 0.14373255
v 0.02777989 0.0029124303 0.14243253
v 0.028994014 0.0049870936 0.14388843
v 0.024170179 0.004987095 0.1456233
v 0.024163634 0.00291243 0.14373255
v 0.020547377 0.0029124315 0.14243251
v 0.02777989 0.0029124303 0.14243253
v 0.018623209 0.002912432 0.13914068
v 0.029704064 0.0029124294 0.13914068
v 0.029035807 0.00291243 0.13539736
v 0.019291466 0.002912432 0.13539736
v 0.026087806 0.0029124299 0.13295408
v 0.022239465 0.0029124308 0.13295408
v 0.029704064 0.0029124294 0.11726625
v 0.029035807 0.00291243 0.11352292
v 0.030693565 0.004987093 0.11258501
v 0.031580627 0.004987093 0.117588595
v 0.02777989 0.0029124303 0.12055809
v 0.029704064 0.0029124294 0.11726625
v 0.028994014 0.0049870936 0.122013986
v 0.029035807 0.00291243 0.11352292
v 0.026087806 0.0029124299 0.11107963
v 0.026743459 0.004987094 0.10930627
v 0.030693565 0.004987093 0.11258501
v 0.026087806 0.0029124299 0.11107963
v 0.021597767 0.004987095 0.1093057
v 0.026743459 0.004987094 0.10930627
v 0.022239465 0.0029124308 0.11107963
v 0.019291466 0.002912432 0.11352292
v 0.017636392 0.0049870955 0.112593666
v 0.021597767 0.004987095 0.1093057
v 0.019291466 0.002912432 0.11352292
v 0.018623209 0.002912432 0.117266245
v 0.01674558 0.0049870005 0.11758479
v 0.017636392 0.0049870955 0.112593666
v 0.018623209 0.002912432 0.117266245
v 0.019319315 0.0049870955 0.12200114
v 0.020547377 0.0029124313 0.12055809
v 0.020547377 0.0029124313 0.12055809
v 0.024170179 0.004987095 0.123748854
v 0.019319315 0.0049870955 0.12200114
v 0.024163634 0.00291243 0.12185812
v 0.02777989 0.0029124303 0.12055809
v 0.028994014 0.0049870936 0.122013986
v 0.024170179 0.004987095 0.123748854
v 0.024163634 0.00291243 0.12185812
v 0.020547377 0.0029124313 0.12055809
v 0.02777989 0.0029124303 0.12055809
v 0.018623209 0.002912432 0.117266245
v 0.029704064 0.0029124294 0.11726625
v 0.029035807 0.00291243 0.11352292
v 0.019291466 0.002912432 0.11352292
v 0.026087806 0.0029124299 0.11107963
v 0.022239465 0.0029124308 0.11107963
v 0.031924613 -0.0049870834 0.036392927
v -0.03155049 -0.004987071 0.03626443
v -0.0314551 -0.0049870694 0.13871717
v 0.031913415 -0.0049870694 0.13867494
v 0.015005567 0.0046329824 0.14609809
v 0.015005567 0.0046329824 0.13025343
v 0.033322297 0.0046329782 0.13025343
v 0.033322264 0.0046329782 0.14609809
v 0.015249517 0.0046329834 0.12422365
v 0.015249517 0.0046329834 0.108379
v 0.03307861 0.004632977 0.108379
v 0.033078585 0.004632977 0.12422365
vt 0.5218355 0.8375765
vt 0.509512 0.872314
vt 0.5341549 0.87231135
vt 0.5218355 0.8375765
vt 0.5341549 0.87231135
vt 0.5450666 0.82920665
vt 0.49873403 0.8292681
vt 0.509512 0.872314
vt 0.5218355 0.8375765
vt 0.49873403 0.8292681
vt 0.49059483 0.888016
vt 0.509512 0.872314
vt 0.48634663 0.8087063
vt 0.49059483 0.888016
vt 0.49873403 0.8292681
vt 0.5450666 0.82920665
vt 0.5341549 0.87231135
vt 0.5531261 0.8880575
vt 0.5450666 0.82920665
vt 0.5531261 0.8880575
vt 0.55739224 0.80868804
vt 0.55752826 0.9119601
vt 0.8475592 0.95985806
vt 0.5531261 0.8880575
vt 0.49059483 0.888016
vt 0.48634663 0.8087063
vt 0.48634663 0.91197836
vt 0.49059483 0.7846176
vt 0.44835752 0.2787122
vt 0.48634663 0.8087063
vt 0.55739224 0.80868804
vt 0.84878117 0.2787122
vt 0.55312604 0.78465915
vt 0.8475592 0.95985806
vt 0.5531261 0.8880575
vt 0.8475592 0.95985806
vt 0.84878117 0.2787122
vt 0.55739224 0.80868804
vt 0.52082497 0.94223785
vt 0.54418236 0.9334891
vt 0.8475592 0.95985806
vt 0.55752826 0.9119601
vt 0.44856006 0.95980084
vt 0.4730429 0.98220587
vt 0.8230852 0.98220587
vt 0.48634663 0.91197836
vt 0.49873403 0.93355066
vt 0.44835752 0.2787122
vt 0.44856006 0.95980084
vt 0.48634663 0.8087063
vt 0.49873403 0.93355066
vt 0.44856006 0.95980084
vt 0.52082497 0.94223785
vt 0.48634663 0.91197836
vt 0.48634663 0.8087063
vt 0.44856006 0.95980084
vt 0.4333764 0.10936826
vt 0.760131 0.10936826
vt 0.760131 0.008108199
vt 0.4333764 0.008108199
vt 0.38408142 0.009569973
vt 0.065495804 0.0095689595
vt 0.06549581 0.10829732
vt 0.38408142 0.10829845
vt 0.09449096 0.12739392
vt 0.09449096 0.22797632
vt 0.7293361 0.22806033
vt 0.7293352 0.12739044
vt 0.9797341 0.31807554
vt 0.87924457 0.9528668
vt 0.97973764 0.9528657
vt 0.8791519 0.31807554
vt 0.8791519 0.2679868
vt 0.9797341 0.2679868
vt 0.09449096 0.12739392
vt 0.044402063 0.12739392
vt 0.044402063 0.22797632
vt 0.09449096 0.22797632
vt 0.0395611 0.1082897
vt 0.06549581 0.10829732
vt 0.065495804 0.0095689595
vt 0.039563134 0.009787605
vt 0.41000667 0.009577659
vt 0.38408142 0.009569973
vt 0.38408142 0.10829845
vt 0.41000494 0.10852549
vt 0.8240957 0.2471091
vt 0.4730429 0.2471091
vt 0.44835752 0.2787122
vt 0.84878117 0.2787122
vt 0.5341549 0.7689129
vt 0.55312604 0.78465915
vt 0.509512 0.76891565
vt 0.49059483 0.7846176
vt 0.3921799 0.24726748
vt 0.046069454 0.24726748
vt 0.021075547 0.28121126
vt 0.4190523 0.28121126
vt 0.051454082 0.4190446
vt 0.38899857 0.41981006
vt 0.021633212 0.95870984
vt 0.05640973 0.90710443
vt 0.41954482 0.9584692
vt 0.38824397 0.90638804
vt 0.41954482 0.9584692
vt 0.4190523 0.28121126
vt 0.3940579 0.98292154
vt 0.047947455 0.98292154
vt 0.13303354 0.58380044
vt 0.13303354 0.5417609
vt 0.09241012 0.5417609
vt 0.09241012 0.58380044
vt 0.13303354 0.62564665
vt 0.13303354 0.58380044
vt 0.09241012 0.62564665
vt 0.13303354 0.5417609
vt 0.13303354 0.4994115
vt 0.09241012 0.4994115
vt 0.09241012 0.5417609
vt 0.13303354 0.86354345
vt 0.09241012 0.8351971
vt 0.09241012 0.86354345
vt 0.13303354 0.8351971
vt 0.13303354 0.7933234
vt 0.09241012 0.7933234
vt 0.09241012 0.8351971
vt 0.13303354 0.7933234
vt 0.13303354 0.75141096
vt 0.09241012 0.75141096
vt 0.09241012 0.7933234
vt 0.13303354 0.75141096
vt 0.09241012 0.70950866
vt 0.13303354 0.70950866
vt 0.13303354 0.70950866
vt 0.09241012 0.66757905
vt 0.09241012 0.70950866
vt 0.13303354 0.66757905
vt 0.13303354 0.62564665
vt 0.09241012 0.62564665
vt 0.09241012 0.66757905
vt 0.2533674 0.7818737
vt 0.31734446 0.7584098
vt 0.18927619 0.75872386
vt 0.35127136 0.6993116
vt 0.15505943 0.699793
vt 0.16672757 0.63265556
vt 0.33927345 0.6322324
vt 0.2188213 0.5887257
vt 0.286965 0.5885587
vt 0.13303354 0.58380044
vt 0.13303354 0.5417609
vt 0.09241012 0.5417609
vt 0.09241012 0.58380044
vt 0.13303354 0.62564665
vt 0.13303354 0.58380044
vt 0.09241012 0.62564665
vt 0.13303354 0.5417609
vt 0.13303354 0.4994115
vt 0.09241012 0.4994115
vt 0.09241012 0.5417609
vt 0.13303354 0.86354345
vt 0.09241012 0.8351971
vt 0.09241012 0.86354345
vt 0.13303354 0.8351971
vt 0.13303354 0.7933234
vt 0.09241012 0.7933234
vt 0.09241012 0.8351971
vt 0.13303354 0.7933234
vt 0.13303354 0.75141096
vt 0.09241012 0.75141096
vt 0.09241012 0.7933234
vt 0.13303354 0.75141096
vt 0.09241012 0.70950866
vt 0.13303354 0.70950866
vt 0.13303354 0.70950866
vt 0.09241012 0.66757905
vt 0.09241012 0.70950866
vt 0.13303354 0.66757905
vt 0.13303354 0.62564665
vt 0.09241012 0.62564665
vt 0.09241012 0.66757905
vt 0.2533674 0.7818737
vt 0.31734446 0.7584098
vt 0.18927619 0.75872386
vt 0.35127136 0.6993116
vt 0.15505943 0.699793
vt 0.16672757 0.63265556
vt 0.33927345 0.6322324
vt 0.2188213 0.5887257
vt 0.286965 0.5885587
vt 0.9655789 0.020098614
vt 0.031360246 0.020098614
vt 0.031360064 0.9749675
vt 0.9655788 0.9749676
vt 0.90447825 0.21113145
vt 0.90401375 0.0218541
vt 0.8706391 0.021935865
vt 0.87110364 0.21121314
vt 0.90447825 0.21113145
vt 0.90401375 0.0218541
vt 0.8706391 0.021935865
vt 0.87110364 0.21121314
vn 1.6662162E-07 1 0
vn 2.3003668E-07 1 0
vn 1.4309113E-07 1 0
vn 1.6662162E-07 1 0
vn 1.4309113E-07 1 0
vn -1.9328323E-05 1 -2.6032444E-06
vn 2.5536212E-07 1 0
vn 2.3003668E-07 1 0
vn 1.6662162E-07 1 0
vn 2.5536212E-07 1 0
vn -0 1 0
vn 2.3003668E-07 1 0
vn -5.4231367E-07 1 0
vn -0 1 0
vn 2.5536212E-07 1 0
vn -1.9328323E-05 1 -2.6032444E-06
vn 1.4309113E-07 1 0
vn -5.1156235E-07 1 3.1337247E-06
vn -1.9328323E-05 1 -2.6032444E-06
vn -5.1156235E-07 1 3.1337247E-06
vn -7.823352E-06 1 2.6320356E-07
vn 1.7470177E-06 1 -1.7605446E-07
vn 7.560133E-07 1 -7.913697E-07
vn -5.1156235E-07 1 3.1337247E-06
vn -0 1 0
vn -5.4231367E-07 1 0
vn -5.251907E-07 1 0
vn -0 1 0
vn -0 1 0
vn -5.4231367E-07 1 0
vn -7.823352E-06 1 2.6320356E-07
vn -0 1 1.3927682E-07
vn -1.7440409E-05 1 9.1679385E-06
vn 7.560133E-07 1 -7.913697E-07
vn -5.1156235E-07 1 3.1337247E-06
vn 7.560133E-07 1 -7.913697E-07
vn -0 1 1.3927682E-07
vn -7.823352E-06 1 2.6320356E-07
vn -0 1 -5.6630756E-07
vn -5.277355E-07 1 -5.908625E-06
vn 7.560133E-07 1 -7.913697E-07
vn 1.7470177E-06 1 -1.7605446E-07
vn -2.1150925E-07 1 -3.3604584E-07
vn -0 1 -3.8229575E-07
vn -0 1 -3.8229575E-07
vn -5.251907E-07 1 0
vn -0 1 -5.0750987E-07
vn -0 1 0
vn -2.1150925E-07 1 -3.3604584E-07
vn -5.4231367E-07 1 0
vn -0 1 -5.0750987E-07
vn -2.1150925E-07 1 -3.3604584E-07
vn -0 1 -5.6630756E-07
vn -5.251907E-07 1 0
vn -5.4231367E-07 1 0
vn -2.1150925E-07 1 -3.3604584E-07
vn -0 -0.027099349 -0.9996327
vn -0 -0.027099352 -0.9996327
vn -0 -0.027099349 -0.9996327
vn -0 -0.027099352 -0.9996327
vn -0.37325513 0.02529011 0.92738396
vn 0.37351224 0.024984192 0.9272887
vn 0.36893004 0.02503569 0.92911994
vn -0.369007 0.025334394 0.92908126
vn 0.9475593 -0.009045986 -0.31945184
vn 0.9507874 -0.008783464 -0.30971947
vn 1 -0.00040687455 1.1927691E-05
vn 1 -0.00040687452 1.1927692E-05
vn -0.9508071 -0.008007965 -0.30967978
vn -1 0.0004071718 -9.639385E-07
vn -1 0.0004071718 -9.639385E-07
vn -0.9475469 -0.008275768 -0.31950948
vn -0.80192685 -0.01586331 -0.59721154
vn -0.80192685 -0.01586331 -0.5972116
vn 0.9475593 -0.009045986 -0.31945184
vn 0.8019182 -0.016516415 -0.59720546
vn 0.8019182 -0.016516415 -0.59720546
vn 0.9507874 -0.008783464 -0.30971947
vn 0.68941367 0.019348511 0.7241093
vn 0.36893004 0.02503569 0.92911994
vn 0.37351224 0.024984192 0.9272887
vn 0.68941367 0.019348511 0.7241093
vn -0.68927133 0.019911794 0.7242296
vn -0.37325513 0.02529011 0.92738396
vn -0.369007 0.025334394 0.92908126
vn -0.68927133 0.019911794 0.7242296
vn -0 1 0
vn -0 1 0
vn -0 1 0
vn -0 1 1.3927682E-07
vn -0 1 0
vn -1.7440409E-05 1 9.1679385E-06
vn 1.4411734E-07 1 0
vn -0 1 0
vn -0 -1 0
vn -0 -1 0
vn -0 -1 -1.0228448E-07
vn -0 -1 0
vn -0 -1 0
vn 4.277285E-07 -1 0
vn -0 -1 0
vn -0 -1 0
vn 2.1381192E-07 -1 0
vn 4.0511216E-07 -1 0
vn 2.1381192E-07 -1 0
vn -0 -1 0
vn -0 -1 3.1858045E-07
vn -0 -1 3.1858045E-07
vn -0.72490513 0.6764244 -0.13024071
vn -0.6359213 0.67615014 0.37205535
vn -0.63732845 0.6761633 0.36961553
vn -0.72515774 0.6764305 -0.12879421
vn -0.4717315 0.6745754 -0.56781805
vn -0.72490513 0.6764244 -0.13024071
vn -0.47200713 0.6745756 -0.5675888
vn -0.6359213 0.67615014 0.37205535
vn -0.24991679 0.67341864 0.6957362
vn -0.25158644 0.6734245 0.69512856
vn -0.63732845 0.6761633 0.36961553
vn -0.24991679 0.67341864 0.6957362
vn 0.2512164 0.67255586 0.6961027
vn -0.25158644 0.6734245 0.69512856
vn 0.2510267 0.6725558 0.6961711
vn 0.6363419 0.67510724 0.3732278
vn 0.6381533 0.67513466 0.37007234
vn 0.2512164 0.67255586 0.6961027
vn 0.6363419 0.67510724 0.3732278
vn 0.7248763 0.6765396 -0.12980242
vn 0.7251833 0.6765448 -0.12804818
vn 0.6381533 0.67513466 0.37007234
vn 0.7248763 0.6765396 -0.12980242
vn 0.47320887 0.67423886 -0.56698793
vn 0.47128543 0.6742289 -0.5685994
vn 0.47128543 0.6742289 -0.5685994
vn -0.00017585713 0.6733957 -0.73928213
vn 0.47320887 0.67423886 -0.56698793
vn 0.00064088526 0.67339385 -0.7392837
vn -0.4717315 0.6745754 -0.56781805
vn -0.47200713 0.6745756 -0.5675888
vn -0.00017585713 0.6733957 -0.73928213
vn 1.6482325E-07 1 6.877277E-07
vn 1.9098292E-07 1 0
vn 1.909829E-07 1 0
vn 1.9818259E-07 1 0
vn 1.9818258E-07 1 0
vn 1.9949245E-07 1 0
vn 1.9949245E-07 1 0
vn 1.9732744E-07 1 -3.0494115E-07
vn 1.9732744E-07 1 -3.0494115E-07
vn -0.72490513 0.6764243 -0.13024126
vn -0.6359216 0.67614967 0.37205565
vn -0.6373293 0.6761628 0.36961508
vn -0.72515774 0.6764305 -0.12879461
vn -0.47173125 0.6745753 -0.5678185
vn -0.72490513 0.6764243 -0.13024126
vn -0.47200695 0.67457557 -0.56758904
vn -0.6359216 0.67614967 0.37205565
vn -0.24991736 0.6734183 0.6957364
vn -0.25158688 0.6734242 0.69512874
vn -0.6373293 0.6761628 0.36961508
vn -0.24991736 0.6734183 0.6957364
vn 0.25121644 0.67255586 0.6961027
vn -0.25158688 0.6734242 0.69512874
vn 0.25102672 0.67255586 0.69617105
vn 0.6363422 0.67510706 0.37322775
vn 0.63815343 0.67513454 0.3700724
vn 0.25121644 0.67255586 0.6961027
vn 0.6363422 0.67510706 0.37322775
vn 0.72487676 0.676539 -0.12980224
vn 0.7251839 0.6765442 -0.12804814
vn 0.63815343 0.67513454 0.3700724
vn 0.72487676 0.676539 -0.12980224
vn 0.47320953 0.6742381 -0.5669883
vn 0.47128552 0.67422825 -0.56860024
vn 0.47128552 0.67422825 -0.56860024
vn -0.00017606415 0.67339516 -0.73928267
vn 0.47320953 0.6742381 -0.5669883
vn 0.0006405771 0.67339325 -0.7392842
vn -0.47173125 0.6745753 -0.5678185
vn -0.47200695 0.67457557 -0.56758904
vn -0.00017606415 0.67339516 -0.73928267
vn 1.2361811E-07 1 5.731084E-07
vn 1.7119014E-07 1 0
vn 1.7119014E-07 1 0
vn 1.9122258E-07 1 0
vn 1.9122258E-07 1 0
vn 1.994924E-07 1 0
vn 1.9949242E-07 1 0
vn 1.9732744E-07 1 -3.0494115E-07
vn 1.9732744E-07 1 -3.0494115E-07
vn 4.277285E-07 -1 0
vn -0 -1 0
vn -0 -1 0
vn 4.0511216E-07 -1 0
vn 2.2778788E-07 1 0
vn 2.2778788E-07 1 0
vn 2.277879E-07 1 0
vn 2.277879E-07 1 0
vn 3.6774247E-07 1 0
vn 3.6774247E-07 1 0
vn 3.677425E-07 1 0
vn 3.6774253E-07 1 0
g SeparateMesh_NPC_Orlenda_Model_Orlenda_Phone_LOD2_0
f 3/3/3 2/2/2 1/1/1
f 6/6/6 5/5/5 4/4/4
f 9/9/9 8/8/8 7/7/7
f 12/12/12 11/11/11 10/10/10
f 15/15/15 14/14/14 13/13/13
f 18/18/18 17/17/17 16/16/16
f 21/21/21 20/20/20 19/19/19
f 24/24/24 23/23/23 22/22/22
f 27/27/27 26/26/26 25/25/25
f 30/30/30 29/29/29 28/28/28
f 33/33/33 32/32/32 31/31/31
f 35/35/35 31/31/31 34/34/34
f 38/38/38 37/37/37 36/36/36
f 40/40/40 36/36/36 39/39/39
f 42/42/42 41/41/41 40/40/40
f 39/39/39 41/41/41 43/43/43
f 43/43/43 41/41/41 44/44/44
f 41/41/41 45/45/45 44/44/44
f 47/47/47 43/43/43 46/46/46
f 50/50/50 49/49/49 48/48/48
f 53/53/53 52/52/52 51/51/51
f 56/56/56 55/55/55 54/54/54
f 59/59/59 58/58/58 57/57/57
f 60/60/60 59/59/59 57/57/57
f 63/63/63 62/62/62 61/61/61
f 64/64/64 63/63/63 61/61/61
f 67/67/67 66/66/66 65/65/65
f 68/68/68 67/67/67 65/65/65
f 71/71/71 70/70/70 69/69/69
f 70/70/70 72/72/72 69/69/69
f 72/72/72 73/73/73 69/69/69
f 73/73/73 74/74/74 69/69/69
f 77/77/77 76/76/76 75/75/75
f 78/78/78 77/77/77 75/75/75
f 81/81/81 80/80/80 79/79/79
f 82/82/82 81/81/81 79/79/79
f 85/85/85 84/84/84 83/83/83
f 86/86/86 85/85/85 83/83/83
f 89/89/89 88/88/88 87/87/87
f 90/90/90 89/89/89 87/87/87
f 89/89/89 90/90/90 91/91/91
f 91/91/91 90/90/90 92/92/92
f 93/93/93 89/89/89 91/91/91
f 94/94/94 89/89/89 93/93/93
f 97/97/97 96/96/96 95/95/95
f 98/98/98 97/97/97 95/95/95
f 97/97/97 98/98/98 99/99/99
f 98/98/98 100/100/100 99/99/99
f 101/101/101 97/97/97 99/99/99
f 102/102/102 101/101/101 99/99/99
f 101/101/101 102/102/102 103/103/103
f 102/102/102 104/104/104 103/103/103
f 104/104/104 100/100/100 105/105/105
f 100/100/100 106/106/106 105/105/105
f 101/101/101 103/103/103 107/107/107
f 108/108/108 101/101/101 107/107/107
f 111/111/111 110/110/110 109/109/109
f 112/112/112 111/111/111 109/109/109
f 112/112/112 114/114/114 113/113/113
f 115/115/115 112/112/112 113/113/113
f 118/118/118 117/117/117 116/116/116
f 119/119/119 118/118/118 116/116/116
f 122/122/122 121/121/121 120/120/120
f 121/121/121 123/123/123 120/120/120
f 125/125/125 124/124/124 123/123/123
f 126/126/126 125/125/125 123/123/123
f 129/129/129 128/128/128 127/127/127
f 130/130/130 129/129/129 127/127/127
f 129/129/129 132/132/132 131/131/131
f 132/132/132 133/133/133 131/131/131
f 136/136/136 135/135/135 134/134/134
f 135/135/135 137/137/137 134/134/134
f 139/139/139 138/138/138 137/137/137
f 140/140/140 139/139/139 137/137/137
f 143/143/143 142/142/142 141/141/141
f 142/142/142 143/143/143 144/144/144
f 143/143/143 145/145/145 144/144/144
f 144/144/144 145/145/145 146/146/146
f 147/147/147 144/144/144 146/146/146
f 147/147/147 146/146/146 148/148/148
f 149/149/149 147/147/147 148/148/148
f 152/152/152 151/151/151 150/150/150
f 153/153/153 152/152/152 150/150/150
f 153/153/153 155/155/155 154/154/154
f 156/156/156 153/153/153 154/154/154
f 159/159/159 158/158/158 157/157/157
f 160/160/160 159/159/159 157/157/157
f 163/163/163 162/162/162 161/161/161
f 162/162/162 164/164/164 161/161/161
f 166/166/166 165/165/165 164/164/164
f 167/167/167 166/166/166 164/164/164
f 170/170/170 169/169/169 168/168/168
f 171/171/171 170/170/170 168/168/168
f 170/170/170 173/173/173 172/172/172
f 173/173/173 174/174/174 172/172/172
f 177/177/177 176/176/176 175/175/175
f 176/176/176 178/178/178 175/175/175
f 180/180/180 179/179/179 178/178/178
f 181/181/181 180/180/180 178/178/178
f 184/184/184 183/183/183 182/182/182
f 183/183/183 184/184/184 185/185/185
f 184/184/184 186/186/186 185/185/185
f 185/185/185 186/186/186 187/187/187
f 188/188/188 185/185/185 187/187/187
f 188/188/188 187/187/187 189/189/189
f 190/190/190 188/188/188 189/189/189
g SeparateMesh_NPC_Orlenda_Model_Orlenda_Phone_LOD2_1
f 193/193/193 192/192/192 191/191/191
f 194/194/194 193/193/193 191/191/191
g SeparateMesh_NPC_Orlenda_Model_Orlenda_Phone_LOD2_2
f 197/197/197 196/196/196 195/195/195
f 198/198/198 197/197/197 195/195/195
f 201/201/201 200/200/200 199/199/199
f 202/202/202 201/201/201 199/199/199
