g Tape_01
v 0.3612966 -1.0387714 -1.3848636
v 0.3612966 -1.4484068 -2.4822447
v 0.36129656 -1.4484065 -1.7384611
v 0.3612966 -1.0387714 -1.3848636
v 0.3612966 -1.0292208 -1.3738987
v 0.36129695 1.5480795 -2.4824584
v 0.3612966 -1.0230418 -1.3604023
v 0.3612966 -1.0209821 -1.346008
v 0.3612966 -1.0209819 -0.8395778
v 0.36129677 1.5480794 2.5119472
v 0.3612966 -1.0226169 -0.82466
v 0.3612966 -1.0275216 -0.8102848
v 0.36129642 -1.4484059 2.5119276
v 0.36129653 -1.0353462 -0.7974789
v 0.36129653 -1.0353462 -0.7974789
v 0.3612965 -1.4484065 -0.26264757
v 0.36129695 1.5480795 -2.4824584
v -0.36124244 1.5480858 -2.4825342
v -0.3612426 -1.4484067 -2.4824584
v 0.3612966 -1.4484068 -2.4822447
v 0.36129642 -1.4484059 2.5119276
v -0.36124292 -1.448406 2.5119333
v -0.36124274 1.5480791 2.5119476
v 0.36129677 1.5480794 2.5119472
v 0.36129642 -1.4484059 2.5119276
v 0.33873263 -1.4484068 2.492176
v -0.33952537 -1.4484057 2.492176
v -0.36124292 -1.448406 2.5119333
v 0.33873314 -1.0388248 -1.3750746
v 0.3612966 -1.0387714 -1.3848636
v 0.36129656 -1.4484065 -1.7384611
v 0.33873302 -1.4484065 -1.7261409
v -0.3612426 -1.4484067 -2.4824584
v -0.33952498 -1.4484063 -2.4640415
v 0.33873305 -1.4484065 -2.4640415
v 0.3612966 -1.4484068 -2.4822447
v 0.33873287 1.2743131 2.4919746
v -0.33952513 1.274313 2.4919746
v -0.33952537 -1.4484057 2.492176
v 0.33873263 -1.4484068 2.492176
v -0.33952484 1.2743176 -2.46384
v 0.3387333 1.2743174 -2.4638398
v 0.33873305 -1.4484065 -2.4640415
v -0.33952498 -1.4484063 -2.4640415
v 0.36129677 1.5480794 2.5119472
v -0.36124274 1.5480791 2.5119476
v -0.36124244 1.5480858 -2.4825342
v 0.36129695 1.5480795 -2.4824584
v 0.36129653 -1.0353462 -0.7974789
v 0.33873305 -1.0354093 -0.8078454
v 0.33873278 -1.4484068 -0.2768554
v 0.3612965 -1.4484065 -0.26264757
v 0.3612966 -1.0209821 -1.346008
v 0.33873314 -1.0209817 -1.3362808
v 0.33873305 -1.0209817 -0.84989524
v 0.3612966 -1.0209819 -0.8395778
v 0.3387333 1.2743174 -2.4638398
v -0.33952484 1.2743176 -2.46384
v -0.33952513 1.274313 2.4919746
v 0.33873287 1.2743131 2.4919746
v 0.36129642 -1.4484059 2.5119276
v 0.3612965 -1.4484065 -0.26264757
v 0.33873278 -1.4484068 -0.2768554
v 0.33873263 -1.4484068 2.492176
v 0.33873305 -1.4484065 -2.4640415
v 0.33873302 -1.4484065 -1.7261409
v 0.36129656 -1.4484065 -1.7384611
v 0.3612966 -1.4484068 -2.4822447
v 0.3387333 1.2743174 -2.4638398
v 0.33873302 -1.4484065 -1.7261409
v 0.33873305 -1.4484065 -2.4640415
v 0.33873314 -1.0388248 -1.3750746
v 0.33873314 -1.0292482 -1.3641442
v 0.33873314 -1.0230488 -1.350665
v 0.33873314 -1.0209817 -1.3362808
v 0.33873287 1.2743131 2.4919746
v 0.33873305 -1.0209817 -0.84989524
v 0.33873305 -1.0226241 -0.8349852
v 0.33873305 -1.0275522 -0.8206231
v 0.33873305 -1.0354093 -0.8078454
v 0.33873278 -1.4484068 -0.2768554
v 0.33873263 -1.4484068 2.492176
v 0.3612966 -1.0292208 -1.3738987
v 0.3612966 -1.0387714 -1.3848636
v 0.33873314 -1.0388248 -1.3750746
v 0.33873314 -1.0292482 -1.3641442
v 0.3612966 -1.0226169 -0.82466
v 0.3612966 -1.0209819 -0.8395778
v 0.33873305 -1.0209817 -0.84989524
v 0.33873305 -1.0226241 -0.8349852
v 0.3612966 -1.0230418 -1.3604023
v 0.3612966 -1.0292208 -1.3738987
v 0.33873314 -1.0292482 -1.3641442
v 0.33873314 -1.0230488 -1.350665
v 0.3612966 -1.0209821 -1.346008
v 0.3612966 -1.0230418 -1.3604023
v 0.33873314 -1.0230488 -1.350665
v 0.33873314 -1.0209817 -1.3362808
v 0.3612966 -1.0275216 -0.8102848
v 0.3612966 -1.0226169 -0.82466
v 0.33873305 -1.0226241 -0.8349852
v 0.33873305 -1.0275522 -0.8206231
v 0.36129653 -1.0353462 -0.7974789
v 0.3612966 -1.0275216 -0.8102848
v 0.33873305 -1.0275522 -0.8206231
v 0.33873305 -1.0354093 -0.8078454
v -0.33952537 -1.4484057 2.492176
v -0.33952522 -1.0354098 -0.7973935
v -0.33952522 -1.4484062 -0.26640373
v -0.33952513 1.274313 2.4919746
v -0.33952513 -1.0275526 -0.810171
v -0.33952516 -1.0226246 -0.82453316
v -0.33952516 -1.020982 -0.8394432
v -0.33952484 1.2743176 -2.46384
v -0.33952513 -1.0209819 -1.3362808
v -0.33952513 -1.0230486 -1.350665
v -0.33952513 -1.0292481 -1.3641442
v -0.33952498 -1.4484063 -2.4640415
v -0.33952513 -1.0388247 -1.3750746
v -0.33952513 -1.4484062 -1.7261407
v -0.3612427 -1.0353464 -0.80793095
v -0.36124292 -1.448406 2.5119333
v -0.36124268 -1.4484065 -0.27309936
v -0.36124274 1.5480791 2.5119476
v -0.3612427 -1.0353464 -0.80793095
v -0.36124268 -1.0275218 -0.8207368
v -0.36124274 1.5480791 2.5119476
v -0.36124268 -1.022617 -0.83511204
v -0.36124268 -1.020982 -0.8500298
v -0.36124244 1.5480858 -2.4825342
v -0.36124262 -1.0209821 -1.3460081
v -0.36124262 -1.0230417 -1.3604023
v -0.3612426 -1.0292206 -1.3738987
v -0.3612426 -1.0387713 -1.3848637
v -0.3612426 -1.4484067 -2.4824584
v -0.3612426 -1.0387713 -1.3848637
v -0.3612426 -1.4484065 -1.738461
v -0.33952513 -1.4484062 -1.7261407
v -0.3612426 -1.4484065 -1.738461
v -0.3612426 -1.0387713 -1.3848637
v -0.33952513 -1.0388247 -1.3750746
v -0.33952537 -1.4484057 2.492176
v -0.33952522 -1.4484062 -0.26640373
v -0.36124268 -1.4484065 -0.27309936
v -0.36124292 -1.448406 2.5119333
v -0.3612426 -1.4484067 -2.4824584
v -0.3612426 -1.4484065 -1.738461
v -0.33952513 -1.4484062 -1.7261407
v -0.33952498 -1.4484063 -2.4640415
v -0.33952522 -1.0354098 -0.7973935
v -0.3612427 -1.0353464 -0.80793095
v -0.36124268 -1.4484065 -0.27309936
v -0.33952522 -1.4484062 -0.26640373
v -0.33952513 -1.0209819 -1.3362808
v -0.36124262 -1.0209821 -1.3460081
v -0.36124268 -1.020982 -0.8500298
v -0.33952516 -1.020982 -0.8394432
v -0.33952513 -1.0388247 -1.3750746
v -0.3612426 -1.0387713 -1.3848637
v -0.3612426 -1.0292206 -1.3738987
v -0.33952513 -1.0292481 -1.3641442
v -0.33952516 -1.020982 -0.8394432
v -0.36124268 -1.020982 -0.8500298
v -0.36124268 -1.022617 -0.83511204
v -0.33952516 -1.0226246 -0.82453316
v -0.33952513 -1.0292481 -1.3641442
v -0.3612426 -1.0292206 -1.3738987
v -0.36124262 -1.0230417 -1.3604023
v -0.33952513 -1.0230486 -1.350665
v -0.33952513 -1.0209819 -1.3362808
v -0.33952513 -1.0230486 -1.350665
v -0.36124262 -1.0230417 -1.3604023
v -0.36124262 -1.0209821 -1.3460081
v -0.33952516 -1.0226246 -0.82453316
v -0.36124268 -1.022617 -0.83511204
v -0.36124268 -1.0275218 -0.8207368
v -0.33952513 -1.0275526 -0.810171
v -0.33952522 -1.0354098 -0.7973935
v -0.33952513 -1.0275526 -0.810171
v -0.36124268 -1.0275218 -0.8207368
v -0.3612427 -1.0353464 -0.80793095
vt 0.09877898 0.22920482
vt 0.018330619 0.013271598
vt 0.018330619 0.15953827
vt 0.09877898 0.22920482
vt 0.10070692 0.23157233
vt 0.6084776 0.013326
vt 0.10199259 0.23432761
vt 0.102561265 0.23727377
vt 0.102561265 0.33717242
vt 0.60849375 0.9974127
vt 0.1020941 0.3401983
vt 0.10107897 0.34310752
vt 0.018330619 0.99746454
vt 0.09952037 0.34580177
vt 0.09952037 0.34580177
vt 0.018330619 0.45110792
vt 0.67942494 0.37018725
vt 0.76353014 0.37017566
vt 0.76352966 0.021389619
vt 0.6794244 0.02137716
vt 0.6794655 0.7383111
vt 0.7635708 0.7383111
vt 0.76357013 0.38951167
vt 0.6794649 0.38951474
vt 0.6794655 0.7383111
vt 0.6820919 0.7406105
vt 0.7610427 0.74061114
vt 0.7635708 0.7383111
vt 0.0961391 0.23318413
vt 0.09877898 0.22920482
vt 0.018330619 0.15953827
vt 0.014572977 0.16305603
vt 0.76352966 0.021389619
vt 0.76100165 0.019251889
vt 0.68205076 0.01925187
vt 0.6794244 0.02137716
vt 0.9585757 0.23932177
vt 0.90930545 0.23932117
vt 0.90930533 0.041536573
vt 0.9585757 0.041536473
vt 0.90930533 0.2393224
vt 0.9585757 0.23932177
vt 0.9585757 0.04153654
vt 0.90930533 0.04153654
vt 0.791666 0.6020939
vt 0.8757712 0.60209084
vt 0.8757314 0.02072315
vt 0.79162604 0.020728786
vt 0.09952037 0.34580177
vt 0.096456915 0.34207392
vt 0.014572977 0.4473988
vt 0.018330619 0.45110792
vt 0.102561265 0.23727377
vt 0.098397374 0.2396033
vt 0.098397374 0.33483192
vt 0.102561265 0.33717242
vt 0.9585757 0.23932177
vt 0.90930533 0.2393224
vt 0.9093148 0.5993255
vt 0.95858514 0.5993249
vt 0.018330619 0.99746454
vt 0.018330619 0.45110792
vt 0.014572977 0.4473988
vt 0.014572977 0.99338293
vt 0.014572977 0.017079487
vt 0.014572977 0.16305603
vt 0.018330619 0.15953827
vt 0.018330619 0.013271598
vt 0.79384434 0.6421572
vt 0.98428667 0.6937554
vt 0.98428667 0.64214265
vt 0.9556382 0.71831095
vt 0.95496786 0.71907544
vt 0.95453405 0.7200185
vt 0.95438945 0.72102547
vt 0.793844 0.98879695
vt 0.9543891 0.7550473
vt 0.9545039 0.7560915
vt 0.95484877 0.7570965
vt 0.9553987 0.75799036
vt 0.9842862 0.7951307
vt 0.9842862 0.98881185
vt 0.10070692 0.23157233
vt 0.09877898 0.22920482
vt 0.0961391 0.23318413
vt 0.09747228 0.23516843
vt 0.1020941 0.3401983
vt 0.102561265 0.33717242
vt 0.098397374 0.33483192
vt 0.098177284 0.33727106
vt 0.10199259 0.23432761
vt 0.10070692 0.23157233
vt 0.09747228 0.23516843
vt 0.09823835 0.2373798
vt 0.102561265 0.23727377
vt 0.10199259 0.23432761
vt 0.09823835 0.2373798
vt 0.098397374 0.2396033
vt 0.10107897 0.34310752
vt 0.1020941 0.3401983
vt 0.098177284 0.33727106
vt 0.09754978 0.33972654
vt 0.09952037 0.34580177
vt 0.10107897 0.34310752
vt 0.09754978 0.33972654
vt 0.096456915 0.34207392
vt 0.79384303 0.9888047
vt 0.82273054 0.7587123
vt 0.7938429 0.7958524
vt 0.9842869 0.98879194
vt 0.8232802 0.7578192
vt 0.82362497 0.7568151
vt 0.8237401 0.7557734
vt 0.98428786 0.64215547
vt 0.82374036 0.7210231
vt 0.823596 0.7200179
vt 0.82316244 0.7190757
vt 0.7938441 0.64214265
vt 0.8224927 0.71831167
vt 0.7938442 0.69375634
vt 0.5234742 0.34399024
vt 0.6048515 0.99760234
vt 0.6048515 0.44935948
vt 0.014715433 0.99746466
vt 0.5234742 0.34399024
vt 0.5220431 0.34113526
vt 0.014715433 0.99746466
vt 0.52113485 0.3381449
vt 0.5207602 0.33510444
vt 0.014833033 0.013255565
vt 0.5207602 0.23728062
vt 0.52128375 0.23433483
vt 0.5225611 0.2315647
vt 0.5245032 0.2291658
vt 0.6048515 0.013175071
vt 0.5245032 0.2291658
vt 0.6048515 0.1595003
vt 0.6085736 0.16296253
vt 0.6048515 0.1595003
vt 0.5245032 0.2291658
vt 0.52701855 0.23304823
vt 0.6085736 0.9934372
vt 0.6085736 0.44917142
vt 0.6048515 0.44935948
vt 0.6048515 0.99760234
vt 0.6048515 0.013175071
vt 0.6048515 0.1595003
vt 0.6085736 0.16296253
vt 0.6085736 0.017016467
vt 0.5281272 0.34334087
vt 0.5234742 0.34399024
vt 0.6048515 0.44935948
vt 0.6085736 0.44917142
vt 0.5249637 0.2395651
vt 0.5207602 0.23728062
vt 0.5207602 0.33510444
vt 0.5249637 0.33685336
vt 0.52701855 0.23304823
vt 0.5245032 0.2291658
vt 0.5225611 0.2315647
vt 0.5256738 0.23506202
vt 0.5249637 0.33685336
vt 0.5207602 0.33510444
vt 0.52113485 0.3381449
vt 0.52578676 0.33916563
vt 0.5256738 0.23506202
vt 0.5225611 0.2315647
vt 0.52128375 0.23433483
vt 0.5249035 0.23730971
vt 0.5249637 0.2395651
vt 0.5249035 0.23730971
vt 0.52128375 0.23433483
vt 0.5207602 0.23728062
vt 0.52578676 0.33916563
vt 0.52113485 0.3381449
vt 0.5220431 0.34113526
vt 0.5267915 0.3413297
vt 0.5281272 0.34334087
vt 0.5267915 0.3413297
vt 0.5220431 0.34113526
vt 0.5234742 0.34399024
vn 1 -1.3739592E-07 0
vn 1 -1.14365804E-07 0
vn 1 -1.3739592E-07 0
vn 1 -1.14365804E-07 0
vn 1 -1.143658E-07 0
vn 1 -1.143658E-07 0
vn 1 -1.1129344E-07 0
vn 1 -1.1146399E-07 0
vn 1 -1.11463976E-07 0
vn 1 -1.3950248E-07 0
vn 1 0 0
vn 1 -1.3950248E-07 0
vn 1 -1.3950248E-07 0
vn 1 -1.3950248E-07 0
vn 1 0 0
vn 1 0 0
vn 0.00020020115 -4.8274283E-05 -1
vn 0.00020020112 -4.827428E-05 -1
vn 0.00020020112 -4.827428E-05 -1
vn 0.00020020112 -4.827428E-05 -1
vn 4.434842E-06 -5.6523745E-06 1
vn 4.434842E-06 -5.6523745E-06 1
vn 4.434842E-06 -5.6523745E-06 1
vn 4.434842E-06 -5.6523745E-06 1
vn -6.535118E-07 -1 1.5462427E-05
vn -6.5351185E-07 -1 1.5462427E-05
vn -6.535118E-07 -1 1.5462427E-05
vn -6.535118E-07 -1 1.5462427E-05
vn 0.3488234 -0.6111522 0.7105035
vn 0.3488234 -0.6111522 0.7105035
vn 0.3488234 -0.6111522 0.7105035
vn 0.3488234 -0.61115223 0.7105035
vn -2.2039958E-07 -1 1.6661854E-05
vn -2.203996E-07 -1 1.6661854E-05
vn -2.2039958E-07 -1 1.6661854E-05
vn -2.203996E-07 -1 1.6661854E-05
vn -0 -7.397605E-05 -1
vn -0 -7.397605E-05 -1
vn -0 -7.397605E-05 -1
vn -0 -7.397605E-05 -1
vn -2.2499368E-07 -7.397593E-05 1
vn -2.249937E-07 -7.397592E-05 1
vn -2.249937E-07 -7.397592E-05 1
vn -2.2499371E-07 -7.397593E-05 1
vn 4.2236206E-06 1 6.721339E-07
vn 4.2236215E-06 1 6.7213387E-07
vn 4.223621E-06 1 6.72134E-07
vn 4.2236206E-06 1 6.721339E-07
vn 0.31739652 -0.7495293 -0.5809176
vn 0.31739652 -0.7495293 -0.5809176
vn 0.31739652 -0.7495293 -0.5809176
vn 0.31739652 -0.7495293 -0.5809176
vn -1.6910506E-05 -1 3.073828E-07
vn -1.6910506E-05 -1 3.073828E-07
vn -1.6910504E-05 -1 3.073828E-07
vn -1.6910506E-05 -1 3.0738283E-07
vn -1.1248493E-07 -1 -9.082953E-07
vn -1.1248494E-07 -1 -9.082953E-07
vn -1.1248494E-07 -1 -9.082953E-07
vn -1.1248493E-07 -1 -9.082953E-07
vn 2.696725E-05 -1 1.1010119E-07
vn 2.696725E-05 -1 1.1010119E-07
vn 2.696725E-05 -1 1.101012E-07
vn 2.6967251E-05 -1 1.101012E-07
vn -6.623269E-06 -1 2.0596514E-07
vn -6.6232697E-06 -1 2.0596514E-07
vn -6.6232697E-06 -1 2.0596512E-07
vn -6.623269E-06 -1 2.0596512E-07
vn -1 1.4162727E-07 1.6074736E-07
vn -1 1.4162727E-07 1.6074736E-07
vn -1 0 0
vn -1 1.416273E-07 1.6074736E-07
vn -1 0 0
vn -1 0 0
vn -1 0 0
vn -1 3.0119404E-07 -2.6862358E-07
vn -1 0 0
vn -1 0 0
vn -1 0 0
vn -1 3.01194E-07 -2.6862355E-07
vn -1 3.01194E-07 -2.6862355E-07
vn -1 0 0
vn 0.2752147 -0.72402537 0.63249034
vn 0.2752147 -0.72402537 0.63249034
vn 0.2752147 -0.72402537 0.63249034
vn 0.27521467 -0.72402537 0.63249034
vn 0.050053157 -0.99277157 -0.1090843
vn 0.050053157 -0.99277157 -0.109084286
vn 0.050053153 -0.99277157 -0.109084286
vn 0.050053153 -0.99277157 -0.10908428
vn 0.17794922 -0.8943715 0.4104067
vn 0.17794922 -0.8943715 0.41040674
vn 0.17794922 -0.8943715 0.41040674
vn 0.17794922 -0.8943715 0.41040674
vn 0.061250165 -0.98801607 0.141678
vn 0.061250158 -0.98801607 0.14167799
vn 0.061250158 -0.98801607 0.141678
vn 0.061250165 -0.98801607 0.141678
vn 0.14740352 -0.93581134 -0.3202021
vn 0.14740352 -0.93581134 -0.32020208
vn 0.14740352 -0.93581134 -0.32020208
vn 0.14740352 -0.93581134 -0.32020205
vn 0.23479082 -0.8287476 -0.50798684
vn 0.23479083 -0.8287477 -0.5079868
vn 0.23479082 -0.8287476 -0.50798684
vn 0.23479083 -0.8287477 -0.50798684
vn 1 0 0
vn 1 0 0
vn 1 0 0
vn 1 0 0
vn 1 2.5534093E-06 -1.7799351E-06
vn 1 0 0
vn 1 -1.05016255E-07 0
vn 1 0 1.6026029E-07
vn 1 -1.05016255E-07 0
vn 1 -1.08628974E-07 0
vn 1 0 1.6026029E-07
vn 1 0 1.6026029E-07
vn 1 0 1.6026029E-07
vn 1 -1.7724369E-07 2.0678652E-07
vn -1 -2.1649777E-07 0
vn -1 0 0
vn -1 -2.1649777E-07 0
vn -1 0 0
vn -1 0 0
vn -1 0 0
vn -1 0 0
vn -1 0 0
vn -1 0 0
vn -1 0 0
vn -1 0 0
vn -1 -9.663096E-07 -2.3840707E-06
vn -1 0 0
vn -1 0 0
vn -1 0 0
vn -1 0 0
vn -1 0 0
vn -0.36067164 -0.6082203 0.70709544
vn -0.36067164 -0.6082203 0.70709544
vn -0.36067164 -0.6082203 0.70709544
vn -0.36067164 -0.6082203 0.70709544
vn 1.4101726E-05 -1 1.6515101E-07
vn 1.4101725E-05 -1 1.6515101E-07
vn 1.4101725E-05 -1 1.6515101E-07
vn 1.4101726E-05 -1 1.6515101E-07
vn 1.3906316E-05 -1 2.0593716E-07
vn 1.3906316E-05 -1 2.0593716E-07
vn 1.3906316E-05 -1 2.0593717E-07
vn 1.3906316E-05 -1 2.0593716E-07
vn 0.23512085 -0.768241 -0.5954191
vn 0.23512082 -0.768241 -0.59541905
vn 0.23512085 -0.768241 -0.5954191
vn 0.23512082 -0.768241 -0.59541905
vn 3.5130183E-06 -1 0
vn 3.5130188E-06 -1 0
vn 3.5130186E-06 -1 0
vn 3.5130186E-06 -1 0
vn -0.28508186 -0.7218564 0.6305963
vn -0.28508186 -0.7218564 0.6305963
vn -0.28508186 -0.7218564 0.6305963
vn -0.28508186 -0.7218564 0.6305963
vn 0.05297602 -0.99262106 -0.10907281
vn 0.05297602 -0.99262106 -0.10907281
vn 0.052976023 -0.99262106 -0.109072804
vn 0.05297602 -0.99262106 -0.10907281
vn -0.18464728 -0.89325124 0.4098874
vn -0.18464728 -0.89325124 0.4098874
vn -0.18464725 -0.89325124 0.4098874
vn -0.18464729 -0.89325124 0.4098874
vn -0.06362749 -0.98787093 0.1416422
vn -0.06362749 -0.98787093 0.14164221
vn -0.06362749 -0.98787093 0.1416422
vn -0.06362749 -0.98787093 0.1416422
vn 0.15486893 -0.9347329 -0.31982827
vn 0.15486895 -0.9347329 -0.3198283
vn 0.15486895 -0.9347329 -0.3198283
vn 0.15486895 -0.9347329 -0.3198283
vn 0.2444163 -0.8267185 -0.5067516
vn 0.24441633 -0.8267185 -0.5067516
vn 0.2444163 -0.8267185 -0.5067516
vn 0.24441633 -0.8267185 -0.5067516
g Tape_01_0
f 3/3/3 2/2/2 1/1/1
f 5/5/5 4/4/4 2/2/2
f 6/6/6 5/5/5 2/2/2
f 7/7/7 5/5/5 6/6/6
f 8/8/8 7/7/7 6/6/6
f 9/9/9 8/8/8 6/6/6
f 10/10/10 9/9/9 6/6/6
f 11/11/11 9/9/9 10/10/10
f 12/12/12 11/11/11 10/10/10
f 12/12/12 10/10/10 13/13/13
f 14/14/14 12/12/12 13/13/13
f 16/16/16 15/15/15 13/13/13
f 19/19/19 18/18/18 17/17/17
f 20/20/20 19/19/19 17/17/17
f 23/23/23 22/22/22 21/21/21
f 24/24/24 23/23/23 21/21/21
f 27/27/27 26/26/26 25/25/25
f 28/28/28 27/27/27 25/25/25
f 31/31/31 30/30/30 29/29/29
f 32/32/32 31/31/31 29/29/29
f 35/35/35 34/34/34 33/33/33
f 36/36/36 35/35/35 33/33/33
f 39/39/39 38/38/38 37/37/37
f 40/40/40 39/39/39 37/37/37
f 43/43/43 42/42/42 41/41/41
f 44/44/44 43/43/43 41/41/41
f 47/47/47 46/46/46 45/45/45
f 48/48/48 47/47/47 45/45/45
f 51/51/51 50/50/50 49/49/49
f 52/52/52 51/51/51 49/49/49
f 55/55/55 54/54/54 53/53/53
f 56/56/56 55/55/55 53/53/53
f 59/59/59 58/58/58 57/57/57
f 60/60/60 59/59/59 57/57/57
f 63/63/63 62/62/62 61/61/61
f 64/64/64 63/63/63 61/61/61
f 67/67/67 66/66/66 65/65/65
f 68/68/68 67/67/67 65/65/65
f 71/71/71 70/70/70 69/69/69
f 70/70/70 72/72/72 69/69/69
f 73/73/73 69/69/69 72/72/72
f 74/74/74 69/69/69 73/73/73
f 75/75/75 69/69/69 74/74/74
f 76/76/76 69/69/69 75/75/75
f 77/77/77 76/76/76 75/75/75
f 78/78/78 76/76/76 77/77/77
f 79/79/79 76/76/76 78/78/78
f 80/80/80 76/76/76 79/79/79
f 81/81/81 76/76/76 80/80/80
f 82/82/82 76/76/76 81/81/81
f 85/85/85 84/84/84 83/83/83
f 86/86/86 85/85/85 83/83/83
f 89/89/89 88/88/88 87/87/87
f 90/90/90 89/89/89 87/87/87
f 93/93/93 92/92/92 91/91/91
f 94/94/94 93/93/93 91/91/91
f 97/97/97 96/96/96 95/95/95
f 98/98/98 97/97/97 95/95/95
f 101/101/101 100/100/100 99/99/99
f 102/102/102 101/101/101 99/99/99
f 105/105/105 104/104/104 103/103/103
f 106/106/106 105/105/105 103/103/103
f 109/109/109 108/108/108 107/107/107
f 107/107/107 108/108/108 110/110/110
f 108/108/108 111/111/111 110/110/110
f 111/111/111 112/112/112 110/110/110
f 112/112/112 113/113/113 110/110/110
f 110/110/110 113/113/113 114/114/114
f 113/113/113 115/115/115 114/114/114
f 115/115/115 116/116/116 114/114/114
f 116/116/116 117/117/117 114/114/114
f 118/118/118 114/114/114 117/117/117
f 119/119/119 118/118/118 117/117/117
f 120/120/120 118/118/118 119/119/119
g Tape_01_1
f 123/123/123 122/122/122 121/121/121
f 125/125/125 122/122/122 124/124/124
f 126/126/126 125/125/125 124/124/124
f 128/128/128 126/126/126 127/127/127
f 129/129/129 128/128/128 124/124/124
f 129/129/129 124/124/124 130/130/130
f 131/131/131 129/129/129 130/130/130
f 132/132/132 131/131/131 130/130/130
f 133/133/133 132/132/132 130/130/130
f 134/134/134 133/133/133 130/130/130
f 135/135/135 134/134/134 130/130/130
f 137/137/137 136/136/136 135/135/135
f 140/140/140 139/139/139 138/138/138
f 141/141/141 140/140/140 138/138/138
f 144/144/144 143/143/143 142/142/142
f 145/145/145 144/144/144 142/142/142
f 148/148/148 147/147/147 146/146/146
f 149/149/149 148/148/148 146/146/146
f 152/152/152 151/151/151 150/150/150
f 153/153/153 152/152/152 150/150/150
f 156/156/156 155/155/155 154/154/154
f 157/157/157 156/156/156 154/154/154
f 160/160/160 159/159/159 158/158/158
f 161/161/161 160/160/160 158/158/158
f 164/164/164 163/163/163 162/162/162
f 165/165/165 164/164/164 162/162/162
f 168/168/168 167/167/167 166/166/166
f 169/169/169 168/168/168 166/166/166
f 172/172/172 171/171/171 170/170/170
f 173/173/173 172/172/172 170/170/170
f 176/176/176 175/175/175 174/174/174
f 177/177/177 176/176/176 174/174/174
f 180/180/180 179/179/179 178/178/178
f 181/181/181 180/180/180 178/178/178
