g NPC_Child_Size01_Ear_001_LOD2
v 0.089496 0.033384 0.912478
v 0.090178 0.030495998 0.92451596
v 0.07018296 0.030304002 0.92251295
v 0.089496 0.033384 0.912478
v 0.07005677 0.0077367537 0.9215896
v 0.090178 0.030495998 0.92451596
v 0.058007002 0.0059619998 0.88770795
v 0.063554 0.0073769996 0.90257096
v 0.06325 0.0112785 0.88586044
v 0.074935004 0.022127999 0.89173496
v 0.06325 0.0112785 0.88586044
v 0.08359199 0.030574998 0.900501
v 0.074935004 0.022127999 0.89173496
v 0.07005677 0.0077367537 0.9215896
v 0.089496 0.033384 0.912478
v 0.08359199 0.030574998 0.900501
v 0.074273996 0.016497 0.9332029
v 0.079669 0.014288 0.934778
v 0.07005677 0.0077367537 0.9215896
v 0.06325 0.0112785 0.88586044
v 0.055919852 0.018164998 0.892123
v 0.058007002 0.0059619998 0.88770795
v -0.089496 0.033384 0.912478
v -0.07018296 0.030304002 0.92251295
v -0.090178 0.030495998 0.92451596
v -0.07005675 0.00773675 0.92158973
v -0.089496 0.033384 0.912478
v -0.090178 0.030495998 0.92451596
v -0.058007002 0.0059619998 0.88770795
v -0.06325 0.0112785 0.88586044
v -0.063554 0.0073769996 0.90257096
v -0.074935004 0.022127999 0.89173496
v -0.06325 0.0112785 0.88586044
v -0.08359199 0.030574998 0.900501
v -0.074935004 0.022127999 0.89173496
v -0.08359199 0.030574998 0.900501
v -0.089496 0.033384 0.912478
v -0.07005675 0.00773675 0.92158973
v -0.074273996 0.016497 0.9332029
v -0.07005675 0.00773675 0.92158973
v -0.079669 0.014288 0.934778
v -0.06325 0.0112785 0.88586044
v -0.058007002 0.0059619998 0.88770795
v -0.055919852 0.018164998 0.892123
v 0.0869235 0.024391 0.932695
v 0.090178 0.030495998 0.92451596
v 0.07005677 0.0077367537 0.9215896
v 0.079669 0.014288 0.934778
v 0.058979496 0.024976002 0.89856595
v 0.074935004 0.022127999 0.89173496
v 0.08359199 0.030574998 0.900501
v 0.0663362 0.031344 0.911369
v 0.055919852 0.018164998 0.892123
v 0.074935004 0.022127999 0.89173496
v 0.06325 0.0112785 0.88586044
v 0.08359199 0.030574998 0.900501
v 0.089496 0.033384 0.912478
v 0.07018296 0.030304002 0.92251295
v 0.0663362 0.031344 0.911369
v 0.07370787 0.026366 0.93069
v 0.0869235 0.024391 0.932695
v 0.079669 0.014288 0.934778
v 0.074273996 0.016497 0.9332029
v 0.07018296 0.030304002 0.92251295
v 0.090178 0.030495998 0.92451596
v 0.0869235 0.024391 0.932695
v 0.07370787 0.026366 0.93069
v -0.0869235 0.024391 0.932695
v -0.079669 0.014288 0.934778
v -0.07005675 0.00773675 0.92158973
v -0.090178 0.030495998 0.92451596
v -0.058979496 0.024976002 0.89856595
v -0.0663362 0.031344 0.911369
v -0.08359199 0.030574998 0.900501
v -0.074935004 0.022127999 0.89173496
v -0.055919852 0.018164998 0.892123
v -0.074935004 0.022127999 0.89173496
v -0.06325 0.0112785 0.88586044
v -0.08359199 0.030574998 0.900501
v -0.0663362 0.031344 0.911369
v -0.07018296 0.030304002 0.92251295
v -0.089496 0.033384 0.912478
v -0.07370787 0.026366 0.93069
v -0.074273996 0.016497 0.9332029
v -0.079669 0.014288 0.934778
v -0.0869235 0.024391 0.932695
v -0.07018296 0.030304002 0.92251295
v -0.07370787 0.026366 0.93069
v -0.0869235 0.024391 0.932695
v -0.090178 0.030495998 0.92451596
vt 0.26730892 0.95061857
vt 0.25628862 0.97154444
vt 0.2365 0.9445
vt 0.2209 0.9338
vt 0.1568476 0.93835896
vt 0.2123 0.9521
vt 0.1652 0.8708
vt 0.1625 0.896
vt 0.18195 0.86765003
vt 0.2043 0.889
vt 0.18195 0.86765003
vt 0.2183 0.9111
vt 0.2043 0.889
vt 0.1568476 0.93835896
vt 0.2209 0.9338
vt 0.2183 0.9111
vt 0.17344202 0.96829945
vt 0.1768 0.9617
vt 0.1568476 0.93835896
vt 0.24251157 0.8599234
vt 0.2327 0.876
vt 0.2254 0.8535
vt 0.26730892 0.95061857
vt 0.2365 0.9445
vt 0.25628862 0.97154444
vt 0.15793008 0.9382497
vt 0.2209 0.9338
vt 0.2123 0.9521
vt 0.1652 0.8708
vt 0.18195 0.86765003
vt 0.1625 0.896
vt 0.2043 0.889
vt 0.18195 0.86765003
vt 0.2183 0.9111
vt 0.2043 0.889
vt 0.2183 0.9111
vt 0.2209 0.9338
vt 0.15793008 0.9382497
vt 0.17344202 0.96829945
vt 0.15793008 0.9382497
vt 0.1768 0.9617
vt 0.24251157 0.8599234
vt 0.2254 0.8535
vt 0.2327 0.876
vt 0.19804999 0.9621
vt 0.2123 0.9521
vt 0.1568476 0.93835896
vt 0.1768 0.9617
vt 0.2361 0.903
vt 0.25910673 0.8920157
vt 0.26857015 0.9183609
vt 0.2377 0.9283
vt 0.2327 0.876
vt 0.25966498 0.88925475
vt 0.24671486 0.86337656
vt 0.2690136 0.92092663
vt 0.26911232 0.94669074
vt 0.2365 0.9445
vt 0.2377 0.9283
vt 0.2274 0.9704
vt 0.2280422 0.98871326
vt 0.21270815 0.9912447
vt 0.2098 0.9791
vt 0.2365 0.9445
vt 0.25539517 0.9728074
vt 0.24632448 0.98245347
vt 0.23471744 0.96114427
vt 0.19804999 0.9621
vt 0.1768 0.9617
vt 0.15793008 0.9382497
vt 0.2123 0.9521
vt 0.2361 0.903
vt 0.2377 0.9283
vt 0.26857015 0.9183609
vt 0.25910673 0.8920157
vt 0.2327 0.876
vt 0.25966498 0.88925475
vt 0.24671486 0.86337656
vt 0.2690136 0.92092663
vt 0.2377 0.9283
vt 0.2365 0.9445
vt 0.26911232 0.94669074
vt 0.2274 0.9704
vt 0.2098 0.9791
vt 0.21270815 0.9912447
vt 0.2280422 0.98871326
vt 0.2365 0.9445
vt 0.23471744 0.96114427
vt 0.24632448 0.98245347
vt 0.25539517 0.9728074
vn -0.06419854 0.99503446 0.07605935
vn -0.025694795 0.9248651 0.3794262
vn -0.053179752 0.9737714 0.22122674
vn 0.73859966 -0.639766 -0.21253237
vn 0.95655376 -0.056100976 -0.28610784
vn 0.74964744 -0.63056546 -0.20103724
vn 0.82564723 0.20861147 -0.5242023
vn 0.94329 -0.045667287 -0.328814
vn 0.69376564 -0.69844264 -0.17569065
vn 0.738047 -0.6626974 -0.12696013
vn 0.69376564 -0.69844264 -0.17569065
vn 0.7367344 -0.64724594 -0.19569163
vn 0.738047 -0.6626974 -0.12696013
vn 0.95655376 -0.056100976 -0.28610784
vn 0.73859966 -0.639766 -0.21253237
vn 0.7367344 -0.64724594 -0.19569163
vn -0.31665084 -0.17957489 0.9313888
vn -0.27421957 -0.069190696 0.9591748
vn -0.44401067 -0.6303911 0.6367586
vn -0.3433139 0.45047578 -0.82414025
vn -0.23694953 0.56669515 -0.78912073
vn -0.5104827 0.21400817 -0.83283126
vn 0.06419854 0.99503446 0.07605935
vn 0.053179752 0.9737714 0.22122674
vn 0.025694793 0.9248651 0.3794262
vn -0.95653933 -0.056368336 -0.28610346
vn -0.73859936 -0.63976645 -0.21253188
vn -0.74964684 -0.630566 -0.2010377
vn -0.8109842 0.22852887 -0.53859
vn -0.69376564 -0.69844264 -0.17569065
vn -0.94329053 -0.045772288 -0.3287976
vn -0.738047 -0.6626974 -0.12696013
vn -0.69376564 -0.69844264 -0.17569065
vn -0.7367344 -0.6472462 -0.1956909
vn -0.738047 -0.6626974 -0.12696013
vn -0.7367344 -0.6472462 -0.1956909
vn -0.73859936 -0.63976645 -0.21253188
vn -0.95653933 -0.056368336 -0.28610346
vn 0.3166504 -0.17957328 0.9313893
vn 0.44401047 -0.63038826 0.63676155
vn 0.27421907 -0.06918914 0.959175
vn 0.3433139 0.45047584 -0.82414025
vn 0.5104827 0.21400817 -0.83283126
vn 0.23694946 0.56669515 -0.78912073
vn 0.7536504 -0.6224036 -0.21124569
vn 0.74964744 -0.63056546 -0.20103724
vn 0.95655376 -0.056100976 -0.28610784
vn 0.75365037 -0.6224037 -0.2112457
vn -0.15718666 0.76922077 -0.6193479
vn -0.15798338 0.78981096 -0.59265506
vn -0.1253355 0.95707226 -0.26134998
vn -0.12277065 0.9613988 -0.24625148
vn -0.23694953 0.56669515 -0.78912073
vn -0.15798338 0.78981096 -0.59265506
vn -0.3433139 0.45047578 -0.82414025
vn -0.1253355 0.95707226 -0.26134998
vn -0.06419854 0.99503446 0.07605935
vn -0.053179752 0.9737714 0.22122674
vn -0.12277065 0.9613988 -0.24625148
vn -0.06307942 0.67000455 0.7396722
vn -0.065488555 0.6581691 0.7500164
vn -0.27421957 -0.069190696 0.9591748
vn -0.31665084 -0.17957489 0.9313888
vn -0.053179752 0.9737714 0.22122674
vn -0.025694795 0.9248651 0.3794262
vn -0.065488555 0.6581691 0.7500164
vn -0.06307942 0.67000455 0.7396722
vn -0.75364983 -0.62240404 -0.21124683
vn -0.7536498 -0.62240404 -0.21124683
vn -0.95653933 -0.056368336 -0.28610346
vn -0.74964684 -0.630566 -0.2010377
vn 0.15718666 0.7692208 -0.6193478
vn 0.12277064 0.9613988 -0.24625145
vn 0.1253355 0.95707226 -0.26134998
vn 0.15798336 0.78981096 -0.592655
vn 0.23694946 0.56669515 -0.78912073
vn 0.15798336 0.78981096 -0.592655
vn 0.3433139 0.45047584 -0.82414025
vn 0.1253355 0.95707226 -0.26134998
vn 0.12277064 0.9613988 -0.24625145
vn 0.053179752 0.9737714 0.22122674
vn 0.06419854 0.99503446 0.07605935
vn 0.063079424 0.67000455 0.7396722
vn 0.3166504 -0.17957328 0.9313893
vn 0.27421907 -0.06918914 0.959175
vn 0.065488555 0.6581691 0.7500164
vn 0.053179752 0.9737714 0.22122674
vn 0.063079424 0.67000455 0.7396722
vn 0.065488555 0.6581691 0.7500164
vn 0.025694793 0.9248651 0.3794262
g NPC_Child_Size01_Ear_001_LOD2_0
f 3/3/3 2/2/2 1/1/1
f 6/6/6 5/5/5 4/4/4
f 9/9/9 8/8/8 7/7/7
f 8/8/8 11/11/11 10/10/10
f 8/8/8 13/13/13 12/12/12
f 15/15/15 14/14/14 8/8/8
f 16/16/16 15/15/15 8/8/8
f 19/19/19 18/18/18 17/17/17
f 22/22/22 21/21/21 20/20/20
f 25/25/25 24/24/24 23/23/23
f 28/28/28 27/27/27 26/26/26
f 31/31/31 30/30/30 29/29/29
f 33/33/33 31/31/31 32/32/32
f 35/35/35 31/31/31 34/34/34
f 37/37/37 36/36/36 31/31/31
f 38/38/38 37/37/37 31/31/31
f 41/41/41 40/40/40 39/39/39
f 44/44/44 43/43/43 42/42/42
f 47/47/47 46/46/46 45/45/45
f 48/48/48 47/47/47 45/45/45
f 51/51/51 50/50/50 49/49/49
f 52/52/52 51/51/51 49/49/49
f 49/49/49 54/54/54 53/53/53
f 54/54/54 55/55/55 53/53/53
f 58/58/58 57/57/57 56/56/56
f 59/59/59 58/58/58 56/56/56
f 62/62/62 61/61/61 60/60/60
f 63/63/63 62/62/62 60/60/60
f 66/66/66 65/65/65 64/64/64
f 67/67/67 66/66/66 64/64/64
f 70/70/70 69/69/69 68/68/68
f 71/71/71 70/70/70 68/68/68
f 74/74/74 73/73/73 72/72/72
f 75/75/75 74/74/74 72/72/72
f 77/77/77 72/72/72 76/76/76
f 78/78/78 77/77/77 76/76/76
f 81/81/81 80/80/80 79/79/79
f 82/82/82 81/81/81 79/79/79
f 85/85/85 84/84/84 83/83/83
f 86/86/86 85/85/85 83/83/83
f 89/89/89 88/88/88 87/87/87
f 90/90/90 89/89/89 87/87/87
