g NPC_Child_Size01_Ear_001_LOD3
v 0.074273996 0.016497 0.9332029
v 0.079669 0.014288 0.934778
v 0.07005675 0.0077367495 0.9215895
v 0.074935004 0.022127999 0.89173496
v 0.06325 0.0112785 0.88586044
v 0.0607805 0.0066695 0.89513946
v 0.08359199 0.030574998 0.900501
v 0.074935004 0.022127999 0.89173496
v 0.0607805 0.0066695 0.89513946
v 0.06325 0.0112785 0.88586044
v 0.05696159 0.018165 0.892123
v 0.0607805 0.0066695 0.89513946
v -0.074273996 0.016497 0.9332029
v -0.07005674 0.00773675 0.92158973
v -0.079669 0.014288 0.934778
v -0.074935004 0.022127999 0.89173496
v -0.0607805 0.0066695 0.89513946
v -0.06325 0.0112785 0.88586044
v -0.08359199 0.030574998 0.900501
v -0.0607805 0.0066695 0.89513946
v -0.074935004 0.022127999 0.89173496
v -0.06325 0.0112785 0.88586044
v -0.0607805 0.0066695 0.89513946
v -0.05696159 0.018165 0.892123
v 0.0869235 0.024391 0.932695
v 0.08983699 0.03194 0.91849697
v 0.07005675 0.0077367495 0.9215895
v 0.079669 0.014288 0.934778
v 0.058979496 0.024976002 0.89856595
v 0.074935004 0.022127999 0.89173496
v 0.08359199 0.030574998 0.900501
v 0.06330325 0.031343997 0.911369
v 0.05696159 0.018165 0.892123
v 0.074935004 0.022127999 0.89173496
v 0.06325 0.0112785 0.88586044
v 0.08359199 0.030574998 0.900501
v 0.06952309 0.030303998 0.92251295
v 0.08983699 0.03194 0.91849697
v 0.07300829 0.026366 0.93069
v 0.0869235 0.024391 0.932695
v 0.079669 0.014288 0.934778
v 0.074273996 0.016497 0.9332029
v 0.06952309 0.030303998 0.92251295
v 0.08983699 0.03194 0.91849697
v 0.0869235 0.024391 0.932695
v 0.07300829 0.026366 0.93069
v 0.0607805 0.0066695 0.89513946
v 0.07005675 0.0077367495 0.9215895
v 0.08983699 0.03194 0.91849697
v 0.08359199 0.030574998 0.900501
v -0.0869235 0.024391 0.932695
v -0.079669 0.014288 0.934778
v -0.07005674 0.00773675 0.92158973
v -0.08983699 0.03194 0.91849697
v -0.058979496 0.024976002 0.89856595
v -0.08359199 0.030574998 0.900501
v -0.074935004 0.022127999 0.89173496
v -0.06330325 0.031343997 0.911369
v -0.05696159 0.018165 0.892123
v -0.074935004 0.022127999 0.89173496
v -0.06325 0.0112785 0.88586044
v -0.08359199 0.030574998 0.900501
v -0.06952309 0.030303998 0.92251295
v -0.08983699 0.03194 0.91849697
v -0.07300829 0.026366 0.93069
v -0.074273996 0.016497 0.9332029
v -0.079669 0.014288 0.934778
v -0.0869235 0.024391 0.932695
v -0.06952309 0.030303998 0.92251295
v -0.07300829 0.026366 0.93069
v -0.0869235 0.024391 0.932695
v -0.08983699 0.03194 0.91849697
v -0.0607805 0.0066695 0.89513946
v -0.08359199 0.030574998 0.900501
v -0.08983699 0.03194 0.91849697
v -0.07005674 0.00773675 0.92158973
vt 0.17344202 0.96829945
vt 0.1768 0.9617
vt 0.159475 0.936575
vt 0.2043 0.889
vt 0.18195 0.86765003
vt 0.16385 0.8834
vt 0.2183 0.9111
vt 0.2043 0.889
vt 0.16385 0.8834
vt 0.24251157 0.8599234
vt 0.2327 0.876
vt 0.2254 0.8535
vt 0.17344202 0.96829945
vt 0.159475 0.936575
vt 0.1768 0.9617
vt 0.2043 0.889
vt 0.16385 0.8834
vt 0.18195 0.86765003
vt 0.2183 0.9111
vt 0.16385 0.8834
vt 0.2043 0.889
vt 0.24251157 0.8599234
vt 0.2254 0.8535
vt 0.2327 0.876
vt 0.19804999 0.9621
vt 0.2166 0.94295
vt 0.159475 0.936575
vt 0.1768 0.9617
vt 0.2361 0.903
vt 0.25910673 0.8920157
vt 0.26857015 0.9183609
vt 0.2377 0.9283
vt 0.2327 0.876
vt 0.25966498 0.88925475
vt 0.24671486 0.86337656
vt 0.2690136 0.92092663
vt 0.2365 0.9445
vt 0.26911232 0.94669074
vt 0.2274 0.9704
vt 0.2280422 0.98871326
vt 0.21270815 0.9912447
vt 0.2098 0.9791
vt 0.2365 0.9445
vt 0.25539517 0.9728074
vt 0.24632448 0.98245347
vt 0.23471744 0.96114427
vt 0.16385 0.8834
vt 0.159475 0.936575
vt 0.2166 0.94295
vt 0.2183 0.9111
vt 0.19804999 0.9621
vt 0.1768 0.9617
vt 0.159475 0.936575
vt 0.2166 0.94295
vt 0.2361 0.903
vt 0.26857015 0.9183609
vt 0.25910673 0.8920157
vt 0.2377 0.9283
vt 0.2327 0.876
vt 0.25966498 0.88925475
vt 0.24671486 0.86337656
vt 0.2690136 0.92092663
vt 0.2365 0.9445
vt 0.26911232 0.94669074
vt 0.2274 0.9704
vt 0.2098 0.9791
vt 0.21270815 0.9912447
vt 0.2280422 0.98871326
vt 0.2365 0.9445
vt 0.23471744 0.96114427
vt 0.24632448 0.98245347
vt 0.25539517 0.9728074
vt 0.16385 0.8834
vt 0.2183 0.9111
vt 0.2166 0.94295
vt 0.159475 0.936575
vn -0.31135526 -0.17422046 0.93418694
vn -0.27170202 -0.072716765 0.95963025
vn -0.4440112 -0.6303951 0.63675433
vn 0.7264621 -0.6826261 -0.07920991
vn 0.71230716 -0.6854541 -0.1509014
vn 0.8689336 0.114881106 -0.48141104
vn 0.7356076 -0.6495647 -0.19221635
vn 0.7264621 -0.6826261 -0.07920991
vn 0.8689336 0.114881106 -0.48141104
vn -0.6116058 0.20988092 -0.76281613
vn -0.42520133 0.43072194 -0.7960417
vn -0.827746 -0.38266644 -0.41036934
vn 0.3113539 -0.17421605 0.9341882
vn 0.4440104 -0.63038796 0.6367619
vn 0.27170068 -0.07271292 0.9596309
vn -0.7264621 -0.6826261 -0.07920991
vn -0.8681695 0.123221986 -0.4807267
vn -0.71230716 -0.6854541 -0.1509014
vn -0.7356073 -0.64956546 -0.19221513
vn -0.8681695 0.123221986 -0.4807267
vn -0.7264621 -0.6826261 -0.07920991
vn 0.6116058 0.209881 -0.76281613
vn 0.827746 -0.38266644 -0.41036934
vn 0.4252014 0.43072203 -0.79604167
vn 0.7530088 -0.62462187 -0.20694277
vn 0.74265385 -0.6340054 -0.21564381
vn 0.9561948 -0.045452755 -0.28918085
vn 0.7530088 -0.62462187 -0.20694277
vn -0.15905192 0.7715847 -0.61592156
vn -0.1588587 0.7818687 -0.60286427
vn -0.090755664 0.9635301 -0.25174022
vn -0.088783056 0.9655784 -0.24449106
vn -0.42520133 0.43072194 -0.7960417
vn -0.1588587 0.7818687 -0.60286427
vn -0.6116058 0.20988092 -0.76281613
vn -0.090755664 0.9635301 -0.25174022
vn 0.0028355676 0.97969496 0.20047371
vn 0.004216997 0.9773671 0.21150844
vn -0.025705053 0.71099 0.7027321
vn -0.033442996 0.6829381 0.7297102
vn -0.27170202 -0.072716765 0.95963025
vn -0.31135526 -0.17422046 0.93418694
vn 0.0028355676 0.97969496 0.20047371
vn 0.004216997 0.9773671 0.21150844
vn -0.033442996 0.6829381 0.7297102
vn -0.025705053 0.71099 0.7027321
vn 0.8689336 0.114881106 -0.48141104
vn 0.9561948 -0.045452755 -0.28918085
vn 0.74265385 -0.6340054 -0.21564381
vn 0.7356076 -0.6495647 -0.19221635
vn -0.75300753 -0.62462276 -0.20694467
vn -0.75300753 -0.62462276 -0.20694467
vn -0.956117 -0.04729446 -0.28914288
vn -0.7426531 -0.63400656 -0.21564372
vn 0.15905195 0.7715848 -0.6159216
vn 0.090755664 0.9635301 -0.25174022
vn 0.1588587 0.7818687 -0.6028642
vn 0.088783056 0.9655784 -0.24449106
vn 0.4252014 0.43072203 -0.79604167
vn 0.1588587 0.7818687 -0.6028642
vn 0.6116058 0.209881 -0.76281613
vn 0.090755664 0.9635301 -0.25174022
vn -0.0028355664 0.97969496 0.20047371
vn -0.004216997 0.9773671 0.21150844
vn 0.025705066 0.71099 0.702732
vn 0.3113539 -0.17421605 0.9341882
vn 0.27170068 -0.07271292 0.9596309
vn 0.033443004 0.6829382 0.7297102
vn -0.0028355664 0.97969496 0.20047371
vn 0.025705066 0.71099 0.702732
vn 0.033443004 0.6829382 0.7297102
vn -0.004216997 0.9773671 0.21150844
vn -0.8681695 0.123221986 -0.4807267
vn -0.7356073 -0.64956546 -0.19221513
vn -0.7426531 -0.63400656 -0.21564372
vn -0.956117 -0.04729446 -0.28914288
g NPC_Child_Size01_Ear_001_LOD3_0
f 3/3/3 2/2/2 1/1/1
f 6/6/6 5/5/5 4/4/4
f 9/9/9 8/8/8 7/7/7
f 12/12/12 11/11/11 10/10/10
f 15/15/15 14/14/14 13/13/13
f 18/18/18 17/17/17 16/16/16
f 21/21/21 20/20/20 19/19/19
f 24/24/24 23/23/23 22/22/22
f 27/27/27 26/26/26 25/25/25
f 28/28/28 27/27/27 25/25/25
f 31/31/31 30/30/30 29/29/29
f 32/32/32 31/31/31 29/29/29
f 29/29/29 34/34/34 33/33/33
f 34/34/34 35/35/35 33/33/33
f 32/32/32 37/37/37 36/36/36
f 37/37/37 38/38/38 36/36/36
f 41/41/41 40/40/40 39/39/39
f 42/42/42 41/41/41 39/39/39
f 45/45/45 44/44/44 43/43/43
f 46/46/46 45/45/45 43/43/43
f 49/49/49 48/48/48 47/47/47
f 50/50/50 49/49/49 47/47/47
f 53/53/53 52/52/52 51/51/51
f 54/54/54 53/53/53 51/51/51
f 57/57/57 56/56/56 55/55/55
f 56/56/56 58/58/58 55/55/55
f 60/60/60 55/55/55 59/59/59
f 61/61/61 60/60/60 59/59/59
f 63/63/63 58/58/58 62/62/62
f 64/64/64 63/63/63 62/62/62
f 67/67/67 66/66/66 65/65/65
f 68/68/68 67/67/67 65/65/65
f 71/71/71 70/70/70 69/69/69
f 72/72/72 71/71/71 69/69/69
f 75/75/75 74/74/74 73/73/73
f 76/76/76 75/75/75 73/73/73
