g NPC_Bone_PackageE_009_LOD3
v -0.052654218 0.18349642 -0.38863006
v -0.013700845 0.16527218 -0.15502223
v -0.01890936 0.17866096 -0.13649562
v -0.0137009 -0.16527218 -0.15502223
v -0.052654266 -0.1834964 -0.38863006
v -0.019063143 -0.18520287 -0.13903521
v 0.013701031 0.16527218 -0.15502223
v 0.05265439 0.1834964 -0.38863006
v 0.018909544 0.17866096 -0.13649562
v 0.05265434 -0.18349642 -0.38863006
v 0.013700976 -0.16527218 -0.15502223
v 0.019063218 -0.18520287 -0.13903521
v -0.013700845 0.16527218 -0.15502223
v -0.052654218 0.18349642 -0.38863006
v 0.05265439 0.1834964 -0.38863006
v 0.013701031 0.16527218 -0.15502223
v -0.052654266 -0.1834964 -0.38863006
v 0.05265434 -0.18349642 -0.38863006
v 0.05265439 0.1834964 -0.38863006
v -0.052654218 0.18349642 -0.38863006
v -0.013700845 0.16527218 -0.15502223
v -0.0137009 -0.16527218 -0.15502223
v -0.019063143 -0.18520287 -0.13903521
v -0.01890936 0.17866096 -0.13649562
v -0.0137009 -0.16527218 -0.15502223
v -0.013700845 0.16527218 -0.15502223
v 0.013701031 0.16527218 -0.15502223
v 0.013700976 -0.16527218 -0.15502223
v -0.052654266 -0.1834964 -0.38863006
v -0.0137009 -0.16527218 -0.15502223
v 0.013700976 -0.16527218 -0.15502223
v 0.05265434 -0.18349642 -0.38863006
v -0.052654266 -0.1834964 -0.38863006
v -0.052654218 0.18349642 -0.38863006
v -0.01890936 0.17866096 -0.13649562
v -0.019063143 -0.18520287 -0.13903521
v 0.013701031 0.16527218 -0.15502223
v 0.018909544 0.17866096 -0.13649562
v 0.019063218 -0.18520287 -0.13903521
v 0.013700976 -0.16527218 -0.15502223
v 0.05265434 -0.18349642 -0.38863006
v 0.019063218 -0.18520287 -0.13903521
v 0.018909544 0.17866096 -0.13649562
v 0.05265439 0.1834964 -0.38863006
v 0.032601506 0.073763855 -0.15343584
v 0.03576992 0.09719484 -0.16338123
v 0.035894386 0.07525308 -0.16450973
v 0.0323105 0.09602068 -0.15040119
v 0.02160048 0.08499917 -0.10059467
v 0.022099413 0.064663224 -0.1069742
v 0.011944532 0.043116894 -0.04438843
v 0.009906764 0.058356274 -0.031511344
v 0.00669473 -6.8724154E-07 -0.003372879
v 0.009596628 -6.9042045E-07 -0.021072388
v 0.01194452 -0.043118265 -0.04438843
v 0.009906743 -0.05835765 -0.031511344
v 0.021603499 -0.08510056 -0.10058639
v 0.022111522 -0.06445973 -0.10698879
v 0.032601204 -0.07368598 -0.15343584
v 0.032309838 -0.095910005 -0.15040119
v 0.035909027 -0.07568087 -0.1646265
v 0.035783723 -0.09665425 -0.16349782
v -0.032310374 0.09602068 -0.15040119
v -0.035894256 0.07525308 -0.16450973
v -0.035769794 0.09719484 -0.16338123
v -0.03260138 0.07376385 -0.15343584
v -0.02160035 0.08499917 -0.10059467
v -0.022099286 0.06466322 -0.1069742
v -0.011944403 0.04311689 -0.04438843
v -0.009906635 0.05835627 -0.031511344
v -0.0066946 -6.8724154E-07 -0.003372879
v -0.009596499 -6.9042045E-07 -0.021072388
v -0.011944392 -0.043118272 -0.04438843
v -0.009906613 -0.058357652 -0.031511344
v -0.02160337 -0.08510056 -0.10058639
v -0.022111394 -0.06445974 -0.10698879
v -0.032601077 -0.07368598 -0.15343584
v -0.032309707 -0.095910005 -0.15040119
v -0.035783596 -0.09665425 -0.16349782
v -0.0359089 -0.075680874 -0.1646265
vt 0.8966615 0.6281415
vt 0.9085721 0.96684855
vt 0.89178616 0.96667886
vt 0.9226129 0.96909064
vt 0.93452346 0.6303837
vt 0.94285417 0.95834464
vt 0.9085721 0.96684855
vt 0.8966615 0.6281415
vt 0.89178616 0.96667886
vt 0.93452346 0.6303837
vt 0.9226129 0.96909064
vt 0.94285417 0.95834464
vt 0.99302226 0.3557144
vt 0.99302226 0.0074666757
vt 0.99302226 0.0074666757
vt 0.99302226 0.3557144
vt 0.8632208 0.5194074
vt 0.8632208 0.5194074
vt 0.8631588 0.009772163
vt 0.8631588 0.009772163
vt 0.99095315 0.4934252
vt 0.99095315 0.97995925
vt 0.97585434 0.9924372
vt 0.96927583 0.48193955
vt 0.92467767 0.6006653
vt 0.92467767 0.37108636
vt 0.92467767 0.37108636
vt 0.92467767 0.6006653
vt 0.94785935 0.3557144
vt 0.94785935 0.0074666757
vt 0.94785935 0.0074666757
vt 0.94785935 0.3557144
vt 0.045030087 0.034003686
vt 0.07003814 0.69400644
vt 0.5247005 0.7203016
vt 0.51757574 0.042395253
vt 0.99095315 0.4934252
vt 0.96927583 0.48193955
vt 0.9758543 0.9924372
vt 0.99095315 0.97995925
vt 0.07003784 0.07170553
vt 0.51757574 0.042395253
vt 0.5247005 0.7203016
vt 0.0450317 0.7317089
vt 0.6110242 0.9785905
vt 0.64632285 0.98644567
vt 0.6132744 0.9949366
vt 0.6394749 0.9682014
vt 0.6089084 0.89967227
vt 0.5807463 0.9154706
vt 0.5326444 0.83138025
vt 0.5553025 0.8066219
vt 0.4665345 0.7703229
vt 0.46653447 0.8027468
vt 0.40042466 0.83138025
vt 0.3777665 0.8066219
vt 0.32411057 0.8996599
vt 0.3523239 0.9154537
vt 0.32204485 0.9785905
vt 0.29359403 0.9682014
vt 0.31979465 0.9949366
vt 0.286746 0.98644567
vt 0.6394749 0.9682014
vt 0.6132744 0.9949366
vt 0.64632285 0.98644567
vt 0.6110242 0.9785905
vt 0.6089669 0.8996521
vt 0.5807435 0.9154688
vt 0.5326444 0.83138025
vt 0.5553025 0.8066219
vt 0.4665345 0.7703229
vt 0.46653447 0.8027468
vt 0.40042466 0.83138025
vt 0.3777665 0.8066219
vt 0.3241797 0.8996836
vt 0.3523227 0.91545415
vt 0.32204485 0.9785905
vt 0.29359403 0.9682014
vt 0.286746 0.98644567
vt 0.31979465 0.9949366
vn 0.036335476 0.020325031 -0.99913293
vn 0.8677455 0.48539215 -0.106827356
vn 0.8677455 0.48539215 -0.10682736
vn 0.9274715 -0.3515826 -0.12722526
vn 0.9274715 -0.35158265 -0.12722528
vn 0.9274715 -0.35158265 -0.12722528
vn -0.57796824 0.8154012 -0.03276324
vn 0.710518 0.6879092 0.14813851
vn -0.8677455 0.48539224 -0.10682735
vn -0.9274715 -0.35158253 -0.12722526
vn -0.9274715 -0.35158256 -0.12722526
vn -0.9274715 -0.35158256 -0.12722526
vn 1.4107424E-07 0.9969709 0.07777575
vn -0.7308006 0.6658969 0.15003929
vn 0.710518 0.6879092 0.14813851
vn -0.57796824 0.8154012 -0.03276324
vn -0 0 -1
vn -0 0 -1
vn -0 0 -1
vn 0.036335476 0.020325031 -0.99913293
vn 0.95622563 -0.0012820349 0.29262748
vn 0.95622563 -0.001282035 0.2926275
vn 0.95622563 -0.0012820349 0.29262748
vn 0.95622563 -0.001282035 0.29262748
vn -0 0 1
vn -0 0 1
vn -0 0 1
vn -0 0 1
vn -0.7360241 -0.6600693 0.15025638
vn -1.4414108E-07 -0.9969709 0.07777577
vn -1.4414108E-07 -0.9969709 0.07777577
vn 0.7360239 -0.6600696 0.15025637
vn -0.7360241 -0.6600693 0.15025638
vn -0.7308006 0.6658969 0.15003929
vn -0.9911144 -0.00025357667 0.13301197
vn -0.9911144 -0.00025357667 0.13301195
vn -0.95622563 -0.0012817298 0.29262745
vn -0.95622563 -0.0012817299 0.29262745
vn -0.95622563 -0.0012817298 0.29262745
vn -0.95622563 -0.0012817297 0.29262745
vn 0.7360239 -0.6600696 0.15025637
vn 0.9911144 -0.00025385924 0.13301192
vn 0.9911144 -0.00025385924 0.13301194
vn 0.710518 0.6879092 0.14813851
vn 0.9708397 -0.022308823 0.23868972
vn 0.9631246 -0.016243251 0.26856494
vn 0.9631246 -0.016243251 0.26856494
vn 0.970659 -0.022157975 0.23943685
vn 0.9827487 -0.021658858 0.18367302
vn 0.9825653 -0.021898568 0.18462387
vn 0.9881153 0.0030082057 0.15368512
vn 0.98809904 0.0025582681 0.15379801
vn 0.98882604 -1.8804643E-07 0.14907402
vn 0.98882604 -1.946352E-07 0.14907405
vn 0.9881004 -0.0030851758 0.15377884
vn 0.988084 -0.0026418287 0.15389283
vn 0.9827367 0.02142849 0.18376435
vn 0.9825685 0.0216473 0.18463601
vn 0.9711128 0.022342611 0.23757292
vn 0.9709254 0.02218869 0.23835158
vn 0.96350545 0.016457006 0.26718226
vn 0.96350545 0.016457006 0.26718223
vn -0.970659 -0.022157934 0.23943685
vn -0.9631246 -0.016243245 0.26856497
vn -0.9631246 -0.016243245 0.26856497
vn -0.9708397 -0.022308784 0.23868974
vn -0.9827488 -0.021658788 0.18367305
vn -0.9825653 -0.021898497 0.18462387
vn -0.9881153 0.0030082525 0.15368514
vn -0.9880989 0.0025583166 0.15379806
vn -0.98882604 -1.8971055E-07 0.14907405
vn -0.98882604 -1.9283304E-07 0.14907406
vn -0.9881004 -0.0030851942 0.15377885
vn -0.988084 -0.0026418476 0.15389287
vn -0.9827367 0.021428492 0.18376435
vn -0.9825685 0.021647302 0.18463603
vn -0.97111267 0.022342617 0.23757292
vn -0.9709254 0.0221887 0.23835158
vn -0.96350545 0.01645701 0.26718226
vn -0.96350545 0.01645701 0.26718226
g NPC_Bone_PackageE_009_LOD3_0
f 3/3/3 2/2/2 1/1/1
f 6/6/6 5/5/5 4/4/4
f 9/9/9 8/8/8 7/7/7
f 12/12/12 11/11/11 10/10/10
f 15/15/15 14/14/14 13/13/13
f 16/16/16 15/15/15 13/13/13
f 19/19/19 18/18/18 17/17/17
f 20/20/20 19/19/19 17/17/17
f 23/23/23 22/22/22 21/21/21
f 24/24/24 23/23/23 21/21/21
f 27/27/27 26/26/26 25/25/25
f 28/28/28 27/27/27 25/25/25
f 31/31/31 30/30/30 29/29/29
f 32/32/32 31/31/31 29/29/29
f 35/35/35 34/34/34 33/33/33
f 36/36/36 35/35/35 33/33/33
f 39/39/39 38/38/38 37/37/37
f 40/40/40 39/39/39 37/37/37
f 43/43/43 42/42/42 41/41/41
f 44/44/44 43/43/43 41/41/41
f 47/47/47 46/46/46 45/45/45
f 46/46/46 48/48/48 45/45/45
f 48/48/48 49/49/49 45/45/45
f 49/49/49 50/50/50 45/45/45
f 51/51/51 50/50/50 49/49/49
f 52/52/52 51/51/51 49/49/49
f 51/51/51 52/52/52 53/53/53
f 54/54/54 51/51/51 53/53/53
f 55/55/55 54/54/54 53/53/53
f 56/56/56 55/55/55 53/53/53
f 56/56/56 57/57/57 55/55/55
f 57/57/57 58/58/58 55/55/55
f 59/59/59 58/58/58 57/57/57
f 60/60/60 59/59/59 57/57/57
f 61/61/61 59/59/59 60/60/60
f 62/62/62 61/61/61 60/60/60
f 65/65/65 64/64/64 63/63/63
f 64/64/64 66/66/66 63/63/63
f 63/63/63 66/66/66 67/67/67
f 66/66/66 68/68/68 67/67/67
f 67/67/67 68/68/68 69/69/69
f 70/70/70 67/67/67 69/69/69
f 70/70/70 69/69/69 71/71/71
f 69/69/69 72/72/72 71/71/71
f 72/72/72 73/73/73 71/71/71
f 73/73/73 74/74/74 71/71/71
f 74/74/74 73/73/73 75/75/75
f 73/73/73 76/76/76 75/75/75
f 75/75/75 76/76/76 77/77/77
f 78/78/78 75/75/75 77/77/77
f 79/79/79 78/78/78 77/77/77
f 80/80/80 79/79/79 77/77/77
