g SeparateMesh_NPC_GrannyLeisha_Model_GrannyLeisha_Ear_LOD1
v 0.07654014 0.0046708006 1.4091897
v 0.07270957 0.0009525115 1.4039854
v 0.07046064 0.0016132612 1.4038239
v 0.07270957 0.0009525115 1.4039854
v 0.06928406 -0.001054065 1.3964446
v 0.07654014 0.0046708006 1.4091897
v 0.07416238 0.006394758 1.409357
v 0.0777861 0.014092893 1.4071848
v 0.07654014 0.0046708006 1.4091897
v 0.08090317 0.012125991 1.407447
v 0.080515556 0.022341736 1.3990633
v 0.08090317 0.012125991 1.407447
v 0.08383186 0.019876534 1.3991977
v 0.083912075 0.024527416 1.3869771
v 0.08383186 0.019876534 1.3991977
v 0.08053778 0.026536196 1.3874333
v 0.080223665 0.021965643 1.3770198
v 0.083912075 0.024527416 1.3869771
v 0.077363476 0.024008302 1.3773683
v 0.071448855 0.0166354 1.3673811
v 0.080223665 0.021965643 1.3770198
v 0.07359358 0.014725724 1.3677847
v 0.06381202 0.007993081 1.3621055
v 0.07359358 0.014725724 1.3677847
v 0.06587577 0.0056673945 1.3618495
v 0.06587577 0.0056673945 1.3618495
v 0.061017964 -0.0019443708 1.3627807
v 0.05954061 0.0020441283 1.3629218
v 0.08383186 0.019876534 1.3991977
v 0.06928406 -0.001054065 1.3964446
v 0.08090317 0.012125991 1.407447
v 0.061017964 -0.0019443708 1.3627807
v 0.06358338 -0.0015376678 1.3723645
v 0.06587577 0.0056673945 1.3618495
v 0.07359358 0.014725724 1.3677847
v 0.06587577 0.0056673945 1.3618495
v 0.080223665 0.021965643 1.3770198
v 0.06579564 -0.0012150481 1.3805256
v 0.083912075 0.024527416 1.3869771
v 0.080223665 0.021965643 1.3770198
v 0.06799074 -0.0011534956 1.3887078
v 0.06928406 -0.001054065 1.3964446
v 0.08383186 0.019876534 1.3991977
v 0.083912075 0.024527416 1.3869771
v -0.07654014 0.0046708006 1.4091897
v -0.07046064 0.0016132612 1.4038239
v -0.07270957 0.0009525115 1.4039854
v -0.07270957 0.0009525115 1.4039854
v -0.06928406 -0.001054065 1.3964446
v -0.07654014 0.0046708006 1.4091897
v -0.07416238 0.006394758 1.409357
v -0.0777861 0.014092893 1.4071848
v -0.07654014 0.0046708006 1.4091897
v -0.08090317 0.012125991 1.407447
v -0.080515556 0.022341736 1.3990633
v -0.08090317 0.012125991 1.407447
v -0.08383186 0.019876534 1.3991977
v -0.083912075 0.024527416 1.3869771
v -0.08383186 0.019876534 1.3991977
v -0.08053778 0.026536196 1.3874333
v -0.080223665 0.021965643 1.3770198
v -0.083912075 0.024527416 1.3869771
v -0.077363476 0.024008302 1.3773683
v -0.071448855 0.0166354 1.3673811
v -0.080223665 0.021965643 1.3770198
v -0.07359358 0.014725724 1.3677847
v -0.06381202 0.007993081 1.3621055
v -0.07359358 0.014725724 1.3677847
v -0.06587577 0.0056673945 1.3618495
v -0.06587577 0.0056673945 1.3618495
v -0.061017964 -0.0019443708 1.3627807
v -0.05954061 0.0020441283 1.3629218
v -0.08383186 0.019876534 1.3991977
v -0.08090317 0.012125991 1.407447
v -0.06928406 -0.001054065 1.3964446
v -0.061017964 -0.0019443708 1.3627807
v -0.06587577 0.0056673945 1.3618495
v -0.06358338 -0.0015376678 1.3723645
v -0.07359358 0.014725724 1.3677847
v -0.06587577 0.0056673945 1.3618495
v -0.080223665 0.021965643 1.3770198
v -0.06579564 -0.0012150481 1.3805256
v -0.080223665 0.021965643 1.3770198
v -0.083912075 0.024527416 1.3869771
v -0.06799074 -0.0011534956 1.3887078
v -0.083912075 0.024527416 1.3869771
v -0.08383186 0.019876534 1.3991977
v -0.06928406 -0.001054065 1.3964446
v 0.08090317 0.012125991 1.407447
v 0.06928406 -0.001054065 1.3964446
v 0.07270957 0.0009525115 1.4039854
v 0.07654014 0.0046708006 1.4091897
v 0.06381202 0.007993081 1.3621055
v 0.062304415 0.015053241 1.3710583
v 0.05954061 0.0020441283 1.3629218
v 0.071448855 0.0166354 1.3673811
v 0.06560915 0.022399286 1.3816234
v 0.077363476 0.024008302 1.3773683
v 0.08053778 0.026536196 1.3874333
v 0.06822807 0.023683643 1.3911778
v 0.080515556 0.022341736 1.3990633
v 0.070313945 0.015777992 1.4020116
v 0.0777861 0.014092893 1.4071848
v 0.07416238 0.006394758 1.409357
v 0.07046064 0.0016132612 1.4038239
v -0.08090317 0.012125991 1.407447
v -0.07654014 0.0046708006 1.4091897
v -0.07270957 0.0009525115 1.4039854
v -0.06928406 -0.001054065 1.3964446
v -0.06381202 0.007993081 1.3621055
v -0.05954061 0.0020441283 1.3629218
v -0.062304415 0.015053241 1.3710583
v -0.071448855 0.0166354 1.3673811
v -0.06560915 0.022399286 1.3816234
v -0.077363476 0.024008302 1.3773683
v -0.08053778 0.026536196 1.3874333
v -0.06822807 0.023683643 1.3911778
v -0.080515556 0.022341736 1.3990633
v -0.070313945 0.015777992 1.4020116
v -0.0777861 0.014092893 1.4071848
v -0.07416238 0.006394758 1.409357
v -0.07046064 0.0016132612 1.4038239
vt 0.49445057 0.7967285
vt 0.4894216 0.7921227
vt 0.48740578 0.7929553
vt 0.4894216 0.7921227
vt 0.48498368 0.78438187
vt 0.49445057 0.7967285
vt 0.4941039 0.799234
vt 0.5036602 0.79777116
vt 0.49445057 0.7967285
vt 0.50166774 0.7951202
vt 0.5124054 0.7893183
vt 0.50166774 0.7951202
vt 0.5089059 0.7882042
vt 0.51285005 0.77763945
vt 0.5089059 0.7882042
vt 0.5164473 0.7778103
vt 0.5106671 0.768409
vt 0.51285005 0.77763945
vt 0.51374793 0.76706386
vt 0.50533724 0.7567711
vt 0.5106671 0.768409
vt 0.5035355 0.7587961
vt 0.49575806 0.74942094
vt 0.5035355 0.7587961
vt 0.4939952 0.75168157
vt 0.4939952 0.75168157
vt 0.48597288 0.75007313
vt 0.48947048 0.74738914
vt 0.5089059 0.7882042
vt 0.48498368 0.78438187
vt 0.50166774 0.7951202
vt 0.48597288 0.75007313
vt 0.4850211 0.7600582
vt 0.4939952 0.75168157
vt 0.5035355 0.7587961
vt 0.4939952 0.75168157
vt 0.5106671 0.768409
vt 0.4849298 0.76831657
vt 0.51285005 0.77763945
vt 0.5106671 0.768409
vt 0.48493218 0.7766131
vt 0.48498368 0.78438187
vt 0.5089059 0.7882042
vt 0.51285005 0.77763945
vt 0.49445057 0.7967285
vt 0.48740578 0.7929553
vt 0.4894216 0.7921227
vt 0.4894216 0.7921227
vt 0.48498368 0.78438187
vt 0.49445057 0.7967285
vt 0.4941039 0.799234
vt 0.5036602 0.79777116
vt 0.49445057 0.7967285
vt 0.50166774 0.7951202
vt 0.5124054 0.7893183
vt 0.50166774 0.7951202
vt 0.5089059 0.7882042
vt 0.51285005 0.77763945
vt 0.5089059 0.7882042
vt 0.5164473 0.77781034
vt 0.5106671 0.768409
vt 0.51285005 0.77763945
vt 0.51374793 0.76706386
vt 0.50533724 0.7567711
vt 0.5106671 0.768409
vt 0.5035355 0.7587961
vt 0.49575806 0.74942094
vt 0.5035355 0.7587961
vt 0.4939952 0.75168157
vt 0.4939952 0.75168157
vt 0.48597288 0.75007313
vt 0.48947048 0.74738914
vt 0.5089059 0.7882042
vt 0.50166774 0.7951202
vt 0.48498368 0.78438187
vt 0.48597288 0.75007313
vt 0.4939952 0.75168157
vt 0.4850211 0.7600582
vt 0.5035355 0.7587961
vt 0.4939952 0.75168157
vt 0.5106671 0.768409
vt 0.4849298 0.76831657
vt 0.5106671 0.768409
vt 0.51285005 0.77763945
vt 0.48493195 0.7766131
vt 0.51285005 0.77763945
vt 0.5089059 0.7882042
vt 0.48498368 0.78438187
vt 0.50166774 0.7951202
vt 0.48498368 0.78438187
vt 0.4894216 0.7921227
vt 0.49445057 0.7967285
vt 0.4734757 0.7496252
vt 0.47552443 0.7600284
vt 0.47915912 0.74640083
vt 0.46638775 0.75892407
vt 0.47379208 0.7721536
vt 0.46223974 0.77090347
vt 0.46123075 0.7808575
vt 0.4733708 0.7813539
vt 0.4646926 0.7917173
vt 0.47605085 0.79357684
vt 0.47117162 0.8005632
vt 0.4779687 0.8049611
vt 0.48526192 0.80298406
vt 0.50166774 0.7951202
vt 0.49445057 0.7967285
vt 0.4894216 0.7921227
vt 0.48498368 0.78438187
vt 0.4734757 0.74962515
vt 0.47915912 0.74640083
vt 0.47552443 0.7600284
vt 0.46638775 0.75892407
vt 0.47379208 0.7721536
vt 0.46223974 0.77090347
vt 0.46123075 0.7808575
vt 0.4733708 0.7813539
vt 0.4646926 0.7917173
vt 0.47605085 0.79357684
vt 0.47117162 0.8005632
vt 0.4779687 0.8049611
vt 0.48526192 0.80298406
vn -0.13161698 -0.22696471 0.9649684
vn -0.268943 -0.77577716 0.57082355
vn -0.49686015 -0.64361775 0.5821393
vn -0.268943 -0.77577716 0.57082355
vn -0.28645492 -0.8855308 0.36575773
vn -0.13161698 -0.22696471 0.9649684
vn -0.42401335 -0.023719285 0.90534526
vn -0.037710816 0.52775544 0.8485589
vn -0.13161698 -0.22696471 0.9649684
vn 0.23917998 0.39403906 0.88742673
vn 0.15080133 0.82770115 0.54052734
vn 0.23917998 0.39403906 0.88742673
vn 0.45545456 0.6998709 0.55022
vn 0.53913945 0.8418961 -0.023227818
vn 0.45545456 0.6998709 0.55022
vn 0.21183853 0.97716355 0.016608937
vn 0.46909422 0.69450223 -0.545543
vn 0.53913945 0.8418961 -0.023227818
vn 0.124396145 0.879352 -0.45963645
vn 0.050692026 0.6601676 -0.7494058
vn 0.46909422 0.69450223 -0.545543
vn 0.39169803 0.43289596 -0.8118952
vn -0.27760717 0.39191702 -0.8771176
vn 0.39169803 0.43289596 -0.8118952
vn 0.05763384 0.11672454 -0.99149066
vn 0.05763384 0.11672454 -0.99149066
vn 0.9160064 0.2804286 -0.28686592
vn 0.8125205 0.2628294 -0.52031827
vn 0.822504 -0.53697234 -0.18747771
vn 0.9941128 0.0016599939 -0.10833769
vn 0.8156738 -0.53515977 -0.2197278
vn 0.9160064 0.2804286 -0.28686592
vn 0.94817406 0.09843832 -0.3021187
vn 0.81005156 -0.5508785 -0.20087141
vn 0.8163061 -0.5469278 -0.1857801
vn 0.81005156 -0.5508785 -0.20087141
vn 0.8229138 -0.5365336 -0.18693478
vn 0.94487345 0.114647575 -0.3067084
vn 0.82545173 -0.53445387 -0.18162714
vn 0.8229138 -0.5365336 -0.18693478
vn 0.98185295 0.07192474 -0.17547563
vn 0.9941128 0.0016599939 -0.10833769
vn 0.822504 -0.53697234 -0.18747771
vn 0.82545173 -0.53445387 -0.18162714
vn 0.13161701 -0.22696471 0.9649684
vn 0.49686015 -0.64361775 0.5821393
vn 0.268943 -0.77577716 0.57082355
vn 0.268943 -0.77577716 0.57082355
vn 0.28645492 -0.8855308 0.36575773
vn 0.13161701 -0.22696471 0.9649684
vn 0.42401338 -0.023719272 0.90534526
vn 0.03771084 0.52775544 0.8485589
vn 0.13161701 -0.22696471 0.9649684
vn -0.23917995 0.39403906 0.88742673
vn -0.15080133 0.82770115 0.54052734
vn -0.23917995 0.39403906 0.88742673
vn -0.45545453 0.6998709 0.55022
vn -0.53913945 0.8418961 -0.023227798
vn -0.45545453 0.6998709 0.55022
vn -0.21183853 0.97716355 0.016608952
vn -0.46909422 0.69450223 -0.545543
vn -0.53913945 0.8418961 -0.023227798
vn -0.12439617 0.87935203 -0.45963636
vn -0.050692037 0.6601675 -0.7494058
vn -0.46909422 0.69450223 -0.545543
vn -0.39169803 0.43289596 -0.8118952
vn 0.27760717 0.391917 -0.8771176
vn -0.39169803 0.43289596 -0.8118952
vn -0.057633832 0.11672453 -0.99149066
vn -0.057633832 0.11672453 -0.99149066
vn -0.9160068 0.28042725 -0.28686607
vn -0.8125205 0.2628294 -0.52031827
vn -0.822504 -0.53697234 -0.18747771
vn -0.8156738 -0.53515977 -0.2197278
vn -0.99394614 0.0012717872 -0.10986097
vn -0.9160068 0.28042725 -0.28686607
vn -0.81005156 -0.5508785 -0.20087141
vn -0.94817406 0.09843832 -0.3021187
vn -0.8163061 -0.5469278 -0.18578014
vn -0.81005156 -0.5508785 -0.20087141
vn -0.8229138 -0.5365336 -0.1869348
vn -0.94487345 0.114647575 -0.3067084
vn -0.8229138 -0.5365336 -0.1869348
vn -0.82545173 -0.53445387 -0.18162714
vn -0.98134667 0.071313635 -0.17853071
vn -0.82545173 -0.53445387 -0.18162714
vn -0.822504 -0.53697234 -0.18747771
vn -0.99394614 0.0012717872 -0.10986097
vn 0.8156738 -0.53515977 -0.2197278
vn 0.9941128 0.0016599939 -0.10833769
vn 0.8175215 -0.5289034 -0.2278587
vn 0.8175215 -0.5289035 -0.2278587
vn -0.27760717 0.39191702 -0.8771176
vn -0.39758185 0.7453669 -0.5351232
vn 0.8125205 0.2628294 -0.52031827
vn 0.050692026 0.6601676 -0.7494058
vn -0.2657165 0.91748565 -0.295998
vn 0.124396145 0.879352 -0.45963645
vn 0.21183853 0.97716355 0.016608937
vn -0.22694595 0.95179325 0.20636131
vn 0.15080133 0.82770115 0.54052734
vn -0.4413288 0.5910064 0.67523354
vn -0.037710816 0.52775544 0.8485589
vn -0.42401335 -0.023719285 0.90534526
vn -0.49686015 -0.64361775 0.5821393
vn -0.8156738 -0.53515977 -0.2197278
vn -0.8175215 -0.5289034 -0.2278587
vn -0.8175215 -0.5289034 -0.22785874
vn -0.99394614 0.0012717872 -0.10986097
vn 0.27760717 0.391917 -0.8771176
vn -0.8125205 0.2628294 -0.52031827
vn 0.39758185 0.7453669 -0.5351232
vn -0.050692037 0.6601675 -0.7494058
vn 0.26571646 0.91748565 -0.29599795
vn -0.12439617 0.87935203 -0.45963636
vn -0.21183853 0.97716355 0.016608952
vn 0.22694595 0.95179325 0.20636132
vn -0.15080133 0.82770115 0.54052734
vn 0.4413288 0.5910064 0.67523354
vn 0.03771084 0.52775544 0.8485589
vn 0.42401338 -0.023719272 0.90534526
vn 0.49686015 -0.64361775 0.5821393
g SeparateMesh_NPC_GrannyLeisha_Model_GrannyLeisha_Ear_LOD1_0
f 3/3/3 2/2/2 1/1/1
f 3/3/3 5/5/5 4/4/4
f 7/7/7 3/3/3 6/6/6
f 7/7/7 9/9/9 8/8/8
f 9/9/9 10/10/10 8/8/8
f 8/8/8 12/12/12 11/11/11
f 12/12/12 13/13/13 11/11/11
f 11/11/11 15/15/15 14/14/14
f 16/16/16 11/11/11 14/14/14
f 16/16/16 18/18/18 17/17/17
f 19/19/19 16/16/16 17/17/17
f 19/19/19 21/21/21 20/20/20
f 21/21/21 22/22/22 20/20/20
f 20/20/20 24/24/24 23/23/23
f 24/24/24 25/25/25 23/23/23
f 27/27/27 23/23/23 26/26/26
f 27/27/27 28/28/28 23/23/23
f 31/31/31 30/30/30 29/29/29
f 34/34/34 33/33/33 32/32/32
f 33/33/33 36/36/36 35/35/35
f 33/33/33 35/35/35 37/37/37
f 38/38/38 33/33/33 37/37/37
f 40/40/40 39/39/39 38/38/38
f 39/39/39 41/41/41 38/38/38
f 43/43/43 42/42/42 41/41/41
f 44/44/44 43/43/43 41/41/41
f 47/47/47 46/46/46 45/45/45
f 49/49/49 46/46/46 48/48/48
f 46/46/46 51/51/51 50/50/50
f 53/53/53 51/51/51 52/52/52
f 54/54/54 53/53/53 52/52/52
f 56/56/56 52/52/52 55/55/55
f 57/57/57 56/56/56 55/55/55
f 59/59/59 55/55/55 58/58/58
f 55/55/55 60/60/60 58/58/58
f 62/62/62 60/60/60 61/61/61
f 60/60/60 63/63/63 61/61/61
f 65/65/65 63/63/63 64/64/64
f 66/66/66 65/65/65 64/64/64
f 68/68/68 64/64/64 67/67/67
f 69/69/69 68/68/68 67/67/67
f 67/67/67 71/71/71 70/70/70
f 72/72/72 71/71/71 67/67/67
f 75/75/75 74/74/74 73/73/73
f 78/78/78 77/77/77 76/76/76
f 80/80/80 78/78/78 79/79/79
f 79/79/79 78/78/78 81/81/81
f 78/78/78 82/82/82 81/81/81
f 84/84/84 83/83/83 82/82/82
f 85/85/85 84/84/84 82/82/82
f 87/87/87 86/86/86 85/85/85
f 88/88/88 87/87/87 85/85/85
f 91/91/91 90/90/90 89/89/89
f 92/92/92 91/91/91 89/89/89
f 95/95/95 94/94/94 93/93/93
f 94/94/94 96/96/96 93/93/93
f 96/96/96 94/94/94 97/97/97
f 98/98/98 96/96/96 97/97/97
f 99/99/99 98/98/98 97/97/97
f 100/100/100 99/99/99 97/97/97
f 101/101/101 99/99/99 100/100/100
f 102/102/102 101/101/101 100/100/100
f 102/102/102 103/103/103 101/101/101
f 104/104/104 103/103/103 102/102/102
f 102/102/102 105/105/105 104/104/104
f 108/108/108 107/107/107 106/106/106
f 109/109/109 108/108/108 106/106/106
f 112/112/112 111/111/111 110/110/110
f 113/113/113 112/112/112 110/110/110
f 112/112/112 113/113/113 114/114/114
f 113/113/113 115/115/115 114/114/114
f 115/115/115 116/116/116 114/114/114
f 116/116/116 117/117/117 114/114/114
f 116/116/116 118/118/118 117/117/117
f 118/118/118 119/119/119 117/117/117
f 120/120/120 119/119/119 118/118/118
f 120/120/120 121/121/121 119/119/119
f 122/122/122 119/119/119 121/121/121
