g SkyScraper_Prop_Billboard_79
v 0.5795251 11.359204 -0.004229411
v 0.5560461 11.359204 -0.004229411
v 0.5560461 8.917954 -0.0042298096
v 0.5795251 8.917954 -0.0042298096
v -0.85307616 8.900863 0.033834305
v 0.85307616 8.871249 0.01691764
v -0.85307616 8.871249 0.01691764
v 0.85307616 8.900863 0.033834152
v -0.85307616 8.930494 0.016917653
v 0.85307616 8.930494 0.016917653
v -0.85307616 8.93049 -0.016915353
v 0.85307616 8.93049 -0.016915353
v -0.85307616 8.900863 -0.033832014
v 0.85307616 8.900863 -0.03383186
v -0.85307616 8.871249 -0.016915366
v 0.85307616 8.871249 -0.016915366
v -0.85307616 8.871249 0.01691764
v 0.85307616 8.871249 0.01691764
v -0.85307616 8.900863 -0.033832014
v -0.85307616 8.93049 -0.016915353
v -0.85307616 8.930494 0.016917653
v -0.85307616 8.900863 0.033834305
v -0.85307616 8.871249 -0.016915366
v -0.85307616 8.871249 0.01691764
v 0.85307616 8.930494 0.016917653
v 0.85307616 8.93049 -0.016915353
v 0.85307616 8.900863 -0.03383186
v 0.85307616 8.900863 0.033834152
v 0.85307616 8.871249 0.01691764
v 0.85307616 8.871249 -0.016915366
v -0.5512793 11.359204 -0.004229411
v -0.5747583 11.359204 -0.004229411
v -0.5747583 8.917954 -0.0042298096
v -0.5512793 8.917954 -0.0042298096
v -0.5747583 11.359204 0.004232503
v -0.5512793 11.359204 0.004232503
v -0.5512793 8.917954 0.0042321044
v -0.5747583 8.917954 0.0042321044
v 0.5795251 8.917954 0.0042321044
v 0.5560461 8.917954 0.0042321044
v 0.5560461 11.359204 0.004232503
v 0.5795251 11.359204 0.004232503
v -0.27906492 9.1679584E-07 -0.007785797
v -0.83719236 0.635907 -0.007785723
v -0.83719236 9.1679584E-07 -0.007785827
v -0.27906492 0.635907 -0.0077856933
v 0.27906248 9.1679584E-07 -0.007785768
v -0.83719236 1.271813 -0.0077856192
v 0.27906248 0.6359076 -0.007785664
v 0.8371899 9.1679584E-07 -0.007785738
v 0.8371899 0.6359076 -0.007785634
v -0.27906492 1.271813 -0.0077855894
v -0.83719236 1.9077188 -0.0077855173
v 0.27906248 1.2718133 -0.00778556
v 0.8371899 1.2718133 -0.0077855303
v -0.27906492 1.9077188 -0.0077854875
v -0.83719236 2.5436244 -0.007785414
v 0.27906248 1.907719 -0.0077854586
v 0.8371899 1.907719 -0.007785429
v -0.27906492 2.5436244 -0.007785384
v -0.83719236 3.1795304 -0.0077853086
v 0.27906248 2.5436249 -0.0077853547
v 0.8371899 2.5436249 -0.007785325
v -0.27906492 3.1795304 -0.007785279
v -0.83719236 3.8154364 -0.0077852053
v 0.27906248 3.1795306 -0.00778525
v 0.8371899 3.1795306 -0.00778522
v -0.27906492 3.8154364 -0.0077851755
v -0.83719236 4.451342 -0.0077851014
v 0.27906248 3.8154364 -0.007785146
v 0.8371899 3.8154364 -0.0077851163
v -0.27906492 4.451342 -0.0077850716
v -0.83719236 5.0872483 -0.0077849976
v 0.27906248 4.4513426 -0.0077850423
v 0.8371899 4.4513426 -0.0077850125
v -0.27906492 5.0872483 -0.007784968
v -0.83719236 5.723154 -0.0077848956
v 0.27906248 5.0872483 -0.0077849384
v 0.8371899 5.0872483 -0.0077849086
v -0.27906492 5.723154 -0.007784866
v -0.83719236 6.35906 -0.007784792
v 0.27906248 5.723154 -0.007784837
v 0.8371899 5.723154 -0.007784807
v -0.27906492 6.35906 -0.0077847624
v -0.83719236 6.9949656 -0.007784687
v 0.27906248 6.35906 -0.007784733
v 0.8371899 6.35906 -0.0077847033
v -0.27906492 6.9949656 -0.007784657
v -0.83719236 7.6308713 -0.0077845836
v 0.27906248 6.9949656 -0.0077846283
v 0.8371899 6.9949656 -0.0077845985
v -0.27906492 7.6308713 -0.007784554
v -0.83719236 8.266777 -0.0077844798
v 0.27906248 7.6308713 -0.0077845245
v 0.8371899 7.6308713 -0.0077844947
v -0.27906492 8.266777 -0.00778445
v -0.83719236 8.902683 -0.007784378
v -0.27906492 8.902683 -0.007784348
v 0.27906248 8.266778 -0.0077844206
v 0.8371899 8.266778 -0.007784391
v 0.27906248 8.902683 -0.0077843186
v 0.8371899 8.902683 -0.007784289
v -0.27906492 8.902683 0.0077866367
v -0.83719236 8.266778 0.0077865645
v -0.83719236 8.902683 0.0077866665
v -0.27906492 8.266778 0.0077865347
v 0.27906248 8.902683 0.0077866074
v -0.83719236 7.6308713 0.007786461
v 0.27906248 8.266777 0.007786506
v 0.8371899 8.902683 0.0077865776
v 0.8371899 8.266777 0.007786476
v -0.27906492 7.6308713 0.0077864313
v -0.83719236 6.9949656 0.0077863573
v 0.27906248 7.6308713 0.007786402
v 0.8371899 7.6308713 0.007786372
v -0.27906492 6.9949656 0.0077863275
v -0.83719236 6.35906 0.0077862525
v 0.27906248 6.9949656 0.007786298
v 0.8371899 6.9949656 0.0077862684
v -0.27906492 6.35906 0.0077862227
v -0.83719236 5.723154 0.0077861487
v 0.27906248 6.35906 0.0077861934
v 0.8371899 6.35906 0.0077861636
v -0.27906492 5.723154 0.007786119
v -0.83719236 5.0872483 0.0077860467
v 0.27906248 5.723154 0.0077860896
v 0.8371899 5.723154 0.0077860598
v -0.27906492 5.0872483 0.007786017
v -0.83719236 4.4513426 0.007785943
v 0.27906248 5.0872483 0.0077859876
v 0.8371899 5.0872483 0.007785958
v -0.27906492 4.4513426 0.007785913
v -0.83719236 3.8154364 0.0077858395
v 0.27906248 4.451342 0.007785884
v 0.8371899 4.451342 0.0077858544
v -0.27906492 3.8154364 0.0077858097
v -0.83719236 3.1795306 0.0077857357
v 0.27906248 3.8154364 0.0077857804
v 0.8371899 3.8154364 0.0077857506
v -0.27906492 3.1795306 0.007785706
v -0.83719236 2.5436249 0.007785631
v 0.27906248 3.1795304 0.0077856765
v 0.8371899 3.1795304 0.0077856467
v -0.27906492 2.5436249 0.007785601
v -0.83719236 1.907719 0.007785527
v 0.27906248 2.5436244 0.0077855717
v 0.8371899 2.5436244 0.007785542
v -0.27906492 1.907719 0.0077854972
v -0.83719236 1.2718133 0.007785425
v 0.27906248 1.9077188 0.007785468
v 0.8371899 1.9077188 0.007785438
v -0.27906492 1.2718133 0.0077853953
v -0.83719236 0.6359076 0.007785321
v 0.27906248 1.271813 0.007785366
v 0.8371899 1.271813 0.007785336
v -0.27906492 0.6359076 0.0077852914
v -0.83719236 9.14259E-07 0.0077852174
v -0.27906492 9.14259E-07 0.0077851876
v 0.27906248 0.635907 0.007785262
v 0.8371899 0.635907 0.0077852323
v 0.27906248 9.14259E-07 0.0077851587
v 0.8371899 9.14259E-07 0.007785129
v -0.85307616 0.0052484157 -0.016915744
v 0.85307616 0.0052532926 0.016917262
v -0.85307616 0.0052532926 0.016917262
v 0.85307616 0.0052484157 -0.016915744
v -0.85307616 -0.024378657 -0.033832405
v 0.85307616 -0.024378657 -0.033832252
v -0.85307616 -0.053991694 -0.016915753
v 0.85307616 -0.053991694 -0.016915753
v -0.85307616 -0.0539917 0.016917253
v 0.85307616 -0.0539917 0.016917253
v -0.85307616 -0.024378667 0.033833914
v 0.85307616 -0.024378667 0.03383376
v -0.85307616 0.0052532926 0.016917262
v 0.85307616 0.0052532926 0.016917262
v -0.85307616 -0.024378657 -0.033832405
v -0.85307616 0.0052484157 -0.016915744
v -0.85307616 0.0052532926 0.016917262
v -0.85307616 -0.024378667 0.033833914
v -0.85307616 -0.053991694 -0.016915753
v -0.85307616 -0.0539917 0.016917253
v 0.85307616 -0.024378667 0.03383376
v 0.85307616 0.0052532926 0.016917262
v 0.85307616 0.0052484157 -0.016915744
v 0.85307616 -0.024378657 -0.033832252
v 0.85307616 -0.0539917 0.016917253
v 0.85307616 -0.053991694 -0.016915753
vt 0.98186576 0.60707474
vt 0.9763845 0.60707474
vt 0.9763845 0.8772566
vt 0.98186576 0.8772566
vt 0.9773955 0.25260192
vt 0.9741017 0.010073735
vt 0.9741017 0.25260192
vt 0.9773955 0.010073735
vt 0.9806908 0.25260192
vt 0.9806908 0.010073735
vt 0.98395807 0.25260192
vt 0.98395807 0.010073735
vt 0.9872529 0.25260192
vt 0.9872529 0.010073735
vt 0.9905464 0.25260192
vt 0.9905464 0.010073735
vt 0.9938138 0.25260192
vt 0.9938136 0.010073735
vt 0.99339193 0.2659931
vt 0.9899886 0.2600342
vt 0.9831819 0.26003373
vt 0.9797797 0.26599413
vt 0.9899897 0.27194977
vt 0.9831827 0.27195016
vt 0.97779816 0.28952855
vt 0.98460495 0.28952816
vt 0.98800826 0.2835693
vt 0.97439605 0.28356823
vt 0.97779894 0.27761212
vt 0.984606 0.27761278
vt 0.98186266 0.60707366
vt 0.9763814 0.60707366
vt 0.9763814 0.87725574
vt 0.98186266 0.87725574
vt 0.9891262 0.8772566
vt 0.99460745 0.8772566
vt 0.99460745 0.6070743
vt 0.9891262 0.6070743
vt 0.98186576 0.60707474
vt 0.9763845 0.60707474
vt 0.9763845 0.8772566
vt 0.98186576 0.8772566
vt 0.32599044 0.007009452
vt 0.38776234 0.077379316
vt 0.38776234 0.0070094513
vt 0.32599044 0.077379316
vt 0.26421672 0.0070094513
vt 0.38776234 0.14773238
vt 0.26421672 0.077379376
vt 0.20244487 0.0070094513
vt 0.20244487 0.077379376
vt 0.32599044 0.14773238
vt 0.38776237 0.21806778
vt 0.26421672 0.14773244
vt 0.20244487 0.14773244
vt 0.32599047 0.21806778
vt 0.38776243 0.28838596
vt 0.26421672 0.21806781
vt 0.20244487 0.21806781
vt 0.3259905 0.28838596
vt 0.38776246 0.35868916
vt 0.26421678 0.288386
vt 0.2024449 0.28838602
vt 0.3259905 0.35868916
vt 0.38776246 0.42898163
vt 0.26421678 0.35868922
vt 0.20244493 0.35868925
vt 0.32599056 0.42898163
vt 0.3877625 0.49926862
vt 0.26421678 0.42898166
vt 0.20244493 0.4289817
vt 0.32599056 0.49926862
vt 0.38776252 0.5695551
vt 0.26421684 0.49926862
vt 0.20244496 0.49926862
vt 0.32599056 0.5695551
vt 0.38776252 0.63984776
vt 0.26421684 0.5695551
vt 0.20244499 0.5695551
vt 0.3259906 0.63984776
vt 0.38776252 0.71015114
vt 0.26421684 0.63984776
vt 0.20244499 0.63984776
vt 0.32599062 0.71015114
vt 0.38776252 0.78046936
vt 0.26421684 0.71015114
vt 0.20244499 0.71015114
vt 0.32599062 0.78046936
vt 0.38776252 0.85080487
vt 0.2642169 0.78046936
vt 0.20244499 0.78046936
vt 0.32599062 0.85080487
vt 0.38776252 0.9211582
vt 0.2642169 0.8508048
vt 0.20244502 0.8508048
vt 0.32599062 0.92115825
vt 0.38776252 0.9915282
vt 0.32599062 0.9915282
vt 0.2642169 0.92115843
vt 0.20244505 0.9211583
vt 0.2642169 0.99152833
vt 0.20244505 0.99152833
vt 0.26421732 0.99152833
vt 0.20244542 0.9211583
vt 0.20244545 0.99152833
vt 0.2642173 0.92115843
vt 0.32599106 0.9915282
vt 0.2024454 0.8508048
vt 0.32599106 0.92115825
vt 0.38776296 0.9915282
vt 0.38776293 0.9211582
vt 0.2642173 0.8508048
vt 0.2024454 0.78046936
vt 0.32599106 0.85080487
vt 0.3877629 0.85080487
vt 0.26421726 0.78046936
vt 0.2024454 0.71015114
vt 0.32599103 0.78046936
vt 0.38776287 0.78046936
vt 0.26421726 0.71015114
vt 0.20244537 0.63984776
vt 0.32599103 0.71015114
vt 0.38776287 0.71015114
vt 0.26421726 0.63984776
vt 0.20244534 0.5695551
vt 0.325991 0.63984776
vt 0.38776284 0.63984776
vt 0.2642172 0.5695551
vt 0.20244531 0.49926862
vt 0.32599097 0.5695551
vt 0.3877628 0.5695551
vt 0.2642172 0.49926862
vt 0.20244528 0.4289817
vt 0.32599095 0.49926862
vt 0.3877628 0.49926862
vt 0.26421714 0.42898166
vt 0.20244525 0.35868922
vt 0.3259909 0.42898163
vt 0.38776276 0.42898163
vt 0.26421714 0.3586892
vt 0.20244525 0.28838596
vt 0.3259909 0.35868916
vt 0.38776276 0.35868916
vt 0.26421708 0.28838596
vt 0.20244522 0.21806778
vt 0.32599086 0.28838593
vt 0.38776273 0.28838596
vt 0.26421708 0.21806778
vt 0.2024452 0.14773238
vt 0.32599083 0.21806774
vt 0.3877627 0.21806774
vt 0.26421708 0.14773238
vt 0.2024452 0.07737933
vt 0.32599083 0.14773233
vt 0.3877627 0.14773233
vt 0.26421702 0.07737933
vt 0.2024452 0.0070094103
vt 0.26421702 0.0070094103
vt 0.3259908 0.07737927
vt 0.38776267 0.07737927
vt 0.3259908 0.007009413
vt 0.38776267 0.007009414
vt 0.9905464 0.29571778
vt 0.9938138 0.538246
vt 0.9938138 0.29571778
vt 0.9905464 0.538246
vt 0.9872517 0.29571778
vt 0.9872517 0.538246
vt 0.98395807 0.29571778
vt 0.98395807 0.538246
vt 0.9806908 0.29571778
vt 0.9806908 0.538246
vt 0.97739726 0.29571778
vt 0.97739726 0.538246
vt 0.9741017 0.29571778
vt 0.9741017 0.538246
vt 0.99459034 0.56000674
vt 0.9910372 0.5537853
vt 0.98393124 0.5537847
vt 0.9803789 0.5600076
vt 0.9910381 0.5662255
vt 0.98393214 0.566226
vt 0.9750524 0.57885796
vt 0.9786047 0.58508074
vt 0.9857106 0.58508015
vt 0.9892637 0.5788588
vt 0.97860557 0.57263947
vt 0.9857115 0.57264006
vn -0 1.632185E-07 -1
vn -0 1.632185E-07 -1
vn -0 1.632185E-07 -1
vn -0 1.632185E-07 -1
vn -0.6106781 -0.00010903337 0.79187894
vn 0.6096629 -0.68555427 0.39790264
vn -0.60966355 -0.68555385 0.39790234
vn 0.6106795 -0.00010903321 0.7918778
vn -0.60963327 0.6855479 0.39795896
vn 0.60963255 0.68554837 0.39795923
vn -0.60965925 0.68548733 -0.3980235
vn 0.60965854 0.6854878 -0.39802378
vn -0.61067295 -8.0678416E-05 -0.7918828
vn 0.61067444 -8.067831E-05 -0.7918818
vn -0.6096636 -0.6855538 -0.39790258
vn 0.60966283 -0.6855542 -0.39790282
vn -0.60966355 -0.68555385 0.39790234
vn 0.6096629 -0.68555427 0.39790264
vn -0.61067295 -8.0678416E-05 -0.7918828
vn -0.60965925 0.68548733 -0.3980235
vn -0.60963327 0.6855479 0.39795896
vn -0.6106781 -0.00010903337 0.79187894
vn -0.6096636 -0.6855538 -0.39790258
vn -0.60966355 -0.68555385 0.39790234
vn 0.60963255 0.68554837 0.39795923
vn 0.60965854 0.6854878 -0.39802378
vn 0.61067444 -8.067831E-05 -0.7918818
vn 0.6106795 -0.00010903321 0.7918778
vn 0.6096629 -0.68555427 0.39790264
vn 0.60966283 -0.6855542 -0.39790282
vn -0 1.632185E-07 -1
vn -0 1.632185E-07 -1
vn -0 1.632185E-07 -1
vn -0 1.632185E-07 -1
vn -0 -1.632185E-07 1
vn -0 -1.632185E-07 1
vn -0 -1.632185E-07 1
vn -0 -1.632185E-07 1
vn -0 -1.632185E-07 1
vn -0 -1.632185E-07 1
vn -0 -1.632185E-07 1
vn -0 -1.632185E-07 1
vn -0 1.6309336E-07 -1
vn -0 1.630934E-07 -1
vn -0 1.630934E-07 -1
vn -0 1.6309338E-07 -1
vn -0 1.6309328E-07 -1
vn -0 1.6168748E-07 -1
vn -0 1.6309336E-07 -1
vn -0 1.6309323E-07 -1
vn -0 1.6309336E-07 -1
vn -0 1.6168748E-07 -1
vn -0 1.6168751E-07 -1
vn -0 1.616875E-07 -1
vn -0 1.6168751E-07 -1
vn -0 1.6168751E-07 -1
vn -0 1.6403081E-07 -1
vn -0 1.6168751E-07 -1
vn -0 1.6168751E-07 -1
vn -0 1.6403081E-07 -1
vn -0 1.6403077E-07 -1
vn -0 1.640308E-07 -1
vn -0 1.6403081E-07 -1
vn -0 1.6403077E-07 -1
vn -0 1.6309346E-07 -1
vn -0 1.640308E-07 -1
vn -0 1.6403081E-07 -1
vn -0 1.6309346E-07 -1
vn -0 1.6309346E-07 -1
vn -0 1.6309346E-07 -1
vn -0 1.6309346E-07 -1
vn -0 1.6309343E-07 -1
vn -0 1.6168744E-07 -1
vn -0 1.6309346E-07 -1
vn -0 1.6309346E-07 -1
vn -0 1.6168744E-07 -1
vn -0 1.6168748E-07 -1
vn -0 1.6168745E-07 -1
vn -0 1.6168748E-07 -1
vn -0 1.6168748E-07 -1
vn -0 1.6403081E-07 -1
vn -0 1.6168748E-07 -1
vn -0 1.6168748E-07 -1
vn -0 1.6403081E-07 -1
vn -0 1.6403081E-07 -1
vn -0 1.6403081E-07 -1
vn -0 1.6403081E-07 -1
vn -0 1.6403081E-07 -1
vn -0 1.6309349E-07 -1
vn -0 1.6403081E-07 -1
vn -0 1.6403081E-07 -1
vn -0 1.6309349E-07 -1
vn -0 1.6168744E-07 -1
vn -0 1.6309343E-07 -1
vn -0 1.630934E-07 -1
vn -0 1.6168742E-07 -1
vn -0 1.6028137E-07 -1
vn -0 1.602814E-07 -1
vn -0 1.6168744E-07 -1
vn -0 1.6168744E-07 -1
vn -0 1.6028147E-07 -1
vn -0 1.6028153E-07 -1
vn -0 -1.6028147E-07 1
vn -0 -1.6168744E-07 1
vn -0 -1.6028153E-07 1
vn -0 -1.6168744E-07 1
vn -0 -1.602814E-07 1
vn -0 -1.630934E-07 1
vn -0 -1.6168742E-07 1
vn -0 -1.6028137E-07 1
vn -0 -1.6168744E-07 1
vn -0 -1.6309343E-07 1
vn -0 -1.6403081E-07 1
vn -0 -1.6309349E-07 1
vn -0 -1.6309349E-07 1
vn -0 -1.6403081E-07 1
vn -0 -1.6403081E-07 1
vn -0 -1.6403081E-07 1
vn -0 -1.6403081E-07 1
vn -0 -1.6403081E-07 1
vn -0 -1.6168748E-07 1
vn -0 -1.6403081E-07 1
vn -0 -1.6403081E-07 1
vn -0 -1.6168748E-07 1
vn -0 -1.6168748E-07 1
vn -0 -1.6168748E-07 1
vn -0 -1.6168748E-07 1
vn -0 -1.6168745E-07 1
vn -0 -1.6309346E-07 1
vn -0 -1.6168744E-07 1
vn -0 -1.6168744E-07 1
vn -0 -1.6309343E-07 1
vn -0 -1.6309346E-07 1
vn -0 -1.6309346E-07 1
vn -0 -1.6309346E-07 1
vn -0 -1.6309346E-07 1
vn -0 -1.6403081E-07 1
vn -0 -1.6309346E-07 1
vn -0 -1.6309346E-07 1
vn -0 -1.640308E-07 1
vn -0 -1.6403081E-07 1
vn -0 -1.6403077E-07 1
vn -0 -1.6403077E-07 1
vn -0 -1.640308E-07 1
vn -0 -1.6168751E-07 1
vn -0 -1.6403081E-07 1
vn -0 -1.6403081E-07 1
vn -0 -1.6168751E-07 1
vn -0 -1.6168751E-07 1
vn -0 -1.6168751E-07 1
vn -0 -1.6168751E-07 1
vn -0 -1.616875E-07 1
vn -0 -1.6309336E-07 1
vn -0 -1.6168748E-07 1
vn -0 -1.6168748E-07 1
vn -0 -1.6309336E-07 1
vn -0 -1.6309323E-07 1
vn -0 -1.6309328E-07 1
vn -0 -1.6309338E-07 1
vn -0 -1.630934E-07 1
vn -0 -1.6309336E-07 1
vn -0 -1.630934E-07 1
vn -0.60965925 0.68548733 -0.39802337
vn 0.6096326 0.6855483 0.39795935
vn -0.6096333 0.68554777 0.39795905
vn 0.6096585 0.6854878 -0.39802366
vn -0.61067295 -8.071301E-05 -0.7918828
vn 0.6106744 -8.071291E-05 -0.7918818
vn -0.6096636 -0.6855538 -0.3979026
vn 0.60966283 -0.68555415 -0.39790282
vn -0.6096636 -0.6855539 0.3979023
vn 0.6096629 -0.6855543 0.39790255
vn -0.61067814 -0.00010901606 0.7918789
vn 0.6106796 -0.00010901589 0.79187775
vn -0.6096333 0.68554777 0.39795905
vn 0.6096326 0.6855483 0.39795935
vn -0.61067295 -8.071301E-05 -0.7918828
vn -0.60965925 0.68548733 -0.39802337
vn -0.6096333 0.68554777 0.39795905
vn -0.61067814 -0.00010901606 0.7918789
vn -0.6096636 -0.6855538 -0.3979026
vn -0.6096636 -0.6855539 0.3979023
vn 0.6106796 -0.00010901589 0.79187775
vn 0.6096326 0.6855483 0.39795935
vn 0.6096585 0.6854878 -0.39802366
vn 0.6106744 -8.071291E-05 -0.7918818
vn 0.6096629 -0.6855543 0.39790255
vn 0.60966283 -0.68555415 -0.39790282
g SkyScraper_Prop_Billboard_79_0
f 3/3/3 2/2/2 1/1/1
f 4/4/4 3/3/3 1/1/1
f 7/7/7 6/6/6 5/5/5
f 6/6/6 8/8/8 5/5/5
f 5/5/5 8/8/8 9/9/9
f 8/8/8 10/10/10 9/9/9
f 9/9/9 10/10/10 11/11/11
f 10/10/10 12/12/12 11/11/11
f 11/11/11 12/12/12 13/13/13
f 12/12/12 14/14/14 13/13/13
f 13/13/13 14/14/14 15/15/15
f 14/14/14 16/16/16 15/15/15
f 15/15/15 16/16/16 17/17/17
f 16/16/16 18/18/18 17/17/17
f 21/21/21 20/20/20 19/19/19
f 22/22/22 21/21/21 19/19/19
f 22/22/22 19/19/19 23/23/23
f 24/24/24 22/22/22 23/23/23
f 27/27/27 26/26/26 25/25/25
f 28/28/28 27/27/27 25/25/25
f 27/27/27 28/28/28 29/29/29
f 30/30/30 27/27/27 29/29/29
f 33/33/33 32/32/32 31/31/31
f 34/34/34 33/33/33 31/31/31
f 37/37/37 36/36/36 35/35/35
f 38/38/38 37/37/37 35/35/35
f 41/41/41 40/40/40 39/39/39
f 42/42/42 41/41/41 39/39/39
f 45/45/45 44/44/44 43/43/43
f 44/44/44 46/46/46 43/43/43
f 43/43/43 46/46/46 47/47/47
f 44/44/44 48/48/48 46/46/46
f 46/46/46 49/49/49 47/47/47
f 47/47/47 49/49/49 50/50/50
f 49/49/49 51/51/51 50/50/50
f 48/48/48 52/52/52 46/46/46
f 46/46/46 52/52/52 49/49/49
f 48/48/48 53/53/53 52/52/52
f 49/49/49 54/54/54 51/51/51
f 52/52/52 54/54/54 49/49/49
f 54/54/54 55/55/55 51/51/51
f 53/53/53 56/56/56 52/52/52
f 52/52/52 56/56/56 54/54/54
f 53/53/53 57/57/57 56/56/56
f 54/54/54 58/58/58 55/55/55
f 56/56/56 58/58/58 54/54/54
f 58/58/58 59/59/59 55/55/55
f 57/57/57 60/60/60 56/56/56
f 56/56/56 60/60/60 58/58/58
f 57/57/57 61/61/61 60/60/60
f 58/58/58 62/62/62 59/59/59
f 60/60/60 62/62/62 58/58/58
f 62/62/62 63/63/63 59/59/59
f 61/61/61 64/64/64 60/60/60
f 60/60/60 64/64/64 62/62/62
f 61/61/61 65/65/65 64/64/64
f 62/62/62 66/66/66 63/63/63
f 64/64/64 66/66/66 62/62/62
f 66/66/66 67/67/67 63/63/63
f 65/65/65 68/68/68 64/64/64
f 64/64/64 68/68/68 66/66/66
f 68/68/68 65/65/65 69/69/69
f 66/66/66 70/70/70 67/67/67
f 68/68/68 70/70/70 66/66/66
f 70/70/70 71/71/71 67/67/67
f 72/72/72 68/68/68 69/69/69
f 70/70/70 68/68/68 72/72/72
f 72/72/72 69/69/69 73/73/73
f 70/70/70 74/74/74 71/71/71
f 74/74/74 70/70/70 72/72/72
f 74/74/74 75/75/75 71/71/71
f 76/76/76 72/72/72 73/73/73
f 74/74/74 72/72/72 76/76/76
f 76/76/76 73/73/73 77/77/77
f 74/74/74 78/78/78 75/75/75
f 78/78/78 74/74/74 76/76/76
f 78/78/78 79/79/79 75/75/75
f 80/80/80 76/76/76 77/77/77
f 78/78/78 76/76/76 80/80/80
f 80/80/80 77/77/77 81/81/81
f 79/79/79 78/78/78 82/82/82
f 82/82/82 78/78/78 80/80/80
f 83/83/83 79/79/79 82/82/82
f 84/84/84 80/80/80 81/81/81
f 82/82/82 80/80/80 84/84/84
f 84/84/84 81/81/81 85/85/85
f 83/83/83 82/82/82 86/86/86
f 86/86/86 82/82/82 84/84/84
f 87/87/87 83/83/83 86/86/86
f 88/88/88 84/84/84 85/85/85
f 86/86/86 84/84/84 88/88/88
f 88/88/88 85/85/85 89/89/89
f 87/87/87 86/86/86 90/90/90
f 90/90/90 86/86/86 88/88/88
f 91/91/91 87/87/87 90/90/90
f 92/92/92 88/88/88 89/89/89
f 90/90/90 88/88/88 92/92/92
f 92/92/92 89/89/89 93/93/93
f 91/91/91 90/90/90 94/94/94
f 94/94/94 90/90/90 92/92/92
f 95/95/95 91/91/91 94/94/94
f 96/96/96 92/92/92 93/93/93
f 94/94/94 92/92/92 96/96/96
f 96/96/96 93/93/93 97/97/97
f 98/98/98 96/96/96 97/97/97
f 95/95/95 94/94/94 99/99/99
f 99/99/99 94/94/94 96/96/96
f 99/99/99 96/96/96 98/98/98
f 100/100/100 95/95/95 99/99/99
f 101/101/101 99/99/99 98/98/98
f 100/100/100 99/99/99 101/101/101
f 102/102/102 100/100/100 101/101/101
f 105/105/105 104/104/104 103/103/103
f 104/104/104 106/106/106 103/103/103
f 103/103/103 106/106/106 107/107/107
f 104/104/104 108/108/108 106/106/106
f 106/106/106 109/109/109 107/107/107
f 107/107/107 109/109/109 110/110/110
f 109/109/109 111/111/111 110/110/110
f 108/108/108 112/112/112 106/106/106
f 106/106/106 112/112/112 109/109/109
f 108/108/108 113/113/113 112/112/112
f 109/109/109 114/114/114 111/111/111
f 112/112/112 114/114/114 109/109/109
f 114/114/114 115/115/115 111/111/111
f 113/113/113 116/116/116 112/112/112
f 112/112/112 116/116/116 114/114/114
f 113/113/113 117/117/117 116/116/116
f 114/114/114 118/118/118 115/115/115
f 116/116/116 118/118/118 114/114/114
f 118/118/118 119/119/119 115/115/115
f 117/117/117 120/120/120 116/116/116
f 116/116/116 120/120/120 118/118/118
f 117/117/117 121/121/121 120/120/120
f 118/118/118 122/122/122 119/119/119
f 120/120/120 122/122/122 118/118/118
f 122/122/122 123/123/123 119/119/119
f 121/121/121 124/124/124 120/120/120
f 120/120/120 124/124/124 122/122/122
f 121/121/121 125/125/125 124/124/124
f 122/122/122 126/126/126 123/123/123
f 124/124/124 126/126/126 122/122/122
f 126/126/126 127/127/127 123/123/123
f 125/125/125 128/128/128 124/124/124
f 124/124/124 128/128/128 126/126/126
f 128/128/128 125/125/125 129/129/129
f 126/126/126 130/130/130 127/127/127
f 128/128/128 130/130/130 126/126/126
f 130/130/130 131/131/131 127/127/127
f 132/132/132 128/128/128 129/129/129
f 130/130/130 128/128/128 132/132/132
f 132/132/132 129/129/129 133/133/133
f 130/130/130 134/134/134 131/131/131
f 134/134/134 130/130/130 132/132/132
f 134/134/134 135/135/135 131/131/131
f 136/136/136 132/132/132 133/133/133
f 134/134/134 132/132/132 136/136/136
f 136/136/136 133/133/133 137/137/137
f 134/134/134 138/138/138 135/135/135
f 138/138/138 134/134/134 136/136/136
f 138/138/138 139/139/139 135/135/135
f 140/140/140 136/136/136 137/137/137
f 138/138/138 136/136/136 140/140/140
f 140/140/140 137/137/137 141/141/141
f 139/139/139 138/138/138 142/142/142
f 142/142/142 138/138/138 140/140/140
f 143/143/143 139/139/139 142/142/142
f 144/144/144 140/140/140 141/141/141
f 142/142/142 140/140/140 144/144/144
f 144/144/144 141/141/141 145/145/145
f 143/143/143 142/142/142 146/146/146
f 146/146/146 142/142/142 144/144/144
f 147/147/147 143/143/143 146/146/146
f 148/148/148 144/144/144 145/145/145
f 146/146/146 144/144/144 148/148/148
f 148/148/148 145/145/145 149/149/149
f 147/147/147 146/146/146 150/150/150
f 150/150/150 146/146/146 148/148/148
f 151/151/151 147/147/147 150/150/150
f 152/152/152 148/148/148 149/149/149
f 150/150/150 148/148/148 152/152/152
f 152/152/152 149/149/149 153/153/153
f 151/151/151 150/150/150 154/154/154
f 154/154/154 150/150/150 152/152/152
f 155/155/155 151/151/151 154/154/154
f 156/156/156 152/152/152 153/153/153
f 154/154/154 152/152/152 156/156/156
f 156/156/156 153/153/153 157/157/157
f 158/158/158 156/156/156 157/157/157
f 155/155/155 154/154/154 159/159/159
f 159/159/159 154/154/154 156/156/156
f 159/159/159 156/156/156 158/158/158
f 160/160/160 155/155/155 159/159/159
f 161/161/161 159/159/159 158/158/158
f 160/160/160 159/159/159 161/161/161
f 162/162/162 160/160/160 161/161/161
f 165/165/165 164/164/164 163/163/163
f 164/164/164 166/166/166 163/163/163
f 163/163/163 166/166/166 167/167/167
f 166/166/166 168/168/168 167/167/167
f 167/167/167 168/168/168 169/169/169
f 168/168/168 170/170/170 169/169/169
f 169/169/169 170/170/170 171/171/171
f 170/170/170 172/172/172 171/171/171
f 171/171/171 172/172/172 173/173/173
f 172/172/172 174/174/174 173/173/173
f 173/173/173 174/174/174 175/175/175
f 174/174/174 176/176/176 175/175/175
f 179/179/179 178/178/178 177/177/177
f 180/180/180 179/179/179 177/177/177
f 180/180/180 177/177/177 181/181/181
f 182/182/182 180/180/180 181/181/181
f 185/185/185 184/184/184 183/183/183
f 186/186/186 185/185/185 183/183/183
f 186/186/186 183/183/183 187/187/187
f 188/188/188 186/186/186 187/187/187
