g SkyScraper_Prop_Billboard_89
v 1.8332647 2.8129287 -0.0026650445
v 1.8086108 2.8129287 -0.0026650445
v 1.8086112 1.7876049 -0.002665212
v 1.8332641 1.7876037 -0.002665212
v -2.4026499 1.8112289 0.010657693
v 2.4389446 1.7932163 0.021315088
v -2.4026499 1.7932168 0.021315185
v 2.4389446 1.8112286 0.010657693
v -2.4026499 1.8112233 -0.010657102
v 2.4389446 1.8112235 -0.010657102
v -2.4026499 1.7932168 -0.021314599
v 2.4389446 1.7932161 -0.021314502
v -2.4026499 1.7752147 -0.010657107
v 2.4389446 1.7752159 -0.010657107
v -2.4026499 1.7752147 0.010657687
v 2.4389446 1.7752159 0.010657687
v -2.4026499 1.7932168 0.021315185
v 2.4389446 1.7932163 0.021315088
v -1.771777 2.8129287 -0.0026650445
v -1.7964298 2.812929 -0.0026650445
v -1.79643 1.7876033 -0.002665212
v -1.7717764 1.7876033 -0.002665212
v -1.7964298 2.812929 0.0026659614
v -1.771777 2.8129287 0.0026659614
v -1.7717764 1.7876033 0.0026657942
v -1.79643 1.7876033 0.0026657942
v 1.8332641 1.787604 0.0026657942
v 1.8086108 1.7876049 0.0026657942
v 1.8086108 2.812929 0.0026659614
v 1.8332647 2.8129287 0.0026659614
v -2.4026499 -0.0013708514 0.010657397
v 2.4389446 -0.019383395 0.021314792
v -2.4026499 -0.019382937 0.02131489
v 2.4389446 -0.0013711565 0.010657397
v -2.4026499 -0.0013764935 -0.010657397
v 2.4389446 -0.0013761884 -0.010657397
v -2.4026499 -0.019382931 -0.021314895
v 2.4389446 -0.019383693 -0.021314796
v -2.4026499 -0.0373851 -0.010657404
v 2.4389446 -0.037383877 -0.010657404
v -2.4026499 -0.037385102 0.0106573915
v 2.4389446 -0.03738388 0.0106573915
v -2.4026499 -0.019382937 0.02131489
v 2.4389446 -0.019383395 0.021314792
v -2.366056 1.1886663 -0.0063059824
v -1.7713156 1.7829995 -0.0063059097
v -2.366056 1.7829995 -0.0063059097
v -1.7713156 1.1886663 -0.0063059824
v -2.366056 0.5943331 -0.0063060545
v -1.1765753 1.7829995 -0.0063059097
v -1.7713156 0.5943331 -0.0063060545
v -2.366056 -1.5156049E-07 -0.006306127
v -1.7713156 -1.5156049E-07 -0.006306127
v -1.1765753 1.1886663 -0.0063059824
v -0.58183503 1.7829995 -0.0063059097
v -1.1765753 0.59433305 -0.0063060545
v -1.1765753 -1.5156049E-07 -0.006306127
v -0.58183503 1.1886663 -0.0063059824
v 0.012905121 1.7829995 -0.0063059097
v -0.58183503 0.59433305 -0.0063060545
v -0.58183503 -1.5156049E-07 -0.006306127
v 0.012905121 1.1886663 -0.0063059824
v 0.6076453 1.7829995 -0.0063059097
v 0.012905121 0.59433305 -0.0063060545
v 0.012905121 -1.5156049E-07 -0.006306127
v 0.6076453 1.1886662 -0.0063059824
v 1.2023855 1.7829995 -0.0063059097
v 0.6076453 0.59433305 -0.0063060545
v 0.6076453 -1.5156049E-07 -0.006306127
v 1.2023855 1.1886662 -0.0063059824
v 1.7971258 1.7829995 -0.0063059097
v 1.2023855 0.59433305 -0.0063060545
v 1.2023855 -1.5156049E-07 -0.006306127
v 1.7971258 -1.5156049E-07 -0.006306127
v 1.7971258 1.1886662 -0.0063059824
v 2.3918662 1.7829995 -0.0063059097
v 2.3918662 1.1886662 -0.0063059824
v 1.7971258 0.59433305 -0.0063060545
v 2.3918662 0.59433305 -0.0063060545
v 2.3918662 -1.5156049E-07 -0.006306127
v 2.3918662 1.1886663 0.0063063693
v 1.7971258 1.7829995 0.00630649
v 2.3918662 1.7829995 0.00630649
v 1.7971258 1.1886663 0.0063063693
v 2.3918662 0.5943331 0.0063062483
v 1.2023855 1.7829995 0.00630649
v 1.7971258 0.5943331 0.0063062483
v 2.3918662 -1.5361529E-07 0.006306127
v 1.7971258 -1.5361529E-07 0.006306127
v 1.2023855 1.1886663 0.0063063693
v 0.6076453 1.7829995 0.00630649
v 1.2023855 0.59433305 0.0063062483
v 1.2023855 -1.5361529E-07 0.006306127
v 0.6076453 1.1886663 0.0063063693
v 0.012905121 1.7829995 0.00630649
v 0.6076453 0.59433305 0.0063062483
v 0.6076453 -1.5361529E-07 0.006306127
v 0.012905121 1.1886663 0.0063063693
v -0.58183503 1.7829995 0.00630649
v 0.012905121 0.59433305 0.0063062483
v 0.012905121 -1.5361529E-07 0.006306127
v -0.58183503 1.1886662 0.0063063693
v -1.1765753 1.7829995 0.00630649
v -0.58183503 0.59433305 0.0063062483
v -0.58183503 -1.5361529E-07 0.006306127
v -1.1765753 1.1886662 0.0063063693
v -1.7713156 1.7829995 0.00630649
v -1.1765753 0.59433305 0.0063062483
v -1.1765753 -1.5361529E-07 0.006306127
v -1.7713156 -1.5361529E-07 0.006306127
v -1.7713156 1.1886662 0.0063063693
v -2.366056 1.7829995 0.00630649
v -2.366056 1.1886662 0.0063063693
v -1.7713156 0.59433305 0.0063062483
v -2.366056 0.59433305 0.0063062483
v -2.366056 -1.5361529E-07 0.006306127
v -2.4026499 1.8112289 0.010657693
v -2.4026499 1.7932168 2.9215212E-07
v -2.4026499 1.8112233 -0.010657102
v -2.4026499 1.7932168 0.021315185
v -2.4026499 1.7932168 -0.021314599
v -2.4026499 1.7752147 0.010657687
v -2.4026499 1.7752147 -0.010657107
v 2.4389446 1.8112235 -0.010657102
v 2.4389446 1.7932163 2.9215204E-07
v 2.4389446 1.8112286 0.010657693
v 2.4389446 1.7932161 -0.021314502
v 2.4389446 1.7932163 0.021315088
v 2.4389446 1.7752159 -0.010657107
v 2.4389446 1.7752159 0.010657687
v -2.4026499 -0.0013708514 0.010657397
v -2.4026499 -0.019382935 -3.1578808E-09
v -2.4026499 -0.0013764935 -0.010657397
v -2.4026499 -0.019382937 0.02131489
v -2.4026499 -0.019382931 -0.021314895
v -2.4026499 -0.037385102 0.0106573915
v -2.4026499 -0.0373851 -0.010657404
v 2.4389446 -0.0013761884 -0.010657397
v 2.4389446 -0.019383391 -3.1579555E-09
v 2.4389446 -0.0013711565 0.010657397
v 2.4389446 -0.019383693 -0.021314796
v 2.4389446 -0.019383395 0.021314792
v 2.4389446 -0.037383877 -0.010657404
v 2.4389446 -0.03738388 0.0106573915
vt 0.8019786 0.48618436
vt 0.810875 0.4861842
vt 0.810875 0.25222775
vt 0.8019786 0.25222775
vt 0.99213725 0.5168208
vt 0.99506396 0.9936582
vt 0.99506384 0.5168208
vt 0.99213725 0.9936582
vt 0.98915666 0.5168208
vt 0.9891568 0.9936582
vt 0.9862307 0.5168208
vt 0.9862307 0.9936582
vt 0.9833054 0.5168208
vt 0.9833055 0.9936582
vt 0.9803248 0.5168208
vt 0.9803248 0.9936582
vt 0.97744447 0.5168208
vt 0.97744447 0.9936582
vt 0.810875 0.25222775
vt 0.8019786 0.25222775
vt 0.8019786 0.4861842
vt 0.810875 0.4861842
vt 0.8019786 0.48618436
vt 0.810875 0.4861842
vt 0.810875 0.25222775
vt 0.8019786 0.25222775
vt 0.8019786 0.48618436
vt 0.810875 0.4861842
vt 0.810875 0.25222775
vt 0.8019786 0.25222775
vt 0.99213725 0.5168208
vt 0.99506396 0.9936582
vt 0.99506384 0.5168208
vt 0.99213725 0.9936582
vt 0.98915666 0.5168208
vt 0.9891568 0.9936582
vt 0.9862307 0.5168208
vt 0.9862307 0.9936582
vt 0.9833054 0.5168208
vt 0.9833055 0.9936582
vt 0.9803248 0.5168208
vt 0.9803248 0.9936582
vt 0.97744447 0.5168208
vt 0.97744447 0.9936582
vt 0.81006694 0.12740523
vt 0.7498908 0.18754017
vt 0.81006694 0.18754017
vt 0.7498908 0.12740523
vt 0.81006694 0.06727028
vt 0.68971467 0.18754017
vt 0.7498908 0.06727028
vt 0.81006694 0.0071353316
vt 0.7498908 0.0071353316
vt 0.68971467 0.12740523
vt 0.62953854 0.18754017
vt 0.68971467 0.06727028
vt 0.68971467 0.0071353316
vt 0.62953854 0.12740523
vt 0.5693624 0.18754017
vt 0.62953854 0.06727028
vt 0.62953854 0.0071353316
vt 0.5693624 0.12740523
vt 0.50918627 0.18754017
vt 0.5693624 0.06727028
vt 0.5693624 0.0071353316
vt 0.50918627 0.12740523
vt 0.44901016 0.18754017
vt 0.50918627 0.06727028
vt 0.50918627 0.0071353316
vt 0.44901016 0.12740523
vt 0.38883403 0.18754017
vt 0.44901016 0.06727028
vt 0.44901016 0.0071353316
vt 0.38883403 0.0071353316
vt 0.38883403 0.12740523
vt 0.3286579 0.18754017
vt 0.3286579 0.12740523
vt 0.38883403 0.06727028
vt 0.3286579 0.06727028
vt 0.3286579 0.0071353316
vt 0.8100668 0.12740533
vt 0.7498907 0.18754028
vt 0.8100668 0.18754028
vt 0.7498907 0.12740533
vt 0.8100668 0.06727038
vt 0.68971455 0.18754026
vt 0.7498907 0.067270376
vt 0.8100668 0.007135436
vt 0.7498907 0.0071354304
vt 0.68971455 0.12740532
vt 0.62953836 0.18754026
vt 0.68971455 0.06727037
vt 0.68971455 0.0071354248
vt 0.6295384 0.12740532
vt 0.5693622 0.18754026
vt 0.6295384 0.06727037
vt 0.6295384 0.007135419
vt 0.5693622 0.12740532
vt 0.5091861 0.18754025
vt 0.5693622 0.06727036
vt 0.5693623 0.0071354136
vt 0.5091861 0.1274053
vt 0.44900995 0.18754025
vt 0.5091861 0.06727035
vt 0.5091861 0.007135408
vt 0.44900995 0.1274053
vt 0.38883376 0.18754023
vt 0.44900995 0.06727035
vt 0.44900995 0.0071354024
vt 0.38883382 0.007135397
vt 0.38883382 0.12740529
vt 0.32865763 0.18754023
vt 0.32865766 0.12740529
vt 0.38883382 0.067270346
vt 0.32865766 0.06727034
vt 0.3286577 0.0071353912
vt 0.9820533 0.49557534
vt 0.9862397 0.5026012
vt 0.9902483 0.49557248
vt 0.97797847 0.502604
vt 0.99438524 0.50259835
vt 0.98205805 0.5095728
vt 0.9902532 0.50956994
vt 0.9902532 0.50956994
vt 0.9862397 0.5026012
vt 0.98205805 0.5095728
vt 0.99438524 0.50259835
vt 0.97797847 0.502604
vt 0.9902483 0.49557248
vt 0.9820533 0.49557534
vt 0.9820533 0.49557534
vt 0.9862397 0.5026012
vt 0.9902483 0.49557248
vt 0.97797847 0.502604
vt 0.99438524 0.50259835
vt 0.98205805 0.5095728
vt 0.9902532 0.50956994
vt 0.9902532 0.50956994
vt 0.9862397 0.5026012
vt 0.98205805 0.5095728
vt 0.99438524 0.50259835
vt 0.97797847 0.502604
vt 0.9902483 0.49557248
vt 0.9820533 0.49557534
vn -0 1.630616E-07 -1
vn -0 1.630616E-07 -1
vn -0 1.630616E-07 -1
vn -0 1.6306157E-07 -1
vn -0.6107486 0.68789387 0.3921583
vn 0.6084368 -0.000104715706 0.7936023
vn -0.6084422 -0.0001046802 0.7935982
vn 0.6107526 0.6878913 0.39215678
vn -0.6108016 0.6877849 -0.39226696
vn 0.6107909 0.687792 -0.39227092
vn -0.60843164 -5.588581E-05 -0.79360634
vn 0.60842896 -5.5973433E-05 -0.7936083
vn -0.61078423 -0.6878734 -0.3921389
vn 0.61079234 -0.6878679 -0.3921358
vn -0.6107846 -0.68787247 0.39213994
vn 0.61079144 -0.6878677 0.39213732
vn -0.6084422 -0.0001046802 0.7935982
vn 0.6084368 -0.000104715706 0.7936023
vn -0 1.630614E-07 -1
vn -0 1.6306142E-07 -1
vn -0 1.630614E-07 -1
vn -0 1.630614E-07 -1
vn -0 -1.6306142E-07 1
vn -0 -1.630614E-07 1
vn -0 -1.630614E-07 1
vn -0 -1.630614E-07 1
vn -0 -1.6306161E-07 1
vn -0 -1.630616E-07 1
vn -0 -1.6306157E-07 1
vn -0 -1.6306161E-07 1
vn -0.6107486 0.6878938 0.39215833
vn 0.60843676 -0.0001047857 0.7936023
vn -0.6084422 -0.000104750165 0.7935982
vn 0.6107525 0.6878912 0.39215693
vn -0.6108015 0.6877849 -0.3922668
vn 0.6107909 0.6877921 -0.39227086
vn -0.6084316 -5.5850825E-05 -0.79360634
vn 0.60842896 -5.5938443E-05 -0.7936083
vn -0.6107842 -0.6878733 -0.392139
vn 0.61079234 -0.6878678 -0.3921359
vn -0.6107846 -0.68787247 0.39213982
vn 0.6107914 -0.6878679 0.39213726
vn -0.6084422 -0.000104750165 0.7935982
vn 0.60843676 -0.0001047857 0.7936023
vn -0 1.2185025E-07 -1
vn -0 1.223517E-07 -1
vn -0 1.2235171E-07 -1
vn -0 1.2185025E-07 -1
vn -0 1.2185025E-07 -1
vn -0 1.2235168E-07 -1
vn -0 1.2185023E-07 -1
vn -0 1.223517E-07 -1
vn -0 1.2235168E-07 -1
vn -0 1.2185022E-07 -1
vn -0 1.2235168E-07 -1
vn -0 1.2185022E-07 -1
vn -0 1.2235166E-07 -1
vn -0 1.2185022E-07 -1
vn -0 1.2235168E-07 -1
vn -0 1.2185022E-07 -1
vn -0 1.2235168E-07 -1
vn -0 1.2185022E-07 -1
vn -0 1.2235166E-07 -1
vn -0 1.2185023E-07 -1
vn -0 1.2235168E-07 -1
vn -0 1.2185022E-07 -1
vn -0 1.2235166E-07 -1
vn -0 1.2185023E-07 -1
vn -0 1.2235168E-07 -1
vn -0 1.2185022E-07 -1
vn -0 1.2235166E-07 -1
vn -0 1.2185023E-07 -1
vn -0 1.2235168E-07 -1
vn -0 1.2235168E-07 -1
vn -0 1.2185022E-07 -1
vn -0 1.2235166E-07 -1
vn -0 1.2185022E-07 -1
vn -0 1.2185023E-07 -1
vn -0 1.2185023E-07 -1
vn -0 1.2235168E-07 -1
vn -0 -2.0358515E-07 1
vn -0 -2.0358519E-07 1
vn -0 -2.0358519E-07 1
vn -0 -2.0358515E-07 1
vn -0 -2.0358515E-07 1
vn -0 -2.0358519E-07 1
vn -0 -2.0358519E-07 1
vn -0 -2.0358515E-07 1
vn -0 -2.0358515E-07 1
vn -0 -2.0358515E-07 1
vn -0 -2.0358515E-07 1
vn -0 -2.0358515E-07 1
vn -0 -2.0358519E-07 1
vn -0 -2.0358515E-07 1
vn -0 -2.0358515E-07 1
vn -0 -2.0358515E-07 1
vn -0 -2.0358519E-07 1
vn -0 -2.0358515E-07 1
vn -0 -2.0358515E-07 1
vn -0 -2.0358515E-07 1
vn -0 -2.0358515E-07 1
vn -0 -2.0358516E-07 1
vn -0 -2.0358515E-07 1
vn -0 -2.0358519E-07 1
vn -0 -2.0358519E-07 1
vn -0 -2.0358515E-07 1
vn -0 -2.0358515E-07 1
vn -0 -2.0358519E-07 1
vn -0 -2.0358519E-07 1
vn -0 -2.035852E-07 1
vn -0 -2.0358515E-07 1
vn -0 -2.0358515E-07 1
vn -0 -2.0358515E-07 1
vn -0 -2.0358515E-07 1
vn -0 -2.0358515E-07 1
vn -0 -2.035852E-07 1
vn -0.6107486 0.68789387 0.3921583
vn -1 0 0
vn -0.6108016 0.6877849 -0.39226696
vn -0.6084422 -0.0001046802 0.7935982
vn -0.60843164 -5.588581E-05 -0.79360634
vn -0.6107846 -0.68787247 0.39213994
vn -0.61078423 -0.6878734 -0.3921389
vn 0.6107909 0.687792 -0.39227092
vn 1 0 0
vn 0.6107526 0.6878913 0.39215678
vn 0.60842896 -5.5973433E-05 -0.7936083
vn 0.6084368 -0.000104715706 0.7936023
vn 0.61079234 -0.6878679 -0.3921358
vn 0.61079144 -0.6878677 0.39213732
vn -0.6107486 0.6878938 0.39215833
vn -1 0 0
vn -0.6108015 0.6877849 -0.3922668
vn -0.6084422 -0.000104750165 0.7935982
vn -0.6084316 -5.5850825E-05 -0.79360634
vn -0.6107846 -0.68787247 0.39213982
vn -0.6107842 -0.6878733 -0.392139
vn 0.6107909 0.6877921 -0.39227086
vn 1 0 0
vn 0.6107525 0.6878912 0.39215693
vn 0.60842896 -5.5938443E-05 -0.7936083
vn 0.60843676 -0.0001047857 0.7936023
vn 0.61079234 -0.6878678 -0.3921359
vn 0.6107914 -0.6878679 0.39213726
g SkyScraper_Prop_Billboard_89_0
f 3/3/3 2/2/2 1/1/1
f 4/4/4 3/3/3 1/1/1
f 7/7/7 6/6/6 5/5/5
f 6/6/6 8/8/8 5/5/5
f 5/5/5 8/8/8 9/9/9
f 8/8/8 10/10/10 9/9/9
f 9/9/9 10/10/10 11/11/11
f 10/10/10 12/12/12 11/11/11
f 11/11/11 12/12/12 13/13/13
f 12/12/12 14/14/14 13/13/13
f 13/13/13 14/14/14 15/15/15
f 14/14/14 16/16/16 15/15/15
f 15/15/15 16/16/16 17/17/17
f 16/16/16 18/18/18 17/17/17
f 21/21/21 20/20/20 19/19/19
f 22/22/22 21/21/21 19/19/19
f 25/25/25 24/24/24 23/23/23
f 26/26/26 25/25/25 23/23/23
f 29/29/29 28/28/28 27/27/27
f 30/30/30 29/29/29 27/27/27
f 33/33/33 32/32/32 31/31/31
f 32/32/32 34/34/34 31/31/31
f 31/31/31 34/34/34 35/35/35
f 34/34/34 36/36/36 35/35/35
f 35/35/35 36/36/36 37/37/37
f 36/36/36 38/38/38 37/37/37
f 37/37/37 38/38/38 39/39/39
f 38/38/38 40/40/40 39/39/39
f 39/39/39 40/40/40 41/41/41
f 40/40/40 42/42/42 41/41/41
f 41/41/41 42/42/42 43/43/43
f 42/42/42 44/44/44 43/43/43
f 47/47/47 46/46/46 45/45/45
f 46/46/46 48/48/48 45/45/45
f 45/45/45 48/48/48 49/49/49
f 46/46/46 50/50/50 48/48/48
f 48/48/48 51/51/51 49/49/49
f 49/49/49 51/51/51 52/52/52
f 51/51/51 53/53/53 52/52/52
f 50/50/50 54/54/54 48/48/48
f 48/48/48 54/54/54 51/51/51
f 50/50/50 55/55/55 54/54/54
f 51/51/51 56/56/56 53/53/53
f 54/54/54 56/56/56 51/51/51
f 56/56/56 57/57/57 53/53/53
f 55/55/55 58/58/58 54/54/54
f 54/54/54 58/58/58 56/56/56
f 58/58/58 55/55/55 59/59/59
f 56/56/56 60/60/60 57/57/57
f 58/58/58 60/60/60 56/56/56
f 60/60/60 61/61/61 57/57/57
f 62/62/62 58/58/58 59/59/59
f 60/60/60 58/58/58 62/62/62
f 62/62/62 59/59/59 63/63/63
f 60/60/60 64/64/64 61/61/61
f 64/64/64 60/60/60 62/62/62
f 64/64/64 65/65/65 61/61/61
f 66/66/66 62/62/62 63/63/63
f 64/64/64 62/62/62 66/66/66
f 66/66/66 63/63/63 67/67/67
f 64/64/64 68/68/68 65/65/65
f 68/68/68 64/64/64 66/66/66
f 68/68/68 69/69/69 65/65/65
f 70/70/70 66/66/66 67/67/67
f 68/68/68 66/66/66 70/70/70
f 70/70/70 67/67/67 71/71/71
f 69/69/69 68/68/68 72/72/72
f 72/72/72 68/68/68 70/70/70
f 73/73/73 69/69/69 72/72/72
f 74/74/74 73/73/73 72/72/72
f 75/75/75 70/70/70 71/71/71
f 72/72/72 70/70/70 75/75/75
f 75/75/75 71/71/71 76/76/76
f 77/77/77 75/75/75 76/76/76
f 78/78/78 72/72/72 75/75/75
f 78/78/78 75/75/75 77/77/77
f 78/78/78 74/74/74 72/72/72
f 79/79/79 78/78/78 77/77/77
f 74/74/74 78/78/78 79/79/79
f 80/80/80 74/74/74 79/79/79
f 83/83/83 82/82/82 81/81/81
f 82/82/82 84/84/84 81/81/81
f 81/81/81 84/84/84 85/85/85
f 82/82/82 86/86/86 84/84/84
f 84/84/84 87/87/87 85/85/85
f 85/85/85 87/87/87 88/88/88
f 87/87/87 89/89/89 88/88/88
f 86/86/86 90/90/90 84/84/84
f 84/84/84 90/90/90 87/87/87
f 86/86/86 91/91/91 90/90/90
f 87/87/87 92/92/92 89/89/89
f 90/90/90 92/92/92 87/87/87
f 92/92/92 93/93/93 89/89/89
f 91/91/91 94/94/94 90/90/90
f 90/90/90 94/94/94 92/92/92
f 94/94/94 91/91/91 95/95/95
f 92/92/92 96/96/96 93/93/93
f 94/94/94 96/96/96 92/92/92
f 96/96/96 97/97/97 93/93/93
f 98/98/98 94/94/94 95/95/95
f 96/96/96 94/94/94 98/98/98
f 98/98/98 95/95/95 99/99/99
f 96/96/96 100/100/100 97/97/97
f 100/100/100 96/96/96 98/98/98
f 100/100/100 101/101/101 97/97/97
f 102/102/102 98/98/98 99/99/99
f 100/100/100 98/98/98 102/102/102
f 102/102/102 99/99/99 103/103/103
f 100/100/100 104/104/104 101/101/101
f 104/104/104 100/100/100 102/102/102
f 104/104/104 105/105/105 101/101/101
f 106/106/106 102/102/102 103/103/103
f 104/104/104 102/102/102 106/106/106
f 106/106/106 103/103/103 107/107/107
f 105/105/105 104/104/104 108/108/108
f 108/108/108 104/104/104 106/106/106
f 109/109/109 105/105/105 108/108/108
f 110/110/110 109/109/109 108/108/108
f 111/111/111 106/106/106 107/107/107
f 108/108/108 106/106/106 111/111/111
f 111/111/111 107/107/107 112/112/112
f 113/113/113 111/111/111 112/112/112
f 114/114/114 108/108/108 111/111/111
f 114/114/114 111/111/111 113/113/113
f 114/114/114 110/110/110 108/108/108
f 115/115/115 114/114/114 113/113/113
f 110/110/110 114/114/114 115/115/115
f 116/116/116 110/110/110 115/115/115
f 119/119/119 118/118/118 117/117/117
f 117/117/117 118/118/118 120/120/120
f 121/121/121 118/118/118 119/119/119
f 120/120/120 118/118/118 122/122/122
f 123/123/123 118/118/118 121/121/121
f 122/122/122 118/118/118 123/123/123
f 126/126/126 125/125/125 124/124/124
f 124/124/124 125/125/125 127/127/127
f 128/128/128 125/125/125 126/126/126
f 127/127/127 125/125/125 129/129/129
f 130/130/130 125/125/125 128/128/128
f 129/129/129 125/125/125 130/130/130
f 133/133/133 132/132/132 131/131/131
f 131/131/131 132/132/132 134/134/134
f 135/135/135 132/132/132 133/133/133
f 134/134/134 132/132/132 136/136/136
f 137/137/137 132/132/132 135/135/135
f 136/136/136 132/132/132 137/137/137
f 140/140/140 139/139/139 138/138/138
f 138/138/138 139/139/139 141/141/141
f 142/142/142 139/139/139 140/140/140
f 141/141/141 139/139/139 143/143/143
f 144/144/144 139/139/139 142/142/142
f 143/143/143 139/139/139 144/144/144
