g SeparateMesh_Monster_Hati_Model_Monster_Hati_Head
v 0.03647137 -1.3181583 1.2554405
v 5.415993E-08 -1.3546296 1.2554405
v 5.2992885E-08 -1.3181583 1.265213
v 0.036471374 -1.3497434 1.2469773
v 5.415993E-08 -1.3813283 1.2287416
v 0.036471367 -1.2865732 1.2469773
v 5.09715E-08 -1.2816868 1.2554405
v 0.036471374 -1.3728653 1.2238554
v 5.2992885E-08 -1.3911009 1.1922703
v 0.036471367 -1.2634512 1.2238554
v 4.863741E-08 -1.254988 1.2287415
v 0.03647137 -1.3813283 1.1922703
v 5.0971508E-08 -1.3813283 1.155799
v 0.036471367 -1.2549881 1.1922703
v 4.6616037E-08 -1.2452155 1.1922703
v 0.036471367 -1.3728653 1.1606853
v 4.863742E-08 -1.3546296 1.1291002
v 0.036471363 -1.2634513 1.1606852
v 4.5448992E-08 -1.2549881 1.155799
v 0.036471367 -1.3497434 1.1375633
v 4.661604E-08 -1.3181583 1.1193277
v 0.036471363 -1.2865732 1.1375633
v 4.5448996E-08 -1.281687 1.1291002
v 0.036471367 -1.3181583 1.1291002
v 0.063170224 -1.281687 1.1922703
v 0.063170224 -1.2865732 1.1740346
v 0.063170224 -1.2999226 1.1606853
v 0.063170224 -1.3181583 1.155799
v 0.07294269 -1.3181583 1.1922703
v 0.063170224 -1.2865732 1.210506
v 0.063170224 -1.3363941 1.1606853
v 0.063170224 -1.3497434 1.1740347
v 0.063170224 -1.2999226 1.2238554
v 0.063170224 -1.3546296 1.1922703
v 0.063170224 -1.3181583 1.2287416
v 0.063170224 -1.3497434 1.210506
v 0.063170224 -1.3363938 1.2238554
v 5.2992885E-08 -1.3181583 1.265213
v 5.415993E-08 -1.3546296 1.2554405
v -0.036471266 -1.3497434 1.2469773
v -0.03647127 -1.3181583 1.2554405
v 5.09715E-08 -1.2816868 1.2554405
v -0.036471266 -1.3728653 1.2238554
v 5.415993E-08 -1.3813283 1.2287416
v -0.03647127 -1.2865732 1.2469773
v 4.863741E-08 -1.254988 1.2287415
v -0.03647127 -1.3813283 1.1922703
v 5.2992885E-08 -1.3911009 1.1922703
v -0.03647127 -1.2634512 1.2238554
v 4.6616037E-08 -1.2452155 1.1922703
v -0.03647127 -1.3728653 1.1606853
v 5.0971508E-08 -1.3813283 1.155799
v -0.036471274 -1.2549881 1.1922703
v 4.5448992E-08 -1.2549881 1.155799
v -0.03647127 -1.3497434 1.1375633
v 4.863742E-08 -1.3546296 1.1291002
v -0.036471274 -1.2634513 1.1606852
v 4.5448996E-08 -1.281687 1.1291002
v -0.036471274 -1.3181583 1.1291002
v 4.661604E-08 -1.3181583 1.1193277
v -0.036471274 -1.2865732 1.1375633
v -0.06317012 -1.3497434 1.1740347
v -0.06317012 -1.3363941 1.1606853
v -0.06317012 -1.3181583 1.155799
v -0.06317012 -1.2999226 1.1606853
v -0.072942585 -1.3181583 1.1922703
v -0.06317012 -1.3546296 1.1922703
v -0.06317012 -1.2865732 1.1740346
v -0.06317012 -1.281687 1.1922703
v -0.06317012 -1.3497434 1.2105061
v -0.06317012 -1.2865732 1.210506
v -0.06317012 -1.3363941 1.2238554
v -0.06317012 -1.2999226 1.2238554
v -0.06317012 -1.3181583 1.2287416
vt 0.9717138 0.99135053
vt 0.98288316 0.99135053
vt 0.9717138 0.99434334
vt 0.9813867 0.9887587
vt 0.9910597 0.98317397
vt 0.9620408 0.9887587
vt 0.96054435 0.99135053
vt 0.9884678 0.9816776
vt 0.9940525 0.97200465
vt 0.9549597 0.98167753
vt 0.9523678 0.98317397
vt 0.9910597 0.97200465
vt 0.9910597 0.9608352
vt 0.95236784 0.97200453
vt 0.94937503 0.97200453
vt 0.9884678 0.96233165
vt 0.98288316 0.9526587
vt 0.9549597 0.96233165
vt 0.95236784 0.9608352
vt 0.9813868 0.95525056
vt 0.9717138 0.94966584
vt 0.9620408 0.95525056
vt 0.9605444 0.9526587
vt 0.9717138 0.9526587
vt 0.9605444 0.97200453
vt 0.9620408 0.9664199
vt 0.9661291 0.96233165
vt 0.9717138 0.9608352
vt 0.9717138 0.97200465
vt 0.9620408 0.9775893
vt 0.97729844 0.96233165
vt 0.9813867 0.9664199
vt 0.96612906 0.9816776
vt 0.9828831 0.97200465
vt 0.9717138 0.98317397
vt 0.9813867 0.9775893
vt 0.97729844 0.9816776
vt 0.9717138 0.99434334
vt 0.98288316 0.99135053
vt 0.9813868 0.9887587
vt 0.9717138 0.99135053
vt 0.96054435 0.99135053
vt 0.9884678 0.9816776
vt 0.9910597 0.98317397
vt 0.9620408 0.9887587
vt 0.9523678 0.98317397
vt 0.9910597 0.97200465
vt 0.9940525 0.97200465
vt 0.9549597 0.9816776
vt 0.94937503 0.97200453
vt 0.9884678 0.96233165
vt 0.9910597 0.9608352
vt 0.95236784 0.97200453
vt 0.95236784 0.9608352
vt 0.9813868 0.95525056
vt 0.98288316 0.9526587
vt 0.9549597 0.96233165
vt 0.9605444 0.9526587
vt 0.9717138 0.9526587
vt 0.9717138 0.94966584
vt 0.9620408 0.95525056
vt 0.9813868 0.9664199
vt 0.97729844 0.96233165
vt 0.9717138 0.9608352
vt 0.9661291 0.96233165
vt 0.9717138 0.97200465
vt 0.98288316 0.97200465
vt 0.9620408 0.9664199
vt 0.9605444 0.97200465
vt 0.9813868 0.9775893
vt 0.9620408 0.9775893
vt 0.97729844 0.9816776
vt 0.96612906 0.9816776
vt 0.9717138 0.983174
vn 0.48234192 -2.5112328E-07 0.87598306
vn -0 -0.50000024 0.86602527
vn -0 -2.7022043E-07 1
vn 0.4823418 -0.43799174 0.7586235
vn -0 -0.8660255 0.49999985
vn 0.48234186 0.43799216 0.7586232
vn -0 0.5000007 0.866025
vn 0.48234162 -0.75862366 0.43799156
vn -0 -1 0
vn 0.4823419 0.7586243 0.4379903
vn -0 0.86602616 0.49999878
vn 0.4823414 -0.8759833 0
vn -0 -0.8660255 -0.49999985
vn 0.48234183 0.8759831 -9.574075E-07
vn -0 1 -1.1338657E-06
vn 0.4823415 -0.75862384 -0.4379915
vn -0 -0.50000024 -0.86602527
vn 0.48234147 0.75862336 -0.43799242
vn -0 0.86602515 -0.5000005
vn 0.48234177 -0.43799183 -0.7586235
vn -0 -3.6029377E-07 -1
vn 0.4823412 0.4379913 -0.75862414
vn -0 0.4999995 -0.8660257
vn 0.48234165 -3.5052622E-07 -0.87598324
vn 0.84743446 0.5309 0
vn 0.8474345 0.45977253 -0.2654503
vn 0.8474348 0.26544935 -0.4597727
vn 0.84743446 -1.6232846E-07 -0.5309
vn 1 0 0
vn 0.84743464 0.45977297 0.26544935
vn 0.8474343 -0.26545057 -0.45977277
vn 0.8474345 -0.45977294 -0.26544973
vn 0.8474345 0.26545042 0.45977253
vn 0.8474344 -0.53090006 0
vn 0.84743446 -2.1812887E-07 0.5309
vn 0.8474345 -0.4597727 0.26545003
vn 0.8474345 -0.26545003 0.4597727
vn -0 -2.7022043E-07 1
vn -0 -0.50000024 0.86602527
vn -0.48234165 -0.43799177 0.7586236
vn -0.48234183 -2.4589156E-07 0.8759831
vn -0 0.5000007 0.866025
vn -0.48234144 -0.7586239 0.43799156
vn -0 -0.8660255 0.49999985
vn -0.4823419 0.43799216 0.7586231
vn -0 0.86602616 0.49999878
vn -0.48234132 -0.8759834 0
vn -0 -1 0
vn -0.48234195 0.7586243 0.4379903
vn -0 1 -1.1338657E-06
vn -0.4823416 -0.75862384 -0.4379915
vn -0 -0.8660255 -0.49999985
vn -0.48234195 0.87598306 -8.946267E-07
vn -0 0.86602515 -0.5000005
vn -0.4823418 -0.43799183 -0.7586235
vn -0 -0.50000024 -0.86602527
vn -0.4823416 0.75862336 -0.43799233
vn -0 0.4999995 -0.8660257
vn -0.48234168 -3.9761187E-07 -0.8759831
vn -0 -3.6029377E-07 -1
vn -0.4823413 0.4379912 -0.75862414
vn -0.8474345 -0.45977286 -0.26544967
vn -0.8474344 -0.26545057 -0.45977262
vn -0.8474345 -2.2066524E-07 -0.5308999
vn -0.8474349 0.2654492 -0.45977265
vn -1 0 0
vn -0.84743446 -0.53090006 -1.2428272E-07
vn -0.84743464 0.4597724 -0.26545024
vn -0.8474345 0.5308998 0
vn -0.8474344 -0.45977294 0.2654502
vn -0.8474347 0.45977288 0.2654493
vn -0.84743446 -0.26545024 0.45977286
vn -0.8474345 0.26545045 0.4597725
vn -0.8474345 -1.1667357E-07 0.53089994
g SeparateMesh_Monster_Hati_Model_Monster_Hati_Head_0
f 3/3/3 2/2/2 1/1/1
f 2/2/2 4/4/4 1/1/1
f 2/2/2 5/5/5 4/4/4
f 3/3/3 1/1/1 6/6/6
f 7/7/7 3/3/3 6/6/6
f 5/5/5 8/8/8 4/4/4
f 5/5/5 9/9/9 8/8/8
f 7/7/7 6/6/6 10/10/10
f 11/11/11 7/7/7 10/10/10
f 9/9/9 12/12/12 8/8/8
f 9/9/9 13/13/13 12/12/12
f 11/11/11 10/10/10 14/14/14
f 15/15/15 11/11/11 14/14/14
f 13/13/13 16/16/16 12/12/12
f 13/13/13 17/17/17 16/16/16
f 15/15/15 14/14/14 18/18/18
f 19/19/19 15/15/15 18/18/18
f 17/17/17 20/20/20 16/16/16
f 17/17/17 21/21/21 20/20/20
f 19/19/19 18/18/18 22/22/22
f 23/23/23 19/19/19 22/22/22
f 21/21/21 23/23/23 24/24/24
f 21/21/21 24/24/24 20/20/20
f 23/23/23 22/22/22 24/24/24
f 14/14/14 10/10/10 25/25/25
f 18/18/18 14/14/14 26/26/26
f 14/14/14 25/25/25 26/26/26
f 22/22/22 18/18/18 27/27/27
f 18/18/18 26/26/26 27/27/27
f 24/24/24 22/22/22 28/28/28
f 22/22/22 27/27/27 28/28/28
f 27/27/27 26/26/26 29/29/29
f 26/26/26 25/25/25 29/29/29
f 28/28/28 27/27/27 29/29/29
f 25/25/25 30/30/30 29/29/29
f 10/10/10 30/30/30 25/25/25
f 31/31/31 28/28/28 29/29/29
f 24/24/24 28/28/28 31/31/31
f 20/20/20 24/24/24 31/31/31
f 10/10/10 6/6/6 30/30/30
f 20/20/20 31/31/31 32/32/32
f 32/32/32 31/31/31 29/29/29
f 16/16/16 20/20/20 32/32/32
f 6/6/6 33/33/33 30/30/30
f 30/30/30 33/33/33 29/29/29
f 6/6/6 1/1/1 33/33/33
f 16/16/16 32/32/32 34/34/34
f 34/34/34 32/32/32 29/29/29
f 12/12/12 16/16/16 34/34/34
f 1/1/1 35/35/35 33/33/33
f 33/33/33 35/35/35 29/29/29
f 1/1/1 4/4/4 35/35/35
f 12/12/12 34/34/34 36/36/36
f 36/36/36 34/34/34 29/29/29
f 8/8/8 12/12/12 36/36/36
f 35/35/35 37/37/37 29/29/29
f 4/4/4 37/37/37 35/35/35
f 37/37/37 36/36/36 29/29/29
f 8/8/8 36/36/36 37/37/37
f 4/4/4 8/8/8 37/37/37
f 40/40/40 39/39/39 38/38/38
f 41/41/41 40/40/40 38/38/38
f 41/41/41 38/38/38 42/42/42
f 40/40/40 43/43/43 39/39/39
f 43/43/43 44/44/44 39/39/39
f 45/45/45 41/41/41 42/42/42
f 45/45/45 42/42/42 46/46/46
f 43/43/43 47/47/47 44/44/44
f 47/47/47 48/48/48 44/44/44
f 49/49/49 45/45/45 46/46/46
f 49/49/49 46/46/46 50/50/50
f 47/47/47 51/51/51 48/48/48
f 51/51/51 52/52/52 48/48/48
f 53/53/53 49/49/49 50/50/50
f 53/53/53 50/50/50 54/54/54
f 51/51/51 55/55/55 52/52/52
f 55/55/55 56/56/56 52/52/52
f 57/57/57 53/53/53 54/54/54
f 57/57/57 54/54/54 58/58/58
f 55/55/55 59/59/59 56/56/56
f 59/59/59 60/60/60 56/56/56
f 61/61/61 58/58/58 60/60/60
f 61/61/61 57/57/57 58/58/58
f 59/59/59 61/61/61 60/60/60
f 62/62/62 51/51/51 47/47/47
f 63/63/63 55/55/55 51/51/51
f 62/62/62 63/63/63 51/51/51
f 64/64/64 59/59/59 55/55/55
f 63/63/63 64/64/64 55/55/55
f 65/65/65 61/61/61 59/59/59
f 64/64/64 65/65/65 59/59/59
f 64/64/64 63/63/63 66/66/66
f 63/63/63 62/62/62 66/66/66
f 65/65/65 64/64/64 66/66/66
f 62/62/62 67/67/67 66/66/66
f 67/67/67 62/62/62 47/47/47
f 68/68/68 65/65/65 66/66/66
f 65/65/65 68/68/68 61/61/61
f 68/68/68 57/57/57 61/61/61
f 67/67/67 47/47/47 43/43/43
f 68/68/68 69/69/69 57/57/57
f 69/69/69 68/68/68 66/66/66
f 69/69/69 53/53/53 57/57/57
f 70/70/70 67/67/67 43/43/43
f 67/67/67 70/70/70 66/66/66
f 70/70/70 43/43/43 40/40/40
f 69/69/69 71/71/71 53/53/53
f 71/71/71 69/69/69 66/66/66
f 71/71/71 49/49/49 53/53/53
f 72/72/72 70/70/70 40/40/40
f 70/70/70 72/72/72 66/66/66
f 72/72/72 40/40/40 41/41/41
f 71/71/71 73/73/73 49/49/49
f 73/73/73 71/71/71 66/66/66
f 73/73/73 45/45/45 49/49/49
f 74/74/74 72/72/72 41/41/41
f 72/72/72 74/74/74 66/66/66
f 74/74/74 41/41/41 45/45/45
f 73/73/73 74/74/74 45/45/45
f 74/74/74 73/73/73 66/66/66
