g SeparateMesh_Monster_Goblin_Model_Monster_Goblin_Head
v -0.08542347 -0.009850047 2.7781417
v -0.09876456 -0.002147565 2.7206497
v -0.056677427 0.039939556 2.7206497
v -0.11416951 -0.05963964 2.7206497
v -0.04897495 0.026598465 2.7781417
v 0.0008146562 0.055344515 2.7206497
v 0.00081465696 0.03993955 2.7781417
v -0.027931383 -0.009850057 2.8202288
v 0.05060435 0.02659842 2.7781417
v 0.05830684 0.039939497 2.7206497
v 0.10039392 -0.0021476587 2.7206497
v 0.00081465876 -0.0021475805 2.8202288
v 0.08705283 -0.00985013 2.7781417
v 0.11579882 -0.059639744 2.7206497
v 0.02956075 -0.0098500885 2.8202288
v 0.00081466127 -0.059639674 2.8356338
v -0.048974942 -0.030893624 2.8202288
v 0.050604295 -0.03089367 2.8202288
v -0.05667742 -0.05963966 2.8202288
v -0.09876456 -0.059639644 2.7781417
v -0.08542348 -0.10942924 2.7781417
v -0.09876457 -0.11713171 2.7206497
v 0.10039386 -0.059639737 2.7781417
v -0.04897495 -0.0883857 2.8202288
v -0.048974976 -0.14587778 2.7781417
v -0.05667746 -0.15921885 2.7206497
v 0.0008146079 -0.1746238 2.7206497
v -0.0279314 -0.10942926 2.8202288
v 0.00081461505 -0.15921888 2.7781417
v 0.050604217 -0.14587782 2.7781417
v 0.058306687 -0.15921889 2.7206497
v 0.00081463455 -0.11713175 2.8202288
v 0.058306746 -0.05963971 2.8202288
v 0.029560676 -0.10942928 2.8202288
v 0.050604247 -0.08838574 2.8202288
v 0.08705276 -0.10942933 2.7781417
v 0.100393824 -0.117131814 2.7206497
v -0.08542347 -0.009850037 2.6631577
v -0.056677427 0.039939556 2.7206497
v -0.09876456 -0.002147565 2.7206497
v -0.11416951 -0.05963964 2.7206497
v -0.04897495 0.026598476 2.6631577
v 0.0008146562 0.055344515 2.7206497
v -0.09876456 -0.059639633 2.6631577
v -0.08542348 -0.10942924 2.6631572
v -0.09876457 -0.11713171 2.7206497
v -0.048974976 -0.14587775 2.6631572
v -0.05667746 -0.15921885 2.7206497
v 0.0008146079 -0.1746238 2.7206497
v -0.056677427 -0.059639633 2.6210704
v -0.048974957 -0.088385664 2.6210704
v -0.027931402 -0.10942924 2.6210704
v 0.00081461505 -0.15921886 2.6631572
v -0.048974942 -0.030893594 2.6210704
v 0.00081466127 -0.05963964 2.6056652
v 0.00081463455 -0.117131725 2.6210704
v -0.027931385 -0.009850037 2.6210704
v 0.050604217 -0.14587781 2.6631572
v 0.058306687 -0.15921889 2.7206497
v 0.029560678 -0.10942927 2.6210704
v 0.00081465876 -0.0021475544 2.6210704
v 0.08705276 -0.10942931 2.6631572
v 0.100393824 -0.117131814 2.7206497
v 0.11579882 -0.059639744 2.7206497
v 0.05060425 -0.08838572 2.6210704
v 0.10039386 -0.05963973 2.6631577
v 0.08705283 -0.00985012 2.6631577
v 0.10039392 -0.0021476587 2.7206497
v 0.05060435 0.02659843 2.6631577
v 0.05830684 0.039939497 2.7206497
v 0.05830675 -0.059639685 2.6210704
v 0.0506043 -0.030893642 2.6210704
v 0.029560754 -0.009850062 2.6210704
v 0.00081465696 0.03993957 2.6631577
vt 0.253367 0.1806231
vt 0.249217 0.1830191
vt 0.2545324 0.18833445
vt 0.24727145 0.17575818
vt 0.25692838 0.18418446
vt 0.2617933 0.19028002
vt 0.2617933 0.18548802
vt 0.25898454 0.1806231
vt 0.2666582 0.18418445
vt 0.2690542 0.18833445
vt 0.2743696 0.1830191
vt 0.2617933 0.1813757
vt 0.27021956 0.1806231
vt 0.27631515 0.17575818
vt 0.26460207 0.1806231
vt 0.2617933 0.17575818
vt 0.25692838 0.17856693
vt 0.2666582 0.17856693
vt 0.25617576 0.17575818
vt 0.25206345 0.17575818
vt 0.253367 0.17089327
vt 0.249217 0.16849726
vt 0.27152312 0.17575818
vt 0.25692838 0.17294942
vt 0.25692838 0.1673319
vt 0.2545324 0.16318192
vt 0.2617933 0.16123635
vt 0.25898454 0.17089327
vt 0.2617933 0.16602837
vt 0.2666582 0.1673319
vt 0.26905417 0.16318189
vt 0.2617933 0.17014067
vt 0.26741078 0.17575818
vt 0.26460207 0.17089327
vt 0.2666582 0.17294942
vt 0.27021956 0.17089327
vt 0.2743696 0.16849725
vt 0.253367 0.1806231
vt 0.2545324 0.18833445
vt 0.249217 0.1830191
vt 0.24727145 0.17575818
vt 0.25692838 0.18418446
vt 0.2617933 0.19028002
vt 0.25206345 0.17575818
vt 0.253367 0.17089327
vt 0.249217 0.16849726
vt 0.25692838 0.16733192
vt 0.2545324 0.16318192
vt 0.2617933 0.16123635
vt 0.25617576 0.17575818
vt 0.25692838 0.17294942
vt 0.25898454 0.17089327
vt 0.2617933 0.16602837
vt 0.25692838 0.17856693
vt 0.2617933 0.17575818
vt 0.2617933 0.17014067
vt 0.25898454 0.1806231
vt 0.2666582 0.1673319
vt 0.26905417 0.16318189
vt 0.26460207 0.17089327
vt 0.2617933 0.1813757
vt 0.27021956 0.17089327
vt 0.2743696 0.16849725
vt 0.27631515 0.17575818
vt 0.2666582 0.17294942
vt 0.27152312 0.17575818
vt 0.27021956 0.1806231
vt 0.2743696 0.1830191
vt 0.2666582 0.18418445
vt 0.2690542 0.18833445
vt 0.26741078 0.17575818
vt 0.2666582 0.17856693
vt 0.26460207 0.1806231
vt 0.2617933 0.18548802
vn -0.7586235 0.4379916 0.48234195
vn -0.8660253 0.50000006 0
vn -0.5 0.86602545 1.0596875E-07
vn -1 2.3842966E-07 1.6425155E-07
vn -0.4379915 0.7586236 0.48234197
vn 2.4902658E-07 1 1.2716251E-07
vn 2.0926947E-07 0.8759831 0.48234183
vn -0.26544982 0.45977265 0.8474347
vn 0.43799204 0.75862324 0.4823418
vn 0.50000066 0.8660251 1.0596876E-07
vn 0.86602587 0.49999917 0
vn 1.3189185E-07 0.5308997 0.84743464
vn 0.758624 0.43799087 0.48234183
vn 1 -5.82828E-07 1.3775936E-07
vn 0.26545018 0.45977247 0.84743464
vn -0 0 1
vn -0.4597726 0.26544985 0.8474347
vn 0.4597729 0.26544943 0.84743464
vn -0.5308997 0 0.84743464
vn -0.8759831 0 0.48234183
vn -0.7586237 -0.4379913 0.48234177
vn -0.8660256 -0.4999996 4.0797957E-07
vn 0.8759831 -6.5396705E-07 0.48234183
vn -0.45977277 -0.2654498 0.84743464
vn -0.43799177 -0.75862354 0.4823417
vn -0.5000003 -0.86602527 4.9805305E-07
vn -4.715607E-07 -1 4.9275445E-07
vn -0.26544997 -0.45977265 0.8474345
vn -3.6622154E-07 -0.8759831 0.48234168
vn 0.43799108 -0.7586239 0.48234177
vn 0.4999994 -0.8660258 5.3514196E-07
vn -1.7754672E-07 -0.5308998 0.84743464
vn 0.5308997 -3.9567553E-07 0.84743464
vn 0.26544958 -0.45977277 0.84743464
vn 0.45977247 -0.26545018 0.84743464
vn 0.7586234 -0.43799207 0.48234183
vn 0.86602527 -0.5000004 4.026812E-07
vn -0.7586236 0.43799162 -0.48234186
vn -0.5 0.86602545 1.0596875E-07
vn -0.8660253 0.50000006 0
vn -1 2.3842966E-07 1.6425155E-07
vn -0.4379916 0.7586236 -0.48234174
vn 2.4902658E-07 1 1.2716251E-07
vn -0.87598324 8.527727E-07 -0.48234153
vn -0.75862354 -0.43799046 -0.48234293
vn -0.8660256 -0.4999996 4.0797957E-07
vn -0.43799156 -0.758623 -0.48234272
vn -0.5000003 -0.86602527 4.9805305E-07
vn -4.715607E-07 -1 4.9275445E-07
vn -0.53090125 9.5114217E-07 -0.8474338
vn -0.45977345 -0.2654492 -0.8474344
vn -0.26545006 -0.4597726 -0.8474345
vn -4.4992976E-07 -0.87598264 -0.4823426
vn -0.45977423 0.26545084 -0.8474335
vn -0 0 -1
vn -2.9041527E-07 -0.53089976 -0.84743464
vn -0.26545084 0.45977423 -0.8474335
vn 0.43799084 -0.7586235 -0.48234272
vn 0.4999994 -0.8660258 5.3514196E-07
vn 0.2654496 -0.45977286 -0.84743464
vn 1.2047805E-07 0.5309016 -0.8474335
vn 0.75862324 -0.43799102 -0.48234284
vn 0.86602527 -0.5000004 4.026812E-07
vn 1 -5.82828E-07 1.3775936E-07
vn 0.45977327 -0.2654496 -0.8474344
vn 0.87598324 1.046347E-07 -0.48234153
vn 0.758624 0.4379909 -0.4823417
vn 0.86602587 0.49999917 0
vn 0.43799216 0.7586234 -0.48234168
vn 0.50000066 0.8660251 1.0596876E-07
vn 0.5309013 4.7176655E-07 -0.8474336
vn 0.45977452 0.26545036 -0.84743345
vn 0.2654511 0.45977408 -0.84743345
vn 1.9880603E-07 0.87598324 -0.48234168
g SeparateMesh_Monster_Goblin_Model_Monster_Goblin_Head_0
f 3/3/3 2/2/2 1/1/1
f 2/2/2 4/4/4 1/1/1
f 1/1/1 5/5/5 3/3/3
f 6/6/6 3/3/3 5/5/5
f 5/5/5 7/7/7 6/6/6
f 5/5/5 1/1/1 8/8/8
f 7/7/7 5/5/5 8/8/8
f 9/9/9 6/6/6 7/7/7
f 10/10/10 6/6/6 9/9/9
f 11/11/11 10/10/10 9/9/9
f 8/8/8 12/12/12 7/7/7
f 9/9/9 7/7/7 12/12/12
f 9/9/9 13/13/13 11/11/11
f 14/14/14 11/11/11 13/13/13
f 12/12/12 15/15/15 9/9/9
f 13/13/13 9/9/9 15/15/15
f 12/12/12 8/8/8 16/16/16
f 15/15/15 12/12/12 16/16/16
f 8/8/8 17/17/17 16/16/16
f 17/17/17 8/8/8 1/1/1
f 18/18/18 15/15/15 16/16/16
f 15/15/15 18/18/18 13/13/13
f 17/17/17 19/19/19 16/16/16
f 20/20/20 17/17/17 1/1/1
f 20/20/20 19/19/19 17/17/17
f 1/1/1 4/4/4 20/20/20
f 21/21/21 20/20/20 4/4/4
f 21/21/21 19/19/19 20/20/20
f 4/4/4 22/22/22 21/21/21
f 13/13/13 23/23/23 14/14/14
f 23/23/23 13/13/13 18/18/18
f 21/21/21 24/24/24 19/19/19
f 19/19/19 24/24/24 16/16/16
f 25/25/25 21/21/21 22/22/22
f 24/24/24 21/21/21 25/25/25
f 22/22/22 26/26/26 25/25/25
f 26/26/26 27/27/27 25/25/25
f 25/25/25 28/28/28 24/24/24
f 24/24/24 28/28/28 16/16/16
f 25/25/25 27/27/27 29/29/29
f 25/25/25 29/29/29 28/28/28
f 30/30/30 29/29/29 27/27/27
f 27/27/27 31/31/31 30/30/30
f 32/32/32 28/28/28 29/29/29
f 28/28/28 32/32/32 16/16/16
f 30/30/30 32/32/32 29/29/29
f 33/33/33 18/18/18 16/16/16
f 18/18/18 33/33/33 23/23/23
f 32/32/32 34/34/34 16/16/16
f 30/30/30 34/34/34 32/32/32
f 35/35/35 33/33/33 16/16/16
f 34/34/34 35/35/35 16/16/16
f 23/23/23 33/33/33 35/35/35
f 35/35/35 34/34/34 30/30/30
f 36/36/36 30/30/30 31/31/31
f 30/30/30 36/36/36 35/35/35
f 35/35/35 36/36/36 23/23/23
f 31/31/31 37/37/37 36/36/36
f 36/36/36 14/14/14 23/23/23
f 37/37/37 14/14/14 36/36/36
f 40/40/40 39/39/39 38/38/38
f 41/41/41 40/40/40 38/38/38
f 42/42/42 38/38/38 39/39/39
f 43/43/43 42/42/42 39/39/39
f 38/38/38 44/44/44 41/41/41
f 44/44/44 45/45/45 41/41/41
f 41/41/41 45/45/45 46/46/46
f 45/45/45 47/47/47 46/46/46
f 48/48/48 46/46/46 47/47/47
f 49/49/49 48/48/48 47/47/47
f 44/44/44 38/38/38 50/50/50
f 51/51/51 45/45/45 44/44/44
f 44/44/44 50/50/50 51/51/51
f 52/52/52 47/47/47 45/45/45
f 45/45/45 51/51/51 52/52/52
f 47/47/47 53/53/53 49/49/49
f 53/53/53 47/47/47 52/52/52
f 54/54/54 50/50/50 38/38/38
f 42/42/42 54/54/54 38/38/38
f 51/51/51 50/50/50 55/55/55
f 52/52/52 51/51/51 55/55/55
f 50/50/50 54/54/54 55/55/55
f 56/56/56 52/52/52 55/55/55
f 52/52/52 56/56/56 53/53/53
f 54/54/54 57/57/57 55/55/55
f 57/57/57 54/54/54 42/42/42
f 53/53/53 58/58/58 49/49/49
f 49/49/49 58/58/58 59/59/59
f 56/56/56 60/60/60 53/53/53
f 60/60/60 56/56/56 55/55/55
f 53/53/53 60/60/60 58/58/58
f 61/61/61 57/57/57 42/42/42
f 57/57/57 61/61/61 55/55/55
f 58/58/58 62/62/62 59/59/59
f 63/63/63 59/59/59 62/62/62
f 64/64/64 63/63/63 62/62/62
f 58/58/58 60/60/60 65/65/65
f 65/65/65 62/62/62 58/58/58
f 65/65/65 60/60/60 55/55/55
f 62/62/62 66/66/66 64/64/64
f 66/66/66 62/62/62 65/65/65
f 66/66/66 67/67/67 64/64/64
f 64/64/64 67/67/67 68/68/68
f 67/67/67 69/69/69 68/68/68
f 70/70/70 68/68/68 69/69/69
f 43/43/43 70/70/70 69/69/69
f 65/65/65 71/71/71 66/66/66
f 67/67/67 66/66/66 71/71/71
f 71/71/71 65/65/65 55/55/55
f 71/71/71 72/72/72 67/67/67
f 72/72/72 71/71/71 55/55/55
f 69/69/69 67/67/67 72/72/72
f 73/73/73 72/72/72 55/55/55
f 72/72/72 73/73/73 69/69/69
f 61/61/61 73/73/73 55/55/55
f 69/69/69 73/73/73 61/61/61
f 69/69/69 74/74/74 43/43/43
f 61/61/61 74/74/74 69/69/69
f 74/74/74 42/42/42 43/43/43
f 42/42/42 74/74/74 61/61/61
