g SeparateMesh_Monster_Golem_Model_Monster_Golem_Head_LOD1
v -5.1864085E-08 -0.85168517 1.4056566
v 1.4285479E-08 -0.91688657 1.3737217
v -0.037189916 -0.91192275 1.3687576
v -0.037189927 -0.85168517 1.3982767
v 1.4285478E-08 -0.78645736 1.3737216
v -0.06869287 -0.897789 1.354624
v -0.037189923 -0.7914215 1.3687576
v -0.068692856 -0.85168517 1.3771954
v -0.08977418 -0.87663716 1.3334634
v -0.06869287 -0.8055638 1.354624
v -0.089774184 -0.85168517 1.3456925
v -0.097154 -0.85168517 1.3085024
v -0.08977421 -0.82672435 1.3334633
v -0.08977418 -0.87663716 1.3334634
v -0.08977413 -0.88884854 1.3085024
v -0.06869287 -0.897789 1.354624
v -0.068692826 -0.92037785 1.3085024
v -0.037189916 -0.91192275 1.3687576
v -0.08977418 -0.87663716 1.2835417
v -0.06869285 -0.897789 1.262381
v -0.037189927 -0.941433 1.3085024
v 1.4285479E-08 -0.91688657 1.3737217
v -0.0371899 -0.9119226 1.2482475
v 1.4285479E-08 -0.948839 1.3085024
v -2.981423E-08 -0.91688657 1.2432835
v -0.08977418 -0.87663716 1.2835417
v -0.089774184 -0.85168517 1.2713125
v -0.06869285 -0.897789 1.262381
v -0.068692856 -0.8516853 1.2398095
v -0.0371899 -0.9119226 1.2482475
v -0.0897742 -0.82672435 1.2835417
v -0.06869286 -0.8055638 1.2623811
v -0.037189927 -0.85168517 1.2187282
v -2.981423E-08 -0.91688657 1.2432835
v -0.037189923 -0.79142135 1.2482476
v 1.4285479E-08 -0.85168517 1.2113487
v -2.981423E-08 -0.78645736 1.2432835
v -0.0897742 -0.82672435 1.2835417
v -0.089774184 -0.8144952 1.3085024
v -0.08977421 -0.82672435 1.3334633
v -0.06869286 -0.8055638 1.2623811
v -0.068692856 -0.7829658 1.3085024
v -0.06869287 -0.8055638 1.354624
v -0.037189923 -0.79142135 1.2482476
v -0.03718989 -0.761911 1.3085024
v -2.981423E-08 -0.78645736 1.2432835
v -0.037189923 -0.7914215 1.3687576
v 8.0435036E-08 -0.75450474 1.3085024
v 1.4285478E-08 -0.78645736 1.3737216
v -5.1864085E-08 -0.85168517 1.4056566
v 0.03718992 -0.85168517 1.3982767
v 0.03718994 -0.9119226 1.3687576
v 1.4285479E-08 -0.91688657 1.3737217
v 1.4285478E-08 -0.78645736 1.3737216
v 0.03718992 -0.941433 1.3085023
v 1.4285479E-08 -0.948839 1.3085024
v 0.037189923 -0.7914214 1.3687576
v 8.0435036E-08 -0.75450474 1.3085024
v 0.03718994 -0.9119226 1.2482475
v -2.981423E-08 -0.91688657 1.2432835
v 0.037189923 -0.7619109 1.3085023
v -2.981423E-08 -0.78645736 1.2432835
v 0.03718992 -0.85168517 1.2187282
v 1.4285479E-08 -0.85168517 1.2113487
v 0.037189923 -0.79142135 1.2482475
v 0.06869287 -0.897789 1.354624
v 0.06869285 -0.92037785 1.3085024
v 0.06869285 -0.85168517 1.3771956
v 0.06869285 -0.897789 1.262381
v 0.06869285 -0.80556387 1.3546238
v 0.06869285 -0.8516853 1.2398095
v 0.06869285 -0.80556387 1.262381
v 0.06869299 -0.7829659 1.3085023
v 0.089774184 -0.87663716 1.3334634
v 0.089774184 -0.8888484 1.3085024
v 0.097154 -0.85168517 1.3085024
v 0.089774184 -0.85168517 1.3456928
v 0.089774184 -0.87663716 1.2835418
v 0.089774184 -0.82672435 1.3334634
v 0.089774184 -0.85168517 1.2713125
v 0.089774184 -0.8144952 1.3085024
v 0.089774184 -0.82672435 1.2835418
vt 0.6513 0.9966
vt 0.6366 0.9893
vt 0.6452 0.9895
vt 0.6514 0.9908
vt 0.66609997 0.9894
vt 0.6474 0.9845
vt 0.6576 0.9895
vt 0.6515 0.9853
vt 0.6494 0.9795
vt 0.6556 0.9844
vt 0.6515 0.9799
vt 0.6514 0.9746
vt 0.6535 0.9795
vt 0.6465 0.9767
vt 0.6461 0.9747
vt 0.6416 0.9788
vt 0.6407 0.9747
vt 0.6365 0.9808
vt 0.6465 0.9726
vt 0.6415 0.9706
vt 0.6353 0.9746
vt 0.6366 0.9893
vt 0.6365 0.9684
vt 0.6294 0.9745
vt 0.6367334 0.9598
vt 0.6493 0.9697
vt 0.6513 0.9693
vt 0.6473 0.9648
vt 0.6513 0.9639
vt 0.6452 0.9597
vt 0.6534 0.9697
vt 0.6554 0.9647
vt 0.6514 0.9584
vt 0.6367334 0.9598
vt 0.6576 0.9597
vt 0.6515 0.9526
vt 0.66620004 0.9599
vt 0.6563 0.9725
vt 0.6567 0.9745
vt 0.6563 0.9771
vt 0.6612 0.9704
vt 0.6621 0.9745
vt 0.6613 0.9791
vt 0.6663 0.9684
vt 0.6676 0.9746
vt 0.66620004 0.9599
vt 0.6663 0.9808
vt 0.6734 0.9747
vt 0.66609997 0.9894
vt 0.6513 0.9966
vt 0.6514 0.9908
vt 0.6405667 0.98543334
vt 0.6366 0.9893
vt 0.66609997 0.9894
vt 0.6353 0.9746
vt 0.6294 0.9745
vt 0.66223335 0.98543334
vt 0.6734 0.9747
vt 0.6405667 0.9637667
vt 0.6367334 0.9598
vt 0.6676 0.9746
vt 0.66620004 0.9599
vt 0.6514 0.9584
vt 0.6515 0.9526
vt 0.66223335 0.9637667
vt 0.64430004 0.9818334
vt 0.6407 0.9747
vt 0.6515 0.9853
vt 0.6442 0.9675001
vt 0.65863335 0.9820334
vt 0.6513 0.9639
vt 0.6585001 0.9673667
vt 0.6621 0.9745
vt 0.6478667 0.9782001
vt 0.6461 0.9747
vt 0.6514 0.9746
vt 0.6515 0.9799
vt 0.6478 0.97106665
vt 0.6550001 0.9784667
vt 0.6513 0.9693
vt 0.6567 0.9745
vt 0.6549334 0.9710001
vn -0 -7.779893E-05 1
vn 9.00235E-07 -0.7071203 0.7070932
vn -0.3545683 -0.66118824 0.66114414
vn -0.36460254 -7.508808E-05 0.9311632
vn -2.7537632E-07 0.70706445 0.707149
vn -0.67022383 -0.52480525 0.5247661
vn -0.3546008 0.66112584 0.6611891
vn -0.68045086 -6.354108E-05 0.7327937
vn -0.9013757 -0.3062507 0.30615747
vn -0.67026526 0.5246936 0.52482474
vn -0.90341437 -3.920096E-05 0.4287686
vn -1 -4.799064E-05 -3.6722156E-07
vn -0.9014014 0.30611894 0.3062135
vn -0.9013757 -0.3062507 0.30615747
vn -0.90345836 -0.428676 -3.6461566E-07
vn -0.67022383 -0.52480525 0.5247661
vn -0.6803469 -0.73289025 -7.5963453E-07
vn -0.3545683 -0.66118824 0.66114414
vn -0.9013759 -0.30625048 -0.3061569
vn -0.6702231 -0.52480596 -0.52476615
vn -0.36465037 -0.9311445 -1.050093E-06
vn 9.00235E-07 -0.7071203 0.7070932
vn -0.35456622 -0.6611885 -0.6611449
vn 5.3356706E-07 -1 -6.130345E-07
vn -3.653888E-07 -0.707121 -0.70709246
vn -0.9013759 -0.30625048 -0.3061569
vn -0.90341455 -3.9079394E-05 -0.42876804
vn -0.6702231 -0.52480596 -0.52476615
vn -0.68045163 -6.483547E-05 -0.732793
vn -0.35456622 -0.6611885 -0.6611449
vn -0.9014011 0.30611885 -0.30621448
vn -0.6702658 0.5246934 -0.5248242
vn -0.36460024 -7.532304E-05 -0.93116415
vn -3.653888E-07 -0.707121 -0.70709246
vn -0.35460004 0.6611272 -0.6611881
vn -2.3833304E-07 -7.8479665E-05 -1
vn -8.790848E-07 0.7070642 -0.7071493
vn -0.9014011 0.30611885 -0.30621448
vn -0.9034852 0.4286193 -3.2412498E-07
vn -0.9014014 0.30611894 0.3062135
vn -0.6702658 0.5246934 -0.5248242
vn -0.6804168 0.7328253 -1.6049343E-07
vn -0.67026526 0.5246936 0.52482474
vn -0.35460004 0.6611272 -0.6611881
vn -0.3646951 0.931127 0
vn -8.790848E-07 0.7070642 -0.7071493
vn -0.3546008 0.66112584 0.6611891
vn -5.2789244E-07 1 1.2487779E-07
vn -2.7537632E-07 0.70706445 0.707149
vn -0 -7.779893E-05 1
vn 0.36460245 -7.524451E-05 0.9311633
vn 0.35456818 -0.6611879 0.66114444
vn 9.00235E-07 -0.7071203 0.7070932
vn -2.7537632E-07 0.70706445 0.707149
vn 0.36465046 -0.9311445 -2.100186E-06
vn 5.3356706E-07 -1 -6.130345E-07
vn 0.35460147 0.661126 0.66118854
vn -5.2789244E-07 1 1.2487779E-07
vn 0.35456625 -0.6611883 -0.6611451
vn -3.653888E-07 -0.707121 -0.70709246
vn 0.36469576 0.9311267 -1.3964229E-06
vn -8.790848E-07 0.7070642 -0.7071493
vn 0.36459982 -7.55912E-05 -0.9311643
vn -2.3833304E-07 -7.8479665E-05 -1
vn 0.35459974 0.6611267 -0.6611887
vn 0.6702228 -0.5248066 0.524766
vn 0.6803468 -0.7328903 0
vn 0.68045026 -6.324166E-05 0.73279417
vn 0.6702237 -0.5248055 -0.5247661
vn 0.67026544 0.5246943 0.52482384
vn 0.680452 -6.5263346E-05 -0.7327927
vn 0.67026645 0.5246919 -0.524825
vn 0.6804186 0.7328237 -9.201617E-07
vn 0.9013757 -0.3062512 0.30615687
vn 0.90345883 -0.42867485 -5.77308E-07
vn 1 -4.7706544E-05 -8.5850434E-07
vn 0.9034142 -3.8805956E-05 0.428769
vn 0.9013761 -0.30625048 -0.30615622
vn 0.9014006 0.30612034 0.30621445
vn 0.9034147 -3.9180693E-05 -0.42876765
vn 0.9034852 0.42861927 0
vn 0.90140146 0.30611858 -0.30621374
g SeparateMesh_Monster_Golem_Model_Monster_Golem_Head_LOD1_0
f 3/3/3 2/2/2 1/1/1
f 4/4/4 3/3/3 1/1/1
f 4/4/4 1/1/1 5/5/5
f 6/6/6 3/3/3 4/4/4
f 7/7/7 4/4/4 5/5/5
f 8/8/8 6/6/6 4/4/4
f 8/8/8 4/4/4 7/7/7
f 9/9/9 6/6/6 8/8/8
f 10/10/10 8/8/8 7/7/7
f 11/11/11 9/9/9 8/8/8
f 11/11/11 8/8/8 10/10/10
f 9/9/9 11/11/11 12/12/12
f 13/13/13 11/11/11 10/10/10
f 11/11/11 13/13/13 12/12/12
f 15/15/15 14/14/14 12/12/12
f 14/14/14 15/15/15 16/16/16
f 15/15/15 17/17/17 16/16/16
f 16/16/16 17/17/17 18/18/18
f 19/19/19 15/15/15 12/12/12
f 15/15/15 19/19/19 17/17/17
f 19/19/19 20/20/20 17/17/17
f 17/17/17 21/21/21 18/18/18
f 17/17/17 20/20/20 21/21/21
f 18/18/18 21/21/21 22/22/22
f 20/20/20 23/23/23 21/21/21
f 21/21/21 24/24/24 22/22/22
f 21/21/21 23/23/23 24/24/24
f 23/23/23 25/25/25 24/24/24
f 27/27/27 26/26/26 12/12/12
f 26/26/26 27/27/27 28/28/28
f 27/27/27 29/29/29 28/28/28
f 28/28/28 29/29/29 30/30/30
f 31/31/31 27/27/27 12/12/12
f 27/27/27 31/31/31 29/29/29
f 31/31/31 32/32/32 29/29/29
f 29/29/29 33/33/33 30/30/30
f 29/29/29 32/32/32 33/33/33
f 30/30/30 33/33/33 34/34/34
f 32/32/32 35/35/35 33/33/33
f 33/33/33 36/36/36 34/34/34
f 33/33/33 35/35/35 36/36/36
f 35/35/35 37/37/37 36/36/36
f 39/39/39 38/38/38 12/12/12
f 40/40/40 39/39/39 12/12/12
f 38/38/38 39/39/39 41/41/41
f 39/39/39 40/40/40 42/42/42
f 39/39/39 42/42/42 41/41/41
f 40/40/40 43/43/43 42/42/42
f 41/41/41 42/42/42 44/44/44
f 42/42/42 43/43/43 45/45/45
f 42/42/42 45/45/45 44/44/44
f 44/44/44 45/45/45 46/46/46
f 43/43/43 47/47/47 45/45/45
f 45/45/45 48/48/48 46/46/46
f 45/45/45 47/47/47 48/48/48
f 47/47/47 49/49/49 48/48/48
f 52/52/52 51/51/51 50/50/50
f 53/53/53 52/52/52 50/50/50
f 50/50/50 51/51/51 54/54/54
f 55/55/55 52/52/52 53/53/53
f 56/56/56 55/55/55 53/53/53
f 51/51/51 57/57/57 54/54/54
f 54/54/54 57/57/57 58/58/58
f 59/59/59 55/55/55 56/56/56
f 60/60/60 59/59/59 56/56/56
f 57/57/57 61/61/61 58/58/58
f 58/58/58 61/61/61 62/62/62
f 63/63/63 59/59/59 60/60/60
f 64/64/64 63/63/63 60/60/60
f 62/62/62 65/65/65 64/64/64
f 61/61/61 65/65/65 62/62/62
f 65/65/65 63/63/63 64/64/64
f 52/52/52 66/66/66 51/51/51
f 55/55/55 67/67/67 52/52/52
f 67/67/67 66/66/66 52/52/52
f 51/51/51 68/68/68 57/57/57
f 66/66/66 68/68/68 51/51/51
f 59/59/59 69/69/69 55/55/55
f 69/69/69 67/67/67 55/55/55
f 57/57/57 70/70/70 61/61/61
f 68/68/68 70/70/70 57/57/57
f 63/63/63 71/71/71 59/59/59
f 71/71/71 69/69/69 59/59/59
f 65/65/65 72/72/72 63/63/63
f 72/72/72 71/71/71 63/63/63
f 61/61/61 73/73/73 65/65/65
f 70/70/70 73/73/73 61/61/61
f 73/73/73 72/72/72 65/65/65
f 66/66/66 74/74/74 68/68/68
f 67/67/67 75/75/75 66/66/66
f 75/75/75 74/74/74 66/66/66
f 74/74/74 75/75/75 76/76/76
f 74/74/74 77/77/77 68/68/68
f 68/68/68 77/77/77 70/70/70
f 77/77/77 74/74/74 76/76/76
f 78/78/78 75/75/75 67/67/67
f 69/69/69 78/78/78 67/67/67
f 75/75/75 78/78/78 76/76/76
f 77/77/77 79/79/79 70/70/70
f 70/70/70 79/79/79 73/73/73
f 79/79/79 77/77/77 76/76/76
f 80/80/80 78/78/78 69/69/69
f 78/78/78 80/80/80 76/76/76
f 71/71/71 80/80/80 69/69/69
f 79/79/79 81/81/81 73/73/73
f 73/73/73 81/81/81 72/72/72
f 81/81/81 79/79/79 76/76/76
f 80/80/80 82/82/82 76/76/76
f 82/82/82 80/80/80 71/71/71
f 72/72/72 82/82/82 71/71/71
f 82/82/82 81/81/81 76/76/76
f 81/81/81 82/82/82 72/72/72
