g SeparateMesh_Monster_Cyrtoidea_Model_Monster_Cyrtoidea_Head_LOD2
v -0 -0.15354845 1.9102944
v 0.040703617 -0.15354845 1.8965163
v 0.04070367 -0.17685421 1.8918796
v -0 -0.18212134 1.9046205
v -0 -0.11283466 1.8965163
v 0.04070361 -0.2032155 1.8687975
v -0 -0.21445653 1.8763019
v 0.06902226 -0.17507976 1.8499914
v 0.04070361 -0.21445651 1.8355981
v -0 -0.22824454 1.8355981
v 0.040703617 -0.1203491 1.8852803
v -0 -0.084526286 1.8641913
v 0.04070361 -0.2098198 1.8122822
v -0 -0.22255053 1.8070049
v 0.06902226 -0.13915528 1.8571397
v 0.040703617 -0.09725704 1.858914
v -0 -0.078832015 1.8355981
v 0.04070367 -0.09262019 1.8355981
v -0 -0.092620164 1.7948946
v 0.06902226 -0.1679366 1.8140566
v 0.040703624 -0.18673266 1.7859159
v -0 -0.194242 1.7746798
v 0.040703617 -0.15354851 1.7746798
v -0 -0.15354845 1.760902
v 0.07469618 -0.15354845 1.8355981
v 0.06902226 -0.132007 1.8212049
v 0.040703617 -0.103861295 1.8023987
v -0 -0.1249553 1.7665757
v 0.040703617 -0.1302326 1.7793167
v -0 -0.15354845 1.9102944
v -0 -0.18212134 1.9046205
v -0.04070367 -0.17685421 1.8918796
v -0.040703617 -0.15354845 1.8965163
v -0 -0.11283466 1.8965163
v -0.04070361 -0.2032155 1.8687975
v -0 -0.21445653 1.8763019
v -0.06902226 -0.17507976 1.8499914
v -0.04070361 -0.21445651 1.8355981
v -0 -0.22824454 1.8355981
v -0.040703617 -0.1203491 1.8852803
v -0 -0.084526286 1.8641913
v -0.04070361 -0.2098198 1.8122822
v -0 -0.22255053 1.8070049
v -0.06902226 -0.13915528 1.8571397
v -0.040703617 -0.09725704 1.858914
v -0 -0.078832015 1.8355981
v -0.04070367 -0.09262019 1.8355981
v -0 -0.092620164 1.7948946
v -0.06902226 -0.1679366 1.8140566
v -0.040703624 -0.18673266 1.7859159
v -0 -0.194242 1.7746798
v -0.040703617 -0.15354851 1.7746798
v -0 -0.15354845 1.760902
v -0.07469618 -0.15354845 1.8355981
v -0.06902226 -0.132007 1.8212049
v -0.040703617 -0.103861295 1.8023987
v -0 -0.1249553 1.7665757
v -0.040703617 -0.1302326 1.7793167
vt 0.024336934 0.99832803
vt 0.02418691 0.98977816
vt 0.02933687 0.98872817
vt 0.032736897 0.9966281
vt 0.012336969 0.99427813
vt 0.03513691 0.9836782
vt 0.042186916 0.9882282
vt 0.028211921 0.9790532
vt 0.037636936 0.9763782
vt 0.046236873 0.9762281
vt 0.01688695 0.9873532
vt 0.003936887 0.9848281
vt 0.03663689 0.97122824
vt 0.04443693 0.96782815
vt 0.021511912 0.98055315
vt 0.011836946 0.9816781
vt 0.0022369623 0.97642815
vt 0.010786951 0.9762782
vt 0.006286919 0.9644282
vt 0.026961923 0.97235316
vt 0.03156188 0.96542823
vt 0.036136866 0.9583782
vt 0.024286926 0.9628782
vt 0.0241369 0.9543282
vt 0.024236917 0.97632825
vt 0.020261914 0.9736031
vt 0.013336927 0.96897817
vt 0.015736938 0.9560281
vt 0.019136965 0.9639282
vt 0.024336906 0.99832803
vt 0.032736927 0.9966281
vt 0.029336901 0.98872817
vt 0.024186911 0.98977816
vt 0.012336943 0.99427813
vt 0.035136923 0.9836782
vt 0.042186916 0.9882282
vt 0.028211923 0.9790532
vt 0.037636936 0.9763782
vt 0.046236902 0.9762281
vt 0.016886923 0.9873532
vt 0.0039369203 0.9848281
vt 0.03663692 0.97122824
vt 0.0444369 0.96782815
vt 0.021511914 0.98055315
vt 0.01183692 0.9816781
vt 0.0022369362 0.97642815
vt 0.010786925 0.9762782
vt 0.006286923 0.9644282
vt 0.026961925 0.97235316
vt 0.03156191 0.96542823
vt 0.036136895 0.9583782
vt 0.024286898 0.9628782
vt 0.024136933 0.9543282
vt 0.02423689 0.97632825
vt 0.020261915 0.9736031
vt 0.013336916 0.96897817
vt 0.015736911 0.9560281
vt 0.01913694 0.9639282
vn -0 0.061845087 0.99808574
vn 0.57038575 0.042196594 0.82029235
vn 0.5704054 -0.3529132 0.7416805
vn -0 -0.4390053 0.8984845
vn -0 0.5554913 0.83152235
vn 0.5423203 -0.6985641 0.46679416
vn -0 -0.8314752 0.5555618
vn 0.9010004 -0.36070532 0.24101882
vn 0.57041496 -0.82027066 0.04222392
vn -0 -0.99808705 0.06182381
vn 0.5423282 0.46667832 0.6986355
vn -0 0.8983992 0.43917975
vn 0.57038516 -0.7416847 -0.35293707
vn -0 -0.8984102 -0.43915713
vn 0.90102947 0.24094027 0.36068514
vn 0.57044095 0.7416325 0.35295647
vn -0 0.99808717 -0.06182197
vn 0.57046735 0.8202347 -0.042212605
vn -0 0.83145344 -0.5555943
vn 0.90100914 -0.24102597 -0.3606784
vn 0.54228276 -0.4667669 -0.69861156
vn -0 -0.55555254 -0.8314814
vn 0.5703799 -0.042295057 -0.8202914
vn -0 -0.06196702 -0.9980782
vn 1 -4.978587E-05 2.471648E-06
vn 0.9010355 0.36062983 -0.24100055
vn 0.5423768 0.6985085 -0.4668118
vn -0 0.43894982 -0.8985115
vn 0.57043695 0.3528099 -0.7417054
vn -0 0.061845087 0.99808574
vn -0 -0.4390053 0.8984845
vn -0.5704054 -0.3529132 0.7416805
vn -0.57038575 0.042196594 0.82029235
vn -0 0.5554913 0.83152235
vn -0.5423204 -0.6985641 0.46679416
vn -0 -0.8314752 0.5555618
vn -0.9010004 -0.36070538 0.24101888
vn -0.57041484 -0.8202708 0.0422239
vn -0 -0.99808705 0.06182381
vn -0.5423281 0.46667832 0.6986356
vn -0 0.8983992 0.43917975
vn -0.5703851 -0.74168473 -0.3529371
vn -0 -0.8984102 -0.43915713
vn -0.90102947 0.24094027 0.36068514
vn -0.57044095 0.7416325 0.35295647
vn -0 0.99808717 -0.06182197
vn -0.57046735 0.8202347 -0.042212605
vn -0 0.83145344 -0.5555943
vn -0.90100914 -0.24102597 -0.3606784
vn -0.54228276 -0.4667669 -0.69861156
vn -0 -0.55555254 -0.8314814
vn -0.5703799 -0.042295057 -0.8202914
vn -0 -0.06196702 -0.9980782
vn -1 -4.978587E-05 2.471648E-06
vn -0.90103537 0.36062977 -0.24100055
vn -0.5423768 0.6985085 -0.46681187
vn -0 0.43894982 -0.8985115
vn -0.5704369 0.3528099 -0.7417055
g SeparateMesh_Monster_Cyrtoidea_Model_Monster_Cyrtoidea_Head_LOD2_0
f 3/3/3 2/2/2 1/1/1
f 4/4/4 3/3/3 1/1/1
f 1/1/1 2/2/2 5/5/5
f 6/6/6 3/3/3 4/4/4
f 7/7/7 6/6/6 4/4/4
f 6/6/6 8/8/8 3/3/3
f 3/3/3 8/8/8 2/2/2
f 9/9/9 6/6/6 7/7/7
f 9/9/9 8/8/8 6/6/6
f 10/10/10 9/9/9 7/7/7
f 2/2/2 11/11/11 5/5/5
f 5/5/5 11/11/11 12/12/12
f 13/13/13 9/9/9 10/10/10
f 14/14/14 13/13/13 10/10/10
f 2/2/2 15/15/15 11/11/11
f 8/8/8 15/15/15 2/2/2
f 11/11/11 16/16/16 12/12/12
f 11/11/11 15/15/15 16/16/16
f 12/12/12 16/16/16 17/17/17
f 16/16/16 18/18/18 17/17/17
f 16/16/16 15/15/15 18/18/18
f 17/17/17 18/18/18 19/19/19
f 20/20/20 8/8/8 9/9/9
f 13/13/13 20/20/20 9/9/9
f 21/21/21 13/13/13 14/14/14
f 21/21/21 20/20/20 13/13/13
f 22/22/22 21/21/21 14/14/14
f 23/23/23 21/21/21 22/22/22
f 23/23/23 20/20/20 21/21/21
f 24/24/24 23/23/23 22/22/22
f 15/15/15 8/8/8 25/25/25
f 8/8/8 20/20/20 25/25/25
f 26/26/26 15/15/15 25/25/25
f 20/20/20 26/26/26 25/25/25
f 15/15/15 26/26/26 18/18/18
f 26/26/26 20/20/20 23/23/23
f 18/18/18 27/27/27 19/19/19
f 18/18/18 26/26/26 27/27/27
f 19/19/19 27/27/27 28/28/28
f 29/29/29 23/23/23 24/24/24
f 29/29/29 26/26/26 23/23/23
f 28/28/28 29/29/29 24/24/24
f 27/27/27 26/26/26 29/29/29
f 27/27/27 29/29/29 28/28/28
f 32/32/32 31/31/31 30/30/30
f 33/33/33 32/32/32 30/30/30
f 33/33/33 30/30/30 34/34/34
f 32/32/32 35/35/35 31/31/31
f 35/35/35 36/36/36 31/31/31
f 37/37/37 35/35/35 32/32/32
f 37/37/37 32/32/32 33/33/33
f 35/35/35 38/38/38 36/36/36
f 37/37/37 38/38/38 35/35/35
f 38/38/38 39/39/39 36/36/36
f 40/40/40 33/33/33 34/34/34
f 40/40/40 34/34/34 41/41/41
f 38/38/38 42/42/42 39/39/39
f 42/42/42 43/43/43 39/39/39
f 44/44/44 33/33/33 40/40/40
f 44/44/44 37/37/37 33/33/33
f 45/45/45 40/40/40 41/41/41
f 44/44/44 40/40/40 45/45/45
f 45/45/45 41/41/41 46/46/46
f 47/47/47 45/45/45 46/46/46
f 44/44/44 45/45/45 47/47/47
f 47/47/47 46/46/46 48/48/48
f 49/49/49 42/42/42 38/38/38
f 37/37/37 49/49/49 38/38/38
f 42/42/42 50/50/50 43/43/43
f 49/49/49 50/50/50 42/42/42
f 50/50/50 51/51/51 43/43/43
f 50/50/50 52/52/52 51/51/51
f 49/49/49 52/52/52 50/50/50
f 52/52/52 53/53/53 51/51/51
f 37/37/37 44/44/44 54/54/54
f 49/49/49 37/37/37 54/54/54
f 44/44/44 55/55/55 54/54/54
f 55/55/55 49/49/49 54/54/54
f 55/55/55 44/44/44 47/47/47
f 49/49/49 55/55/55 52/52/52
f 56/56/56 47/47/47 48/48/48
f 55/55/55 47/47/47 56/56/56
f 56/56/56 48/48/48 57/57/57
f 58/58/58 57/57/57 53/53/53
f 52/52/52 58/58/58 53/53/53
f 55/55/55 58/58/58 52/52/52
f 55/55/55 56/56/56 58/58/58
f 58/58/58 56/56/56 57/57/57
