g SeparateMesh_Monster_Cyrtoidea_Model_Monster_Cyrtoidea_Head_LOD1
v -0 -0.15354845 1.9102944
v 0.040703617 -0.15354845 1.8965163
v 0.04070367 -0.17685421 1.8918796
v -0 -0.18212134 1.9046205
v -0 -0.1249553 1.9046205
v 0.04070361 -0.19661117 1.878681
v -0 -0.20636255 1.8884125
v 0.04070364 -0.1302326 1.8918796
v -0 -0.10071402 1.8884125
v 0.06902226 -0.16912627 1.858914
v 0.04070361 -0.20981982 1.858914
v -0 -0.22255053 1.8641913
v 0.04070359 -0.1104656 1.878681
v -0 -0.084526286 1.8641913
v 0.06902226 -0.14807796 1.8631034
v 0.07469618 -0.15354845 1.8355981
v 0.06902226 -0.18103324 1.8410686
v 0.04070361 -0.21445651 1.8355981
v -0 -0.22824454 1.8355981
v 0.040703617 -0.09725704 1.858914
v -0 -0.078832015 1.8355981
v 0.06902226 -0.1302326 1.8511759
v 0.04070367 -0.09262019 1.8355981
v -0 -0.084526286 1.8070049
v 0.06902226 -0.17685413 1.8200204
v 0.04070361 -0.2098198 1.8122822
v -0 -0.22255053 1.8070049
v 0.04070361 -0.19661117 1.792515
v -0 -0.20636255 1.7827841
v 0.06902226 -0.12604332 1.8301277
v 0.040703617 -0.09725701 1.8122822
v -0 -0.10071402 1.7827841
v 0.040703617 -0.11046557 1.7925153
v -0 -0.1249553 1.7665757
v 0.06902226 -0.15901902 1.808093
v 0.04070364 -0.17685416 1.7793167
v -0 -0.18212144 1.7665757
v 0.06902226 -0.13797069 1.8122822
v 0.040703617 -0.1302326 1.7793167
v -0 -0.15354845 1.760902
v 0.040703617 -0.15354851 1.7746798
v -0 -0.15354845 1.9102944
v -0 -0.18212134 1.9046205
v -0.04070367 -0.17685421 1.8918796
v -0.040703617 -0.15354845 1.8965163
v -0 -0.1249553 1.9046205
v -0.04070361 -0.19661117 1.878681
v -0 -0.20636255 1.8884125
v -0.04070364 -0.1302326 1.8918796
v -0 -0.10071402 1.8884125
v -0.06902226 -0.16912627 1.858914
v -0.04070361 -0.20981982 1.858914
v -0 -0.22255053 1.8641913
v -0.04070359 -0.1104656 1.878681
v -0 -0.084526286 1.8641913
v -0.06902226 -0.14807796 1.8631034
v -0.07469618 -0.15354845 1.8355981
v -0.06902226 -0.18103324 1.8410686
v -0.04070361 -0.21445651 1.8355981
v -0 -0.22824454 1.8355981
v -0.040703617 -0.09725704 1.858914
v -0 -0.078832015 1.8355981
v -0.06902226 -0.1302326 1.8511759
v -0.04070367 -0.09262019 1.8355981
v -0 -0.084526286 1.8070049
v -0.06902226 -0.17685413 1.8200204
v -0.04070361 -0.2098198 1.8122822
v -0 -0.22255053 1.8070049
v -0.04070361 -0.19661117 1.792515
v -0 -0.20636255 1.7827841
v -0.06902226 -0.12604332 1.8301277
v -0.040703617 -0.09725701 1.8122822
v -0 -0.10071402 1.7827841
v -0.040703617 -0.11046557 1.7925153
v -0 -0.1249553 1.7665757
v -0.06902226 -0.15901902 1.808093
v -0.04070364 -0.17685416 1.7793167
v -0 -0.18212144 1.7665757
v -0.06902226 -0.13797069 1.8122822
v -0.040703617 -0.1302326 1.7793167
v -0 -0.15354845 1.760902
v -0.040703617 -0.15354851 1.7746798
vt 0.024336934 0.99832803
vt 0.02418691 0.98977816
vt 0.02933687 0.98872817
vt 0.032736897 0.9966281
vt 0.01593697 0.9966281
vt 0.033686936 0.9858283
vt 0.039836884 0.991828
vt 0.019036949 0.9886782
vt 0.008736968 0.99192816
vt 0.027086914 0.9806782
vt 0.03658688 0.98152816
vt 0.04453695 0.9846283
vt 0.01473695 0.9860282
vt 0.003936887 0.9848281
vt 0.023136914 0.98142815
vt 0.024236917 0.97632825
vt 0.02933693 0.9774282
vt 0.037636936 0.9763782
vt 0.046236873 0.9762281
vt 0.011836946 0.9816781
vt 0.0022369623 0.97642815
vt 0.01988691 0.97967815
vt 0.010786951 0.9762782
vt 0.003936887 0.9680282
vt 0.028586924 0.9734782
vt 0.03663689 0.97122824
vt 0.04443693 0.96782815
vt 0.033736885 0.9668783
vt 0.039736867 0.9607283
vt 0.019136906 0.9752282
vt 0.011886954 0.9711281
vt 0.008636951 0.9608282
vt 0.014786899 0.9668282
vt 0.015736938 0.9560281
vt 0.025336921 0.9712281
vt 0.029386878 0.9639782
vt 0.032536864 0.9560281
vt 0.021386921 0.97197807
vt 0.019136965 0.9639282
vt 0.0241369 0.9543282
vt 0.024286926 0.9628782
vt 0.024336906 0.99832803
vt 0.032736927 0.9966281
vt 0.029336901 0.98872817
vt 0.024186911 0.98977816
vt 0.015936945 0.9966281
vt 0.033686936 0.9858283
vt 0.039836913 0.991828
vt 0.019036923 0.9886782
vt 0.008736942 0.99192816
vt 0.027086915 0.9806782
vt 0.03658691 0.98152816
vt 0.04453692 0.9846283
vt 0.014736924 0.9860282
vt 0.0039369203 0.9848281
vt 0.023136916 0.98142815
vt 0.02423689 0.97632825
vt 0.029336931 0.9774282
vt 0.037636936 0.9763782
vt 0.046236902 0.9762281
vt 0.01183692 0.9816781
vt 0.0022369362 0.97642815
vt 0.019886913 0.97967815
vt 0.010786925 0.9762782
vt 0.0039369203 0.9680282
vt 0.028586926 0.9734782
vt 0.03663692 0.97122824
vt 0.0444369 0.96782815
vt 0.033736914 0.9668783
vt 0.039736897 0.9607283
vt 0.019136908 0.9752282
vt 0.011886928 0.9711281
vt 0.008636925 0.9608282
vt 0.014786903 0.9668282
vt 0.015736911 0.9560281
vt 0.025336923 0.9712281
vt 0.02938691 0.9639782
vt 0.032536894 0.9560281
vt 0.021386923 0.97197807
vt 0.01913694 0.9639282
vt 0.024136933 0.9543282
vt 0.024286898 0.9628782
vn -0 -5.3719777E-05 1
vn 0.54771984 -0.0042965403 0.8366507
vn 0.5477134 -0.31625137 0.77459353
vn -0 -0.38264492 0.9238955
vn -0 0.38257188 0.9239257
vn 0.54769886 -0.59462607 0.58859634
vn -0 -0.70715165 0.7070619
vn 0.5477618 0.32400793 0.77134675
vn -0 0.7071176 0.70709586
vn 0.8847072 -0.25907603 0.38752127
vn 0.5477436 -0.77132946 0.32408
vn -0 -0.9238438 0.38276964
vn 0.5477477 0.5885461 0.59463084
vn -0 0.9238433 0.3827709
vn 0.8847181 0.09089396 0.45717844
vn 1 -4.6670226E-05 -1.6365947E-06
vn 0.8847315 -0.4571519 0.09089765
vn 0.54778165 -0.83661073 -0.004224394
vn -0 -1 -3.5031914E-07
vn 0.54777884 0.7745349 0.31628153
vn -0 1 2.4947073E-07
vn 0.88476014 0.38748989 0.25894246
vn 0.5478002 0.8365983 0.0042578434
vn -0 0.9238428 -0.38277203
vn 0.88471997 -0.38762572 -0.2588762
vn 0.5477446 -0.77456844 -0.3162589
vn -0 -0.9238435 -0.38277042
vn 0.5476978 -0.5886111 -0.5946124
vn -0 -0.707153 -0.70706046
vn 0.88475436 0.45710182 -0.09092708
vn 0.5477747 0.7712874 -0.32412767
vn -0 0.7071184 -0.70709515
vn 0.5477519 0.5945252 -0.5886489
vn -0 0.38257116 -0.923926
vn 0.8847085 -0.09098187 -0.4571796
vn 0.54771835 -0.32412544 -0.77132833
vn -0 -0.3826441 -0.9238958
vn 0.88474363 0.258902 -0.38755444
vn 0.5477587 0.3161417 -0.7746063
vn -0 -5.3645206E-05 -1
vn 0.5477202 0.0042174575 -0.83665097
vn -0 -5.3719777E-05 1
vn -0 -0.38264492 0.9238955
vn -0.5477134 -0.31625137 0.77459353
vn -0.54771984 -0.0042965556 0.8366507
vn -0 0.38257188 0.9239257
vn -0.54769886 -0.59462607 0.58859634
vn -0 -0.70715165 0.7070619
vn -0.5477618 0.32400793 0.77134675
vn -0 0.7071176 0.70709586
vn -0.8847072 -0.2590761 0.3875213
vn -0.5477436 -0.77132946 0.32407993
vn -0 -0.9238438 0.38276964
vn -0.5477477 0.5885461 0.59463084
vn -0 0.9238433 0.3827709
vn -0.8847181 0.09089396 0.45717844
vn -1 -4.6670226E-05 -1.6365947E-06
vn -0.8847315 -0.4571519 0.09089765
vn -0.54778165 -0.83661073 -0.004224399
vn -0 -1 -3.5031914E-07
vn -0.54777884 0.7745349 0.31628153
vn -0 1 2.4947073E-07
vn -0.88476014 0.38748989 0.25894246
vn -0.5478002 0.8365983 0.004257853
vn -0 0.9238428 -0.38277203
vn -0.88471997 -0.38762572 -0.2588762
vn -0.5477446 -0.77456844 -0.3162589
vn -0 -0.9238435 -0.38277042
vn -0.5476978 -0.5886111 -0.5946124
vn -0 -0.707153 -0.70706046
vn -0.88475436 0.45710182 -0.09092708
vn -0.5477747 0.7712874 -0.32412767
vn -0 0.7071184 -0.70709515
vn -0.5477519 0.5945252 -0.5886489
vn -0 0.38257116 -0.923926
vn -0.8847085 -0.09098186 -0.4571796
vn -0.54771835 -0.32412544 -0.77132833
vn -0 -0.3826441 -0.9238958
vn -0.88474363 0.258902 -0.38755444
vn -0.5477587 0.3161417 -0.7746063
vn -0 -5.3645206E-05 -1
vn -0.5477202 0.0042174575 -0.83665097
g SeparateMesh_Monster_Cyrtoidea_Model_Monster_Cyrtoidea_Head_LOD1_0
f 3/3/3 2/2/2 1/1/1
f 4/4/4 3/3/3 1/1/1
f 1/1/1 2/2/2 5/5/5
f 6/6/6 3/3/3 4/4/4
f 7/7/7 6/6/6 4/4/4
f 2/2/2 8/8/8 5/5/5
f 5/5/5 8/8/8 9/9/9
f 3/3/3 10/10/10 2/2/2
f 6/6/6 10/10/10 3/3/3
f 11/11/11 6/6/6 7/7/7
f 12/12/12 11/11/11 7/7/7
f 8/8/8 13/13/13 9/9/9
f 9/9/9 13/13/13 14/14/14
f 2/2/2 15/15/15 8/8/8
f 10/10/10 15/15/15 2/2/2
f 8/8/8 15/15/15 13/13/13
f 15/15/15 10/10/10 16/16/16
f 17/17/17 10/10/10 6/6/6
f 11/11/11 17/17/17 6/6/6
f 10/10/10 17/17/17 16/16/16
f 18/18/18 11/11/11 12/12/12
f 18/18/18 17/17/17 11/11/11
f 19/19/19 18/18/18 12/12/12
f 13/13/13 20/20/20 14/14/14
f 14/14/14 20/20/20 21/21/21
f 15/15/15 22/22/22 13/13/13
f 13/13/13 22/22/22 20/20/20
f 22/22/22 15/15/15 16/16/16
f 20/20/20 23/23/23 21/21/21
f 20/20/20 22/22/22 23/23/23
f 21/21/21 23/23/23 24/24/24
f 25/25/25 17/17/17 18/18/18
f 17/17/17 25/25/25 16/16/16
f 26/26/26 18/18/18 19/19/19
f 26/26/26 25/25/25 18/18/18
f 27/27/27 26/26/26 19/19/19
f 28/28/28 26/26/26 27/27/27
f 28/28/28 25/25/25 26/26/26
f 29/29/29 28/28/28 27/27/27
f 22/22/22 30/30/30 23/23/23
f 30/30/30 22/22/22 16/16/16
f 23/23/23 31/31/31 24/24/24
f 23/23/23 30/30/30 31/31/31
f 24/24/24 31/31/31 32/32/32
f 31/31/31 33/33/33 32/32/32
f 31/31/31 30/30/30 33/33/33
f 32/32/32 33/33/33 34/34/34
f 25/25/25 35/35/35 16/16/16
f 35/35/35 25/25/25 28/28/28
f 36/36/36 28/28/28 29/29/29
f 36/36/36 35/35/35 28/28/28
f 37/37/37 36/36/36 29/29/29
f 38/38/38 30/30/30 16/16/16
f 30/30/30 38/38/38 33/33/33
f 35/35/35 38/38/38 16/16/16
f 33/33/33 39/39/39 34/34/34
f 33/33/33 38/38/38 39/39/39
f 34/34/34 39/39/39 40/40/40
f 41/41/41 35/35/35 36/36/36
f 41/41/41 36/36/36 37/37/37
f 38/38/38 35/35/35 41/41/41
f 40/40/40 41/41/41 37/37/37
f 39/39/39 38/38/38 41/41/41
f 39/39/39 41/41/41 40/40/40
f 44/44/44 43/43/43 42/42/42
f 45/45/45 44/44/44 42/42/42
f 45/45/45 42/42/42 46/46/46
f 44/44/44 47/47/47 43/43/43
f 47/47/47 48/48/48 43/43/43
f 49/49/49 45/45/45 46/46/46
f 49/49/49 46/46/46 50/50/50
f 51/51/51 44/44/44 45/45/45
f 51/51/51 47/47/47 44/44/44
f 47/47/47 52/52/52 48/48/48
f 52/52/52 53/53/53 48/48/48
f 54/54/54 49/49/49 50/50/50
f 54/54/54 50/50/50 55/55/55
f 56/56/56 45/45/45 49/49/49
f 56/56/56 51/51/51 45/45/45
f 56/56/56 49/49/49 54/54/54
f 51/51/51 56/56/56 57/57/57
f 51/51/51 58/58/58 47/47/47
f 58/58/58 52/52/52 47/47/47
f 58/58/58 51/51/51 57/57/57
f 52/52/52 59/59/59 53/53/53
f 58/58/58 59/59/59 52/52/52
f 59/59/59 60/60/60 53/53/53
f 61/61/61 54/54/54 55/55/55
f 61/61/61 55/55/55 62/62/62
f 63/63/63 56/56/56 54/54/54
f 63/63/63 54/54/54 61/61/61
f 56/56/56 63/63/63 57/57/57
f 64/64/64 61/61/61 62/62/62
f 63/63/63 61/61/61 64/64/64
f 64/64/64 62/62/62 65/65/65
f 58/58/58 66/66/66 59/59/59
f 66/66/66 58/58/58 57/57/57
f 59/59/59 67/67/67 60/60/60
f 66/66/66 67/67/67 59/59/59
f 67/67/67 68/68/68 60/60/60
f 67/67/67 69/69/69 68/68/68
f 66/66/66 69/69/69 67/67/67
f 69/69/69 70/70/70 68/68/68
f 71/71/71 63/63/63 64/64/64
f 63/63/63 71/71/71 57/57/57
f 72/72/72 64/64/64 65/65/65
f 71/71/71 64/64/64 72/72/72
f 72/72/72 65/65/65 73/73/73
f 74/74/74 72/72/72 73/73/73
f 71/71/71 72/72/72 74/74/74
f 74/74/74 73/73/73 75/75/75
f 76/76/76 66/66/66 57/57/57
f 66/66/66 76/76/76 69/69/69
f 69/69/69 77/77/77 70/70/70
f 76/76/76 77/77/77 69/69/69
f 77/77/77 78/78/78 70/70/70
f 71/71/71 79/79/79 57/57/57
f 79/79/79 71/71/71 74/74/74
f 79/79/79 76/76/76 57/57/57
f 80/80/80 74/74/74 75/75/75
f 79/79/79 74/74/74 80/80/80
f 80/80/80 75/75/75 81/81/81
f 82/82/82 81/81/81 78/78/78
f 77/77/77 82/82/82 78/78/78
f 76/76/76 82/82/82 77/77/77
f 76/76/76 79/79/79 82/82/82
f 79/79/79 80/80/80 82/82/82
f 82/82/82 80/80/80 81/81/81
