g NPC_Male_Size01_Ear_001_LOD1
v 0.060784418 0.009471438 1.4687005
v 0.05307866 -7.372387E-05 1.4670593
v 0.058637265 -0.0025768906 1.4683927
v 0.064053826 0.006017909 1.4691272
v 0.06882196 0.019924236 1.4768265
v 0.061556958 0.0013929192 1.4790952
v 0.07289274 0.017741086 1.4772036
v 0.07836677 0.031034661 1.4923052
v 0.06592088 0.0067696194 1.4967788
v 0.0832799 0.029404974 1.4923751
v 0.08169979 0.032746695 1.5029587
v 0.068006516 0.0075563 1.5049798
v 0.08655652 0.030881975 1.502156
v 0.08276372 0.029845223 1.5160269
v 0.087432414 0.028049491 1.514826
v 0.07022692 0.0086039025 1.5139143
v 0.08338311 0.02076608 1.5205222
v 0.07966716 0.02112825 1.5216342
v 0.07571675 0.012916152 1.5197436
v 0.0751678 0.014951302 1.5197226
v 0.072796606 0.011864038 1.518007
v 0.07683663 0.012709887 1.5189825
v 0.060784418 0.009471438 1.4687005
v 0.058576923 0.012832577 1.4759241
v 0.05307866 -7.372387E-05 1.4670593
v 0.06882196 0.019924236 1.4768265
v 0.06512567 0.02411305 1.4921881
v 0.07836677 0.031034661 1.4923052
v 0.08169979 0.032746695 1.5029587
v 0.07247684 0.024651052 1.5125227
v 0.08276372 0.029845223 1.5160269
v 0.07400033 0.018904872 1.5205492
v 0.07966716 0.02112825 1.5216342
v 0.0751678 0.014951302 1.5197226
v 0.072796606 0.011864038 1.518007
v -0.058637265 -0.0025768906 1.4683927
v -0.05307866 -7.372387E-05 1.4670593
v -0.060784418 0.009471438 1.4687005
v -0.064053826 0.006017909 1.4691272
v -0.061556958 0.0013929192 1.4790952
v -0.06882196 0.019924236 1.4768265
v -0.07289274 0.017741086 1.4772036
v -0.06592088 0.0067696194 1.4967788
v -0.0832799 0.029404974 1.4923751
v -0.07836677 0.031034661 1.4923052
v -0.068006516 0.0075563 1.5049798
v -0.08169979 0.032746695 1.5029587
v -0.08655652 0.030881975 1.502156
v -0.07022692 0.0086039025 1.5139143
v -0.08276372 0.029845223 1.5160269
v -0.087432414 0.028049491 1.514826
v -0.08338311 0.02076608 1.5205222
v -0.07966716 0.02112825 1.5216342
v -0.07683663 0.012709887 1.5189825
v -0.07571675 0.012916152 1.5197436
v -0.0751678 0.014951302 1.5197226
v -0.072796606 0.011864038 1.518007
v -0.060784418 0.009471438 1.4687005
v -0.05307866 -7.372387E-05 1.4670593
v -0.058576923 0.012832577 1.4759241
v -0.06882196 0.019924236 1.4768265
v -0.06512567 0.02411305 1.4921881
v -0.07836677 0.031034661 1.4923052
v -0.08169979 0.032746695 1.5029587
v -0.07247684 0.024651052 1.5125227
v -0.08276372 0.029845223 1.5160269
v -0.07400033 0.018904872 1.5205492
v -0.07966716 0.02112825 1.5216342
v -0.0751678 0.014951302 1.5197226
v -0.072796606 0.011864038 1.518007
vt 0.6933166 0.047120336
vt 0.67468524 0.06435213
vt 0.6856128 0.07101036
vt 0.6986188 0.055223692
vt 0.72054714 0.030185401
vt 0.7101151 0.074465096
vt 0.7262395 0.03771207
vt 0.76341516 0.016677922
vt 0.74927247 0.07964238
vt 0.76649183 0.02641212
vt 0.78756994 0.020121496
vt 0.7667299 0.08314353
vt 0.7844802 0.030165859
vt 0.8112009 0.038449995
vt 0.8022546 0.041985426
vt 0.7855364 0.08475851
vt 0.80633163 0.05761804
vt 0.811883 0.062457338
vt 0.79926616 0.07464724
vt 0.8027349 0.07565136
vt 0.7959987 0.07977526
vt 0.7978313 0.07266793
vt 0.6899802 0.12051343
vt 0.70476884 0.11519158
vt 0.67468524 0.10255819
vt 0.71617985 0.13410869
vt 0.74373794 0.12036251
vt 0.75563115 0.14450258
vt 0.7770381 0.14213856
vt 0.78436935 0.11424604
vt 0.7996501 0.12975009
vt 0.7983887 0.101615906
vt 0.8066983 0.1099696
vt 0.8031112 0.09514331
vt 0.80080676 0.08737065
vt 0.6856128 0.07101036
vt 0.67468524 0.06435213
vt 0.6933166 0.047120336
vt 0.6986188 0.055223692
vt 0.7101151 0.074465096
vt 0.72054714 0.030185401
vt 0.7262395 0.03771207
vt 0.74927247 0.07964238
vt 0.76649183 0.02641212
vt 0.76341516 0.016677922
vt 0.7667299 0.08314353
vt 0.78756994 0.020121496
vt 0.7844802 0.030165859
vt 0.7855364 0.08475851
vt 0.8112009 0.038449995
vt 0.8022546 0.041985426
vt 0.80633163 0.05761804
vt 0.811883 0.062457338
vt 0.7978313 0.07266793
vt 0.79926616 0.07464724
vt 0.8027349 0.07565136
vt 0.7959987 0.07977526
vt 0.6899802 0.12051343
vt 0.67468524 0.10255819
vt 0.70476884 0.11519158
vt 0.71617985 0.13410869
vt 0.74373794 0.12036251
vt 0.75563115 0.14450258
vt 0.7770381 0.14213856
vt 0.78436935 0.11424604
vt 0.7996501 0.12975009
vt 0.7983887 0.101615906
vt 0.8066983 0.1099696
vt 0.8031112 0.09514331
vt 0.80080676 0.08737065
vn -0.15186714 0.48641187 -0.86043006
vn 0.65594196 0.48005873 -0.5824808
vn 0.7215228 0.5365398 -0.43764126
vn 0.6839328 -0.21916698 -0.69584614
vn -0.06874914 0.7343651 -0.675264
vn 0.92944664 0.08298854 -0.35950223
vn 0.79323524 -0.0074647386 -0.60886943
vn -0.075769864 0.941897 -0.32724446
vn 0.9599693 0.011057078 -0.27988705
vn 0.85271287 0.25086388 -0.45820084
vn -0.055421956 0.9970079 0.053886157
vn 0.964079 -0.08412112 -0.251943
vn 0.9348132 0.32051688 -0.15294845
vn -0.0072841956 0.8275164 0.5613943
vn 0.9324823 0.2087234 0.2948073
vn 0.9567606 -0.12692352 -0.2617242
vn 0.7966613 -0.25953066 0.5458704
vn -0.044417027 0.22570522 0.97318256
vn -0.04085974 -0.5111011 0.8585489
vn -0.30214083 -0.17631604 0.9368157
vn -0.21197626 -0.6137074 0.7605453
vn 0.6063305 -0.75686395 0.24396783
vn -0.15186714 0.48641187 -0.86043006
vn -0.5261685 0.7232899 -0.4472118
vn 0.65594196 0.48005873 -0.5824808
vn -0.06874914 0.7343651 -0.675264
vn -0.49273542 0.852854 -0.17277724
vn -0.075769864 0.941897 -0.32724446
vn -0.055421956 0.9970079 0.053886157
vn -0.50983727 0.78266764 0.35706773
vn -0.0072841956 0.8275164 0.5613943
vn -0.3255746 0.15810074 0.9322045
vn -0.044417027 0.22570522 0.97318256
vn -0.30214083 -0.17631604 0.9368157
vn -0.21197626 -0.6137074 0.7605453
vn -0.72152287 0.5365398 -0.43764117
vn -0.65594196 0.48005873 -0.5824808
vn 0.15186714 0.48641187 -0.86043006
vn -0.6839328 -0.21916693 -0.69584614
vn -0.92944664 0.08298852 -0.35950217
vn 0.06874914 0.73436517 -0.6752639
vn -0.7932353 -0.0074647595 -0.60886943
vn -0.9599693 0.011057078 -0.27988702
vn -0.8527129 0.2508639 -0.45820078
vn 0.075769864 0.941897 -0.32724446
vn -0.964079 -0.084121116 -0.25194293
vn 0.055421934 0.9970079 0.053886168
vn -0.9348132 0.32051688 -0.15294841
vn -0.9567606 -0.12692353 -0.26172414
vn 0.0072841947 0.8275164 0.56139433
vn -0.9324823 0.20872334 0.29480729
vn -0.7966613 -0.2595307 0.54587036
vn 0.044417027 0.22570522 0.97318256
vn -0.6063305 -0.7568639 0.24396782
vn 0.040859748 -0.5111012 0.8585489
vn 0.30214083 -0.176316 0.9368157
vn 0.21197626 -0.6137074 0.7605453
vn 0.15186714 0.48641187 -0.86043006
vn -0.65594196 0.48005873 -0.5824808
vn 0.5261685 0.7232899 -0.4472118
vn 0.06874914 0.73436517 -0.6752639
vn 0.49273542 0.852854 -0.17277724
vn 0.075769864 0.941897 -0.32724446
vn 0.055421934 0.9970079 0.053886168
vn 0.50983727 0.78266764 0.35706773
vn 0.0072841947 0.8275164 0.56139433
vn 0.3255746 0.15810074 0.9322045
vn 0.044417027 0.22570522 0.97318256
vn 0.30214083 -0.176316 0.9368157
vn 0.21197626 -0.6137074 0.7605453
g NPC_Male_Size01_Ear_001_LOD1_0
f 3/3/3 2/2/2 1/1/1
f 4/4/4 3/3/3 1/1/1
f 1/1/1 5/5/5 4/4/4
f 3/3/3 4/4/4 6/6/6
f 5/5/5 7/7/7 4/4/4
f 7/7/7 6/6/6 4/4/4
f 5/5/5 8/8/8 7/7/7
f 9/9/9 6/6/6 7/7/7
f 8/8/8 10/10/10 7/7/7
f 10/10/10 9/9/9 7/7/7
f 10/10/10 8/8/8 11/11/11
f 12/12/12 9/9/9 10/10/10
f 13/13/13 10/10/10 11/11/11
f 13/13/13 12/12/12 10/10/10
f 11/11/11 14/14/14 13/13/13
f 12/12/12 13/13/13 15/15/15
f 14/14/14 15/15/15 13/13/13
f 16/16/16 12/12/12 15/15/15
f 15/15/15 14/14/14 17/17/17
f 16/16/16 15/15/15 17/17/17
f 14/14/14 18/18/18 17/17/17
f 17/17/17 18/18/18 19/19/19
f 18/18/18 20/20/20 19/19/19
f 19/19/19 20/20/20 21/21/21
f 16/16/16 19/19/19 21/21/21
f 22/22/22 16/16/16 17/17/17
f 19/19/19 16/16/16 22/22/22
f 22/22/22 17/17/17 19/19/19
f 25/25/25 24/24/24 23/23/23
f 24/24/24 26/26/26 23/23/23
f 24/24/24 27/27/27 26/26/26
f 28/28/28 26/26/26 27/27/27
f 29/29/29 28/28/28 27/27/27
f 30/30/30 29/29/29 27/27/27
f 30/30/30 31/31/31 29/29/29
f 30/30/30 32/32/32 31/31/31
f 32/32/32 33/33/33 31/31/31
f 34/34/34 33/33/33 32/32/32
f 35/35/35 34/34/34 32/32/32
f 38/38/38 37/37/37 36/36/36
f 39/39/39 38/38/38 36/36/36
f 39/39/39 36/36/36 40/40/40
f 38/38/38 39/39/39 41/41/41
f 39/39/39 40/40/40 42/42/42
f 39/39/39 42/42/42 41/41/41
f 40/40/40 43/43/43 42/42/42
f 41/41/41 42/42/42 44/44/44
f 43/43/43 44/44/44 42/42/42
f 45/45/45 41/41/41 44/44/44
f 44/44/44 43/43/43 46/46/46
f 45/45/45 44/44/44 47/47/47
f 48/48/48 44/44/44 46/46/46
f 44/44/44 48/48/48 47/47/47
f 48/48/48 46/46/46 49/49/49
f 47/47/47 48/48/48 50/50/50
f 48/48/48 51/51/51 50/50/50
f 51/51/51 48/48/48 49/49/49
f 50/50/50 51/51/51 52/52/52
f 53/53/53 50/50/50 52/52/52
f 51/51/51 49/49/49 54/54/54
f 52/52/52 51/51/51 54/54/54
f 53/53/53 52/52/52 55/55/55
f 52/52/52 54/54/54 55/55/55
f 49/49/49 55/55/55 54/54/54
f 56/56/56 53/53/53 55/55/55
f 55/55/55 49/49/49 57/57/57
f 56/56/56 55/55/55 57/57/57
f 60/60/60 59/59/59 58/58/58
f 60/60/60 58/58/58 61/61/61
f 62/62/62 60/60/60 61/61/61
f 63/63/63 62/62/62 61/61/61
f 63/63/63 64/64/64 62/62/62
f 64/64/64 65/65/65 62/62/62
f 66/66/66 65/65/65 64/64/64
f 67/67/67 65/65/65 66/66/66
f 68/68/68 67/67/67 66/66/66
f 68/68/68 69/69/69 67/67/67
f 69/69/69 70/70/70 67/67/67
