g Zero_Prop_Cloth_08
v 2.9713798 1.9378662E-07 -5.092238E-07
v 3.5656552 0.4731001 -3.9078634E-07
v 3.5656552 1.9378662E-07 -5.092238E-07
v 2.9713798 0.4731001 -3.9078634E-07
v 2.3771045 1.9378662E-07 -5.092238E-07
v 3.5656552 0.9462001 -2.7234887E-07
v 2.3771045 0.4731001 -3.9078634E-07
v 1.7828276 1.9378662E-07 -5.092238E-07
v 2.9713798 0.9462001 -2.7234887E-07
v 3.5656552 1.4193002 -1.539114E-07
v 1.7828276 0.4731001 -3.9078634E-07
v 1.1885523 1.9378662E-07 -5.092238E-07
v 2.3771045 0.9462001 -2.7234887E-07
v 2.9713798 1.4193002 -1.539114E-07
v 3.5656552 1.8924001 -3.5473917E-08
v 1.1885523 0.4731001 -3.9078634E-07
v 0.5942769 1.9378662E-07 -5.092238E-07
v 1.7828276 0.9462001 -2.7234887E-07
v 2.3771045 1.4193002 -1.539114E-07
v 2.9713798 1.8924001 -3.5473917E-08
v 3.5656552 2.3655002 8.296361E-08
v 2.9713798 2.3655002 8.296361E-08
v 2.3771045 1.8924001 -3.5473917E-08
v 2.3771045 2.3655002 8.296361E-08
v 0.5942769 0.4731001 -3.9078634E-07
v -0 1.9378662E-07 -5.092238E-07
v 1.1885523 0.9462001 -2.7234887E-07
v 1.7828276 1.4193002 -1.539114E-07
v 1.7828276 1.8924001 -3.5473917E-08
v 1.7828276 2.3655002 8.296361E-08
v -0 0.4731001 -3.9078634E-07
v -0.5942738 1.9378662E-07 -5.092238E-07
v 0.5942769 0.9462001 -2.7234887E-07
v 1.1885523 1.4193002 -1.539114E-07
v 1.1885523 1.8924001 -3.5473917E-08
v 1.1885523 2.3655002 8.296361E-08
v -0.5942738 0.4731001 -3.9078634E-07
v -1.1885514 1.9378662E-07 -5.092238E-07
v -0 0.9462001 -2.7234887E-07
v 0.5942769 1.4193002 -1.539114E-07
v 0.5942769 1.8924001 -3.5473917E-08
v 0.59427845 2.3655002 8.296361E-08
v -1.1885514 0.4731001 -3.9078634E-07
v -1.7828261 1.9378662E-07 -5.092238E-07
v -0.5942738 0.9462001 -2.7234887E-07
v -0 1.4193002 -1.539114E-07
v -0 1.8924001 -3.5473917E-08
v -0 2.3655002 8.296365E-08
v -1.7828261 0.4731001 -3.9078634E-07
v -2.3771014 1.9378662E-07 -5.092238E-07
v -1.1885514 0.9462001 -2.7234887E-07
v -0.5942738 1.4193002 -1.539114E-07
v -0.5942738 1.8924001 -3.5473917E-08
v -0.5942738 2.3655002 8.296365E-08
v -2.3771014 0.4731001 -3.9078634E-07
v -2.9713783 1.9378662E-07 -5.092238E-07
v -1.7828261 0.9462001 -2.7234887E-07
v -1.1885514 1.4193002 -1.539114E-07
v -1.1885514 1.8924001 -3.5473917E-08
v -1.1885514 2.3655002 8.296365E-08
v -2.9713783 0.4731001 -3.9078634E-07
v -3.5656536 1.9378662E-07 -5.092238E-07
v -3.5656536 0.4731001 -3.9078634E-07
v -2.3771014 0.9462001 -2.7234887E-07
v -1.7828261 1.4193002 -1.539114E-07
v -1.7828261 1.8924001 -3.5473917E-08
v -1.7828261 2.3655002 8.296365E-08
v -2.9713783 0.9462001 -2.7234887E-07
v -3.5656536 0.9462001 -2.7234887E-07
v -2.3771014 1.4193002 -1.539114E-07
v -2.3771014 1.8924001 -3.5473917E-08
v -2.3771014 2.3655002 8.296365E-08
v -2.9713783 1.4193002 -1.539114E-07
v -3.5656536 1.4193002 -1.539114E-07
v -2.9713783 1.8924001 -3.5473917E-08
v -2.9713783 2.3655002 8.296365E-08
v -3.5656536 1.8924001 -3.5473917E-08
v -3.5656536 2.3655002 8.296365E-08
v 2.9713798 1.9378662E-07 -0.0021895804
v 3.5656552 1.9378662E-07 -0.0021895804
v 3.5656552 0.4731001 -0.002189462
v 2.9713798 0.4731001 -0.002189462
v 2.3771045 1.9378662E-07 -0.0021895804
v 3.5656552 0.9462001 -0.0021893436
v 2.3771045 0.4731001 -0.002189462
v 1.7828276 1.9378662E-07 -0.0021895804
v 2.9713798 0.9462001 -0.0021893436
v 3.5656552 1.4193002 -0.0021892253
v 1.7828276 0.4731001 -0.002189462
v 1.1885523 1.9378662E-07 -0.0021895804
v 2.3771045 0.9462001 -0.0021893436
v 2.9713798 1.4193002 -0.0021892253
v 3.5656552 1.8924001 -0.0021891068
v 1.1885523 0.4731001 -0.002189462
v 0.5942769 1.9378662E-07 -0.0021895804
v 1.7828276 0.9462001 -0.0021893436
v 2.3771045 1.4193002 -0.0021892253
v 2.9713798 1.8924001 -0.0021891068
v 3.5656552 2.3655002 -0.0021889883
v 2.9713798 2.3655002 -0.0021889883
v 2.3771045 1.8924001 -0.0021891068
v 2.3771045 2.3655002 -0.0021889883
v 0.5942769 0.4731001 -0.002189462
v -0 1.9378662E-07 -0.0021895804
v 1.1885523 0.9462001 -0.0021893436
v 1.7828276 1.4193002 -0.0021892253
v 1.7828276 1.8924001 -0.0021891068
v 1.7828276 2.3655002 -0.0021889883
v -0 0.4731001 -0.002189462
v -0.5942738 1.9378662E-07 -0.0021895804
v 0.5942769 0.9462001 -0.0021893436
v 1.1885523 1.4193002 -0.0021892253
v 1.1885523 1.8924001 -0.0021891068
v 1.1885523 2.3655002 -0.0021889883
v -0.5942738 0.4731001 -0.002189462
v -1.1885514 1.9378662E-07 -0.0021895804
v -0 0.9462001 -0.0021893436
v 0.5942769 1.4193002 -0.0021892253
v 0.5942769 1.8924001 -0.0021891068
v 0.59427845 2.3655002 -0.0021889883
v -1.1885514 0.4731001 -0.002189462
v -1.7828261 1.9378662E-07 -0.0021895804
v -0.5942738 0.9462001 -0.0021893436
v -0 1.4193002 -0.0021892253
v -0 1.8924001 -0.0021891068
v -0 2.3655002 -0.0021889883
v -1.7828261 0.4731001 -0.002189462
v -2.3771014 1.9378662E-07 -0.0021895804
v -1.1885514 0.9462001 -0.0021893436
v -0.5942738 1.4193002 -0.0021892253
v -0.5942738 1.8924001 -0.0021891068
v -0.5942738 2.3655002 -0.0021889883
v -2.3771014 0.4731001 -0.002189462
v -2.9713783 1.9378662E-07 -0.0021895804
v -1.7828261 0.9462001 -0.0021893436
v -1.1885514 1.4193002 -0.0021892253
v -1.1885514 1.8924001 -0.0021891068
v -1.1885514 2.3655002 -0.0021889883
v -2.9713783 0.4731001 -0.002189462
v -3.5656536 1.9378662E-07 -0.0021895804
v -3.5656536 0.4731001 -0.002189462
v -2.3771014 0.9462001 -0.0021893436
v -1.7828261 1.4193002 -0.0021892253
v -1.7828261 1.8924001 -0.0021891068
v -1.7828261 2.3655002 -0.0021889883
v -2.9713783 0.9462001 -0.0021893436
v -3.5656536 0.9462001 -0.0021893436
v -2.3771014 1.4193002 -0.0021892253
v -2.3771014 1.8924001 -0.0021891068
v -2.3771014 2.3655002 -0.0021889883
v -2.9713783 1.4193002 -0.0021892253
v -3.5656536 1.4193002 -0.0021892253
v -2.9713783 1.8924001 -0.0021891068
v -2.9713783 2.3655002 -0.0021889883
v -3.5656536 1.8924001 -0.0021891068
v -3.5656536 2.3655002 -0.0021889883
vt 0.74571943 0.01866901
vt 0.8114883 0.07102676
vt 0.8114883 0.018669017
vt 0.74571943 0.07102676
vt 0.67995155 0.018668989
vt 0.8114883 0.123384625
vt 0.67995155 0.07102674
vt 0.61418545 0.018668957
vt 0.74571943 0.123384625
vt 0.8114883 0.17574273
vt 0.61418545 0.0710267
vt 0.5484215 0.018668916
vt 0.67995155 0.123384595
vt 0.74571943 0.17574273
vt 0.8114883 0.22810106
vt 0.5484215 0.07102665
vt 0.48265874 0.01866885
vt 0.61418545 0.123384565
vt 0.67995155 0.1757427
vt 0.74571943 0.22810106
vt 0.8104907 0.28302488
vt 0.7458618 0.28615996
vt 0.67995155 0.228101
vt 0.6802366 0.28430736
vt 0.48265874 0.07102659
vt 0.41689432 0.018668711
vt 0.5484215 0.12338452
vt 0.61418545 0.17574266
vt 0.61418545 0.22810094
vt 0.61461294 0.2815997
vt 0.41689408 0.07102646
vt 0.35112894 0.01866861
vt 0.48265874 0.123384446
vt 0.5484215 0.17574263
vt 0.5484215 0.22810094
vt 0.5484215 0.28045967
vt 0.35112894 0.07102637
vt 0.28536248 0.018668592
vt 0.41689408 0.12338433
vt 0.48265874 0.17574252
vt 0.48265874 0.22810087
vt 0.48265803 0.28045958
vt 0.28536248 0.071026325
vt 0.21959472 0.018668592
vt 0.35112894 0.12338425
vt 0.41689408 0.17574242
vt 0.41689408 0.22810069
vt 0.41689372 0.2804594
vt 0.21959472 0.071026325
vt 0.15382636 0.018668605
vt 0.28536248 0.12338419
vt 0.35112894 0.17574231
vt 0.35112894 0.22810057
vt 0.35155585 0.2770392
vt 0.15382636 0.07102634
vt 0.08805668 0.018668639
vt 0.21959472 0.12338419
vt 0.28536248 0.17574225
vt 0.28536248 0.2281005
vt 0.28521973 0.27703914
vt 0.08805668 0.071026385
vt 0.022288084 0.018668657
vt 0.022288084 0.0710264
vt 0.15382612 0.12338422
vt 0.21959472 0.17574225
vt 0.21959472 0.2281005
vt 0.21959472 0.2787492
vt 0.08805668 0.12338428
vt 0.022288084 0.12338433
vt 0.15382636 0.17574231
vt 0.15382636 0.22810057
vt 0.1538266 0.2804593
vt 0.08805668 0.17574239
vt 0.022288084 0.17574249
vt 0.08805668 0.22810069
vt 0.08805704 0.2804594
vt 0.022288322 0.2281009
vt 0.02228856 0.28045967
vt 0.74571943 0.01866901
vt 0.8114883 0.018669017
vt 0.8114883 0.07102676
vt 0.74571943 0.07102676
vt 0.67995155 0.018668989
vt 0.8114883 0.123384625
vt 0.67995155 0.07102674
vt 0.61418545 0.018668957
vt 0.74571943 0.123384625
vt 0.8114883 0.17574273
vt 0.61418545 0.0710267
vt 0.5484215 0.018668916
vt 0.67995155 0.123384595
vt 0.74571943 0.17574273
vt 0.8114883 0.22810106
vt 0.5484215 0.07102665
vt 0.48265874 0.01866885
vt 0.61418545 0.123384565
vt 0.67995155 0.1757427
vt 0.74571943 0.22810106
vt 0.8104907 0.28302488
vt 0.7458618 0.28615996
vt 0.67995155 0.228101
vt 0.6802366 0.28430736
vt 0.48265874 0.07102659
vt 0.41689432 0.018668711
vt 0.5484215 0.12338452
vt 0.61418545 0.17574266
vt 0.61418545 0.22810094
vt 0.61461294 0.2815997
vt 0.41689408 0.07102646
vt 0.35112894 0.01866861
vt 0.48265874 0.123384446
vt 0.5484215 0.17574263
vt 0.5484215 0.22810094
vt 0.5484215 0.28045967
vt 0.35112894 0.07102637
vt 0.28536248 0.018668592
vt 0.41689408 0.12338433
vt 0.48265874 0.17574252
vt 0.48265874 0.22810087
vt 0.48265803 0.28045958
vt 0.28536248 0.071026325
vt 0.21959472 0.018668592
vt 0.35112894 0.12338425
vt 0.41689408 0.17574242
vt 0.41689408 0.22810069
vt 0.41689372 0.2804594
vt 0.21959472 0.071026325
vt 0.15382636 0.018668605
vt 0.28536248 0.12338419
vt 0.35112894 0.17574231
vt 0.35112894 0.22810057
vt 0.35155585 0.2770392
vt 0.15382636 0.07102634
vt 0.08805668 0.018668639
vt 0.21959472 0.12338419
vt 0.28536248 0.17574225
vt 0.28536248 0.2281005
vt 0.28521973 0.27703914
vt 0.08805668 0.071026385
vt 0.022288084 0.018668657
vt 0.022288084 0.0710264
vt 0.15382612 0.12338422
vt 0.21959472 0.17574225
vt 0.21959472 0.2281005
vt 0.21959472 0.2787492
vt 0.08805668 0.12338428
vt 0.022288084 0.12338433
vt 0.15382636 0.17574231
vt 0.15382636 0.22810057
vt 0.1538266 0.2804593
vt 0.08805668 0.17574239
vt 0.022288084 0.17574249
vt 0.08805668 0.22810069
vt 0.08805704 0.2804594
vt 0.022288322 0.2281009
vt 0.02228856 0.28045967
vn -0 0 1
vn -0 0 1
vn -0 0 1
vn -0 0 1
vn -0 0 1
vn -0 0 1
vn -0 0 1
vn -0 0 1
vn -0 0 1
vn -0 0 1
vn -0 0 1
vn -0 0 1
vn -0 0 1
vn -0 0 1
vn -0 0 1
vn -0 0 1
vn -0 0 1
vn -0 0 1
vn -0 0 1
vn -0 0 1
vn -0 0 1
vn -0 0 1
vn -0 0 1
vn -0 0 1
vn -0 0 1
vn -0 0 1
vn -0 0 1
vn -0 0 1
vn -0 0 1
vn -0 0 1
vn -0 0 1
vn -0 0 1
vn -0 0 1
vn -0 0 1
vn -0 0 1
vn -0 0 1
vn -0 0 1
vn -0 0 1
vn -0 0 1
vn -0 0 1
vn -0 0 1
vn -0 0 1
vn -0 0 1
vn -0 0 1
vn -0 0 1
vn -0 0 1
vn -0 0 1
vn -0 0 1
vn -0 0 1
vn -0 0 1
vn -0 0 1
vn -0 0 1
vn -0 0 1
vn -0 0 1
vn -0 0 1
vn -0 0 1
vn -0 0 1
vn -0 0 1
vn -0 0 1
vn -0 0 1
vn -0 0 1
vn -0 0 1
vn -0 0 1
vn -0 0 1
vn -0 0 1
vn -0 0 1
vn -0 0 1
vn -0 0 1
vn -0 0 1
vn -0 0 1
vn -0 0 1
vn -0 0 1
vn -0 0 1
vn -0 0 1
vn -0 0 1
vn -0 0 1
vn -0 0 1
vn -0 0 1
vn -0 0 -1
vn -0 0 -1
vn -0 0 -1
vn -0 0 -1
vn -0 0 -1
vn -0 0 -1
vn -0 0 -1
vn -0 0 -1
vn -0 0 -1
vn -0 0 -1
vn -0 0 -1
vn -0 0 -1
vn -0 0 -1
vn -0 0 -1
vn -0 0 -1
vn -0 0 -1
vn -0 0 -1
vn -0 0 -1
vn -0 0 -1
vn -0 0 -1
vn -0 0 -1
vn -0 0 -1
vn -0 0 -1
vn -0 0 -1
vn -0 0 -1
vn -0 0 -1
vn -0 0 -1
vn -0 0 -1
vn -0 0 -1
vn -0 0 -1
vn -0 0 -1
vn -0 0 -1
vn -0 0 -1
vn -0 0 -1
vn -0 0 -1
vn -0 0 -1
vn -0 0 -1
vn -0 0 -1
vn -0 0 -1
vn -0 0 -1
vn -0 0 -1
vn -0 0 -1
vn -0 0 -1
vn -0 0 -1
vn -0 0 -1
vn -0 0 -1
vn -0 0 -1
vn -0 0 -1
vn -0 0 -1
vn -0 0 -1
vn -0 0 -1
vn -0 0 -1
vn -0 0 -1
vn -0 0 -1
vn -0 0 -1
vn -0 0 -1
vn -0 0 -1
vn -0 0 -1
vn -0 0 -1
vn -0 0 -1
vn -0 0 -1
vn -0 0 -1
vn -0 0 -1
vn -0 0 -1
vn -0 0 -1
vn -0 0 -1
vn -0 0 -1
vn -0 0 -1
vn -0 0 -1
vn -0 0 -1
vn -0 0 -1
vn -0 0 -1
vn -0 0 -1
vn -0 0 -1
vn -0 0 -1
vn -0 0 -1
vn -0 0 -1
vn -0 0 -1
g Zero_Prop_Cloth_08_0
f 3/3/3 2/2/2 1/1/1
f 2/2/2 4/4/4 1/1/1
f 1/1/1 4/4/4 5/5/5
f 2/2/2 6/6/6 4/4/4
f 4/4/4 7/7/7 5/5/5
f 5/5/5 7/7/7 8/8/8
f 6/6/6 9/9/9 4/4/4
f 4/4/4 9/9/9 7/7/7
f 6/6/6 10/10/10 9/9/9
f 7/7/7 11/11/11 8/8/8
f 8/8/8 11/11/11 12/12/12
f 9/9/9 13/13/13 7/7/7
f 7/7/7 13/13/13 11/11/11
f 10/10/10 14/14/14 9/9/9
f 9/9/9 14/14/14 13/13/13
f 10/10/10 15/15/15 14/14/14
f 11/11/11 16/16/16 12/12/12
f 12/12/12 16/16/16 17/17/17
f 13/13/13 18/18/18 11/11/11
f 11/11/11 18/18/18 16/16/16
f 14/14/14 19/19/19 13/13/13
f 13/13/13 19/19/19 18/18/18
f 15/15/15 20/20/20 14/14/14
f 14/14/14 20/20/20 19/19/19
f 15/15/15 21/21/21 20/20/20
f 21/21/21 22/22/22 20/20/20
f 20/20/20 22/22/22 23/23/23
f 20/20/20 23/23/23 19/19/19
f 22/22/22 24/24/24 23/23/23
f 16/16/16 25/25/25 17/17/17
f 17/17/17 25/25/25 26/26/26
f 18/18/18 27/27/27 16/16/16
f 16/16/16 27/27/27 25/25/25
f 19/19/19 28/28/28 18/18/18
f 19/19/19 23/23/23 28/28/28
f 18/18/18 28/28/28 27/27/27
f 23/23/23 24/24/24 29/29/29
f 23/23/23 29/29/29 28/28/28
f 24/24/24 30/30/30 29/29/29
f 25/25/25 31/31/31 26/26/26
f 26/26/26 31/31/31 32/32/32
f 27/27/27 33/33/33 25/25/25
f 25/25/25 33/33/33 31/31/31
f 28/28/28 34/34/34 27/27/27
f 28/28/28 29/29/29 34/34/34
f 27/27/27 34/34/34 33/33/33
f 29/29/29 30/30/30 35/35/35
f 29/29/29 35/35/35 34/34/34
f 30/30/30 36/36/36 35/35/35
f 31/31/31 37/37/37 32/32/32
f 32/32/32 37/37/37 38/38/38
f 33/33/33 39/39/39 31/31/31
f 31/31/31 39/39/39 37/37/37
f 34/34/34 40/40/40 33/33/33
f 34/34/34 35/35/35 40/40/40
f 33/33/33 40/40/40 39/39/39
f 35/35/35 36/36/36 41/41/41
f 35/35/35 41/41/41 40/40/40
f 36/36/36 42/42/42 41/41/41
f 37/37/37 43/43/43 38/38/38
f 38/38/38 43/43/43 44/44/44
f 39/39/39 45/45/45 37/37/37
f 37/37/37 45/45/45 43/43/43
f 40/40/40 46/46/46 39/39/39
f 40/40/40 41/41/41 46/46/46
f 39/39/39 46/46/46 45/45/45
f 41/41/41 42/42/42 47/47/47
f 41/41/41 47/47/47 46/46/46
f 42/42/42 48/48/48 47/47/47
f 43/43/43 49/49/49 44/44/44
f 44/44/44 49/49/49 50/50/50
f 45/45/45 51/51/51 43/43/43
f 43/43/43 51/51/51 49/49/49
f 46/46/46 52/52/52 45/45/45
f 46/46/46 47/47/47 52/52/52
f 45/45/45 52/52/52 51/51/51
f 47/47/47 48/48/48 53/53/53
f 47/47/47 53/53/53 52/52/52
f 48/48/48 54/54/54 53/53/53
f 49/49/49 55/55/55 50/50/50
f 50/50/50 55/55/55 56/56/56
f 51/51/51 57/57/57 49/49/49
f 49/49/49 57/57/57 55/55/55
f 52/52/52 58/58/58 51/51/51
f 52/52/52 53/53/53 58/58/58
f 51/51/51 58/58/58 57/57/57
f 53/53/53 54/54/54 59/59/59
f 53/53/53 59/59/59 58/58/58
f 54/54/54 60/60/60 59/59/59
f 55/55/55 61/61/61 56/56/56
f 56/56/56 61/61/61 62/62/62
f 61/61/61 63/63/63 62/62/62
f 57/57/57 64/64/64 55/55/55
f 55/55/55 64/64/64 61/61/61
f 58/58/58 65/65/65 57/57/57
f 58/58/58 59/59/59 65/65/65
f 57/57/57 65/65/65 64/64/64
f 59/59/59 60/60/60 66/66/66
f 59/59/59 66/66/66 65/65/65
f 60/60/60 67/67/67 66/66/66
f 61/61/61 68/68/68 63/63/63
f 64/64/64 68/68/68 61/61/61
f 68/68/68 69/69/69 63/63/63
f 65/65/65 70/70/70 64/64/64
f 65/65/65 66/66/66 70/70/70
f 64/64/64 70/70/70 68/68/68
f 66/66/66 67/67/67 71/71/71
f 66/66/66 71/71/71 70/70/70
f 67/67/67 72/72/72 71/71/71
f 68/68/68 73/73/73 69/69/69
f 70/70/70 73/73/73 68/68/68
f 70/70/70 71/71/71 73/73/73
f 73/73/73 74/74/74 69/69/69
f 71/71/71 72/72/72 75/75/75
f 71/71/71 75/75/75 73/73/73
f 73/73/73 75/75/75 74/74/74
f 72/72/72 76/76/76 75/75/75
f 75/75/75 77/77/77 74/74/74
f 75/75/75 76/76/76 77/77/77
f 76/76/76 78/78/78 77/77/77
f 81/81/81 80/80/80 79/79/79
f 82/82/82 81/81/81 79/79/79
f 82/82/82 79/79/79 83/83/83
f 84/84/84 81/81/81 82/82/82
f 85/85/85 82/82/82 83/83/83
f 85/85/85 83/83/83 86/86/86
f 87/87/87 84/84/84 82/82/82
f 87/87/87 82/82/82 85/85/85
f 88/88/88 84/84/84 87/87/87
f 89/89/89 85/85/85 86/86/86
f 89/89/89 86/86/86 90/90/90
f 91/91/91 87/87/87 85/85/85
f 91/91/91 85/85/85 89/89/89
f 92/92/92 88/88/88 87/87/87
f 92/92/92 87/87/87 91/91/91
f 93/93/93 88/88/88 92/92/92
f 94/94/94 89/89/89 90/90/90
f 94/94/94 90/90/90 95/95/95
f 96/96/96 91/91/91 89/89/89
f 96/96/96 89/89/89 94/94/94
f 97/97/97 92/92/92 91/91/91
f 97/97/97 91/91/91 96/96/96
f 98/98/98 93/93/93 92/92/92
f 98/98/98 92/92/92 97/97/97
f 99/99/99 93/93/93 98/98/98
f 100/100/100 99/99/99 98/98/98
f 100/100/100 98/98/98 101/101/101
f 101/101/101 98/98/98 97/97/97
f 102/102/102 100/100/100 101/101/101
f 103/103/103 94/94/94 95/95/95
f 103/103/103 95/95/95 104/104/104
f 105/105/105 96/96/96 94/94/94
f 105/105/105 94/94/94 103/103/103
f 106/106/106 97/97/97 96/96/96
f 101/101/101 97/97/97 106/106/106
f 106/106/106 96/96/96 105/105/105
f 102/102/102 101/101/101 107/107/107
f 107/107/107 101/101/101 106/106/106
f 108/108/108 102/102/102 107/107/107
f 109/109/109 103/103/103 104/104/104
f 109/109/109 104/104/104 110/110/110
f 111/111/111 105/105/105 103/103/103
f 111/111/111 103/103/103 109/109/109
f 112/112/112 106/106/106 105/105/105
f 107/107/107 106/106/106 112/112/112
f 112/112/112 105/105/105 111/111/111
f 108/108/108 107/107/107 113/113/113
f 113/113/113 107/107/107 112/112/112
f 114/114/114 108/108/108 113/113/113
f 115/115/115 109/109/109 110/110/110
f 115/115/115 110/110/110 116/116/116
f 117/117/117 111/111/111 109/109/109
f 117/117/117 109/109/109 115/115/115
f 118/118/118 112/112/112 111/111/111
f 113/113/113 112/112/112 118/118/118
f 118/118/118 111/111/111 117/117/117
f 114/114/114 113/113/113 119/119/119
f 119/119/119 113/113/113 118/118/118
f 120/120/120 114/114/114 119/119/119
f 121/121/121 115/115/115 116/116/116
f 121/121/121 116/116/116 122/122/122
f 123/123/123 117/117/117 115/115/115
f 123/123/123 115/115/115 121/121/121
f 124/124/124 118/118/118 117/117/117
f 119/119/119 118/118/118 124/124/124
f 124/124/124 117/117/117 123/123/123
f 120/120/120 119/119/119 125/125/125
f 125/125/125 119/119/119 124/124/124
f 126/126/126 120/120/120 125/125/125
f 127/127/127 121/121/121 122/122/122
f 127/127/127 122/122/122 128/128/128
f 129/129/129 123/123/123 121/121/121
f 129/129/129 121/121/121 127/127/127
f 130/130/130 124/124/124 123/123/123
f 125/125/125 124/124/124 130/130/130
f 130/130/130 123/123/123 129/129/129
f 126/126/126 125/125/125 131/131/131
f 131/131/131 125/125/125 130/130/130
f 132/132/132 126/126/126 131/131/131
f 133/133/133 127/127/127 128/128/128
f 133/133/133 128/128/128 134/134/134
f 135/135/135 129/129/129 127/127/127
f 135/135/135 127/127/127 133/133/133
f 136/136/136 130/130/130 129/129/129
f 131/131/131 130/130/130 136/136/136
f 136/136/136 129/129/129 135/135/135
f 132/132/132 131/131/131 137/137/137
f 137/137/137 131/131/131 136/136/136
f 138/138/138 132/132/132 137/137/137
f 139/139/139 133/133/133 134/134/134
f 139/139/139 134/134/134 140/140/140
f 141/141/141 139/139/139 140/140/140
f 142/142/142 135/135/135 133/133/133
f 142/142/142 133/133/133 139/139/139
f 143/143/143 136/136/136 135/135/135
f 137/137/137 136/136/136 143/143/143
f 143/143/143 135/135/135 142/142/142
f 138/138/138 137/137/137 144/144/144
f 144/144/144 137/137/137 143/143/143
f 145/145/145 138/138/138 144/144/144
f 146/146/146 139/139/139 141/141/141
f 146/146/146 142/142/142 139/139/139
f 147/147/147 146/146/146 141/141/141
f 148/148/148 143/143/143 142/142/142
f 144/144/144 143/143/143 148/148/148
f 148/148/148 142/142/142 146/146/146
f 145/145/145 144/144/144 149/149/149
f 149/149/149 144/144/144 148/148/148
f 150/150/150 145/145/145 149/149/149
f 151/151/151 146/146/146 147/147/147
f 151/151/151 148/148/148 146/146/146
f 149/149/149 148/148/148 151/151/151
f 152/152/152 151/151/151 147/147/147
f 150/150/150 149/149/149 153/153/153
f 153/153/153 149/149/149 151/151/151
f 153/153/153 151/151/151 152/152/152
f 154/154/154 150/150/150 153/153/153
f 155/155/155 153/153/153 152/152/152
f 154/154/154 153/153/153 155/155/155
f 156/156/156 154/154/154 155/155/155
