g SeparateMesh_Avatar_Female_Size03_Lisa_Model_Lisa_Weapon_2_LOD2
v -0.022791957 0.00942091 0.034164622
v -0.015134489 0.0062190443 0.04436567
v -0.015119001 -0.0063438215 0.044335682
v -0.022768995 -0.009488829 0.03411953
v -0.022768995 -0.009488829 0.03411953
v -0.015119001 -0.0063438215 0.044335682
v -0.006251204 -0.015242691 0.044321064
v -0.009421294 -0.022883281 0.03409748
v -0.009421294 -0.022883281 0.03409748
v -0.006251204 -0.015242691 0.044321064
v 0.0063119666 -0.01522768 0.044330157
v 0.009488542 -0.022860965 0.034111556
v 0.009488542 -0.022860965 0.034111556
v 0.0063119666 -0.01522768 0.044330157
v 0.015210816 -0.0063601485 0.044357885
v 0.022883238 -0.009513129 0.034152877
v 0.022883238 -0.009513129 0.034152877
v 0.015210816 -0.0063601485 0.044357885
v 0.015195709 0.006203022 0.04438781
v 0.022860505 0.009396706 0.03419812
v 0.022860505 0.009396706 0.03419812
v 0.015195709 0.006203022 0.04438781
v 0.0063276067 0.015101814 0.044402625
v 0.00951265 0.022791214 0.03422023
v -0.009397108 0.022768782 0.034206424
v 0.00951265 0.022791214 0.03422023
v 0.0063276067 0.015101814 0.044402625
v -0.0062352577 0.01508684 0.044393316
v -0.009397108 0.022768782 0.034206424
v -0.0062352577 0.01508684 0.044393316
v -0.015134489 0.0062190443 0.04436567
v -0.022791957 0.00942091 0.034164622
v -0.00943456 -0.022865176 -0.04796142
v -0.022907013 0.009685611 -0.047893565
v -0.022884203 -0.009368354 -0.04793897
v -0.009410409 0.02313524 -0.047851447
v 0.009643638 0.023157712 -0.047837503
v 0.009619302 -0.022842411 -0.047947153
v 0.023093369 0.009661206 -0.047859814
v 0.023116454 -0.009392945 -0.047905166
v 0.009619302 -0.022842411 -0.047947153
v -0.009421294 -0.022883281 0.03409748
v 0.009488542 -0.022860965 0.034111556
v -0.00943456 -0.022865176 -0.04796142
v -0.022768995 -0.009488829 0.03411953
v -0.022884203 -0.009368354 -0.04793897
v -0.022791957 0.00942091 0.034164622
v -0.022907013 0.009685611 -0.047893565
v -0.009410409 0.02313524 -0.047851447
v -0.009397108 0.022768782 0.034206424
v 0.00951265 0.022791214 0.03422023
v 0.009643638 0.023157712 -0.047837503
v 0.022860505 0.009396706 0.03419812
v 0.023093369 0.009661206 -0.047859814
v 0.022883238 -0.009513129 0.034152877
v 0.023116454 -0.009392945 -0.047905166
v 0.009488542 -0.022860965 0.034111556
v 0.009619302 -0.022842411 -0.047947153
v 0.0063119666 -0.01522768 0.044330157
v 0.0150473 -0.00630942 0.05077083
v 0.015210816 -0.0063601485 0.044357885
v 0.0062417034 -0.015084654 0.050743293
v -0.006251204 -0.015242691 0.044321064
v -0.0061903317 -0.015099651 0.05073411
v -0.015119001 -0.0063438215 0.044335682
v -0.01496565 -0.006293595 0.050748732
v -0.015134489 0.0062190443 0.04436567
v -0.014980037 0.0061381934 0.05077836
v -0.0062352577 0.01508684 0.044393316
v -0.0061743986 0.014913284 0.0508058
v 0.0063276067 0.015101814 0.044402625
v 0.006257464 0.014928091 0.050814968
v 0.015195709 0.006203022 0.04438781
v 0.015032396 0.0061220992 0.050800327
v 0.015210816 -0.0063601485 0.044357885
v 0.0150473 -0.00630942 0.05077083
v -0.0061903317 -0.015099651 0.05073411
v -0.01496565 -0.006293595 0.050748732
v -0.014980037 0.0061381934 0.05077836
v -0.0061743986 0.014913284 0.0508058
v 0.0062417034 -0.015084654 0.050743293
v 0.006257464 0.014928091 0.050814968
v 0.0150473 -0.00630942 0.05077083
v 0.015032396 0.0061220992 0.050800327
v 4.14446E-05 -0.009592875 0.054035943
v -0.0049307076 -0.0072173104 0.05403798
v 0.005007799 -0.007205313 0.054045275
v 0.006999146 -0.0032937995 0.05405598
v -0.0069312877 -0.00331047 0.054045632
v 0.006960237 0.028521478 0.05504976
v -0.0069705034 0.028504636 0.05503949
v -0.0040446296 0.029681662 -0.0051253173
v -0.0041263783 0.023741757 0.04118433
v -0.0040344447 0.025762843 -0.0120143555
v -0.004082395 0.029557645 0.046873808
v -0.004066832 0.020175705 0.051817868
v -0.004103605 0.015425987 0.047994595
v 0.0041938187 0.029691543 -0.0051192665
v -0.0040344447 0.025762843 -0.0120143555
v 0.0042040804 0.025772683 -0.012008246
v -0.0040446296 0.029681662 -0.0051253173
v 0.0041561294 0.029567566 0.04687986
v -0.004082395 0.029557645 0.046873808
v 0.0041717696 0.0201857 0.05182393
v -0.004066832 0.020175705 0.051817868
v -0.004082395 0.029557645 0.046873808
v 0.0041561294 0.029567566 0.04687986
v 0.0041348436 0.015435885 0.04800063
v -0.004103605 0.015425987 0.047994595
v -0.004066832 0.020175705 0.051817868
v 0.0041717696 0.0201857 0.05182393
v 0.0041717696 0.0201857 0.05182393
v 0.0041116117 0.02375157 0.041190386
v 0.0041348436 0.015435885 0.04800063
v 0.0041561294 0.029567566 0.04687986
v 0.0041938187 0.029691543 -0.0051192665
v 0.0042040804 0.025772683 -0.012008246
vt 0.8939208 0.153391
vt 0.8879064 0.13625173
vt 0.87083673 0.13625152
vt 0.8650056 0.15338469
vt 0.8650056 0.15338469
vt 0.87288976 0.137088
vt 0.86106527 0.12476747
vt 0.84452236 0.13298106
vt 0.84452236 0.13298106
vt 0.8618033 0.12697768
vt 0.8618025 0.10990148
vt 0.84452236 0.10407161
vt 0.84452236 0.10407161
vt 0.8608248 0.11194796
vt 0.8731334 0.10012224
vt 0.8649198 0.08357858
vt 0.8649198 0.08357858
vt 0.8709254 0.10085986
vt 0.8879962 0.10085983
vt 0.89383507 0.08358466
vt 0.89383507 0.08358466
vt 0.8859513 0.099881485
vt 0.89777595 0.11220148
vt 0.9143187 0.10398828
vt 0.9143187 0.13289785
vt 0.9143187 0.10398828
vt 0.89703774 0.11024141
vt 0.8970379 0.12731698
vt 0.9143187 0.13289785
vt 0.89831597 0.12483369
vt 0.88600683 0.13666071
vt 0.8939208 0.153391
vt 0.8473588 0.24280174
vt 0.86009645 0.21192117
vt 0.8473588 0.2247345
vt 0.87816393 0.21192117
vt 0.89097726 0.22465892
vt 0.8601719 0.25553963
vt 0.89097726 0.24272628
vt 0.8782395 0.25553963
vt 0.7299191 0.0052841287
vt 0.8394046 0.032593306
vt 0.8394046 0.0052841287
vt 0.7299191 0.032593306
vt 0.8394047 0.059902485
vt 0.7299192 0.059902485
vt 0.8394047 0.08721167
vt 0.7299191 0.08721167
vt 0.7299191 0.11452109
vt 0.8394047 0.11452109
vt 0.8394047 0.14183028
vt 0.7299192 0.14183028
vt 0.8394047 0.16913946
vt 0.7299191 0.16913946
vt 0.8394047 0.19644864
vt 0.7299191 0.19644864
vt 0.8394046 0.22375794
vt 0.7299191 0.22375818
vt 0.953936 0.020657694
vt 0.9648193 0.0035412665
vt 0.953936 0.0035412665
vt 0.9648193 0.020657694
vt 0.953936 0.037774242
vt 0.9648193 0.037774242
vt 0.953936 0.05489067
vt 0.9648193 0.05489067
vt 0.953936 0.0720071
vt 0.9648193 0.0720071
vt 0.953936 0.089123644
vt 0.9648193 0.089123644
vt 0.953936 0.10624007
vt 0.9648193 0.10624007
vt 0.953936 0.12335639
vt 0.9648193 0.12335639
vt 0.953936 0.14047293
vt 0.9648193 0.14047293
vt 0.8987312 0.23796263
vt 0.8987312 0.2517151
vt 0.9084267 0.26146832
vt 0.9221793 0.26146832
vt 0.9084843 0.22826698
vt 0.9319324 0.25177267
vt 0.92223686 0.22826698
vt 0.9319325 0.23802033
vt 0.96870613 0.2137323
vt 0.9759176 0.20959394
vt 0.9614947 0.20959394
vt 0.9586222 0.20280145
vt 0.97879004 0.20280145
vt 0.95864683 0.15252064
vt 0.9787653 0.15252064
vt 0.94891447 0.08554733
vt 0.93837637 0.020942096
vt 0.94323117 0.09548324
vt 0.94891447 0.010451321
vt 0.9299986 0.0026685032
vt 0.9243441 0.008859877
vt 0.9860426 0.013649383
vt 0.99794006 0.0030088807
vt 0.9860426 0.0030088807
vt 0.99794006 0.013649383
vt 0.9860426 0.0887454
vt 0.99794006 0.0887454
vt 0.93712175 0.03784164
vt 0.9252243 0.03784164
vt 0.9252243 0.058295928
vt 0.93712175 0.058295928
vt 0.7229735 0.4805853
vt 0.7348711 0.4805853
vt 0.7348711 0.47220048
vt 0.7229735 0.47220048
vt 0.91841495 0.15898801
vt 0.92679274 0.14071448
vt 0.9127605 0.15279664
vt 0.93733084 0.1512052
vt 0.93733084 0.07610918
vt 0.93164754 0.0661732
vn -0.87772983 0.36301225 0.31274995
vn -0.85623276 0.3539163 0.37630948
vn -0.8566427 -0.3553425 0.3740254
vn -0.8779558 -0.36402673 0.31093097
vn -0.8779558 -0.36402673 0.31093097
vn -0.8566427 -0.3553425 0.3740254
vn -0.35510427 -0.85685694 0.37376085
vn -0.3639887 -0.8782338 0.31018966
vn -0.3639887 -0.8782338 0.31018966
vn -0.35510427 -0.85685694 0.37376085
vn 0.3541698 -0.85725754 0.37372887
vn 0.36304933 -0.8784705 0.3106198
vn 0.36304933 -0.8784705 0.3106198
vn 0.3541698 -0.85725754 0.37372887
vn 0.85567635 -0.355722 0.37587208
vn 0.87727535 -0.36449614 0.31229877
vn 0.87727535 -0.36449614 0.31229877
vn 0.85567635 -0.355722 0.37587208
vn 0.85608727 0.35354546 0.37698832
vn 0.87750167 0.3625491 0.31392515
vn 0.87750167 0.3625491 0.31392515
vn 0.85608727 0.35354546 0.37698832
vn 0.354547 0.855062 0.378372
vn 0.36353132 0.8767578 0.31486627
vn -0.36350498 0.87699145 0.31424552
vn 0.36353132 0.8767578 0.31486627
vn 0.354547 0.855062 0.378372
vn -0.3547132 0.85547 0.37729245
vn -0.36350498 0.87699145 0.31424552
vn -0.3547132 0.85547 0.37729245
vn -0.85623276 0.3539163 0.37630948
vn -0.87772983 0.36301225 0.31274995
vn -0.29719487 -0.71653587 -0.6310717
vn -0.7175697 0.29914048 -0.62897426
vn -0.717373 -0.2956091 -0.6308654
vn -0.29663804 0.7193239 -0.6281553
vn 0.29810855 0.7195118 -0.6272433
vn 0.29755622 -0.71633846 -0.63112557
vn 0.7182816 0.29859865 -0.628419
vn 0.71849126 -0.29615954 -0.62933284
vn 0.29755622 -0.71633846 -0.63112557
vn -0.3639887 -0.8782338 0.31018966
vn 0.36304933 -0.8784705 0.3106198
vn -0.29719487 -0.71653587 -0.6310717
vn -0.8779558 -0.36402673 0.31093097
vn -0.717373 -0.2956091 -0.6308654
vn -0.87772983 0.36301225 0.31274995
vn -0.7175697 0.29914048 -0.62897426
vn -0.29663804 0.7193239 -0.6281553
vn -0.36350498 0.87699145 0.31424552
vn 0.36353132 0.8767578 0.31486627
vn 0.29810855 0.7195118 -0.6272433
vn 0.87750167 0.3625491 0.31392515
vn 0.7182816 0.29859865 -0.628419
vn 0.87727535 -0.36449614 0.31229877
vn 0.71849126 -0.29615954 -0.62933284
vn 0.36304933 -0.8784705 0.3106198
vn 0.29755622 -0.71633846 -0.63112557
vn 0.3541698 -0.85725754 0.37372887
vn 0.92342687 -0.38285464 0.026553353
vn 0.85567635 -0.355722 0.37587208
vn 0.38227794 -0.9237145 0.024801845
vn -0.35510427 -0.85685694 0.37376085
vn -0.3828209 -0.92350453 0.024237461
vn -0.8566427 -0.3553425 0.3740254
vn -0.92367667 -0.38234857 0.025122203
vn -0.85623276 0.3539163 0.37630948
vn -0.92345554 0.3827537 0.02701082
vn -0.3547132 0.85547 0.37729245
vn -0.3823059 0.92359173 0.02864296
vn 0.354547 0.855062 0.378372
vn 0.38278973 0.92337316 0.029223394
vn 0.85608727 0.35354546 0.37698832
vn 0.9236339 0.38222772 0.028327568
vn 0.85567635 -0.355722 0.37587208
vn 0.92342687 -0.38285464 0.026553353
vn -0.0007344845 -0.0023876864 0.9999969
vn -0.0007332514 -0.0023870321 0.9999969
vn -0.0007332514 -0.0023870317 0.9999969
vn -0.0007344842 -0.0023876862 0.9999969
vn -0.0007360161 -0.0023865374 0.9999969
vn -0.0007360155 -0.0023865383 0.9999969
vn -0.0007378458 -0.002383587 0.9999969
vn -0.0007378458 -0.002383587 0.9999969
vn -0.0007311906 -0.002387508 0.9999969
vn -0.0007354132 -0.0023558768 0.999997
vn -0.0007354133 -0.0023558766 0.999997
vn -0.00071617815 -0.019340973 0.9998128
vn -0.00071617845 -0.0193408 0.9998128
vn -0.000701955 -0.0312228 0.9995122
vn -0.000701955 -0.031222796 0.9995122
vn -0.99998724 0.0049348907 -0.001132266
vn -0.9999912 0.003697103 0.0019876678
vn -0.99998724 0.00493489 -0.0011322659
vn -0.9999894 0.003137902 0.0033971341
vn -0.9999784 0.0019981202 0.006269873
vn -0.9999784 0.00199812 0.006269873
vn -0.0009720186 0.96705085 -0.25458142
vn -0.0006753465 0.86920494 -0.49445167
vn -0.00067534635 0.8692048 -0.49445164
vn -0.0009720278 0.96705306 -0.25457284
vn -0.001203464 0.9999964 0.0023837334
vn -0.0012034641 0.9999964 0.0023837336
vn -0.0012140187 0.46620375 0.8846765
vn -0.0012140186 0.4662037 0.8846765
vn -0.0012140186 0.4662037 0.8846765
vn -0.0012140187 0.46620375 0.8846765
vn 0.000185086 -0.6270406 0.7789865
vn 0.00018508598 -0.6270406 0.7789865
vn 0.00018508598 -0.6270406 0.7789865
vn 0.00018508598 -0.6270406 0.7789865
vn 0.99997795 -0.0020082903 -0.006330725
vn 0.99999106 -0.0037310175 -0.002011414
vn 0.99997795 -0.0020082903 -0.006330725
vn 0.99998915 -0.0031640164 -0.0034330576
vn 0.999987 -0.004986112 0.0011355793
vn 0.999987 -0.0049861125 0.0011355794
g SeparateMesh_Avatar_Female_Size03_Lisa_Model_Lisa_Weapon_2_LOD2_0
f 3/3/3 2/2/2 1/1/1
f 4/4/4 3/3/3 1/1/1
f 7/7/7 6/6/6 5/5/5
f 8/8/8 7/7/7 5/5/5
f 11/11/11 10/10/10 9/9/9
f 12/12/12 11/11/11 9/9/9
f 15/15/15 14/14/14 13/13/13
f 16/16/16 15/15/15 13/13/13
f 19/19/19 18/18/18 17/17/17
f 20/20/20 19/19/19 17/17/17
f 23/23/23 22/22/22 21/21/21
f 24/24/24 23/23/23 21/21/21
f 27/27/27 26/26/26 25/25/25
f 28/28/28 27/27/27 25/25/25
f 31/31/31 30/30/30 29/29/29
f 32/32/32 31/31/31 29/29/29
f 35/35/35 34/34/34 33/33/33
f 34/34/34 36/36/36 33/33/33
f 33/33/33 36/36/36 37/37/37
f 38/38/38 33/33/33 37/37/37
f 38/38/38 37/37/37 39/39/39
f 40/40/40 38/38/38 39/39/39
f 43/43/43 42/42/42 41/41/41
f 42/42/42 44/44/44 41/41/41
f 42/42/42 45/45/45 44/44/44
f 45/45/45 46/46/46 44/44/44
f 45/45/45 47/47/47 46/46/46
f 47/47/47 48/48/48 46/46/46
f 49/49/49 48/48/48 47/47/47
f 50/50/50 49/49/49 47/47/47
f 50/50/50 51/51/51 49/49/49
f 51/51/51 52/52/52 49/49/49
f 51/51/51 53/53/53 52/52/52
f 53/53/53 54/54/54 52/52/52
f 53/53/53 55/55/55 54/54/54
f 55/55/55 56/56/56 54/54/54
f 55/55/55 57/57/57 56/56/56
f 57/57/57 58/58/58 56/56/56
f 61/61/61 60/60/60 59/59/59
f 60/60/60 62/62/62 59/59/59
f 59/59/59 62/62/62 63/63/63
f 62/62/62 64/64/64 63/63/63
f 63/63/63 64/64/64 65/65/65
f 64/64/64 66/66/66 65/65/65
f 65/65/65 66/66/66 67/67/67
f 66/66/66 68/68/68 67/67/67
f 67/67/67 68/68/68 69/69/69
f 68/68/68 70/70/70 69/69/69
f 69/69/69 70/70/70 71/71/71
f 70/70/70 72/72/72 71/71/71
f 71/71/71 72/72/72 73/73/73
f 72/72/72 74/74/74 73/73/73
f 73/73/73 74/74/74 75/75/75
f 74/74/74 76/76/76 75/75/75
f 79/79/79 78/78/78 77/77/77
f 80/80/80 79/79/79 77/77/77
f 80/80/80 77/77/77 81/81/81
f 82/82/82 80/80/80 81/81/81
f 82/82/82 81/81/81 83/83/83
f 84/84/84 82/82/82 83/83/83
f 87/87/87 86/86/86 85/85/85
f 86/86/86 87/87/87 88/88/88
f 89/89/89 86/86/86 88/88/88
f 89/89/89 88/88/88 90/90/90
f 91/91/91 89/89/89 90/90/90
f 94/94/94 93/93/93 92/92/92
f 93/93/93 95/95/95 92/92/92
f 95/95/95 93/93/93 96/96/96
f 93/93/93 97/97/97 96/96/96
f 100/100/100 99/99/99 98/98/98
f 99/99/99 101/101/101 98/98/98
f 98/98/98 101/101/101 102/102/102
f 101/101/101 103/103/103 102/102/102
f 106/106/106 105/105/105 104/104/104
f 107/107/107 106/106/106 104/104/104
f 110/110/110 109/109/109 108/108/108
f 111/111/111 110/110/110 108/108/108
f 114/114/114 113/113/113 112/112/112
f 113/113/113 115/115/115 112/112/112
f 115/115/115 113/113/113 116/116/116
f 113/113/113 117/117/117 116/116/116
