g SeparateMesh_Monster_GreedyGunner_GreedyGunner_Head
v -0.053561 -0.311806 1.874689
v -0.069980994 -0.311806 1.8992629
v -0.069980994 -0.32289803 1.9014689
v -0.075747 -0.311806 1.92825
v -0.053561 -0.332302 1.878766
v -0.028987 -0.311806 1.858269
v -0.069980994 -0.332302 1.907753
v -0.028987 -0.338586 1.863596
v -0 -0.311806 1.8525028
v -0.053561 -0.349679 1.890376
v -0 -0.34079298 1.858269
v 0.028987 -0.311806 1.858269
v -0.069980994 -0.338586 1.9171569
v -0.028987 -0.36128896 1.878766
v 0.028987 -0.338586 1.863596
v 0.053561 -0.311806 1.874689
v -0.053561 -0.36128896 1.907753
v -0 -0.36536697 1.874689
v 0.053561 -0.332302 1.878766
v 0.069980994 -0.311806 1.8992629
v -0.069980994 -0.34079298 1.92825
v -0.028987 -0.376459 1.9014689
v 0.028987 -0.36128896 1.878766
v 0.069980994 -0.32289803 1.9014689
v 0.075747 -0.311806 1.92825
v -0.053561 -0.36536697 1.9282489
v -0 -0.381786 1.8992629
v 0.053561 -0.349679 1.890376
v -0.069980994 -0.338586 1.939342
v -0.028987 -0.381786 1.92825
v 0.028987 -0.376459 1.9014689
v 0.069980994 -0.332302 1.907753
v -0.053561 -0.36128896 1.9487469
v -0.069980994 -0.332303 1.948746
v -0 -0.387552 1.92825
v 0.053561 -0.36128896 1.907753
v -0.069980994 -0.32289803 1.9550298
v -0.069980994 -0.311806 1.9572359
v -0.069980994 -0.300713 1.9550298
v -0.028987 -0.376459 1.9550298
v -0.053561 -0.349679 1.9661229
v 0.028987 -0.381786 1.92825
v 0.069980994 -0.338586 1.9171569
v -0.053561 -0.332303 1.977733
v -0 -0.381786 1.9572359
v -0.028987 -0.36128896 1.977733
v 0.053561 -0.36536697 1.9282489
v -0.053561 -0.311806 1.98181
v 0.028987 -0.376459 1.9550298
v -0 -0.36536697 1.98181
v -0.028987 -0.338586 1.992903
v 0.069980994 -0.34079298 1.92825
v 0.053561 -0.36128896 1.948746
v 0.028987 -0.36128896 1.977733
v -0 -0.34079298 1.99823
v -0.028987 -0.311806 1.99823
v 0.069980994 -0.338586 1.939342
v 0.053561 -0.349679 1.9661229
v 0.028987 -0.338586 1.992903
v 0.069980994 -0.332303 1.948746
v 0.069980994 -0.32289803 1.9550298
v 0.069980994 -0.311806 1.9572359
v 0.069980994 -0.300713 1.9550298
v 0.053561 -0.332303 1.977733
v -0 -0.311806 2.003996
v 0.053561 -0.311806 1.98181
v 0.028987 -0.311806 1.99823
v 0.053561 -0.291309 1.977733
v 0.028987 -0.285025 1.992903
v -0 -0.282819 1.99823
v -0.028987 -0.285025 1.992903
v -0.053561 -0.291309 1.977733
v -0.069980994 -0.291309 1.948746
v -0.053561 -0.27393198 1.9661229
v -0.028987 -0.262322 1.977733
v -0 -0.258245 1.98181
v 0.028987 -0.262322 1.977733
v -0.069980994 -0.285025 1.939342
v -0.053561 -0.262322 1.948746
v -0.028987 -0.247152 1.9550298
v -0.069980994 -0.282819 1.92825
v -0.053561 -0.258245 1.92825
v -0 -0.24182498 1.9572359
v 0.053561 -0.27393198 1.9661229
v -0.069980994 -0.285025 1.9171569
v -0.028987 -0.24182498 1.92825
v 0.028987 -0.247152 1.9550298
v 0.069980994 -0.291309 1.948746
v -0.053561 -0.262322 1.907753
v -0.069980994 -0.291309 1.907753
v -0 -0.236059 1.92825
v 0.053561 -0.262322 1.948746
v -0.069980994 -0.300713 1.9014689
v -0.069980994 -0.311806 1.8992629
v -0.028987 -0.247152 1.9014689
v -0.053561 -0.27393198 1.890376
v -0.053561 -0.291309 1.878766
v -0.053561 -0.311806 1.874689
v 0.028987 -0.24182498 1.92825
v 0.069980994 -0.285025 1.939342
v -0 -0.24182498 1.8992629
v -0.028987 -0.262322 1.878766
v -0.028987 -0.285025 1.863596
v -0.028987 -0.311806 1.858269
v 0.053561 -0.258245 1.92825
v 0.028987 -0.247152 1.9014689
v -0 -0.258245 1.874689
v -0 -0.282819 1.858269
v -0 -0.311806 1.8525028
v 0.069980994 -0.282819 1.92825
v 0.053561 -0.262322 1.907753
v 0.028987 -0.262322 1.878766
v 0.028987 -0.285025 1.863596
v 0.028987 -0.311806 1.858269
v 0.069980994 -0.285025 1.9171569
v 0.053561 -0.27393198 1.890376
v 0.053561 -0.291309 1.878766
v 0.053561 -0.311806 1.874689
v 0.069980994 -0.291309 1.907753
v 0.069980994 -0.300713 1.9014689
v 0.069980994 -0.311806 1.8992629
vt 0.0064745825 0.18961485
vt 0.0031108162 0.19961478
vt 0.0051595634 0.20003358
vt 0.0045417137 0.21276158
vt 0.009527774 0.1918401
vt 0.013810413 0.18237421
vt 0.00675265 0.20111164
vt 0.016241005 0.18664174
vt 0.023689114 0.17929155
vt 0.011548613 0.19449586
vt 0.024226245 0.18460655
vt 0.034041777 0.1811755
vt 0.007954991 0.20260452
vt 0.01770756 0.1906099
vt 0.032419033 0.18591556
vt 0.042489678 0.18791674
vt 0.012903993 0.19734503
vt 0.02453892 0.18915854
vt 0.039672352 0.1906612
vt 0.04676147 0.19834048
vt 0.008848559 0.20436415
vt 0.018629733 0.19439642
vt 0.031461105 0.19011718
vt 0.044622898 0.1988883
vt 0.045332473 0.21193407
vt 0.013825617 0.20029156
vt 0.024721064 0.19332427
vt 0.037880514 0.19361512
vt 0.009499717 0.20630531
vt 0.019225027 0.19807461
vt 0.030848853 0.19403534
vt 0.04302521 0.2000955
vt 0.014452218 0.20329939
vt 0.009949376 0.20837551
vt 0.02482504 0.19727972
vt 0.03669567 0.19664666
vt 0.01021429 0.21053514
vt 0.01029791 0.21274178
vt 0.010202937 0.21495001
vt 0.019612223 0.20169199
vt 0.01486352 0.20635243
vt 0.030435953 0.19779634
vt 0.041855175 0.2016891
vt 0.015101175 0.20944117
vt 0.024882201 0.20111695
vt 0.019857083 0.20527926
vt 0.035887428 0.19971211
vt 0.015184498 0.21255423
vt 0.030152235 0.20146854
vt 0.024912361 0.20488876
vt 0.019995365 0.20885554
vt 0.04099972 0.20351563
vt 0.035331547 0.20279977
vt 0.029964443 0.20509171
vt 0.024927914 0.20862718
vt 0.020045578 0.2124317
vt 0.04037632 0.20549472
vt 0.034963254 0.20590553
vt 0.029858012 0.2086884
vt 0.039938513 0.20758303
vt 0.039671097 0.20974945
vt 0.039576374 0.21195778
vt 0.039660398 0.21416482
vt 0.034752954 0.20902458
vt 0.024937216 0.21235168
vt 0.03468999 0.21214743
vt 0.029828902 0.21227115
vt 0.034773655 0.21526039
vt 0.029879268 0.21584733
vt 0.024946518 0.2160758
vt 0.02001622 0.21601447
vt 0.015121031 0.21567689
vt 0.009934972 0.21711594
vt 0.014910431 0.21879594
vt 0.019909546 0.21961105
vt 0.024962023 0.21981409
vt 0.030017652 0.2194234
vt 0.009496965 0.21920393
vt 0.014541692 0.2219012
vt 0.0197214 0.22323363
vt 0.008873265 0.22118244
vt 0.013985406 0.22498785
vt 0.024991982 0.22358581
vt 0.03501142 0.21834904
vt 0.008017757 0.22300868
vt 0.019437432 0.22690521
vt 0.030262511 0.22301017
vt 0.039925665 0.21632394
vt 0.013176859 0.2280529
vt 0.006847573 0.22460125
vt 0.025049046 0.22742234
vt 0.035423018 0.22140197
vt 0.0052497853 0.22580755
vt 0.0031108162 0.22635378
vt 0.019024182 0.23066543
vt 0.011991571 0.23108342
vt 0.010199086 0.23403615
vt 0.007380854 0.23677962
vt 0.030649755 0.22662695
vt 0.040375367 0.21839395
vt 0.025152817 0.2313772
vt 0.01841148 0.23458299
vt 0.017453 0.238784
vt 0.015829302 0.24352334
vt 0.03604977 0.2244088
vt 0.031245098 0.23030484
vt 0.025334813 0.23554222
vt 0.025647238 0.24009362
vt 0.026184168 0.24540854
vt 0.04102678 0.22033432
vt 0.036971442 0.22735503
vt 0.032167275 0.23409055
vt 0.033633977 0.23805803
vt 0.03606502 0.24232496
vt 0.041920245 0.22209343
vt 0.038327023 0.23020342
vt 0.040348057 0.23285826
vt 0.043401852 0.2350824
vt 0.043122638 0.2235859
vt 0.04471582 0.22466308
vt 0.046764717 0.22508077
vn -0.69515467 -3.3699794E-06 -0.71886015
vn -0.9151578 -2.788167E-06 -0.4030957
vn -0.9151557 -0.15425609 -0.37241784
vn -1 -2.0736543E-06 2.8627658E-06
vn -0.6951551 -0.2750912 -0.6641418
vn -0.3743711 -2.3655796E-06 -0.927279
vn -0.9151593 -0.2850291 -0.28502947
vn -0.37437016 -0.35485628 -0.85669357
vn -0 -1.5654031E-06 -1
vn -0.6951517 -0.5083125 -0.5083134
vn -0 -0.3826914 -0.9238763
vn 0.3743711 -2.363066E-06 -0.9272789
vn -0.9151566 -0.37241107 -0.15426774
vn -0.37436906 -0.65568703 -0.6556846
vn 0.37437013 -0.35485628 -0.8566936
vn 0.69515467 -3.3699794E-06 -0.71886015
vn -0.69515294 -0.6641394 -0.27510223
vn -0 -0.7071134 -0.7071001
vn 0.6951551 -0.27509117 -0.6641418
vn 0.9151578 -2.7900041E-06 -0.4030957
vn -0.9151554 -0.40310133 1.1029033E-06
vn -0.37436366 -0.85669595 -0.35485762
vn 0.37436906 -0.6556871 -0.6556846
vn 0.9151557 -0.1542561 -0.37241787
vn 1 -2.0736543E-06 2.8627658E-06
vn -0.69514924 -0.7188654 -5.199167E-06
vn -0 -0.92388135 -0.38267905
vn 0.69515175 -0.5083125 -0.5083134
vn -0.91515756 -0.37241155 0.15426062
vn -0.37436342 -0.92728204 2.7124959E-06
vn 0.3743637 -0.85669595 -0.3548577
vn 0.9151594 -0.2850291 -0.28502944
vn -0.6951499 -0.66414106 0.27510583
vn -0.915156 -0.28503692 0.28503266
vn -0 -1 3.3125893E-06
vn 0.69515294 -0.6641394 -0.27510223
vn -0.91515666 -0.15425195 0.37241727
vn -0.91515666 -1.7379349E-06 0.4030983
vn -0.9151555 0.15425494 0.3724191
vn -0.37436348 -0.85669565 0.35485834
vn -0.69515 -0.5083148 0.5083135
vn 0.37436396 -0.92728186 3.3887354E-06
vn 0.9151566 -0.37241104 -0.15426774
vn -0.69515294 -0.2750967 0.66414165
vn -0 -0.9238801 0.38268203
vn -0.37436596 -0.6556886 0.6556848
vn 0.6951493 -0.71886533 -3.6483652E-06
vn -0.69515514 -1.6526816E-06 0.7188597
vn 0.3743654 -0.85669494 0.35485813
vn -0 -0.7071139 0.7070996
vn -0.374368 -0.35485646 0.85669464
vn 0.9151553 -0.4031016 2.0551606E-06
vn 0.6951512 -0.6641421 0.27510032
vn 0.37436774 -0.65568936 0.6556829
vn -0 -0.3826902 0.92387676
vn -0.37436914 -1.6088962E-06 0.9272797
vn 0.9151566 -0.37241372 0.15426105
vn 0.6951503 -0.5083177 0.5083102
vn 0.3743679 -0.35485637 0.85669464
vn 0.9151556 -0.28503945 0.2850313
vn 0.91515666 -0.15425195 0.37241724
vn 0.91515666 -1.7391596E-06 0.40309832
vn 0.9151555 0.15425494 0.37241897
vn 0.69515294 -0.27509674 0.66414165
vn -0 -1.5754988E-06 1
vn 0.69515514 -1.6551669E-06 0.7188597
vn 0.37436914 -1.6088962E-06 0.9272797
vn 0.69515544 0.27508897 0.6641424
vn 0.3743648 0.35485658 0.85669583
vn -0 0.38268518 0.9238788
vn -0.37436488 0.35485658 0.85669583
vn -0.6951555 0.275089 0.6641423
vn -0.915159 0.28502923 0.28503045
vn -0.69515216 0.5083129 0.5083126
vn -0.37436172 0.65568805 0.6556878
vn -0 0.7071068 0.70710665
vn 0.37436172 0.65568805 0.6556878
vn -0.915156 0.3724172 0.15425645
vn -0.69515514 0.6641413 0.2750921
vn -0.3743649 0.85669476 0.35485914
vn -0.91515785 0.40309548 2.6038406E-06
vn -0.69515514 0.71885973 3.285482E-06
vn -0 0.92387736 0.38268876
vn 0.69515216 0.5083129 0.5083126
vn -0.91515607 0.3724178 -0.15425366
vn -0.3743694 0.9272796 3.333434E-06
vn 0.37436494 0.85669476 0.35485914
vn 0.915159 0.28502923 0.2850304
vn -0.69515544 0.66414255 -0.2750884
vn -0.9151602 0.28502807 -0.28502798
vn -0 1 3.31259E-06
vn 0.69515514 0.66414136 0.27509207
vn -0.915156 0.15425353 -0.37241843
vn -0.9151578 -2.788167E-06 -0.4030957
vn -0.3743646 0.8566958 -0.35485697
vn -0.6951516 0.50831264 -0.50831336
vn -0.69515514 0.275088 -0.66414297
vn -0.69515467 -3.3699794E-06 -0.71886015
vn 0.3743694 0.9272796 3.328406E-06
vn 0.915156 0.37241724 0.15425646
vn -0 0.9238786 -0.38268584
vn -0.3743611 0.6556877 -0.6556885
vn -0.3743649 0.3548568 -0.85669565
vn -0.3743711 -2.3655796E-06 -0.927279
vn 0.69515514 0.7188597 3.2854819E-06
vn 0.3743646 0.8566958 -0.35485697
vn -0 0.7071063 -0.70710725
vn -0 0.38268635 -0.9238783
vn -0 -1.5654031E-06 -1
vn 0.91515785 0.4030955 2.6087398E-06
vn 0.6951555 0.66414255 -0.27508843
vn 0.37436104 0.6556877 -0.6556885
vn 0.37436494 0.3548568 -0.85669565
vn 0.3743711 -2.363066E-06 -0.9272789
vn 0.91515607 0.3724178 -0.15425368
vn 0.6951516 0.5083127 -0.50831336
vn 0.69515514 0.27508807 -0.66414297
vn 0.69515467 -3.3699794E-06 -0.71886015
vn 0.9151602 0.2850281 -0.28502798
vn 0.9151559 0.15425351 -0.37241846
vn 0.9151578 -2.7900041E-06 -0.4030957
g SeparateMesh_Monster_GreedyGunner_GreedyGunner_Head_0
f 3/3/3 2/2/2 1/1/1
f 2/2/2 3/3/3 4/4/4
f 5/5/5 3/3/3 1/1/1
f 5/5/5 1/1/1 6/6/6
f 3/3/3 7/7/7 4/4/4
f 7/7/7 3/3/3 5/5/5
f 8/8/8 5/5/5 6/6/6
f 8/8/8 6/6/6 9/9/9
f 10/10/10 7/7/7 5/5/5
f 10/10/10 5/5/5 8/8/8
f 11/11/11 8/8/8 9/9/9
f 11/11/11 9/9/9 12/12/12
f 7/7/7 13/13/13 4/4/4
f 13/13/13 7/7/7 10/10/10
f 14/14/14 10/10/10 8/8/8
f 14/14/14 8/8/8 11/11/11
f 15/15/15 11/11/11 12/12/12
f 15/15/15 12/12/12 16/16/16
f 17/17/17 13/13/13 10/10/10
f 17/17/17 10/10/10 14/14/14
f 18/18/18 14/14/14 11/11/11
f 18/18/18 11/11/11 15/15/15
f 19/19/19 15/15/15 16/16/16
f 19/19/19 16/16/16 20/20/20
f 13/13/13 21/21/21 4/4/4
f 21/21/21 13/13/13 17/17/17
f 22/22/22 17/17/17 14/14/14
f 22/22/22 14/14/14 18/18/18
f 23/23/23 18/18/18 15/15/15
f 23/23/23 15/15/15 19/19/19
f 24/24/24 19/19/19 20/20/20
f 24/24/24 20/20/20 25/25/25
f 26/26/26 21/21/21 17/17/17
f 26/26/26 17/17/17 22/22/22
f 27/27/27 22/22/22 18/18/18
f 27/27/27 18/18/18 23/23/23
f 28/28/28 19/19/19 24/24/24
f 28/28/28 23/23/23 19/19/19
f 21/21/21 29/29/29 4/4/4
f 29/29/29 21/21/21 26/26/26
f 30/30/30 26/26/26 22/22/22
f 30/30/30 22/22/22 27/27/27
f 31/31/31 27/27/27 23/23/23
f 31/31/31 23/23/23 28/28/28
f 32/32/32 28/28/28 24/24/24
f 32/32/32 24/24/24 25/25/25
f 33/33/33 29/29/29 26/26/26
f 33/33/33 26/26/26 30/30/30
f 29/29/29 34/34/34 4/4/4
f 34/34/34 29/29/29 33/33/33
f 35/35/35 30/30/30 27/27/27
f 35/35/35 27/27/27 31/31/31
f 36/36/36 28/28/28 32/32/32
f 36/36/36 31/31/31 28/28/28
f 34/34/34 37/37/37 4/4/4
f 37/37/37 38/38/38 4/4/4
f 38/38/38 39/39/39 4/4/4
f 40/40/40 33/33/33 30/30/30
f 40/40/40 30/30/30 35/35/35
f 41/41/41 34/34/34 33/33/33
f 37/37/37 34/34/34 41/41/41
f 41/41/41 33/33/33 40/40/40
f 42/42/42 35/35/35 31/31/31
f 42/42/42 31/31/31 36/36/36
f 43/43/43 36/36/36 32/32/32
f 43/43/43 32/32/32 25/25/25
f 38/38/38 37/37/37 44/44/44
f 44/44/44 37/37/37 41/41/41
f 45/45/45 40/40/40 35/35/35
f 45/45/45 35/35/35 42/42/42
f 46/46/46 41/41/41 40/40/40
f 44/44/44 41/41/41 46/46/46
f 46/46/46 40/40/40 45/45/45
f 47/47/47 36/36/36 43/43/43
f 47/47/47 42/42/42 36/36/36
f 48/48/48 38/38/38 44/44/44
f 39/39/39 38/38/38 48/48/48
f 49/49/49 45/45/45 42/42/42
f 49/49/49 42/42/42 47/47/47
f 50/50/50 46/46/46 45/45/45
f 50/50/50 45/45/45 49/49/49
f 51/51/51 44/44/44 46/46/46
f 48/48/48 44/44/44 51/51/51
f 51/51/51 46/46/46 50/50/50
f 52/52/52 47/47/47 43/43/43
f 52/52/52 43/43/43 25/25/25
f 53/53/53 49/49/49 47/47/47
f 53/53/53 47/47/47 52/52/52
f 54/54/54 50/50/50 49/49/49
f 54/54/54 49/49/49 53/53/53
f 55/55/55 51/51/51 50/50/50
f 55/55/55 50/50/50 54/54/54
f 56/56/56 48/48/48 51/51/51
f 56/56/56 51/51/51 55/55/55
f 57/57/57 53/53/53 52/52/52
f 57/57/57 52/52/52 25/25/25
f 58/58/58 54/54/54 53/53/53
f 58/58/58 53/53/53 57/57/57
f 59/59/59 55/55/55 54/54/54
f 59/59/59 54/54/54 58/58/58
f 60/60/60 57/57/57 25/25/25
f 60/60/60 58/58/58 57/57/57
f 61/61/61 60/60/60 25/25/25
f 62/62/62 61/61/61 25/25/25
f 63/63/63 62/62/62 25/25/25
f 64/64/64 58/58/58 60/60/60
f 61/61/61 64/64/64 60/60/60
f 64/64/64 59/59/59 58/58/58
f 65/65/65 55/55/55 59/59/59
f 65/65/65 56/56/56 55/55/55
f 62/62/62 66/66/66 61/61/61
f 66/66/66 64/64/64 61/61/61
f 67/67/67 59/59/59 64/64/64
f 67/67/67 65/65/65 59/59/59
f 66/66/66 67/67/67 64/64/64
f 68/68/68 66/66/66 62/62/62
f 63/63/63 68/68/68 62/62/62
f 69/69/69 67/67/67 66/66/66
f 68/68/68 69/69/69 66/66/66
f 70/70/70 65/65/65 67/67/67
f 69/69/69 70/70/70 67/67/67
f 71/71/71 56/56/56 65/65/65
f 70/70/70 71/71/71 65/65/65
f 71/71/71 72/72/72 56/56/56
f 72/72/72 48/48/48 56/56/56
f 72/72/72 39/39/39 48/48/48
f 73/73/73 39/39/39 72/72/72
f 39/39/39 73/73/73 4/4/4
f 74/74/74 72/72/72 71/71/71
f 74/74/74 73/73/73 72/72/72
f 75/75/75 71/71/71 70/70/70
f 75/75/75 74/74/74 71/71/71
f 76/76/76 70/70/70 69/69/69
f 76/76/76 75/75/75 70/70/70
f 77/77/77 69/69/69 68/68/68
f 77/77/77 76/76/76 69/69/69
f 78/78/78 73/73/73 74/74/74
f 73/73/73 78/78/78 4/4/4
f 79/79/79 74/74/74 75/75/75
f 79/79/79 78/78/78 74/74/74
f 80/80/80 75/75/75 76/76/76
f 80/80/80 79/79/79 75/75/75
f 81/81/81 78/78/78 79/79/79
f 78/78/78 81/81/81 4/4/4
f 82/82/82 81/81/81 79/79/79
f 82/82/82 79/79/79 80/80/80
f 83/83/83 80/80/80 76/76/76
f 83/83/83 76/76/76 77/77/77
f 84/84/84 77/77/77 68/68/68
f 84/84/84 68/68/68 63/63/63
f 81/81/81 85/85/85 4/4/4
f 85/85/85 81/81/81 82/82/82
f 86/86/86 82/82/82 80/80/80
f 86/86/86 80/80/80 83/83/83
f 87/87/87 83/83/83 77/77/77
f 87/87/87 77/77/77 84/84/84
f 88/88/88 84/84/84 63/63/63
f 88/88/88 63/63/63 25/25/25
f 89/89/89 85/85/85 82/82/82
f 89/89/89 82/82/82 86/86/86
f 85/85/85 90/90/90 4/4/4
f 90/90/90 85/85/85 89/89/89
f 91/91/91 86/86/86 83/83/83
f 91/91/91 83/83/83 87/87/87
f 92/92/92 84/84/84 88/88/88
f 92/92/92 87/87/87 84/84/84
f 90/90/90 93/93/93 4/4/4
f 93/93/93 94/94/94 4/4/4
f 95/95/95 89/89/89 86/86/86
f 95/95/95 86/86/86 91/91/91
f 96/96/96 90/90/90 89/89/89
f 93/93/93 90/90/90 96/96/96
f 96/96/96 89/89/89 95/95/95
f 94/94/94 93/93/93 97/97/97
f 97/97/97 93/93/93 96/96/96
f 98/98/98 94/94/94 97/97/97
f 99/99/99 91/91/91 87/87/87
f 99/99/99 87/87/87 92/92/92
f 100/100/100 92/92/92 88/88/88
f 100/100/100 88/88/88 25/25/25
f 101/101/101 95/95/95 91/91/91
f 101/101/101 91/91/91 99/99/99
f 102/102/102 96/96/96 95/95/95
f 97/97/97 96/96/96 102/102/102
f 102/102/102 95/95/95 101/101/101
f 98/98/98 97/97/97 103/103/103
f 103/103/103 97/97/97 102/102/102
f 104/104/104 98/98/98 103/103/103
f 105/105/105 92/92/92 100/100/100
f 105/105/105 99/99/99 92/92/92
f 106/106/106 101/101/101 99/99/99
f 106/106/106 99/99/99 105/105/105
f 107/107/107 102/102/102 101/101/101
f 103/103/103 102/102/102 107/107/107
f 107/107/107 101/101/101 106/106/106
f 104/104/104 103/103/103 108/108/108
f 108/108/108 103/103/103 107/107/107
f 109/109/109 104/104/104 108/108/108
f 110/110/110 105/105/105 100/100/100
f 110/110/110 100/100/100 25/25/25
f 111/111/111 106/106/106 105/105/105
f 111/111/111 105/105/105 110/110/110
f 112/112/112 107/107/107 106/106/106
f 108/108/108 107/107/107 112/112/112
f 112/112/112 106/106/106 111/111/111
f 109/109/109 108/108/108 113/113/113
f 113/113/113 108/108/108 112/112/112
f 114/114/114 109/109/109 113/113/113
f 115/115/115 111/111/111 110/110/110
f 115/115/115 110/110/110 25/25/25
f 116/116/116 112/112/112 111/111/111
f 113/113/113 112/112/112 116/116/116
f 116/116/116 111/111/111 115/115/115
f 114/114/114 113/113/113 117/117/117
f 117/117/117 113/113/113 116/116/116
f 118/118/118 114/114/114 117/117/117
f 119/119/119 116/116/116 115/115/115
f 119/119/119 115/115/115 25/25/25
f 117/117/117 116/116/116 119/119/119
f 118/118/118 117/117/117 120/120/120
f 120/120/120 117/117/117 119/119/119
f 120/120/120 119/119/119 25/25/25
f 121/121/121 118/118/118 120/120/120
f 121/121/121 120/120/120 25/25/25
