g SeparateMesh_Avatar_Female_Size03_Rina_Drusilla_Model_Rina_Drusilla_Eye_LOD2
v -0.03198059 -0.06643914 0.20200293
v -0.047740076 -0.061774734 0.19361708
v -0.043965187 -0.058228474 0.21456736
v -0.027996983 -0.06270518 0.22271079
v -0.035400286 -0.07062911 0.18105474
v -0.015667174 -0.07107816 0.21015605
v -0.019434717 -0.07497901 0.18920021
vt 0.21362327 0.25209412
vt 0.038831532 0.1744461
vt 0.07304459 0.3922323
vt 0.24838994 0.46810085
vt 0.18414965 0.033535592
vt 0.39179906 0.32795426
vt 0.35832423 0.10927486
vn -0.37653628 -0.89652425 0.23337647
vn -0.38759452 -0.89210796 0.23219378
vn -0.37625268 -0.89803505 0.22796273
vn -0.37159297 -0.8985506 0.23350666
vn -0.37862778 -0.89373744 0.24057113
vn -0.37227693 -0.89818454 0.23382568
vn -0.3694574 -0.89844996 0.23725304
g SeparateMesh_Avatar_Female_Size03_Rina_Drusilla_Model_Rina_Drusilla_Eye_LOD2_0
f 3/3/3 2/2/2 1/1/1
f 3/3/3 1/1/1 4/4/4
f 2/2/2 5/5/5 1/1/1
f 6/6/6 4/4/4 1/1/1
f 7/7/7 1/1/1 5/5/5
f 6/6/6 1/1/1 7/7/7
