g Interface_Prop_Cafe_06_04
v 0.0403883 0.06581103 0.016728796
v 0.041367877 0.065014176 0.008229031
v 0.04287561 0.06581104 0.00852815
v 0.043715633 0.06581104 9.360261E-08
v 0.038967106 0.06501417 0.016141271
v -2.3035982E-09 0.065014176 9.31498E-08
v 0.036347833 0.06581103 0.024286896
v 0.03506997 0.06501417 0.023432858
v 0.030911773 0.06581103 0.030911874
v 0.02982419 0.06501417 0.029824283
v 0.0242868 0.06581103 0.036347933
v 0.023432761 0.06501417 0.03507006
v 0.016729722 0.06581103 0.0403884
v 0.016141176 0.06501417 0.0389672
v 0.008528055 0.06581103 0.042875707
v 0.008228937 0.06501417 0.04136797
v -2.3035982E-09 0.06581103 0.04371573
v 0.0421777 0.065014176 9.311202E-08
v -2.2947475E-09 0.06501417 0.04217779
v 0.041367877 0.065014176 -0.008228847
v -0.008528059 0.06581103 0.042875707
v 0.04287561 0.06581104 -0.008527964
v -0.008228942 0.06501417 0.04136797
v -0.016729726 0.06581103 0.0403884
v 0.038967106 0.06501419 -0.016141083
v 0.0403883 0.065811045 -0.01672963
v -0.01614118 0.06501417 0.0389672
v -0.024286803 0.06581103 0.036347933
v 0.03506997 0.06501419 -0.023432674
v 0.036347833 0.065811045 -0.024286704
v -0.023432767 0.06501417 0.03507006
v -0.030911779 0.06581103 0.030911874
v 0.02982419 0.06501419 -0.029824099
v -0.029824194 0.06501417 0.029824283
v 0.023432761 0.06501419 -0.03506988
v 0.030911773 0.065811045 -0.030911678
v -0.03634784 0.06581103 0.024286896
v 0.0242868 0.065811045 -0.03634774
v -0.035069972 0.06501417 0.023432858
v -0.04038831 0.06581103 0.01672982
v 0.016141176 0.06501419 -0.03896701
v 0.016729722 0.065811045 -0.040388208
v -0.03896711 0.06501417 0.016141271
v -0.04287561 0.06581104 0.00852815
v 0.008228937 0.06501419 -0.041367773
v 0.008528055 0.065811045 -0.042875513
v -0.041367877 0.065014176 0.008229031
v -0.043715633 0.06581104 9.360261E-08
v -2.2947475E-09 0.06501419 -0.042177606
v -0.0421777 0.065014176 9.311202E-08
v -0.008228942 0.06501419 -0.041367773
v -2.3035982E-09 0.065811045 -0.043715533
v -0.04287561 0.06581104 -0.008527964
v -0.008528059 0.065811045 -0.042875513
v -0.041367877 0.065014176 -0.008228847
v -0.04038831 0.065811045 -0.01672963
v -0.01614118 0.06501419 -0.03896701
v -0.016729726 0.065811045 -0.040388208
v -0.03896711 0.06501419 -0.016141083
v -0.03634784 0.065811045 -0.024286704
v -0.023432767 0.06501419 -0.03506988
v -0.024286803 0.065811045 -0.03634774
v -0.035069972 0.06501419 -0.023432674
v -0.030911779 0.065811045 -0.030911678
v -0.029824194 0.06501419 -0.029824099
vt 0.98080814 0.26922178
vt 0.9843448 0.3454543
vt 0.9918489 0.34250665
vt 0.9955189 0.4187114
vt 0.97373116 0.27504924
vt 0.8009175 0.41774654
vt 0.96282935 0.20170672
vt 0.9564596 0.21019836
vt 0.93863267 0.14257205
vt 0.93320704 0.15340127
vt 0.9091609 0.09408575
vt 0.9048945 0.1068268
vt 0.8755693 0.05805806
vt 0.8726237 0.07223725
vt 0.83913887 0.035844337
vt 0.83763343 0.050899737
vt 0.8012721 0.028249834
vt 0.9878683 0.41867507
vt 0.80125743 0.043613516
vt 0.9841744 0.49184507
vt 0.7633991 0.03554581
vt 0.991674 0.49486488
vt 0.76487577 0.05061625
vt 0.72694725 0.057454787
vt 0.9734041 0.56210625
vt 0.9804719 0.5680112
vt 0.7298662 0.071664914
vt 0.6933136 0.093173705
vt 0.95600176 0.6267368
vt 0.962357 0.63529205
vt 0.6975567 0.1059581
vt 0.66377217 0.14135517
vt 0.9326492 0.683263
vt 0.6691788 0.15224051
vt 0.9042687 0.7295461
vt 0.9380554 0.6941479
vt 0.6394736 0.20020851
vt 0.9085113 0.74233043
vt 0.6458292 0.20876367
vt 0.62136084 0.26748446
vt 0.8719566 0.76383674
vt 0.87487495 0.77804714
vt 0.62842894 0.2733895
vt 0.6101598 0.3406251
vt 0.8369455 0.78488106
vt 0.8384217 0.79995185
vt 0.6176599 0.34364527
vt 0.6063149 0.41677323
vt 0.80056334 0.7918793
vt 0.6139658 0.41680983
vt 0.7641876 0.7845881
vt 0.800548 0.8072428
vt 0.609984 0.4929726
vt 0.76268166 0.7996432
vt 0.6174883 0.4900253
vt 0.62102324 0.56626415
vt 0.7291988 0.76324564
vt 0.7262526 0.7774247
vt 0.6281004 0.5604279
vt 0.6389997 0.63376945
vt 0.69693 0.7286529
vt 0.6926631 0.7413937
vt 0.6453696 0.62527835
vt 0.66319364 0.69290465
vt 0.6686197 0.68207604
vn -0.425146 0.8878307 -0.17608957
vn -0.24587174 0.9680675 -0.048911273
vn -0.45130694 0.8878438 -0.08975318
vn -0.4601396 0.8878466 0
vn -0.2315988 0.9680683 -0.095946155
vn -0 1 3.4491794E-07
vn -0.382614 0.88783294 -0.25565422
vn -0.20844784 0.96806586 -0.13927652
vn -0.32536978 0.88784516 -0.3253698
vn -0.17725158 0.9680722 -0.17725146
vn -0.25564513 0.8878481 -0.38258502
vn -0.13927151 0.9680702 -0.20843096
vn -0.17608786 0.8878559 -0.42509422
vn -0.09592931 0.9680756 -0.23157576
vn -0.08974461 0.88785356 -0.4512892
vn -0.048906527 0.9680704 -0.24586129
vn -0 0.8878474 -0.4601378
vn -0.25066504 0.9680739 0
vn -0 0.9680742 -0.25066394
vn -0.24586195 0.9680702 0.04890744
vn 0.08974461 0.88785356 -0.4512892
vn -0.45129028 0.88785297 0.089745566
vn 0.048906527 0.9680704 -0.24586129
vn 0.17608786 0.8878559 -0.42509422
vn -0.2315759 0.96807545 0.09593018
vn -0.42509422 0.8878557 0.17608865
vn 0.09592931 0.9680756 -0.23157576
vn 0.25564513 0.8878481 -0.38258502
vn -0.20843117 0.9680702 0.13927169
vn -0.38258508 0.8878481 0.2556452
vn 0.13927151 0.9680702 -0.20843096
vn 0.32536966 0.88784516 -0.32536975
vn -0.17725158 0.9680722 0.17725164
vn 0.17725155 0.9680722 -0.17725144
vn -0.13927151 0.9680702 0.20843117
vn -0.3253696 0.8878453 0.32536948
vn 0.38258573 0.8878477 -0.2556457
vn -0.2556451 0.8878482 0.3825849
vn 0.2084314 0.9680701 -0.13927169
vn 0.42509565 0.8878551 -0.17608787
vn -0.09592916 0.9680756 0.2315756
vn -0.1760875 0.88785625 0.42509347
vn 0.23157677 0.96807534 -0.095929
vn 0.45129108 0.88785267 -0.08974446
vn -0.048906434 0.9680705 0.24586077
vn -0.08974441 0.8878542 0.45128816
vn 0.24586254 0.9680701 -0.048906155
vn 0.46013966 0.8878466 0
vn -0 0.9680742 0.2506637
vn 0.25066507 0.9680739 0
vn 0.048906438 0.9680705 0.24586077
vn -0 0.8878481 0.46013677
vn 0.4512903 0.88785297 0.08974545
vn 0.08974441 0.8878542 0.45128804
vn 0.24586195 0.9680702 0.048907366
vn 0.4250942 0.8878557 0.17608842
vn 0.09592916 0.9680756 0.2315756
vn 0.1760875 0.88785625 0.4250935
vn 0.2315759 0.96807545 0.09593008
vn 0.38258487 0.8878482 0.255645
vn 0.13927151 0.9680702 0.20843117
vn 0.2556451 0.8878482 0.3825849
vn 0.20843107 0.9680702 0.1392716
vn 0.32536954 0.88784534 0.3253695
vn 0.1772515 0.9680722 0.17725158
g Interface_Prop_Cafe_06_04_0
f 3/3/3 2/2/2 1/1/1
f 2/2/2 3/3/3 4/4/4
f 2/2/2 5/5/5 1/1/1
f 2/2/2 6/6/6 5/5/5
f 1/1/1 5/5/5 7/7/7
f 5/5/5 8/8/8 7/7/7
f 5/5/5 6/6/6 8/8/8
f 7/7/7 8/8/8 9/9/9
f 8/8/8 10/10/10 9/9/9
f 8/8/8 6/6/6 10/10/10
f 9/9/9 10/10/10 11/11/11
f 10/10/10 12/12/12 11/11/11
f 10/10/10 6/6/6 12/12/12
f 11/11/11 12/12/12 13/13/13
f 12/12/12 14/14/14 13/13/13
f 12/12/12 6/6/6 14/14/14
f 13/13/13 14/14/14 15/15/15
f 14/14/14 16/16/16 15/15/15
f 14/14/14 6/6/6 16/16/16
f 15/15/15 16/16/16 17/17/17
f 18/18/18 6/6/6 2/2/2
f 16/16/16 6/6/6 19/19/19
f 16/16/16 19/19/19 17/17/17
f 20/20/20 6/6/6 18/18/18
f 18/18/18 2/2/2 4/4/4
f 20/20/20 18/18/18 4/4/4
f 17/17/17 19/19/19 21/21/21
f 22/22/22 20/20/20 4/4/4
f 19/19/19 23/23/23 21/21/21
f 19/19/19 6/6/6 23/23/23
f 21/21/21 23/23/23 24/24/24
f 25/25/25 20/20/20 22/22/22
f 25/25/25 6/6/6 20/20/20
f 26/26/26 25/25/25 22/22/22
f 23/23/23 27/27/27 24/24/24
f 23/23/23 6/6/6 27/27/27
f 24/24/24 27/27/27 28/28/28
f 29/29/29 25/25/25 26/26/26
f 29/29/29 6/6/6 25/25/25
f 30/30/30 29/29/29 26/26/26
f 27/27/27 31/31/31 28/28/28
f 27/27/27 6/6/6 31/31/31
f 28/28/28 31/31/31 32/32/32
f 33/33/33 29/29/29 30/30/30
f 33/33/33 6/6/6 29/29/29
f 31/31/31 6/6/6 34/34/34
f 31/31/31 34/34/34 32/32/32
f 35/35/35 6/6/6 33/33/33
f 36/36/36 33/33/33 30/30/30
f 35/35/35 33/33/33 36/36/36
f 32/32/32 34/34/34 37/37/37
f 38/38/38 35/35/35 36/36/36
f 34/34/34 39/39/39 37/37/37
f 34/34/34 6/6/6 39/39/39
f 37/37/37 39/39/39 40/40/40
f 41/41/41 35/35/35 38/38/38
f 41/41/41 6/6/6 35/35/35
f 42/42/42 41/41/41 38/38/38
f 39/39/39 43/43/43 40/40/40
f 39/39/39 6/6/6 43/43/43
f 40/40/40 43/43/43 44/44/44
f 45/45/45 41/41/41 42/42/42
f 45/45/45 6/6/6 41/41/41
f 46/46/46 45/45/45 42/42/42
f 43/43/43 47/47/47 44/44/44
f 43/43/43 6/6/6 47/47/47
f 44/44/44 47/47/47 48/48/48
f 49/49/49 45/45/45 46/46/46
f 49/49/49 6/6/6 45/45/45
f 47/47/47 6/6/6 50/50/50
f 47/47/47 50/50/50 48/48/48
f 51/51/51 6/6/6 49/49/49
f 52/52/52 49/49/49 46/46/46
f 51/51/51 49/49/49 52/52/52
f 48/48/48 50/50/50 53/53/53
f 54/54/54 51/51/51 52/52/52
f 50/50/50 55/55/55 53/53/53
f 50/50/50 6/6/6 55/55/55
f 53/53/53 55/55/55 56/56/56
f 57/57/57 51/51/51 54/54/54
f 57/57/57 6/6/6 51/51/51
f 58/58/58 57/57/57 54/54/54
f 55/55/55 59/59/59 56/56/56
f 55/55/55 6/6/6 59/59/59
f 56/56/56 59/59/59 60/60/60
f 61/61/61 57/57/57 58/58/58
f 61/61/61 6/6/6 57/57/57
f 62/62/62 61/61/61 58/58/58
f 59/59/59 63/63/63 60/60/60
f 59/59/59 6/6/6 63/63/63
f 60/60/60 63/63/63 64/64/64
f 65/65/65 61/61/61 62/62/62
f 65/65/65 6/6/6 61/61/61
f 64/64/64 65/65/65 62/62/62
f 63/63/63 65/65/65 64/64/64
f 63/63/63 6/6/6 65/65/65
