g NPC_Female_Size01_Ear_001_LOD1
v 0.059359636 0.0075134444 1.3507681
v 0.062199276 0.008518387 1.3614227
v 0.061648697 0.01036999 1.3491646
v 0.06527385 0.014056701 1.349406
v 0.06366672 0.015720857 1.3494965
v 0.07292115 0.022821197 1.355287
v 0.07079602 0.025450286 1.3548872
v 0.08029748 0.03001862 1.3627561
v 0.077436715 0.03281098 1.3631015
v 0.06493831 0.008595579 1.3691204
v 0.08206713 0.035409365 1.3738859
v 0.08532822 0.03241208 1.3729607
v 0.06751642 0.008790442 1.3763901
v 0.08233021 0.032957457 1.383291
v 0.085909754 0.029951172 1.3832179
v 0.081255145 0.030186478 1.3884813
v 0.069689035 0.008865361 1.3836901
v 0.08485274 0.027348509 1.3884513
v 0.07838635 0.024530496 1.3918847
v 0.081419535 0.022150867 1.3919232
v 0.07695467 0.01614135 1.3919619
v 0.07211325 0.012960332 1.3901597
v 0.07482502 0.017600754 1.3921591
v 0.07482502 0.017600754 1.3921591
v 0.07211325 0.012960332 1.3901597
v 0.07318236 0.018023867 1.3915265
v 0.07248317 0.02643245 1.3884785
v 0.07838635 0.024530496 1.3918847
v 0.081255145 0.030186478 1.3884813
v 0.07002941 0.029787816 1.3815117
v 0.08233021 0.032957457 1.383291
v 0.08206713 0.035409365 1.3738859
v 0.06614126 0.03067416 1.372016
v 0.077436715 0.03281098 1.3631015
v 0.07079602 0.025450286 1.3548872
v 0.061270997 0.02524823 1.3611075
v 0.06366672 0.015720857 1.3494965
v 0.059485514 0.018081056 1.3546214
v 0.061648697 0.01036999 1.3491646
v 0.059359636 0.0075134444 1.3507681
v -0.059359636 0.0075134444 1.3507681
v -0.061648697 0.01036999 1.3491646
v -0.062199276 0.008518387 1.3614227
v -0.06527385 0.014056701 1.349406
v -0.06366672 0.015720857 1.3494965
v -0.07292115 0.022821197 1.355287
v -0.07079602 0.025450286 1.3548872
v -0.08029748 0.03001862 1.3627561
v -0.077436715 0.03281098 1.3631015
v -0.06493831 0.008595579 1.3691204
v -0.08206713 0.035409365 1.3738859
v -0.08532822 0.03241208 1.3729607
v -0.06751642 0.008790442 1.3763901
v -0.08233021 0.032957457 1.383291
v -0.085909754 0.029951172 1.3832179
v -0.081255145 0.030186478 1.3884813
v -0.069689035 0.008865361 1.3836901
v -0.08485274 0.027348509 1.3884513
v -0.07838635 0.024530496 1.3918847
v -0.081419535 0.022150867 1.3919232
v -0.07695467 0.01614135 1.3919619
v -0.07211325 0.012960332 1.3901597
v -0.07482502 0.017600754 1.3921591
v -0.07482502 0.017600754 1.3921591
v -0.07318236 0.018023867 1.3915265
v -0.07211325 0.012960332 1.3901597
v -0.07248317 0.02643245 1.3884785
v -0.07838635 0.024530496 1.3918847
v -0.081255145 0.030186478 1.3884813
v -0.07002941 0.029787816 1.3815117
v -0.08233021 0.032957457 1.383291
v -0.08206713 0.035409365 1.3738859
v -0.06614126 0.03067416 1.372016
v -0.077436715 0.03281098 1.3631015
v -0.07079602 0.025450286 1.3548872
v -0.061270997 0.02524823 1.3611075
v -0.06366672 0.015720857 1.3494965
v -0.059485514 0.018081056 1.3546214
v -0.061648697 0.01036999 1.3491646
v -0.059359636 0.0075134444 1.3507681
vt 0.9036743 0.8936369
vt 0.9027282 0.907505
vt 0.91428775 0.89007574
vt 0.9221199 0.891812
vt 0.924671 0.88876146
vt 0.93746233 0.909404
vt 0.9427387 0.90589124
vt 0.9495699 0.9284496
vt 0.9564257 0.9260337
vt 0.8999723 0.9233671
vt 0.95965636 0.94949585
vt 0.95183957 0.9480743
vt 0.89798313 0.9391001
vt 0.95183617 0.9678108
vt 0.94440585 0.9638528
vt 0.9424377 0.9770492
vt 0.8963036 0.9550106
vt 0.93772 0.9707082
vt 0.9274875 0.98089224
vt 0.9264619 0.9743199
vt 0.9137664 0.97213405
vt 0.902799 0.9685661
vt 0.91219443 0.97639626
vt 0.95008636 0.99114287
vt 0.93947643 0.99031806
vt 0.9478674 0.986173
vt 0.96159095 0.9793936
vt 0.96330035 0.9886311
vt 0.97460407 0.9834893
vt 0.96861607 0.9592643
vt 0.9817423 0.97603583
vt 0.9899731 0.9614197
vt 0.969592 0.9466772
vt 0.9907493 0.9407102
vt 0.9847918 0.91935456
vt 0.9683103 0.927047
vt 0.9752236 0.8986896
vt 0.9656462 0.9060819
vt 0.9701686 0.8909267
vt 0.95997983 0.88863075
vt 0.9036743 0.8936369
vt 0.91428775 0.89007574
vt 0.9027282 0.907505
vt 0.9221199 0.891812
vt 0.924671 0.88876146
vt 0.93746233 0.909404
vt 0.9427387 0.90589124
vt 0.9495699 0.9284496
vt 0.9564257 0.9260337
vt 0.8999723 0.9233671
vt 0.95965636 0.94949585
vt 0.95183957 0.9480743
vt 0.89798313 0.9391001
vt 0.95183617 0.9678108
vt 0.94440585 0.9638528
vt 0.9424377 0.9770492
vt 0.8963036 0.9550106
vt 0.93772 0.9707082
vt 0.9274875 0.98089224
vt 0.9264619 0.9743199
vt 0.9137664 0.97213405
vt 0.902799 0.9685661
vt 0.91219443 0.97639626
vt 0.95008636 0.99114287
vt 0.9478674 0.986173
vt 0.93947643 0.99031806
vt 0.96159095 0.9793936
vt 0.96330035 0.9886311
vt 0.97460407 0.9834893
vt 0.96861607 0.9592643
vt 0.9817423 0.97603583
vt 0.9899731 0.9614197
vt 0.969592 0.9466772
vt 0.9907493 0.9407102
vt 0.9847918 0.91935456
vt 0.9683103 0.927047
vt 0.9752236 0.8986896
vt 0.9656462 0.9060819
vt 0.9701686 0.8909267
vt 0.95997983 0.88863075
vn 0.9015472 0.10279108 -0.4202935
vn 0.95862377 -0.07304757 -0.27514467
vn 0.026981171 -0.41902396 -0.90757424
vn 0.59950155 -0.30121237 -0.74153143
vn -0.20542213 0.36720353 -0.9071732
vn 0.7321572 -0.15994628 -0.6620899
vn 0.018662788 0.6440692 -0.7647395
vn 0.8183216 0.04245929 -0.57319015
vn 0.12921596 0.8712746 -0.47348052
vn 0.94542193 -0.04794087 -0.32230255
vn 0.24294806 0.9698326 -0.020021586
vn 0.95420283 0.17201406 -0.24476156
vn 0.9523837 -0.05457843 -0.29997754
vn 0.2174298 0.9102736 0.3523157
vn 0.98576987 0.11503229 0.12257824
vn 0.11254368 0.7320139 0.6719299
vn 0.95532894 -0.067025766 -0.28784397
vn 0.88318896 0.016169867 0.46873853
vn -0.07301005 0.33663255 0.93880147
vn 0.68672585 -0.27163845 0.6742552
vn 0.5162037 -0.5648604 0.6437907
vn 0.28146422 -0.7757934 0.5647323
vn -0.20653902 -0.02823766 0.97803074
vn -0.20653902 -0.02823766 0.97803074
vn 0.28146422 -0.7757934 0.5647323
vn -0.33505192 0.10002042 0.9368757
vn -0.35194483 0.61398846 0.7065076
vn -0.07301005 0.33663255 0.93880147
vn 0.11254368 0.7320139 0.6719299
vn -0.3041203 0.91896987 0.25100806
vn 0.2174298 0.9102736 0.3523157
vn 0.24294806 0.9698326 -0.020021586
vn -0.3261154 0.9356348 -0.13504201
vn 0.12921596 0.8712746 -0.47348052
vn 0.018662788 0.6440692 -0.7647395
vn -0.38925093 0.7825224 -0.4859448
vn -0.20542213 0.36720353 -0.9071732
vn -0.51279235 0.55610096 -0.6540609
vn 0.026981171 -0.41902396 -0.90757424
vn 0.9015472 0.10279108 -0.4202935
vn -0.9015472 0.10279106 -0.42029357
vn -0.026981171 -0.41902396 -0.90757424
vn -0.95862365 -0.07304755 -0.27514467
vn -0.59950155 -0.30121237 -0.74153143
vn 0.2054221 0.36720353 -0.9071732
vn -0.7321572 -0.15994625 -0.6620899
vn -0.018662788 0.6440692 -0.7647395
vn -0.8183216 0.04245924 -0.57319015
vn -0.12921597 0.8712746 -0.47348058
vn -0.94542193 -0.04794087 -0.32230255
vn -0.24294811 0.9698326 -0.020021578
vn -0.95420283 0.1720141 -0.24476154
vn -0.9523837 -0.05457843 -0.29997754
vn -0.21742983 0.9102736 0.3523157
vn -0.98576987 0.115032345 0.122578256
vn -0.11254368 0.7320139 0.6719299
vn -0.95532894 -0.067025766 -0.28784397
vn -0.88318896 0.016169867 0.4687386
vn 0.07301005 0.33663255 0.93880147
vn -0.68672585 -0.27163845 0.6742552
vn -0.5162037 -0.5648604 0.6437907
vn -0.28146422 -0.7757934 0.5647323
vn 0.20653902 -0.02823766 0.97803074
vn 0.20653902 -0.02823766 0.97803074
vn 0.33505192 0.10002042 0.9368757
vn -0.28146422 -0.7757934 0.5647323
vn 0.35194483 0.61398846 0.7065076
vn 0.07301005 0.33663255 0.93880147
vn -0.11254368 0.7320139 0.6719299
vn 0.30412033 0.91896987 0.25100806
vn -0.21742983 0.9102736 0.3523157
vn -0.24294811 0.9698326 -0.020021578
vn 0.3261154 0.9356348 -0.13504201
vn -0.12921597 0.8712746 -0.47348058
vn -0.018662788 0.6440692 -0.7647395
vn 0.38925093 0.7825224 -0.4859448
vn 0.2054221 0.36720353 -0.9071732
vn 0.51279235 0.55610096 -0.65406096
vn -0.026981171 -0.41902396 -0.90757424
vn -0.9015472 0.10279106 -0.42029357
g NPC_Female_Size01_Ear_001_LOD1_0
f 3/3/3 2/2/2 1/1/1
f 4/4/4 2/2/2 3/3/3
f 3/3/3 5/5/5 4/4/4
f 6/6/6 4/4/4 5/5/5
f 2/2/2 4/4/4 6/6/6
f 7/7/7 6/6/6 5/5/5
f 2/2/2 6/6/6 8/8/8
f 8/8/8 6/6/6 7/7/7
f 9/9/9 8/8/8 7/7/7
f 10/10/10 2/2/2 8/8/8
f 9/9/9 11/11/11 8/8/8
f 8/8/8 12/12/12 10/10/10
f 11/11/11 12/12/12 8/8/8
f 12/12/12 13/13/13 10/10/10
f 11/11/11 14/14/14 12/12/12
f 12/12/12 15/15/15 13/13/13
f 14/14/14 15/15/15 12/12/12
f 15/15/15 14/14/14 16/16/16
f 15/15/15 17/17/17 13/13/13
f 18/18/18 15/15/15 16/16/16
f 17/17/17 15/15/15 18/18/18
f 18/18/18 16/16/16 19/19/19
f 20/20/20 17/17/17 18/18/18
f 20/20/20 18/18/18 19/19/19
f 21/21/21 17/17/17 20/20/20
f 21/21/21 20/20/20 19/19/19
f 22/22/22 17/17/17 21/21/21
f 23/23/23 21/21/21 19/19/19
f 23/23/23 22/22/22 21/21/21
f 26/26/26 25/25/25 24/24/24
f 27/27/27 26/26/26 24/24/24
f 24/24/24 28/28/28 27/27/27
f 28/28/28 29/29/29 27/27/27
f 27/27/27 29/29/29 30/30/30
f 29/29/29 31/31/31 30/30/30
f 31/31/31 32/32/32 30/30/30
f 30/30/30 32/32/32 33/33/33
f 32/32/32 34/34/34 33/33/33
f 34/34/34 35/35/35 33/33/33
f 35/35/35 36/36/36 33/33/33
f 36/36/36 35/35/35 37/37/37
f 38/38/38 36/36/36 37/37/37
f 39/39/39 38/38/38 37/37/37
f 40/40/40 38/38/38 39/39/39
f 43/43/43 42/42/42 41/41/41
f 43/43/43 44/44/44 42/42/42
f 45/45/45 42/42/42 44/44/44
f 44/44/44 46/46/46 45/45/45
f 44/44/44 43/43/43 46/46/46
f 46/46/46 47/47/47 45/45/45
f 46/46/46 43/43/43 48/48/48
f 46/46/46 48/48/48 47/47/47
f 48/48/48 49/49/49 47/47/47
f 43/43/43 50/50/50 48/48/48
f 51/51/51 49/49/49 48/48/48
f 52/52/52 48/48/48 50/50/50
f 52/52/52 51/51/51 48/48/48
f 53/53/53 52/52/52 50/50/50
f 54/54/54 51/51/51 52/52/52
f 55/55/55 52/52/52 53/53/53
f 55/55/55 54/54/54 52/52/52
f 56/56/56 54/54/54 55/55/55
f 57/57/57 55/55/55 53/53/53
f 58/58/58 56/56/56 55/55/55
f 58/58/58 55/55/55 57/57/57
f 59/59/59 56/56/56 58/58/58
f 60/60/60 58/58/58 57/57/57
f 60/60/60 59/59/59 58/58/58
f 57/57/57 61/61/61 60/60/60
f 60/60/60 61/61/61 59/59/59
f 57/57/57 62/62/62 61/61/61
f 61/61/61 63/63/63 59/59/59
f 62/62/62 63/63/63 61/61/61
f 66/66/66 65/65/65 64/64/64
f 65/65/65 67/67/67 64/64/64
f 68/68/68 64/64/64 67/67/67
f 69/69/69 68/68/68 67/67/67
f 69/69/69 67/67/67 70/70/70
f 71/71/71 69/69/69 70/70/70
f 72/72/72 71/71/71 70/70/70
f 72/72/72 70/70/70 73/73/73
f 74/74/74 72/72/72 73/73/73
f 75/75/75 74/74/74 73/73/73
f 76/76/76 75/75/75 73/73/73
f 75/75/75 76/76/76 77/77/77
f 76/76/76 78/78/78 77/77/77
f 78/78/78 79/79/79 77/77/77
f 78/78/78 80/80/80 79/79/79
