g NPC_Female_Size01_Ear_001_LOD3
v 0.0791871 0.019146109 1.3919426
v 0.06931307 0.008604686 1.3827821
v 0.07211325 0.012960332 1.3901597
v 0.08485274 0.027348509 1.3884513
v 0.085909754 0.029951172 1.3832179
v 0.08532822 0.03241208 1.3729607
v 0.08029748 0.03001862 1.3627561
v 0.062199276 0.008518387 1.3614227
v 0.07292115 0.022821197 1.355287
v 0.063461274 0.012213346 1.3492852
v 0.059359636 0.0075134444 1.3507681
v -0.0791871 0.019146109 1.3919426
v -0.07211325 0.012960332 1.3901597
v -0.06931308 0.008604673 1.3827822
v -0.08485274 0.027348509 1.3884513
v -0.085909754 0.029951172 1.3832179
v -0.08532822 0.03241208 1.3729607
v -0.08029748 0.03001862 1.3627561
v -0.062199276 0.008518387 1.3614227
v -0.07292115 0.022821197 1.355287
v -0.063461274 0.012213346 1.3492852
v -0.059359636 0.0075134444 1.3507681
vt 0.92011416 0.97322696
vt 0.8963036 0.9550106
vt 0.902799 0.9685661
vt 0.93772 0.9707082
vt 0.94440585 0.9638528
vt 0.95183957 0.9480743
vt 0.9495699 0.9284496
vt 0.9027282 0.907505
vt 0.93746233 0.909404
vt 0.91820383 0.8909439
vt 0.9036743 0.8936369
vt 0.92011416 0.97322696
vt 0.902799 0.9685661
vt 0.8963036 0.9550106
vt 0.93772 0.9707082
vt 0.94440585 0.9638528
vt 0.95183957 0.9480743
vt 0.9495699 0.9284496
vt 0.9027282 0.907505
vt 0.93746233 0.909404
vt 0.91820383 0.8909439
vt 0.9036743 0.8936369
vn 0.7663662 -0.6356325 -0.09302782
vn 0.95109946 -0.08001889 -0.29834
vn 0.61084986 -0.7612605 0.21758893
vn 0.78283423 -0.6048801 -0.14591348
vn 0.77961165 -0.60232854 -0.17148189
vn 0.76359004 -0.6074433 -0.2189583
vn 0.7554904 -0.6171242 -0.21998182
vn 0.9588407 -0.09001511 -0.26929855
vn 0.76426023 -0.6306892 -0.13467558
vn 0.7533216 -0.64687043 -0.118597366
vn 0.88140804 0.13544671 -0.45251957
vn -0.76636636 -0.6356323 -0.093028255
vn -0.6108479 -0.7612601 0.21759589
vn -0.95109946 -0.08001869 -0.29834
vn -0.782834 -0.6048803 -0.14591391
vn -0.7796113 -0.6023289 -0.17148222
vn -0.7635899 -0.60744375 -0.21895799
vn -0.7554904 -0.6171245 -0.2199812
vn -0.9588407 -0.0900151 -0.26929858
vn -0.76426023 -0.6306892 -0.1346757
vn -0.7533216 -0.64687043 -0.118597366
vn -0.88140804 0.13544667 -0.45251954
g NPC_Female_Size01_Ear_001_LOD3_0
f 3/3/3 2/2/2 1/1/1
f 1/1/1 2/2/2 4/4/4
f 2/2/2 5/5/5 4/4/4
f 5/5/5 2/2/2 6/6/6
f 6/6/6 2/2/2 7/7/7
f 2/2/2 8/8/8 7/7/7
f 9/9/9 7/7/7 8/8/8
f 8/8/8 10/10/10 9/9/9
f 10/10/10 8/8/8 11/11/11
f 14/14/14 13/13/13 12/12/12
f 12/12/12 15/15/15 14/14/14
f 15/15/15 16/16/16 14/14/14
f 16/16/16 17/17/17 14/14/14
f 17/17/17 18/18/18 14/14/14
f 18/18/18 19/19/19 14/14/14
f 20/20/20 19/19/19 18/18/18
f 21/21/21 19/19/19 20/20/20
f 19/19/19 21/21/21 22/22/22
