g SeparateMesh_Avatar_Male_Size01_Seth_Model_Seth_Weapon_01_LOD2
v 0.020488378 0.84969693 0.013488388
v 0.020488378 0.8148152 0.011968002
v 0.012278316 0.828258 0.03155319
v 0.012278316 0.84903514 0.03432579
v 0.012278316 0.84903514 0.03432579
v 0.00542304 0.8609887 0.03465477
v 0.01108057 0.8649242 0.01920494
v 0.020488378 0.84969693 0.013488388
v -0.012278316 0.828258 0.03155319
v -0.020488378 0.8148152 0.011968002
v -0.020488378 0.84969693 0.013488388
v -0.012278316 0.84903514 0.03432579
v -0.012278316 0.84903514 0.03432579
v -0.020488378 0.84969693 0.013488388
v -0.01108057 0.8649242 0.01920494
v -0.00542304 0.8609887 0.03465477
v 0.01108057 0.8649242 0.01920494
v 0.00542304 0.8609887 0.03465477
v 0.004413623 0.90468204 0.03651825
v 0.004413623 0.9279176 0.014643555
v -0.004413623 0.90468204 0.03651825
v -0.00542304 0.8609887 0.03465477
v -0.01108057 0.8649242 0.01920494
v -0.004413623 0.9279176 0.014643555
v 0.012278316 0.828258 0.03155319
v -0.012278316 0.828258 0.03155319
v -0.012278316 0.84903514 0.03432579
v 0.012278316 0.84903514 0.03432579
v 0.00542304 0.8609887 0.03465477
v -0.00542304 0.8609887 0.03465477
v 0.004413623 0.90468204 0.03651825
v -0.004413623 0.90468204 0.03651825
v -4.544448E-09 0.8206143 0.012178536
v -0.020488378 0.8148152 0.011968002
v -0.012278316 0.828258 0.03155319
v 0.012278316 0.828258 0.03155319
v 0.020488378 0.8148152 0.011968002
v -0.009486112 0.8477555 -0.005908203
v 0.009486112 0.8477555 -0.005908203
v 0.010250275 0.86212134 -0.02785366
v -0.010250275 0.86212134 -0.02785366
v 0.005333413 0.8836559 -0.06058372
v -0.005333413 0.8836559 -0.06058372
v 0.010250275 0.86212134 -0.02785366
v 0.009486112 0.8477555 -0.005908203
v 0.0074097607 0.9407412 -0.005908203
v 0.005333413 0.9529336 -0.022413863
v 0.005333413 1.1933728 -0.005908203
v 0.005333413 1.1635262 -0.032906875
v 0.005333413 1.1125052 -0.032906875
v 0.005333413 1.0862179 -0.020193709
v 0.005333413 0.9529336 -0.022413863
v 0.0074097607 0.9407412 -0.005908203
v 0.005333413 0.9205502 -0.06058372
v -0.005333413 0.9205502 -0.06058372
v -0.005333413 0.8836559 -0.06058372
v 0.005333413 0.8836559 -0.06058372
v 0.005333413 0.9529336 -0.022413863
v -0.005333413 0.9205502 -0.06058372
v 0.005333413 0.9205502 -0.06058372
v -0.005333413 0.9529336 -0.022413863
v 0.005333413 1.0862179 -0.020193709
v -0.005333413 1.0862179 -0.020193709
v 0.005333413 1.1125052 -0.032906875
v -0.005333413 1.1125052 -0.032906875
v 0.005333413 1.1635262 -0.032906875
v -0.005333413 1.1635262 -0.032906875
v 0.005333413 0.9205502 -0.06058372
v 0.005333413 0.8836559 -0.06058372
v 0.010250275 0.86212134 -0.02785366
v 0.005333413 0.9529336 -0.022413863
v -0.005333413 1.1933728 -0.005908203
v -0.005333413 1.1635262 -0.032906875
v 0.005333413 1.1635262 -0.032906875
v 0.005333413 1.1933728 -0.005908203
v -0.0074097607 0.9407412 -0.005908203
v -0.009486112 0.8477555 -0.005908203
v -0.010250275 0.86212134 -0.02785366
v -0.005333413 0.9529336 -0.022413863
v -0.005333413 1.1933728 -0.005908203
v -0.005333413 1.1125052 -0.032906875
v -0.005333413 1.1635262 -0.032906875
v -0.005333413 1.0862179 -0.020193709
v -0.005333413 0.9529336 -0.022413863
v -0.0074097607 0.9407412 -0.005908203
v -0.010250275 0.86212134 -0.02785366
v -0.005333413 0.8836559 -0.06058372
v -0.005333413 0.9205502 -0.06058372
v -0.005333413 0.9529336 -0.022413863
v 0.008637611 0.27684516 -0.009668074
v -0.011745776 0.7100577 -0.013196257
v -0.008455558 0.27684516 -0.010039366
v 0.011324233 0.7100577 -0.01237854
v 0.010998423 0.7100577 0.009357726
v 0.008645094 0.2768452 0.006918264
v -0.007940738 0.27684516 0.007050055
v -0.010734347 0.7100577 0.0098660765
v -0.011745776 0.7100577 -0.013196257
v -0.008455558 0.27684516 -0.010039366
v 0.011324233 0.7100577 -0.01237854
v -0.01627381 0.85953736 -0.01768642
v -0.011745776 0.7100577 -0.013196257
v 0.015156272 0.85953736 -0.016243989
v 0.010998423 0.7100577 0.009357726
v 0.014364005 0.85953736 0.012695162
v -0.010734347 0.7100577 0.0098660765
v -0.014567475 0.85953736 0.013730438
v -0.011745776 0.7100577 -0.013196257
v -0.01627381 0.85953736 -0.01768642
v 0.015156272 0.85953736 -0.016243989
v -0.011917316 0.93859226 -0.01336636
v -0.01627381 0.85953736 -0.01768642
v 0.011469412 0.9385924 -0.012524993
v 0.014364005 0.85953736 0.012695162
v 0.011125918 0.9385924 0.009484159
v -0.014567475 0.85953736 0.013730438
v -0.0108795725 0.9385924 0.010012475
v -0.01627381 0.85953736 -0.01768642
v -0.011917316 0.93859226 -0.01336636
v 0.011469412 0.9385924 -0.012524993
v -0.010181269 1.0995746 -0.01164483
v -0.011917316 0.93859226 -0.01336636
v 0.010000299 1.0995744 -0.0110429125
v 0.011125918 0.9385924 0.009484159
v 0.009835563 1.0995746 0.008204596
v -0.0108795725 0.9385924 0.010012475
v -0.009409885 1.0995744 0.008530968
v -0.011917316 0.93859226 -0.01336636
v -0.010181269 1.0995746 -0.01164483
v -0.010181269 1.0995746 -0.01164483
v 0.012631157 1.1281936 -0.013696928
v -0.013290096 1.1281936 -0.014727659
v 0.010000299 1.0995744 -0.0110429125
v 0.0121463 1.1281936 0.010496005
v 0.009835563 1.0995746 0.008204596
v -0.009409885 1.0995744 0.008530968
v -0.01204171 1.1281935 0.011184022
v -0.010181269 1.0995746 -0.01164483
v -0.013290096 1.1281936 -0.014727659
v 0.012631157 1.1281936 -0.013696928
v -0.008157197 1.2286545 -0.009637689
v -0.013290096 1.1281936 -0.014727659
v 0.00828744 1.2286544 -0.009314823
v 0.0121463 1.1281936 0.010496005
v 0.0083311 1.2286545 0.0067127156
v -0.01204171 1.1281935 0.011184022
v -0.007696239 1.2286545 0.006803658
v -0.013290096 1.1281936 -0.014727659
v -0.008157197 1.2286545 -0.009637689
v 0.00828744 1.2286544 -0.009314823
v 0.00029830853 1.2852736 -0.0012528967
v -0.008157197 1.2286545 -0.009637689
v 0.0083311 1.2286545 0.0067127156
v -0.008157197 1.2286545 -0.009637689
v 0.00029830853 1.2852736 -0.0012528967
v -0.007696239 1.2286545 0.006803658
v 0.0083311 1.2286545 0.0067127156
v 0.019590275 0.92498004 0.015801925
v 0.009012996 0.9040915 0.037239145
v 0.009915528 0.9337382 0.03261131
v 0.014390989 0.96312636 0.0112479925
v 0.017498497 0.9598477 0.004474393
v -0.009012996 0.9040915 0.037239145
v -0.019590275 0.92498004 0.015801925
v -0.009915528 0.9337382 0.03261131
v -0.014390989 0.96312636 0.0112479925
v -0.017498497 0.9598477 0.004474393
v -0.009012996 0.9040915 0.037239145
v 0.009915528 0.9337382 0.03261131
v 0.009012996 0.9040915 0.037239145
v -0.009915528 0.9337382 0.03261131
v -0.014390989 0.96312636 0.0112479925
v 0.014390989 0.96312636 0.0112479925
v -0.014390989 0.96312636 0.0112479925
v -0.017498497 0.9598477 0.004474393
v 0.017498497 0.9598477 0.004474393
v 0.014390989 0.96312636 0.0112479925
v -0.008455558 0.27684516 -0.010039366
v 0.00029830565 0.2729654 -0.0012528939
v 0.008637611 0.27684516 -0.009668074
v -0.007940738 0.27684516 0.007050055
v 0.008645094 0.2768452 0.006918264
vt 0.19640724 0.73844624
vt 0.19414529 0.7110753
vt 0.17886336 0.7236117
vt 0.17886336 0.74009657
vt 0.17886342 0.74676985
vt 0.17886336 0.7572379
vt 0.19189459 0.758112
vt 0.196265 0.7439961
vt 0.17886336 0.7236117
vt 0.19414529 0.7110754
vt 0.19640724 0.73844624
vt 0.17886336 0.74009657
vt 0.17886342 0.7467699
vt 0.196265 0.74399614
vt 0.19189459 0.75811195
vt 0.17886336 0.7572379
vt 0.19467981 0.7809562
vt 0.18251254 0.7784217
vt 0.18251254 0.8128157
vt 0.200479 0.8303396
vt 0.18251254 0.81281567
vt 0.18251254 0.77842164
vt 0.1946798 0.78095615
vt 0.200479 0.83033967
vt 0.22963428 0.77186435
vt 0.21032181 0.77186567
vt 0.21032299 0.7883509
vt 0.22963567 0.7883494
vt 0.22424501 0.7977543
vt 0.21571517 0.7977549
vt 0.22345383 0.8321485
vt 0.21651159 0.83214897
vt 0.21997325 0.7514289
vt 0.20369656 0.7485533
vt 0.21031998 0.7672024
vt 0.22963268 0.7672049
vt 0.2360918 0.7485236
vt 0.3245403 0.61488336
vt 0.3096195 0.61488086
vt 0.30901515 0.63551235
vt 0.32513785 0.6355149
vt 0.31287712 0.6663255
vt 0.32126603 0.6663267
vt 0.2941879 0.54409826
vt 0.2800296 0.5351441
vt 0.2800312 0.60827327
vt 0.29418916 0.60486174
vt 0.26331088 0.691973
vt 0.2845441 0.66849977
vt 0.2845441 0.628374
vt 0.27454573 0.6077003
vt 0.28018963 0.49492544
vt 0.26331088 0.49328965
vt 0.24970548 0.6907153
vt 0.25809443 0.69071424
vt 0.2580912 0.6616984
vt 0.24970238 0.6616995
vt 0.25810698 0.6153978
vt 0.24972112 0.6550526
vt 0.2581101 0.6550521
vt 0.24971807 0.6153983
vt 0.25809908 0.51013964
vt 0.2497101 0.51014036
vt 0.25809735 0.48717514
vt 0.24970828 0.48717594
vt 0.25599682 0.44464582
vt 0.24970527 0.4470503
vt 0.30631062 0.47741038
vt 0.30631062 0.4483949
vt 0.28408757 0.43380257
vt 0.28018963 0.49492544
vt 0.30835813 0.5036434
vt 0.30824858 0.5352937
vt 0.30297 0.5317099
vt 0.3029703 0.49986255
vt 0.2800312 0.60827327
vt 0.2800296 0.5351441
vt 0.2941879 0.54409826
vt 0.29418916 0.60486174
vt 0.26331088 0.691973
vt 0.2845441 0.6283741
vt 0.2845441 0.6684997
vt 0.27454573 0.60770035
vt 0.28018963 0.4949255
vt 0.26331088 0.4932897
vt 0.28408757 0.4338026
vt 0.30631068 0.44839478
vt 0.30631068 0.47741032
vt 0.28018963 0.4949255
vt 0.28370172 0.0050801025
vt 0.29441142 0.3375359
vt 0.2944113 0.005079968
vt 0.28370178 0.3375359
vt 0.26585168 0.33753592
vt 0.2658516 0.005080103
vt 0.24800247 0.0050801025
vt 0.24800248 0.3375359
vt 0.23729257 0.3375359
vt 0.23729257 0.0050801025
vt 0.15543415 0.25840488
vt 0.1382857 0.14552546
vt 0.1382857 0.25840488
vt 0.15543415 0.14552546
vt 0.18479197 0.2584049
vt 0.18479197 0.14552546
vt 0.21411484 0.25840488
vt 0.21411484 0.14552546
vt 0.23123962 0.25840488
vt 0.23123962 0.14552546
vt 0.21105155 0.07532502
vt 0.23123962 0.13319845
vt 0.23123962 0.07532502
vt 0.21105155 0.13319845
vt 0.17803144 0.075325
vt 0.17803144 0.13319847
vt 0.14448701 0.075324975
vt 0.14448701 0.13319828
vt 0.12422913 0.075324975
vt 0.12422913 0.13319845
vt 0.0805358 0.0875671
vt 0.09785509 0.26202422
vt 0.09781493 0.08756334
vt 0.08057618 0.26202843
vt 0.05173778 0.0875738
vt 0.051778268 0.26203507
vt 0.022939848 0.08758075
vt 0.022980327 0.26204163
vt 0.005660535 0.08758453
vt 0.0057011778 0.26204604
vt 0.10767578 0.18647748
vt 0.13096112 0.20114945
vt 0.13096112 0.18647748
vt 0.10767578 0.20114945
vt 0.13096112 0.22454011
vt 0.10767578 0.22454011
vt 0.10767578 0.24771008
vt 0.13096112 0.24771008
vt 0.10767578 0.26204604
vt 0.13096112 0.26204604
vt 0.061967656 0.0044849142
vt 0.07489228 0.08242915
vt 0.07489228 0.0044849142
vt 0.061967656 0.08242915
vt 0.040249806 0.0044849142
vt 0.040249806 0.082429156
vt 0.018552229 0.0044849142
vt 0.018552229 0.08242915
vt 0.005660535 0.0044849142
vt 0.005660535 0.08242915
vt 0.12132263 0.03239441
vt 0.10643335 0.07696998
vt 0.1314346 0.03239441
vt 0.10530015 0.03239441
vt 0.079502895 0.03239441
vt 0.10419464 0.07698059
vt 0.08934674 0.03239441
vt 0.10530015 0.03239441
vt 0.17564115 0.6030277
vt 0.16599625 0.5799786
vt 0.15891226 0.60237724
vt 0.16316491 0.6308528
vt 0.16951743 0.6312577
vt 0.16615789 0.5799024
vt 0.17563574 0.60302883
vt 0.15891048 0.6023767
vt 0.16316804 0.63085395
vt 0.1695179 0.63125664
vt 0.18342428 0.59241456
vt 0.19760506 0.6160227
vt 0.19619657 0.5924145
vt 0.18200329 0.61598194
vt 0.17849264 0.6441067
vt 0.2011004 0.6441091
vt 0.18078624 0.64592785
vt 0.18076502 0.6487405
vt 0.20268366 0.6481771
vt 0.2011004 0.6441091
vt 0.14387757 0.03803914
vt 0.14387757 0.0501355
vt 0.15420246 0.0458588
vt 0.13355267 0.045858793
vt 0.14387757 0.059869897
vn 0.92277 -0.029634159 0.38420975
vn 0.92277 -0.029634159 0.38420975
vn 0.92277 -0.029634159 0.38420978
vn 0.92277 -0.029634159 0.38420975
vn 0.8311269 0.4149496 0.37019596
vn 0.8311268 0.41494954 0.37019596
vn 0.8311268 0.41494954 0.37019596
vn 0.8311269 0.4149496 0.37019596
vn -0.92277 -0.029634159 0.38420978
vn -0.92277 -0.029634159 0.38420975
vn -0.92277 -0.029634159 0.38420975
vn -0.92277 -0.029634159 0.38420975
vn -0.8311269 0.4149496 0.37019596
vn -0.8311269 0.4149496 0.37019596
vn -0.8311268 0.41494954 0.37019596
vn -0.8311268 0.41494954 0.37019596
vn 0.9568157 0.03476713 0.2886088
vn 0.9384263 0.0069484133 0.3454097
vn 0.9827707 0.096027926 0.15792571
vn 0.98629797 0.11308333 0.1201184
vn -0.9827707 0.096027926 0.15792571
vn -0.9384263 0.0069484133 0.34540966
vn -0.9568157 0.03476713 0.28860876
vn -0.98629797 0.11308333 0.1201184
vn -0 -0.1322717 0.9912135
vn -0 -0.1322717 0.9912135
vn -0 -0.09041413 0.99590427
vn -0 -0.09041413 0.99590427
vn -0 -0.033933885 0.9994241
vn -0 -0.033933885 0.9994241
vn -0 -0.042610273 0.99909174
vn -0 -0.042610273 0.99909174
vn -0 -0.8903482 0.45528013
vn 0.23410197 -0.8445707 0.48155636
vn 0.109233506 -0.8990837 0.4239298
vn -0.10923349 -0.8990837 0.42392987
vn -0.23410182 -0.8445707 0.48155642
vn -0 -0.8366746 -0.54770035
vn -0 -0.8366746 -0.54770035
vn -0 -0.83605725 -0.5486422
vn -0 -0.83605725 -0.5486422
vn -0 -0.8353979 -0.5496458
vn -0 -0.8353979 -0.5496458
vn 0.9987643 0.03937712 -0.030322911
vn 0.9992387 0.038246788 -0.0076829004
vn 0.99911517 0.028607314 -0.030831281
vn 0.99772555 0.021170614 -0.063996755
vn 0.9998809 0.0010567782 -0.015394169
vn 1 0 0
vn 1 0 0
vn 0.9974287 0.0049081664 -0.071497634
vn 0.99772555 0.021170614 -0.063996755
vn 0.99911517 0.028607314 -0.030831281
vn -0 0 -1
vn -0 0 -1
vn -0 0 -1
vn -0 0 -1
vn -0 0.42769656 -0.9039223
vn -0 0.76254 -0.6469411
vn -0 0.76254 -0.6469411
vn -0 0.42769656 -0.9039223
vn -0 -0.21520583 -0.9765687
vn -0 -0.21520583 -0.9765687
vn -0 -0.223331 -0.97474265
vn -0 -0.223331 -0.97474265
vn -0 0 -1
vn -0 0 -1
vn 0.9962824 0.04157209 -0.07545272
vn 0.9962824 0.04157209 -0.07545272
vn 0.9987643 0.03937712 -0.030322911
vn 0.99772555 0.021170614 -0.063996755
vn -0 0.6708381 -0.74160385
vn -0 0.6708381 -0.74160385
vn -0 0.6708381 -0.74160385
vn -0 0.6708381 -0.74160385
vn -0.99911517 0.028607314 -0.030831285
vn -0.9992387 0.03824679 -0.0076829004
vn -0.9987643 0.039377123 -0.030322911
vn -0.99772555 0.021170616 -0.06399677
vn -0.9998809 0.0010567784 -0.015394172
vn -1 0 0
vn -1 0 0
vn -0.9974287 0.0049081673 -0.07149765
vn -0.99772555 0.021170616 -0.06399677
vn -0.99911517 0.028607314 -0.030831285
vn -0.9987643 0.039377123 -0.030322911
vn -0.9962824 0.04157209 -0.07545272
vn -0.9962824 0.04157209 -0.07545272
vn -0.99772555 0.021170616 -0.06399677
vn 0.6261495 -0.49122113 -0.6055069
vn -0.709862 -0.025756465 -0.70386976
vn -0.6167173 -0.49509987 -0.6119935
vn 0.72480136 -0.022677928 -0.6885846
vn 0.709888 -0.02089214 0.7040047
vn 0.62060136 -0.48650524 0.61495245
vn -0.60062987 -0.49021545 0.63161105
vn -0.682472 -0.022850636 0.7305546
vn -0.709862 -0.025756465 -0.70386976
vn -0.6167173 -0.49509987 -0.6119935
vn 0.72480136 -0.022677928 -0.6885846
vn -0.7094653 -0.04124705 -0.70353216
vn -0.709862 -0.025756465 -0.70386976
vn 0.72829026 -0.036297463 -0.68430686
vn 0.709888 -0.02089214 0.7040047
vn 0.7096805 -0.03310813 0.7037453
vn -0.682472 -0.022850636 0.7305546
vn -0.67816633 -0.03629746 0.73401153
vn -0.709862 -0.025756465 -0.70386976
vn -0.7094653 -0.04124705 -0.70353216
vn 0.7270156 0.065933935 -0.6834479
vn -0.70934117 0.045287844 -0.70340884
vn -0.70807505 0.07490336 -0.7021533
vn 0.7259463 0.03990778 -0.6865926
vn 0.7087845 0.06013987 0.7028568
vn 0.709596 0.036524795 0.70366156
vn -0.67731816 0.065933935 0.73272973
vn -0.6804718 0.03990777 0.7316868
vn -0.70807505 0.07490336 -0.7021533
vn -0.70934117 0.045287844 -0.70340884
vn 0.7259463 0.03990778 -0.6865926
vn -0.7099943 0.014577645 -0.7040565
vn -0.70934117 0.045287844 -0.70340884
vn 0.72302324 0.012932062 -0.6907027
vn 0.709596 0.036524795 0.70366156
vn 0.71001935 0.011912961 0.7040815
vn -0.6804718 0.03990777 0.7316868
vn -0.6846062 0.01293205 0.7287984
vn -0.70934117 0.045287844 -0.70340884
vn -0.7099943 0.014577645 -0.7040565
vn -0.70250183 -0.14560984 -0.6966268
vn 0.7221924 -0.03278536 -0.6909147
vn -0.70959604 -0.03652115 -0.7036617
vn 0.71991473 -0.12915727 -0.6819392
vn 0.7097415 -0.030405449 0.70380574
vn 0.7050387 -0.11882933 0.69914234
vn -0.6758692 -0.12915744 0.72561646
vn -0.68482524 -0.032785647 0.7279694
vn -0.70250183 -0.14560984 -0.6966268
vn -0.70959604 -0.03652115 -0.7036617
vn 0.7221924 -0.03278536 -0.6909147
vn -0.7036756 0.13389565 -0.69779116
vn -0.70959604 -0.03652115 -0.7036617
vn 0.71206856 0.12544306 -0.6908128
vn 0.7097415 -0.030405449 0.70380574
vn 0.70474154 0.122277364 0.6988473
vn -0.68482524 -0.032785647 0.7279694
vn -0.6848084 0.12544364 0.71784496
vn -0.70959604 -0.03652115 -0.7036617
vn -0.7036756 0.13389565 -0.69779116
vn 0.71206856 0.12544306 -0.6908128
vn 0.0024306716 0.99999416 0.0024056719
vn -0.7036756 0.13389565 -0.69779116
vn 0.70474154 0.122277364 0.6988473
vn -0.7036756 0.13389565 -0.69779116
vn 0.0024306716 0.99999416 0.0024056719
vn -0.6848084 0.12544364 0.71784496
vn 0.70474154 0.122277364 0.6988473
vn 0.89181745 0.11574619 0.4373379
vn 0.87633187 0.04813979 0.47929627
vn 0.8910388 0.111633874 0.43998614
vn 0.90013504 0.17053981 0.4008404
vn 0.90013504 0.1705398 0.4008404
vn -0.87633187 0.048139807 0.47929627
vn -0.89181745 0.11574619 0.4373379
vn -0.8910388 0.11163388 0.43998614
vn -0.90013504 0.17053981 0.4008404
vn -0.90013504 0.1705398 0.4008404
vn -0 0.15423171 0.98803467
vn -0 0.39227617 0.9198475
vn -0 0.15423171 0.98803467
vn -0 0.39227617 0.9198475
vn -0 0.9927735 0.12000322
vn -0 0.9927735 0.12000322
vn -0 0.9927735 0.12000322
vn -0 0.90010154 -0.43568024
vn -0 0.90010154 -0.43568024
vn -0 0.9927735 0.12000322
vn -0.6167173 -0.49509987 -0.6119935
vn 0.0038866522 -0.99996126 0.007907384
vn 0.6261495 -0.49122113 -0.6055069
vn -0.60062987 -0.49021545 0.63161105
vn 0.62060136 -0.48650524 0.61495245
g SeparateMesh_Avatar_Male_Size01_Seth_Model_Seth_Weapon_01_LOD2_0
f 3/3/3 2/2/2 1/1/1
f 4/4/4 3/3/3 1/1/1
f 7/7/7 6/6/6 5/5/5
f 8/8/8 7/7/7 5/5/5
f 11/11/11 10/10/10 9/9/9
f 12/12/12 11/11/11 9/9/9
f 15/15/15 14/14/14 13/13/13
f 16/16/16 15/15/15 13/13/13
f 19/19/19 18/18/18 17/17/17
f 19/19/19 17/17/17 20/20/20
f 23/23/23 22/22/22 21/21/21
f 24/24/24 23/23/23 21/21/21
f 27/27/27 26/26/26 25/25/25
f 28/28/28 27/27/27 25/25/25
f 27/27/27 28/28/28 29/29/29
f 30/30/30 27/27/27 29/29/29
f 29/29/29 31/31/31 30/30/30
f 31/31/31 32/32/32 30/30/30
f 35/35/35 34/34/34 33/33/33
f 36/36/36 35/35/35 33/33/33
f 36/36/36 33/33/33 37/37/37
f 40/40/40 39/39/39 38/38/38
f 41/41/41 40/40/40 38/38/38
f 40/40/40 41/41/41 42/42/42
f 41/41/41 43/43/43 42/42/42
f 46/46/46 45/45/45 44/44/44
f 47/47/47 46/46/46 44/44/44
f 50/50/50 49/49/49 48/48/48
f 51/51/51 50/50/50 48/48/48
f 52/52/52 51/51/51 48/48/48
f 53/53/53 52/52/52 48/48/48
f 56/56/56 55/55/55 54/54/54
f 57/57/57 56/56/56 54/54/54
f 60/60/60 59/59/59 58/58/58
f 59/59/59 61/61/61 58/58/58
f 58/58/58 61/61/61 62/62/62
f 61/61/61 63/63/63 62/62/62
f 62/62/62 63/63/63 64/64/64
f 63/63/63 65/65/65 64/64/64
f 64/64/64 65/65/65 66/66/66
f 65/65/65 67/67/67 66/66/66
f 70/70/70 69/69/69 68/68/68
f 71/71/71 70/70/70 68/68/68
f 74/74/74 73/73/73 72/72/72
f 75/75/75 74/74/74 72/72/72
f 78/78/78 77/77/77 76/76/76
f 79/79/79 78/78/78 76/76/76
f 82/82/82 81/81/81 80/80/80
f 81/81/81 83/83/83 80/80/80
f 83/83/83 84/84/84 80/80/80
f 84/84/84 85/85/85 80/80/80
f 88/88/88 87/87/87 86/86/86
f 89/89/89 88/88/88 86/86/86
f 92/92/92 91/91/91 90/90/90
f 91/91/91 93/93/93 90/90/90
f 93/93/93 94/94/94 90/90/90
f 94/94/94 95/95/95 90/90/90
f 95/95/95 94/94/94 96/96/96
f 94/94/94 97/97/97 96/96/96
f 97/97/97 98/98/98 96/96/96
f 98/98/98 99/99/99 96/96/96
f 102/102/102 101/101/101 100/100/100
f 101/101/101 103/103/103 100/100/100
f 100/100/100 103/103/103 104/104/104
f 103/103/103 105/105/105 104/104/104
f 104/104/104 105/105/105 106/106/106
f 105/105/105 107/107/107 106/106/106
f 106/106/106 107/107/107 108/108/108
f 107/107/107 109/109/109 108/108/108
f 112/112/112 111/111/111 110/110/110
f 111/111/111 113/113/113 110/110/110
f 110/110/110 113/113/113 114/114/114
f 113/113/113 115/115/115 114/114/114
f 114/114/114 115/115/115 116/116/116
f 115/115/115 117/117/117 116/116/116
f 116/116/116 117/117/117 118/118/118
f 117/117/117 119/119/119 118/118/118
f 122/122/122 121/121/121 120/120/120
f 121/121/121 123/123/123 120/120/120
f 120/120/120 123/123/123 124/124/124
f 123/123/123 125/125/125 124/124/124
f 124/124/124 125/125/125 126/126/126
f 125/125/125 127/127/127 126/126/126
f 126/126/126 127/127/127 128/128/128
f 127/127/127 129/129/129 128/128/128
f 132/132/132 131/131/131 130/130/130
f 131/131/131 133/133/133 130/130/130
f 131/131/131 134/134/134 133/133/133
f 134/134/134 135/135/135 133/133/133
f 135/135/135 134/134/134 136/136/136
f 134/134/134 137/137/137 136/136/136
f 136/136/136 137/137/137 138/138/138
f 137/137/137 139/139/139 138/138/138
f 142/142/142 141/141/141 140/140/140
f 141/141/141 143/143/143 140/140/140
f 140/140/140 143/143/143 144/144/144
f 143/143/143 145/145/145 144/144/144
f 144/144/144 145/145/145 146/146/146
f 145/145/145 147/147/147 146/146/146
f 146/146/146 147/147/147 148/148/148
f 147/147/147 149/149/149 148/148/148
f 152/152/152 151/151/151 150/150/150
f 150/150/150 151/151/151 153/153/153
f 156/156/156 155/155/155 154/154/154
f 157/157/157 155/155/155 156/156/156
f 160/160/160 159/159/159 158/158/158
f 161/161/161 160/160/160 158/158/158
f 162/162/162 161/161/161 158/158/158
f 165/165/165 164/164/164 163/163/163
f 165/165/165 166/166/166 164/164/164
f 166/166/166 167/167/167 164/164/164
f 170/170/170 169/169/169 168/168/168
f 169/169/169 171/171/171 168/168/168
f 172/172/172 171/171/171 169/169/169
f 173/173/173 172/172/172 169/169/169
f 176/176/176 175/175/175 174/174/174
f 177/177/177 176/176/176 174/174/174
f 180/180/180 179/179/179 178/178/178
f 178/178/178 179/179/179 181/181/181
f 182/182/182 179/179/179 180/180/180
f 181/181/181 179/179/179 182/182/182
