g SeparateMesh_Avatar_Female_Size01_Clara_Model_Clara_Glass_LOD2
v -0.03274457 -0.04465776 1.1139777
v -0.028606262 -0.04076054 1.1263543
v -0.01987854 -0.045998577 1.1179961
v -0.022956008 -0.046950724 1.1052741
v -0.03442627 -0.042590372 1.1009436
v -0.043082274 -0.03721806 1.1091491
v -0.040322874 -0.036223188 1.1217169
v 0.03274457 -0.04465776 1.1139777
v 0.01987854 -0.045998577 1.1179961
v 0.028606262 -0.04076054 1.1263543
v 0.022956008 -0.046950724 1.1052741
v 0.03442627 -0.042590372 1.1009436
v 0.043082274 -0.03721806 1.1091491
v 0.040322874 -0.036223188 1.1217169
vt 0.4491147 0.053341135
vt 0.44070926 0.09879053
vt 0.40581214 0.06847856
vt 0.41421768 0.02339303
vt 0.45752028 0.008109587
vt 0.4924169 0.03791201
vt 0.48401093 0.08325262
vt 0.4491147 0.053341135
vt 0.40581214 0.06847856
vt 0.44070926 0.09879053
vt 0.41421768 0.02339303
vt 0.45752028 0.008109587
vt 0.4924169 0.03791201
vt 0.48401093 0.08325262
vn -0.40118802 -0.90270525 0.1554715
vn -0.3395274 -0.8586808 0.38391188
vn -0.17305623 -0.9564795 0.23494399
vn -0.22818342 -0.9736182 -0.00012797922
vn -0.44711983 -0.89056194 -0.08356627
vn -0.6049584 -0.79284954 0.07358712
vn -0.5541326 -0.7754954 0.30256245
vn 0.40118802 -0.90270525 0.1554715
vn 0.17305623 -0.9564795 0.23494399
vn 0.3395274 -0.8586808 0.38391188
vn 0.22818342 -0.9736182 -0.00012797922
vn 0.44711983 -0.89056194 -0.08356627
vn 0.6049584 -0.79284954 0.07358712
vn 0.5541326 -0.7754954 0.30256245
g SeparateMesh_Avatar_Female_Size01_Clara_Model_Clara_Glass_LOD2_0
f 3/3/3 2/2/2 1/1/1
f 3/3/3 1/1/1 4/4/4
f 5/5/5 4/4/4 1/1/1
f 6/6/6 5/5/5 1/1/1
f 1/1/1 7/7/7 6/6/6
f 2/2/2 7/7/7 1/1/1
f 10/10/10 9/9/9 8/8/8
f 8/8/8 9/9/9 11/11/11
f 11/11/11 12/12/12 8/8/8
f 12/12/12 13/13/13 8/8/8
f 14/14/14 8/8/8 13/13/13
f 14/14/14 10/10/10 8/8/8
