g SeparateMesh_NPC_Casper_Model_Casper_Flyer01
v -0.1347145 -0.18060571 -0.022394437
v -0.1347145 -0.13428535 0.022394368
v -0.1347145 -0.18060571 0.022394363
v -0.1347145 -0.13428535 -0.022394432
v -0.1347145 -0.08796495 0.022394383
v -0.1347145 -0.08796496 -0.022394419
v -0.1347145 -0.041644573 0.022394402
v -0.1347145 -0.041644573 -0.022394404
v -0.1347145 0.00467581 0.022394402
v -0.1347145 0.004675814 -0.022394398
v -0.1347145 0.0509962 0.022394411
v -0.1347145 0.0509962 -0.022394389
v -0.1347145 0.097316585 0.02239442
v -0.1347145 0.09731658 -0.02239438
v -0.1347145 0.14363697 0.022394435
v -0.1347145 0.14363697 -0.022394368
v -0.1347145 0.18995737 0.02239444
v -0.1347145 0.18995737 -0.022394361
v 0.1220457 0.14363621 -0.02239437
v 0.12204843 0.18995735 0.02239444
v 0.12204743 0.18995804 -0.022394355
v 0.12204843 0.14363693 0.02239443
v 0.12204843 0.09731655 0.02239442
v 0.122048415 0.09731651 -0.02239438
v 0.12204843 0.05099617 0.022394411
v 0.122050494 0.050998095 -0.022394389
v 0.12204843 0.004675791 0.022394402
v 0.12180478 0.004742199 -0.022394398
v 0.12204843 -0.04164459 0.022394402
v 0.12186569 -0.0415948 -0.022394404
v 0.12204843 -0.087964974 0.022394383
v 0.12192661 -0.08793179 -0.022394419
v 0.12204843 -0.13428535 0.022394368
v 0.12198752 -0.13426876 -0.022394432
v 0.12204843 -0.18060571 0.022394363
v 0.12204843 -0.18060571 -0.022394437
v 0.121629976 -0.13432442 0.013749163
v 0.124785624 -0.16376515 0.012479625
v 0.12162929 -0.16479945 0.013749156
v 0.12472998 -0.13432562 0.012479631
v 0.13326591 -0.15953687 0.0004171252
v 0.13210289 -0.1343356 0.0020021938
v 0.12464215 -0.087847814 0.0124796415
v 0.12163104 -0.0878279 0.013749172
v 0.12996298 -0.08796638 0.0049186465
v 0.12455466 -0.041547135 0.012479651
v 0.121632084 -0.041507557 0.013749182
v 0.12782747 -0.041692108 0.007829127
v 0.124467276 0.004693265 0.012479658
v 0.12568673 0.0046952963 0.010746724
v 0.121633135 0.0046917773 0.013749189
v 0.124415204 0.032247648 0.012479665
v 0.12163377 0.032249793 0.013749193
v 0.12163522 0.05104269 0.013508069
v 0.011473597 -0.18471843 0.004420049
v 0.011573506 -0.17882326 0.006179814
v 0.037508205 -0.17881452 0.0061798166
v -0.006388597 -0.1788293 0.006179814
v -0.006378436 -0.18471843 0.004420049
v -0.0063298047 -0.18559201 0.0028437686
v -0.07071653 -0.18875141 -0.0028569172
v -0.07072258 -0.17885096 0.0061798166
v -0.07072113 -0.18471843 0.004420049
v -0.100705415 -0.19022295 -0.0055120788
v -0.10321111 -0.18471843 0.004420049
v -0.104034424 -0.17886218 0.0061798166
v -0.1347145 0.18995737 -0.022394361
v -0.070523776 0.18995737 0.02239444
v -0.1347145 0.18995737 0.02239444
v -0.0706456 0.18999058 -0.022394361
v -0.0065766904 0.19002376 -0.022394361
v -0.0063330363 0.18995737 0.02239444
v 0.057492226 0.19005695 -0.022394361
v 0.0578577 0.18995735 0.02239444
v 0.12204743 0.18995804 -0.022394355
v 0.12204843 0.18995735 0.02239444
v 0.12204843 -0.18060571 -0.022394437
v 0.057857703 -0.18060571 0.022394363
v 0.12204843 -0.18060571 0.022394363
v 0.057857703 -0.18060571 -0.022394437
v -0.0063330363 -0.18060571 0.022394363
v -0.0063330363 -0.18060571 -0.022394437
v -0.07052377 -0.18060571 0.022394363
v -0.070523776 -0.18060571 -0.022394437
v -0.1347145 -0.18060571 0.022394363
v -0.1347145 -0.18060571 -0.022394437
v -0.0063330363 -0.18060571 0.022394363
v -0.07052377 -0.18060571 0.022394363
v -0.07052377 -0.13428538 0.02239437
v -0.0063330363 -0.13428538 0.02239437
v 0.057857703 -0.18060571 0.022394363
v 0.057857703 -0.13428538 0.02239437
v 0.12204843 -0.18060571 0.022394363
v 0.12204843 -0.13428535 0.022394368
v 0.057857703 -0.08796499 0.022394385
v 0.12204843 -0.087964974 0.022394383
v -0.0063330363 -0.08796498 0.022394385
v 0.057857703 -0.0416446 0.02239441
v 0.12204843 -0.04164459 0.022394402
v -0.07052377 -0.087964974 0.022394385
v -0.0063330363 -0.041644596 0.02239441
v 0.0578577 0.0046757865 0.022394404
v 0.12204843 0.004675791 0.022394402
v -0.07052377 -0.04164459 0.02239441
v -0.0063330363 0.004675791 0.022394404
v 0.0578577 0.050996166 0.022394413
v 0.12204843 0.05099617 0.022394411
v -0.070523776 0.004675796 0.022394404
v -0.0063330363 0.05099617 0.022394413
v 0.0578577 0.09731654 0.022394422
v 0.12204843 0.09731655 0.02239442
v -0.070523776 0.050996173 0.022394413
v -0.0063330363 0.09731655 0.022394422
v 0.0578577 0.14363693 0.022394432
v 0.12204843 0.14363693 0.02239443
v 0.0578577 0.18995735 0.02239444
v 0.12204843 0.18995735 0.02239444
v -0.0063330363 0.18995737 0.02239444
v -0.0063330363 0.14363693 0.022394437
v -0.070523776 0.18995737 0.02239444
v -0.070523776 0.14363694 0.022394437
v -0.1347145 0.18995737 0.02239444
v -0.1347145 0.14363697 0.022394435
v -0.070523776 0.097316556 0.022394422
v -0.1347145 0.097316585 0.02239442
v -0.1347145 0.0509962 0.022394411
v -0.1347145 0.00467581 0.022394402
v -0.1347145 -0.041644573 0.022394402
v -0.1347145 -0.08796495 0.022394383
v -0.1347145 -0.13428535 0.022394368
v -0.07052377 -0.18060571 0.022394363
v -0.1347145 -0.18060571 0.022394363
v 0.0578577 0.14363693 -0.022394376
v 0.057492226 0.19005695 -0.022394361
v -0.0065766904 0.19002376 -0.022394361
v -0.0063330363 0.14363693 -0.02239437
v -0.0706456 0.18999058 -0.022394361
v -0.070523776 0.14363694 -0.02239437
v -0.1347145 0.18995737 -0.022394361
v -0.1347145 0.14363697 -0.022394368
v -0.070523776 0.097316556 -0.022394385
v -0.1347145 0.09731658 -0.02239438
v -0.0063330363 0.09731655 -0.022394385
v -0.070523776 0.050996173 -0.022394395
v -0.1347145 0.0509962 -0.022394389
v 0.0578577 0.09731654 -0.022394385
v -0.0063330363 0.05099617 -0.022394395
v -0.070523776 0.004675796 -0.022394404
v -0.1347145 0.004675814 -0.022394398
v 0.0578577 0.050996166 -0.022394395
v -0.0063330363 0.004675791 -0.022394404
v -0.07052377 -0.04164459 -0.022394398
v -0.1347145 -0.041644573 -0.022394404
v 0.0578577 0.0046757865 -0.022394404
v -0.0063330363 -0.041644596 -0.022394398
v -0.07052377 -0.087964974 -0.022394422
v -0.1347145 -0.08796496 -0.022394419
v 0.057857703 -0.0416446 -0.022394398
v -0.0063330363 -0.08796498 -0.022394422
v -0.07052377 -0.13428538 -0.022394437
v -0.1347145 -0.13428535 -0.022394432
v -0.070523776 -0.18060571 -0.022394437
v -0.1347145 -0.18060571 -0.022394437
v -0.0063330363 -0.18060571 -0.022394437
v -0.0063330363 -0.13428538 -0.022394437
v 0.057857703 -0.18060571 -0.022394437
v 0.057857703 -0.13428538 -0.022394437
v 0.12204843 -0.18060571 -0.022394437
v 0.12198752 -0.13426876 -0.022394432
v 0.057857703 -0.08796499 -0.022394422
v 0.12192661 -0.08793179 -0.022394419
v 0.12186569 -0.0415948 -0.022394404
v 0.12180478 0.004742199 -0.022394398
v 0.122050494 0.050998095 -0.022394389
v 0.122048415 0.09731651 -0.02239438
v 0.1220457 0.14363621 -0.02239437
v 0.057492226 0.19005695 -0.022394361
v 0.12204743 0.18995804 -0.022394355
vt 0.009955886 0.73952717
vt 0.1206156 0.8465275
vt 0.009955886 0.8465274
vt 0.1206156 0.73952717
vt 0.23127282 0.84652764
vt 0.23127282 0.7395273
vt 0.341928 0.84652764
vt 0.341928 0.7395273
vt 0.4525844 0.84652764
vt 0.4525844 0.7395273
vt 0.56324184 0.84652764
vt 0.56324184 0.7395273
vt 0.6739007 0.84652776
vt 0.6739005 0.7395275
vt 0.78456044 0.84652776
vt 0.78456044 0.7395275
vt 0.8952198 0.84652776
vt 0.8952198 0.7395275
vt 0.12033659 0.739526
vt 0.009961012 0.8465397
vt 0.009312752 0.7395163
vt 0.12061745 0.84653
vt 0.23127317 0.8465298
vt 0.23103476 0.7395261
vt 0.34192824 0.8465293
vt 0.3417294 0.73952657
vt 0.4525845 0.8465288
vt 0.4524256 0.73952705
vt 0.56324196 0.84652835
vt 0.56312275 0.7395273
vt 0.6739005 0.8465281
vt 0.6738212 0.7395275
vt 0.78456044 0.8465279
vt 0.78452086 0.7395275
vt 0.8952198 0.84652776
vt 0.8952198 0.7395275
vt 0.8987756 0.8965301
vt 0.9516773 0.8931932
vt 0.9529033 0.9012106
vt 0.8993455 0.88921183
vt 0.9461827 0.866404
vt 0.9011166 0.8664412
vt 0.8167269 0.88293964
vt 0.8161942 0.8894128
vt 0.81818986 0.8665214
vt 0.7344142 0.87681824
vt 0.7339157 0.88246554
vt 0.7354288 0.8667273
vt 0.6521964 0.87084883
vt 0.65247977 0.8670818
vt 0.6518271 0.87570137
vt 0.6032195 0.8670892
vt 0.60287035 0.87148064
vt 0.56955695 0.8677402
vt 0.98408985 0.93402725
vt 0.9742454 0.93548924
vt 0.97931063 0.9814461
vt 0.97074044 0.903658
vt 0.9817809 0.9024103
vt 0.98408985 0.90212995
vt 0.98408985 0.7867697
vt 0.9582188 0.78964907
vt 0.96873236 0.7884483
vt 0.98408985 0.7330392
vt 0.9621488 0.7309018
vt 0.95173955 0.73061544
vt 0.013161781 0.8666478
vt 0.1499623 0.96178037
vt 0.013161662 0.96178037
vt 0.14881432 0.8666478
vt 0.2849095 0.8666478
vt 0.28632045 0.96178037
vt 0.421005 0.8666478
vt 0.42267823 0.96178037
vt 0.55755043 0.86664754
vt 0.55755043 0.96178037
vt 0.55755043 0.96178037
vt 0.4219079 0.8666478
vt 0.55755043 0.86664754
vt 0.4219079 0.96178037
vt 0.28554702 0.8666478
vt 0.28554702 0.96178037
vt 0.14918649 0.8666478
vt 0.14918649 0.96178037
vt 0.013161781 0.8666478
vt 0.013161662 0.96178037
vt 0.25297207 0.70614207
vt 0.37360096 0.70614207
vt 0.373123 0.6211548
vt 0.25297207 0.61909395
vt 0.1323438 0.70614207
vt 0.1323438 0.61909395
vt 0.011714131 0.706142
vt 0.011714131 0.6190939
vt 0.13234381 0.53204536
vt 0.011714146 0.53204536
vt 0.25297207 0.53204536
vt 0.13234383 0.4449962
vt 0.011714146 0.44499618
vt 0.373123 0.5341062
vt 0.2529721 0.4449962
vt 0.13234383 0.35794625
vt 0.01171416 0.35794622
vt 0.373601 0.4449962
vt 0.2529721 0.35794625
vt 0.13234383 0.27089566
vt 0.011714175 0.27089563
vt 0.37360102 0.35794625
vt 0.2529721 0.27089566
vt 0.13234384 0.18384437
vt 0.011714175 0.18384437
vt 0.37360102 0.27089566
vt 0.25297213 0.18384439
vt 0.13234386 0.09679413
vt 0.01171419 0.0967941
vt 0.13234386 0.009745121
vt 0.01171419 0.009745091
vt 0.25297213 0.0097453
vt 0.25297213 0.09679413
vt 0.37360102 0.009745479
vt 0.37360102 0.09679413
vt 0.49423134 0.009745508
vt 0.49423134 0.09679416
vt 0.37360102 0.1838444
vt 0.4942313 0.1838444
vt 0.4942313 0.2708957
vt 0.49423128 0.35794628
vt 0.49423128 0.44499624
vt 0.49430832 0.5341062
vt 0.4943083 0.6211548
vt 0.37360096 0.70614207
vt 0.49423128 0.70614207
vt 0.8695463 0.09679413
vt 0.8695463 0.009745121
vt 0.748918 0.0097453
vt 0.74891806 0.09679413
vt 0.6282891 0.009745479
vt 0.62828916 0.09679413
vt 0.50765884 0.009745508
vt 0.50765884 0.09679416
vt 0.62828916 0.1838444
vt 0.50765884 0.1838444
vt 0.74891806 0.18384439
vt 0.62828916 0.27089566
vt 0.50765884 0.2708957
vt 0.8695463 0.18384437
vt 0.74891806 0.27089566
vt 0.62828916 0.35794625
vt 0.50765884 0.35794628
vt 0.8695463 0.27089566
vt 0.74891806 0.35794625
vt 0.62828916 0.4449962
vt 0.50765884 0.44499624
vt 0.8695463 0.35794625
vt 0.74891806 0.4449962
vt 0.62828916 0.5320454
vt 0.50765884 0.5320454
vt 0.8695463 0.4449962
vt 0.74891806 0.53204536
vt 0.62828916 0.61909395
vt 0.50765884 0.61909395
vt 0.6282892 0.70614207
vt 0.50765884 0.70614207
vt 0.7489181 0.70614207
vt 0.74891806 0.61909395
vt 0.8695463 0.70614207
vt 0.8695463 0.61909395
vt 0.99017596 0.706142
vt 0.99017596 0.6190939
vt 0.8695463 0.53204536
vt 0.99017596 0.53204536
vt 0.99017596 0.44499618
vt 0.99017596 0.35794622
vt 0.99017596 0.27089563
vt 0.99017596 0.18384437
vt 0.99017596 0.0967941
vt 0.8695463 0.009745121
vt 0.99017596 0.009745091
vn -1 0 0
vn -1 0 0
vn -1 0 0
vn -1 0 0
vn -1 0 0
vn -1 0 0
vn -1 0 0
vn -1 0 0
vn -1 0 0
vn -1 0 0
vn -1 0 0
vn -1 0 0
vn -1 0 0
vn -1 0 0
vn -1 0 0
vn -1 0 0
vn -1 0 0
vn -1 0 0
vn 1 5.3020976E-06 -3.6144414E-05
vn 1 -1.8632423E-05 -4.162722E-05
vn 1 -1.8632421E-05 -4.162722E-05
vn 1 5.301596E-06 -3.614453E-05
vn 1 2.5839112E-05 -3.9390566E-06
vn 1 2.5839106E-05 -3.9390197E-06
vn 0.9999982 -0.0013158984 -0.0013381697
vn 0.9999982 -0.0013158253 -0.0013380955
vn 0.9999926 -0.0009968331 -0.0037300922
vn 0.9999926 -0.0009999471 -0.003728155
vn 0.99999154 0.00065742736 -0.0040788045
vn 0.99999154 0.0006574273 -0.004079769
vn 0.99999607 0.0006574306 -0.0027191627
vn 0.99999607 0.0006574306 -0.0027198049
vn 0.9999989 0.0006573807 -0.0013595585
vn 0.9999989 0.0006573807 -0.0013598796
vn 0.9999995 0.0006573809 -0.0006798602
vn 0.9999995 0.000657381 -0.0006798601
vn 0.37984693 0.00035127476 0.9250493
vn 0.57967716 0.00087046175 0.81484574
vn 0.37600112 0.00034462885 0.9266191
vn 0.6238125 0.0009878846 0.7815734
vn 0.81780994 0.0015453092 0.57548636
vn 0.8178099 0.0015453597 0.57548636
vn 0.6274826 0.0009923506 0.77862996
vn 0.38856936 0.0003624619 0.92141944
vn 0.81781006 0.0015453737 0.5754862
vn 0.631672 0.0009956843 0.7752352
vn 0.398526 0.00037191118 0.91715693
vn 0.8178102 0.001545306 0.5754859
vn 0.6356156 0.0009987911 0.7720051
vn 0.8178094 0.0015452886 0.5754871
vn 0.407775 0.00038056067 0.91308236
vn 0.42507803 0.0056267446 0.90513915
vn 0.41360098 0.0060046767 0.91043836
vn 0.41520172 0.011639204 0.90965486
vn 6.838928E-05 -0.30870205 0.9511588
vn 7.25389E-05 -0.28610477 0.95819837
vn 9.625898E-05 -0.28603864 0.9582181
vn 4.8311565E-05 -0.28648204 0.95808566
vn 2.610775E-05 -0.6269563 0.7790544
vn -0 -0.8746571 0.4847422
vn 1.5722769E-07 -0.874656 0.4847441
vn 4.865781E-05 -0.28715876 0.95788306
vn 2.635134E-05 -0.62723076 0.77883345
vn 2.2528059E-07 -0.8746557 0.48474473
vn 2.9566601E-05 -0.5903578 0.80714166
vn 4.900587E-05 -0.28752625 0.9577728
vn -0.000258904 0.9999999 0.0003710579
vn -0.0002588295 0.99999976 0.0007426512
vn -0.000258904 0.9999999 0.0003710579
vn -0.00025882976 0.99999976 0.00074136665
vn -0.00025868093 0.9999989 0.0014826249
vn -0.0002586804 0.9999989 0.0014851938
vn 0.00025217756 0.9999989 0.0014875612
vn 0.00025751226 0.9999989 0.0014837248
vn 0.00076829636 0.99999917 0.0011164261
vn 0.0007682963 0.99999917 0.0011164261
vn -0 -1 0
vn -0 -1 0
vn -0 -1 0
vn -0 -1 0
vn -0 -1 0
vn -0 -1 0
vn -0 -1 0
vn -0 -1 0
vn -0 -1 0
vn -0 -1 0
vn -0 -1.54415E-07 1
vn -0 -1.4154709E-07 1
vn -0 -2.2518837E-07 1
vn -0 -2.3162242E-07 1
vn -0 -1.4154709E-07 1
vn -0 -2.2518843E-07 1
vn -0 -1.2867918E-07 1
vn -0 -2.1875452E-07 1
vn -0 -3.9890514E-07 1
vn -0 -3.8603727E-07 1
vn -0 -4.1177307E-07 1
vn -0 -2.0588655E-07 1
vn -0 -2.0588652E-07 1
vn -0 -3.9890514E-07 1
vn -0 -2.0588654E-07 1
vn -0 0 1
vn -0 0 1
vn -0 -2.058866E-07 1
vn -0 0 1
vn -0 -2.0588654E-07 1
vn -0 -2.0588658E-07 1
vn -0 0 1
vn -0 -2.0588652E-07 1
vn -0 -2.1875447E-07 1
vn -0 -2.0588658E-07 1
vn -0 -2.0588655E-07 1
vn -0 -2.4449025E-07 1
vn -0 -1.8658461E-07 1
vn -0 -1.930186E-07 1
vn -0 -1.4154686E-07 1
vn -0 -1.8015058E-07 1
vn -0 0 1
vn -0 -1.8015068E-07 1
vn -0 0 1
vn -0 -1.8658466E-07 1
vn -0 0 1
vn -0 -1.9301861E-07 1
vn -0 -2.5735815E-07 1
vn -0 -2.573582E-07 1
vn -0 -2.0588652E-07 1
vn -0 0 1
vn -0 -2.0588654E-07 1
vn -0 -3.8603727E-07 1
vn -0 -2.1875445E-07 1
vn -0 -1.4154709E-07 1
vn -0 -1.2867918E-07 1
vn -0 2.5723702E-07 -1
vn -0 2.8257972E-07 -1
vn -0 2.3108223E-07 -1
vn -0 2.5716912E-07 -1
vn -0 1.9284603E-07 -1
vn -0 2.444233E-07 -1
vn -0 1.8006155E-07 -1
vn -0 2.3157774E-07 -1
vn -0 2.5092422E-07 -1
vn -0 2.4449025E-07 -1
vn -0 2.4449028E-07 -1
vn -0 2.0588655E-07 -1
vn -0 2.0588652E-07 -1
vn -0 2.1875687E-07 -1
vn -0 2.0588655E-07 -1
vn -0 0 -1
vn -0 1.0294329E-07 -1
vn -0 2.058746E-07 -1
vn -0 0 -1
vn -0 2.0588655E-07 -1
vn -0 2.0588648E-07 -1
vn -0 0 -1
vn -0 2.0588654E-07 -1
vn -0 3.8603721E-07 -1
vn -0 3.6030144E-07 -1
vn -0 2.0591898E-07 -1
vn -0 4.1177304E-07 -1
vn -0 1.6728279E-07 -1
vn -0 1.8015072E-07 -1
vn -0 0 -1
vn -0 0 -1
vn -0 0 -1
vn -0 1.5441488E-07 -1
vn -0 0 -1
vn -0 1.672744E-07 -1
vn -0 0 -1
vn -0 1.8006864E-07 -1
vn -0 3.8600862E-07 -1
vn -0 3.602351E-07 -1
vn -0 2.0591986E-07 -1
vn -0 1.0311496E-07 -1
vn -0 2.058627E-07 -1
vn -0 2.0589142E-07 -1
vn -0 2.5733672E-07 -1
vn -0 2.8257972E-07 -1
vn -0 3.0878462E-07 -1
g SeparateMesh_NPC_Casper_Model_Casper_Flyer01_0
f 3/3/3 2/2/2 1/1/1
f 2/2/2 4/4/4 1/1/1
f 2/2/2 5/5/5 4/4/4
f 5/5/5 6/6/6 4/4/4
f 5/5/5 7/7/7 6/6/6
f 7/7/7 8/8/8 6/6/6
f 7/7/7 9/9/9 8/8/8
f 9/9/9 10/10/10 8/8/8
f 9/9/9 11/11/11 10/10/10
f 11/11/11 12/12/12 10/10/10
f 12/12/12 11/11/11 13/13/13
f 14/14/14 12/12/12 13/13/13
f 14/14/14 13/13/13 15/15/15
f 16/16/16 14/14/14 15/15/15
f 16/16/16 15/15/15 17/17/17
f 18/18/18 16/16/16 17/17/17
f 21/21/21 20/20/20 19/19/19
f 20/20/20 22/22/22 19/19/19
f 22/22/22 23/23/23 19/19/19
f 23/23/23 24/24/24 19/19/19
f 23/23/23 25/25/25 24/24/24
f 25/25/25 26/26/26 24/24/24
f 25/25/25 27/27/27 26/26/26
f 27/27/27 28/28/28 26/26/26
f 27/27/27 29/29/29 28/28/28
f 29/29/29 30/30/30 28/28/28
f 30/30/30 29/29/29 31/31/31
f 32/32/32 30/30/30 31/31/31
f 32/32/32 31/31/31 33/33/33
f 34/34/34 32/32/32 33/33/33
f 34/34/34 33/33/33 35/35/35
f 36/36/36 34/34/34 35/35/35
f 39/39/39 38/38/38 37/37/37
f 38/38/38 40/40/40 37/37/37
f 38/38/38 41/41/41 40/40/40
f 41/41/41 42/42/42 40/40/40
f 40/40/40 43/43/43 37/37/37
f 40/40/40 42/42/42 43/43/43
f 43/43/43 44/44/44 37/37/37
f 42/42/42 45/45/45 43/43/43
f 43/43/43 46/46/46 44/44/44
f 43/43/43 45/45/45 46/46/46
f 46/46/46 47/47/47 44/44/44
f 45/45/45 48/48/48 46/46/46
f 46/46/46 49/49/49 47/47/47
f 46/46/46 48/48/48 49/49/49
f 48/48/48 50/50/50 49/49/49
f 49/49/49 51/51/51 47/47/47
f 52/52/52 49/49/49 50/50/50
f 49/49/49 52/52/52 51/51/51
f 52/52/52 53/53/53 51/51/51
f 54/54/54 53/53/53 52/52/52
f 57/57/57 56/56/56 55/55/55
f 56/56/56 58/58/58 55/55/55
f 58/58/58 59/59/59 55/55/55
f 55/55/55 59/59/59 60/60/60
f 60/60/60 59/59/59 61/61/61
f 58/58/58 62/62/62 59/59/59
f 59/59/59 63/63/63 61/61/61
f 62/62/62 63/63/63 59/59/59
f 64/64/64 61/61/61 63/63/63
f 65/65/65 64/64/64 63/63/63
f 65/65/65 63/63/63 62/62/62
f 66/66/66 65/65/65 62/62/62
f 69/69/69 68/68/68 67/67/67
f 68/68/68 70/70/70 67/67/67
f 70/70/70 68/68/68 71/71/71
f 68/68/68 72/72/72 71/71/71
f 71/71/71 72/72/72 73/73/73
f 72/72/72 74/74/74 73/73/73
f 75/75/75 73/73/73 74/74/74
f 76/76/76 75/75/75 74/74/74
f 79/79/79 78/78/78 77/77/77
f 78/78/78 80/80/80 77/77/77
f 78/78/78 81/81/81 80/80/80
f 81/81/81 82/82/82 80/80/80
f 81/81/81 83/83/83 82/82/82
f 83/83/83 84/84/84 82/82/82
f 84/84/84 83/83/83 85/85/85
f 86/86/86 84/84/84 85/85/85
f 89/89/89 88/88/88 87/87/87
f 90/90/90 89/89/89 87/87/87
f 90/90/90 87/87/87 91/91/91
f 92/92/92 90/90/90 91/91/91
f 92/92/92 91/91/91 93/93/93
f 94/94/94 92/92/92 93/93/93
f 95/95/95 92/92/92 94/94/94
f 96/96/96 95/95/95 94/94/94
f 97/97/97 90/90/90 92/92/92
f 95/95/95 97/97/97 92/92/92
f 98/98/98 95/95/95 96/96/96
f 99/99/99 98/98/98 96/96/96
f 100/100/100 89/89/89 90/90/90
f 97/97/97 100/100/100 90/90/90
f 101/101/101 97/97/97 95/95/95
f 98/98/98 101/101/101 95/95/95
f 102/102/102 98/98/98 99/99/99
f 103/103/103 102/102/102 99/99/99
f 104/104/104 100/100/100 97/97/97
f 101/101/101 104/104/104 97/97/97
f 101/101/101 98/98/98 105/105/105
f 98/98/98 102/102/102 105/105/105
f 106/106/106 102/102/102 103/103/103
f 107/107/107 106/106/106 103/103/103
f 104/104/104 101/101/101 108/108/108
f 101/101/101 105/105/105 108/108/108
f 105/105/105 102/102/102 109/109/109
f 102/102/102 106/106/106 109/109/109
f 110/110/110 106/106/106 107/107/107
f 111/111/111 110/110/110 107/107/107
f 108/108/108 105/105/105 112/112/112
f 105/105/105 109/109/109 112/112/112
f 109/109/109 106/106/106 113/113/113
f 106/106/106 110/110/110 113/113/113
f 114/114/114 110/110/110 111/111/111
f 115/115/115 114/114/114 111/111/111
f 116/116/116 114/114/114 115/115/115
f 117/117/117 116/116/116 115/115/115
f 114/114/114 116/116/116 118/118/118
f 110/110/110 114/114/114 119/119/119
f 119/119/119 114/114/114 118/118/118
f 113/113/113 110/110/110 119/119/119
f 119/119/119 118/118/118 120/120/120
f 121/121/121 119/119/119 120/120/120
f 113/113/113 119/119/119 121/121/121
f 121/121/121 120/120/120 122/122/122
f 123/123/123 121/121/121 122/122/122
f 109/109/109 113/113/113 124/124/124
f 124/124/124 113/113/113 121/121/121
f 124/124/124 121/121/121 123/123/123
f 125/125/125 124/124/124 123/123/123
f 112/112/112 109/109/109 124/124/124
f 112/112/112 124/124/124 125/125/125
f 126/126/126 112/112/112 125/125/125
f 108/108/108 112/112/112 126/126/126
f 127/127/127 108/108/108 126/126/126
f 104/104/104 108/108/108 127/127/127
f 128/128/128 104/104/104 127/127/127
f 100/100/100 104/104/104 128/128/128
f 129/129/129 100/100/100 128/128/128
f 89/89/89 100/100/100 129/129/129
f 130/130/130 89/89/89 129/129/129
f 131/131/131 89/89/89 130/130/130
f 132/132/132 131/131/131 130/130/130
f 135/135/135 134/134/134 133/133/133
f 136/136/136 135/135/135 133/133/133
f 137/137/137 135/135/135 136/136/136
f 138/138/138 137/137/137 136/136/136
f 139/139/139 137/137/137 138/138/138
f 140/140/140 139/139/139 138/138/138
f 140/140/140 138/138/138 141/141/141
f 142/142/142 140/140/140 141/141/141
f 138/138/138 136/136/136 143/143/143
f 141/141/141 138/138/138 143/143/143
f 142/142/142 141/141/141 144/144/144
f 145/145/145 142/142/142 144/144/144
f 136/136/136 133/133/133 146/146/146
f 143/143/143 136/136/136 146/146/146
f 141/141/141 143/143/143 147/147/147
f 144/144/144 141/141/141 147/147/147
f 145/145/145 144/144/144 148/148/148
f 149/149/149 145/145/145 148/148/148
f 143/143/143 146/146/146 150/150/150
f 147/147/147 143/143/143 150/150/150
f 144/144/144 147/147/147 151/151/151
f 148/148/148 144/144/144 151/151/151
f 149/149/149 148/148/148 152/152/152
f 153/153/153 149/149/149 152/152/152
f 147/147/147 150/150/150 154/154/154
f 151/151/151 147/147/147 154/154/154
f 148/148/148 151/151/151 155/155/155
f 152/152/152 148/148/148 155/155/155
f 153/153/153 152/152/152 156/156/156
f 157/157/157 153/153/153 156/156/156
f 151/151/151 154/154/154 158/158/158
f 155/155/155 151/151/151 158/158/158
f 155/155/155 159/159/159 152/152/152
f 159/159/159 156/156/156 152/152/152
f 157/157/157 156/156/156 160/160/160
f 161/161/161 157/157/157 160/160/160
f 161/161/161 160/160/160 162/162/162
f 163/163/163 161/161/161 162/162/162
f 164/164/164 162/162/162 160/160/160
f 165/165/165 160/160/160 156/156/156
f 165/165/165 164/164/164 160/160/160
f 159/159/159 165/165/165 156/156/156
f 166/166/166 164/164/164 165/165/165
f 167/167/167 166/166/166 165/165/165
f 167/167/167 165/165/165 159/159/159
f 168/168/168 166/166/166 167/167/167
f 169/169/169 168/168/168 167/167/167
f 170/170/170 159/159/159 155/155/155
f 170/170/170 167/167/167 159/159/159
f 169/169/169 167/167/167 170/170/170
f 171/171/171 169/169/169 170/170/170
f 158/158/158 170/170/170 155/155/155
f 171/171/171 170/170/170 158/158/158
f 172/172/172 171/171/171 158/158/158
f 172/172/172 158/158/158 154/154/154
f 173/173/173 172/172/172 154/154/154
f 173/173/173 154/154/154 150/150/150
f 174/174/174 173/173/173 150/150/150
f 174/174/174 150/150/150 146/146/146
f 175/175/175 174/174/174 146/146/146
f 175/175/175 146/146/146 133/133/133
f 176/176/176 175/175/175 133/133/133
f 176/176/176 133/133/133 177/177/177
f 178/178/178 176/176/176 177/177/177
