g SeparateMesh_Monster_ThugBulkyAbuser_Model_ThugBulky_Hair_002_LOD1
v -0.01451772 0.07026284 1.9522976
v -0.015544805 0.069887675 1.975751
v -0.010789421 0.06543319 1.9512956
v -0.010789422 -0.060744118 2.0501027
v -0.018027484 -0.058500107 2.0664072
v -0.01802749 -0.12294906 2.0457065
v -0.01794111 0.012088287 2.0535336
v -0.018027484 -0.058500107 2.0664072
v -0.010789421 0.000797804 2.0448885
v -0.016867744 0.05905711 2.0182254
v -0.01794111 0.012088287 2.0535336
v -0.010789421 0.048569363 2.012717
v -0.015544805 0.069887675 1.975751
v -0.016867744 0.05905711 2.0182254
v -0.0107894195 0.06136175 1.9731287
v -0.010789421 0.06543319 1.9512956
v -0.015544805 0.069887675 1.975751
v -0.01802749 -0.12294906 2.0457065
v -0.010789425 -0.115203485 2.026323
v -0.01802749 -0.15823473 2.011766
v -0.014815243 -0.15176597 2.0005717
v -0.01802749 -0.12294906 2.0457065
v -0.014815243 -0.15176597 2.0005717
v -0.010789425 -0.13662836 1.9966602
v -0.014815243 -0.15176597 2.0005717
v -0.010789425 -0.14595713 1.9789468
v 0.014517717 0.07026284 1.9522976
v 0.0107894195 0.06543319 1.9512956
v 0.015544803 0.069887675 1.975751
v 0.01078942 -0.060744118 2.0501027
v 0.018027488 -0.12294906 2.0457065
v 0.018027483 -0.058500107 2.0664072
v 0.017941108 0.012088287 2.0535336
v 0.018027483 -0.058500107 2.0664072
v 0.0107894195 0.000797804 2.0448885
v 0.016867742 0.05905711 2.0182254
v 0.017941108 0.012088287 2.0535336
v 0.0107894195 0.048569363 2.012717
v 0.015544803 0.069887675 1.975751
v 0.016867742 0.05905711 2.0182254
v 0.010789417 0.06136175 1.9731287
v 0.015544803 0.069887675 1.975751
v 0.0107894195 0.06543319 1.9512956
v 0.010789422 -0.115203485 2.026323
v 0.018027488 -0.12294906 2.0457065
v 0.018027488 -0.15823473 2.011766
v 0.014815241 -0.15176597 2.0005717
v 0.014815241 -0.15176597 2.0005717
v 0.018027488 -0.12294906 2.0457065
v 0.010789422 -0.13662836 1.9966602
v 0.010789422 -0.14595713 1.9789468
v 0.014815241 -0.15176597 2.0005717
v 0.010789422 -0.14595713 1.9789468
v -0.010789425 -0.14595713 1.9789468
v -0.018027484 -0.16616774 2.0015266
v 0.018027483 -0.16616774 2.0015266
v -0.01802749 -0.15823473 2.011766
v 0.018027488 -0.12294906 2.0457065
v 0.018027488 -0.15823473 2.011766
v -0.01802749 -0.12294906 2.0457065
v -0.018027484 -0.058500107 2.0664072
v 0.018027483 -0.058500107 2.0664072
v -0.01794111 0.012088287 2.0535336
v 0.018027483 -0.058500107 2.0664072
v 0.017941108 0.012088287 2.0535336
v -0.015544805 0.069887675 1.975751
v 0.016867742 0.05905711 2.0182254
v -0.016867744 0.05905711 2.0182254
v 0.015544803 0.069887675 1.975751
v -0.015544805 0.069887675 1.975751
v 0.014517717 0.07026284 1.9522976
v -0.01451772 0.07026284 1.9522976
v -0.014815243 -0.15176597 2.0005717
v -0.018027484 -0.16164981 2.0073297
v -0.018027484 -0.16616774 2.0015266
v -0.010789425 -0.14595713 1.9789468
v -0.01802749 -0.15823473 2.011766
v 0.018027488 -0.15823473 2.011766
v 0.014815241 -0.15176597 2.0005717
v -0.014815243 -0.15176597 2.0005717
v -0.014815243 -0.15176597 2.0005717
v 0.014815241 -0.15176597 2.0005717
v 0.018027483 -0.16164981 2.0073297
v -0.018027484 -0.16164981 2.0073297
v -0.010789421 0.06543319 1.9512956
v 0.0107894195 0.06543319 1.9512956
v 0.014517717 0.07026284 1.9522976
v -0.01451772 0.07026284 1.9522976
v -0.016867744 0.05905711 2.0182254
v 0.016867742 0.05905711 2.0182254
v 0.017941108 0.012088287 2.0535336
v -0.01794111 0.012088287 2.0535336
v -0.018027484 -0.16164981 2.0073297
v 0.018027483 -0.16164981 2.0073297
v 0.018027483 -0.16616774 2.0015266
v -0.018027484 -0.16616774 2.0015266
v 0.014815241 -0.15176597 2.0005717
v 0.010789422 -0.14595713 1.9789468
v 0.018027483 -0.16616774 2.0015266
v 0.018027483 -0.16164981 2.0073297
v 0.082201764 0.01409735 1.9246638
v 0.06706507 0.039838072 1.9116083
v 0.07726199 0.014140794 1.9061053
v 0.07931369 -0.0021886944 1.9058857
v 0.08047506 -0.009871161 1.9075416
v 0.08303735 -0.011097271 1.9248602
v 0.088300206 -0.008625243 1.950875
v 0.084233284 -0.020818517 1.9312079
v 0.08242777 -0.033422 1.9283572
v 0.07931524 0.036488038 1.946092
v 0.049799103 0.05361108 1.9226664
v 0.04607237 0.06020247 1.9564995
v 0.029957099 0.060120214 1.9301382
v -0 0.06611175 1.9624085
v -0 0.062388986 1.9338123
v -0.029957099 0.058842137 1.9301382
v -0.04428282 0.06071272 1.9564995
v -0.049799103 0.052333005 1.9226664
v -0.08095465 0.03699829 1.946092
v -0.06706507 0.039838072 1.9116083
v -0 0.05115533 2.014672
v 0.04033932 0.040707603 2.0121262
v -0 0.0019564736 2.0479484
v -0.04033932 0.040707603 2.0121262
v -0.082201764 0.01409735 1.9246638
v -0.07726199 0.014140794 1.9061053
v -0.07931369 -0.0021886944 1.9058857
v -0.08047506 -0.009871161 1.9075416
v -0.08303735 -0.011097271 1.9248602
v -0.0882819 -0.008625244 1.950875
v -0.08461902 -0.020818517 1.9312079
v -0.08281351 -0.033422 1.9283572
v -0.08351757 -0.025112897 1.9921341
v -0.08222774 -0.053376958 1.944208
v -0.074684694 0.013385575 2.0033574
v -0.08082693 -0.055612504 1.9205297
v -0.08086754 -0.044564657 1.9175589
v -0.07670198 -0.058512848 1.8939166
v -0.076377526 -0.053634528 1.8940656
v -0.073076636 -0.059902657 1.8774313
v -0.07649336 -0.062043454 1.8942411
v -0.07716429 -0.065488026 1.9212886
v -0.07757139 -0.06906886 1.9463223
v -0.077212885 -0.06804134 1.9747986
v -0.073516555 -0.08425384 1.9580795
v -0.0671407 -0.10452063 1.9672832
v -0.06299045 -0.09147686 2.0047104
v -0.059995636 -0.1170552 1.9851941
v -0.060923558 -0.04418082 2.0229032
v -0.05244703 -0.0011705717 2.0310423
v -0.0326182 -0.0020651354 2.043034
v -0.03176005 -0.055430453 2.045097
v -0.03175695 -0.110249706 2.0226598
v -0 -0.05979181 2.0528684
v -0.033836838 -0.13453732 1.9960486
v -0 -0.14096534 1.9988278
v -0.040143598 -0.1336597 1.9846008
v -0.017775994 -0.1449543 1.9810705
v -0 -0.14949359 1.9755214
v 0.017775994 -0.1449543 1.9810705
v -0 -0.11796138 2.0284758
v 0.033836838 -0.13453732 1.9960486
v 0.040143598 -0.1336597 1.9846008
v 0.059995636 -0.1170552 1.9851941
v 0.03175695 -0.110249706 2.0226598
v 0.03176005 -0.055430453 2.045097
v 0.06299045 -0.09147686 2.0047104
v 0.0671407 -0.10452063 1.9672832
v 0.0326182 -0.0020651354 2.043034
v 0.061903782 -0.04418082 2.0229032
v 0.077212885 -0.06804134 1.9747986
v 0.073516555 -0.08425384 1.9580795
v 0.07757139 -0.06906886 1.9463223
v 0.053427253 -0.0015849995 2.0302386
v 0.07440284 0.016309664 2.0033574
v 0.08293285 -0.025112897 1.9921341
v 0.08556391 -0.053376958 1.944208
v 0.077561356 -0.06629573 1.9276309
v 0.0814286 -0.055002656 1.9262286
v 0.076882444 -0.062471613 1.8976032
v 0.08122996 -0.04282958 1.920805
v 0.07721426 -0.058083177 1.8973058
v 0.073076636 -0.059902657 1.8774313
v 0.07702662 -0.05249501 1.8973092
vt 0.017054992 0.6501981
vt 0.024034904 0.5543035
vt 0.04846629 0.65659475
vt 0.5559539 0.29722196
vt 0.5542036 0.2096376
vt 0.80612403 0.31918758
vt 0.25943226 0.23805547
vt 0.5542036 0.2096376
vt 0.27765903 0.30207348
vt 0.080757 0.39832205
vt 0.25943226 0.23805547
vt 0.12851796 0.42472708
vt 0.024034904 0.5543035
vt 0.080757 0.39832205
vt 0.066233635 0.5676868
vt 0.04846629 0.65659475
vt 0.024034904 0.5543035
vt 0.80612403 0.31918758
vt 0.76605684 0.40226722
vt 0.9422539 0.4553076
vt 0.9117326 0.5000396
vt 0.80612403 0.31918758
vt 0.9117326 0.5000396
vt 0.8469284 0.5125294
vt 0.9117326 0.5000396
vt 0.8799158 0.58771324
vt 0.017054992 0.6501981
vt 0.04846629 0.65659475
vt 0.024034904 0.5543035
vt 0.5559539 0.29722196
vt 0.80612403 0.31918758
vt 0.5542036 0.2096376
vt 0.25943226 0.23805547
vt 0.5542036 0.2096376
vt 0.27765903 0.30207348
vt 0.080757 0.39832205
vt 0.25943226 0.23805547
vt 0.12851796 0.42472708
vt 0.024034904 0.5543035
vt 0.080757 0.39832205
vt 0.066233635 0.5676868
vt 0.024034904 0.5543035
vt 0.04846629 0.65659475
vt 0.76605684 0.40226722
vt 0.80612403 0.31918758
vt 0.9422539 0.4553076
vt 0.9117326 0.5000396
vt 0.9117326 0.5000396
vt 0.80612403 0.31918758
vt 0.8469284 0.5125294
vt 0.8799158 0.58771324
vt 0.9117326 0.5000396
vt 0.98313147 0.25015932
vt 0.98313147 0.13758521
vt 0.88861173 0.13758521
vt 0.88861173 0.25015932
vt 0.9796877 0.010010183
vt 0.83377796 0.12258428
vt 0.9796877 0.12258428
vt 0.83377796 0.010010183
vt 0.62408185 0.010010183
vt 0.62408185 0.12258428
vt 0.39750275 0.010010183
vt 0.62408185 0.12258428
vt 0.39750275 0.12258428
vt 0.08821387 0.010010183
vt 0.21360506 0.12258428
vt 0.21360506 0.010010183
vt 0.08821387 0.12258428
vt 0.08821387 0.010010183
vt 0.015840355 0.12258428
vt 0.015840355 0.010010183
vt 0.9117326 0.5000396
vt 0.9542888 0.47467983
vt 0.9712377 0.49996388
vt 0.8799158 0.58771324
vt 0.7267131 0.13758521
vt 0.7267131 0.25015932
vt 0.76660585 0.25015932
vt 0.76660585 0.13758521
vt 0.78683335 0.13758521
vt 0.78683335 0.25015932
vt 0.8238059 0.25015932
vt 0.8238059 0.13758521
vt 0.015544503 0.16343951
vt 0.015544503 0.23027015
vt 0.03068981 0.25314188
vt 0.03068981 0.14056778
vt 0.21360506 0.010010183
vt 0.21360506 0.12258428
vt 0.39750275 0.12258428
vt 0.39750275 0.010010183
vt 0.84646076 0.13758521
vt 0.84646076 0.25015932
vt 0.874048 0.25015932
vt 0.874048 0.13758521
vt 0.9117326 0.5000396
vt 0.8799158 0.58771324
vt 0.9712377 0.49996388
vt 0.9542888 0.47467983
vt 0.785248 0.87275136
vt 0.74593365 0.95670986
vt 0.8109318 0.91176534
vt 0.8438875 0.8812038
vt 0.85610443 0.8632885
vt 0.8326617 0.82151735
vt 0.7765703 0.7670451
vt 0.833794 0.7605045
vt 0.85095334 0.7182636
vt 0.7128489 0.88307744
vt 0.6718031 0.97867215
vt 0.61899865 0.9176899
vt 0.59233093 0.9904025
vt 0.4993953 0.9302284
vt 0.4993953 0.9920429
vt 0.40646258 0.9904025
vt 0.3797945 0.9176933
vt 0.326993 0.9786775
vt 0.28594512 0.8830847
vt 0.25286382 0.9567189
vt 0.4993953 0.82768804
vt 0.5861362 0.80810165
vt 0.4993953 0.728136
vt 0.41265327 0.80810297
vt 0.2135466 0.87276304
vt 0.18786521 0.9117782
vt 0.15490824 0.88121974
vt 0.14268965 0.86330545
vt 0.16612867 0.82153344
vt 0.22221595 0.7670578
vt 0.16499229 0.76052415
vt 0.14783086 0.71829176
vt 0.29461843 0.6873571
vt 0.17560759 0.6541351
vt 0.34712392 0.76462156
vt 0.12110217 0.6748375
vt 0.11952867 0.7030331
vt 0.056447458 0.6821024
vt 0.058913995 0.69374657
vt 0.015966136 0.687413
vt 0.05470757 0.6732294
vt 0.11567261 0.64964086
vt 0.17164563 0.61909306
vt 0.24371134 0.58983964
vt 0.2017319 0.5521591
vt 0.23605068 0.48527136
vt 0.32739764 0.5139599
vt 0.30655116 0.43912
vt 0.3617121 0.62189746
vt 0.39396662 0.71227777
vt 0.43719336 0.72326857
vt 0.4325092 0.5916847
vt 0.41679686 0.46569705
vt 0.4993953 0.5808092
vt 0.40545824 0.39119685
vt 0.4993953 0.3734444
vt 0.3666168 0.38086942
vt 0.4352399 0.33928552
vt 0.4993953 0.3181451
vt 0.56354696 0.3392842
vt 0.4993953 0.44771326
vt 0.5933271 0.39119494
vt 0.63216716 0.38086703
vt 0.6922295 0.4391157
vt 0.5819887 0.4656952
vt 0.5662768 0.5916835
vt 0.6713821 0.5139554
vt 0.76272523 0.48526365
vt 0.56159395 0.72326815
vt 0.63707006 0.62189466
vt 0.75506043 0.5898292
vt 0.79703945 0.55214846
vt 0.8271116 0.6190734
vt 0.604819 0.7122761
vt 0.6516632 0.76461816
vt 0.70416296 0.687351
vt 0.82315737 0.65411615
vt 0.8689984 0.644052
vt 0.86378723 0.6731709
vt 0.9365384 0.67003703
vt 0.8711551 0.70483434
vt 0.9340837 0.6811836
vt 0.9828122 0.6871996
vt 0.9314641 0.694831
vn -0.79523945 -0.60466033 -0.044497963
vn -0.877713 -0.46541157 -0.11406961
vn -0.8200289 -0.5696048 -0.055703558
vn -0.90064466 0.050140273 -0.43165395
vn -0.8922836 0.021620039 -0.45095733
vn -0.94621545 0.17863204 -0.26975343
vn -0.881791 -0.2035188 -0.42547005
vn -0.8922836 0.021620039 -0.45095733
vn -0.8829415 -0.13995226 -0.44813815
vn -0.89118767 -0.36821207 -0.26496089
vn -0.881791 -0.2035188 -0.42547005
vn -0.89052063 -0.35622573 -0.28297752
vn -0.877713 -0.46541157 -0.11406961
vn -0.89118767 -0.36821207 -0.26496089
vn -0.8833897 -0.45465884 -0.11361273
vn -0.8200289 -0.5696048 -0.055703558
vn -0.877713 -0.46541157 -0.11406961
vn -0.94621545 0.17863204 -0.26975343
vn -0.9474385 0.20124862 -0.24871555
vn -0.9687797 0.17186987 -0.1786804
vn -0.964322 0.21401253 -0.15582591
vn -0.94621545 0.17863204 -0.26975343
vn -0.964322 0.21401253 -0.15582591
vn -0.954908 0.24152806 -0.17266978
vn -0.964322 0.21401253 -0.15582591
vn -0.9677411 0.21920498 -0.12420285
vn 0.79523945 -0.60466033 -0.044497963
vn 0.8200289 -0.5696048 -0.055703558
vn 0.877713 -0.46541157 -0.11406961
vn 0.90064466 0.050140273 -0.43165395
vn 0.94621545 0.17863204 -0.26975343
vn 0.8922836 0.021620039 -0.45095733
vn 0.881791 -0.20351882 -0.42547005
vn 0.8922836 0.021620039 -0.45095733
vn 0.88294137 -0.13995224 -0.4481381
vn 0.89118767 -0.36821207 -0.26496089
vn 0.881791 -0.20351882 -0.42547005
vn 0.89052063 -0.35622576 -0.2829775
vn 0.877713 -0.46541157 -0.11406961
vn 0.89118767 -0.36821207 -0.26496089
vn 0.8833897 -0.45465884 -0.11361273
vn 0.877713 -0.46541157 -0.11406961
vn 0.8200289 -0.5696048 -0.055703558
vn 0.9474385 0.20124865 -0.24871555
vn 0.94621545 0.17863204 -0.26975343
vn 0.9687797 0.17186987 -0.1786804
vn 0.964322 0.21401255 -0.15582591
vn 0.964322 0.21401255 -0.15582591
vn 0.94621545 0.17863204 -0.26975343
vn 0.954908 0.24152808 -0.17266978
vn 0.9677411 0.21920498 -0.12420285
vn 0.964322 0.21401255 -0.15582591
vn -0 -0.7451163 -0.6669346
vn -0 -0.7451163 -0.6669346
vn -0 -0.7451163 -0.6669346
vn -0 -0.7451163 -0.6669346
vn -0 -0.6932382 0.72070855
vn -0 -0.51274544 0.8585407
vn -0 -0.6932382 0.72070855
vn -0 -0.51274544 0.8585407
vn -0 -0.06524592 0.99786925
vn -0 -0.06524592 0.99786925
vn -0 0.3995542 0.9167096
vn -0 -0.06524592 0.99786925
vn -0 0.3995542 0.9167096
vn -0 0.9908195 0.13519141
vn -0 0.82906026 0.55915934
vn -0 0.82906026 0.55915934
vn -0 0.9908195 0.13519141
vn -0 0.9908195 0.13519141
vn -0 0.9998721 0.015994204
vn -0 0.9998721 0.015994204
vn -0.964322 0.21401253 -0.15582591
vn -0.9692415 0.20739922 -0.13250089
vn -0.9692415 0.20739922 -0.13250089
vn -0.9677411 0.21920498 -0.12420285
vn -0 -0.8658309 -0.50033677
vn -0 -0.8658309 -0.50033677
vn -0 -0.8658309 -0.50033677
vn -0 -0.8658309 -0.50033677
vn -0 0.56442726 0.82548285
vn -0 0.56442726 0.82548285
vn -0 0.5644272 0.82548285
vn -0 0.5644272 0.82548285
vn -0 0.20315106 -0.9791474
vn -0 0.20315106 -0.9791474
vn -0 0.20315109 -0.9791474
vn -0 0.20315109 -0.9791474
vn -0 0.82906026 0.55915934
vn -0 0.82906026 0.55915934
vn -0 0.3995542 0.9167096
vn -0 0.3995542 0.9167096
vn -0 -0.78906876 0.61430484
vn -0 -0.78906876 0.61430484
vn -0 -0.78906876 0.61430484
vn -0 -0.78906876 0.61430484
vn 0.964322 0.21401255 -0.15582591
vn 0.9677411 0.21920498 -0.12420285
vn 0.9692415 0.20739925 -0.13250089
vn 0.9692415 0.20739923 -0.13250089
vn 0.957093 0.21519639 -0.19407125
vn 0.7597842 0.6198609 -0.19621511
vn 0.9311871 0.2547771 -0.2607282
vn 0.97804093 0.072409496 -0.19542989
vn 0.9842374 0.050229225 -0.16956976
vn 0.9816627 0.027575372 -0.1886211
vn 0.9979747 0.06360884 0.0006969311
vn 0.984574 -0.06915487 -0.16072255
vn 0.9801974 -0.038864266 -0.19417164
vn 0.82954764 0.55765754 0.02947728
vn 0.4683074 0.87446654 -0.12647738
vn 0.39502275 0.9116757 0.11315707
vn 0.16194932 0.9794002 -0.1206139
vn -0.0034107114 0.99315095 0.11678843
vn -0.021129493 0.991411 -0.12906504
vn -0.16121481 0.97427636 -0.15746576
vn -0.3638509 0.92687845 0.09224309
vn -0.435713 0.8869736 -0.15307495
vn -0.828938 0.5588734 0.022854311
vn -0.7412672 0.6319724 -0.22612797
vn 0.00033278076 0.809768 0.58675003
vn 0.3897289 0.72271204 0.5707878
vn -0 0.33243293 0.94312686
vn -0.3959155 0.7192656 0.5708835
vn -0.95633376 0.1988041 -0.21424901
vn -0.92917514 0.24608228 -0.27582073
vn -0.97804093 0.07240949 -0.19542985
vn -0.9842374 0.05022922 -0.16956973
vn -0.9812593 0.037414476 -0.18902452
vn -0.99934727 0.03576506 0.005076973
vn -0.9872787 -0.05744334 -0.14825965
vn -0.9906542 -0.09512071 -0.09775639
vn -0.94192225 -0.037563153 0.33372355
vn -0.97939134 -0.20153719 -0.013249746
vn -0.8059518 0.35552374 0.47333357
vn -0.97689307 -0.1924209 -0.09302765
vn -0.9888256 -0.036413524 -0.1445617
vn -0.9812042 -0.009641721 -0.1927315
vn -0.97375554 0.07136641 -0.21611772
vn -0.9765015 0.0075148805 -0.21537957
vn -0.9805077 -0.1087045 -0.16367085
vn -0.942289 -0.3303417 -0.054459855
vn -0.95911056 -0.28303164 -6.834086E-05
vn -0.9604002 -0.24104278 0.13974933
vn -0.96413237 -0.26221782 0.041117966
vn -0.94358885 -0.28420806 0.16989961
vn -0.7968392 -0.33696574 0.5014993
vn -0.78334713 -0.4713876 0.405168
vn -0.72120273 -0.11252948 0.6835231
vn -0.61799264 0.21685018 0.75568587
vn -0.3571111 0.26547807 0.89554065
vn -0.41756427 -0.15766287 0.89486444
vn -0.44080955 -0.50826037 0.7398367
vn -0 -0.17791499 0.98404586
vn -0.43532047 -0.7805392 0.44861412
vn -0 -0.8543098 0.5197642
vn -0.54362994 -0.80493766 0.23778534
vn -0.21631522 -0.91338885 0.3448602
vn -0 -0.9236041 0.38334802
vn 0.21631522 -0.91338885 0.3448602
vn -0 -0.5984425 0.8011658
vn 0.43532044 -0.7805392 0.44861418
vn 0.54362994 -0.8049376 0.23778537
vn 0.783347 -0.47138757 0.405168
vn 0.43937021 -0.5094869 0.7398492
vn 0.41460282 -0.15805401 0.8961715
vn 0.7969211 -0.33876985 0.5001518
vn 0.94358885 -0.28420806 0.16989961
vn 0.3571748 0.26702645 0.89505476
vn 0.72893137 -0.11277122 0.6752345
vn 0.95206755 -0.25822467 0.16397384
vn 0.96413237 -0.26221782 0.041117966
vn 0.9207117 -0.38962543 -0.02195656
vn 0.6224732 0.21055442 0.75378644
vn 0.796289 0.387821 0.46423984
vn 0.9384991 -0.033006392 0.3437006
vn 0.9726777 -0.22670272 -0.05003849
vn 0.9306476 -0.3514606 -0.10183561
vn 0.9719169 -0.19066802 -0.13792449
vn 0.973042 -0.18811522 -0.13342309
vn 0.99115855 -0.035635903 -0.12780806
vn 0.9829353 -0.080023274 -0.16563353
vn 0.9791743 -0.021243533 -0.2019067
vn 0.9800663 0.03302649 -0.1959067
g SeparateMesh_Monster_ThugBulkyAbuser_Model_ThugBulky_Hair_002_LOD1_0
f 3/3/3 2/2/2 1/1/1
f 6/6/6 5/5/5 4/4/4
f 8/8/8 7/7/7 4/4/4
f 7/7/7 9/9/9 4/4/4
f 11/11/11 10/10/10 9/9/9
f 10/10/10 12/12/12 9/9/9
f 14/14/14 13/13/13 12/12/12
f 13/13/13 15/15/15 12/12/12
f 15/15/15 17/17/17 16/16/16
f 19/19/19 18/18/18 4/4/4
f 18/18/18 21/21/21 20/20/20
f 23/23/23 22/22/22 19/19/19
f 24/24/24 23/23/23 19/19/19
f 26/26/26 25/25/25 24/24/24
f 29/29/29 28/28/28 27/27/27
f 32/32/32 31/31/31 30/30/30
f 34/34/34 30/30/30 33/33/33
f 30/30/30 35/35/35 33/33/33
f 37/37/37 35/35/35 36/36/36
f 35/35/35 38/38/38 36/36/36
f 40/40/40 38/38/38 39/39/39
f 38/38/38 41/41/41 39/39/39
f 41/41/41 43/43/43 42/42/42
f 45/45/45 44/44/44 30/30/30
f 47/47/47 45/45/45 46/46/46
f 44/44/44 49/49/49 48/48/48
f 50/50/50 44/44/44 48/48/48
f 52/52/52 51/51/51 50/50/50
f 55/55/55 54/54/54 53/53/53
f 56/56/56 55/55/55 53/53/53
f 59/59/59 58/58/58 57/57/57
f 58/58/58 60/60/60 57/57/57
f 60/60/60 58/58/58 61/61/61
f 58/58/58 62/62/62 61/61/61
f 61/61/61 64/64/64 63/63/63
f 64/64/64 65/65/65 63/63/63
f 68/68/68 67/67/67 66/66/66
f 67/67/67 69/69/69 66/66/66
f 69/69/69 71/71/71 70/70/70
f 71/71/71 72/72/72 70/70/70
f 75/75/75 74/74/74 73/73/73
f 76/76/76 75/75/75 73/73/73
f 79/79/79 78/78/78 77/77/77
f 80/80/80 79/79/79 77/77/77
f 83/83/83 82/82/82 81/81/81
f 84/84/84 83/83/83 81/81/81
f 87/87/87 86/86/86 85/85/85
f 88/88/88 87/87/87 85/85/85
f 91/91/91 90/90/90 89/89/89
f 92/92/92 91/91/91 89/89/89
f 95/95/95 94/94/94 93/93/93
f 96/96/96 95/95/95 93/93/93
f 99/99/99 98/98/98 97/97/97
f 100/100/100 99/99/99 97/97/97
f 103/103/103 102/102/102 101/101/101
f 104/104/104 103/103/103 101/101/101
f 104/104/104 101/101/101 105/105/105
f 101/101/101 106/106/106 105/105/105
f 107/107/107 106/106/106 101/101/101
f 106/106/106 107/107/107 108/108/108
f 107/107/107 109/109/109 108/108/108
f 102/102/102 110/110/110 101/101/101
f 107/107/107 101/101/101 110/110/110
f 102/102/102 111/111/111 110/110/110
f 111/111/111 112/112/112 110/110/110
f 113/113/113 112/112/112 111/111/111
f 113/113/113 114/114/114 112/112/112
f 115/115/115 114/114/114 113/113/113
f 114/114/114 115/115/115 116/116/116
f 114/114/114 116/116/116 117/117/117
f 116/116/116 118/118/118 117/117/117
f 117/117/117 118/118/118 119/119/119
f 118/118/118 120/120/120 119/119/119
f 114/114/114 121/121/121 112/112/112
f 121/121/121 114/114/114 117/117/117
f 112/112/112 122/122/122 110/110/110
f 121/121/121 122/122/122 112/112/112
f 121/121/121 123/123/123 122/122/122
f 124/124/124 121/121/121 117/117/117
f 117/117/117 119/119/119 124/124/124
f 123/123/123 121/121/121 124/124/124
f 119/119/119 120/120/120 125/125/125
f 120/120/120 126/126/126 125/125/125
f 126/126/126 127/127/127 125/125/125
f 125/125/125 127/127/127 128/128/128
f 129/129/129 125/125/125 128/128/128
f 129/129/129 130/130/130 125/125/125
f 125/125/125 130/130/130 119/119/119
f 130/130/130 129/129/129 131/131/131
f 132/132/132 130/130/130 131/131/131
f 119/119/119 130/130/130 133/133/133
f 134/134/134 130/130/130 132/132/132
f 130/130/130 134/134/134 133/133/133
f 124/124/124 119/119/119 135/135/135
f 135/135/135 119/119/119 133/133/133
f 136/136/136 134/134/134 132/132/132
f 136/136/136 132/132/132 137/137/137
f 137/137/137 138/138/138 136/136/136
f 139/139/139 138/138/138 137/137/137
f 139/139/139 140/140/140 138/138/138
f 141/141/141 138/138/138 140/140/140
f 136/136/136 138/138/138 141/141/141
f 142/142/142 136/136/136 141/141/141
f 136/136/136 142/142/142 134/134/134
f 142/142/142 143/143/143 134/134/134
f 144/144/144 134/134/134 143/143/143
f 134/134/134 144/144/144 133/133/133
f 145/145/145 144/144/144 143/143/143
f 145/145/145 146/146/146 144/144/144
f 144/144/144 146/146/146 147/147/147
f 147/147/147 133/133/133 144/144/144
f 146/146/146 148/148/148 147/147/147
f 149/149/149 133/133/133 147/147/147
f 135/135/135 133/133/133 149/149/149
f 150/150/150 135/135/135 149/149/149
f 124/124/124 135/135/135 150/150/150
f 151/151/151 124/124/124 150/150/150
f 150/150/150 149/149/149 151/151/151
f 151/151/151 123/123/123 124/124/124
f 149/149/149 152/152/152 151/151/151
f 152/152/152 149/149/149 147/147/147
f 151/151/151 152/152/152 123/123/123
f 153/153/153 147/147/147 148/148/148
f 153/153/153 152/152/152 147/147/147
f 152/152/152 154/154/154 123/123/123
f 154/154/154 152/152/152 153/153/153
f 155/155/155 153/153/153 148/148/148
f 155/155/155 156/156/156 153/153/153
f 157/157/157 155/155/155 148/148/148
f 158/158/158 155/155/155 157/157/157
f 155/155/155 158/158/158 156/156/156
f 158/158/158 159/159/159 156/156/156
f 159/159/159 160/160/160 156/156/156
f 161/161/161 154/154/154 153/153/153
f 156/156/156 161/161/161 153/153/153
f 160/160/160 162/162/162 156/156/156
f 160/160/160 163/163/163 162/162/162
f 162/162/162 163/163/163 164/164/164
f 161/161/161 156/156/156 165/165/165
f 156/156/156 162/162/162 165/165/165
f 154/154/154 161/161/161 165/165/165
f 162/162/162 164/164/164 165/165/165
f 154/154/154 166/166/166 123/123/123
f 166/166/166 154/154/154 165/165/165
f 164/164/164 167/167/167 165/165/165
f 166/166/166 165/165/165 167/167/167
f 167/167/167 164/164/164 168/168/168
f 166/166/166 169/169/169 123/123/123
f 123/123/123 169/169/169 122/122/122
f 166/166/166 170/170/170 169/169/169
f 170/170/170 166/166/166 167/167/167
f 171/171/171 167/167/167 168/168/168
f 168/168/168 172/172/172 171/171/171
f 171/171/171 172/172/172 173/173/173
f 122/122/122 169/169/169 174/174/174
f 170/170/170 174/174/174 169/169/169
f 175/175/175 122/122/122 174/174/174
f 175/175/175 174/174/174 170/170/170
f 110/110/110 122/122/122 175/175/175
f 110/110/110 175/175/175 107/107/107
f 170/170/170 167/167/167 176/176/176
f 176/176/176 175/175/175 170/170/170
f 176/176/176 167/167/167 171/171/171
f 107/107/107 175/175/175 176/176/176
f 177/177/177 171/171/171 173/173/173
f 171/171/171 177/177/177 176/176/176
f 177/177/177 107/107/107 176/176/176
f 173/173/173 178/178/178 177/177/177
f 107/107/107 177/177/177 109/109/109
f 178/178/178 179/179/179 177/177/177
f 177/177/177 179/179/179 109/109/109
f 178/178/178 180/180/180 179/179/179
f 109/109/109 179/179/179 181/181/181
f 180/180/180 182/182/182 179/179/179
f 182/182/182 181/181/181 179/179/179
f 182/182/182 180/180/180 183/183/183
f 184/184/184 181/181/181 182/182/182
f 183/183/183 184/184/184 182/182/182
