g SeparateMesh_Monster_ThugBulkyAbuser_Model_ThugBulky_Hair_003
v 0.082201764 0.01409735 1.9246638
v 0.06706507 0.039838072 1.9116083
v 0.07726199 0.014140794 1.9061053
v 0.07931369 -0.0021886944 1.9058857
v 0.08047506 -0.009871161 1.9075416
v 0.08303735 -0.011097271 1.9248602
v 0.07251855 0.03780275 1.9314693
v 0.049799103 0.052333005 1.9226664
v 0.084357105 0.009123075 1.9548779
v 0.0835146 -0.017241051 1.9306943
v 0.055677127 0.052992634 1.9396498
v 0.029957099 0.058842137 1.9301382
v 0.0750327 0.031750474 1.9607147
v 0.085348785 -0.026373561 1.9468722
v 0.08363848 -0.024395982 1.9317211
v 0.08177103 -0.033422 1.9283572
v 0.08222774 -0.053376958 1.944208
v 0.083151996 -0.0022252477 1.9857751
v 0.0814286 -0.055002656 1.9262286
v 0.08158798 -0.041050993 1.9233655
v 0.08087194 -0.04460817 1.9182445
v 0.085968606 -0.035778947 1.9753636
v 0.08022526 -0.05622236 1.914831
v 0.08050512 -0.04629973 1.9143128
v 0.0781761 -0.057941046 1.9012741
v 0.07790874 -0.050857786 1.9013383
v 0.07484631 -0.056411266 1.886793
v 0.076767236 -0.064680316 1.9149462
v 0.077561356 -0.06629573 1.9276309
v 0.07714419 -0.06296768 1.9014983
v 0.07773529 -0.06863505 1.9428788
v 0.074621834 -0.061119225 1.8869839
v 0.077407494 -0.06950267 1.9497657
v 0.07522785 -0.059084646 1.8865592
v 0.073076636 -0.059902657 1.8774313
v 0.079843976 -0.06185459 1.9654379
v 0.073516555 -0.08425384 1.9580795
v 0.07458179 -0.0742281 1.9841592
v 0.0671407 -0.10452063 1.9672832
v 0.07770628 -0.047207985 1.9976758
v 0.06299045 -0.09147686 2.0047104
v 0.059995636 -0.1170552 1.9851941
v 0.073527604 -0.015239416 2.009722
v 0.058786154 -0.027875874 2.028195
v 0.06329155 0.0063095926 2.0148551
v 0.06306096 -0.060485765 2.017611
v 0.043130994 -0.071573496 2.0320642
v 0.04326551 -0.10479518 2.0155563
v 0.07232793 0.02046156 1.9918597
v 0.058523417 0.047584556 1.9672128
v 0.04177495 -0.13048615 1.9936736
v 0.040143598 -0.1336597 1.9846008
v 0.019346757 -0.13858852 1.9984236
v 0.017775994 -0.1449543 1.9810705
v -0 -0.14096534 1.9988278
v -0 -0.14949359 1.9755214
v -0.017775994 -0.1449543 1.9810705
v 0.020248387 -0.114810474 2.0230422
v 0.056287088 0.03664846 1.9957365
v 0.031765077 0.06106902 1.9467367
v -0 0.06547181 1.9505316
v -0 0.062388986 1.9338123
v -0.029957099 0.058842137 1.9301382
v 0.03116567 0.05788289 1.9723983
v -0.019346757 -0.13858852 1.9984236
v -0.040143598 -0.1336597 1.9846008
v -0.04177495 -0.13048615 1.9936736
v -0.059995636 -0.1170552 1.9851941
v -0.04326551 -0.10479518 2.0155563
v -0.020248387 -0.114810474 2.0230422
v -0.06299045 -0.09147686 2.0047104
v -0.0671407 -0.10452063 1.9672832
v -0 -0.11751449 2.024179
v -0 -0.08009946 2.0432577
v -0.020993348 -0.078764245 2.0409253
v 0.020993348 -0.078764245 2.0409253
v -0.07458179 -0.0742281 1.9841592
v -0.073516555 -0.08425384 1.9580795
v -0.043130994 -0.071573496 2.0320642
v -0 -0.040451992 2.0501442
v 0.042161457 -0.034088556 2.0390892
v 0.020754414 -0.039231177 2.0473852
v 0.04162787 -0.0057441317 2.038291
v -0.06306096 -0.060485765 2.017611
v -0.058786154 -0.027875874 2.028195
v -0.079843976 -0.06185459 1.9654379
v -0.077407494 -0.06950267 1.9497657
v -0.08222774 -0.053376958 1.944208
v -0.07773529 -0.06863505 1.9428788
v -0.077561356 -0.06629573 1.9276309
v -0.07770628 -0.047207985 1.9976758
v -0.085968606 -0.035778947 1.9753636
v -0.042161457 -0.034088556 2.0390892
v -0.020754414 -0.039231177 2.0473852
v -0.0814286 -0.055002656 1.9262286
v -0.076767236 -0.064680316 1.9149462
v -0.073527604 -0.015239416 2.009722
v -0.06329155 0.0063095926 2.0148551
v -0.04162787 -0.0057441317 2.038291
v -0 -0.0029456103 2.047131
v -0.083151996 -0.0022252477 1.9857751
v -0.085348785 -0.026373561 1.9468722
v -0.08177103 -0.033422 1.9283572
v -0.08158798 -0.041050993 1.9233655
v -0.08363848 -0.024395982 1.9317211
v -0.08087194 -0.04460817 1.9182445
v -0.0835146 -0.017241051 1.9306943
v -0.08022526 -0.05622236 1.914831
v -0.08050512 -0.04629973 1.9143128
v -0.0781761 -0.057941046 1.9012741
v -0.07790874 -0.050857786 1.9013383
v -0.07714419 -0.06296768 1.9014983
v -0.07484631 -0.056411266 1.886793
v -0.074621834 -0.061119225 1.8869839
v -0.084357105 0.009123075 1.9548779
v -0.08303735 -0.011097271 1.9248602
v -0.082201764 0.01409735 1.9246638
v -0.08047506 -0.009871161 1.9075416
v -0.07931369 -0.0021886944 1.9058857
v -0.07726199 0.014140794 1.9061053
v -0.06706507 0.039838072 1.9116083
v -0.07522785 -0.059084646 1.8865592
v -0.073076636 -0.059902657 1.8774313
v -0.0750327 0.031750474 1.9607147
v -0.07251855 0.03780275 1.9314693
v -0.049799103 0.052333005 1.9226664
v -0.055677127 0.052992634 1.9396498
v -0.07232793 0.02046156 1.9918597
v -0.031765077 0.06106902 1.9467367
v -0.058523417 0.047584556 1.9672128
v -0.03116567 0.05788289 1.9723983
v -0.056287088 0.03664846 1.9957365
v -0 0.0624077 1.9742855
v -0 0.05360467 1.9997897
v -0.028735217 0.049405046 1.9986235
v 0.028735217 0.049405046 1.9986235
v -0.05021967 0.023689415 2.0171502
v -0 0.04011723 2.0208619
v 0.05021967 0.023689415 2.0171502
v -0.026115308 0.035909977 2.0196106
v -0 0.020527933 2.0372152
v 0.026115308 0.035909977 2.0196106
v -0.04378607 0.011432129 2.0310702
v 0.04378607 0.011432129 2.0310702
v 0.023446167 0.017659072 2.0354338
v -0.05244703 -0.0023662501 2.0297272
v -0.023446167 0.017659072 2.0354338
v -0.021612685 -0.0042688632 2.0442405
v 0.021612685 -0.0042688632 2.0442405
v 0.05244703 -0.0023662501 2.0297272
vt 0.785248 0.87275136
vt 0.74593365 0.95670986
vt 0.8109318 0.91176534
vt 0.8438875 0.8812038
vt 0.85610443 0.8632885
vt 0.8326617 0.82151735
vt 0.7256679 0.91365516
vt 0.6718031 0.97867215
vt 0.74967057 0.80725884
vt 0.83120155 0.7756851
vt 0.66244984 0.9391383
vt 0.59233093 0.9904025
vt 0.70002985 0.8524997
vt 0.8034701 0.7268313
vt 0.83638644 0.7453239
vt 0.85095334 0.7182636
vt 0.82315737 0.65411615
vt 0.7047432 0.7467005
vt 0.86378723 0.6731709
vt 0.8645058 0.7079923
vt 0.87780434 0.70167637
vt 0.7477544 0.6756655
vt 0.8915382 0.6764004
vt 0.8873711 0.701126
vt 0.92449594 0.6794883
vt 0.92101073 0.69621325
vt 0.9587372 0.69099236
vt 0.8971427 0.65511537
vt 0.8689984 0.644052
vt 0.92718977 0.6672878
vt 0.8359329 0.62576145
vt 0.96091056 0.67887247
vt 0.8182903 0.6123853
vt 0.9601504 0.68442273
vt 0.9828122 0.6871996
vt 0.7782598 0.61349595
vt 0.79703945 0.55214846
vt 0.731861 0.56616247
vt 0.76272523 0.48526365
vt 0.7018462 0.6298249
vt 0.6713821 0.5139554
vt 0.6922295 0.4391157
vt 0.6623081 0.6972132
vt 0.6235873 0.65680945
vt 0.63657844 0.7395588
vt 0.6505528 0.58697987
vt 0.595903 0.5573468
vt 0.6131775 0.4771639
vt 0.6667479 0.7896775
vt 0.6468635 0.87969327
vt 0.62761366 0.4020727
vt 0.63216716 0.38086703
vt 0.55904055 0.38031718
vt 0.56354696 0.3392842
vt 0.4993953 0.3734444
vt 0.4993953 0.3181451
vt 0.4352399 0.33928552
vt 0.5507999 0.4542265
vt 0.62544674 0.8191073
vt 0.589896 0.9527136
vt 0.4993953 0.9549086
vt 0.4993953 0.9920429
vt 0.40646258 0.9904025
vt 0.57678527 0.8992145
vt 0.4397464 0.38031837
vt 0.3666168 0.38086942
vt 0.37117007 0.4020753
vt 0.30655116 0.43912
vt 0.3856064 0.47716656
vt 0.44798732 0.45422757
vt 0.32739764 0.5139599
vt 0.23605068 0.48527136
vt 0.4993953 0.44771326
vt 0.4993953 0.5379623
vt 0.45510206 0.5409473
vt 0.5436855 0.5409465
vt 0.26691383 0.5661708
vt 0.2017319 0.5521591
vt 0.40288115 0.55734885
vt 0.4993953 0.62365603
vt 0.5854163 0.64130265
vt 0.54010236 0.627138
vt 0.57922935 0.7025064
vt 0.34822816 0.5869832
vt 0.37519604 0.6568117
vt 0.22050884 0.61350846
vt 0.18047181 0.61240095
vt 0.17560759 0.6541351
vt 0.16281945 0.6257851
vt 0.12974699 0.6440934
vt 0.29693285 0.6298307
vt 0.2510238 0.67567444
vt 0.41336846 0.641304
vt 0.45868522 0.62713844
vt 0.13497715 0.6732079
vt 0.10159823 0.6551883
vt 0.33647522 0.69721687
vt 0.36220762 0.73956156
vt 0.4195567 0.70250726
vt 0.4993953 0.7028127
vt 0.29404187 0.7467065
vt 0.19531266 0.7268468
vt 0.14783086 0.71829176
vt 0.13428108 0.70803
vt 0.16239902 0.74534523
vt 0.12098473 0.7017263
vt 0.16758555 0.7757031
vt 0.10722718 0.6764672
vt 0.11142442 0.70118797
vt 0.07427101 0.67960393
vt 0.07778096 0.6963247
vt 0.07155958 0.6674075
vt 0.040047027 0.6911684
vt 0.037855558 0.6790513
vt 0.24911924 0.80726874
vt 0.16612867 0.82153344
vt 0.2135466 0.87276304
vt 0.14268965 0.86330545
vt 0.15490824 0.88121974
vt 0.18786521 0.9117782
vt 0.25286382 0.9567189
vt 0.038623907 0.68460083
vt 0.015966136 0.687413
vt 0.29876262 0.85250616
vt 0.2731276 0.91366327
vt 0.326993 0.9786775
vt 0.3363449 0.9391432
vt 0.33204025 0.78968155
vt 0.40889722 0.9527161
vt 0.35192925 0.87969744
vt 0.42200667 0.89921653
vt 0.37334305 0.8191098
vt 0.4993953 0.9055482
vt 0.4993953 0.85180366
vt 0.43593693 0.8447299
vt 0.56285363 0.8447288
vt 0.39507014 0.7718302
vt 0.4993953 0.8035724
vt 0.6037178 0.77182853
vt 0.446263 0.7967421
vt 0.4993953 0.75345933
vt 0.55252653 0.79674196
vt 0.41497594 0.73927236
vt 0.58381087 0.7392714
vt 0.5436997 0.7494154
vt 0.39396662 0.71227777
vt 0.45508882 0.7494153
vt 0.459152 0.7018794
vt 0.539636 0.7018794
vt 0.604819 0.7122761
vn 0.96206516 0.23885626 -0.13182677
vn 0.7651354 0.61507094 -0.19040886
vn 0.9335818 0.26677597 -0.23928112
vn 0.97804093 0.072409496 -0.19542989
vn 0.9842374 0.050229225 -0.16956976
vn 0.99402916 0.03552866 -0.10316833
vn 0.7971746 0.5987965 -0.07717158
vn 0.43900782 0.88638824 -0.14692868
vn 0.97523695 0.21775669 0.038663413
vn 0.9963391 0.025874157 -0.0814808
vn 0.4956039 0.86837125 -0.017552288
vn 0.1982251 0.96867216 -0.14960244
vn 0.83235973 0.5362482 0.14005385
vn 0.9980153 -0.036237106 -0.05150119
vn 0.98965937 -0.076016724 -0.12163793
vn 0.992141 -0.07730296 -0.09838974
vn 0.980474 -0.19142151 -0.04503852
vn 0.947321 0.17202851 0.2701651
vn 0.97969353 -0.18475097 -0.07789499
vn 0.9986331 -0.021211255 -0.047769647
vn 0.9940142 -0.030547792 -0.10489345
vn 0.9860166 -0.09114831 0.13951124
vn 0.9778531 -0.1847241 -0.098387934
vn 0.9920528 -0.021374078 -0.123993956
vn 0.9792123 -0.12308403 -0.16122518
vn 0.9759168 0.05146448 -0.21198542
vn 0.9687827 0.10345776 -0.2252925
vn 0.9391516 -0.33591032 -0.071822934
vn 0.9449457 -0.32254547 -0.05515463
vn 0.9524311 -0.28193673 -0.115701
vn 0.95649874 -0.29151267 -0.011427301
vn 0.94425845 -0.27091467 -0.18703274
vn 0.96038777 -0.27856186 -0.0076540145
vn 0.9736953 -0.08112855 -0.21292177
vn 0.9727745 -0.059841283 -0.22389433
vn 0.9679989 -0.24461778 0.05603655
vn 0.9598088 -0.27677503 0.046504516
vn 0.93774706 -0.26735052 0.22170712
vn 0.9407531 -0.2982068 0.16141956
vn 0.9126977 -0.1474804 0.38109368
vn 0.79619056 -0.35179982 0.49225745
vn 0.790219 -0.47136283 0.391626
vn 0.8467826 0.08258393 0.52548933
vn 0.6936603 -0.013393296 0.7201778
vn 0.73654145 0.3254996 0.59292233
vn 0.7578022 -0.20135336 0.62063885
vn 0.5268768 -0.2600637 0.8091771
vn 0.5459579 -0.4748988 0.69021803
vn 0.8061812 0.4516507 0.3822086
vn 0.5623037 0.79813594 0.21631826
vn 0.53800416 -0.7258394 0.42861247
vn 0.48468947 -0.84423774 0.22877657
vn 0.27200893 -0.81975293 0.5040002
vn 0.22695923 -0.9215753 0.31494188
vn -0 -0.8550615 0.51852673
vn -0 -0.94057274 0.3395925
vn -0.22695923 -0.9215753 0.31494185
vn 0.27871644 -0.5678599 0.77450126
vn 0.57103133 0.6963096 0.43482882
vn 0.23395541 0.9722473 -9.9206896E-05
vn -0 0.9999478 -0.010218158
vn -0 0.9834223 -0.18132974
vn -0.1982251 0.96867216 -0.14960244
vn 0.27297983 0.93310577 0.2340847
vn -0.2720089 -0.819753 0.5040002
vn -0.48468953 -0.84423774 0.2287766
vn -0.53800416 -0.7258394 0.42861247
vn -0.790219 -0.47136283 0.391626
vn -0.5459579 -0.4748988 0.69021803
vn -0.27871653 -0.5678599 0.77450126
vn -0.79619056 -0.35179982 0.49225745
vn -0.9407531 -0.2982068 0.16141956
vn -0 -0.60457146 0.796551
vn -0 -0.31403336 0.9494119
vn -0.2772063 -0.30393514 0.9114714
vn 0.2772063 -0.30393514 0.9114714
vn -0.93774706 -0.2673505 0.22170712
vn -0.9598088 -0.27677503 0.046504516
vn -0.5268769 -0.26006374 0.8091771
vn -0 -0.0458854 0.9989467
vn 0.4763552 -0.04916708 0.8778772
vn 0.24813716 -0.04957979 0.9674553
vn 0.42787555 0.17294307 0.88713765
vn -0.7578022 -0.20135331 0.62063885
vn -0.6936603 -0.013393294 0.7201778
vn -0.9679989 -0.24461778 0.056036547
vn -0.96038777 -0.27856186 -0.0076540145
vn -0.980474 -0.19142151 -0.04503852
vn -0.95649874 -0.29151267 -0.011427301
vn -0.9449457 -0.3225455 -0.055154633
vn -0.9126978 -0.14748038 0.3810937
vn -0.9860166 -0.09114831 0.13951124
vn -0.4763552 -0.04916711 0.8778772
vn -0.2481372 -0.04957981 0.96745527
vn -0.97969353 -0.18475097 -0.077895
vn -0.9391516 -0.33591032 -0.07182295
vn -0.8467827 0.08258394 0.5254893
vn -0.73654145 0.3254996 0.59292233
vn -0.42787552 0.17294307 0.88713765
vn -0 0.23518255 0.97195125
vn -0.947321 0.17202851 0.2701651
vn -0.9980153 -0.036237113 -0.05150119
vn -0.992141 -0.07730296 -0.09838974
vn -0.9986331 -0.021211255 -0.047769647
vn -0.98965937 -0.076016724 -0.12163793
vn -0.9940142 -0.030547792 -0.10489345
vn -0.9963391 0.025874157 -0.0814808
vn -0.9778531 -0.18472409 -0.098387934
vn -0.9920528 -0.021374078 -0.123993956
vn -0.9792123 -0.12308403 -0.1612252
vn -0.9759168 0.05146448 -0.21198542
vn -0.9524311 -0.28193673 -0.115701005
vn -0.9687827 0.10345776 -0.2252925
vn -0.94425845 -0.27091467 -0.18703277
vn -0.97523695 0.21775669 0.038663413
vn -0.99402916 0.03552866 -0.10316833
vn -0.96206516 0.23885626 -0.13182677
vn -0.9842374 0.05022922 -0.16956973
vn -0.97804093 0.07240949 -0.19542985
vn -0.9335818 0.26677603 -0.23928115
vn -0.7651354 0.61507094 -0.19040886
vn -0.9736953 -0.08112855 -0.21292177
vn -0.9727745 -0.059841283 -0.22389433
vn -0.83235973 0.5362482 0.14005385
vn -0.7971746 0.5987965 -0.07717158
vn -0.43900782 0.88638824 -0.14692868
vn -0.49560383 0.86837125 -0.017552288
vn -0.8061812 0.4516507 0.3822086
vn -0.23395541 0.9722473 -9.921175E-05
vn -0.5623037 0.79813594 0.21631826
vn -0.27297983 0.93310577 0.2340847
vn -0.57103133 0.6963096 0.43482888
vn -0 0.97364366 0.22807474
vn -0 0.8997033 0.43650195
vn -0.2824033 0.8529393 0.43902498
vn 0.28240326 0.8529393 0.43902493
vn -0.53807414 0.5682906 0.62251264
vn -0 0.7521277 0.65901744
vn 0.5380742 0.5682906 0.62251264
vn -0.2668629 0.71486527 0.6463373
vn -0 0.52105093 0.8535256
vn 0.26686287 0.71486527 0.6463372
vn -0.46414667 0.4256814 0.7767645
vn 0.46414667 0.4256814 0.7767645
vn 0.23072939 0.49796152 0.83594155
vn -0.6372288 0.21443477 0.7402414
vn -0.2307294 0.49796167 0.83594155
vn -0.21899982 0.21526276 0.9516832
vn 0.21899982 0.21526274 0.9516832
vn 0.6372288 0.21443474 0.74024135
g SeparateMesh_Monster_ThugBulkyAbuser_Model_ThugBulky_Hair_003_0
f 3/3/3 2/2/2 1/1/1
f 4/4/4 3/3/3 1/1/1
f 4/4/4 1/1/1 5/5/5
f 1/1/1 6/6/6 5/5/5
f 2/2/2 7/7/7 1/1/1
f 2/2/2 8/8/8 7/7/7
f 9/9/9 6/6/6 1/1/1
f 6/6/6 9/9/9 10/10/10
f 8/8/8 11/11/11 7/7/7
f 8/8/8 12/12/12 11/11/11
f 1/1/1 7/7/7 13/13/13
f 9/9/9 1/1/1 13/13/13
f 7/7/7 11/11/11 13/13/13
f 10/10/10 9/9/9 14/14/14
f 15/15/15 10/10/10 14/14/14
f 14/14/14 16/16/16 15/15/15
f 14/14/14 17/17/17 16/16/16
f 14/14/14 9/9/9 18/18/18
f 9/9/9 13/13/13 18/18/18
f 17/17/17 19/19/19 16/16/16
f 16/16/16 19/19/19 20/20/20
f 21/21/21 20/20/20 19/19/19
f 17/17/17 14/14/14 22/22/22
f 22/22/22 14/14/14 18/18/18
f 21/21/21 19/19/19 23/23/23
f 24/24/24 21/21/21 23/23/23
f 25/25/25 24/24/24 23/23/23
f 25/25/25 26/26/26 24/24/24
f 27/27/27 26/26/26 25/25/25
f 28/28/28 23/23/23 19/19/19
f 23/23/23 28/28/28 25/25/25
f 29/29/29 28/28/28 19/19/19
f 29/29/29 19/19/19 17/17/17
f 28/28/28 30/30/30 25/25/25
f 31/31/31 29/29/29 17/17/17
f 25/25/25 30/30/30 32/32/32
f 31/31/31 17/17/17 33/33/33
f 34/34/34 27/27/27 25/25/25
f 34/34/34 25/25/25 32/32/32
f 35/35/35 27/27/27 34/34/34
f 34/34/34 32/32/32 35/35/35
f 17/17/17 36/36/36 33/33/33
f 36/36/36 37/37/37 33/33/33
f 36/36/36 17/17/17 22/22/22
f 38/38/38 37/37/37 36/36/36
f 39/39/39 37/37/37 38/38/38
f 22/22/22 40/40/40 36/36/36
f 40/40/40 38/38/38 36/36/36
f 38/38/38 41/41/41 39/39/39
f 41/41/41 42/42/42 39/39/39
f 40/40/40 22/22/22 43/43/43
f 43/43/43 44/44/44 40/40/40
f 43/43/43 45/45/45 44/44/44
f 22/22/22 18/18/18 43/43/43
f 45/45/45 43/43/43 18/18/18
f 40/40/40 46/46/46 38/38/38
f 46/46/46 41/41/41 38/38/38
f 44/44/44 46/46/46 40/40/40
f 46/46/46 47/47/47 41/41/41
f 46/46/46 44/44/44 47/47/47
f 42/42/42 41/41/41 48/48/48
f 47/47/47 48/48/48 41/41/41
f 49/49/49 45/45/45 18/18/18
f 13/13/13 49/49/49 18/18/18
f 13/13/13 50/50/50 49/49/49
f 11/11/11 50/50/50 13/13/13
f 51/51/51 42/42/42 48/48/48
f 51/51/51 52/52/52 42/42/42
f 52/52/52 51/51/51 53/53/53
f 53/53/53 51/51/51 48/48/48
f 54/54/54 52/52/52 53/53/53
f 54/54/54 53/53/53 55/55/55
f 56/56/56 54/54/54 55/55/55
f 57/57/57 56/56/56 55/55/55
f 58/58/58 53/53/53 48/48/48
f 55/55/55 53/53/53 58/58/58
f 49/49/49 59/59/59 45/45/45
f 50/50/50 59/59/59 49/49/49
f 11/11/11 60/60/60 50/50/50
f 12/12/12 60/60/60 11/11/11
f 12/12/12 61/61/61 60/60/60
f 62/62/62 61/61/61 12/12/12
f 61/61/61 62/62/62 63/63/63
f 60/60/60 64/64/64 50/50/50
f 50/50/50 64/64/64 59/59/59
f 60/60/60 61/61/61 64/64/64
f 65/65/65 57/57/57 55/55/55
f 57/57/57 65/65/65 66/66/66
f 65/65/65 67/67/67 66/66/66
f 66/66/66 67/67/67 68/68/68
f 67/67/67 65/65/65 69/69/69
f 67/67/67 69/69/69 68/68/68
f 65/65/65 55/55/55 70/70/70
f 65/65/65 70/70/70 69/69/69
f 69/69/69 71/71/71 68/68/68
f 72/72/72 68/68/68 71/71/71
f 55/55/55 73/73/73 70/70/70
f 73/73/73 55/55/55 58/58/58
f 73/73/73 74/74/74 70/70/70
f 74/74/74 73/73/73 58/58/58
f 70/70/70 75/75/75 69/69/69
f 74/74/74 75/75/75 70/70/70
f 76/76/76 74/74/74 58/58/58
f 76/76/76 58/58/58 48/48/48
f 47/47/47 76/76/76 48/48/48
f 77/77/77 72/72/72 71/71/71
f 78/78/78 72/72/72 77/77/77
f 69/69/69 79/79/79 71/71/71
f 75/75/75 79/79/79 69/69/69
f 74/74/74 76/76/76 80/80/80
f 75/75/75 74/74/74 80/80/80
f 76/76/76 47/47/47 81/81/81
f 44/44/44 81/81/81 47/47/47
f 82/82/82 76/76/76 81/81/81
f 76/76/76 82/82/82 80/80/80
f 81/81/81 44/44/44 83/83/83
f 81/81/81 83/83/83 82/82/82
f 71/71/71 84/84/84 77/77/77
f 79/79/79 84/84/84 71/71/71
f 85/85/85 84/84/84 79/79/79
f 78/78/78 77/77/77 86/86/86
f 78/78/78 86/86/86 87/87/87
f 86/86/86 88/88/88 87/87/87
f 88/88/88 89/89/89 87/87/87
f 90/90/90 89/89/89 88/88/88
f 84/84/84 91/91/91 77/77/77
f 77/77/77 91/91/91 86/86/86
f 84/84/84 85/85/85 91/91/91
f 91/91/91 92/92/92 86/86/86
f 88/88/88 86/86/86 92/92/92
f 93/93/93 85/85/85 79/79/79
f 79/79/79 75/75/75 93/93/93
f 75/75/75 94/94/94 93/93/93
f 94/94/94 75/75/75 80/80/80
f 95/95/95 90/90/90 88/88/88
f 90/90/90 95/95/95 96/96/96
f 92/92/92 91/91/91 97/97/97
f 85/85/85 97/97/97 91/91/91
f 98/98/98 97/97/97 85/85/85
f 85/85/85 93/93/93 99/99/99
f 99/99/99 93/93/93 94/94/94
f 94/94/94 80/80/80 100/100/100
f 80/80/80 82/82/82 100/100/100
f 101/101/101 92/92/92 97/97/97
f 97/97/97 98/98/98 101/101/101
f 102/102/102 88/88/88 92/92/92
f 102/102/102 92/92/92 101/101/101
f 95/95/95 88/88/88 103/103/103
f 88/88/88 102/102/102 103/103/103
f 95/95/95 103/103/103 104/104/104
f 103/103/103 102/102/102 105/105/105
f 104/104/104 106/106/106 95/95/95
f 107/107/107 105/105/105 102/102/102
f 108/108/108 95/95/95 106/106/106
f 109/109/109 108/108/108 106/106/106
f 109/109/109 110/110/110 108/108/108
f 95/95/95 108/108/108 96/96/96
f 108/108/108 110/110/110 96/96/96
f 111/111/111 110/110/110 109/109/109
f 110/110/110 112/112/112 96/96/96
f 111/111/111 113/113/113 110/110/110
f 112/112/112 110/110/110 114/114/114
f 115/115/115 107/107/107 102/102/102
f 115/115/115 116/116/116 107/107/107
f 116/116/116 115/115/115 117/117/117
f 116/116/116 117/117/117 118/118/118
f 117/117/117 119/119/119 118/118/118
f 120/120/120 119/119/119 117/117/117
f 115/115/115 102/102/102 101/101/101
f 121/121/121 120/120/120 117/117/117
f 113/113/113 122/122/122 110/110/110
f 110/110/110 122/122/122 114/114/114
f 113/113/113 123/123/123 122/122/122
f 114/114/114 122/122/122 123/123/123
f 124/124/124 115/115/115 101/101/101
f 115/115/115 124/124/124 117/117/117
f 125/125/125 121/121/121 117/117/117
f 124/124/124 125/125/125 117/117/117
f 126/126/126 121/121/121 125/125/125
f 127/127/127 126/126/126 125/125/125
f 127/127/127 125/125/125 124/124/124
f 63/63/63 126/126/126 127/127/127
f 128/128/128 124/124/124 101/101/101
f 98/98/98 128/128/128 101/101/101
f 129/129/129 63/63/63 127/127/127
f 61/61/61 63/63/63 129/129/129
f 130/130/130 127/127/127 124/124/124
f 130/130/130 124/124/124 128/128/128
f 129/129/129 127/127/127 130/130/130
f 61/61/61 129/129/129 131/131/131
f 131/131/131 129/129/129 130/130/130
f 132/132/132 130/130/130 128/128/128
f 132/132/132 128/128/128 98/98/98
f 131/131/131 130/130/130 132/132/132
f 133/133/133 61/61/61 131/131/131
f 61/61/61 133/133/133 64/64/64
f 134/134/134 133/133/133 131/131/131
f 133/133/133 134/134/134 64/64/64
f 135/135/135 131/131/131 132/132/132
f 135/135/135 134/134/134 131/131/131
f 134/134/134 136/136/136 64/64/64
f 64/64/64 136/136/136 59/59/59
f 137/137/137 132/132/132 98/98/98
f 135/135/135 132/132/132 137/137/137
f 134/134/134 135/135/135 138/138/138
f 136/136/136 134/134/134 138/138/138
f 59/59/59 136/136/136 139/139/139
f 59/59/59 139/139/139 45/45/45
f 140/140/140 135/135/135 137/137/137
f 135/135/135 140/140/140 138/138/138
f 141/141/141 138/138/138 140/140/140
f 142/142/142 136/136/136 138/138/138
f 136/136/136 142/142/142 139/139/139
f 138/138/138 141/141/141 142/142/142
f 137/137/137 98/98/98 143/143/143
f 137/137/137 143/143/143 140/140/140
f 139/139/139 144/144/144 45/45/45
f 144/144/144 139/139/139 142/142/142
f 141/141/141 145/145/145 142/142/142
f 145/145/145 144/144/144 142/142/142
f 98/98/98 146/146/146 143/143/143
f 146/146/146 98/98/98 85/85/85
f 146/146/146 85/85/85 99/99/99
f 143/143/143 146/146/146 99/99/99
f 143/143/143 147/147/147 140/140/140
f 147/147/147 141/141/141 140/140/140
f 143/143/143 99/99/99 148/148/148
f 147/147/147 143/143/143 148/148/148
f 141/141/141 147/147/147 148/148/148
f 148/148/148 99/99/99 94/94/94
f 148/148/148 94/94/94 100/100/100
f 100/100/100 141/141/141 148/148/148
f 145/145/145 141/141/141 149/149/149
f 141/141/141 100/100/100 149/149/149
f 144/144/144 145/145/145 149/149/149
f 82/82/82 149/149/149 100/100/100
f 83/83/83 149/149/149 82/82/82
f 83/83/83 144/144/144 149/149/149
f 150/150/150 144/144/144 83/83/83
f 44/44/44 150/150/150 83/83/83
f 144/144/144 150/150/150 45/45/45
f 45/45/45 150/150/150 44/44/44
