g NPC_Male_Size03_Ear_001_LOD0
v 0.07654015 0.0046708006 1.4116007
v 0.072042 0.00095251156 1.4071084
v 0.07012753 0.0016132614 1.4069831
v 0.072042 0.00095251156 1.4071084
v 0.06873948 -0.00105407 1.4038031
v 0.07654015 0.0046708006 1.4116007
v 0.07416239 0.006394759 1.411723
v 0.0777861 0.014092893 1.4085802
v 0.07654015 0.0046708006 1.4116007
v 0.08090319 0.012125991 1.4089805
v 0.080515556 0.022341736 1.4009318
v 0.08090319 0.012125991 1.4089805
v 0.08383187 0.019876536 1.4010007
v 0.083912075 0.024527337 1.39015
v 0.08383187 0.019876536 1.4010007
v 0.080537796 0.0265362 1.3906062
v 0.080223665 0.021965563 1.3802176
v 0.083912075 0.024527337 1.39015
v 0.07736348 0.024008304 1.3805411
v 0.0712419 0.01681965 1.3689535
v 0.080223665 0.021965563 1.3802176
v 0.07338662 0.014909974 1.3695701
v 0.06381202 0.007993081 1.3622279
v 0.07338662 0.014909974 1.3695701
v 0.065875776 0.005667313 1.3621472
v 0.065875776 0.005667313 1.3621472
v 0.05974942 -0.0019444203 1.3631594
v 0.05844919 0.0020440856 1.3630291
v 0.08383187 0.019876536 1.4010007
v 0.06873948 -0.00105407 1.4038031
v 0.08090319 0.012125991 1.4089805
v 0.08090319 0.012125991 1.4089805
v 0.072042 0.00095251156 1.4071084
v 0.07654015 0.0046708006 1.4116007
v 0.0671227 -0.0011534959 1.3962952
v 0.08383187 0.019876536 1.4010007
v 0.083912075 0.024527337 1.39015
v 0.06482066 -0.0012150533 1.3863177
v 0.083912075 0.024527337 1.39015
v 0.080223665 0.021965563 1.3802176
v 0.080223665 0.021965563 1.3802176
v 0.06143255 -0.0015376721 1.3737298
v 0.07338662 0.014909974 1.3695701
v 0.065875776 0.005667313 1.3621472
v 0.05974942 -0.0019444203 1.3631594
v 0.065875776 0.005667313 1.3621472
v -0.07654015 0.0046708006 1.4116007
v -0.07012753 0.0016132614 1.4069831
v -0.072042 0.00095251156 1.4071084
v -0.072042 0.00095251156 1.4071084
v -0.068739496 -0.001054065 1.4038031
v -0.07654015 0.0046708006 1.4116007
v -0.07416239 0.006394759 1.411723
v -0.0777861 0.014092893 1.4085802
v -0.07654015 0.0046708006 1.4116007
v -0.08090319 0.012125991 1.4089805
v -0.080515556 0.022341736 1.4009318
v -0.08090319 0.012125991 1.4089805
v -0.08383187 0.019876536 1.4010007
v -0.083912075 0.024527337 1.39015
v -0.08383187 0.019876536 1.4010007
v -0.080537796 0.0265362 1.3906062
v -0.080223665 0.021965563 1.3802176
v -0.083912075 0.024527337 1.39015
v -0.07736348 0.024008304 1.3805411
v -0.0712419 0.01681965 1.3689535
v -0.080223665 0.021965563 1.3802176
v -0.07338662 0.014909974 1.3695701
v -0.06381202 0.007993081 1.3622279
v -0.07338662 0.014909974 1.3695701
v -0.065875776 0.005667313 1.3621472
v -0.065875776 0.005667313 1.3621472
v -0.059749383 -0.0019444271 1.3631594
v -0.058449183 0.0020440666 1.363029
v -0.08383187 0.019876536 1.4010007
v -0.08090319 0.012125991 1.4089805
v -0.068739496 -0.001054065 1.4038031
v -0.08090319 0.012125991 1.4089805
v -0.072042 0.00095251156 1.4071084
v -0.07654015 0.0046708006 1.4116007
v -0.0671227 -0.0011535645 1.3963096
v -0.08383187 0.019876536 1.4010007
v -0.083912075 0.024527337 1.39015
v -0.06482069 -0.0012150579 1.3863177
v -0.083912075 0.024527337 1.39015
v -0.080223665 0.021965563 1.3802176
v -0.080223665 0.021965563 1.3802176
v -0.061432566 -0.0015376279 1.3737007
v -0.07338662 0.014909974 1.3695701
v -0.065875776 0.005667313 1.3621472
v -0.059749383 -0.0019444271 1.3631594
v -0.065875776 0.005667313 1.3621472
v 0.06381202 0.007993081 1.3622279
v 0.06230442 0.015053324 1.3717701
v 0.05844919 0.0020440856 1.3630291
v 0.0712419 0.01681965 1.3689535
v 0.06560915 0.022399286 1.3833877
v 0.07736348 0.024008304 1.3805411
v 0.080537796 0.0265362 1.3906062
v 0.06822808 0.023683643 1.392837
v 0.080515556 0.022341736 1.4009318
v 0.070313945 0.015777992 1.4032027
v 0.0777861 0.014092893 1.4085802
v 0.07416239 0.006394759 1.411723
v 0.07012753 0.0016132614 1.4069831
v -0.06381202 0.007993081 1.3622279
v -0.058449183 0.0020440666 1.363029
v -0.06230442 0.015053324 1.3717701
v -0.0712419 0.01681965 1.3689535
v -0.06560915 0.022399286 1.3833877
v -0.07736348 0.024008304 1.3805411
v -0.080537796 0.0265362 1.3906062
v -0.06822808 0.023683643 1.392837
v -0.080515556 0.022341736 1.4009318
v -0.070313945 0.015777992 1.4032027
v -0.0777861 0.014092893 1.4085802
v -0.07416239 0.006394759 1.411723
v -0.07012753 0.0016132614 1.4069831
vt 0.49231678 0.79596967
vt 0.4877608 0.7902828
vt 0.4854103 0.79087955
vt 0.4877608 0.7902828
vt 0.48491144 0.78607005
vt 0.49231678 0.79596967
vt 0.49155408 0.79883933
vt 0.5026966 0.7980687
vt 0.49231678 0.79596967
vt 0.5004912 0.79469925
vt 0.5124054 0.7893183
vt 0.5004912 0.79469925
vt 0.5089059 0.7882042
vt 0.51285005 0.77763945
vt 0.5089059 0.7882042
vt 0.5164473 0.7778103
vt 0.5106671 0.768409
vt 0.51285005 0.77763945
vt 0.51374793 0.76706386
vt 0.50533724 0.7567711
vt 0.5106671 0.768409
vt 0.5035355 0.7587961
vt 0.49575806 0.74942094
vt 0.5035355 0.7587961
vt 0.4939952 0.75168157
vt 0.4939952 0.75168157
vt 0.48597288 0.75007313
vt 0.48947048 0.74738914
vt 0.5089059 0.7882042
vt 0.48491144 0.78607005
vt 0.5004912 0.79469925
vt 0.5004912 0.79469925
vt 0.4877608 0.7902828
vt 0.49231678 0.79596967
vt 0.48491058 0.7788252
vt 0.5089059 0.7882042
vt 0.51285005 0.77763945
vt 0.48492742 0.7687961
vt 0.51285005 0.77763945
vt 0.5106671 0.768409
vt 0.5106671 0.768409
vt 0.4850211 0.7587493
vt 0.5035355 0.7587961
vt 0.4939952 0.75168157
vt 0.48597288 0.75007313
vt 0.4939952 0.75168157
vt 0.49231678 0.79596967
vt 0.4854103 0.79087955
vt 0.4877608 0.7902828
vt 0.4877608 0.7902828
vt 0.48491144 0.78607005
vt 0.49231678 0.79596967
vt 0.49155408 0.79883933
vt 0.5026966 0.7980687
vt 0.49231678 0.79596967
vt 0.5004912 0.79469925
vt 0.5124054 0.7893183
vt 0.5004912 0.79469925
vt 0.5089059 0.7882042
vt 0.51285005 0.77763945
vt 0.5089059 0.7882042
vt 0.5164473 0.7778103
vt 0.5106671 0.768409
vt 0.51285005 0.77763945
vt 0.51374793 0.76706386
vt 0.50533724 0.7567711
vt 0.5106671 0.768409
vt 0.5035355 0.7587961
vt 0.49575806 0.74942094
vt 0.5035355 0.7587961
vt 0.4939952 0.75168157
vt 0.4939952 0.75168157
vt 0.48597288 0.75007313
vt 0.48947048 0.74738914
vt 0.5089059 0.7882042
vt 0.5004912 0.79469925
vt 0.48491144 0.78607005
vt 0.5004912 0.79469925
vt 0.4877608 0.7902828
vt 0.49231678 0.79596967
vt 0.48491058 0.7788252
vt 0.5089059 0.7882042
vt 0.51285005 0.77763945
vt 0.48492742 0.7687961
vt 0.51285005 0.77763945
vt 0.5106671 0.768409
vt 0.5106671 0.768409
vt 0.4850211 0.7587493
vt 0.5035355 0.7587961
vt 0.4939952 0.75168157
vt 0.48597288 0.75007313
vt 0.4939952 0.75168157
vt 0.4734757 0.7496252
vt 0.47552443 0.7600284
vt 0.47915912 0.74640083
vt 0.46638775 0.75892407
vt 0.47379208 0.7721536
vt 0.46223974 0.77090347
vt 0.46123075 0.7808575
vt 0.4733708 0.7813539
vt 0.4646926 0.7917173
vt 0.47605085 0.79357684
vt 0.47117162 0.8005632
vt 0.4779687 0.8049611
vt 0.48526192 0.80298406
vt 0.4734757 0.7496252
vt 0.47915912 0.74640083
vt 0.47552443 0.7600284
vt 0.46638775 0.75892407
vt 0.47379208 0.7721536
vt 0.46223974 0.77090347
vt 0.46123075 0.7808575
vt 0.4733708 0.7813539
vt 0.4646926 0.7917173
vt 0.47605085 0.79357684
vt 0.47117162 0.8005632
vt 0.4779687 0.8049611
vt 0.48526192 0.80298406
vn -0.09087739 -0.12148742 0.9884241
vn -0.26420155 -0.6264725 0.73330057
vn -0.47545516 -0.4635631 0.7476975
vn -0.26420155 -0.6264725 0.73330057
vn 0.97793293 -0.07120579 -0.19641009
vn -0.09087739 -0.12148742 0.9884241
vn -0.38893038 0.06424437 0.91902435
vn -0.038798112 0.5591148 0.82818186
vn -0.09087739 -0.12148742 0.9884241
vn 0.24318382 0.4317524 0.86859167
vn 0.13390696 0.81247216 0.5674133
vn 0.24318382 0.4317524 0.86859167
vn 0.44396827 0.68797946 0.57408744
vn 0.54173857 0.8405409 -0.0032117302
vn 0.44396827 0.68797946 0.57408744
vn 0.21028522 0.97674066 0.041926906
vn 0.4911481 0.70236677 -0.51522267
vn 0.54173857 0.8405409 -0.0032117302
vn 0.15012507 0.8895079 -0.4315533
vn 0.10962253 0.6955982 -0.71001834
vn 0.4911481 0.70236677 -0.51522267
vn 0.46716496 0.4608224 -0.75458574
vn -0.18876058 0.41695005 -0.8891131
vn 0.46716496 0.4608224 -0.75458574
vn 0.14467429 0.11875971 -0.98232657
vn 0.14467429 0.11875971 -0.98232657
vn 0.95806473 0.22267097 -0.18035957
vn 0.9081103 0.19898082 -0.36843213
vn 0.78055173 -0.58103836 -0.23050724
vn 0.97793293 -0.07120579 -0.19641009
vn 0.7582151 -0.57521194 -0.306987
vn 0.7582151 -0.57521194 -0.306987
vn 0.75898415 -0.54128426 -0.36187622
vn 0.75898415 -0.54128426 -0.36187622
vn 0.9735101 -0.034515962 -0.22602387
vn 0.78055173 -0.58103836 -0.23050724
vn 0.7970941 -0.574789 -0.1850909
vn 0.9685606 0.03697512 -0.2460148
vn 0.7970941 -0.574789 -0.1850909
vn 0.7993692 -0.577822 -0.16471285
vn 0.7993692 -0.577822 -0.16471285
vn 0.9736396 0.033743456 -0.22558188
vn 0.79472595 -0.5915093 -0.1361155
vn 0.7892669 -0.6092985 -0.07624297
vn 0.95806473 0.22267097 -0.18035957
vn 0.7892669 -0.6092985 -0.07624297
vn 0.09087738 -0.12148742 0.9884241
vn 0.47545558 -0.4635636 0.747697
vn 0.2642017 -0.62647295 0.73330015
vn 0.2642017 -0.62647295 0.73330015
vn -0.9779342 -0.07113818 -0.19642825
vn 0.09087738 -0.12148742 0.9884241
vn 0.38893038 0.06424437 0.91902435
vn 0.038798094 0.5591148 0.82818186
vn 0.09087738 -0.12148742 0.9884241
vn -0.24318385 0.4317524 0.86859167
vn -0.13390695 0.8124721 0.5674134
vn -0.24318385 0.4317524 0.86859167
vn -0.44396827 0.68797946 0.57408744
vn -0.54173857 0.8405409 -0.0032116903
vn -0.44396827 0.68797946 0.57408744
vn -0.21028522 0.97674066 0.041926917
vn -0.49114808 0.7023667 -0.5152227
vn -0.54173857 0.8405409 -0.0032116903
vn -0.15012507 0.8895079 -0.43155336
vn -0.10962249 0.6955981 -0.7100184
vn -0.49114808 0.7023667 -0.5152227
vn -0.4671649 0.46082237 -0.7545858
vn 0.18875602 0.41695148 -0.8891134
vn -0.4671649 0.46082237 -0.7545858
vn -0.14467464 0.11875998 -0.98232645
vn -0.14467464 0.11875998 -0.98232645
vn -0.958063 0.22267936 -0.18035845
vn -0.9081156 0.19898173 -0.36841866
vn -0.78049225 -0.5810689 -0.23063128
vn -0.75821555 -0.57521176 -0.3069863
vn -0.9779342 -0.07113818 -0.19642825
vn -0.75821555 -0.57521176 -0.3069863
vn -0.7589845 -0.5412848 -0.3618747
vn -0.75898445 -0.5412848 -0.3618747
vn -0.9735083 -0.034413237 -0.22604713
vn -0.78049225 -0.5810689 -0.23063128
vn -0.7970714 -0.57482165 -0.18508728
vn -0.968543 0.037419863 -0.24601656
vn -0.7970714 -0.57482165 -0.18508728
vn -0.79940903 -0.5778029 -0.16458794
vn -0.79940903 -0.5778029 -0.16458794
vn -0.9736441 0.033923518 -0.2255354
vn -0.794796 -0.59142035 -0.13609348
vn -0.7892934 -0.6092458 -0.076390885
vn -0.958063 0.22267936 -0.18035845
vn -0.7892934 -0.6092458 -0.076390885
vn -0.18876058 0.41695005 -0.8891131
vn -0.3576014 0.776548 -0.51874316
vn 0.9081103 0.19898082 -0.36843213
vn 0.10962253 0.6955982 -0.71001834
vn -0.23773457 0.9262034 -0.2926252
vn 0.15012507 0.8895079 -0.4315533
vn 0.21028522 0.97674066 0.041926906
vn -0.23856854 0.94993895 0.2017449
vn 0.13390696 0.81247216 0.5674133
vn -0.4343412 0.60586995 0.6665354
vn -0.038798112 0.5591148 0.82818186
vn -0.38893038 0.06424437 0.91902435
vn -0.47545516 -0.4635631 0.7476975
vn 0.18875602 0.41695148 -0.8891134
vn -0.9081156 0.19898173 -0.36841866
vn 0.3575996 0.7765488 -0.5187432
vn -0.10962249 0.6955981 -0.7100184
vn 0.23773454 0.9262034 -0.2926252
vn -0.15012507 0.8895079 -0.43155336
vn -0.21028522 0.97674066 0.041926917
vn 0.23856851 0.94993895 0.20174488
vn -0.13390695 0.8124721 0.5674134
vn 0.4343412 0.60586995 0.6665354
vn 0.038798094 0.5591148 0.82818186
vn 0.38893038 0.06424437 0.91902435
vn 0.47545558 -0.4635636 0.747697
g NPC_Male_Size03_Ear_001_LOD0_0
f 3/3/3 2/2/2 1/1/1
f 3/3/3 5/5/5 4/4/4
f 7/7/7 3/3/3 6/6/6
f 7/7/7 9/9/9 8/8/8
f 9/9/9 10/10/10 8/8/8
f 8/8/8 12/12/12 11/11/11
f 12/12/12 13/13/13 11/11/11
f 11/11/11 15/15/15 14/14/14
f 16/16/16 11/11/11 14/14/14
f 16/16/16 18/18/18 17/17/17
f 19/19/19 16/16/16 17/17/17
f 19/19/19 21/21/21 20/20/20
f 21/21/21 22/22/22 20/20/20
f 20/20/20 24/24/24 23/23/23
f 24/24/24 25/25/25 23/23/23
f 27/27/27 23/23/23 26/26/26
f 27/27/27 28/28/28 23/23/23
f 31/31/31 30/30/30 29/29/29
f 33/33/33 30/30/30 32/32/32
f 34/34/34 33/33/33 32/32/32
f 36/36/36 30/30/30 35/35/35
f 37/37/37 36/36/36 35/35/35
f 39/39/39 35/35/35 38/38/38
f 40/40/40 39/39/39 38/38/38
f 38/38/38 42/42/42 41/41/41
f 42/42/42 43/43/43 41/41/41
f 42/42/42 44/44/44 43/43/43
f 46/46/46 42/42/42 45/45/45
f 49/49/49 48/48/48 47/47/47
f 51/51/51 48/48/48 50/50/50
f 48/48/48 53/53/53 52/52/52
f 55/55/55 53/53/53 54/54/54
f 56/56/56 55/55/55 54/54/54
f 58/58/58 54/54/54 57/57/57
f 59/59/59 58/58/58 57/57/57
f 61/61/61 57/57/57 60/60/60
f 57/57/57 62/62/62 60/60/60
f 64/64/64 62/62/62 63/63/63
f 62/62/62 65/65/65 63/63/63
f 67/67/67 65/65/65 66/66/66
f 68/68/68 67/67/67 66/66/66
f 70/70/70 66/66/66 69/69/69
f 71/71/71 70/70/70 69/69/69
f 69/69/69 73/73/73 72/72/72
f 74/74/74 73/73/73 69/69/69
f 77/77/77 76/76/76 75/75/75
f 77/77/77 79/79/79 78/78/78
f 79/79/79 80/80/80 78/78/78
f 77/77/77 82/82/82 81/81/81
f 82/82/82 83/83/83 81/81/81
f 81/81/81 85/85/85 84/84/84
f 85/85/85 86/86/86 84/84/84
f 88/88/88 84/84/84 87/87/87
f 89/89/89 88/88/88 87/87/87
f 90/90/90 88/88/88 89/89/89
f 88/88/88 92/92/92 91/91/91
f 95/95/95 94/94/94 93/93/93
f 94/94/94 96/96/96 93/93/93
f 96/96/96 94/94/94 97/97/97
f 98/98/98 96/96/96 97/97/97
f 99/99/99 98/98/98 97/97/97
f 100/100/100 99/99/99 97/97/97
f 101/101/101 99/99/99 100/100/100
f 102/102/102 101/101/101 100/100/100
f 102/102/102 103/103/103 101/101/101
f 104/104/104 103/103/103 102/102/102
f 102/102/102 105/105/105 104/104/104
f 108/108/108 107/107/107 106/106/106
f 109/109/109 108/108/108 106/106/106
f 108/108/108 109/109/109 110/110/110
f 109/109/109 111/111/111 110/110/110
f 111/111/111 112/112/112 110/110/110
f 112/112/112 113/113/113 110/110/110
f 112/112/112 114/114/114 113/113/113
f 114/114/114 115/115/115 113/113/113
f 116/116/116 115/115/115 114/114/114
f 116/116/116 117/117/117 115/115/115
f 118/118/118 115/115/115 117/117/117
