g NPC_Male_Size03_Ear_001_LOD2
v 0.06381202 0.007993081 1.3622279
v 0.06230442 0.015053324 1.3717701
v 0.058449138 0.0020440533 1.3630819
v 0.0712419 0.01681965 1.3689535
v 0.06691862 0.023041464 1.3881124
v 0.07895064 0.025272252 1.3855737
v 0.08081451 0.021237934 1.4023669
v 0.070313945 0.015777992 1.4032027
v 0.07616234 0.009599563 1.4105831
v 0.07012753 0.0025998568 1.4107107
v 0.06381202 0.007993081 1.3622279
v 0.058449138 0.0020440533 1.3630819
v 0.059749357 -0.0019444161 1.3631594
v 0.065875776 0.005667313 1.3621472
v 0.061432566 -0.0015376233 1.3737007
v 0.07338662 0.014909974 1.3695701
v 0.0712419 0.01681965 1.3689535
v 0.08206787 0.02324645 1.3851837
v 0.07895064 0.025272252 1.3855737
v 0.0659716 -0.0011842905 1.3913136
v 0.08081451 0.021237934 1.4023669
v 0.08403122 0.019021882 1.4026016
v 0.06942764 -0.0015225168 1.4078668
v 0.0785401 0.0078756055 1.410461
v 0.07616234 0.009599563 1.4105831
v 0.07012753 0.0025998568 1.4107107
v 0.072042 0.0019391074 1.410836
v -0.06381202 0.007993081 1.3622279
v -0.058449138 0.0020440463 1.3630819
v -0.06230442 0.015053324 1.3717701
v -0.0712419 0.01681965 1.3689535
v -0.06691862 0.023041464 1.3881124
v -0.07895064 0.025272252 1.3855737
v -0.08081451 0.021237934 1.4023669
v -0.070313945 0.015777992 1.4032027
v -0.07616234 0.009599563 1.4105831
v -0.07012753 0.0025998568 1.4107107
v -0.06381202 0.007993081 1.3622279
v -0.059749465 -0.0019444048 1.3631594
v -0.058449138 0.0020440463 1.3630819
v -0.065875776 0.005667313 1.3621472
v -0.061432566 -0.0015376343 1.3737007
v -0.07338662 0.014909974 1.3695701
v -0.0712419 0.01681965 1.3689535
v -0.08206787 0.02324645 1.3851837
v -0.07895064 0.025272252 1.3855737
v -0.06597167 -0.0011843112 1.3913138
v -0.08081451 0.021237934 1.4023669
v -0.08403122 0.019021882 1.4026016
v -0.06942768 -0.0015225261 1.4078666
v -0.0785401 0.0078756055 1.410461
v -0.07616234 0.009599563 1.4105831
v -0.07012753 0.0025998568 1.4107107
v -0.072042 0.0019391074 1.410836
vt 0.4734757 0.7496252
vt 0.47552443 0.7600284
vt 0.47915912 0.74640083
vt 0.46638775 0.75892407
vt 0.47358143 0.7767538
vt 0.46173525 0.77588046
vt 0.4679321 0.79614025
vt 0.47605085 0.79357684
vt 0.4779687 0.8049611
vt 0.48526192 0.80298406
vt 0.49575806 0.74942094
vt 0.48947048 0.74738914
vt 0.48597288 0.75007313
vt 0.4939952 0.75168157
vt 0.4850211 0.7587493
vt 0.5035355 0.7587961
vt 0.50533724 0.7567711
vt 0.51175857 0.7730242
vt 0.5150976 0.7724371
vt 0.484919 0.7738106
vt 0.50755095 0.79369354
vt 0.5046985 0.7914517
vt 0.48491144 0.78607005
vt 0.49231678 0.79596967
vt 0.49155408 0.79883933
vt 0.4854103 0.79087955
vt 0.4877608 0.7902828
vt 0.4734757 0.7496252
vt 0.47915912 0.74640083
vt 0.47552443 0.7600284
vt 0.46638775 0.75892407
vt 0.47358143 0.7767538
vt 0.46173525 0.77588046
vt 0.4679321 0.79614025
vt 0.47605085 0.79357684
vt 0.4779687 0.8049611
vt 0.48526192 0.80298406
vt 0.49575806 0.74942094
vt 0.48597288 0.75007313
vt 0.48947048 0.74738914
vt 0.4939952 0.75168157
vt 0.4850211 0.7587493
vt 0.5035355 0.7587961
vt 0.50533724 0.7567711
vt 0.51175857 0.7730242
vt 0.5150976 0.7724371
vt 0.484919 0.7738106
vt 0.50755095 0.79369354
vt 0.5046985 0.7914517
vt 0.48491144 0.78607005
vt 0.49231678 0.79596967
vt 0.49155408 0.79883933
vt 0.4854103 0.79087955
vt 0.4877608 0.7902828
vn -0.19040099 0.41649473 -0.8889767
vn -0.36040005 0.7984961 -0.482199
vn 0.89980274 0.23728982 -0.3661264
vn 0.11424611 0.7308062 -0.6729563
vn -0.2593913 0.9656524 -0.015220305
vn 0.21840553 0.96133345 -0.16774139
vn 0.15035251 0.8321855 0.53372407
vn -0.36200088 0.6773913 0.64038765
vn -0.090511344 0.3874594 0.9174328
vn -0.23514627 -0.12032189 0.96448374
vn -0.19040099 0.41649473 -0.8889767
vn 0.89980274 0.23728982 -0.3661264
vn 0.9467291 0.21228047 -0.24215895
vn 0.5835528 -0.2827172 -0.7612734
vn 0.96962625 0.04360338 -0.2406735
vn 0.8110921 -0.0061541875 -0.5848861
vn 0.11424611 0.7308062 -0.6729563
vn 0.92561 0.24979207 -0.28434157
vn 0.21840553 0.96133345 -0.16774139
vn 0.9701849 -0.016574817 -0.24179855
vn 0.15035251 0.8321855 0.53372407
vn 0.9253915 0.14854604 0.34868985
vn 0.9868994 -0.06882125 -0.14592263
vn 0.7317808 -0.28799555 0.6177017
vn -0.090511344 0.3874594 0.9174328
vn -0.23514627 -0.12032189 0.96448374
vn 0.4207925 -0.6015486 0.67902356
vn 0.1904012 0.41649452 -0.88897675
vn -0.89980304 0.23729166 -0.36612466
vn 0.36040008 0.798496 -0.48219895
vn -0.11424614 0.7308062 -0.6729563
vn 0.2593913 0.9656524 -0.0152203245
vn -0.21840553 0.96133345 -0.16774142
vn -0.15035251 0.8321855 0.53372407
vn 0.36200088 0.6773913 0.64038765
vn 0.090511344 0.3874594 0.9174328
vn 0.23515019 -0.12033136 0.96448165
vn 0.1904012 0.41649452 -0.88897675
vn -0.94672817 0.21228814 -0.24215606
vn -0.89980304 0.23729166 -0.36612466
vn -0.58355284 -0.28271586 -0.76127374
vn -0.96962625 0.043603837 -0.24067348
vn -0.81109184 -0.0061537973 -0.5848865
vn -0.11424614 0.7308062 -0.6729563
vn -0.9256097 0.24979259 -0.28434196
vn -0.21840553 0.96133345 -0.16774142
vn -0.97018504 -0.016575804 -0.24179775
vn -0.15035251 0.8321855 0.53372407
vn -0.92539126 0.14854695 0.34869003
vn -0.98689926 -0.0688218 -0.1459225
vn -0.73177946 -0.28799263 0.61770475
vn 0.090511344 0.3874594 0.9174328
vn 0.23515019 -0.12033136 0.96448165
vn -0.42078605 -0.60154974 0.6790265
g NPC_Male_Size03_Ear_001_LOD2_0
f 3/3/3 2/2/2 1/1/1
f 2/2/2 4/4/4 1/1/1
f 4/4/4 2/2/2 5/5/5
f 6/6/6 4/4/4 5/5/5
f 7/7/7 6/6/6 5/5/5
f 8/8/8 7/7/7 5/5/5
f 9/9/9 7/7/7 8/8/8
f 8/8/8 10/10/10 9/9/9
f 13/13/13 12/12/12 11/11/11
f 13/13/13 11/11/11 14/14/14
f 14/14/14 15/15/15 13/13/13
f 16/16/16 14/14/14 11/11/11
f 15/15/15 14/14/14 16/16/16
f 17/17/17 16/16/16 11/11/11
f 15/15/15 16/16/16 18/18/18
f 18/18/18 16/16/16 17/17/17
f 19/19/19 18/18/18 17/17/17
f 20/20/20 15/15/15 18/18/18
f 19/19/19 21/21/21 18/18/18
f 18/18/18 22/22/22 20/20/20
f 21/21/21 22/22/22 18/18/18
f 22/22/22 23/23/23 20/20/20
f 24/24/24 22/22/22 21/21/21
f 25/25/25 24/24/24 21/21/21
f 24/24/24 25/25/25 26/26/26
f 27/27/27 23/23/23 22/22/22
f 26/26/26 23/23/23 27/27/27
f 27/27/27 24/24/24 26/26/26
f 24/24/24 27/27/27 22/22/22
f 30/30/30 29/29/29 28/28/28
f 31/31/31 30/30/30 28/28/28
f 30/30/30 31/31/31 32/32/32
f 31/31/31 33/33/33 32/32/32
f 33/33/33 34/34/34 32/32/32
f 34/34/34 35/35/35 32/32/32
f 34/34/34 36/36/36 35/35/35
f 37/37/37 35/35/35 36/36/36
f 40/40/40 39/39/39 38/38/38
f 38/38/38 39/39/39 41/41/41
f 42/42/42 41/41/41 39/39/39
f 41/41/41 43/43/43 38/38/38
f 41/41/41 42/42/42 43/43/43
f 43/43/43 44/44/44 38/38/38
f 43/43/43 42/42/42 45/45/45
f 43/43/43 45/45/45 44/44/44
f 45/45/45 46/46/46 44/44/44
f 42/42/42 47/47/47 45/45/45
f 48/48/48 46/46/46 45/45/45
f 49/49/49 45/45/45 47/47/47
f 49/49/49 48/48/48 45/45/45
f 50/50/50 49/49/49 47/47/47
f 49/49/49 51/51/51 48/48/48
f 51/51/51 52/52/52 48/48/48
f 53/53/53 52/52/52 51/51/51
f 50/50/50 54/54/54 49/49/49
f 54/54/54 51/51/51 49/49/49
f 54/54/54 53/53/53 51/51/51
f 50/50/50 53/53/53 54/54/54
