g SeparateMesh_Avatar_Female_Size01_Lucy_Model_Lucy_Body_3_LOD2
v 0.12830935 0.040977173 0.72208786
v 0.077309966 0.10422967 0.59654754
v 0.16363332 0.07229347 0.5603
v 0.008991309 0.104312554 0.77002347
v 0.06954458 0.09360416 0.67939144
v 0.056957237 0.088574864 0.78291863
v 0.07743814 0.07659477 0.79086584
v 0.07698605 0.06979131 0.77883995
v 0.089366294 0.05775194 0.80070156
v 0.10306796 -0.0065348498 0.8390946
v 0.107625276 0.00521524 0.8036349
v -0.11075338 0.01251824 0.79770803
v -0.10330467 -0.019944064 0.83651257
v -0.08416389 0.06576238 0.7980635
v -0.101372525 0.04561905 0.80781215
v -0.114174806 0.0083302995 0.80390906
v -0.11906268 0.043227233 0.7428668
v 0.18868425 0.04321243 0.5858395
v 0.16315246 0.018974816 0.678941
v -0.07984843 0.082616575 0.71692914
v -0.060910057 0.07823313 0.6363513
v -0.028860373 0.09624182 0.6873572
v 0.12520258 -0.019484939 0.79913914
v 0.12150582 0.0016213768 0.7962224
v 0.09500643 0.058479838 0.79789597
v 0.112773456 0.01271044 0.81466407
v 0.112078786 -0.00495133 0.83852065
v -0.11739947 -0.00841007 0.83628535
v -0.1118267 0.0074905297 0.8243282
v -0.12542354 -0.026728438 0.7985892
v -0.117257334 -0.044678487 0.814433
v -0.1214454 -0.040704522 0.7875152
v 0.00674762 0.10044609 0.6321234
v 0.042815227 0.10603411 0.5978076
v -0.06979104 0.08772712 0.784505
v -0.12542354 -0.026728438 0.7985892
v -0.11739947 -0.00841007 0.83628535
v -0.11869099 -0.035935625 0.8219281
v 0.119938016 -0.035992213 0.8196455
v 0.11531947 -0.026193768 0.8363283
v 0.12520258 -0.019484939 0.79913914
v 0.11209367 -0.04120008 0.81992567
v 0.18549946 0.012828325 0.624685
v -0.13294478 -0.0022767899 0.76435876
v -0.11853887 -0.0076852795 0.7913968
v -0.12528759 -0.00100493 0.8022168
v -0.11075338 0.01251824 0.79770803
v -0.08416389 0.06576238 0.7980635
v -0.0900063 0.06336754 0.7818969
v -0.08416389 0.06576238 0.7980635
v 0.056957237 0.088574864 0.78291863
v 0.07743814 0.07659477 0.79086584
v 0.07698605 0.06979131 0.77883995
v -0.13429229 -0.01034127 0.7554428
v -0.12736258 0.03564183 0.7089379
v -0.10835363 -0.041018903 0.804218
v -0.11869099 -0.035935625 0.8219281
v 0.03661731 0.10690812 0.5665811
v 0.07601969 0.10433783 0.56921
v 0.0027457299 0.10036055 0.5877672
v 0.11209367 -0.04120008 0.81992567
v 0.119938016 -0.035992213 0.8196455
v 0.21327059 0.02870423 0.5657358
v 0.22760957 0.00842858 0.5701475
v 0.24050789 0.0169992 0.5219593
v 0.20900647 0.044189207 0.5333978
v 0.24721153 0.01534026 0.48810932
v 0.1868242 0.06049325 0.52914655
v 0.17351623 0.06881142 0.539502
v 0.18068261 0.07078422 0.5020115
v 0.1981526 0.05196982 0.5407475
v 0.112773456 0.01271044 0.81466407
v 0.112078786 -0.00495133 0.83852065
v 0.105578475 -0.02788124 0.83604854
v -0.13429229 -0.01034127 0.7554428
v -0.12528759 -0.00100493 0.8022168
v -0.11853887 -0.0076852795 0.7913968
v -0.114174806 0.0083302995 0.80390906
v -0.1118267 0.0074905297 0.8243282
v 0.11531947 -0.026193768 0.8363283
v 0.105578475 -0.02788124 0.83604854
v 0.12150582 0.0016213768 0.7962224
v 0.0086256405 0.09484169 0.7629595
v -0.06917683 0.081094585 0.77407265
v -0.06979104 0.08772712 0.784505
v 0.008991309 0.104312554 0.77002347
v 0.11945031 0.09341931 0.54606783
v 0.10975515 0.09577811 0.55034816
v 0.11269503 0.10022815 0.51955575
v -0.10835363 -0.041018903 0.804218
v -0.117257334 -0.044678487 0.814433
v -0.11869099 -0.035935625 0.8219281
v -0.1214454 -0.040704522 0.7875152
v -0.11739947 -0.00841007 0.83628535
v -0.10330467 -0.019944064 0.83651257
v -0.11869099 -0.035935625 0.8219281
v -0.10330467 -0.019944064 0.83651257
v -0.12542354 -0.026728438 0.7985892
v -0.11853887 -0.0076852795 0.7913968
v -0.12528759 -0.00100493 0.8022168
v 0.07601969 0.10433783 0.56921
v 0.21310282 0.03474606 0.55257136
v 0.10306796 -0.0065348498 0.8390946
v 0.112078786 -0.00495133 0.83852065
v 0.089366294 0.05775194 0.80070156
v 0.10306796 -0.0065348498 0.8390946
v -0.13429229 -0.01034127 0.7554428
v 0.21310282 0.03474606 0.55257136
v -0.1118267 0.0074905297 0.8243282
v 0.19728255 0.05770692 0.5171307
v 0.23129718 0.017272 0.550271
v 0.20900647 0.044189207 0.5333978
v -0.10330467 -0.019944064 0.83651257
v 0.15286388 0.08372103 0.5352075
v 0.0086256405 0.09484169 0.7629595
v 0.008991309 0.104312554 0.77002347
v 0.07743814 0.07659477 0.79086584
vt 0.10161275 0.44851425
vt 0.18127 0.563001
vt 0.116457 0.623474
vt 0.237158 0.376647
vt 0.192211 0.48365176
vt 0.183445 0.371747
vt 0.157795 0.367319
vt 0.31966338 0.70667595
vt 0.317253 0.698863
vt 0.307102 0.68798
vt 0.308551 0.705299
vt 0.341703 0.788361
vt 0.351366 0.812342
vt 0.354126 0.791144
vt 0.362238 0.311291
vt 0.402525 0.304043
vt 0.3947225 0.376359
vt 0.073398 0.602601
vt 0.062635936 0.4997219
vt 0.339207 0.4151535
vt 0.325652 0.486188
vt 0.2931855 0.4566985
vt 0.04855447 0.36181325
vt 0.06945846 0.35766312
vt 0.131522 0.363758
vt 0.08209323 0.34211895
vt 0.079452 0.323806
vt 0.397619 0.269435
vt 0.396479 0.283181
vt 0.443535 0.299328
vt 0.471444 0.2842995
vt 0.465719 0.31088
vt 0.268224 0.521308
vt 0.238715 0.563227
vt 0.314788 0.346642
vt 0.429889 0.287228
vt 0.439151 0.239989
vt 0.450742 0.266909
vt 0.5870375 0.21078219
vt 0.59359735 0.23327634
vt 0.60470325 0.19316085
vt 0.290805 0.688825
vt 0.046645 0.558728
vt 0.431085 0.343044
vt 0.423601 0.310669
vt 0.410151 0.267813
vt 0.341935 0.783739
vt 0.335096 0.756714
vt 0.327404 0.761775
vt 0.336392 0.325307
vt 0.320344 0.764867
vt 0.315359 0.752952
vt 0.308629 0.756002
vt 0.4432529 0.3512984
vt 0.405768 0.411176
vt 0.3323515 0.8152995
vt 0.46339077 0.27385497
vt 0.252157 0.593345
vt 0.211137 0.598304
vt 0.282941 0.564423
vt 0.016395 0.339427
vt 0.03569325 0.35158473
vt 0.04579 0.628473
vt 0.01993 0.623544
vt 0.025634 0.678494
vt 0.06654 0.660875
vt 0.021391 0.714344
vt 0.095686 0.660195
vt 0.109844 0.646733
vt 0.112575 0.687565
vt 0.079058 0.650922
vt 0.6337804 0.22433583
vt 0.6156791 0.24234572
vt 0.298246 0.685514
vt 0.3135334 0.78773373
vt 0.995668 0.440893
vt 0.985158 0.468689
vt 0.98523 0.440911
vt 0.40952 0.248163
vt 0.025923 0.320329
vt 0.015771 0.318581
vt 0.6245813 0.196686
vt 0.306443 0.709041
vt 0.319728 0.748875
vt 0.326828 0.745178
vt 0.313276 0.70775
vt 0.168658 0.629148
vt 0.17814 0.623013
vt 0.181817 0.655349
vt 0.4819255 0.29613
vt 0.471444 0.2842995
vt 0.46339077 0.27385497
vt 0.465719 0.31088
vt 0.469523 0.235959
vt 0.4862395 0.24943998
vt 0.46339077 0.27385497
vt 0.3881085 0.26212752
vt 0.429889 0.287228
vt 0.419215 0.285171
vt 0.410151 0.267813
vt 0.211137 0.598304
vt 0.052664 0.642434
vt 0.021242 0.298265
vt 0.030325 0.299894
vt 0.134825 0.358933
vt 0.085373 0.317475
vt 0.4432529 0.3512984
vt 0.052664 0.642434
vt 0.989399 0.413386
vt 0.087461 0.674786
vt 0.024442 0.645833
vt 0.06654 0.660875
vt 0.4862395 0.24943998
vt 0.134673 0.645946
vt 0.320286 0.780688
vt 0.32707542 0.7819352
vt 0.32064322 0.7005967
vn 0.74282306 0.6184403 0.25640902
vn 0.31809363 0.92990994 0.18461816
vn 0.52247757 0.8215768 0.22809812
vn 0.021831509 0.9997366 -0.0070755654
vn 0.33368966 0.9383709 0.090062425
vn 0.3949531 0.9140403 0.09242397
vn 0.58884215 0.793165 0.15541613
vn -0.75205356 -0.5496147 0.36378428
vn -0.9378522 -0.34486678 0.03873184
vn -0.96905065 -0.19710666 -0.14862683
vn -0.95888984 -0.27746445 -0.059529565
vn 0.87881786 -0.22240736 -0.42215428
vn 0.95551974 -0.10854946 -0.2742245
vn 0.83294123 -0.53331965 -0.14757702
vn -0.58457077 0.5590386 0.58800757
vn -0.9319398 0.26432148 0.24823868
vn -0.83433306 0.53526723 0.13182339
vn 0.6753311 0.6473821 0.35330483
vn 0.8612953 0.36143947 0.357116
vn -0.51313186 0.8561119 -0.061385076
vn -0.33545923 0.9380321 -0.08696451
vn -0.1362597 0.97807306 -0.15750019
vn 0.9160014 0.20689195 0.34371108
vn 0.8800072 0.3637367 0.30542272
vn 0.5827156 0.63107586 0.51204085
vn 0.85040534 0.41972464 0.31724128
vn 0.18377309 0.26775402 0.94579875
vn -0.013887094 0.10941934 0.99389863
vn -0.969106 0.2089389 -0.13106494
vn -0.9724644 -0.17585808 0.15292794
vn -0.94164336 -0.30747566 0.13699117
vn -0.95328414 -0.29304487 0.0733081
vn -0.20100918 0.9536208 0.22405954
vn -0.017339397 0.99640816 0.08288706
vn -0.52265954 0.850175 0.06347758
vn -0.97138625 -0.051580384 0.23183647
vn -0.94644946 0.17672428 0.2701887
vn -0.14404175 -0.7440378 0.6524261
vn 0.9657328 0.013953184 0.25916284
vn 0.96176827 0.13293165 0.23943894
vn 0.94563925 0.163932 0.28087866
vn -0.96626204 -0.12798919 -0.22350928
vn 0.85423696 0.36440375 0.3707951
vn -0.9659976 0.1730079 0.19213781
vn -0.85656875 0.16417298 0.48922107
vn -0.8522337 0.5096236 -0.11824376
vn 0.87881786 -0.22240736 -0.42215428
vn 0.83294123 -0.53331965 -0.14757702
vn 0.833002 -0.5448487 -0.09616502
vn -0.6736949 0.670316 0.31114563
vn -0.41593784 -0.58703566 0.6945393
vn -0.7437252 -0.569462 0.35012254
vn -0.75205356 -0.5496147 0.36378428
vn -0.9879881 0.08490768 0.12911297
vn -0.80453354 0.593896 0.0036621788
vn 0.9493526 0.0043502473 -0.31418273
vn -0.8305314 -0.3669912 0.41896912
vn -0.03557437 0.99908876 0.023583109
vn 0.06407552 0.99782914 0.015210834
vn -0.22504757 0.9741735 0.018425591
vn 0.4259934 -0.8267759 0.36738443
vn 0.5490328 -0.7777621 0.30602112
vn 0.67992496 0.6162776 0.39737156
vn 0.68845016 0.5812608 0.4337884
vn 0.67298853 0.7302539 0.11753989
vn 0.6788993 0.7132695 0.17419095
vn 0.6702265 0.73583376 0.096669324
vn 0.5478743 0.8258515 0.13342829
vn 0.570285 0.81235576 0.12187388
vn 0.60852605 0.77779734 0.15724955
vn 0.57918006 0.7961936 0.1750035
vn 0.94167465 0.20865475 0.2640305
vn 0.98213 0.13645355 0.12961887
vn -0.9425187 -0.06405021 -0.3279573
vn 0.8777916 -0.018858654 -0.47867137
vn -0.8522337 0.5096236 -0.11824376
vn -0.42659968 0.6261382 -0.65265894
vn -0.62525 0.7687179 -0.13466711
vn -0.7778785 0.5754776 0.2524491
vn 0.17936301 -0.47072667 0.8638549
vn 0.17007045 -0.44796297 0.87772727
vn 0.930608 0.21749537 0.2943884
vn -0.07286204 -0.6687688 0.73989135
vn 0.5487807 -0.7363525 0.39575845
vn 0.55869263 -0.73493195 0.38436633
vn -0.07232552 -0.66890454 0.73982143
vn 0.34017518 0.9293772 0.14331397
vn 0.34574765 0.9270884 0.14479521
vn 0.32018286 0.93348646 0.16151124
vn 0.48076242 -0.8768492 0.0017400689
vn 0.6873876 -0.6209754 0.37668002
vn -0.14404175 -0.7440378 0.6524261
vn 0.69542223 -0.45804313 -0.5537007
vn -0.013887094 0.10941934 0.99389863
vn -0.09931924 -0.1018721 0.98982716
vn -0.8305314 -0.3669912 0.41896912
vn -0.09931924 -0.1018721 0.98982716
vn -0.82141197 0.08389691 -0.56413084
vn -0.82141197 0.083896905 -0.56413084
vn -0.82141197 0.083896905 -0.5641309
vn 0.32859263 0.9298145 0.1657466
vn 0.6808955 0.7041627 0.20133613
vn 0.07542944 0.2204355 0.9724806
vn 0.18377309 0.26775402 0.94579875
vn 0.20482437 0.56594396 0.7985953
vn 0.07542944 0.2204355 0.9724806
vn 0.74593496 -0.3080994 -0.5904708
vn 0.65735495 0.6880348 0.30739653
vn -0.7778785 0.5754776 0.2524491
vn 0.53921676 0.822708 0.1799911
vn 0.7085677 0.58648074 0.39239287
vn 0.64378804 0.7486813 0.15815584
vn 0.39359686 -0.79681057 0.4584479
vn 0.32217538 0.93346244 0.1576418
vn -0.07286204 -0.6687688 0.73989135
vn -0.07232552 -0.66890454 0.73982143
vn -0.7437252 -0.569462 0.35012254
g SeparateMesh_Avatar_Female_Size01_Lucy_Model_Lucy_Body_3_LOD2_0
f 3/3/3 2/2/2 1/1/1
f 6/6/6 5/5/5 4/4/4
f 7/7/7 1/1/1 5/5/5
f 10/10/10 9/9/9 8/8/8
f 11/11/11 10/10/10 8/8/8
f 14/14/14 13/13/13 12/12/12
f 17/17/17 16/16/16 15/15/15
f 1/1/1 19/19/19 18/18/18
f 22/22/22 21/21/21 20/20/20
f 23/23/23 19/19/19 1/1/1
f 24/24/24 23/23/23 1/1/1
f 27/27/27 26/26/26 25/25/25
f 29/29/29 28/28/28 15/15/15
f 32/32/32 31/31/31 30/30/30
f 5/5/5 34/34/34 33/33/33
f 20/20/20 35/35/35 4/4/4
f 18/18/18 3/3/3 1/1/1
f 38/38/38 37/37/37 36/36/36
f 1/1/1 25/25/25 26/26/26
f 24/24/24 1/1/1 26/26/26
f 41/41/41 40/40/40 39/39/39
f 11/11/11 42/42/42 10/10/10
f 5/5/5 21/21/21 22/22/22
f 4/4/4 5/5/5 22/22/22
f 19/19/19 43/43/43 18/18/18
f 45/45/45 16/16/16 44/44/44
f 36/36/36 37/37/37 46/46/46
f 49/49/49 48/48/48 47/47/47
f 50/50/50 35/35/35 17/17/17
f 53/53/53 52/52/52 51/51/51
f 55/55/55 54/54/54 17/17/17
f 30/30/30 44/44/44 32/32/32
f 56/56/56 12/12/12 13/13/13
f 57/57/57 30/30/30 31/31/31
f 59/59/59 58/58/58 34/34/34
f 60/60/60 21/21/21 33/33/33
f 62/62/62 61/61/61 43/43/43
f 64/64/64 63/63/63 43/43/43
f 67/67/67 66/66/66 65/65/65
f 70/70/70 69/69/69 68/68/68
f 18/18/18 71/71/71 3/3/3
f 73/73/73 40/40/40 72/72/72
f 74/74/74 10/10/10 42/42/42
f 21/21/21 55/55/55 20/20/20
f 17/17/17 20/20/20 55/55/55
f 75/75/75 12/12/12 56/56/56
f 78/78/78 77/77/77 76/76/76
f 46/46/46 37/37/37 79/79/79
f 1/1/1 7/7/7 25/25/25
f 61/61/61 62/62/62 80/80/80
f 81/81/81 61/61/61 80/80/80
f 63/63/63 18/18/18 43/43/43
f 72/72/72 40/40/40 82/82/82
f 85/85/85 84/84/84 83/83/83
f 86/86/86 85/85/85 83/83/83
f 71/71/71 68/68/68 69/69/69
f 89/89/89 88/88/88 87/87/87
f 48/48/48 49/49/49 84/84/84
f 85/85/85 48/48/48 84/84/84
f 2/2/2 5/5/5 1/1/1
f 34/34/34 5/5/5 2/2/2
f 33/33/33 21/21/21 5/5/5
f 92/92/92 91/91/91 90/90/90
f 93/93/93 90/90/90 91/91/91
f 96/96/96 95/95/95 94/94/94
f 28/28/28 97/97/97 50/50/50
f 45/45/45 44/44/44 30/30/30
f 100/100/100 99/99/99 98/98/98
f 89/89/89 101/101/101 88/88/88
f 66/66/66 102/102/102 65/65/65
f 103/103/103 81/81/81 80/80/80
f 104/104/104 103/103/103 80/80/80
f 27/27/27 25/25/25 105/105/105
f 106/106/106 27/27/27 105/105/105
f 54/54/54 32/32/32 44/44/44
f 93/93/93 107/107/107 90/90/90
f 3/3/3 71/71/71 69/69/69
f 34/34/34 58/58/58 33/33/33
f 63/63/63 108/108/108 18/18/18
f 15/15/15 50/50/50 17/17/17
f 15/15/15 28/28/28 50/50/50
f 109/109/109 78/78/78 76/76/76
f 16/16/16 29/29/29 15/15/15
f 4/4/4 22/22/22 20/20/20
f 110/110/110 68/68/68 71/71/71
f 44/44/44 17/17/17 54/54/54
f 44/44/44 16/16/16 17/17/17
f 20/20/20 17/17/17 35/35/35
f 2/2/2 3/3/3 87/87/87
f 88/88/88 2/2/2 87/87/87
f 6/6/6 7/7/7 5/5/5
f 58/58/58 60/60/60 33/33/33
f 111/111/111 63/63/63 64/64/64
f 25/25/25 7/7/7 105/105/105
f 112/112/112 110/110/110 71/71/71
f 92/92/92 90/90/90 113/113/113
f 114/114/114 89/89/89 87/87/87
f 115/115/115 53/53/53 51/51/51
f 116/116/116 115/115/115 51/51/51
f 117/117/117 8/8/8 9/9/9
f 62/62/62 19/19/19 23/23/23
f 82/82/82 40/40/40 41/41/41
f 19/19/19 62/62/62 43/43/43
