g SeparateMesh_Monster_Cyclops_Model_Monster_Cyclops_Head_LOD1
v -1.0001019E-06 -0.9296964 1.3962955
v 0.03679226 -0.9296964 1.3855994
v 0.036791854 -0.9784779 1.3653914
v -1.0001019E-06 -0.9860398 1.372951
v -1.0001019E-06 -0.87333304 1.372951
v 0.03679127 -0.99868643 1.3166087
v -1.0001019E-06 -1.0093833 1.3166087
v 0.03679238 -0.8808993 1.3653909
v -1.0001019E-06 -0.84998864 1.3166087
v 0.036791887 -0.97847784 1.2678261
v -1.0001019E-06 -0.9860398 1.2602662
v 0.036792167 -0.8606854 1.3166087
v -1.0001019E-06 -0.87333304 1.2602662
v 0.036792304 -0.9296964 1.2476184
v -1.0001019E-06 -0.9296964 1.2369218
v 0.03679238 -0.8808994 1.2678261
v 0.06498683 -0.96039593 1.347318
v 0.06498683 -0.9731091 1.3166087
v 0.07968589 -0.9296964 1.3166087
v 0.06498683 -0.9296964 1.3600317
v 0.06498683 -0.96039593 1.285899
v 0.06498683 -0.89898735 1.347318
v 0.06498683 -0.9296964 1.273186
v 0.06498683 -0.88626325 1.3166087
v 0.06498683 -0.89898735 1.285899
v -0.036793854 -0.9784779 1.3653914
v -0.036794264 -0.9296964 1.3855994
v -1.0001019E-06 -0.9296964 1.3962955
v -1.0001019E-06 -0.9860398 1.372951
v -1.0001019E-06 -0.87333304 1.372951
v -0.03679328 -0.9986867 1.3166087
v -1.0001019E-06 -1.0093833 1.3166087
v -0.03679438 -0.8808993 1.3653909
v -1.0001019E-06 -0.84998864 1.3166087
v -0.03679389 -0.97847784 1.2678261
v -1.0001019E-06 -0.9860398 1.2602662
v -0.03679417 -0.8606854 1.3166087
v -1.0001019E-06 -0.87333304 1.2602662
v -0.03679431 -0.9296964 1.2476184
v -1.0001019E-06 -0.9296964 1.2369218
v -0.036794387 -0.8808994 1.2678261
v -0.06498884 -0.96039593 1.347318
v -0.06498884 -0.97310954 1.3166087
v -0.079687886 -0.9296964 1.3166087
v -0.06498884 -0.9296964 1.3600317
v -0.06498884 -0.96039593 1.285899
v -0.06498884 -0.89898735 1.347318
v -0.06498884 -0.9296964 1.273186
v -0.06498884 -0.88626325 1.3166087
v -0.06498884 -0.89898735 1.285899
vt 0.6513 0.9966
vt 0.6514 0.9908
vt 0.64 0.986
vt 0.6358 0.9901
vt 0.6669 0.9902
vt 0.6353 0.9746
vt 0.6294 0.9745
vt 0.6628 0.986
vt 0.6734 0.9747
vt 0.64 0.9632
vt 0.6359 0.959
vt 0.6676 0.9746
vt 0.667 0.9591
vt 0.6514 0.9584
vt 0.6515 0.9526
vt 0.6628 0.9632
vt 0.6458 0.9803
vt 0.64339995 0.9747
vt 0.6514 0.9746
vt 0.6515 0.9826
vt 0.6457 0.969
vt 0.65709996 0.9807
vt 0.6513 0.9666
vt 0.6594 0.9745
vt 0.657 0.96889997
vt 0.64 0.986
vt 0.6514 0.9908
vt 0.6513 0.9966
vt 0.6358 0.9901
vt 0.6669 0.9902
vt 0.6353 0.9746
vt 0.6294 0.9745
vt 0.6628 0.986
vt 0.6734 0.9747
vt 0.64 0.9632
vt 0.6359 0.959
vt 0.6676 0.9746
vt 0.667 0.9591
vt 0.6514 0.9584
vt 0.6515 0.9526
vt 0.6628 0.9632
vt 0.64675 0.97935
vt 0.64475 0.9747
vt 0.6514 0.9746
vt 0.6515 0.98395
vt 0.64664996 0.96994996
vt 0.65615 0.97975004
vt 0.6513 0.96795
vt 0.65805 0.9745
vt 0.65604997 0.96984994
vn -0 -5.5323704E-05 1
vn 0.46585935 -5.1080082E-05 0.8848588
vn 0.46588394 -0.6256903 0.6256707
vn 7.4154747E-07 -0.7071151 0.7070984
vn -0 0.7070714 0.70714206
vn 0.46591103 -0.8848316 1.1960455E-07
vn 1.260779E-06 -1 0
vn 0.46591982 0.62561136 0.6257229
vn -0 1 5.476877E-07
vn 0.46588522 -0.62568843 -0.62567157
vn 7.2443703E-07 -0.7071135 -0.70710003
vn 0.465975 0.88479793 6.5242045E-07
vn -0 0.7070705 -0.707143
vn 0.46586 -5.2525847E-05 -0.8848585
vn -0 -5.6590172E-05 -1
vn 0.46592048 0.6256081 -0.62572557
vn 0.80815536 -0.41646013 0.41646844
vn 0.80818075 -0.58893454 3.7656804E-07
vn 1 -5.3678123E-05 2.1392097E-07
vn 0.80815077 -3.707315E-05 0.5889757
vn 0.8081544 -0.41645846 -0.41647196
vn 0.8081877 0.41634706 0.4165185
vn 0.8081498 -3.8181894E-05 -0.5889771
vn 0.8082294 0.5888678 7.9502644E-07
vn 0.8081878 0.4163447 -0.41652086
vn -0.4658826 -0.6256896 0.6256723
vn -0.46585935 -5.1080082E-05 0.8848588
vn -0 -5.5323704E-05 1
vn 7.4154747E-07 -0.7071151 0.7070984
vn -0 0.7070714 0.70714206
vn -0.46590936 -0.88483256 0
vn 1.260779E-06 -1 0
vn -0.46591982 0.62561136 0.6257229
vn -0 1 5.476877E-07
vn -0.46588397 -0.6256879 -0.62567306
vn 7.2443703E-07 -0.7071135 -0.70710003
vn -0.465975 0.88479793 6.7416784E-07
vn -0 0.7070705 -0.707143
vn -0.4658599 -5.2536718E-05 -0.8848585
vn -0 -5.6590172E-05 -1
vn -0.46592048 0.6256081 -0.6257256
vn -0.8081552 -0.41645828 0.41647038
vn -0.80818033 -0.588935 3.8702967E-07
vn -1 -5.2885254E-05 1.8450675E-07
vn -0.80815077 -3.707315E-05 0.5889757
vn -0.80815434 -0.4164566 -0.4164739
vn -0.8081878 0.416347 0.4165184
vn -0.8081498 -3.8202812E-05 -0.5889769
vn -0.80822945 0.5888676 8.0548716E-07
vn -0.8081879 0.4163446 -0.41652077
g SeparateMesh_Monster_Cyclops_Model_Monster_Cyclops_Head_LOD1_0
f 3/3/3 2/2/2 1/1/1
f 4/4/4 3/3/3 1/1/1
f 1/1/1 2/2/2 5/5/5
f 6/6/6 3/3/3 4/4/4
f 7/7/7 6/6/6 4/4/4
f 2/2/2 8/8/8 5/5/5
f 5/5/5 8/8/8 9/9/9
f 10/10/10 6/6/6 7/7/7
f 11/11/11 10/10/10 7/7/7
f 8/8/8 12/12/12 9/9/9
f 9/9/9 12/12/12 13/13/13
f 14/14/14 10/10/10 11/11/11
f 15/15/15 14/14/14 11/11/11
f 13/13/13 16/16/16 15/15/15
f 12/12/12 16/16/16 13/13/13
f 16/16/16 14/14/14 15/15/15
f 3/3/3 17/17/17 2/2/2
f 6/6/6 18/18/18 3/3/3
f 18/18/18 17/17/17 3/3/3
f 17/17/17 18/18/18 19/19/19
f 17/17/17 20/20/20 2/2/2
f 2/2/2 20/20/20 8/8/8
f 20/20/20 17/17/17 19/19/19
f 21/21/21 18/18/18 6/6/6
f 10/10/10 21/21/21 6/6/6
f 18/18/18 21/21/21 19/19/19
f 20/20/20 22/22/22 8/8/8
f 8/8/8 22/22/22 12/12/12
f 22/22/22 20/20/20 19/19/19
f 23/23/23 21/21/21 10/10/10
f 14/14/14 23/23/23 10/10/10
f 21/21/21 23/23/23 19/19/19
f 22/22/22 24/24/24 12/12/12
f 12/12/12 24/24/24 16/16/16
f 24/24/24 22/22/22 19/19/19
f 25/25/25 23/23/23 14/14/14
f 16/16/16 25/25/25 14/14/14
f 23/23/23 25/25/25 19/19/19
f 25/25/25 24/24/24 19/19/19
f 24/24/24 25/25/25 16/16/16
f 28/28/28 27/27/27 26/26/26
f 29/29/29 28/28/28 26/26/26
f 28/28/28 30/30/30 27/27/27
f 29/29/29 26/26/26 31/31/31
f 32/32/32 29/29/29 31/31/31
f 30/30/30 33/33/33 27/27/27
f 30/30/30 34/34/34 33/33/33
f 32/32/32 31/31/31 35/35/35
f 36/36/36 32/32/32 35/35/35
f 34/34/34 37/37/37 33/33/33
f 34/34/34 38/38/38 37/37/37
f 36/36/36 35/35/35 39/39/39
f 40/40/40 36/36/36 39/39/39
f 38/38/38 40/40/40 41/41/41
f 38/38/38 41/41/41 37/37/37
f 40/40/40 39/39/39 41/41/41
f 26/26/26 27/27/27 42/42/42
f 31/31/31 26/26/26 43/43/43
f 26/26/26 42/42/42 43/43/43
f 43/43/43 42/42/42 44/44/44
f 27/27/27 45/45/45 42/42/42
f 27/27/27 33/33/33 45/45/45
f 42/42/42 45/45/45 44/44/44
f 31/31/31 43/43/43 46/46/46
f 35/35/35 31/31/31 46/46/46
f 46/46/46 43/43/43 44/44/44
f 33/33/33 47/47/47 45/45/45
f 33/33/33 37/37/37 47/47/47
f 45/45/45 47/47/47 44/44/44
f 35/35/35 46/46/46 48/48/48
f 39/39/39 35/35/35 48/48/48
f 48/48/48 46/46/46 44/44/44
f 37/37/37 49/49/49 47/47/47
f 47/47/47 49/49/49 44/44/44
f 37/37/37 41/41/41 49/49/49
f 39/39/39 48/48/48 50/50/50
f 50/50/50 48/48/48 44/44/44
f 49/49/49 50/50/50 44/44/44
f 41/41/41 39/39/39 50/50/50
f 41/41/41 50/50/50 49/49/49
