g SeparateMesh_Monster_Cyclops_Model_Monster_Cyclops_Head
v 0.030503044 -0.9817441 1.3686774
v -1.0001019E-06 -0.9860398 1.372951
v -1.0001019E-06 -0.96017945 1.3902419
v -1.0001019E-06 -1.0033088 1.3471125
v 0.030503044 -0.95785666 1.3846234
v -1.0001019E-06 -0.9296964 1.3962955
v 0.030503044 -0.99771214 1.3447897
v -1.0001019E-06 -1.0093833 1.3166087
v 0.05634139 -0.96952987 1.356463
v 0.030503044 -0.9296964 1.3902419
v 0.05634139 -0.9512621 1.3686774
v 0.030503044 -0.90151525 1.3846234
v -1.0001019E-06 -0.8991934 1.3902419
v 0.030503044 -0.8776278 1.3686774
v 0.05634139 -0.88984287 1.356463
v -1.0001019E-06 -0.87333304 1.372951
v -1.0001019E-06 -0.8560631 1.3471116
v 0.030503044 -0.86166084 1.3447897
v -1.0001019E-06 -0.84998864 1.3166087
v 0.05634139 -0.9081318 1.3686774
v 0.05634139 -0.9296964 1.372951
v 0.07363228 -0.94136864 1.3447897
v 0.07363228 -0.9180252 1.3447897
v 0.07363228 -0.9296964 1.3471125
v 0.07968589 -0.9296964 1.3166087
v 0.07363228 -0.9512621 1.3381732
v 0.05634139 -0.9817441 1.3381732
v 0.07363228 -0.9081318 1.3381732
v 0.07363228 -0.90151525 1.32828
v 0.07363228 -0.95785666 1.32828
v 0.07363228 -0.9601785 1.3166087
v 0.07363228 -0.8991934 1.3166087
v 0.07363228 -0.95785666 1.3049363
v 0.05634139 -0.8776278 1.3381732
v 0.030503044 -1.0033088 1.3166087
v 0.05634139 -0.9860398 1.3166087
v 0.05634139 -0.9817441 1.295044
v 0.030503044 -0.99771214 1.2884265
v -1.0001019E-06 -1.0033088 1.2861056
v 0.030503044 -0.8560631 1.3166087
v 0.07363228 -0.9512621 1.295044
v 0.05634139 -0.96952987 1.2767541
v 0.030503044 -0.9817441 1.2645389
v -1.0001019E-06 -0.9860398 1.2602662
v -1.0001019E-06 -0.96017945 1.2429743
v 0.030503044 -0.95785666 1.2485931
v -1.0001019E-06 -0.9296964 1.2369218
v 0.07363228 -0.94136864 1.2884265
v 0.05634139 -0.9512621 1.2645389
v 0.030503044 -0.9296964 1.2429743
v 0.05634139 -0.9296964 1.2602662
v 0.030503044 -0.90151525 1.2485931
v -1.0001019E-06 -0.8991934 1.2429743
v 0.07363228 -0.9296964 1.2861056
v 0.05634139 -0.9081318 1.2645389
v 0.05634139 -0.88984287 1.2767541
v 0.030503044 -0.8776278 1.26454
v -1.0001019E-06 -0.87333304 1.2602662
v -1.0001019E-06 -0.8560631 1.2861056
v 0.07363228 -0.9180252 1.2884265
v 0.030503044 -0.8616598 1.2884265
v 0.07363228 -0.9081318 1.295044
v 0.07363228 -0.90151525 1.3049363
v 0.05634139 -0.8776278 1.295044
v 0.05634139 -0.87333304 1.3166087
v -1.0001019E-06 -0.96017945 1.3902419
v -1.0001019E-06 -0.9860398 1.372951
v -0.030505048 -0.9817441 1.3686774
v -1.0001019E-06 -1.0033088 1.3471125
v -0.030505048 -0.95785666 1.3846234
v -1.0001019E-06 -0.9296964 1.3962955
v -0.030505048 -0.99771214 1.3447897
v -1.0001019E-06 -1.0093833 1.3166087
v -0.056343388 -0.96952987 1.356463
v -0.030505048 -0.9296964 1.3902419
v -0.056343388 -0.9512621 1.3686774
v -0.030505048 -0.90151525 1.3846234
v -1.0001019E-06 -0.8991934 1.3902419
v -0.030505048 -0.8776278 1.3686774
v -0.056343388 -0.88984287 1.356463
v -1.0001019E-06 -0.87333304 1.372951
v -1.0001019E-06 -0.8560631 1.3471116
v -0.030505048 -0.86166084 1.3447897
v -1.0001019E-06 -0.84998864 1.3166087
v -0.056343388 -0.9081318 1.3686774
v -0.056343388 -0.9296964 1.372951
v -0.07363428 -0.94136864 1.3447897
v -0.07363428 -0.9180252 1.3447897
v -0.07363428 -0.9296964 1.3471125
v -0.079687886 -0.9296964 1.3166087
v -0.07363428 -0.9512621 1.3381732
v -0.056343388 -0.9817441 1.3381732
v -0.07363428 -0.9081318 1.3381732
v -0.07363428 -0.90151525 1.32828
v -0.07363428 -0.95785666 1.32828
v -0.07363428 -0.96017945 1.3166087
v -0.07363428 -0.8991934 1.3166087
v -0.07363428 -0.95785666 1.3049363
v -0.056343388 -0.8776278 1.3381732
v -0.030505048 -1.0033088 1.3166087
v -0.056343388 -0.9860398 1.3166087
v -0.056343388 -0.9817441 1.295044
v -0.030505048 -0.99771214 1.2884265
v -1.0001019E-06 -1.0033088 1.2861056
v -0.030505048 -0.8560631 1.3166087
v -0.07363428 -0.9512621 1.295044
v -0.030505048 -0.9817441 1.2645389
v -1.0001019E-06 -0.9860398 1.2602662
v -1.0001019E-06 -0.96017945 1.2429743
v -0.056343388 -0.96952987 1.2767541
v -0.030505048 -0.95785666 1.2485931
v -1.0001019E-06 -0.9296964 1.2369218
v -0.07363428 -0.94136864 1.2884265
v -0.056343388 -0.9512621 1.2645389
v -0.030505048 -0.9296964 1.2429743
v -0.056343388 -0.9296964 1.2602662
v -0.030505048 -0.90151525 1.2485931
v -1.0001019E-06 -0.8991934 1.2429743
v -0.07363428 -0.9296964 1.2861056
v -0.056343388 -0.9081318 1.2645389
v -0.056343388 -0.88984287 1.2767541
v -0.030505048 -0.8776278 1.26454
v -1.0001019E-06 -0.87333304 1.2602662
v -1.0001019E-06 -0.8560631 1.2861056
v -0.07363428 -0.9180252 1.2884265
v -0.030505048 -0.8616598 1.2884265
v -0.07363428 -0.9081318 1.295044
v -0.07363428 -0.90151525 1.3049363
v -0.056343388 -0.8776278 1.295044
v -0.056343388 -0.87333304 1.3166087
vt 0.64 0.986
vt 0.6358 0.9901
vt 0.6429 0.9949
vt 0.6311 0.9829
vt 0.6452 0.9895
vt 0.6513 0.9966
vt 0.6365 0.9808
vt 0.6294 0.9745
vt 0.6439 0.9822
vt 0.6514 0.9908
vt 0.6474 0.9845
vt 0.6576 0.9895
vt 0.6597 0.9949
vt 0.6628 0.986
vt 0.659 0.9826
vt 0.6669 0.9902
vt 0.6717 0.9831
vt 0.6663 0.9808
vt 0.6734 0.9747
vt 0.6556 0.9844
vt 0.6515 0.9853
vt 0.6494 0.9795
vt 0.6535 0.9795
vt 0.6515 0.9799
vt 0.6514 0.9746
vt 0.6477 0.9784
vt 0.6416 0.9788
vt 0.6552 0.9788
vt 0.6563 0.9771
vt 0.6465 0.9767
vt 0.6461 0.9747
vt 0.6567 0.9745
vt 0.6465 0.9726
vt 0.6613 0.9791
vt 0.6353 0.9746
vt 0.6407 0.9747
vt 0.6415 0.9706
vt 0.6365 0.9684
vt 0.6312 0.9661
vt 0.6676 0.9746
vt 0.6476 0.9709
vt 0.6438 0.9671
vt 0.64 0.9632
vt 0.6359 0.959
vt 0.6431 0.9543
vt 0.6452 0.9597
vt 0.6515 0.9526
vt 0.6493 0.9697
vt 0.6473 0.9648
vt 0.6514 0.9584
vt 0.6513 0.9639
vt 0.6576 0.9597
vt 0.6599 0.9543
vt 0.6513 0.9693
vt 0.6554 0.9647
vt 0.6589 0.967
vt 0.6628 0.9632
vt 0.667 0.9591
vt 0.6717 0.9663
vt 0.6534 0.9697
vt 0.6663 0.9684
vt 0.6551 0.9708
vt 0.6563 0.9725
vt 0.6612 0.9704
vt 0.6621 0.9745
vt 0.6429 0.9949
vt 0.6358 0.9901
vt 0.64 0.986
vt 0.6311 0.9829
vt 0.6452 0.9895
vt 0.6513 0.9966
vt 0.6365 0.9808
vt 0.6294 0.9745
vt 0.6439 0.9822
vt 0.6514 0.9908
vt 0.6474 0.9845
vt 0.6576 0.9895
vt 0.6597 0.9949
vt 0.6628 0.986
vt 0.659 0.9826
vt 0.6669 0.9902
vt 0.6717 0.9831
vt 0.6663 0.9808
vt 0.6734 0.9747
vt 0.6556 0.9844
vt 0.6515 0.9853
vt 0.6494 0.9795
vt 0.6535 0.9795
vt 0.6515 0.9799
vt 0.6514 0.9746
vt 0.6477 0.9784
vt 0.6416 0.9788
vt 0.6552 0.9788
vt 0.6563 0.9771
vt 0.6465 0.9767
vt 0.6461 0.9747
vt 0.6567 0.9745
vt 0.6465 0.9726
vt 0.6613 0.9791
vt 0.6353 0.9746
vt 0.6407 0.9747
vt 0.6415 0.9706
vt 0.6365 0.9684
vt 0.6312 0.9661
vt 0.6676 0.9746
vt 0.6476 0.9709
vt 0.64 0.9632
vt 0.6359 0.959
vt 0.6431 0.9543
vt 0.6438 0.9671
vt 0.6452 0.9597
vt 0.6515 0.9526
vt 0.6493 0.9697
vt 0.6473 0.9648
vt 0.6514 0.9584
vt 0.6513 0.9639
vt 0.6576 0.9597
vt 0.6599 0.9543
vt 0.6513 0.9693
vt 0.6554 0.9647
vt 0.6589 0.967
vt 0.6628 0.9632
vt 0.667 0.9591
vt 0.6717 0.9663
vt 0.6534 0.9697
vt 0.6663 0.9684
vt 0.6551 0.9708
vt 0.6563 0.9725
vt 0.6612 0.9704
vt 0.6621 0.9745
vn 0.37439603 -0.65559906 0.6557572
vn -0 -0.70708054 0.707133
vn -0 -0.3827 0.9238726
vn -0 -0.9238498 0.38275534
vn 0.37443152 -0.35484222 0.85667264
vn -0 -6.510938E-05 1
vn 0.37445992 -0.8566541 0.35485706
vn -0 -1 7.0698326E-07
vn 0.69508946 -0.50839895 0.5083121
vn 0.37446174 -5.0532217E-05 0.9272423
vn 0.6950213 -0.27513325 0.6642644
vn 0.37447292 0.35477895 0.8566808
vn -0 0.38263687 0.9238989
vn 0.37443113 0.65556306 0.6557731
vn 0.6951513 0.50825065 0.5083758
vn -0 0.70708233 0.7071312
vn -0 0.92385 0.38275477
vn 0.37446144 0.85665137 0.35486192
vn -0 1 1.0003841E-05
vn 0.6950917 0.27496266 0.66426134
vn 0.69512177 -1.7720786E-05 0.7188921
vn 0.91513 -0.15429054 0.37246665
vn 0.9151377 0.1542316 0.37247217
vn 0.91510195 2.7560627E-06 0.40322262
vn 1 -4.329197E-05 1.5286105E-06
vn 0.915117 -0.28527057 0.2849238
vn 0.69516736 -0.66415215 0.27503523
vn 0.91517943 0.28499648 0.28499755
vn 0.9151503 0.3724082 0.15431133
vn 0.9151414 -0.3724871 0.15417357
vn 0.9151399 -0.40313628 2.1410692E-06
vn 0.9151608 0.40308908 2.1337519E-06
vn 0.91514033 -0.37248838 -0.15417749
vn 0.6951967 0.66410226 0.27508163
vn 0.37449992 -0.9272269 1.5133404E-06
vn 0.6951527 -0.71886206 2.3956422E-06
vn 0.69516975 -0.6641509 -0.27503183
vn 0.37445554 -0.856655 -0.35485953
vn -0 -0.9238542 -0.38274455
vn 0.37450406 0.9272253 1.0352093E-05
vn 0.91511834 -0.28527305 -0.2849171
vn 0.69509286 -0.50840193 -0.50830436
vn 0.374392 -0.6556039 -0.6557545
vn -0 -0.70709 -0.7071235
vn -0 -0.38269848 -0.9238733
vn 0.37443155 -0.35484186 -0.8566728
vn -0 -6.51083E-05 -1
vn 0.9151281 -0.15428142 -0.37247506
vn 0.69502634 -0.27512667 -0.6642618
vn 0.37445882 -5.0542563E-05 -0.92724353
vn 0.69512904 -1.7735518E-05 -0.71888494
vn 0.37447348 0.35478517 -0.8566779
vn -0 0.3826419 -0.92389673
vn 0.91510844 2.7486785E-06 -0.40320772
vn 0.6950949 0.27496082 -0.6642588
vn 0.69515216 0.50825256 -0.50837284
vn 0.37443003 0.6555643 -0.65577245
vn -0 0.7070837 -0.7071298
vn -0 0.92385024 -0.38275424
vn 0.9151358 0.15422243 -0.3724806
vn 0.37445837 0.8566511 -0.35486597
vn 0.91518074 0.28499892 -0.28499085
vn 0.9151491 0.37240952 -0.15431526
vn 0.6952033 0.6640962 -0.27507937
vn 0.6951534 0.7188614 7.1918384E-06
vn -0 -0.3827 0.9238726
vn -0 -0.70708054 0.707133
vn -0.37439612 -0.65559906 0.6557572
vn -0 -0.9238498 0.38275534
vn -0.37443158 -0.35484216 0.85667264
vn -0 -6.510938E-05 1
vn -0.37445995 -0.8566541 0.35485697
vn -0 -1 7.0698326E-07
vn -0.69508946 -0.50839895 0.5083121
vn -0.3744619 -5.054228E-05 0.9272423
vn -0.6950212 -0.27513328 0.66426444
vn -0.37447295 0.35477895 0.8566808
vn -0 0.38263687 0.9238989
vn -0.3744312 0.65556306 0.6557731
vn -0.6951512 0.5082506 0.5083759
vn -0 0.70708233 0.7071312
vn -0 0.92385 0.38275477
vn -0.37446147 0.85665137 0.35486192
vn -0 1 1.0003841E-05
vn -0.6950917 0.27496263 0.66426134
vn -0.6951217 -1.7725752E-05 0.71889204
vn -0.91513014 -0.15429054 0.37246662
vn -0.9151377 0.15423155 0.37247214
vn -0.91510195 2.7585127E-06 0.40322256
vn -1 -4.2602605E-05 1.5656225E-06
vn -0.915117 -0.28527057 0.28492376
vn -0.6951656 -0.6641525 0.27503878
vn -0.91517943 0.28499642 0.28499752
vn -0.9151503 0.37240818 0.15431133
vn -0.9151421 -0.37248287 0.15418038
vn -0.9151362 -0.40314472 2.1361839E-06
vn -0.9151608 0.40308893 2.128852E-06
vn -0.9151409 -0.37248415 -0.1541843
vn -0.69519657 0.66410226 0.27508157
vn -0.37449992 -0.9272269 1.5133404E-06
vn -0.6951508 -0.71886396 2.400612E-06
vn -0.69516814 -0.6641513 -0.27503535
vn -0.37445554 -0.856655 -0.3548595
vn -0 -0.9238542 -0.38274455
vn -0.37450415 0.9272253 1.0342037E-05
vn -0.91511834 -0.28527305 -0.2849171
vn -0.37439212 -0.65560406 -0.6557545
vn -0 -0.70709 -0.7071235
vn -0 -0.38269848 -0.9238733
vn -0.69509286 -0.50840205 -0.50830436
vn -0.37443158 -0.35484177 -0.8566728
vn -0 -6.51083E-05 -1
vn -0.9151281 -0.15428141 -0.3724751
vn -0.6950262 -0.27512667 -0.6642618
vn -0.37445885 -5.0537543E-05 -0.92724353
vn -0.6951291 -1.7730548E-05 -0.718885
vn -0.37447357 0.35478517 -0.8566779
vn -0 0.3826419 -0.92389673
vn -0.91510856 2.7535784E-06 -0.4032077
vn -0.6950948 0.27496085 -0.66425884
vn -0.69515204 0.50825256 -0.50837284
vn -0.37443003 0.6555643 -0.65577245
vn -0 0.7070837 -0.7071298
vn -0 0.92385024 -0.38275424
vn -0.9151358 0.15422241 -0.37248057
vn -0.37445837 0.8566511 -0.35486597
vn -0.91518086 0.28499892 -0.28499085
vn -0.9151492 0.37240943 -0.15431526
vn -0.69520324 0.66409624 -0.27507937
vn -0.6951535 0.71886134 7.191838E-06
g SeparateMesh_Monster_Cyclops_Model_Monster_Cyclops_Head_0
f 3/3/3 2/2/2 1/1/1
f 1/1/1 2/2/2 4/4/4
f 1/1/1 5/5/5 3/3/3
f 6/6/6 3/3/3 5/5/5
f 4/4/4 7/7/7 1/1/1
f 7/7/7 4/4/4 8/8/8
f 1/1/1 9/9/9 5/5/5
f 9/9/9 1/1/1 7/7/7
f 5/5/5 10/10/10 6/6/6
f 9/9/9 11/11/11 5/5/5
f 10/10/10 5/5/5 11/11/11
f 6/6/6 10/10/10 12/12/12
f 12/12/12 13/13/13 6/6/6
f 13/13/13 12/12/12 14/14/14
f 15/15/15 14/14/14 12/12/12
f 14/14/14 16/16/16 13/13/13
f 14/14/14 17/17/17 16/16/16
f 18/18/18 17/17/17 14/14/14
f 15/15/15 18/18/18 14/14/14
f 18/18/18 19/19/19 17/17/17
f 20/20/20 12/12/12 10/10/10
f 12/12/12 20/20/20 15/15/15
f 11/11/11 21/21/21 10/10/10
f 10/10/10 21/21/21 20/20/20
f 22/22/22 11/11/11 9/9/9
f 22/22/22 21/21/21 11/11/11
f 23/23/23 20/20/20 21/21/21
f 15/15/15 20/20/20 23/23/23
f 22/22/22 24/24/24 21/21/21
f 21/21/21 24/24/24 23/23/23
f 24/24/24 22/22/22 25/25/25
f 23/23/23 24/24/24 25/25/25
f 9/9/9 26/26/26 22/22/22
f 22/22/22 26/26/26 25/25/25
f 26/26/26 9/9/9 27/27/27
f 7/7/7 27/27/27 9/9/9
f 23/23/23 28/28/28 15/15/15
f 28/28/28 23/23/23 25/25/25
f 15/15/15 28/28/28 29/29/29
f 29/29/29 28/28/28 25/25/25
f 26/26/26 30/30/30 25/25/25
f 27/27/27 30/30/30 26/26/26
f 30/30/30 31/31/31 25/25/25
f 31/31/31 30/30/30 27/27/27
f 32/32/32 29/29/29 25/25/25
f 31/31/31 33/33/33 25/25/25
f 29/29/29 34/34/34 15/15/15
f 34/34/34 29/29/29 32/32/32
f 18/18/18 15/15/15 34/34/34
f 27/27/27 7/7/7 35/35/35
f 8/8/8 35/35/35 7/7/7
f 27/27/27 36/36/36 31/31/31
f 35/35/35 36/36/36 27/27/27
f 31/31/31 36/36/36 37/37/37
f 37/37/37 33/33/33 31/31/31
f 37/37/37 36/36/36 35/35/35
f 38/38/38 35/35/35 8/8/8
f 35/35/35 38/38/38 37/37/37
f 8/8/8 39/39/39 38/38/38
f 34/34/34 40/40/40 18/18/18
f 40/40/40 19/19/19 18/18/18
f 41/41/41 33/33/33 37/37/37
f 33/33/33 41/41/41 25/25/25
f 42/42/42 37/37/37 38/38/38
f 41/41/41 37/37/37 42/42/42
f 43/43/43 38/38/38 39/39/39
f 43/43/43 42/42/42 38/38/38
f 39/39/39 44/44/44 43/43/43
f 43/43/43 44/44/44 45/45/45
f 45/45/45 46/46/46 43/43/43
f 42/42/42 43/43/43 46/46/46
f 46/46/46 45/45/45 47/47/47
f 41/41/41 42/42/42 48/48/48
f 41/41/41 48/48/48 25/25/25
f 46/46/46 49/49/49 42/42/42
f 48/48/48 42/42/42 49/49/49
f 47/47/47 50/50/50 46/46/46
f 49/49/49 46/46/46 50/50/50
f 48/48/48 49/49/49 51/51/51
f 50/50/50 51/51/51 49/49/49
f 52/52/52 50/50/50 47/47/47
f 47/47/47 53/53/53 52/52/52
f 48/48/48 54/54/54 25/25/25
f 51/51/51 54/54/54 48/48/48
f 55/55/55 51/51/51 50/50/50
f 50/50/50 52/52/52 55/55/55
f 56/56/56 55/55/55 52/52/52
f 57/57/57 52/52/52 53/53/53
f 57/57/57 56/56/56 52/52/52
f 53/53/53 58/58/58 57/57/57
f 57/57/57 58/58/58 59/59/59
f 60/60/60 54/54/54 51/51/51
f 51/51/51 55/55/55 60/60/60
f 54/54/54 60/60/60 25/25/25
f 60/60/60 55/55/55 56/56/56
f 59/59/59 61/61/61 57/57/57
f 56/56/56 57/57/57 61/61/61
f 61/61/61 59/59/59 19/19/19
f 19/19/19 40/40/40 61/61/61
f 60/60/60 62/62/62 25/25/25
f 56/56/56 62/62/62 60/60/60
f 62/62/62 63/63/63 25/25/25
f 63/63/63 62/62/62 56/56/56
f 63/63/63 32/32/32 25/25/25
f 61/61/61 64/64/64 56/56/56
f 64/64/64 63/63/63 56/56/56
f 64/64/64 61/61/61 40/40/40
f 63/63/63 64/64/64 32/32/32
f 40/40/40 65/65/65 64/64/64
f 32/32/32 64/64/64 65/65/65
f 65/65/65 40/40/40 34/34/34
f 32/32/32 65/65/65 34/34/34
f 68/68/68 67/67/67 66/66/66
f 69/69/69 67/67/67 68/68/68
f 70/70/70 68/68/68 66/66/66
f 70/70/70 66/66/66 71/71/71
f 68/68/68 72/72/72 69/69/69
f 73/73/73 69/69/69 72/72/72
f 74/74/74 68/68/68 70/70/70
f 72/72/72 68/68/68 74/74/74
f 75/75/75 70/70/70 71/71/71
f 76/76/76 74/74/74 70/70/70
f 76/76/76 70/70/70 75/75/75
f 77/77/77 75/75/75 71/71/71
f 71/71/71 78/78/78 77/77/77
f 79/79/79 77/77/77 78/78/78
f 77/77/77 79/79/79 80/80/80
f 78/78/78 81/81/81 79/79/79
f 82/82/82 79/79/79 81/81/81
f 82/82/82 83/83/83 79/79/79
f 79/79/79 83/83/83 80/80/80
f 84/84/84 83/83/83 82/82/82
f 75/75/75 77/77/77 85/85/85
f 80/80/80 85/85/85 77/77/77
f 86/86/86 76/76/76 75/75/75
f 85/85/85 86/86/86 75/75/75
f 74/74/74 76/76/76 87/87/87
f 87/87/87 76/76/76 86/86/86
f 86/86/86 85/85/85 88/88/88
f 88/88/88 85/85/85 80/80/80
f 86/86/86 89/89/89 87/87/87
f 88/88/88 89/89/89 86/86/86
f 87/87/87 89/89/89 90/90/90
f 89/89/89 88/88/88 90/90/90
f 87/87/87 91/91/91 74/74/74
f 91/91/91 87/87/87 90/90/90
f 92/92/92 74/74/74 91/91/91
f 74/74/74 92/92/92 72/72/72
f 93/93/93 88/88/88 80/80/80
f 88/88/88 93/93/93 90/90/90
f 94/94/94 93/93/93 80/80/80
f 93/93/93 94/94/94 90/90/90
f 95/95/95 91/91/91 90/90/90
f 91/91/91 95/95/95 92/92/92
f 96/96/96 95/95/95 90/90/90
f 95/95/95 96/96/96 92/92/92
f 94/94/94 97/97/97 90/90/90
f 98/98/98 96/96/96 90/90/90
f 80/80/80 99/99/99 94/94/94
f 97/97/97 94/94/94 99/99/99
f 83/83/83 99/99/99 80/80/80
f 100/100/100 72/72/72 92/92/92
f 72/72/72 100/100/100 73/73/73
f 101/101/101 92/92/92 96/96/96
f 92/92/92 101/101/101 100/100/100
f 102/102/102 101/101/101 96/96/96
f 96/96/96 98/98/98 102/102/102
f 101/101/101 102/102/102 100/100/100
f 100/100/100 103/103/103 73/73/73
f 102/102/102 103/103/103 100/100/100
f 103/103/103 104/104/104 73/73/73
f 105/105/105 99/99/99 83/83/83
f 84/84/84 105/105/105 83/83/83
f 102/102/102 98/98/98 106/106/106
f 106/106/106 98/98/98 90/90/90
f 103/103/103 107/107/107 104/104/104
f 107/107/107 108/108/108 104/104/104
f 109/109/109 108/108/108 107/107/107
f 102/102/102 110/110/110 103/103/103
f 106/106/106 110/110/110 102/102/102
f 110/110/110 107/107/107 103/103/103
f 107/107/107 111/111/111 109/109/109
f 111/111/111 107/107/107 110/110/110
f 112/112/112 109/109/109 111/111/111
f 110/110/110 106/106/106 113/113/113
f 113/113/113 106/106/106 90/90/90
f 110/110/110 114/114/114 111/111/111
f 110/110/110 113/113/113 114/114/114
f 111/111/111 115/115/115 112/112/112
f 115/115/115 111/111/111 114/114/114
f 116/116/116 114/114/114 113/113/113
f 114/114/114 116/116/116 115/115/115
f 115/115/115 117/117/117 112/112/112
f 117/117/117 118/118/118 112/112/112
f 119/119/119 113/113/113 90/90/90
f 113/113/113 119/119/119 116/116/116
f 116/116/116 120/120/120 115/115/115
f 120/120/120 117/117/117 115/115/115
f 120/120/120 121/121/121 117/117/117
f 117/117/117 122/122/122 118/118/118
f 121/121/121 122/122/122 117/117/117
f 122/122/122 123/123/123 118/118/118
f 124/124/124 123/123/123 122/122/122
f 119/119/119 125/125/125 116/116/116
f 120/120/120 116/116/116 125/125/125
f 125/125/125 119/119/119 90/90/90
f 121/121/121 120/120/120 125/125/125
f 122/122/122 126/126/126 124/124/124
f 126/126/126 122/122/122 121/121/121
f 84/84/84 124/124/124 126/126/126
f 126/126/126 105/105/105 84/84/84
f 127/127/127 125/125/125 90/90/90
f 125/125/125 127/127/127 121/121/121
f 128/128/128 127/127/127 90/90/90
f 121/121/121 127/127/127 128/128/128
f 97/97/97 128/128/128 90/90/90
f 121/121/121 129/129/129 126/126/126
f 128/128/128 129/129/129 121/121/121
f 105/105/105 126/126/126 129/129/129
f 129/129/129 128/128/128 97/97/97
f 129/129/129 130/130/130 105/105/105
f 129/129/129 97/97/97 130/130/130
f 105/105/105 130/130/130 99/99/99
f 99/99/99 130/130/130 97/97/97
