g Bangboo_Rocketboo_Weapon_T_LOD0
v 0.14986487 1.7591941E-05 0.73640007
v 0.21110666 1.7621176E-05 0.6920301
v 0.1412196 -0.052201603 0.73192376
v 0.14986487 1.7591941E-05 0.73640007
v 0.14121954 0.052236784 0.73192376
v 0.1412196 -0.052201603 0.73192376
v 0.20216233 -0.04689445 0.6853712
v 0.26093903 1.7644068E-05 0.6408751
v 0.20216228 0.046929687 0.6853712
v 0.14121954 0.052236784 0.73192376
v 0.25268066 -0.037994765 0.6335087
v 0.28561032 1.765478E-05 0.60513693
v 0.21420555 -0.073878646 0.64473486
v 0.25268063 0.038030043 0.6335087
v 0.28561032 1.765478E-05 0.60513693
v 0.21420547 0.07391389 0.64473486
v 0.28561032 1.765478E-05 0.60513693
v 0.27103096 -0.033740353 0.6077239
v 0.2710309 0.033775643 0.6077239
v 0.28561032 1.765478E-05 0.60513693
v 0.12681244 -0.08885692 0.7231186
v 0.1412196 -0.052201603 0.73192376
v 0.18524812 -0.07925674 0.67307305
v 0.21420555 -0.073878646 0.64473486
v 0.12681235 0.088892095 0.7231186
v 0.14121954 0.052236784 0.73192376
v 0.18524803 0.07929196 0.67307305
v 0.21420547 0.07391389 0.64473486
v 0.24884312 -0.0588207 0.61465824
v 0.27103096 -0.033740353 0.6077239
v 0.23904319 -0.06806803 0.6197606
v 0.21420555 -0.073878646 0.64473486
v 0.13476945 0.052477006 0.72100616
v 0.26067495 0.033775643 0.6010622
v 0.23848711 0.05885597 0.6079965
v 0.260675 -0.033740357 0.6010622
v 0.13508074 -0.05160187 0.72122717
v 0.23848717 -0.058820706 0.6079965
v 0.13476945 0.052477006 0.72100616
v 0.23848711 0.05885597 0.6079965
v 0.12154934 0.08805541 0.7120951
v 0.23848717 -0.058820706 0.6079965
v 0.13508074 -0.05160187 0.72122717
v 0.120767295 -0.08779587 0.7126254
v 0.24884306 0.058855977 0.61465824
v 0.2710309 0.033775643 0.6077239
v 0.23904313 0.06810329 0.6197606
v 0.21420547 0.07391389 0.64473486
v 0.1412196 -0.052201603 0.73192376
v 0.13508074 -0.05160187 0.72122717
v 0.14388007 1.7594257E-05 0.72551155
v 0.14986487 1.7591941E-05 0.73640007
v 0.28561032 1.765478E-05 0.60513693
v 0.27525437 1.7655071E-05 0.59847516
v 0.260675 -0.033740357 0.6010622
v 0.27103096 -0.033740353 0.6077239
v 0.27103096 -0.033740353 0.6077239
v 0.260675 -0.033740357 0.6010622
v 0.23848717 -0.058820706 0.6079965
v 0.24884312 -0.0588207 0.61465824
v 0.24884312 -0.0588207 0.61465824
v 0.23848717 -0.058820706 0.6079965
v 0.22868724 -0.06806803 0.6130988
v 0.23904319 -0.06806803 0.6197606
v 0.12681244 -0.08885692 0.7231186
v 0.120767295 -0.08779587 0.7126254
v 0.13508074 -0.05160187 0.72122717
v 0.1412196 -0.052201603 0.73192376
v 0.18524812 -0.07925674 0.67307305
v 0.17489217 -0.07925674 0.6664113
v 0.120767295 -0.08779587 0.7126254
v 0.12681244 -0.08885692 0.7231186
v 0.21420555 -0.073878646 0.64473486
v 0.17489217 -0.07925674 0.6664113
v 0.2038496 -0.07387865 0.6380731
v 0.23904319 -0.06806803 0.6197606
v 0.22868724 -0.06806803 0.6130988
v 0.14986487 1.7591941E-05 0.73640007
v 0.14388007 1.7594257E-05 0.72551155
v 0.13476945 0.052477006 0.72100616
v 0.14121954 0.052236784 0.73192376
v 0.23904313 0.06810329 0.6197606
v 0.22868718 0.06810329 0.6130988
v 0.23848711 0.05885597 0.6079965
v 0.24884306 0.058855977 0.61465824
v 0.24884306 0.058855977 0.61465824
v 0.23848711 0.05885597 0.6079965
v 0.26067495 0.033775643 0.6010622
v 0.2710309 0.033775643 0.6077239
v 0.14121954 0.052236784 0.73192376
v 0.13476945 0.052477006 0.72100616
v 0.12154934 0.08805541 0.7120951
v 0.12681235 0.088892095 0.7231186
v 0.12681235 0.088892095 0.7231186
v 0.12154934 0.08805541 0.7120951
v 0.17489208 0.07929196 0.6664113
v 0.18524803 0.07929196 0.67307305
v 0.17489208 0.07929196 0.6664113
v 0.20384952 0.07391388 0.6380731
v 0.21420547 0.07391389 0.64473486
v 0.22868718 0.06810329 0.6130988
v 0.23904313 0.06810329 0.6197606
v 0.2710309 0.033775643 0.6077239
v 0.26067495 0.033775643 0.6010622
v 0.27525437 1.7655071E-05 0.59847516
v 0.28561032 1.765478E-05 0.60513693
v 0.14388007 1.7594257E-05 0.72551155
v 0.13508074 -0.05160187 0.72122717
v 0.260675 -0.033740357 0.6010622
v 0.27525437 1.7655071E-05 0.59847516
v 0.14388007 1.7594257E-05 0.72551155
v 0.27525437 1.7655071E-05 0.59847516
v 0.26067495 0.033775643 0.6010622
v 0.13476945 0.052477006 0.72100616
v 0.12154934 0.08805541 0.7120951
v 0.23848711 0.05885597 0.6079965
v 0.22868718 0.06810329 0.6130988
v 0.17489208 0.07929196 0.6664113
v 0.20384952 0.07391388 0.6380731
v 0.23848717 -0.058820706 0.6079965
v 0.120767295 -0.08779587 0.7126254
v 0.17489217 -0.07925674 0.6664113
v 0.2038496 -0.07387865 0.6380731
v 0.22868724 -0.06806803 0.6130988
vt 0.6483409 0.98750705
vt 0.6483409 0.9372382
vt 0.6121942 0.99019605
vt 0.6483409 0.98750705
vt 0.68448746 0.99019605
vt 0.6121942 0.99019605
vt 0.6163752 0.9389268
vt 0.6483409 0.89022774
vt 0.68030655 0.9389268
vt 0.68448746 0.99019605
vt 0.62213635 0.89055973
vt 0.64834076 0.861573
vt 0.5941186 0.9136669
vt 0.6745453 0.89055973
vt 0.64834076 0.861573
vt 0.70256287 0.9136669
vt 0.64834076 0.861573
vt 0.62412804 0.86939895
vt 0.6725535 0.8693988
vt 0.64834076 0.861573
vt 0.5847958 0.99315315
vt 0.6121942 0.99019605
vt 0.5909655 0.9414689
vt 0.5941186 0.9136669
vt 0.71188587 0.99315304
vt 0.68448746 0.99019605
vt 0.70571613 0.9414688
vt 0.70256287 0.9136669
vt 0.60509115 0.88262004
vt 0.62412804 0.86939895
vt 0.5982323 0.8896732
vt 0.5941186 0.9136669
vt 0.8873516 0.9230262
vt 0.8921322 0.8741189
vt 0.8847386 0.8799372
vt 0.91123277 0.873693
vt 0.9179351 0.92233187
vt 0.9188835 0.879171
vt 0.8873516 0.9230262
vt 0.8847386 0.8799372
vt 0.87624174 0.9238142
vt 0.9188835 0.879171
vt 0.9179351 0.92233187
vt 0.9293149 0.9228776
vt 0.6915905 0.8826199
vt 0.6725535 0.8693988
vt 0.698449 0.88967305
vt 0.70256287 0.9136669
vt 0.9164744 0.9349314
vt 0.9164744 0.93156725
vt 0.9033181 0.93156725
vt 0.9033181 0.9349314
vt 0.9015281 0.86222273
vt 0.9016062 0.8656998
vt 0.91123277 0.8689043
vt 0.91155857 0.8654753
vt 0.91155857 0.8654753
vt 0.91123277 0.8689043
vt 0.9188835 0.8743823
vt 0.91964275 0.87106603
vt 0.91964275 0.87106603
vt 0.9188835 0.8743823
vt 0.9217279 0.8770904
vt 0.9228514 0.8737146
vt 0.92786735 0.9349314
vt 0.92786735 0.93156725
vt 0.9164744 0.93156725
vt 0.9164744 0.9349314
vt 0.9361784 0.9068161
vt 0.93274194 0.9068161
vt 0.93274194 0.92855865
vt 0.9361784 0.92855865
vt 0.9361784 0.89102244
vt 0.93274194 0.9068161
vt 0.93274194 0.89102244
vt 0.9361784 0.88049465
vt 0.93274194 0.88049465
vt 0.9033181 0.9349314
vt 0.9033181 0.93156725
vt 0.88844436 0.93156725
vt 0.88844436 0.9349314
vt 0.88074255 0.8746735
vt 0.88202477 0.87798804
vt 0.8847386 0.8751484
vt 0.8838227 0.871871
vt 0.8838227 0.871871
vt 0.8847386 0.8751484
vt 0.8921322 0.86933017
vt 0.8916516 0.86591965
vt 0.88844436 0.9349314
vt 0.88844436 0.93156725
vt 0.87624174 0.93156725
vt 0.87624174 0.9349314
vt 0.86878866 0.9280796
vt 0.8722384 0.9280796
vt 0.8722384 0.9081842
vt 0.86878866 0.9081842
vt 0.8722384 0.9081842
vt 0.8722384 0.8915632
vt 0.86878866 0.8915632
vt 0.8722384 0.881058
vt 0.86878866 0.881058
vt 0.8916516 0.86591965
vt 0.8921322 0.86933017
vt 0.9016062 0.8656998
vt 0.9015281 0.86222273
vt 0.90274656 0.9218911
vt 0.9179351 0.92233187
vt 0.91123277 0.873693
vt 0.9016062 0.8704885
vt 0.90274656 0.9218911
vt 0.9016062 0.8704885
vt 0.8921322 0.8741189
vt 0.8873516 0.9230262
vt 0.87624174 0.9238142
vt 0.8847386 0.8799372
vt 0.88202477 0.8827768
vt 0.87877524 0.9040807
vt 0.88041365 0.8926956
vt 0.9188835 0.879171
vt 0.9293149 0.9228776
vt 0.92594093 0.9030136
vt 0.92378676 0.89171576
vt 0.9217279 0.8818791
vn 0.58670455 3.1067253E-07 0.809801
vn 0.664923 2.810864E-07 0.7469118
vn 0.59655887 -0.34756368 0.7234065
vn 0.58670455 3.1067253E-07 0.809801
vn 0.59655845 0.34756443 0.7234065
vn 0.59655887 -0.34756368 0.7234065
vn 0.6435679 -0.37492812 0.66727006
vn 0.77894163 3.9350115E-07 0.6270964
vn 0.64356744 0.37492892 0.66727
vn 0.59655845 0.34756443 0.7234065
vn 0.7306878 -0.410088 0.54582334
vn 0.8296083 4.1201474E-07 0.5583458
vn 0.64892393 -0.5344807 0.5415054
vn 0.7306875 0.41008866 0.5458233
vn 0.8296083 4.1201474E-07 0.5583458
vn 0.64892334 0.53448147 0.54150534
vn 0.8296083 4.1201474E-07 0.5583458
vn 0.7827919 -0.37621424 0.49568105
vn 0.78279155 0.37621507 0.49568087
vn 0.8296083 4.1201474E-07 0.5583458
vn 0.5902683 -0.46880037 0.6571222
vn 0.59655887 -0.34756368 0.7234065
vn 0.6120021 -0.501363 0.61162794
vn 0.64892393 -0.5344807 0.5415054
vn 0.59026784 0.4688012 0.6571221
vn 0.59655845 0.34756443 0.7234065
vn 0.6120014 0.5013638 0.6116278
vn 0.64892334 0.53448147 0.54150534
vn 0.72985774 -0.5277597 0.43448538
vn 0.7827919 -0.37621424 0.49568105
vn 0.6819825 -0.53608674 0.49750453
vn 0.64892393 -0.5344807 0.5415054
vn -0.67641884 -0.3174452 -0.66459477
vn -0.6816914 -0.26470944 -0.68207455
vn -0.6729657 -0.33953843 -0.6571385
vn -0.6821675 0.26359707 -0.68202937
vn -0.67579 0.3202305 -0.6638977
vn -0.6729398 0.33826548 -0.657821
vn -0.67641884 -0.3174452 -0.66459477
vn -0.6729657 -0.33953843 -0.6571385
vn -0.6656765 -0.38744533 -0.63777804
vn -0.6729398 0.33826548 -0.657821
vn -0.67579 0.3202305 -0.6638977
vn -0.6637738 0.39236715 -0.63675135
vn 0.7298574 0.52776015 0.43448526
vn 0.78279155 0.37621507 0.49568087
vn 0.681982 0.5360872 0.4975049
vn 0.64892334 0.53448147 0.54150534
vn -0.8561627 0.1502083 0.4943913
vn -0.852564 0.16517702 0.4958339
vn -0.8699109 -0.00023924634 0.49320891
vn -0.8699117 -0.000119845776 0.4932074
vn 0.54100823 2.0786058E-07 -0.84101725
vn 0.5410083 4.157761E-07 -0.84101737
vn 0.47692385 -0.47209746 -0.7413957
vn 0.49565613 -0.40078768 -0.77051556
vn 0.49565613 -0.40078768 -0.77051556
vn 0.47692385 -0.47209746 -0.7413957
vn 0.40084174 -0.6715979 -0.6231229
vn 0.4184502 -0.63384116 -0.65049595
vn 0.4184502 -0.63384116 -0.65049595
vn 0.40084174 -0.6715979 -0.6231229
vn 0.21298562 -0.9192466 -0.3310933
vn 0.27009618 -0.8664606 -0.41987383
vn -0.83997816 0.21178593 0.4995833
vn -0.8399782 0.21178588 0.49958324
vn -0.852564 0.16517702 0.4958339
vn -0.8561627 0.1502083 0.4943913
vn 0.067176126 -0.9910616 -0.11525751
vn 0.06490237 -0.99113137 -0.115957834
vn 0.059041407 -0.9912854 -0.1177595
vn 0.059041407 -0.9912854 -0.1177595
vn 0.082677834 -0.98825383 -0.1285252
vn 0.06490237 -0.99113137 -0.115957834
vn 0.08034472 -0.98891103 -0.12489832
vn 0.27009618 -0.8664606 -0.41987383
vn 0.21298562 -0.9192466 -0.3310933
vn -0.8699117 -0.000119845776 0.4932074
vn -0.8699109 -0.00023924634 0.49320891
vn -0.862698 -0.16926725 0.47655082
vn -0.86365426 -0.14899245 0.48156267
vn 0.27009544 0.86646086 -0.41987392
vn 0.21298474 0.9192468 -0.33109328
vn 0.4008412 0.67159814 -0.623123
vn 0.4184497 0.6338414 -0.65049595
vn 0.4184497 0.6338414 -0.65049595
vn 0.4008412 0.67159814 -0.623123
vn 0.47692356 0.47209796 -0.7413956
vn 0.49565586 0.4007882 -0.7705154
vn -0.86365426 -0.14899245 0.48156267
vn -0.862698 -0.16926725 0.47655082
vn -0.8591609 -0.2146812 0.46449384
vn -0.8591609 -0.2146812 0.46449387
vn 0.069878384 0.99162346 -0.1086277
vn 0.06987838 0.99162346 -0.10862771
vn 0.07118587 0.99130553 -0.11066074
vn 0.07169218 0.9911809 -0.11144802
vn 0.07118587 0.99130553 -0.11066074
vn 0.08034401 0.98891115 -0.12489823
vn 0.08267706 0.98825395 -0.12852508
vn 0.21298474 0.9192468 -0.33109328
vn 0.27009544 0.86646086 -0.41987392
vn 0.49565586 0.4007882 -0.7705154
vn 0.47692356 0.47209796 -0.7413956
vn 0.5410083 4.157761E-07 -0.84101737
vn 0.54100823 2.0786058E-07 -0.84101725
vn -0.7005189 -0.0011040604 -0.71363306
vn -0.67579 0.3202305 -0.6638977
vn -0.6821675 0.26359707 -0.68202937
vn -0.7005189 -0.0010885847 -0.71363306
vn -0.7005189 -0.0011040604 -0.71363306
vn -0.7005189 -0.0010885847 -0.71363306
vn -0.6816914 -0.26470944 -0.68207455
vn -0.67641884 -0.3174452 -0.66459477
vn -0.6656765 -0.38744533 -0.63777804
vn -0.6729657 -0.33953843 -0.6571385
vn -0.6807484 -0.013723962 -0.73238873
vn -0.68074846 -0.013723963 -0.7323887
vn -0.68074846 -0.013723963 -0.7323887
vn -0.6729398 0.33826548 -0.657821
vn -0.6637738 0.39236715 -0.63675135
vn -0.6791359 0.0044213543 -0.73399925
vn -0.6791359 0.004421355 -0.73399925
vn -0.679136 0.0044213547 -0.73399925
g Bangboo_Rocketboo_Weapon_T_LOD0_0
f 3/3/3 2/2/2 1/1/1
f 2/2/2 5/5/5 4/4/4
f 7/7/7 2/2/2 6/6/6
f 2/2/2 7/7/7 8/8/8
f 9/9/9 2/2/2 8/8/8
f 2/2/2 9/9/9 10/10/10
f 8/8/8 7/7/7 11/11/11
f 11/11/11 12/12/12 8/8/8
f 11/11/11 7/7/7 13/13/13
f 9/9/9 8/8/8 14/14/14
f 15/15/15 14/14/14 8/8/8
f 9/9/9 14/14/14 16/16/16
f 18/18/18 17/17/17 11/11/11
f 20/20/20 19/19/19 14/14/14
f 22/22/22 21/21/21 7/7/7
f 21/21/21 23/23/23 7/7/7
f 23/23/23 24/24/24 7/7/7
f 26/26/26 9/9/9 25/25/25
f 9/9/9 27/27/27 25/25/25
f 28/28/28 27/27/27 9/9/9
f 30/30/30 11/11/11 29/29/29
f 11/11/11 31/31/31 29/29/29
f 31/31/31 11/11/11 32/32/32
f 35/35/35 34/34/34 33/33/33
f 38/38/38 37/37/37 36/36/36
f 41/41/41 40/40/40 39/39/39
f 44/44/44 43/43/43 42/42/42
f 46/46/46 45/45/45 14/14/14
f 45/45/45 47/47/47 14/14/14
f 14/14/14 47/47/47 48/48/48
f 51/51/51 50/50/50 49/49/49
f 52/52/52 51/51/51 49/49/49
f 55/55/55 54/54/54 53/53/53
f 56/56/56 55/55/55 53/53/53
f 59/59/59 58/58/58 57/57/57
f 60/60/60 59/59/59 57/57/57
f 63/63/63 62/62/62 61/61/61
f 64/64/64 63/63/63 61/61/61
f 67/67/67 66/66/66 65/65/65
f 68/68/68 67/67/67 65/65/65
f 71/71/71 70/70/70 69/69/69
f 72/72/72 71/71/71 69/69/69
f 69/69/69 74/74/74 73/73/73
f 74/74/74 75/75/75 73/73/73
f 73/73/73 75/75/75 76/76/76
f 75/75/75 77/77/77 76/76/76
f 80/80/80 79/79/79 78/78/78
f 81/81/81 80/80/80 78/78/78
f 84/84/84 83/83/83 82/82/82
f 85/85/85 84/84/84 82/82/82
f 88/88/88 87/87/87 86/86/86
f 89/89/89 88/88/88 86/86/86
f 92/92/92 91/91/91 90/90/90
f 93/93/93 92/92/92 90/90/90
f 96/96/96 95/95/95 94/94/94
f 97/97/97 96/96/96 94/94/94
f 99/99/99 98/98/98 97/97/97
f 100/100/100 99/99/99 97/97/97
f 101/101/101 99/99/99 100/100/100
f 102/102/102 101/101/101 100/100/100
f 105/105/105 104/104/104 103/103/103
f 106/106/106 105/105/105 103/103/103
f 109/109/109 108/108/108 107/107/107
f 110/110/110 109/109/109 107/107/107
f 113/113/113 112/112/112 111/111/111
f 114/114/114 113/113/113 111/111/111
f 117/117/117 116/116/116 115/115/115
f 115/115/115 118/118/118 117/117/117
f 118/118/118 119/119/119 117/117/117
f 122/122/122 121/121/121 120/120/120
f 120/120/120 123/123/123 122/122/122
f 120/120/120 124/124/124 123/123/123
