g SeparateMesh_NPC_Yi_Model_NPC_Yi_PingMu
v -0.13702245 -0.08817837 1.6309766
v -0.14374541 -0.046193246 1.4869566
v -0.14374541 -0.04619328 1.6309766
v -0.13702245 -0.08817834 1.4869566
v -0.11655136 -0.12835522 1.6309766
v -0.11655136 -0.12835519 1.4869566
v -0.084666915 -0.16023967 1.6309766
v -0.084666915 -0.16023967 1.4869566
v -0.044490166 -0.18071072 1.6309766
v -0.044490166 -0.18071069 1.4869566
v 4.6125482E-05 -0.18776454 1.6309766
v 4.6125482E-05 -0.18776453 1.4869566
v 0.044582404 -0.18071072 1.6309766
v 0.044582404 -0.18071069 1.4869566
v 0.08475917 -0.16023967 1.6309766
v 0.08475917 -0.16023967 1.4869566
v 0.11664363 -0.12835522 1.6309766
v 0.11664363 -0.12835519 1.4869566
v 0.13711467 -0.08817837 1.6309766
v 0.13711467 -0.08817834 1.4869566
v 0.14384042 -0.046175655 1.6309766
v 0.14384042 -0.04617562 1.4869566
v -0.13884695 -0.043226942 1.4848665
v -0.14374541 -0.046193246 1.4869566
v -0.13702245 -0.08817834 1.4869566
v -0.13201307 -0.08655045 1.4848666
v -0.13702245 -0.08817834 1.4869566
v -0.112290174 -0.12525903 1.4848666
v -0.11655136 -0.12835519 1.4869566
v -0.11655136 -0.12835519 1.4869566
v -0.08157098 -0.15597825 1.4848665
v -0.084666915 -0.16023967 1.4869566
v -0.084666915 -0.16023967 1.4869566
v -0.042862527 -0.17570123 1.4848665
v -0.044490166 -0.18071069 1.4869566
v -0.044490166 -0.18071069 1.4869566
v 4.6125482E-05 -0.18776453 1.4869566
v 4.618287E-05 -0.18249719 1.4848665
v 4.6125482E-05 -0.18776453 1.4869566
v 0.044582404 -0.18071069 1.4869566
v 0.042954817 -0.17570116 1.4848665
v 0.044582404 -0.18071069 1.4869566
v 0.08475917 -0.16023967 1.4869566
v 0.08166318 -0.15597802 1.4848665
v 0.08475917 -0.16023967 1.4869566
v 0.11664363 -0.12835519 1.4869566
v 0.112382516 -0.12525895 1.4848665
v 0.11664363 -0.12835519 1.4869566
v 0.13210535 -0.08655045 1.4848666
v 0.13711467 -0.08817834 1.4869566
v 0.13711467 -0.08817834 1.4869566
v 0.13893905 -0.043226864 1.4848666
v 0.14384042 -0.04617562 1.4869566
v 0.13893907 -0.043226894 1.633067
v 0.14384042 -0.046175655 1.6309766
v 0.13711467 -0.08817837 1.6309766
v 0.13210528 -0.08655033 1.6330671
v 0.11664363 -0.12835522 1.6309766
v 0.13711467 -0.08817837 1.6309766
v 0.112382464 -0.12525891 1.633067
v 0.11664363 -0.12835522 1.6309766
v 0.081663266 -0.15597813 1.633067
v 0.08475917 -0.16023967 1.6309766
v 0.04295477 -0.17570125 1.633067
v 0.08475917 -0.16023967 1.6309766
v 0.044582404 -0.18071072 1.6309766
v 0.044582404 -0.18071072 1.6309766
v 4.6144723E-05 -0.18249722 1.6330671
v 4.6125482E-05 -0.18776454 1.6309766
v -0.04286247 -0.17570102 1.633067
v 4.6125482E-05 -0.18776454 1.6309766
v -0.044490166 -0.18071072 1.6309766
v -0.081571005 -0.15597796 1.633067
v -0.044490166 -0.18071072 1.6309766
v -0.084666915 -0.16023967 1.6309766
v -0.11229021 -0.12525891 1.633067
v -0.084666915 -0.16023967 1.6309766
v -0.11655136 -0.12835522 1.6309766
v -0.13201317 -0.08655041 1.633067
v -0.11655136 -0.12835522 1.6309766
v -0.13702245 -0.08817837 1.6309766
v -0.1388469 -0.043226894 1.633067
v -0.13702245 -0.08817837 1.6309766
v -0.14374541 -0.04619328 1.6309766
v -0.14374541 -0.04619328 1.6309766
v -0.14374541 -0.046193246 1.4869566
v -0.13884695 -0.043226942 1.4848665
v -0.1388469 -0.043226894 1.633067
v 0.14384042 -0.046175655 1.6309766
v 0.13893907 -0.043226894 1.633067
v 0.13893905 -0.043226864 1.4848666
v 0.14384042 -0.04617562 1.4869566
vt 0.12566158 0.9632617
vt 0.03187543 0.6518601
vt 0.031875428 0.9632617
vt 0.1256616 0.6518184
vt 0.21941547 0.9632617
vt 0.21941549 0.6518184
vt 0.3131705 0.9632617
vt 0.3131705 0.6518321
vt 0.40692794 0.9632617
vt 0.40692797 0.6518389
vt 0.5006919 0.9632617
vt 0.5006919 0.65183914
vt 0.59445876 0.9632617
vt 0.59445876 0.6518408
vt 0.6882259 0.9632617
vt 0.6882259 0.65183747
vt 0.78197736 0.9632617
vt 0.78197736 0.6517998
vt 0.87572014 0.9632617
vt 0.87572014 0.65180945
vt 0.96963346 0.9632617
vt 0.96963346 0.65185297
vt 0.02594979 0.6463068
vt 0.03187543 0.6518601
vt 0.1256616 0.6518184
vt 0.12566161 0.6462075
vt 0.1256616 0.6518184
vt 0.21941549 0.6462075
vt 0.21941549 0.6518184
vt 0.21941549 0.6518184
vt 0.3131705 0.6462075
vt 0.3131705 0.6518321
vt 0.3131705 0.6518321
vt 0.40692797 0.6462075
vt 0.40692797 0.6518389
vt 0.40692797 0.6518389
vt 0.5006919 0.65183914
vt 0.5006919 0.6462075
vt 0.5006919 0.65183914
vt 0.59445876 0.6518408
vt 0.59445876 0.6462075
vt 0.59445876 0.6518408
vt 0.6882259 0.65183747
vt 0.6882259 0.6462075
vt 0.6882259 0.65183747
vt 0.78197736 0.6517998
vt 0.78197736 0.6462075
vt 0.78197736 0.6517998
vt 0.87572014 0.6462075
vt 0.87572014 0.65180945
vt 0.87572014 0.65180945
vt 0.975475 0.64630115
vt 0.96963346 0.65185297
vt 0.975475 0.9687884
vt 0.96963346 0.9632617
vt 0.87572014 0.9632617
vt 0.87572014 0.96888167
vt 0.78197736 0.9632617
vt 0.87572014 0.9632617
vt 0.78197736 0.96888167
vt 0.78197736 0.9632617
vt 0.6882259 0.96888167
vt 0.6882259 0.9632617
vt 0.59445876 0.96888167
vt 0.6882259 0.9632617
vt 0.59445876 0.9632617
vt 0.59445876 0.9632617
vt 0.5006919 0.96888167
vt 0.5006919 0.9632617
vt 0.40692794 0.96888167
vt 0.5006919 0.9632617
vt 0.40692794 0.9632617
vt 0.3131705 0.96888167
vt 0.40692794 0.9632617
vt 0.3131705 0.9632617
vt 0.21941547 0.96888167
vt 0.3131705 0.9632617
vt 0.21941547 0.9632617
vt 0.12566158 0.96888167
vt 0.21941547 0.9632617
vt 0.12566158 0.9632617
vt 0.02594979 0.96879363
vt 0.12566158 0.9632617
vt 0.031875428 0.9632617
vt 0.031875428 0.9632617
vt 0.03187543 0.6518601
vt 0.02594979 0.6463068
vt 0.02594979 0.96879363
vt 0.96963346 0.9632617
vt 0.975475 0.9687884
vt 0.975475 0.64630115
vt 0.96963346 0.65185297
vn -0.9507936 -0.30982482 0
vn -0.987421 -0.15811318 0
vn -0.987421 -0.15811318 0
vn -0.9507936 -0.30982482 0
vn -0.80901736 -0.58778465 0
vn -0.80901736 -0.58778465 0
vn -0.5877851 -0.8090171 0
vn -0.5877851 -0.8090171 0
vn -0.3090163 -0.95105666 0
vn -0.3090163 -0.95105666 0
vn -0 -1 -1.3242146E-07
vn -0 -1 -1.3242148E-07
vn 0.30901626 -0.9510568 0
vn 0.30901626 -0.9510568 0
vn 0.58778495 -0.8090173 0
vn 0.58778495 -0.8090173 0
vn 0.80901754 -0.5877845 0
vn 0.80901754 -0.5877845 0
vn 0.950794 -0.309824 0
vn 0.950794 -0.30982393 0
vn 0.98742115 -0.15811212 0
vn 0.98742115 -0.1581121 0
vn -0.3651081 -0.05802298 -0.9291553
vn -0.3651081 -0.05802298 -0.9291553
vn -0.34922516 -0.11379272 -0.9301038
vn -0.34921965 -0.11381117 -0.9301036
vn -0.34922516 -0.11379272 -0.9301038
vn -0.29838455 -0.21678716 -0.92949986
vn -0.29838306 -0.21678914 -0.92949986
vn -0.29838306 -0.21678914 -0.92949986
vn -0.2167952 -0.2983916 -0.92949575
vn -0.2167937 -0.2983927 -0.92949575
vn -0.2167937 -0.2983927 -0.92949575
vn -0.11397726 -0.35078615 -0.9294936
vn -0.11397687 -0.3507863 -0.9294936
vn -0.11397687 -0.3507863 -0.9294936
vn -3.4569828E-07 -0.3688374 -0.9294939
vn 4.4126264E-07 -0.36883736 -0.9294939
vn -3.4569828E-07 -0.3688374 -0.9294939
vn 0.113974854 -0.35078165 -0.9294955
vn 0.11397619 -0.35078123 -0.9294955
vn 0.113974854 -0.35078165 -0.9294955
vn 0.21679261 -0.29839188 -0.9294963
vn 0.21679507 -0.29839015 -0.9294963
vn 0.21679261 -0.29839188 -0.9294963
vn 0.29839054 -0.21679513 -0.92949605
vn 0.29839274 -0.21679202 -0.92949605
vn 0.29839054 -0.21679513 -0.92949605
vn 0.34922048 -0.113811255 -0.9301033
vn 0.34922585 -0.11379306 -0.93010336
vn 0.34922585 -0.11379306 -0.93010336
vn 0.36509606 -0.058018453 -0.92916024
vn 0.36509606 -0.058018453 -0.92916024
vn 0.36517468 -0.05802973 0.92912865
vn 0.36517468 -0.05802973 0.92912865
vn 0.3492931 -0.11381553 0.93007547
vn 0.3492882 -0.11383214 0.9300752
vn 0.29843578 -0.21682812 0.92947394
vn 0.3492931 -0.11381553 0.93007547
vn 0.2984383 -0.21682458 0.92947394
vn 0.29843578 -0.21682812 0.92947394
vn 0.21682437 -0.2984304 0.9294764
vn 0.21682182 -0.29843232 0.9294764
vn 0.11399296 -0.35083482 0.9294733
vn 0.21682182 -0.29843232 0.9294764
vn 0.11399255 -0.35083494 0.9294733
vn 0.11399255 -0.35083494 0.9294733
vn 1.4563884E-07 -0.36889273 0.92947197
vn -0 -0.3688927 0.92947197
vn -0.11399024 -0.35082594 0.9294769
vn -0 -0.3688927 0.92947197
vn -0.11398959 -0.35082614 0.9294769
vn -0.21682069 -0.29842415 0.92947936
vn -0.11398959 -0.35082614 0.9294769
vn -0.21681729 -0.2984266 0.92947936
vn -0.29843405 -0.21682172 0.92947596
vn -0.21681729 -0.2984266 0.92947936
vn -0.2984315 -0.21682522 0.92947584
vn -0.34928182 -0.11383067 0.9300778
vn -0.2984315 -0.21682522 0.92947584
vn -0.3492869 -0.113813564 0.930078
vn -0.36516806 -0.05803019 0.9291312
vn -0.3492869 -0.113813564 0.930078
vn -0.36516806 -0.058030188 0.9291312
vn -0.517991 0.8553861 0
vn -0.517991 0.8553861 0
vn -0.517991 0.8553861 0
vn -0.517991 0.8553861 0
vn 0.51551664 0.85687953 1.6447865E-07
vn 0.5155167 0.85687953 1.6447866E-07
vn 0.5155166 0.8568796 1.6447864E-07
vn 0.5155167 0.85687953 1.6447866E-07
g SeparateMesh_NPC_Yi_Model_NPC_Yi_PingMu_0
f 3/3/3 2/2/2 1/1/1
f 2/2/2 4/4/4 1/1/1
f 1/1/1 4/4/4 5/5/5
f 4/4/4 6/6/6 5/5/5
f 5/5/5 6/6/6 7/7/7
f 6/6/6 8/8/8 7/7/7
f 7/7/7 8/8/8 9/9/9
f 8/8/8 10/10/10 9/9/9
f 9/9/9 10/10/10 11/11/11
f 10/10/10 12/12/12 11/11/11
f 11/11/11 12/12/12 13/13/13
f 12/12/12 14/14/14 13/13/13
f 13/13/13 14/14/14 15/15/15
f 14/14/14 16/16/16 15/15/15
f 15/15/15 16/16/16 17/17/17
f 16/16/16 18/18/18 17/17/17
f 17/17/17 18/18/18 19/19/19
f 18/18/18 20/20/20 19/19/19
f 21/21/21 19/19/19 20/20/20
f 22/22/22 21/21/21 20/20/20
f 25/25/25 24/24/24 23/23/23
f 26/26/26 25/25/25 23/23/23
f 26/26/26 28/28/28 27/27/27
f 28/28/28 29/29/29 27/27/27
f 28/28/28 31/31/31 30/30/30
f 31/31/31 32/32/32 30/30/30
f 31/31/31 34/34/34 33/33/33
f 34/34/34 35/35/35 33/33/33
f 37/37/37 36/36/36 34/34/34
f 38/38/38 37/37/37 34/34/34
f 40/40/40 39/39/39 38/38/38
f 41/41/41 40/40/40 38/38/38
f 43/43/43 42/42/42 41/41/41
f 44/44/44 43/43/43 41/41/41
f 46/46/46 45/45/45 44/44/44
f 47/47/47 46/46/46 44/44/44
f 47/47/47 49/49/49 48/48/48
f 49/49/49 50/50/50 48/48/48
f 49/49/49 52/52/52 51/51/51
f 52/52/52 53/53/53 51/51/51
f 56/56/56 55/55/55 54/54/54
f 57/57/57 56/56/56 54/54/54
f 59/59/59 57/57/57 58/58/58
f 57/57/57 60/60/60 58/58/58
f 60/60/60 62/62/62 61/61/61
f 62/62/62 63/63/63 61/61/61
f 65/65/65 62/62/62 64/64/64
f 66/66/66 65/65/65 64/64/64
f 64/64/64 68/68/68 67/67/67
f 68/68/68 69/69/69 67/67/67
f 71/71/71 68/68/68 70/70/70
f 72/72/72 71/71/71 70/70/70
f 74/74/74 70/70/70 73/73/73
f 75/75/75 74/74/74 73/73/73
f 77/77/77 73/73/73 76/76/76
f 78/78/78 77/77/77 76/76/76
f 80/80/80 76/76/76 79/79/79
f 81/81/81 80/80/80 79/79/79
f 83/83/83 79/79/79 82/82/82
f 84/84/84 83/83/83 82/82/82
f 87/87/87 86/86/86 85/85/85
f 88/88/88 87/87/87 85/85/85
f 91/91/91 90/90/90 89/89/89
f 92/92/92 91/91/91 89/89/89
