g SeparateMesh_Avatar_Female_Size03_ZhuYuan_Model_ZhuYuan_Weapon_1_Mask01
v -0.030936837 -0.02107655 0.056629185
v -0.030936837 0.02107655 0.056629185
v -0.028936837 0.02107655 0.05862918
v -0.028936837 -0.02107655 0.05862918
v 0.0123720085 -0.02107655 0.05862918
v 0.0123720085 0.02107655 0.05862918
v 0.014372011 0.02107655 0.056629185
v 0.014372011 -0.02107655 0.056629185
v 0.014372011 -0.02107655 0.056629185
v 0.014372011 0.02107655 0.056629185
v 0.014372011 0.021076541 0.03739445
v 0.014372011 -0.021076541 0.03739445
v 0.01153141 0.020172147 0.027452208
v 0.0038425075 0.020172147 0.027452208
v 0.0038425075 -0.020172147 0.027452208
v 0.01153141 -0.020172147 0.027452208
v -0.030936837 0.02107655 0.056629185
v -0.030936837 -0.02107655 0.056629185
v -0.030936837 -0.011567764 0.04846837
v 0.013531413 0.02017216 0.03659445
v 0.013531413 0.020172147 0.028637737
v 0.013531413 -0.020172147 0.028637737
v 0.013531413 -0.02017216 0.03659445
v -0.028936837 0.02107653 0.026584886
v -0.030936837 0.02107653 0.028584888
v -0.030936837 -0.02107653 0.028584888
v -0.028936837 -0.02107653 0.026584886
v 0.01153141 0.020172147 0.027452208
v 0.01153141 -0.020172147 0.027452208
v 0.014372011 -0.021076541 0.03739445
v 0.014372011 0.021076541 0.03739445
v 0.013531413 0.02017216 0.03659445
v 0.013531413 -0.02017216 0.03659445
v 0.0030425075 0.02107653 0.026584886
v 0.0030425075 -0.02107653 0.026584886
v 0.0038425075 -0.020172147 0.027452208
v 0.0038425075 0.020172147 0.027452208
v 0.0030425075 -0.02107653 0.026584886
v 0.0030425075 0.02107653 0.026584886
v -0.028936837 0.02107653 0.026584886
v -0.028936837 -0.02107653 0.026584886
v -0.030936837 0.011567759 0.03804823
v -0.030936837 -0.011567759 0.03804823
v -0.030936837 0.021076541 0.038048234
v -0.030936837 -0.021076541 0.038048234
v -0.030936837 0.011567764 0.04846837
v -0.030936837 0.021076545 0.04846837
v -0.030936837 -0.021076545 0.04846837
v -0.040235218 -0.020872945 0.039005484
v -0.040235218 -0.020872945 0.047411326
v -0.032171912 -0.021136831 0.048022024
v -0.032171912 -0.021136828 0.038750384
v -0.040235218 -0.020872945 0.047411326
v -0.032171912 -0.011572425 0.048048995
v -0.032171912 -0.021136831 0.048022024
v -0.032171912 -0.0115724215 0.038723323
v -0.032171912 -0.021136828 0.038750384
v -0.030936837 -0.021076541 0.038048234
v -0.030936837 -0.011567759 0.03804823
v -0.040183395 -0.011602662 0.038799796
v -0.05026101 -0.011578897 0.040993866
v -0.04933246 -0.017191015 0.041114107
v -0.040235218 -0.020872945 0.039005484
v -0.05026101 -0.011578897 0.04651216
v -0.030936837 -0.011567759 0.03804823
v -0.030936837 -0.011567764 0.04846837
v -0.032171912 -0.011572425 0.048048995
v -0.032171912 -0.0115724215 0.038723323
v -0.05026101 -0.011578897 0.04651216
v -0.040183395 -0.011602662 0.038799796
v 0.014372011 -0.02107655 0.056629185
v -0.030936837 -0.02107655 0.056629185
v -0.028936837 -0.02107655 0.05862918
v 0.0123720085 -0.02107655 0.05862918
v -0.030936837 -0.021076545 0.04846837
v -0.030936837 -0.021076541 0.038048234
v -0.030936837 -0.011567764 0.04846837
v -0.030936837 -0.021076545 0.04846837
v 0.0038425075 -0.020172147 0.027452208
v 0.0038425075 -0.020172155 0.032908432
v 0.01153141 -0.020172147 0.027452208
v 0.014372011 -0.021076541 0.03739445
v 0.013531413 -0.02017216 0.03659445
v 0.009026612 -0.02017216 0.03659445
v 0.008667151 -0.021076541 0.03739445
v 0.0038425075 -0.020172155 0.032908432
v 0.0030425075 -0.021076536 0.03331656
v 0.0038425075 -0.020172147 0.027452208
v 0.0030425075 -0.02107653 0.026584886
v -0.030936837 -0.02107653 0.028584888
v -0.030936837 -0.021076541 0.038048234
v 0.0030425075 -0.021076536 0.03331656
v -0.04933246 -0.017191013 0.046391767
v -0.04933246 -0.017191015 0.041114107
v -0.05026101 -0.011578897 0.040993866
v -0.05026101 -0.011578897 0.04651216
v -0.04933246 -0.017191015 0.041114107
v -0.04933246 -0.017191013 0.046391767
v -0.030936837 -0.021076545 0.04846837
v -0.04933246 -0.017191013 0.046391767
v -0.05026101 -0.011578897 0.040993866
v 0.008667151 -0.021076541 0.03739445
v 0.014372011 -0.021076541 0.03739445
v 0.013531413 -0.020172147 0.028637737
v 0.009026612 -0.02017216 0.03659445
v 0.013531413 -0.02017216 0.03659445
v 0.0030425075 -0.02107653 0.026584886
v -0.028936837 -0.02107653 0.026584886
v -0.040235218 0.020872945 0.039005484
v -0.032171912 0.021136828 0.038750384
v -0.032171912 0.021136831 0.048022024
v -0.040235218 0.020872945 0.047411326
v -0.040235218 0.020872945 0.047411326
v -0.032171912 0.021136831 0.048022024
v -0.032171912 0.011572425 0.048048995
v -0.032171912 0.0115724215 0.038723323
v -0.030936837 0.011567759 0.03804823
v -0.030936837 0.021076541 0.038048234
v -0.032171912 0.021136828 0.038750384
v -0.040183395 0.011602662 0.038799796
v -0.040235218 0.020872945 0.039005484
v -0.04933246 0.017191015 0.041114107
v -0.05026101 0.011578897 0.040993866
v -0.05026101 0.011578897 0.04651216
v -0.030936837 0.011567759 0.03804823
v -0.032171912 0.0115724215 0.038723323
v -0.032171912 0.011572425 0.048048995
v -0.030936837 0.011567764 0.04846837
v -0.040183395 0.011602662 0.038799796
v -0.05026101 0.011578897 0.04651216
v 0.014372011 0.02107655 0.056629185
v 0.0123720085 0.02107655 0.05862918
v -0.028936837 0.02107655 0.05862918
v -0.030936837 0.02107655 0.056629185
v -0.030936837 0.021076541 0.038048234
v -0.030936837 0.021076545 0.04846837
v -0.030936837 0.011567764 0.04846837
v -0.030936837 0.021076545 0.04846837
v 0.0038425075 0.020172147 0.027452208
v 0.01153141 0.020172147 0.027452208
v 0.0038425075 0.020172155 0.032908432
v 0.014372011 0.021076541 0.03739445
v 0.008667151 0.021076541 0.03739445
v 0.009026612 0.02017216 0.03659445
v 0.013531413 0.02017216 0.03659445
v 0.0030425075 0.021076536 0.03331656
v 0.0038425075 0.020172155 0.032908432
v 0.0030425075 0.02107653 0.026584886
v 0.0038425075 0.020172147 0.027452208
v -0.030936837 0.02107653 0.028584888
v 0.0030425075 0.021076536 0.03331656
v -0.030936837 0.021076541 0.038048234
v -0.04933246 0.017191013 0.046391767
v -0.05026101 0.011578897 0.04651216
v -0.05026101 0.011578897 0.040993866
v -0.04933246 0.017191015 0.041114107
v -0.04933246 0.017191013 0.046391767
v -0.04933246 0.017191015 0.041114107
v -0.030936837 0.021076545 0.04846837
v -0.04933246 0.017191013 0.046391767
v -0.05026101 0.011578897 0.040993866
v 0.008667151 0.021076541 0.03739445
v 0.014372011 0.021076541 0.03739445
v 0.013531413 0.020172147 0.028637737
v 0.013531413 0.02017216 0.03659445
v 0.009026612 0.02017216 0.03659445
v -0.028936837 0.02107653 0.026584886
v 0.0030425075 0.02107653 0.026584886
v -0.02337927 -0.02139222 0.035680745
v -0.0010780009 -0.021392222 0.03565262
v -0.0010813584 -0.021392219 0.028639838
v -0.023374071 -0.021392217 0.028639838
v -0.024274291 -0.021392217 0.028939838
v -0.024279049 -0.02139222 0.03538188
v -0.0001781452 -0.021392222 0.035351485
v -0.00018121477 -0.021392219 0.028939838
v 0.000121423705 -0.021392222 0.03445111
v 0.00011921608 -0.021392219 0.029839836
v -0.024574956 -0.021392217 0.029839836
v -0.024578383 -0.02139222 0.034482263
v -0.02337927 0.02139226 0.035680745
v -0.023374071 0.021392254 0.028639838
v -0.0010813584 0.021392256 0.028639838
v -0.0010780009 0.021392262 0.03565262
v -0.024279049 0.02139226 0.03538188
v -0.024274291 0.021392254 0.028939838
v -0.00018121477 0.021392256 0.028939838
v -0.0001781452 0.021392262 0.035351485
v 0.00011921608 0.021392256 0.029839836
v 0.000121423705 0.021392262 0.03445111
v -0.024578383 0.02139226 0.034482263
v -0.024574956 0.021392254 0.029839836
vt 0.4013992 0.5150988
vt 0.46702164 0.5150988
vt 0.46702164 0.51069534
vt 0.4013992 0.51069546
vt 0.4013992 0.4463873
vt 0.46702164 0.44638717
vt 0.46702164 0.44198382
vt 0.4013992 0.44198394
vt 0.47473282 0.5153397
vt 0.5403554 0.5153397
vt 0.5403554 0.48539564
vt 0.47473282 0.48539564
vt 0.53920394 0.4586983
vt 0.5392036 0.44672832
vt 0.47639722 0.44672832
vt 0.47639722 0.4586983
vt 0.392026 0.4631726
vt 0.3264035 0.4631726
vt 0.34120643 0.4758771
vt 0.5389474 0.4777494
vt 0.53894717 0.4653625
vt 0.47614068 0.4653625
vt 0.47614068 0.4777494
vt 0.3919894 0.51123196
vt 0.39202505 0.50683004
vt 0.3264022 0.5068299
vt 0.3264352 0.51123196
vt 0.53894717 0.46174288
vt 0.47614068 0.46174288
vt 0.47473282 0.4817517
vt 0.5403554 0.4817517
vt 0.5389474 0.47994497
vt 0.47614068 0.47994497
vt 0.5405401 0.441903
vt 0.47491777 0.441903
vt 0.4763255 0.44374013
vt 0.5391325 0.44374013
vt 0.48086023 0.57102865
vt 0.54648256 0.57102865
vt 0.54648256 0.5212442
vt 0.48086023 0.5212442
vt 0.37722242 0.49209827
vt 0.34120584 0.49209815
vt 0.3920253 0.49209815
vt 0.32640254 0.49209815
vt 0.37722266 0.4758771
vt 0.392026 0.4758771
vt 0.3264035 0.4758771
vt 0.356784 0.44167268
vt 0.35678267 0.45495653
vt 0.36934197 0.45590854
vt 0.36934304 0.44167268
vt 0.3194121 0.41038916
vt 0.30681837 0.39571127
vt 0.30682695 0.41038916
vt 0.33103967 0.41946176
vt 0.3310275 0.43413988
vt 0.333233 0.43413988
vt 0.33322906 0.41946176
vt 0.3185767 0.41946176
vt 0.30253482 0.41946176
vt 0.30390084 0.4281918
vt 0.31845725 0.43413988
vt 0.33507502 0.39571127
vt 0.30257916 0.4401703
vt 0.30257916 0.4563532
vt 0.30450153 0.4557202
vt 0.30450237 0.44126225
vt 0.3326627 0.4533304
vt 0.31697512 0.44126225
vt 0.54492235 0.62552136
vt 0.47442323 0.6255184
vt 0.47756702 0.62863165
vt 0.5417761 0.62863165
vt 0.37126732 0.45659566
vt 0.37126732 0.44038987
vt 0.30478835 0.39571127
vt 0.30478585 0.41038916
vt 0.53628844 0.5740804
vt 0.5362852 0.58257
vt 0.54824746 0.5740804
vt 0.5494194 0.59403497
vt 0.5485501 0.59191734
vt 0.5417078 0.5903974
vt 0.5407534 0.59210926
vt 0.53380364 0.5844467
vt 0.5321563 0.58555084
vt 0.53160757 0.5762486
vt 0.52944356 0.5754313
vt 0.47442824 0.5818806
vt 0.47442657 0.59660524
vt 0.5272978 0.5892473
vt 0.35464674 0.43265703
vt 0.35464674 0.4242536
vt 0.34579104 0.4242536
vt 0.34579104 0.43265703
vt 0.3415053 0.4451512
vt 0.34150434 0.45336747
vt 0.47442478 0.61281914
vt 0.33366477 0.404456
vt 0.33266377 0.4447397
vt 0.5360485 0.5955927
vt 0.544925 0.59559315
vt 0.55136013 0.57592434
vt 0.5443515 0.5883053
vt 0.55136085 0.5883048
vt 0.52729875 0.5787731
vt 0.4775403 0.5787688
vt 0.356784 0.44167268
vt 0.36934304 0.44167268
vt 0.36934197 0.45590854
vt 0.35678267 0.45495653
vt 0.3194121 0.41038916
vt 0.30682695 0.41038916
vt 0.30681837 0.39571127
vt 0.33103967 0.41946176
vt 0.33322906 0.41946176
vt 0.333233 0.43413988
vt 0.3310275 0.43413988
vt 0.3185767 0.41946176
vt 0.31845725 0.43413988
vt 0.30390084 0.4281918
vt 0.30253482 0.41946176
vt 0.33507502 0.39571127
vt 0.30257916 0.4401703
vt 0.30450237 0.44126225
vt 0.30450153 0.4557202
vt 0.30257916 0.4563532
vt 0.31697512 0.44126225
vt 0.3326627 0.4533304
vt 0.54492235 0.62552136
vt 0.5417762 0.62863165
vt 0.47756696 0.62863165
vt 0.47442317 0.6255184
vt 0.37126732 0.44038987
vt 0.37126732 0.45659566
vt 0.30478835 0.39571127
vt 0.30478585 0.41038916
vt 0.5362885 0.5740804
vt 0.54824746 0.5740804
vt 0.53628516 0.58257
vt 0.5494194 0.59403497
vt 0.54075336 0.59210926
vt 0.54170775 0.5903974
vt 0.5485501 0.59191734
vt 0.5321562 0.58555084
vt 0.5338037 0.5844467
vt 0.5294435 0.5754313
vt 0.5316076 0.5762486
vt 0.47442818 0.5818806
vt 0.52729774 0.5892473
vt 0.4744265 0.59660524
vt 0.35464668 0.43265703
vt 0.3457911 0.43265703
vt 0.3457911 0.4242536
vt 0.35464668 0.4242536
vt 0.34150434 0.45336747
vt 0.3415053 0.4451512
vt 0.47442484 0.61281914
vt 0.33366477 0.404456
vt 0.33266377 0.4447397
vt 0.5360484 0.5955927
vt 0.544925 0.59559315
vt 0.55136013 0.57592434
vt 0.55136085 0.5883048
vt 0.5443516 0.5883053
vt 0.47754025 0.5787688
vt 0.5272987 0.5787731
vt 0.90290046 0.29802033
vt 0.9887831 0.29802033
vt 0.98877335 0.27095872
vt 0.9029232 0.27095872
vt 0.89945674 0.27211055
vt 0.8994355 0.2969201
vt 0.9922483 0.29680976
vt 0.9922395 0.27211794
vt 0.99340224 0.29334232
vt 0.99339604 0.27558386
vt 0.8982984 0.27557647
vt 0.89828336 0.2934554
vt 0.988785 0.29802033
vt 0.9887624 0.27095872
vt 0.9029124 0.27095872
vt 0.9029026 0.29802033
vt 0.9922502 0.2969201
vt 0.99222875 0.27211055
vt 0.8994461 0.27211794
vt 0.8994372 0.29680976
vt 0.89828944 0.27558386
vt 0.89828336 0.29334232
vt 0.99340224 0.2934554
vt 0.9933872 0.27557647
vn -0.70710635 0 0.7071072
vn -0.70710635 0 0.7071072
vn -0.38268316 0 0.9238796
vn -0.38268316 0 0.9238796
vn 0.38268286 0 0.92387974
vn 0.38268286 0 0.92387974
vn 0.7071059 0 0.70710766
vn 0.7071059 0 0.70710766
vn 1 0 0
vn 1 0 0
vn 1 0 0
vn 1 0 0
vn -0 0 -1
vn -0 0 -1
vn -0 0 -1
vn -0 0 -1
vn -1 0 0
vn -1 0 0
vn -1 0 0
vn 1 0 0
vn 0.868882 0 -0.49501932
vn 0.868882 0 -0.49501932
vn 1 0 0
vn -0.70710677 0 -0.70710677
vn -0.9238796 0 -0.38268325
vn -0.9238795 0 -0.38268328
vn -0.70710677 0 -0.70710677
vn 0.50991136 0 -0.8602269
vn 0.50991136 0 -0.8602269
vn 0.6893973 0 -0.72438353
vn 0.6893973 0 -0.72438353
vn 0.6893972 0 -0.7243834
vn 0.6893972 0 -0.7243834
vn 0.73505867 0 -0.67800355
vn 0.73505867 0 -0.67800355
vn 0.7350586 0 -0.67800355
vn 0.7350586 0 -0.67800355
vn -0 0 -1
vn -0 0 -1
vn -0 0 -1
vn -0 0 -1
vn -1 0 0
vn -1 0 0
vn -1 0 0
vn -1 0 0
vn -1 0 0
vn -1 0 0
vn -1 0 0
vn -0.19283071 -0.981232 0
vn -0.19712341 -0.9803786 0
vn 0.0130696455 -0.99991465 -3.9025784E-07
vn 0.014189447 -0.9998994 -3.9319744E-07
vn -0.08747799 -0.003623004 0.9961598
vn -0.20753051 7.231324E-05 0.9782285
vn -0.20430529 -0.002094437 0.978905
vn -0.26226902 -0.0069592344 -0.9649697
vn -0.260744 -0.0069954046 -0.9653826
vn -0.4869507 -0.0012394143 -0.8734286
vn -0.48695076 -0.0012394143 -0.8734286
vn -0.12308315 -0.023507785 -0.99211794
vn -0.22517624 -0.034589525 -0.9737039
vn -0.22517624 -0.03458953 -0.9737039
vn -0.10929427 -0.022002667 -0.99376595
vn -0.10524446 -0.017335996 0.9942953
vn -0.0037743312 0.99999285 4.226048E-07
vn -0.0037743319 0.99999285 4.2260484E-07
vn -0.0029328372 0.99999547 -0.00072856527
vn -0.0037744169 0.99999285 4.0578996E-07
vn 0.0012684633 0.9999982 -0.0014238498
vn -0.0008093357 0.9999981 -0.0017742973
vn -0 -1 -3.3489138E-07
vn -0 -1 -3.8953402E-07
vn -0 -1 0
vn -0 -1 0
vn 0.013675752 -0.99990654 -5.671819E-07
vn 0.012253661 -0.9999249 -7.3198186E-07
vn -0.3307146 -0.001334455 0.9437299
vn -0.33071458 -0.001334455 0.9437299
vn -0 -1 -1.3108988E-06
vn 1.0492013E-07 -1 -1.2782252E-06
vn 1.4189999E-07 -1 -1.2667094E-06
vn -0 -0.66255975 -0.749009
vn -0 -0.66255975 -0.749009
vn 0.21134415 -0.68685687 -0.6953857
vn 0.23283207 -0.6874899 -0.6878567
vn 0.6264509 -0.71129656 -0.3187734
vn 0.6267233 -0.7112855 -0.31826213
vn 0.7490092 -0.6625596 -6.4867953E-07
vn 0.74900913 -0.6625596 -6.4867953E-07
vn -0 -1 -8.296872E-07
vn 0.012253661 -0.9999249 -7.3198186E-07
vn -0 -1 -6.425185E-07
vn -0.9865871 -0.1632352 0
vn -0.9865871 -0.1632352 0
vn -0.9865871 -0.16323523 0
vn -0.9865871 -0.1632352 0
vn -0.3751678 -0.92695695 1.5534621E-07
vn -0.37516776 -0.92695695 1.553462E-07
vn 0.013675752 -0.99990654 -5.671819E-07
vn -0.12823613 -0.042472746 0.9908338
vn 0.002358128 0.99999726 0
vn -0 -1 -5.3138706E-07
vn -0 -1 -4.9580837E-07
vn 1.4043886E-07 -1 -1.3129902E-06
vn 1.0814718E-07 -1 -1.3555815E-06
vn -0 -1 -1.498223E-06
vn -0 -1 -5.535636E-07
vn -0 -1 -5.535636E-07
vn -0.19283071 0.981232 0
vn 0.014189447 0.9998994 -3.9319744E-07
vn 0.0130696455 0.99991465 -3.9025784E-07
vn -0.19712341 0.9803786 0
vn -0.08747799 0.003623004 0.9961598
vn -0.20430529 0.002094437 0.978905
vn -0.20753051 -7.231324E-05 0.9782285
vn -0.26226902 0.0069592353 -0.9649697
vn -0.48695076 0.0012394143 -0.8734286
vn -0.4869507 0.0012394143 -0.8734286
vn -0.260744 0.006995406 -0.9653826
vn -0.123083174 0.023507785 -0.99211794
vn -0.10929429 0.022002663 -0.99376595
vn -0.22517626 0.034589525 -0.9737039
vn -0.22517624 0.03458952 -0.9737039
vn -0.10524446 0.017335996 0.9942953
vn -0.0037743319 -0.99999285 4.226048E-07
vn -0.0037744169 -0.99999285 4.0578996E-07
vn -0.0029328375 -0.99999547 -0.00072856527
vn -0.0037743319 -0.99999285 4.226048E-07
vn -0.0008093357 -0.9999981 -0.0017742973
vn 0.0012684633 -0.9999982 -0.0014238498
vn -0 1 -3.3489138E-07
vn -0 1 0
vn -0 1 0
vn -0 1 -3.8953402E-07
vn 0.012253661 0.9999249 -7.3198186E-07
vn 0.013675752 0.99990654 -5.671819E-07
vn -0.3307146 0.0013344549 0.9437299
vn -0.33071458 0.001334455 0.9437299
vn -0 1 -1.3108988E-06
vn 1.4189999E-07 1 -1.2667094E-06
vn 1.0492013E-07 1 -1.2782252E-06
vn -0 0.66255975 -0.749009
vn 0.23283207 0.6874899 -0.6878567
vn 0.21134415 0.68685687 -0.6953857
vn -0 0.66255975 -0.749009
vn 0.6267233 0.7112855 -0.31826213
vn 0.6264509 0.71129656 -0.3187734
vn 0.74900913 0.6625596 -6.4867953E-07
vn 0.74900913 0.6625596 -6.4867953E-07
vn -0 1 -8.296872E-07
vn -0 1 -6.425185E-07
vn 0.012253661 0.9999249 -7.3198186E-07
vn -0.9865871 0.16323523 0
vn -0.9865871 0.1632352 0
vn -0.9865871 0.16323523 0
vn -0.9865871 0.16323525 0
vn -0.37516776 0.92695695 1.553462E-07
vn -0.3751678 0.92695695 1.5534621E-07
vn 0.013675752 0.99990654 -5.671819E-07
vn -0.12823613 0.042472746 0.9908338
vn 0.002358128 -0.99999726 0
vn -0 1 -5.3138706E-07
vn -0 1 -4.9580837E-07
vn 1.4043886E-07 1 -1.3129902E-06
vn -0 1 -1.498223E-06
vn 1.0814718E-07 1 -1.3555815E-06
vn -0 1 -5.535636E-07
vn -0 1 -5.535636E-07
vn -0 -1 -6.913444E-07
vn -0 -1 -6.926824E-07
vn -0 -1 -6.926857E-07
vn -0 -1 -6.913182E-07
vn -0 -1 -7.2954725E-07
vn -0 -1 -7.2958824E-07
vn -0 -1 -7.328794E-07
vn -0 -1 -7.32884E-07
vn -0 -1 -8.651738E-07
vn -0 -1 -8.651739E-07
vn -0 -1 -8.603703E-07
vn -0 -1 -8.6037033E-07
vn -0 1 -6.9134444E-07
vn -0 1 -6.913182E-07
vn -0 1 -6.926858E-07
vn -0 1 -6.926824E-07
vn -0 1 -7.2958824E-07
vn -0 1 -7.2954725E-07
vn -0 1 -7.32884E-07
vn -0 1 -7.3287924E-07
vn -0 1 -8.651737E-07
vn -0 1 -8.651737E-07
vn -0 1 -8.6037033E-07
vn -0 1 -8.603703E-07
g SeparateMesh_Avatar_Female_Size03_ZhuYuan_Model_ZhuYuan_Weapon_1_Mask01_0
f 3/3/3 2/2/2 1/1/1
f 4/4/4 3/3/3 1/1/1
f 7/7/7 6/6/6 5/5/5
f 8/8/8 7/7/7 5/5/5
f 11/11/11 10/10/10 9/9/9
f 12/12/12 11/11/11 9/9/9
f 3/3/3 4/4/4 5/5/5
f 6/6/6 3/3/3 5/5/5
f 15/15/15 14/14/14 13/13/13
f 16/16/16 15/15/15 13/13/13
f 19/19/19 18/18/18 17/17/17
f 22/22/22 21/21/21 20/20/20
f 23/23/23 22/22/22 20/20/20
f 26/26/26 25/25/25 24/24/24
f 27/27/27 26/26/26 24/24/24
f 29/29/29 28/28/28 21/21/21
f 22/22/22 29/29/29 21/21/21
f 32/32/32 31/31/31 30/30/30
f 33/33/33 32/32/32 30/30/30
f 36/36/36 35/35/35 34/34/34
f 37/37/37 36/36/36 34/34/34
f 40/40/40 39/39/39 38/38/38
f 41/41/41 40/40/40 38/38/38
f 25/25/25 43/43/43 42/42/42
f 44/44/44 25/25/25 42/42/42
f 26/26/26 43/43/43 25/25/25
f 45/45/45 43/43/43 26/26/26
f 43/43/43 19/19/19 46/46/46
f 42/42/42 43/43/43 46/46/46
f 47/47/47 46/46/46 17/17/17
f 46/46/46 19/19/19 17/17/17
f 48/48/48 18/18/18 19/19/19
f 51/51/51 50/50/50 49/49/49
f 52/52/52 51/51/51 49/49/49
f 55/55/55 54/54/54 53/53/53
f 58/58/58 57/57/57 56/56/56
f 59/59/59 58/58/58 56/56/56
f 62/62/62 61/61/61 60/60/60
f 63/63/63 62/62/62 60/60/60
f 53/53/53 54/54/54 64/64/64
f 67/67/67 66/66/66 65/65/65
f 68/68/68 67/67/67 65/65/65
f 70/70/70 69/69/69 67/67/67
f 73/73/73 72/72/72 71/71/71
f 74/74/74 73/73/73 71/71/71
f 75/75/75 51/51/51 52/52/52
f 76/76/76 75/75/75 52/52/52
f 55/55/55 78/78/78 77/77/77
f 54/54/54 55/55/55 77/77/77
f 63/63/63 60/60/60 56/56/56
f 57/57/57 63/63/63 56/56/56
f 70/70/70 67/67/67 68/68/68
f 81/81/81 80/80/80 79/79/79
f 84/84/84 83/83/83 82/82/82
f 85/85/85 84/84/84 82/82/82
f 86/86/86 84/84/84 85/85/85
f 87/87/87 86/86/86 85/85/85
f 88/88/88 86/86/86 87/87/87
f 89/89/89 88/88/88 87/87/87
f 92/92/92 91/91/91 90/90/90
f 95/95/95 94/94/94 93/93/93
f 96/96/96 95/95/95 93/93/93
f 97/97/97 49/49/49 50/50/50
f 98/98/98 97/97/97 50/50/50
f 71/71/71 72/72/72 99/99/99
f 100/100/100 53/53/53 64/64/64
f 101/101/101 69/69/69 70/70/70
f 103/103/103 71/71/71 102/102/102
f 106/106/106 105/105/105 104/104/104
f 105/105/105 80/80/80 81/81/81
f 104/104/104 105/105/105 81/81/81
f 92/92/92 102/102/102 99/99/99
f 91/91/91 92/92/92 99/99/99
f 102/102/102 71/71/71 99/99/99
f 107/107/107 92/92/92 90/90/90
f 108/108/108 107/107/107 90/90/90
f 111/111/111 110/110/110 109/109/109
f 112/112/112 111/111/111 109/109/109
f 115/115/115 114/114/114 113/113/113
f 118/118/118 117/117/117 116/116/116
f 119/119/119 118/118/118 116/116/116
f 122/122/122 121/121/121 120/120/120
f 123/123/123 122/122/122 120/120/120
f 115/115/115 113/113/113 124/124/124
f 127/127/127 126/126/126 125/125/125
f 128/128/128 127/127/127 125/125/125
f 130/130/130 129/129/129 127/127/127
f 133/133/133 132/132/132 131/131/131
f 134/134/134 133/133/133 131/131/131
f 136/136/136 135/135/135 110/110/110
f 111/111/111 136/136/136 110/110/110
f 114/114/114 115/115/115 137/137/137
f 138/138/138 114/114/114 137/137/137
f 121/121/121 119/119/119 116/116/116
f 120/120/120 121/121/121 116/116/116
f 127/127/127 129/129/129 126/126/126
f 141/141/141 140/140/140 139/139/139
f 144/144/144 143/143/143 142/142/142
f 145/145/145 144/144/144 142/142/142
f 147/147/147 146/146/146 143/143/143
f 144/144/144 147/147/147 143/143/143
f 149/149/149 148/148/148 146/146/146
f 147/147/147 149/149/149 146/146/146
f 152/152/152 151/151/151 150/150/150
f 155/155/155 154/154/154 153/153/153
f 156/156/156 155/155/155 153/153/153
f 158/158/158 157/157/157 112/112/112
f 109/109/109 158/158/158 112/112/112
f 134/134/134 131/131/131 159/159/159
f 113/113/113 160/160/160 124/124/124
f 130/130/130 161/161/161 129/129/129
f 131/131/131 163/163/163 162/162/162
f 166/166/166 165/165/165 164/164/164
f 166/166/166 164/164/164 140/140/140
f 141/141/141 166/166/166 140/140/140
f 151/151/151 152/152/152 159/159/159
f 162/162/162 151/151/151 159/159/159
f 131/131/131 162/162/162 159/159/159
f 168/168/168 167/167/167 150/150/150
f 151/151/151 168/168/168 150/150/150
g SeparateMesh_Avatar_Female_Size03_ZhuYuan_Model_ZhuYuan_Weapon_1_Mask01_1
f 171/171/171 170/170/170 169/169/169
f 172/172/172 171/171/171 169/169/169
f 173/173/173 172/172/172 169/169/169
f 174/174/174 173/173/173 169/169/169
f 175/175/175 170/170/170 171/171/171
f 176/176/176 175/175/175 171/171/171
f 177/177/177 175/175/175 176/176/176
f 178/178/178 177/177/177 176/176/176
f 179/179/179 173/173/173 174/174/174
f 180/180/180 179/179/179 174/174/174
f 183/183/183 182/182/182 181/181/181
f 184/184/184 183/183/183 181/181/181
f 186/186/186 185/185/185 181/181/181
f 182/182/182 186/186/186 181/181/181
f 188/188/188 187/187/187 183/183/183
f 184/184/184 188/188/188 183/183/183
f 190/190/190 189/189/189 187/187/187
f 188/188/188 190/190/190 187/187/187
f 192/192/192 191/191/191 185/185/185
f 186/186/186 192/192/192 185/185/185
