g SeparateMesh_Avatar_Female_Size03_ZhuYuan_Model_ZhuYuan_Weapon_1_Mask01_LOD1
v 0.013951711 -0.02062435 0.03699445
v 0.014341214 -0.02107655 0.058660075
v 0.014341214 0.02107655 0.058660075
v 0.013951711 0.02062435 0.03699445
v 0.014341214 0.02107655 0.058660075
v 0.014341214 -0.02107655 0.058660075
v -0.03090604 -0.02107655 0.058660075
v -0.03090604 0.02107655 0.058660075
v 0.01379972 -0.020172147 0.027015237
v 0.01379972 0.020172147 0.027015237
v 0.0034425072 0.02062434 0.027018547
v 0.0034425072 -0.02062434 0.027018547
v -0.03090604 0.02107655 0.058660075
v -0.03090604 -0.02107655 0.058660075
v -0.030936837 -0.011567764 0.04846837
v -0.030936837 0.011567764 0.04846837
v 0.013951711 -0.02062435 0.03699445
v 0.013951711 0.02062435 0.03699445
v 0.01379972 0.020172147 0.027015237
v 0.01379972 -0.020172147 0.027015237
v 0.0034425072 -0.02062434 0.027018547
v 0.0034425072 0.02062434 0.027018547
v -0.030990008 0.02107653 0.026669044
v -0.030990008 -0.02107653 0.026669044
v -0.030990008 0.02107653 0.026669044
v -0.030936837 0.011567759 0.03804823
v -0.030936837 -0.011567759 0.03804823
v -0.030990008 -0.02107653 0.026669044
v -0.030936837 0.021076541 0.038048234
v -0.030936837 -0.021076541 0.038048234
v -0.030936837 0.021076545 0.04846837
v -0.030936837 -0.021076545 0.04846837
v -0.030936837 -0.011567759 0.03804823
v -0.05026101 -0.011578897 0.040993866
v -0.04933246 -0.017191015 0.041114107
v -0.030936837 -0.021076541 0.038048234
v -0.05026101 -0.011578897 0.04651216
v -0.030936837 -0.011567764 0.04846837
v -0.030936837 -0.021076545 0.04846837
v -0.04933246 -0.017191013 0.046391767
v -0.030936837 -0.011567759 0.03804823
v -0.030936837 -0.011567764 0.04846837
v -0.05026101 -0.011578897 0.04651216
v -0.05026101 -0.011578897 0.040993866
v 0.0034425072 -0.02062434 0.027018547
v 0.0034425072 -0.020624347 0.033112496
v 0.01379972 -0.020172147 0.027015237
v -0.030990008 -0.02107653 0.026669044
v -0.030936837 -0.021076541 0.038048234
v 0.0034425072 -0.020624347 0.033112496
v -0.04933246 -0.017191013 0.046391767
v -0.04933246 -0.017191015 0.041114107
v -0.05026101 -0.011578897 0.040993866
v -0.05026101 -0.011578897 0.04651216
v -0.04933246 -0.017191013 0.046391767
v -0.030936837 -0.021076545 0.04846837
v -0.030936837 -0.021076541 0.038048234
v -0.04933246 -0.017191015 0.041114107
v -0.030936837 -0.021076545 0.04846837
v -0.03090604 -0.02107655 0.058660075
v 0.014341214 -0.02107655 0.058660075
v 0.008846882 -0.02062435 0.03699445
v 0.013951711 -0.02062435 0.03699445
v 0.008846882 -0.02062435 0.03699445
v 0.013951711 -0.02062435 0.03699445
v 0.0034425072 -0.02062434 0.027018547
v -0.04933246 0.017191015 0.041114107
v -0.05026101 0.011578897 0.040993866
v -0.030936837 0.011567759 0.03804823
v -0.030936837 0.021076541 0.038048234
v -0.05026101 0.011578897 0.04651216
v -0.04933246 0.017191013 0.046391767
v -0.030936837 0.021076545 0.04846837
v -0.030936837 0.011567764 0.04846837
v -0.030936837 0.011567759 0.03804823
v -0.05026101 0.011578897 0.040993866
v -0.05026101 0.011578897 0.04651216
v -0.030936837 0.011567764 0.04846837
v 0.0034425072 0.02062434 0.027018547
v 0.01379972 0.020172147 0.027015237
v 0.0034425072 0.020624347 0.033112496
v -0.030990008 0.02107653 0.026669044
v 0.0034425072 0.020624347 0.033112496
v -0.030936837 0.021076541 0.038048234
v -0.04933246 0.017191013 0.046391767
v -0.05026101 0.011578897 0.04651216
v -0.05026101 0.011578897 0.040993866
v -0.04933246 0.017191015 0.041114107
v -0.030936837 0.021076541 0.038048234
v -0.030936837 0.021076545 0.04846837
v -0.04933246 0.017191013 0.046391767
v -0.04933246 0.017191015 0.041114107
v -0.030936837 0.021076545 0.04846837
v 0.014341214 0.02107655 0.058660075
v -0.03090604 0.02107655 0.058660075
v 0.008846882 0.02062435 0.03699445
v 0.013951711 0.02062435 0.03699445
v 0.013951711 0.02062435 0.03699445
v 0.008846882 0.02062435 0.03699445
v 0.0034425072 0.02062434 0.027018547
v -0.02419957 -0.021392217 0.028480059
v -0.024203772 -0.02139222 0.035846803
v -0.0002533245 -0.021392222 0.035806116
v -0.00025603533 -0.021392219 0.028480059
v -0.024241399 0.021392254 0.028454112
v -0.00021414875 0.021392256 0.028454112
v -0.00021122932 0.021392263 0.035776496
v -0.024245925 0.02139226 0.035806388
vt 0.47473282 0.48539564
vt 0.47473282 0.5185494
vt 0.5403554 0.5185494
vt 0.5403554 0.48539564
vt 0.46702164 0.4439578
vt 0.4013992 0.44395792
vt 0.4013992 0.5131248
vt 0.46702164 0.5131247
vt 0.47636768 0.46032855
vt 0.53920394 0.46032968
vt 0.5392036 0.44672832
vt 0.47639722 0.44672832
vt 0.39202604 0.4599629
vt 0.32640353 0.4599629
vt 0.34120646 0.4758771
vt 0.3772227 0.4758771
vt 0.47614068 0.4777494
vt 0.5389474 0.4777494
vt 0.53898156 0.46210453
vt 0.47614068 0.4621029
vt 0.48086023 0.57102865
vt 0.54648256 0.57102865
vt 0.54648256 0.5196977
vt 0.48086023 0.5196977
vt 0.39199686 0.51032716
vt 0.37722245 0.49209827
vt 0.34120587 0.49209815
vt 0.32642946 0.510327
vt 0.3920253 0.49209815
vt 0.32640257 0.49209815
vt 0.392026 0.4758771
vt 0.32640353 0.4758771
vt 0.3332291 0.41946176
vt 0.30253485 0.41946176
vt 0.30390087 0.4281918
vt 0.33323303 0.43413988
vt 0.335075 0.39571127
vt 0.30478832 0.39571127
vt 0.30478582 0.41038916
vt 0.33366475 0.404456
vt 0.30257916 0.4401703
vt 0.30257916 0.4563532
vt 0.3326627 0.4533304
vt 0.33266377 0.4447397
vt 0.53628844 0.5740804
vt 0.5362852 0.58257
vt 0.5517437 0.57344925
vt 0.4743457 0.57889956
vt 0.47442657 0.59660524
vt 0.5272978 0.5892473
vt 0.35464674 0.43265703
vt 0.35464674 0.4242536
vt 0.34579104 0.4242536
vt 0.34579104 0.43265703
vt 0.3415043 0.45336747
vt 0.3712673 0.45659566
vt 0.3712673 0.44038987
vt 0.34150526 0.4451512
vt 0.47442478 0.61281914
vt 0.4744879 0.62868184
vt 0.5448452 0.6286813
vt 0.5360485 0.5955927
vt 0.544925 0.59559315
vt 0.5443515 0.5883053
vt 0.55136085 0.5883048
vt 0.52729875 0.5787731
vt 0.30390084 0.4281918
vt 0.30253482 0.41946176
vt 0.33322906 0.41946176
vt 0.333233 0.43413988
vt 0.33507502 0.39571127
vt 0.33366477 0.404456
vt 0.30478585 0.41038916
vt 0.30478835 0.39571127
vt 0.30257916 0.4401703
vt 0.33266377 0.4447397
vt 0.3326627 0.4533304
vt 0.30257916 0.4563532
vt 0.5362885 0.5740804
vt 0.5517305 0.573437
vt 0.53628516 0.58257
vt 0.47434568 0.57889956
vt 0.52729774 0.5892473
vt 0.4744265 0.59660524
vt 0.35464668 0.43265703
vt 0.3457911 0.43265703
vt 0.3457911 0.4242536
vt 0.35464668 0.4242536
vt 0.37126732 0.44038987
vt 0.37126732 0.45659566
vt 0.34150434 0.45336747
vt 0.3415053 0.4451512
vt 0.47442484 0.61281914
vt 0.5448556 0.6286832
vt 0.4745046 0.6286812
vt 0.5360484 0.5955927
vt 0.544925 0.59559315
vt 0.55136085 0.5883048
vt 0.5443516 0.5883053
vt 0.5272987 0.5787731
vt 0.89974415 0.27034196
vt 0.8997252 0.298697
vt 0.9919553 0.29858047
vt 0.9919518 0.2703458
vt 0.9921021 0.27024302
vt 0.89957285 0.27024397
vt 0.8995648 0.2984654
vt 0.9921234 0.29853582
vn 0.9998385 0 -0.017974976
vn 0.9998385 0 -0.017974975
vn 0.9998385 0 -0.017974975
vn 0.9998385 0 -0.017974976
vn -0 0 1
vn -0 0 1
vn -0 0 1
vn -0 0 1
vn -0.00031951166 0 -1
vn -0.00031951166 0 -1
vn 0.0050107413 0 -0.9999875
vn 0.0050107413 0 -0.9999875
vn -0.99999547 0 0.003021711
vn -0.99999547 0 0.003021711
vn -0.999998 0 0.0020144759
vn -0.999998 0 0.0020144759
vn 0.999884 0 -0.01522896
vn 0.999884 0 -0.01522896
vn 0.999884 0 -0.015228959
vn 0.999884 0 -0.015228959
vn 0.0050107413 0 -0.9999875
vn 0.0050107413 0 -0.9999875
vn 0.010149839 0 -0.9999485
vn 0.010149839 0 -0.9999485
vn -0.99998915 0 0.0046726996
vn -0.99999523 0 0.0031151406
vn -0.99999523 0 0.0031151406
vn -0.99998915 0 0.0046727
vn -0.99998915 0 0.0046726996
vn -0.99998915 0 0.0046726996
vn -0.99999547 0 0.00302171
vn -0.99999547 0 0.00302171
vn -0.15912691 -0.01762117 -0.98710084
vn -0.15912691 -0.01762117 -0.98710084
vn -0.15912691 -0.01762117 -0.98710084
vn -0.1591269 -0.01762117 -0.98710084
vn -0.10777366 -0.014532932 0.9940692
vn -0.10777366 -0.014532932 0.9940692
vn -0.10777366 -0.014532932 0.9940692
vn -0.10777367 -0.014532932 0.9940692
vn -0.00057623105 0.9999999 2.9918644E-07
vn -0.00057623105 0.9999999 2.9918644E-07
vn -0.00057623116 0.9999999 2.9918644E-07
vn -0.00057623105 0.9999999 2.9918644E-07
vn 0.028330578 -0.9995987 -1.1722601E-06
vn 0.019459471 -0.9997806 -0.007749324
vn 0.02337449 -0.9993948 -0.025761843
vn 0.01314172 -0.9999137 -5.5389035E-05
vn -0.05585027 -0.9984378 -0.0016275977
vn 0.019459471 -0.9997806 -0.007749324
vn -0.9865871 -0.1632352 0
vn -0.9865871 -0.1632352 0
vn -0.9865871 -0.16323523 0
vn -0.9865871 -0.1632352 0
vn -0.20666061 -0.9784127 -1.4136664E-07
vn -0.062244426 -0.9980544 -0.0036276947
vn -0.05585027 -0.9984378 -0.0016275977
vn -0.20666061 -0.9784127 -1.4136664E-07
vn -0.062244426 -0.9980544 -0.0036276947
vn -0 -1 -4.678678E-07
vn 0.0035321666 -0.9998173 -0.018787839
vn 0.008213485 -0.9996306 -0.025906857
vn -0 -0.9994573 -0.032941338
vn 0.008213485 -0.9996306 -0.025906857
vn -0 -0.9994573 -0.032941338
vn 0.028330578 -0.9995987 -1.1722601E-06
vn -0.15912692 0.01762117 -0.98710084
vn -0.15912692 0.01762117 -0.98710084
vn -0.15912692 0.01762117 -0.98710084
vn -0.15912692 0.01762117 -0.98710084
vn -0.10777366 0.014532934 0.9940692
vn -0.10777367 0.014532934 0.9940692
vn -0.10777366 0.014532934 0.9940692
vn -0.10777366 0.014532933 0.9940692
vn -0.00057623116 -0.9999999 2.9918644E-07
vn -0.00057623116 -0.9999999 2.9918644E-07
vn -0.0005762312 -0.9999999 2.9918644E-07
vn -0.00057623116 -0.9999999 2.9918644E-07
vn 0.028330572 0.9995987 -1.1732435E-06
vn 0.02337449 0.9993948 -0.025761843
vn 0.01945947 0.9997806 -0.0077493247
vn 0.01314172 0.9999137 -5.5389253E-05
vn 0.01945947 0.9997806 -0.0077493247
vn -0.05585027 0.9984378 -0.0016275974
vn -0.9865871 0.16323523 0
vn -0.9865871 0.1632352 0
vn -0.9865871 0.16323523 0
vn -0.9865871 0.16323525 0
vn -0.05585027 0.9984378 -0.0016275974
vn -0.062244426 0.9980544 -0.0036276942
vn -0.20666061 0.9784127 -1.4136664E-07
vn -0.20666061 0.9784127 -1.4136664E-07
vn -0.062244426 0.9980544 -0.0036276942
vn 0.0035321666 0.9998173 -0.018787839
vn -0 1 -4.678678E-07
vn 0.008213485 0.9996306 -0.025906857
vn -0 0.9994573 -0.032941338
vn -0 0.9994573 -0.032941338
vn 0.008213485 0.9996306 -0.025906857
vn 0.028330572 0.9995987 -1.1732435E-06
vn -1.0011242E-07 -1 -6.49086E-07
vn -1.0011242E-07 -1 -6.49086E-07
vn -1.0011242E-07 -1 -6.49086E-07
vn -1.0011242E-07 -1 -6.490861E-07
vn -1.4932482E-07 1 -8.123645E-07
vn -1.4932482E-07 1 -8.123643E-07
vn -1.4932482E-07 1 -8.1236436E-07
vn -1.4932483E-07 1 -8.123645E-07
g SeparateMesh_Avatar_Female_Size03_ZhuYuan_Model_ZhuYuan_Weapon_1_Mask01_LOD1_0
f 3/3/3 2/2/2 1/1/1
f 4/4/4 3/3/3 1/1/1
f 7/7/7 6/6/6 5/5/5
f 8/8/8 7/7/7 5/5/5
f 11/11/11 10/10/10 9/9/9
f 12/12/12 11/11/11 9/9/9
f 15/15/15 14/14/14 13/13/13
f 16/16/16 15/15/15 13/13/13
f 19/19/19 18/18/18 17/17/17
f 20/20/20 19/19/19 17/17/17
f 23/23/23 22/22/22 21/21/21
f 24/24/24 23/23/23 21/21/21
f 27/27/27 26/26/26 25/25/25
f 28/28/28 27/27/27 25/25/25
f 29/29/29 25/25/25 26/26/26
f 30/30/30 27/27/27 28/28/28
f 15/15/15 16/16/16 26/26/26
f 27/27/27 15/15/15 26/26/26
f 31/31/31 16/16/16 13/13/13
f 32/32/32 14/14/14 15/15/15
f 35/35/35 34/34/34 33/33/33
f 36/36/36 35/35/35 33/33/33
f 39/39/39 38/38/38 37/37/37
f 40/40/40 39/39/39 37/37/37
f 43/43/43 42/42/42 41/41/41
f 44/44/44 43/43/43 41/41/41
f 47/47/47 46/46/46 45/45/45
f 50/50/50 49/49/49 48/48/48
f 53/53/53 52/52/52 51/51/51
f 54/54/54 53/53/53 51/51/51
f 57/57/57 56/56/56 55/55/55
f 58/58/58 57/57/57 55/55/55
f 61/61/61 60/60/60 59/59/59
f 63/63/63 61/61/61 62/62/62
f 65/65/65 64/64/64 47/47/47
f 64/64/64 46/46/46 47/47/47
f 50/50/50 62/62/62 59/59/59
f 49/49/49 50/50/50 59/59/59
f 62/62/62 61/61/61 59/59/59
f 66/66/66 50/50/50 48/48/48
f 69/69/69 68/68/68 67/67/67
f 70/70/70 69/69/69 67/67/67
f 73/73/73 72/72/72 71/71/71
f 74/74/74 73/73/73 71/71/71
f 77/77/77 76/76/76 75/75/75
f 78/78/78 77/77/77 75/75/75
f 81/81/81 80/80/80 79/79/79
f 84/84/84 83/83/83 82/82/82
f 87/87/87 86/86/86 85/85/85
f 88/88/88 87/87/87 85/85/85
f 91/91/91 90/90/90 89/89/89
f 92/92/92 91/91/91 89/89/89
f 95/95/95 94/94/94 93/93/93
f 94/94/94 97/97/97 96/96/96
f 99/99/99 98/98/98 80/80/80
f 81/81/81 99/99/99 80/80/80
f 83/83/83 84/84/84 93/93/93
f 96/96/96 83/83/83 93/93/93
f 94/94/94 96/96/96 93/93/93
f 100/100/100 82/82/82 83/83/83
g SeparateMesh_Avatar_Female_Size03_ZhuYuan_Model_ZhuYuan_Weapon_1_Mask01_LOD1_1
f 103/103/103 102/102/102 101/101/101
f 104/104/104 103/103/103 101/101/101
f 107/107/107 106/106/106 105/105/105
f 108/108/108 107/107/107 105/105/105
