g SeparateMesh_Avatar_Female_Size03_ZhuYuan_Model_ZhuYuan_Weapon_1_Mask01_LOD2
v 0.013490702 -0.02062435 0.03699445
v 0.01337201 -0.02107655 0.057629183
v 0.01337201 0.02107655 0.057629183
v 0.013490702 0.02062435 0.03699445
v 0.01337201 0.02107655 0.057629183
v 0.01337201 -0.02107655 0.057629183
v -0.03067904 -0.02107655 0.057629183
v -0.03067904 0.02107655 0.057629183
v -0.03067904 0.02107655 0.057629183
v -0.03067904 -0.02107655 0.057629183
v -0.031554375 -0.021106688 0.0482452
v -0.031554375 0.021106688 0.0482452
v 0.013490702 -0.02062435 0.03699445
v 0.013490702 0.02062435 0.03699445
v 0.013575196 0.020172147 0.028044973
v 0.013575196 -0.020172147 0.028044973
v 0.013575196 -0.020172147 0.028044973
v 0.013575196 0.020172147 0.028044973
v -0.030876884 0.02107653 0.027584886
v -0.030876884 -0.02107653 0.027584886
v -0.030876884 -0.02107653 0.027584886
v -0.030876884 0.02107653 0.027584886
v -0.031554375 0.021106685 0.03839931
v -0.031554375 -0.021106685 0.03839931
v -0.031554375 -0.021106688 0.0482452
v -0.04933246 -0.017191013 0.046391767
v -0.04933246 0.017191013 0.046391767
v -0.031554375 0.021106688 0.0482452
v -0.031554375 -0.021106685 0.03839931
v -0.031554375 0.021106685 0.03839931
v -0.04933246 0.017191015 0.041114107
v -0.04933246 -0.017191015 0.041114107
v -0.030876884 -0.02107653 0.027584886
v -0.031554375 -0.021106685 0.03839931
v 0.013490702 -0.02062435 0.03699445
v 0.013575196 -0.020172147 0.028044973
v -0.04933246 -0.017191013 0.046391767
v -0.04933246 -0.017191015 0.041114107
v -0.04933246 0.017191015 0.041114107
v -0.04933246 0.017191013 0.046391767
v -0.04933246 -0.017191013 0.046391767
v -0.031554375 -0.021106688 0.0482452
v -0.031554375 -0.021106685 0.03839931
v -0.04933246 -0.017191015 0.041114107
v -0.031554375 -0.021106688 0.0482452
v -0.03067904 -0.02107655 0.057629183
v 0.01337201 -0.02107655 0.057629183
v 0.013490702 0.02062435 0.03699445
v -0.031554375 0.021106685 0.03839931
v -0.030876884 0.02107653 0.027584886
v 0.013575196 0.020172147 0.028044973
v -0.031554375 0.021106685 0.03839931
v -0.031554375 0.021106688 0.0482452
v -0.04933246 0.017191013 0.046391767
v -0.04933246 0.017191015 0.041114107
v -0.031554375 0.021106688 0.0482452
v 0.01337201 0.02107655 0.057629183
v -0.03067904 0.02107655 0.057629183
vt 0.47473282 0.48541442
vt 0.47473282 0.5153397
vt 0.5403554 0.5153397
vt 0.5403549 0.48541442
vt 0.46702164 0.4441855
vt 0.4013992 0.4441856
vt 0.4013992 0.5140747
vt 0.46702164 0.5140746
vt 0.39201808 0.46334746
vt 0.3264113 0.46334735
vt 0.32640353 0.4758771
vt 0.392026 0.4758771
vt 0.4761392 0.47771934
vt 0.5389474 0.47771925
vt 0.53893447 0.46380836
vt 0.47614068 0.463809
vt 0.48136157 0.5861169
vt 0.5457634 0.58611053
vt 0.54646766 0.5198433
vt 0.48086023 0.51984286
vt 0.32641923 0.50881517
vt 0.39200675 0.5088152
vt 0.3920253 0.49209815
vt 0.32640257 0.49209815
vt 0.30580637 0.41038916
vt 0.33366475 0.404456
vt 0.33366477 0.404456
vt 0.3058064 0.41038916
vt 0.33213028 0.43413988
vt 0.33213025 0.43413988
vt 0.30390084 0.4281918
vt 0.30390087 0.4281918
vt 0.47453386 0.5803237
vt 0.47442657 0.59660524
vt 0.54370093 0.5955662
vt 0.54314107 0.58103245
vt 0.35464674 0.43265703
vt 0.35464674 0.4242536
vt 0.35464668 0.4242536
vt 0.35464668 0.43265703
vt 0.3415043 0.45336747
vt 0.3703046 0.4562521
vt 0.37030515 0.44103128
vt 0.34150526 0.4451512
vt 0.47442478 0.61281914
vt 0.4748339 0.6270119
vt 0.54334927 0.6270765
vt 0.5437514 0.5954523
vt 0.4744265 0.59660524
vt 0.47453418 0.5803945
vt 0.54291284 0.58034295
vt 0.37030518 0.44103128
vt 0.37030464 0.4562521
vt 0.34150434 0.45336747
vt 0.3415053 0.4451512
vt 0.47442484 0.61281914
vt 0.54334927 0.6270765
vt 0.4748408 0.627075
vn 0.99998343 0 0.0057519493
vn 0.99998343 0 0.00575195
vn 0.99998343 0 0.00575195
vn 0.99998343 0 0.0057519493
vn -0 0 1
vn -0 0 1
vn -0 0 1
vn -0 0 1
vn -0.99567765 0 0.092876464
vn -0.99567765 0 0.092876464
vn -0.99567765 0 0.09287647
vn -0.99567765 0 0.09287647
vn 0.9999554 0 0.00944084
vn 0.9999554 0 0.00944084
vn 0.9999554 0 0.009440838
vn 0.9999554 0 0.009440838
vn 0.0103496 0 -0.9999465
vn 0.0103496 0 -0.9999465
vn 0.0103496 0 -0.9999465
vn 0.0103496 0 -0.9999465
vn -0.9980434 0 -0.06252434
vn -0.9980434 0 -0.06252434
vn -0.9980434 0 -0.062524326
vn -0.9980434 0 -0.062524326
vn -0.103691794 0 0.9946095
vn -0.103691794 0 0.9946095
vn -0.103691794 0 0.9946095
vn -0.103691794 0 0.9946095
vn -0.15095471 0 -0.9885407
vn -0.15095471 0 -0.9885407
vn -0.15095472 0 -0.9885407
vn -0.15095472 0 -0.9885407
vn 0.015237003 -0.99960047 -0.02380874
vn -0.060830783 -0.99806136 -0.0131549835
vn 0.011225212 -0.9997484 -0.01941996
vn 0.015237003 -0.99960047 -0.023808736
vn -1 0 0
vn -1 0 0
vn -1 0 0
vn -1 0 0
vn -0.21509723 -0.9765927 -1.5696138E-07
vn -0.067562245 -0.9977028 -0.004945312
vn -0.060830783 -0.99806136 -0.0131549835
vn -0.21509722 -0.9765927 -1.5696136E-07
vn -0.067562245 -0.9977028 -0.004945312
vn -0 -0.9999949 0.0032116782
vn 0.006093086 -0.9999039 -0.012453478
vn 0.011225212 0.9997484 -0.01941996
vn -0.060830783 0.99806136 -0.013154982
vn 0.015237003 0.99960047 -0.023808734
vn 0.015237003 0.99960047 -0.023808736
vn -0.060830783 0.99806136 -0.013154982
vn -0.067562245 0.9977028 -0.0049453117
vn -0.21509723 0.9765927 -1.5696138E-07
vn -0.21509722 0.9765927 -1.5696136E-07
vn -0.067562245 0.9977028 -0.0049453117
vn 0.006093086 0.9999039 -0.012453477
vn -0 0.9999949 0.0032116782
g SeparateMesh_Avatar_Female_Size03_ZhuYuan_Model_ZhuYuan_Weapon_1_Mask01_LOD2_0
f 3/3/3 2/2/2 1/1/1
f 4/4/4 3/3/3 1/1/1
f 7/7/7 6/6/6 5/5/5
f 8/8/8 7/7/7 5/5/5
f 11/11/11 10/10/10 9/9/9
f 12/12/12 11/11/11 9/9/9
f 15/15/15 14/14/14 13/13/13
f 16/16/16 15/15/15 13/13/13
f 19/19/19 18/18/18 17/17/17
f 20/20/20 19/19/19 17/17/17
f 23/23/23 22/22/22 21/21/21
f 24/24/24 23/23/23 21/21/21
f 27/27/27 26/26/26 25/25/25
f 28/28/28 27/27/27 25/25/25
f 31/31/31 30/30/30 29/29/29
f 32/32/32 31/31/31 29/29/29
f 35/35/35 34/34/34 33/33/33
f 36/36/36 35/35/35 33/33/33
f 39/39/39 38/38/38 37/37/37
f 40/40/40 39/39/39 37/37/37
f 43/43/43 42/42/42 41/41/41
f 44/44/44 43/43/43 41/41/41
f 47/47/47 46/46/46 45/45/45
f 35/35/35 47/47/47 45/45/45
f 34/34/34 35/35/35 45/45/45
f 50/50/50 49/49/49 48/48/48
f 51/51/51 50/50/50 48/48/48
f 54/54/54 53/53/53 52/52/52
f 55/55/55 54/54/54 52/52/52
f 58/58/58 57/57/57 56/56/56
f 56/56/56 57/57/57 48/48/48
f 49/49/49 56/56/56 48/48/48
