g NPC_Cat_Size02_Ear_001_LOD2
v -0.016463816 0.22102676 0.20406868
v -2.2533003E-08 0.22094272 0.20379522
v -4.0733305E-08 0.22983506 0.21539705
v -0.019880213 0.22722337 0.21464582
v -0.018405229 0.22233617 0.23065948
v -1.1432957E-07 0.22464688 0.23112522
v -2.4856203E-07 0.21296746 0.23870239
v -0.011343562 0.21218163 0.2383409
v 2.8483907E-07 0.20467237 0.23846975
v -0.022098131 0.21089672 0.2245641
v -0.007839997 0.20469749 0.23845404
v 4.5274633E-06 0.19727911 0.22761801
v -0.0142875705 0.20567064 0.23436901
v -0.013309658 0.19791749 0.22858037
v 2.4653184E-06 0.19887108 0.21699278
v -0.018040318 0.20007873 0.21836832
v 9.910893E-07 0.2078276 0.20535888
v -2.2533003E-08 0.22094272 0.20379522
v -0.019705743 0.2097563 0.20639072
v -0.023498181 0.21834028 0.21030392
v 0.016463768 0.22102672 0.20406868
v -4.0733305E-08 0.22983506 0.21539705
v -2.2533003E-08 0.22094272 0.20379522
v 0.019880127 0.22722329 0.21464592
v 0.018404998 0.22233611 0.23065956
v -1.1432957E-07 0.22464688 0.23112522
v -2.4856203E-07 0.21296746 0.23870239
v 0.02210074 0.21089672 0.22456421
v 0.011343122 0.21218163 0.23834093
v 0.007839925 0.20469749 0.23845409
v 2.8483907E-07 0.20467237 0.23846975
v 0.014291075 0.20567062 0.23436904
v 0.013318705 0.19791749 0.22858043
v 4.5274633E-06 0.19727911 0.22761801
v 2.4653184E-06 0.19887108 0.21699278
v 0.018046936 0.20007873 0.21836837
v 9.910893E-07 0.2078276 0.20535888
v -2.2533003E-08 0.22094272 0.20379522
v 0.019707726 0.20975626 0.20639072
v 0.023498936 0.21834026 0.21030396
vt 0.063840374 0.73848027
vt 0.037905097 0.7332303
vt 0.033817537 0.7498547
vt 0.056442343 0.7504669
vt 0.05541613 0.7740567
vt 0.034851633 0.7784027
vt 0.050018758 0.8045939
vt 0.059492394 0.80065894
vt 0.059578072 0.80572355
vt 0.0619732 0.7731807
vt 0.06375703 0.80253077
vt 0.08350796 0.79764175
vt 0.06519154 0.7966045
vt 0.07088519 0.7954365
vt 0.09045914 0.7779182
vt 0.07013996 0.77492857
vt 0.09280772 0.7511539
vt 0.09041679 0.73583376
vt 0.07045887 0.75061417
vt 0.06241683 0.75183284
vt 0.06384039 0.7384802
vt 0.03381753 0.7498547
vt 0.037905097 0.7332303
vt 0.05644238 0.7504669
vt 0.055416167 0.7740567
vt 0.034851626 0.7784027
vt 0.050018787 0.8045939
vt 0.061973155 0.7731807
vt 0.05949241 0.80065894
vt 0.06375706 0.80253077
vt 0.059578072 0.80572355
vt 0.06519157 0.7966045
vt 0.07088518 0.7954365
vt 0.083507955 0.79764175
vt 0.090489335 0.7779016
vt 0.070139945 0.7749285
vt 0.09280771 0.7511539
vt 0.09041679 0.73583376
vt 0.07045889 0.75061417
vt 0.06241685 0.75183284
vn -0.30832994 0.3817327 -0.87132823
vn -2.2085145E-07 0.39259467 -0.91971165
vn 1.7528521E-06 0.99154156 -0.12978938
vn -0.58501375 0.80405533 -0.1060849
vn -0.6016359 0.55310607 0.576288
vn 1.5788514E-07 0.80408734 0.5945113
vn -1.7393314E-06 0.29443341 0.955672
vn -0.39350632 0.1502571 0.9069596
vn -9.83376E-07 -0.47233295 0.8814202
vn -0.95025975 -0.15028222 0.2728032
vn -0.19813542 -0.45657352 0.86734253
vn 3.6152799E-06 -0.9801001 0.1985042
vn -0.703516 -0.34001493 0.62406343
vn -0.41977063 -0.8555656 0.30298516
vn -2.5896506E-06 -0.91348445 -0.40687358
vn -0.5963255 -0.78096837 -0.18569948
vn -3.9071297E-06 -0.5171516 -0.85589385
vn -2.2085145E-07 0.39259467 -0.91971165
vn -0.5733549 -0.4286865 -0.6982063
vn -0.942088 0.13443151 -0.30724314
vn 0.30829924 0.38175437 -0.8713296
vn 1.7528521E-06 0.99154156 -0.12978938
vn -2.2085145E-07 0.39259467 -0.91971165
vn 0.5849662 0.8040901 -0.106082976
vn 0.6015738 0.5531711 0.5762905
vn 1.5788514E-07 0.80408734 0.5945113
vn -1.7393314E-06 0.29443341 0.955672
vn 0.95028925 -0.15003654 0.27283606
vn 0.3934103 0.15032867 0.9069893
vn 0.198019 -0.45654672 0.86738324
vn -9.83376E-07 -0.47233295 0.8814202
vn 0.70345956 -0.3397964 0.62424606
vn 0.41994384 -0.8554545 0.30305925
vn 3.6152799E-06 -0.9801001 0.1985042
vn -2.5896506E-06 -0.91348445 -0.40687358
vn 0.59645456 -0.78086567 -0.18571691
vn -3.9071297E-06 -0.5171516 -0.85589385
vn -2.2085145E-07 0.39259467 -0.91971165
vn 0.5733725 -0.42859158 -0.69825006
vn 0.9420621 0.13458739 -0.3072544
g NPC_Cat_Size02_Ear_001_LOD2_0
f 3/3/3 2/2/2 1/1/1
f 4/4/4 3/3/3 1/1/1
f 4/4/4 5/5/5 3/3/3
f 5/5/5 6/6/6 3/3/3
f 6/6/6 5/5/5 7/7/7
f 5/5/5 8/8/8 7/7/7
f 9/9/9 7/7/7 8/8/8
f 10/10/10 5/5/5 4/4/4
f 5/5/5 10/10/10 8/8/8
f 11/11/11 9/9/9 8/8/8
f 9/9/9 11/11/11 12/12/12
f 11/11/11 8/8/8 13/13/13
f 10/10/10 13/13/13 8/8/8
f 11/11/11 14/14/14 12/12/12
f 11/11/11 13/13/13 14/14/14
f 15/15/15 12/12/12 14/14/14
f 16/16/16 14/14/14 13/13/13
f 16/16/16 15/15/15 14/14/14
f 10/10/10 16/16/16 13/13/13
f 15/15/15 16/16/16 17/17/17
f 18/18/18 17/17/17 1/1/1
f 16/16/16 19/19/19 17/17/17
f 16/16/16 10/10/10 19/19/19
f 17/17/17 19/19/19 1/1/1
f 20/20/20 4/4/4 1/1/1
f 20/20/20 10/10/10 4/4/4
f 10/10/10 20/20/20 19/19/19
f 19/19/19 20/20/20 1/1/1
f 23/23/23 22/22/22 21/21/21
f 22/22/22 24/24/24 21/21/21
f 25/25/25 24/24/24 22/22/22
f 26/26/26 25/25/25 22/22/22
f 25/25/25 26/26/26 27/27/27
f 25/25/25 28/28/28 24/24/24
f 29/29/29 25/25/25 27/27/27
f 28/28/28 25/25/25 29/29/29
f 30/30/30 29/29/29 27/27/27
f 31/31/31 30/30/30 27/27/27
f 30/30/30 32/32/32 29/29/29
f 32/32/32 28/28/28 29/29/29
f 30/30/30 31/31/31 33/33/33
f 30/30/30 33/33/33 32/32/32
f 31/31/31 34/34/34 33/33/33
f 34/34/34 35/35/35 33/33/33
f 33/33/33 36/36/36 32/32/32
f 35/35/35 36/36/36 33/33/33
f 36/36/36 28/28/28 32/32/32
f 36/36/36 35/35/35 37/37/37
f 37/37/37 38/38/38 21/21/21
f 39/39/39 36/36/36 37/37/37
f 28/28/28 36/36/36 39/39/39
f 39/39/39 37/37/37 21/21/21
f 28/28/28 40/40/40 24/24/24
f 24/24/24 40/40/40 21/21/21
f 40/40/40 39/39/39 21/21/21
f 40/40/40 28/28/28 39/39/39
