g NPC_Male_Size02_Ear_001_LOD1
v 0.06992759 0.010181588 1.6384928
v 0.07276591 0.007197427 1.6390771
v 0.068289846 0.0040882626 1.6329455
v 0.07806815 0.012107978 1.64458
v 0.06987006 0.02118012 1.6378618
v 0.08220037 0.016933871 1.6457579
v 0.08553116 0.022257697 1.6418896
v 0.08615573 0.025411887 1.6318481
v 0.08337158 0.02655137 1.62074
v 0.06540218 0.023975695 1.6233665
v 0.07866064 0.023014072 1.6115589
v 0.06243916 0.022469208 1.6159927
v 0.058402546 0.014683847 1.6043686
v 0.0726996 0.017303979 1.6021178
v 0.06757474 0.0117099965 1.5947489
v 0.056172993 0.009303093 1.5992845
v 0.062022626 0.006381074 1.5922468
v 0.05430213 0.0041954005 1.5922781
v 0.055636205 0.0020058486 1.5922805
v 0.0726996 0.017303979 1.6021178
v 0.071115956 0.011305357 1.6147867
v 0.07866064 0.023014072 1.6115589
v 0.06757474 0.0117099965 1.5947489
v 0.08337158 0.02655137 1.62074
v 0.062022626 0.006381074 1.5922468
v 0.08615573 0.025411887 1.6318481
v 0.055636205 0.0020058486 1.5922805
v 0.08553116 0.022257697 1.6418896
v 0.060591362 0.0031109904 1.6074462
v 0.08220037 0.016933871 1.6457579
v 0.065496825 0.0038507443 1.6234384
v 0.07806815 0.012107978 1.64458
v 0.068289846 0.0040882626 1.6329455
v 0.07276591 0.007197427 1.6390771
v -0.08498837 0.021159858 1.6438444
v -0.08220037 0.016933871 1.6457579
v -0.071115956 0.011305357 1.6147867
v -0.08607395 0.023355536 1.6399348
v -0.07806815 0.012107978 1.64458
v -0.08615573 0.025411887 1.6318481
v -0.074111834 0.008393087 1.6410179
v -0.084767245 0.027070446 1.6235462
v -0.07141998 0.0060017663 1.6371363
v -0.081975915 0.026032295 1.6179336
v -0.068289846 0.0040882626 1.6329455
v -0.07866064 0.023014072 1.6115589
v -0.065496825 0.0038507443 1.6234384
v -0.0726996 0.017303979 1.6021178
v -0.060591362 0.0031109904 1.6074462
v -0.06757474 0.0117099965 1.5947489
v -0.055636205 0.0020058486 1.5922805
v -0.062022626 0.006381074 1.5922468
v -0.06540218 0.023975695 1.6233665
v -0.075087525 0.024770737 1.6112003
v -0.06243916 0.022469208 1.6159927
v -0.059988774 0.019736547 1.6100756
v -0.06952674 0.018647414 1.6009399
v -0.058402546 0.014683847 1.6043686
v -0.056172993 0.009303093 1.5992845
v -0.07785376 0.028168255 1.6175749
v -0.08015769 0.02949561 1.6239674
v -0.067734376 0.023117067 1.6300584
v -0.0820476 0.028136287 1.6323675
v -0.06987006 0.02118012 1.6378618
v -0.07866064 0.023014072 1.6115589
v -0.0726996 0.017303979 1.6021178
v -0.081975915 0.026032295 1.6179336
v -0.084767245 0.027070446 1.6235462
v -0.06757474 0.0117099965 1.5947489
v -0.08615573 0.025411887 1.6318481
v -0.06516143 0.013317924 1.5942436
v -0.062022626 0.006381074 1.5922468
v -0.083111525 0.026376443 1.6400876
v -0.08607395 0.023355536 1.6399348
v -0.05989773 0.008140863 1.5924113
v -0.055636205 0.0020058486 1.5922805
v -0.05430213 0.0041954005 1.5922781
v -0.082140654 0.024317473 1.6442033
v -0.08498837 0.021159858 1.6438444
v -0.07901387 0.019660996 1.6462413
v -0.08220037 0.016933871 1.6457579
v -0.07806815 0.012107978 1.64458
v -0.07354718 0.012780196 1.6448376
v -0.074111834 0.008393087 1.6410179
v -0.06992759 0.010181588 1.6384928
v -0.07113469 0.008637379 1.6412591
v -0.07141998 0.0060017663 1.6371363
v -0.069504425 0.0060490305 1.6370857
v -0.068289846 0.0040882626 1.6329455
vt 0.45533624 0.5599322
vt 0.45573786 0.566878
vt 0.46564537 0.5623543
vt 0.4429105 0.5684169
vt 0.4447293 0.5492413
vt 0.43354282 0.56595457
vt 0.42516646 0.5576576
vt 0.4216553 0.5432212
vt 0.42230606 0.52743745
vt 0.4468797 0.5257568
vt 0.42557943 0.5134096
vt 0.4481695 0.5151159
vt 0.44826013 0.49406233
vt 0.42900598 0.49719456
vt 0.43198887 0.48328912
vt 0.44791204 0.4836724
vt 0.43778497 0.47387668
vt 0.4482231 0.47054502
vt 0.44619092 0.46781957
vt 0.47966406 0.50370425
vt 0.46796373 0.5179485
vt 0.48698202 0.5185656
vt 0.47265518 0.49179783
vt 0.4904204 0.5321933
vt 0.46389714 0.48584172
vt 0.48758948 0.54689544
vt 0.45411018 0.4828843
vt 0.48053646 0.55863845
vt 0.4540099 0.5037726
vt 0.47142112 0.5614182
vt 0.45336193 0.525638
vt 0.4638942 0.5577306
vt 0.4528253 0.5385794
vt 0.4571215 0.5481844
vt 0.4783788 0.56069493
vt 0.47142112 0.5614182
vt 0.46796373 0.5179485
vt 0.4826941 0.5565819
vt 0.4638942 0.5577306
vt 0.48758948 0.54689544
vt 0.45840815 0.5513141
vt 0.49113366 0.53630096
vt 0.45583484 0.5450547
vt 0.48970714 0.52808565
vt 0.4528253 0.5385794
vt 0.48698202 0.5185656
vt 0.45336193 0.525638
vt 0.47966406 0.50370425
vt 0.4540099 0.5037726
vt 0.47265518 0.49179783
vt 0.45411018 0.4828843
vt 0.46389714 0.48584172
vt 0.4468797 0.5257568
vt 0.43073353 0.5135671
vt 0.4481695 0.5151159
vt 0.44839984 0.50515485
vt 0.43357158 0.49597734
vt 0.44826013 0.49406233
vt 0.44791204 0.4836724
vt 0.42924973 0.5225059
vt 0.42821708 0.5310818
vt 0.44605434 0.53546274
vt 0.42817593 0.54212826
vt 0.4447293 0.5492413
vt 0.42557943 0.5134096
vt 0.42900598 0.49719456
vt 0.4230962 0.5231392
vt 0.4215159 0.5317358
vt 0.43198887 0.48328912
vt 0.4216553 0.5432212
vt 0.43565807 0.4839412
vt 0.43778497 0.47387668
vt 0.4282717 0.55202585
vt 0.4234405 0.55450284
vt 0.44153872 0.4764089
vt 0.44619092 0.46781957
vt 0.4482231 0.47054502
vt 0.4302742 0.55681485
vt 0.42689243 0.56081235
vt 0.4356893 0.5609767
vt 0.43354282 0.56595457
vt 0.4429105 0.5684169
vt 0.4461466 0.5635971
vt 0.45222798 0.5677704
vt 0.45533624 0.5599322
vt 0.4534107 0.5640556
vt 0.45924774 0.5659856
vt 0.4598752 0.5635002
vt 0.46564537 0.5623543
vn -0.6063235 -0.19180329 0.7717404
vn 0.11587815 -0.81966835 0.5609955
vn 0.96285206 -0.035801955 -0.26764545
vn 0.21959183 -0.5776889 0.7861647
vn -0.34496778 0.7433402 0.5730992
vn 0.50197744 -0.13795468 0.85380745
vn 0.7833427 0.37062588 0.49900955
vn 0.8658114 0.4957066 0.0681579
vn 0.76594555 0.5850479 -0.26654524
vn -0.14288457 0.9886819 -0.04573871
vn 0.7027531 0.4209993 -0.57349604
vn -0.1665515 0.9189875 -0.35738307
vn -0.25277907 0.8269045 -0.5023262
vn 0.62953323 0.3252447 -0.70562303
vn 0.500639 0.15368597 -0.85190445
vn -0.29938853 0.77976876 -0.54984295
vn 0.41761604 -0.08212687 -0.9049044
vn 0.84076244 0.3655373 -0.3993757
vn 0.8766161 0.3473077 -0.3330489
vn 0.62953323 0.3252447 -0.70562303
vn 0.7414738 -0.6493537 -0.16898642
vn 0.7027531 0.4209993 -0.57349604
vn 0.500639 0.15368597 -0.85190445
vn 0.76594555 0.5850479 -0.26654524
vn 0.41761604 -0.08212687 -0.9049044
vn 0.8658114 0.4957066 0.0681579
vn 0.8766161 0.3473077 -0.3330489
vn 0.7833427 0.37062588 0.49900955
vn 0.9457814 0.049391966 -0.32102668
vn 0.50197744 -0.13795468 0.85380745
vn 0.95849067 -0.008724133 -0.28499037
vn 0.21959183 -0.5776889 0.7861647
vn 0.96285206 -0.035801955 -0.26764545
vn 0.11587815 -0.81966835 0.5609955
vn -0.8692952 -0.08379482 0.48713893
vn -0.6418277 -0.4146246 0.645092
vn -0.74327075 -0.6468232 -0.1707875
vn -0.9865556 0.07548774 0.14494716
vn -0.4797605 -0.6705211 0.56589
vn -0.9866475 0.1528285 -0.056304716
vn -0.4165813 -0.83947057 0.3489257
vn -0.9185206 0.2869795 -0.27196077
vn -0.42151675 -0.884273 0.2009597
vn -0.8425889 0.22439106 -0.489584
vn -0.9628522 -0.035801705 -0.2676453
vn -0.8474062 0.09548605 -0.5222883
vn -0.9584909 -0.008725569 -0.28498957
vn -0.8330559 0.039401982 -0.5517838
vn -0.9457816 0.049389474 -0.32102633
vn -0.72423387 -0.13777012 -0.6756513
vn -0.8766145 0.34731022 -0.33305052
vn -0.49416488 -0.4502453 -0.7436936
vn 0.3440281 0.9388483 -0.01444068
vn -0.07871776 0.8708412 -0.4852207
vn 0.3011451 0.91941893 -0.25294384
vn 0.3334451 0.84593755 -0.41617775
vn -0.051306516 0.7709547 -0.63482004
vn 0.45913827 0.75314695 -0.47112808
vn 0.5122351 0.748985 -0.42028165
vn -0.050718892 0.941179 -0.3340802
vn -0.08106692 0.99607533 -0.035524532
vn 0.35503122 0.896576 0.26477236
vn -0.124590464 0.97212213 0.19863503
vn 0.5642405 0.6621893 0.49309027
vn -0.8474062 0.09548605 -0.5222883
vn -0.8330559 0.039401982 -0.5517838
vn -0.8425889 0.22439106 -0.489584
vn -0.9185206 0.2869795 -0.27196077
vn -0.72423387 -0.13777012 -0.6756513
vn -0.9866475 0.1528285 -0.056304716
vn 0.058061235 0.6135563 -0.7875135
vn -0.49416488 -0.4502453 -0.7436936
vn -0.20136745 0.91486704 0.3499564
vn -0.9865556 0.07548774 0.14494716
vn 0.24181402 0.46384206 -0.8522773
vn -0.8766145 0.34731022 -0.33305052
vn -0.84075934 0.36554235 -0.39937767
vn -0.10153075 0.6920968 0.7146283
vn -0.8692952 -0.08379482 0.48713893
vn 0.18091477 0.26411965 0.94737035
vn -0.6418277 -0.4146246 0.645092
vn -0.4797605 -0.6705211 0.56589
vn 0.46738794 -0.19404435 0.86249363
vn -0.4165813 -0.83947057 0.3489257
vn 0.9061051 0.020354362 0.42256257
vn 0.57573664 -0.45955682 0.6762655
vn -0.42151675 -0.884273 0.2009597
vn 0.63691854 -0.5787675 0.50927705
vn -0.9628522 -0.035801705 -0.2676453
g NPC_Male_Size02_Ear_001_LOD1_0
f 3/3/3 2/2/2 1/1/1
f 2/2/2 4/4/4 1/1/1
f 4/4/4 5/5/5 1/1/1
f 4/4/4 6/6/6 5/5/5
f 6/6/6 7/7/7 5/5/5
f 8/8/8 5/5/5 7/7/7
f 5/5/5 8/8/8 9/9/9
f 10/10/10 5/5/5 9/9/9
f 10/10/10 9/9/9 11/11/11
f 12/12/12 10/10/10 11/11/11
f 13/13/13 12/12/12 11/11/11
f 14/14/14 13/13/13 11/11/11
f 13/13/13 14/14/14 15/15/15
f 16/16/16 13/13/13 15/15/15
f 17/17/17 16/16/16 15/15/15
f 18/18/18 16/16/16 17/17/17
f 19/19/19 18/18/18 17/17/17
f 22/22/22 21/21/21 20/20/20
f 23/23/23 20/20/20 21/21/21
f 22/22/22 24/24/24 21/21/21
f 25/25/25 23/23/23 21/21/21
f 26/26/26 21/21/21 24/24/24
f 25/25/25 21/21/21 27/27/27
f 21/21/21 26/26/26 28/28/28
f 21/21/21 29/29/29 27/27/27
f 30/30/30 21/21/21 28/28/28
f 31/31/31 29/29/29 21/21/21
f 21/21/21 30/30/30 32/32/32
f 31/31/31 21/21/21 33/33/33
f 32/32/32 34/34/34 21/21/21
f 33/33/33 21/21/21 34/34/34
f 37/37/37 36/36/36 35/35/35
f 37/37/37 35/35/35 38/38/38
f 36/36/36 37/37/37 39/39/39
f 40/40/40 37/37/37 38/38/38
f 41/41/41 39/39/39 37/37/37
f 37/37/37 40/40/40 42/42/42
f 43/43/43 41/41/41 37/37/37
f 37/37/37 42/42/42 44/44/44
f 37/37/37 45/45/45 43/43/43
f 44/44/44 46/46/46 37/37/37
f 37/37/37 47/47/47 45/45/45
f 37/37/37 46/46/46 48/48/48
f 49/49/49 47/47/47 37/37/37
f 48/48/48 50/50/50 37/37/37
f 49/49/49 37/37/37 51/51/51
f 50/50/50 52/52/52 37/37/37
f 52/52/52 51/51/51 37/37/37
f 55/55/55 54/54/54 53/53/53
f 54/54/54 55/55/55 56/56/56
f 54/54/54 56/56/56 57/57/57
f 58/58/58 57/57/57 56/56/56
f 57/57/57 58/58/58 59/59/59
f 54/54/54 60/60/60 53/53/53
f 60/60/60 61/61/61 53/53/53
f 62/62/62 53/53/53 61/61/61
f 63/63/63 62/62/62 61/61/61
f 63/63/63 64/64/64 62/62/62
f 60/60/60 54/54/54 65/65/65
f 66/66/66 65/65/65 54/54/54
f 57/57/57 66/66/66 54/54/54
f 67/67/67 60/60/60 65/65/65
f 60/60/60 67/67/67 61/61/61
f 67/67/67 68/68/68 61/61/61
f 61/61/61 68/68/68 63/63/63
f 66/66/66 57/57/57 69/69/69
f 68/68/68 70/70/70 63/63/63
f 57/57/57 71/71/71 69/69/69
f 72/72/72 69/69/69 71/71/71
f 71/71/71 57/57/57 59/59/59
f 63/63/63 70/70/70 73/73/73
f 63/63/63 73/73/73 64/64/64
f 70/70/70 74/74/74 73/73/73
f 75/75/75 72/72/72 71/71/71
f 59/59/59 75/75/75 71/71/71
f 76/76/76 72/72/72 75/75/75
f 77/77/77 75/75/75 59/59/59
f 77/77/77 76/76/76 75/75/75
f 78/78/78 73/73/73 74/74/74
f 73/73/73 78/78/78 64/64/64
f 79/79/79 78/78/78 74/74/74
f 78/78/78 79/79/79 80/80/80
f 78/78/78 80/80/80 64/64/64
f 79/79/79 81/81/81 80/80/80
f 81/81/81 82/82/82 80/80/80
f 80/80/80 83/83/83 64/64/64
f 82/82/82 83/83/83 80/80/80
f 83/83/83 82/82/82 84/84/84
f 85/85/85 64/64/64 83/83/83
f 86/86/86 83/83/83 84/84/84
f 86/86/86 85/85/85 83/83/83
f 84/84/84 87/87/87 86/86/86
f 86/86/86 88/88/88 85/85/85
f 87/87/87 88/88/88 86/86/86
f 88/88/88 89/89/89 85/85/85
f 89/89/89 88/88/88 87/87/87
