g NPC_Male_Size02_Ear_003_LOD2
v -0.06992759 0.010181588 1.6384928
v -0.068289846 0.0040882626 1.6329455
v -0.074215464 0.01047966 1.6429237
v -0.06987006 0.02118012 1.6378618
v -0.080607116 0.018297434 1.6459996
v -0.084078625 0.023802327 1.6420175
v -0.084101655 0.026774086 1.6321079
v -0.067734376 0.023117067 1.6300584
v -0.08246246 0.028283028 1.6237569
v -0.06392067 0.02322245 1.6196796
v -0.07839446 0.02549634 1.6145669
v -0.056172993 0.009303093 1.5992845
v -0.06636808 0.012513961 1.5944961
v -0.055636305 0.0020058262 1.5922809
v 0.06992759 0.010181588 1.6384928
v 0.074215464 0.01047966 1.6429237
v 0.068289846 0.0040882626 1.6329455
v 0.06987006 0.02118012 1.6378618
v 0.080607116 0.018297434 1.6459996
v 0.084078625 0.023802327 1.6420175
v 0.084101655 0.026774086 1.6321079
v 0.067734376 0.023117067 1.6300584
v 0.08246246 0.028283028 1.6237569
v 0.06392067 0.02322245 1.6196796
v 0.07839446 0.02549634 1.6145669
v 0.056172993 0.009303093 1.5992845
v 0.06636808 0.012513961 1.5944961
v 0.055636305 0.0020058262 1.5922809
v -0.08246246 0.028283028 1.6237569
v -0.084101655 0.026774086 1.6321079
v -0.071115956 0.011305357 1.6147867
v -0.07839446 0.02549634 1.6145669
v -0.084078625 0.023802327 1.6420175
v -0.06636808 0.012513961 1.5944961
v -0.080607116 0.018297434 1.6459996
v -0.055636305 0.0020058262 1.5922809
v -0.074215464 0.01047966 1.6429237
v -0.06489182 0.0038477217 1.6215954
v -0.068289846 0.0040882626 1.6329455
v 0.08246246 0.028283028 1.6237569
v 0.071115956 0.011305357 1.6147867
v 0.084101655 0.026774086 1.6321079
v 0.07839446 0.02549634 1.6145669
v 0.084078625 0.023802327 1.6420175
v 0.06636808 0.012513961 1.5944961
v 0.080607116 0.018297434 1.6459996
v 0.055636305 0.0020058262 1.5922809
v 0.074215464 0.01047966 1.6429237
v 0.06489182 0.0038477217 1.6215954
v 0.068289846 0.0040882626 1.6329455
v 0.06548634 0.014545697 1.6125331
v 0.06914164 0.010064411 1.6081903
v 0.06479118 0.014446792 1.6097434
v 0.068572804 0.007209706 1.6110547
v 0.06962412 0.0066834567 1.6169275
v 0.07167373 0.013021024 1.6151184
v 0.066185355 0.016181927 1.6103004
v 0.07537052 0.008498359 1.6320083
v 0.071259685 0.005181775 1.626719
v 0.0800399 0.0148001285 1.6321942
v 0.081944 0.01896182 1.6282762
v 0.081520535 0.020675344 1.6224499
v 0.07741482 0.018157404 1.6147485
v 0.07270359 0.015166597 1.6111702
v 0.071436115 0.013190394 1.6079638
v 0.06914164 0.010064411 1.6081903
v 0.06479118 0.014446792 1.6097434
v -0.06914164 0.010064411 1.6081903
v -0.06548634 0.014545697 1.6125331
v -0.06479118 0.014446792 1.6097434
v -0.068572804 0.007209706 1.6110547
v -0.06962412 0.0066834567 1.6169275
v -0.07167373 0.013021024 1.6151184
v -0.066185355 0.016181927 1.6103004
v -0.07537052 0.008498359 1.6320083
v -0.071259685 0.005181775 1.626719
v -0.0800399 0.0148001285 1.6321942
v -0.081944 0.01896182 1.6282762
v -0.081520535 0.020675344 1.6224499
v -0.07741482 0.018157404 1.6147485
v -0.07270359 0.015166597 1.6111702
v -0.071436115 0.013190394 1.6079638
v -0.06914164 0.010064411 1.6081903
v -0.06479118 0.014446792 1.6097434
v 0.074623376 0.0049956557 1.6098353
v 0.06914164 0.010064411 1.6081903
v 0.068572804 0.007209706 1.6110547
v 0.071436115 0.013190394 1.6079638
v 0.06962412 0.0066834567 1.6169275
v 0.077599525 0.009353867 1.6083856
v 0.07741482 0.018157404 1.6147485
v 0.0827339 0.014310415 1.6146545
v 0.081520535 0.020675344 1.6224499
v 0.08641281 0.016671047 1.6215658
v 0.081944 0.01896182 1.6282762
v 0.083608575 0.010540771 1.6187369
v 0.08663662 0.014676861 1.6270515
v 0.0800399 0.0148001285 1.6321942
v 0.07910352 0.005356593 1.6172616
v 0.07581817 0.0032295226 1.6173414
v 0.076910205 0.0019189548 1.6247543
v 0.071259685 0.005181775 1.626719
v 0.07537052 0.008498359 1.6320083
v 0.08080232 0.0053346776 1.6299363
v 0.08501735 0.011105585 1.6300653
v 0.08284576 0.0071693277 1.623555
v -0.074623376 0.0049956557 1.6098353
v -0.06914164 0.010064411 1.6081903
v -0.071436115 0.013190394 1.6079638
v -0.068572804 0.007209706 1.6110547
v -0.06962412 0.0066834567 1.6169275
v -0.077599525 0.009353867 1.6083856
v -0.07741482 0.018157404 1.6147485
v -0.0827339 0.014310415 1.6146545
v -0.081520535 0.020675344 1.6224499
v -0.08641281 0.016671047 1.6215658
v -0.081944 0.01896182 1.6282762
v -0.083608575 0.010540771 1.6187369
v -0.08663662 0.014676861 1.6270515
v -0.0800399 0.0148001285 1.6321942
v -0.07910352 0.005356593 1.6172616
v -0.07581817 0.0032295226 1.6173414
v -0.076910205 0.0019189548 1.6247543
v -0.071259685 0.005181775 1.626719
v -0.07537052 0.008498359 1.6320083
v -0.08080232 0.0053346776 1.6299363
v -0.08501735 0.011105585 1.6300653
v -0.08284576 0.0071693277 1.623555
vt 0.45533624 0.5599322
vt 0.46564537 0.5623543
vt 0.44867396 0.56596
vt 0.4447293 0.5492413
vt 0.43461606 0.5634656
vt 0.4272197 0.556039
vt 0.4249156 0.5426747
vt 0.44605434 0.53546274
vt 0.4248665 0.5314088
vt 0.4475246 0.52043635
vt 0.42716473 0.51815546
vt 0.44791204 0.4836724
vt 0.43382347 0.48361516
vt 0.44720703 0.4691823
vt 0.45533624 0.5599322
vt 0.44867396 0.56596
vt 0.46564537 0.5623543
vt 0.4447293 0.5492413
vt 0.43461606 0.5634656
vt 0.4272197 0.556039
vt 0.4249156 0.5426747
vt 0.44605434 0.53546274
vt 0.4248665 0.5314088
vt 0.4475246 0.52043635
vt 0.42716473 0.51815546
vt 0.44791204 0.4836724
vt 0.43382347 0.48361516
vt 0.44720703 0.4691823
vt 0.49113366 0.53630096
vt 0.48758948 0.54689544
vt 0.46796373 0.5179485
vt 0.48834458 0.5233256
vt 0.48053646 0.55863845
vt 0.47265518 0.49179783
vt 0.47142112 0.5614182
vt 0.45411018 0.4828843
vt 0.46115118 0.5545224
vt 0.45336193 0.525638
vt 0.4528253 0.5385794
vt 0.49113366 0.53630096
vt 0.46796373 0.5179485
vt 0.48758948 0.54689544
vt 0.48834458 0.5233256
vt 0.48053646 0.55863845
vt 0.47265518 0.49179783
vt 0.47142112 0.5614182
vt 0.45411018 0.4828843
vt 0.46115118 0.5545224
vt 0.45336193 0.525638
vt 0.4528253 0.5385794
vt 0.43138045 0.6656161
vt 0.4416887 0.6669524
vt 0.43491954 0.6626449
vt 0.4402786 0.6721367
vt 0.4376076 0.67767656
vt 0.42772916 0.6744242
vt 0.42774314 0.6639866
vt 0.43517488 0.6976567
vt 0.44020647 0.6894484
vt 0.42528814 0.7003048
vt 0.4183535 0.6969319
vt 0.4148373 0.69006735
vt 0.41699922 0.678504
vt 0.42181915 0.670804
vt 0.41970083 0.66563845
vt 0.41951632 0.6609409
vt 0.4274332 0.66085047
vt 0.4416887 0.6669524
vt 0.43138045 0.6656161
vt 0.43491954 0.6626449
vt 0.4402786 0.6721367
vt 0.4376076 0.67767656
vt 0.42772916 0.6744242
vt 0.42774314 0.6639866
vt 0.43517488 0.6976567
vt 0.44020647 0.6894484
vt 0.42528814 0.7003048
vt 0.4183535 0.6969319
vt 0.4148373 0.69006735
vt 0.41699922 0.678504
vt 0.42181915 0.670804
vt 0.41970083 0.66563845
vt 0.41951632 0.6609409
vt 0.4274332 0.66085047
vt 0.36011842 0.6545124
vt 0.3547135 0.63899285
vt 0.3458591 0.646276
vt 0.36920744 0.6357275
vt 0.33917984 0.662536
vt 0.37143776 0.6513383
vt 0.39791965 0.65294516
vt 0.38682064 0.6645794
vt 0.40818912 0.6809207
vt 0.39305484 0.68122244
vt 0.40112233 0.7002608
vt 0.37921903 0.67428166
vt 0.38818294 0.6924415
vt 0.38451847 0.711987
vt 0.36442238 0.6707255
vt 0.35459253 0.6702779
vt 0.35448185 0.6861019
vt 0.33984703 0.6935908
vt 0.3585374 0.7103013
vt 0.36491138 0.69673157
vt 0.37958947 0.69788086
vt 0.37133545 0.68394405
vt 0.36011842 0.6545124
vt 0.3547135 0.63899285
vt 0.36920744 0.6357275
vt 0.3458591 0.646276
vt 0.33917984 0.662536
vt 0.37143776 0.6513383
vt 0.39791965 0.65294516
vt 0.38682064 0.6645794
vt 0.40818912 0.6809207
vt 0.39305484 0.68122244
vt 0.40112233 0.7002608
vt 0.37921903 0.67428166
vt 0.38818294 0.6924415
vt 0.38451847 0.711987
vt 0.36442238 0.6707255
vt 0.35459253 0.6702779
vt 0.35448185 0.6861019
vt 0.33984703 0.6935908
vt 0.3585374 0.7103013
vt 0.36491138 0.69673157
vt 0.37958947 0.69788086
vt 0.37133545 0.68394405
vn 0.6898841 -0.23810574 0.68364143
vn -0.714258 -0.69900316 -0.035073712
vn -0.10102088 -0.64167506 0.7602947
vn 0.4382583 0.6958327 0.5689872
vn -0.42774528 -0.1168942 0.896309
vn -0.74435073 0.42923176 0.5115682
vn -0.8060591 0.5890342 0.057510264
vn 0.2576309 0.94273335 0.21184959
vn -0.70158046 0.6727052 -0.2350588
vn 0.30995944 0.931138 -0.1921124
vn -0.6153115 0.540461 -0.57384115
vn 0.4233995 0.7463811 -0.5134667
vn -0.44875672 0.23019636 -0.86349696
vn -0.88394827 0.33015293 -0.331111
vn -0.6898841 -0.23810574 0.68364143
vn 0.10102088 -0.64167506 0.7602947
vn 0.714258 -0.69900316 -0.035073712
vn -0.4382583 0.6958327 0.5689872
vn 0.42774528 -0.1168942 0.896309
vn 0.74435073 0.42923176 0.5115682
vn 0.80605906 0.5890343 0.057510268
vn -0.2576309 0.94273335 0.21184959
vn 0.70158035 0.6727053 -0.23505874
vn -0.3099595 0.931138 -0.19211236
vn 0.6153115 0.540461 -0.57384115
vn -0.4233995 0.7463811 -0.5134667
vn 0.4487567 0.23019636 -0.86349696
vn 0.91999316 0.15116923 -0.36160812
vn -0.70158046 0.6727052 -0.2350588
vn -0.8060591 0.5890342 0.057510264
vn -0.78378034 -0.5911802 -0.19024818
vn -0.6153115 0.540461 -0.57384115
vn -0.74435073 0.42923176 0.5115682
vn -0.44875672 0.23019636 -0.86349696
vn -0.42774528 -0.1168942 0.896309
vn -0.88394827 0.33015293 -0.331111
vn -0.10102088 -0.64167506 0.7602947
vn -0.95781523 -0.018229287 -0.28680587
vn -0.714258 -0.69900316 -0.035073712
vn 0.70158035 0.6727053 -0.23505874
vn 0.78378034 -0.5911802 -0.19024818
vn 0.80605906 0.5890343 0.057510268
vn 0.6153115 0.540461 -0.57384115
vn 0.74435073 0.42923176 0.5115682
vn 0.4487567 0.23019636 -0.86349696
vn 0.42774528 -0.1168942 0.896309
vn 0.91999316 0.15116923 -0.36160812
vn 0.10102088 -0.64167506 0.7602947
vn 0.95781535 -0.01822631 -0.2868059
vn 0.714258 -0.69900316 -0.035073712
vn -0.7789297 0.31548482 0.54197586
vn -0.44604388 -0.31619483 -0.8372967
vn -0.65549374 -0.15175596 -0.739796
vn -0.6889323 -0.6833797 -0.24158745
vn -0.8690128 -0.43728426 0.23151524
vn -0.54485524 0.6613036 0.51556814
vn -0.07242082 0.90375066 -0.4218887
vn -0.5037421 -0.06367348 0.86150426
vn -0.8567313 -0.30299866 0.41737682
vn -0.14556974 0.4448144 0.8837135
vn 0.030269917 0.84699345 0.53074086
vn 0.022556491 0.9997384 0.00377691
vn -0.100976564 0.9187083 -0.3818098
vn -0.2071665 0.9698182 -0.12858799
vn 0.07642819 0.377259 -0.9229487
vn -0.44604388 -0.31619483 -0.8372967
vn -0.65549374 -0.15175596 -0.739796
vn 0.4460439 -0.3161948 -0.83729666
vn 0.7789297 0.31548488 0.54197586
vn 0.6554938 -0.15175593 -0.7397959
vn 0.6889323 -0.6833797 -0.24158745
vn 0.8690128 -0.43728426 0.23151524
vn 0.5448552 0.6613035 0.51556814
vn 0.072420806 0.90375066 -0.42188868
vn 0.5037421 -0.06367351 0.86150426
vn 0.8567313 -0.30299866 0.41737682
vn 0.14556974 0.4448144 0.8837135
vn -0.030269952 0.84699345 0.53074086
vn -0.022556491 0.9997384 0.0037768795
vn 0.10097655 0.9187083 -0.38180983
vn 0.2071665 0.9698182 -0.12858796
vn -0.07642819 0.377259 -0.9229487
vn 0.4460439 -0.3161948 -0.83729666
vn 0.6554938 -0.15175593 -0.7397959
vn 0.091636226 -0.79272133 -0.60265726
vn -0.44604388 -0.31619483 -0.8372967
vn -0.6889323 -0.6833797 -0.24158745
vn 0.07642819 0.377259 -0.9229487
vn -0.8690128 -0.43728426 0.23151524
vn 0.52550507 -0.11190369 -0.8433991
vn -0.100976564 0.9187083 -0.3818098
vn 0.7575919 0.20072396 -0.6210995
vn 0.022556491 0.9997384 0.00377691
vn 0.91093934 0.34718087 -0.22283413
vn 0.030269917 0.84699345 0.53074086
vn 0.857911 -0.41446474 -0.30365735
vn 0.94755286 0.16554853 0.27338108
vn -0.14556974 0.4448144 0.8837135
vn 0.6768364 -0.67754185 -0.28780118
vn 0.03278032 -0.9822067 -0.18491973
vn 0.07270731 -0.98734367 0.14094761
vn -0.8567313 -0.30299866 0.41737682
vn -0.5037421 -0.06367348 0.86150426
vn 0.41061568 -0.70333344 0.5802731
vn 0.78127724 -0.20197664 0.5906026
vn 0.7910768 -0.60390425 -0.09745336
vn -0.091636226 -0.79272133 -0.60265726
vn 0.4460439 -0.3161948 -0.83729666
vn -0.07642819 0.377259 -0.9229487
vn 0.6889323 -0.6833797 -0.24158745
vn 0.8690128 -0.43728426 0.23151524
vn -0.52550507 -0.111903705 -0.84339905
vn 0.10097655 0.9187083 -0.38180983
vn -0.7575918 0.20072389 -0.6210995
vn -0.022556491 0.9997384 0.0037768795
vn -0.91093934 0.3471809 -0.22283417
vn -0.030269952 0.84699345 0.53074086
vn -0.857911 -0.41446474 -0.30365738
vn -0.94755286 0.16554853 0.27338108
vn 0.14556974 0.4448144 0.8837135
vn -0.6768364 -0.67754185 -0.2878012
vn -0.03278028 -0.9822068 -0.1849197
vn -0.07270731 -0.98734367 0.14094761
vn 0.8567313 -0.30299866 0.41737682
vn 0.5037421 -0.06367351 0.86150426
vn -0.41061562 -0.70333344 0.58027303
vn -0.7812773 -0.20197663 0.5906025
vn -0.7910768 -0.60390425 -0.09745336
g NPC_Male_Size02_Ear_003_LOD2_0
f 3/3/3 2/2/2 1/1/1
f 1/1/1 4/4/4 3/3/3
f 5/5/5 3/3/3 4/4/4
f 6/6/6 5/5/5 4/4/4
f 7/7/7 6/6/6 4/4/4
f 7/7/7 4/4/4 8/8/8
f 7/7/7 8/8/8 9/9/9
f 8/8/8 10/10/10 9/9/9
f 11/11/11 9/9/9 10/10/10
f 11/11/11 10/10/10 12/12/12
f 13/13/13 11/11/11 12/12/12
f 14/14/14 13/13/13 12/12/12
f 17/17/17 16/16/16 15/15/15
f 18/18/18 15/15/15 16/16/16
f 16/16/16 19/19/19 18/18/18
f 19/19/19 20/20/20 18/18/18
f 20/20/20 21/21/21 18/18/18
f 18/18/18 21/21/21 22/22/22
f 22/22/22 21/21/21 23/23/23
f 24/24/24 22/22/22 23/23/23
f 23/23/23 25/25/25 24/24/24
f 24/24/24 25/25/25 26/26/26
f 25/25/25 27/27/27 26/26/26
f 27/27/27 28/28/28 26/26/26
f 31/31/31 30/30/30 29/29/29
f 31/31/31 29/29/29 32/32/32
f 30/30/30 31/31/31 33/33/33
f 31/31/31 32/32/32 34/34/34
f 31/31/31 35/35/35 33/33/33
f 34/34/34 36/36/36 31/31/31
f 35/35/35 31/31/31 37/37/37
f 36/36/36 38/38/38 31/31/31
f 39/39/39 37/37/37 31/31/31
f 31/31/31 38/38/38 39/39/39
f 42/42/42 41/41/41 40/40/40
f 40/40/40 41/41/41 43/43/43
f 41/41/41 42/42/42 44/44/44
f 43/43/43 41/41/41 45/45/45
f 46/46/46 41/41/41 44/44/44
f 47/47/47 45/45/45 41/41/41
f 41/41/41 46/46/46 48/48/48
f 49/49/49 47/47/47 41/41/41
f 48/48/48 50/50/50 41/41/41
f 49/49/49 41/41/41 50/50/50
g NPC_Male_Size02_Ear_003_LOD2_1
f 53/53/53 52/52/52 51/51/51
f 52/52/52 54/54/54 51/51/51
f 51/51/51 54/54/54 55/55/55
f 56/56/56 51/51/51 55/55/55
f 51/51/51 56/56/56 57/57/57
f 56/56/56 55/55/55 58/58/58
f 58/58/58 55/55/55 59/59/59
f 60/60/60 56/56/56 58/58/58
f 61/61/61 56/56/56 60/60/60
f 62/62/62 56/56/56 61/61/61
f 63/63/63 56/56/56 62/62/62
f 64/64/64 56/56/56 63/63/63
f 56/56/56 64/64/64 57/57/57
f 64/64/64 63/63/63 65/65/65
f 57/57/57 64/64/64 65/65/65
f 57/57/57 65/65/65 66/66/66
f 67/67/67 57/57/57 66/66/66
f 70/70/70 69/69/69 68/68/68
f 69/69/69 71/71/71 68/68/68
f 71/71/71 69/69/69 72/72/72
f 69/69/69 73/73/73 72/72/72
f 73/73/73 69/69/69 74/74/74
f 72/72/72 73/73/73 75/75/75
f 72/72/72 75/75/75 76/76/76
f 73/73/73 77/77/77 75/75/75
f 73/73/73 78/78/78 77/77/77
f 73/73/73 79/79/79 78/78/78
f 73/73/73 80/80/80 79/79/79
f 73/73/73 81/81/81 80/80/80
f 81/81/81 73/73/73 74/74/74
f 80/80/80 81/81/81 82/82/82
f 81/81/81 74/74/74 82/82/82
f 82/82/82 74/74/74 83/83/83
f 74/74/74 84/84/84 83/83/83
f 87/87/87 86/86/86 85/85/85
f 86/86/86 88/88/88 85/85/85
f 89/89/89 87/87/87 85/85/85
f 88/88/88 90/90/90 85/85/85
f 88/88/88 91/91/91 90/90/90
f 91/91/91 92/92/92 90/90/90
f 91/91/91 93/93/93 92/92/92
f 93/93/93 94/94/94 92/92/92
f 93/93/93 95/95/95 94/94/94
f 90/90/90 92/92/92 96/96/96
f 94/94/94 96/96/96 92/92/92
f 95/95/95 97/97/97 94/94/94
f 97/97/97 96/96/96 94/94/94
f 95/95/95 98/98/98 97/97/97
f 90/90/90 99/99/99 85/85/85
f 99/99/99 90/90/90 96/96/96
f 100/100/100 89/89/89 85/85/85
f 85/85/85 99/99/99 100/100/100
f 89/89/89 100/100/100 101/101/101
f 100/100/100 99/99/99 101/101/101
f 102/102/102 89/89/89 101/101/101
f 103/103/103 102/102/102 101/101/101
f 104/104/104 103/103/103 101/101/101
f 98/98/98 103/103/103 104/104/104
f 104/104/104 101/101/101 99/99/99
f 98/98/98 105/105/105 97/97/97
f 96/96/96 97/97/97 105/105/105
f 105/105/105 98/98/98 104/104/104
f 106/106/106 104/104/104 99/99/99
f 96/96/96 106/106/106 99/99/99
f 104/104/104 106/106/106 105/105/105
f 106/106/106 96/96/96 105/105/105
f 109/109/109 108/108/108 107/107/107
f 108/108/108 110/110/110 107/107/107
f 110/110/110 111/111/111 107/107/107
f 112/112/112 109/109/109 107/107/107
f 113/113/113 109/109/109 112/112/112
f 114/114/114 113/113/113 112/112/112
f 115/115/115 113/113/113 114/114/114
f 116/116/116 115/115/115 114/114/114
f 117/117/117 115/115/115 116/116/116
f 118/118/118 114/114/114 112/112/112
f 118/118/118 116/116/116 114/114/114
f 119/119/119 117/117/117 116/116/116
f 118/118/118 119/119/119 116/116/116
f 120/120/120 117/117/117 119/119/119
f 121/121/121 112/112/112 107/107/107
f 121/121/121 118/118/118 112/112/112
f 111/111/111 122/122/122 107/107/107
f 121/121/121 107/107/107 122/122/122
f 122/122/122 111/111/111 123/123/123
f 121/121/121 122/122/122 123/123/123
f 111/111/111 124/124/124 123/123/123
f 124/124/124 125/125/125 123/123/123
f 125/125/125 126/126/126 123/123/123
f 125/125/125 120/120/120 126/126/126
f 121/121/121 123/123/123 126/126/126
f 127/127/127 120/120/120 119/119/119
f 119/119/119 118/118/118 127/127/127
f 120/120/120 127/127/127 126/126/126
f 128/128/128 121/121/121 126/126/126
f 128/128/128 118/118/118 121/121/121
f 128/128/128 126/126/126 127/127/127
f 118/118/118 128/128/128 127/127/127
