g NPC_Male_Size02_Ear_001_LOD0
v 0.08498837 0.021159858 1.6438444
v 0.071115956 0.011305357 1.6147867
v 0.08220037 0.016933871 1.6457579
v 0.074111834 0.008393087 1.6410179
v 0.07806815 0.012107978 1.64458
v 0.07806815 0.012107978 1.64458
v 0.08220037 0.016933871 1.6457579
v 0.0726996 0.017303979 1.6021178
v 0.06757474 0.0117099965 1.5947489
v 0.07141998 0.0060017663 1.6371363
v 0.074111834 0.008393087 1.6410179
v 0.07141998 0.0060017663 1.6371363
v 0.068289846 0.0040882626 1.6329455
v 0.08607395 0.023355536 1.6399348
v 0.08498837 0.021159858 1.6438444
v 0.08615573 0.025411887 1.6318481
v 0.084767245 0.027070446 1.6235462
v 0.081975915 0.026032295 1.6179336
v 0.0726996 0.017303979 1.6021178
v 0.07866064 0.023014072 1.6115589
v 0.081975915 0.026032295 1.6179336
v 0.068289846 0.0040882626 1.6329455
v 0.065496825 0.0038507443 1.6234384
v 0.062393863 0.0035082053 1.6130418
v 0.058788862 0.0027137755 1.6018505
v 0.055636205 0.0020058486 1.5922805
v 0.062022626 0.006381074 1.5922468
v 0.06757474 0.0117099965 1.5947489
v 0.07141998 0.0060017663 1.6371363
v 0.068289846 0.0040882626 1.6329455
v 0.069504425 0.0060490305 1.6370857
v 0.06992759 0.010181588 1.6384928
v 0.068289846 0.0040882626 1.6329455
v 0.07113469 0.008637379 1.6412591
v 0.07141998 0.0060017663 1.6371363
v 0.074111834 0.008393087 1.6410179
v 0.07354718 0.012780196 1.6448376
v 0.074111834 0.008393087 1.6410179
v 0.07806815 0.012107978 1.64458
v 0.06987006 0.02118012 1.6378618
v 0.07901387 0.019660996 1.6462413
v 0.07806815 0.012107978 1.64458
v 0.08220037 0.016933871 1.6457579
v 0.082140654 0.024317473 1.6442033
v 0.08498837 0.021159858 1.6438444
v 0.08220037 0.016933871 1.6457579
v 0.083111525 0.026376443 1.6400876
v 0.08607395 0.023355536 1.6399348
v 0.08498837 0.021159858 1.6438444
v 0.0820476 0.028136287 1.6323675
v 0.067734376 0.023117067 1.6300584
v 0.08615573 0.025411887 1.6318481
v 0.08607395 0.023355536 1.6399348
v 0.08015769 0.02949561 1.6239674
v 0.06540218 0.023975695 1.6233665
v 0.084767245 0.027070446 1.6235462
v 0.08615573 0.025411887 1.6318481
v 0.07785376 0.028168255 1.6175749
v 0.081975915 0.026032295 1.6179336
v 0.084767245 0.027070446 1.6235462
v 0.075087525 0.024770737 1.6112003
v 0.06243916 0.022469208 1.6159927
v 0.059988774 0.019736547 1.6100756
v 0.07866064 0.023014072 1.6115589
v 0.081975915 0.026032295 1.6179336
v 0.06952674 0.018647414 1.6009399
v 0.058402546 0.014683847 1.6043686
v 0.056172993 0.009303093 1.5992845
v 0.0726996 0.017303979 1.6021178
v 0.07866064 0.023014072 1.6115589
v 0.06516143 0.013317924 1.5942436
v 0.06757474 0.0117099965 1.5947489
v 0.0726996 0.017303979 1.6021178
v 0.05989773 0.008140863 1.5924113
v 0.05430213 0.0041954005 1.5922781
v 0.055636205 0.0020058486 1.5922805
v 0.062022626 0.006381074 1.5922468
v 0.062022626 0.006381074 1.5922468
v 0.06757474 0.0117099965 1.5947489
v -0.08498837 0.021159858 1.6438444
v -0.08220037 0.016933871 1.6457579
v -0.071115956 0.011305357 1.6147867
v -0.07806815 0.012107978 1.64458
v -0.074111834 0.008393087 1.6410179
v -0.07806815 0.012107978 1.64458
v -0.08220037 0.016933871 1.6457579
v -0.06757474 0.0117099965 1.5947489
v -0.0726996 0.017303979 1.6021178
v -0.074111834 0.008393087 1.6410179
v -0.07141998 0.0060017663 1.6371363
v -0.08607395 0.023355536 1.6399348
v -0.08498837 0.021159858 1.6438444
v -0.08615573 0.025411887 1.6318481
v -0.084767245 0.027070446 1.6235462
v -0.081975915 0.026032295 1.6179336
v -0.0726996 0.017303979 1.6021178
v -0.07866064 0.023014072 1.6115589
v -0.081975915 0.026032295 1.6179336
v -0.07141998 0.0060017663 1.6371363
v -0.068289846 0.0040882626 1.6329455
v -0.065496825 0.0038507443 1.6234384
v -0.062393863 0.0035082053 1.6130418
v -0.058788862 0.0027137755 1.6018505
v -0.055636205 0.0020058486 1.5922805
v -0.062022626 0.006381074 1.5922468
v -0.06757474 0.0117099965 1.5947489
v -0.0820476 0.028136287 1.6323675
v -0.08615573 0.025411887 1.6318481
v -0.084767245 0.027070446 1.6235462
v -0.08015769 0.02949561 1.6239674
v -0.067734376 0.023117067 1.6300584
v -0.06987006 0.02118012 1.6378618
v -0.06540218 0.023975695 1.6233665
v -0.083111525 0.026376443 1.6400876
v -0.08615573 0.025411887 1.6318481
v -0.08607395 0.023355536 1.6399348
v -0.082140654 0.024317473 1.6442033
v -0.08607395 0.023355536 1.6399348
v -0.08498837 0.021159858 1.6438444
v -0.07901387 0.019660996 1.6462413
v -0.08498837 0.021159858 1.6438444
v -0.08220037 0.016933871 1.6457579
v -0.07354718 0.012780196 1.6448376
v -0.06992759 0.010181588 1.6384928
v -0.07806815 0.012107978 1.64458
v -0.08220037 0.016933871 1.6457579
v -0.07113469 0.008637379 1.6412591
v -0.074111834 0.008393087 1.6410179
v -0.07806815 0.012107978 1.64458
v -0.069504425 0.0060490305 1.6370857
v -0.068289846 0.0040882626 1.6329455
v -0.07141998 0.0060017663 1.6371363
v -0.07141998 0.0060017663 1.6371363
v -0.074111834 0.008393087 1.6410179
v -0.075087525 0.024770737 1.6112003
v -0.07866064 0.023014072 1.6115589
v -0.0726996 0.017303979 1.6021178
v -0.06952674 0.018647414 1.6009399
v -0.059988774 0.019736547 1.6100756
v -0.058402546 0.014683847 1.6043686
v -0.06243916 0.022469208 1.6159927
v -0.056172993 0.009303093 1.5992845
v -0.07785376 0.028168255 1.6175749
v -0.07866064 0.023014072 1.6115589
v -0.081975915 0.026032295 1.6179336
v -0.081975915 0.026032295 1.6179336
v -0.084767245 0.027070446 1.6235462
v -0.06516143 0.013317924 1.5942436
v -0.06757474 0.0117099965 1.5947489
v -0.0726996 0.017303979 1.6021178
v -0.05989773 0.008140863 1.5924113
v -0.05430213 0.0041954005 1.5922781
v -0.055636205 0.0020058486 1.5922805
v -0.062022626 0.006381074 1.5922468
v -0.062022626 0.006381074 1.5922468
v -0.06757474 0.0117099965 1.5947489
vt 0.4783788 0.56069493
vt 0.46796373 0.5179485
vt 0.47142112 0.5614182
vt 0.45840815 0.5513141
vt 0.4638942 0.5577306
vt 0.4638942 0.5577306
vt 0.47142112 0.5614182
vt 0.47966406 0.50370425
vt 0.47265518 0.49179783
vt 0.45583484 0.5450547
vt 0.45840815 0.5513141
vt 0.45583484 0.5450547
vt 0.4528253 0.5385794
vt 0.4826941 0.5565819
vt 0.4783788 0.56069493
vt 0.48758948 0.54689544
vt 0.49113366 0.53630096
vt 0.48970714 0.52808565
vt 0.47966406 0.50370425
vt 0.48698202 0.5185656
vt 0.48970714 0.52808565
vt 0.4528253 0.5385794
vt 0.45336193 0.525638
vt 0.4539411 0.51146865
vt 0.45407864 0.49607652
vt 0.45411018 0.4828843
vt 0.46389714 0.48584172
vt 0.47265518 0.49179783
vt 0.45924774 0.5659856
vt 0.46564537 0.5623543
vt 0.4598752 0.5635002
vt 0.45533624 0.5599322
vt 0.46564537 0.5623543
vt 0.4534107 0.5640556
vt 0.45924774 0.5659856
vt 0.45222798 0.5677704
vt 0.4461466 0.5635971
vt 0.45222798 0.5677704
vt 0.4429105 0.5684169
vt 0.4447293 0.5492413
vt 0.4356893 0.5609767
vt 0.4429105 0.5684169
vt 0.43354282 0.56595457
vt 0.4302742 0.55681485
vt 0.42689243 0.56081235
vt 0.43354282 0.56595457
vt 0.4282717 0.55202585
vt 0.4234405 0.55450284
vt 0.42689243 0.56081235
vt 0.42817593 0.54212826
vt 0.44605434 0.53546274
vt 0.4216553 0.5432212
vt 0.4234405 0.55450284
vt 0.42821708 0.5310818
vt 0.4468797 0.5257568
vt 0.4215159 0.5317358
vt 0.4216553 0.5432212
vt 0.42924973 0.5225059
vt 0.4230962 0.5231392
vt 0.4215159 0.5317358
vt 0.43073353 0.5135671
vt 0.4481695 0.5151159
vt 0.44839984 0.50515485
vt 0.42557943 0.5134096
vt 0.4230962 0.5231392
vt 0.43357158 0.49597734
vt 0.44826013 0.49406233
vt 0.44791204 0.4836724
vt 0.42900598 0.49719456
vt 0.42557943 0.5134096
vt 0.43565807 0.4839412
vt 0.43198887 0.48328912
vt 0.42900598 0.49719456
vt 0.44153872 0.4764089
vt 0.4482231 0.47054502
vt 0.44619092 0.46781957
vt 0.43778497 0.47387668
vt 0.43778497 0.47387668
vt 0.43198887 0.48328912
vt 0.4783788 0.56069493
vt 0.47142112 0.5614182
vt 0.46796373 0.5179485
vt 0.4638942 0.5577306
vt 0.45840815 0.5513141
vt 0.4638942 0.5577306
vt 0.47142112 0.5614182
vt 0.47265518 0.49179783
vt 0.47966406 0.50370425
vt 0.45840815 0.5513141
vt 0.45583484 0.5450547
vt 0.4826941 0.5565819
vt 0.4783788 0.56069493
vt 0.48758948 0.54689544
vt 0.49113366 0.53630096
vt 0.48970714 0.52808565
vt 0.47966406 0.50370425
vt 0.48698202 0.5185656
vt 0.48970714 0.52808565
vt 0.45583484 0.5450547
vt 0.4528253 0.5385794
vt 0.45336193 0.525638
vt 0.4539411 0.51146865
vt 0.45407864 0.49607652
vt 0.45411018 0.4828843
vt 0.46389714 0.48584172
vt 0.47265518 0.49179783
vt 0.42817593 0.54212826
vt 0.4216553 0.5432212
vt 0.4215159 0.5317358
vt 0.42821708 0.5310818
vt 0.44605434 0.53546274
vt 0.4447293 0.5492413
vt 0.4468797 0.5257568
vt 0.4282717 0.55202585
vt 0.4216553 0.5432212
vt 0.4234405 0.55450284
vt 0.4302742 0.55681485
vt 0.4234405 0.55450284
vt 0.42689243 0.56081235
vt 0.4356893 0.5609767
vt 0.42689243 0.56081235
vt 0.43354282 0.56595457
vt 0.4461466 0.5635971
vt 0.45533624 0.5599322
vt 0.4429105 0.5684169
vt 0.43354282 0.56595457
vt 0.4534107 0.5640556
vt 0.45222798 0.5677704
vt 0.4429105 0.5684169
vt 0.4598752 0.5635002
vt 0.46564537 0.5623543
vt 0.45924774 0.5659856
vt 0.45924774 0.5659856
vt 0.45222798 0.5677704
vt 0.43073353 0.5135671
vt 0.42557943 0.5134096
vt 0.42900598 0.49719456
vt 0.43357158 0.49597734
vt 0.44839984 0.50515485
vt 0.44826013 0.49406233
vt 0.4481695 0.5151159
vt 0.44791204 0.4836724
vt 0.42924973 0.5225059
vt 0.42557943 0.5134096
vt 0.4230962 0.5231392
vt 0.4230962 0.5231392
vt 0.4215159 0.5317358
vt 0.43565807 0.4839412
vt 0.43198887 0.48328912
vt 0.42900598 0.49719456
vt 0.44153872 0.4764089
vt 0.4482231 0.47054502
vt 0.44619092 0.46781957
vt 0.43778497 0.47387668
vt 0.43778497 0.47387668
vt 0.43198887 0.48328912
vn 0.77359915 -0.61274415 -0.16152056
vn 0.7428281 -0.6473421 -0.17074731
vn 0.77823967 -0.60491216 -0.1685953
vn 0.7540436 -0.63780165 -0.15693122
vn 0.76250756 -0.6266143 -0.16104898
vn 0.76250756 -0.6266143 -0.16104898
vn 0.77823967 -0.60491216 -0.1685953
vn 0.81671125 -0.5543141 -0.16037026
vn 0.74729186 -0.64844704 -0.14515974
vn 0.74742305 -0.6440418 -0.16299959
vn 0.7540436 -0.63780165 -0.15693122
vn 0.74742305 -0.6440418 -0.16299959
vn 0.96285206 -0.035801955 -0.26764545
vn 0.7594131 -0.6335204 -0.14813353
vn 0.77359915 -0.61274415 -0.16152056
vn 0.77405864 -0.60679895 -0.18063322
vn 0.79677016 -0.5455612 -0.2598469
vn 0.8027985 -0.53634083 -0.26048622
vn 0.81671125 -0.5543141 -0.16037026
vn 0.80940384 -0.5653514 -0.15888093
vn 0.8027985 -0.53634083 -0.26048622
vn 0.96285206 -0.035801955 -0.26764545
vn 0.9597943 -0.014503755 -0.28032917
vn 0.95370966 0.01649008 -0.3002763
vn 0.93161076 0.17364702 -0.31929332
vn 0.8884561 0.29781413 -0.34921697
vn 0.6134293 -0.7861097 -0.07573596
vn 0.74729186 -0.64844704 -0.14515974
vn -0.030741934 -0.861936 0.5060844
vn -0.6932735 -0.5511069 0.46438444
vn -0.63691854 -0.5787675 0.50927705
vn -0.9061051 0.020354362 0.42256257
vn -0.6932735 -0.5511069 0.46438444
vn -0.57573664 -0.45955682 0.6762655
vn -0.030741934 -0.861936 0.5060844
vn -0.030351816 -0.7303323 0.68241733
vn -0.46738794 -0.19404435 0.86249363
vn -0.030351816 -0.7303323 0.68241733
vn -0.011057393 -0.37393278 0.9273899
vn -0.5642405 0.6621893 0.49309027
vn -0.18091479 0.26411963 0.9473704
vn -0.011057393 -0.37393278 0.9273899
vn 0.16121316 -0.015522048 0.9867975
vn 0.10153075 0.6920968 0.7146283
vn 0.5031557 0.39272693 0.76980513
vn 0.16121316 -0.015522048 0.9867975
vn 0.20136745 0.91486704 0.34995636
vn 0.6590252 0.6751656 0.33141702
vn 0.5031557 0.39272693 0.76980513
vn 0.124590404 0.97212213 0.19863497
vn -0.35503122 0.896576 0.26477236
vn 0.5777813 0.80975777 0.10227946
vn 0.6590252 0.6751656 0.33141702
vn 0.08106692 0.99607533 -0.035524543
vn -0.34402815 0.9388483 -0.014440696
vn 0.48760778 0.8643659 -0.1229238
vn 0.5777813 0.80975777 0.10227946
vn 0.050718877 0.941179 -0.3340802
vn 0.4283925 0.7919648 -0.43505338
vn 0.48760778 0.8643659 -0.1229238
vn 0.07871774 0.8708412 -0.48522064
vn -0.30114517 0.91941893 -0.25294384
vn -0.3334451 0.84593755 -0.41617775
vn 0.42468584 0.68516475 -0.5917695
vn 0.4283925 0.7919648 -0.43505338
vn 0.051306546 0.7709547 -0.63482004
vn -0.4591383 0.75314695 -0.47112805
vn -0.51223516 0.74898493 -0.42028165
vn 0.4538893 0.5914327 -0.66647714
vn 0.42468584 0.68516475 -0.5917695
vn -0.058061257 0.61355627 -0.7875135
vn 0.3775962 0.3796848 -0.84454745
vn 0.4538893 0.5914327 -0.66647714
vn -0.24181406 0.46384206 -0.8522773
vn 0.8422071 0.3541605 -0.40651888
vn 0.8884561 0.29781413 -0.34921697
vn 0.11231461 0.116904244 -0.9867719
vn 0.11231461 0.116904244 -0.9867719
vn 0.3775962 0.3796848 -0.84454745
vn -0.77359915 -0.61274415 -0.16152056
vn -0.77823967 -0.60491216 -0.1685953
vn -0.7428281 -0.6473421 -0.17074731
vn -0.76250756 -0.6266143 -0.16104898
vn -0.7540436 -0.63780165 -0.15693122
vn -0.76250756 -0.6266143 -0.16104898
vn -0.77823967 -0.60491216 -0.1685953
vn -0.74729186 -0.64844704 -0.14515974
vn -0.81671125 -0.5543141 -0.16037026
vn -0.7540436 -0.63780165 -0.15693122
vn -0.74742305 -0.6440418 -0.16299959
vn -0.7594131 -0.6335204 -0.14813353
vn -0.77359915 -0.61274415 -0.16152056
vn -0.77405864 -0.60679895 -0.18063322
vn -0.79677016 -0.5455612 -0.2598469
vn -0.8027985 -0.53634083 -0.26048622
vn -0.81671125 -0.5543141 -0.16037026
vn -0.80940384 -0.5653514 -0.15888093
vn -0.8027985 -0.53634083 -0.26048622
vn -0.74742305 -0.6440418 -0.16299959
vn -0.9628522 -0.035801705 -0.2676453
vn -0.9597944 -0.014504321 -0.28032896
vn -0.95371 0.01648819 -0.30027547
vn -0.93161136 0.17364448 -0.3192926
vn -0.8884546 0.29781646 -0.34921882
vn -0.6134293 -0.7861097 -0.07573596
vn -0.74729186 -0.64844704 -0.14515974
vn -0.124590464 0.97212213 0.19863503
vn -0.5777813 0.80975777 0.10227947
vn -0.48760784 0.8643659 -0.122923784
vn -0.08106692 0.99607533 -0.035524532
vn 0.35503122 0.896576 0.26477236
vn 0.5642405 0.6621893 0.49309027
vn 0.3440281 0.9388483 -0.01444068
vn -0.20136745 0.91486704 0.3499564
vn -0.5777813 0.80975777 0.10227947
vn -0.65902525 0.67516553 0.33141708
vn -0.10153075 0.6920968 0.7146283
vn -0.65902525 0.67516553 0.33141708
vn -0.5031557 0.39272693 0.76980513
vn 0.18091477 0.26411965 0.94737035
vn -0.5031557 0.39272693 0.76980513
vn -0.16121316 -0.015522038 0.9867975
vn 0.46738794 -0.19404435 0.86249363
vn 0.9061051 0.020354362 0.42256257
vn 0.011057395 -0.37393278 0.9273899
vn -0.16121316 -0.015522038 0.9867975
vn 0.57573664 -0.45955682 0.6762655
vn 0.030351812 -0.7303324 0.6824173
vn 0.011057395 -0.37393278 0.9273899
vn 0.63691854 -0.5787675 0.50927705
vn -0.9628522 -0.035801705 -0.2676453
vn 0.030741934 -0.861936 0.5060844
vn 0.030741934 -0.861936 0.5060844
vn 0.030351812 -0.7303324 0.6824173
vn -0.07871776 0.8708412 -0.4852207
vn -0.42468584 0.68516475 -0.5917695
vn -0.4538893 0.5914327 -0.66647714
vn -0.051306516 0.7709547 -0.63482004
vn 0.3334451 0.84593755 -0.41617775
vn 0.45913827 0.75314695 -0.47112808
vn 0.3011451 0.91941893 -0.25294384
vn 0.5122351 0.748985 -0.42028165
vn -0.050718892 0.941179 -0.3340802
vn -0.42468584 0.68516475 -0.5917695
vn -0.42839253 0.7919649 -0.43505338
vn -0.42839253 0.7919649 -0.43505338
vn -0.48760784 0.8643659 -0.122923784
vn 0.058061235 0.6135563 -0.7875135
vn -0.3775962 0.37968487 -0.84454745
vn -0.4538893 0.5914327 -0.66647714
vn 0.24181402 0.46384206 -0.8522773
vn -0.84220403 0.35416552 -0.40652087
vn -0.8884546 0.29781646 -0.34921882
vn -0.11231465 0.11690428 -0.9867719
vn -0.11231465 0.11690428 -0.9867719
vn -0.3775962 0.37968487 -0.84454745
g NPC_Male_Size02_Ear_001_LOD0_0
f 3/3/3 2/2/2 1/1/1
f 5/5/5 4/4/4 2/2/2
f 2/2/2 7/7/7 6/6/6
f 9/9/9 8/8/8 2/2/2
f 11/11/11 10/10/10 2/2/2
f 13/13/13 2/2/2 12/12/12
f 15/15/15 2/2/2 14/14/14
f 2/2/2 16/16/16 14/14/14
f 16/16/16 2/2/2 17/17/17
f 17/17/17 2/2/2 18/18/18
f 20/20/20 2/2/2 19/19/19
f 20/20/20 21/21/21 2/2/2
f 23/23/23 2/2/2 22/22/22
f 23/23/23 24/24/24 2/2/2
f 24/24/24 25/25/25 2/2/2
f 2/2/2 25/25/25 26/26/26
f 26/26/26 27/27/27 2/2/2
f 27/27/27 28/28/28 2/2/2
f 31/31/31 30/30/30 29/29/29
f 33/33/33 31/31/31 32/32/32
f 31/31/31 34/34/34 32/32/32
f 31/31/31 35/35/35 34/34/34
f 35/35/35 36/36/36 34/34/34
f 32/32/32 34/34/34 37/37/37
f 37/37/37 34/34/34 38/38/38
f 39/39/39 37/37/37 38/38/38
f 40/40/40 32/32/32 37/37/37
f 37/37/37 41/41/41 40/40/40
f 37/37/37 42/42/42 41/41/41
f 42/42/42 43/43/43 41/41/41
f 41/41/41 44/44/44 40/40/40
f 45/45/45 44/44/44 41/41/41
f 46/46/46 45/45/45 41/41/41
f 44/44/44 47/47/47 40/40/40
f 47/47/47 44/44/44 48/48/48
f 44/44/44 49/49/49 48/48/48
f 47/47/47 50/50/50 40/40/40
f 40/40/40 50/50/50 51/51/51
f 52/52/52 50/50/50 47/47/47
f 53/53/53 52/52/52 47/47/47
f 51/51/51 50/50/50 54/54/54
f 55/55/55 51/51/51 54/54/54
f 56/56/56 54/54/54 50/50/50
f 57/57/57 56/56/56 50/50/50
f 54/54/54 58/58/58 55/55/55
f 59/59/59 58/58/58 54/54/54
f 60/60/60 59/59/59 54/54/54
f 58/58/58 61/61/61 55/55/55
f 61/61/61 62/62/62 55/55/55
f 62/62/62 61/61/61 63/63/63
f 61/61/61 58/58/58 64/64/64
f 58/58/58 65/65/65 64/64/64
f 63/63/63 61/61/61 66/66/66
f 66/66/66 67/67/67 63/63/63
f 67/67/67 66/66/66 68/68/68
f 69/69/69 66/66/66 61/61/61
f 70/70/70 69/69/69 61/61/61
f 66/66/66 71/71/71 68/68/68
f 71/71/71 66/66/66 72/72/72
f 66/66/66 73/73/73 72/72/72
f 74/74/74 68/68/68 71/71/71
f 74/74/74 75/75/75 68/68/68
f 76/76/76 75/75/75 74/74/74
f 77/77/77 76/76/76 74/74/74
f 78/78/78 74/74/74 71/71/71
f 79/79/79 78/78/78 71/71/71
f 82/82/82 81/81/81 80/80/80
f 84/84/84 83/83/83 82/82/82
f 86/86/86 82/82/82 85/85/85
f 88/88/88 87/87/87 82/82/82
f 90/90/90 89/89/89 82/82/82
f 82/82/82 92/92/92 91/91/91
f 93/93/93 82/82/82 91/91/91
f 82/82/82 93/93/93 94/94/94
f 82/82/82 94/94/94 95/95/95
f 82/82/82 97/97/97 96/96/96
f 98/98/98 97/97/97 82/82/82
f 82/82/82 100/100/100 99/99/99
f 82/82/82 101/101/101 100/100/100
f 102/102/102 101/101/101 82/82/82
f 103/103/103 102/102/102 82/82/82
f 103/103/103 82/82/82 104/104/104
f 105/105/105 104/104/104 82/82/82
f 106/106/106 105/105/105 82/82/82
f 109/109/109 108/108/108 107/107/107
f 110/110/110 109/109/109 107/107/107
f 107/107/107 111/111/111 110/110/110
f 107/107/107 112/112/112 111/111/111
f 111/111/111 113/113/113 110/110/110
f 107/107/107 114/114/114 112/112/112
f 107/107/107 115/115/115 114/114/114
f 115/115/115 116/116/116 114/114/114
f 114/114/114 117/117/117 112/112/112
f 117/117/117 114/114/114 118/118/118
f 119/119/119 117/117/117 118/118/118
f 117/117/117 120/120/120 112/112/112
f 117/117/117 121/121/121 120/120/120
f 121/121/121 122/122/122 120/120/120
f 120/120/120 123/123/123 112/112/112
f 124/124/124 112/112/112 123/123/123
f 125/125/125 123/123/123 120/120/120
f 126/126/126 125/125/125 120/120/120
f 127/127/127 124/124/124 123/123/123
f 127/127/127 123/123/123 128/128/128
f 123/123/123 129/129/129 128/128/128
f 127/127/127 130/130/130 124/124/124
f 130/130/130 131/131/131 124/124/124
f 131/131/131 130/130/130 132/132/132
f 133/133/133 130/130/130 127/127/127
f 134/134/134 133/133/133 127/127/127
f 137/137/137 136/136/136 135/135/135
f 138/138/138 137/137/137 135/135/135
f 135/135/135 139/139/139 138/138/138
f 140/140/140 138/138/138 139/139/139
f 135/135/135 141/141/141 139/139/139
f 141/141/141 135/135/135 113/113/113
f 138/138/138 140/140/140 142/142/142
f 135/135/135 143/143/143 113/113/113
f 143/143/143 135/135/135 144/144/144
f 145/145/145 143/143/143 144/144/144
f 143/143/143 110/110/110 113/113/113
f 143/143/143 146/146/146 110/110/110
f 146/146/146 147/147/147 110/110/110
f 148/148/148 138/138/138 142/142/142
f 138/138/138 148/148/148 149/149/149
f 150/150/150 138/138/138 149/149/149
f 142/142/142 151/151/151 148/148/148
f 152/152/152 151/151/151 142/142/142
f 152/152/152 153/153/153 151/151/151
f 153/153/153 154/154/154 151/151/151
f 151/151/151 155/155/155 148/148/148
f 155/155/155 156/156/156 148/148/148
