g NPC_Cat_Size01_Ear_001_LOD3
v 3.8797657E-06 0.18401358 0.24012874
v -0.00788321 0.18527058 0.2454
v 1.7786026E-06 0.1851271 0.24499638
v -0.010222826 0.18460232 0.24115862
v -0.0065165707 0.1859004 0.23216794
v 1.7619403E-06 0.18667303 0.23228481
v 7.1046253E-07 0.19398056 0.22729877
v -0.0074458835 0.19318861 0.22643341
v -0 0.20226222 0.22635174
v -0.0072712707 0.20254779 0.22582233
v -0.012819824 0.18730898 0.23338905
v -0.013652777 0.19495116 0.2278675
v -0.011699524 0.20233946 0.22648105
v -0.011370488 0.19056493 0.24609439
v -0.0072010322 0.18833175 0.248727
v -0.00788321 0.18527058 0.2454
v -0.016311143 0.19503947 0.23911874
v -0.016280307 0.20006727 0.23071334
v -0.013773651 0.2053864 0.23377214
v -0.0072712707 0.20254779 0.22582233
v -0.013079128 0.20201813 0.24388637
v -0.0078195175 0.2074116 0.23456162
v -0 0.20226222 0.22635174
v 2.773472E-11 0.20702118 0.23439294
v -0.0071269795 0.20385064 0.24480742
v -5.719385E-08 0.20378068 0.24426776
v -1.9073485E-07 0.1964749 0.2501937
v -0.009144927 0.19576292 0.24984425
v -0.0072010322 0.18833175 0.248727
v -0.0063265124 0.1912006 0.2505454
v -0.0063265124 0.1912006 0.2505454
v -7.6293944E-08 0.19136943 0.25074515
v -1.9073485E-07 0.1964749 0.2501937
v 0.00632636 0.1912006 0.2505454
v -7.6293944E-08 0.19136943 0.25074515
v 0.009144622 0.19576292 0.24984425
v 0.0071268654 0.20385064 0.24480742
v -5.719385E-08 0.20378068 0.24426776
v 2.773472E-11 0.20702118 0.23439294
v 0.0078195175 0.2074116 0.23456162
v -0 0.20226222 0.22635174
v 0.0072712707 0.20254779 0.22582233
v 0.013079014 0.20201813 0.24388637
v 0.013773651 0.2053864 0.23377214
v 0.011699524 0.20233946 0.22648105
v 0.011374032 0.19056493 0.24609439
v 0.0072018034 0.18833175 0.248727
v 0.00632636 0.1912006 0.2505454
v 0.016313039 0.19503947 0.23911874
v 0.01628088 0.20006727 0.23071334
v 0.0136541985 0.19495116 0.2278675
v 0.0072712707 0.20254779 0.22582233
v 0.012824554 0.18730898 0.23338905
v 0.0074473047 0.19318861 0.22643341
v -0 0.20226222 0.22635174
v 7.1046253E-07 0.19398056 0.22729877
v 0.0065213013 0.1859004 0.23216794
v 1.7619403E-06 0.18667303 0.23228481
v 3.8797657E-06 0.18401358 0.24012874
v 0.010230586 0.18460232 0.24115862
v 0.0072018034 0.18833175 0.248727
v 0.007886767 0.18527058 0.2454
v 0.007886767 0.18527058 0.2454
v 1.7786026E-06 0.1851271 0.24499638
v 4.75049E-07 0.18772674 0.24927303
v 1.7786026E-06 0.1851271 0.24499638
v -0.00788321 0.18527058 0.2454
v -0.0072010322 0.18833175 0.248727
v 1.7786026E-06 0.1851271 0.24499638
v 4.75049E-07 0.18772674 0.24927303
v 0.0072018034 0.18833175 0.248727
v 0.007886767 0.18527058 0.2454
v 4.75049E-07 0.18772674 0.24927303
v -0.0072010322 0.18833175 0.248727
v -0.0063265124 0.1912006 0.2505454
v -7.6293944E-08 0.19136943 0.25074515
v 0.0072018034 0.18833175 0.248727
v 4.75049E-07 0.18772674 0.24927303
v -7.6293944E-08 0.19136943 0.25074515
v 0.00632636 0.1912006 0.2505454
vt 0.08400946 0.79612124
vt 0.07084803 0.7988975
vt 0.08271138 0.8006684
vt 0.070974395 0.7936435
vt 0.08163195 0.7762439
vt 0.093773425 0.778434
vt 0.0955617 0.75122184
vt 0.08245281 0.7509688
vt 0.09351357 0.7360034
vt 0.07824908 0.73455626
vt 0.07013996 0.77492857
vt 0.07045887 0.75061417
vt 0.063840374 0.73848027
vt 0.06457919 0.7950162
vt 0.06626335 0.7997324
vt 0.07084803 0.7988975
vt 0.0619732 0.7731807
vt 0.06241683 0.75183284
vt 0.056442343 0.7504669
vt 0.050214924 0.7334067
vt 0.05541613 0.7740567
vt 0.044988874 0.7501972
vt 0.034812443 0.7330479
vt 0.030830033 0.74995834
vt 0.04466117 0.77604103
vt 0.032034334 0.7789644
vt 0.049379356 0.8037181
vt 0.059074968 0.7997073
vt 0.06626335 0.7997324
vt 0.060350537 0.8027001
vt 0.060350537 0.8027001
vt 0.05110979 0.80636144
vt 0.04937941 0.8037181
vt 0.060350537 0.8027001
vt 0.05110979 0.80636144
vt 0.059074998 0.7997073
vt 0.044661164 0.77604103
vt 0.032034338 0.7789644
vt 0.030830026 0.74995834
vt 0.04498887 0.7501972
vt 0.03481245 0.7330479
vt 0.050214887 0.7334067
vt 0.055416167 0.7740567
vt 0.05644238 0.7504669
vt 0.06384039 0.7384802
vt 0.06457925 0.7950162
vt 0.06626338 0.7997324
vt 0.060350537 0.8027001
vt 0.061973155 0.7731807
vt 0.06241685 0.75183284
vt 0.07045889 0.75061417
vt 0.0782491 0.73455626
vt 0.070139945 0.7749285
vt 0.08245283 0.7509688
vt 0.09351355 0.7360034
vt 0.09556168 0.75122184
vt 0.08163196 0.7762439
vt 0.093773395 0.778434
vt 0.08400947 0.79612124
vt 0.07097435 0.7936435
vt 0.06626338 0.7997324
vt 0.07084805 0.7988975
vt 0.07084805 0.7988975
vt 0.08271138 0.8006684
vt 0.066927105 0.8044877
vt 0.08271138 0.8006684
vt 0.07084803 0.7988975
vt 0.06626335 0.7997324
vt 0.08271138 0.8006684
vt 0.066927105 0.8044877
vt 0.06626338 0.7997324
vt 0.07084805 0.7988975
vt 0.066927105 0.8044877
vt 0.06626335 0.7997324
vt 0.060350537 0.8027001
vt 0.05110979 0.80636144
vt 0.06626338 0.7997324
vt 0.066927105 0.8044877
vt 0.05110979 0.80636144
vt 0.060350537 0.8027001
vn 5.9059057E-06 -0.99916315 -0.040900987
vn -0.42673063 -0.80138236 0.4191505
vn -7.1146505E-06 -0.9802224 0.19789875
vn -0.5062215 -0.8483809 0.15488563
vn -0.07874695 -0.83478713 -0.54491216
vn 1.2787972E-05 -0.79856807 -0.60190445
vn 4.0413897E-06 -0.34102997 -0.9400524
vn -0.0861041 -0.37905568 -0.9213593
vn 2.931667E-06 0.4630545 -0.88632977
vn -0.066392854 0.46453753 -0.883061
vn -0.64187634 -0.699459 -0.314248
vn -0.65880466 -0.24928483 -0.7098123
vn -0.41644537 0.44062266 -0.7952515
vn -0.7891 -0.31632182 0.5265565
vn -0.6532828 -0.38710192 0.65067166
vn -0.42673063 -0.80138236 0.4191505
vn -0.9747697 -0.112658 0.1926971
vn -0.9393981 0.16890787 -0.29833105
vn -0.65354913 0.7505102 -0.098020606
vn -0.066392854 0.46453753 -0.883061
vn -0.6579898 0.5222097 0.5425371
vn -0.120965846 0.9906685 -0.06279614
vn 2.931667E-06 0.4630545 -0.88632977
vn -0 0.9945786 -0.103988186
vn -0.12155347 0.79329485 0.5965803
vn -2.033998E-07 0.82713425 0.5620042
vn -8.943336E-07 0.37232995 0.92810047
vn -0.46899223 0.16972733 0.86674035
vn -0.6532828 -0.38710192 0.65067166
vn -0.353792 -0.083428025 0.931596
vn -0.353792 -0.083428025 0.931596
vn 5.263277E-07 0.116473906 0.9931938
vn -8.943336E-07 0.37232995 0.92810047
vn 0.35363254 -0.083352335 0.9316632
vn 5.263277E-07 0.116473906 0.9931938
vn 0.46888307 0.1698112 0.8667831
vn 0.12155315 0.7932938 0.5965817
vn -2.033998E-07 0.82713425 0.5620042
vn -0 0.9945786 -0.103988186
vn 0.12096662 0.99066836 -0.062795326
vn 2.931667E-06 0.4630545 -0.88632977
vn 0.06638227 0.46454158 -0.8830598
vn 0.657917 0.52229935 0.542539
vn 0.6534965 0.7505563 -0.09801801
vn 0.416413 0.44064888 -0.7952539
vn 0.789046 -0.31608844 0.5267777
vn 0.65301555 -0.38694856 0.6510311
vn 0.35363254 -0.083352335 0.9316632
vn 0.97479916 -0.11237517 0.192713
vn 0.9393639 0.16908734 -0.2983368
vn 0.6588068 -0.24914481 -0.7098594
vn 0.06638227 0.46454158 -0.8830598
vn 0.6419864 -0.69932956 -0.31431106
vn 0.08608476 -0.37903076 -0.92137134
vn 2.931667E-06 0.4630545 -0.88632977
vn 4.0413897E-06 -0.34102997 -0.9400524
vn 0.07876867 -0.8347715 -0.5449331
vn 1.2787972E-05 -0.79856807 -0.60190445
vn 5.9059057E-06 -0.99916315 -0.040900987
vn 0.50641376 -0.8482445 0.15500456
vn 0.65301555 -0.38694856 0.6510311
vn 0.42650622 -0.8013632 0.41941538
vn 0.42650622 -0.8013632 0.41941538
vn -7.1146505E-06 -0.9802224 0.19789875
vn -0.04531394 -0.7993448 0.5991615
vn -0.045313943 -0.7993448 0.5991615
vn -0.045313943 -0.7993448 0.59916157
vn -0.045313943 -0.79934484 0.5991615
vn 0.04531391 -0.79932934 0.59918207
vn 0.04531391 -0.79932934 0.59918207
vn 0.04531391 -0.79932934 0.59918207
vn 0.045313913 -0.79932934 0.59918207
vn -0.06358287 -0.44329852 0.8941161
vn -0.06358286 -0.44329852 0.8941161
vn -0.06358287 -0.44329852 0.8941161
vn -0.06358287 -0.44329855 0.8941161
vn 0.06358364 -0.4432827 0.8941239
vn 0.063583635 -0.4432826 0.8941239
vn 0.06358364 -0.44328266 0.8941239
vn 0.06358364 -0.4432826 0.8941239
g NPC_Cat_Size01_Ear_001_LOD3_0
f 3/3/3 2/2/2 1/1/1
f 2/2/2 4/4/4 1/1/1
f 5/5/5 1/1/1 4/4/4
f 6/6/6 1/1/1 5/5/5
f 7/7/7 6/6/6 5/5/5
f 8/8/8 7/7/7 5/5/5
f 7/7/7 8/8/8 9/9/9
f 8/8/8 10/10/10 9/9/9
f 5/5/5 11/11/11 8/8/8
f 11/11/11 5/5/5 4/4/4
f 8/8/8 12/12/12 10/10/10
f 11/11/11 12/12/12 8/8/8
f 12/12/12 13/13/13 10/10/10
f 11/11/11 4/4/4 14/14/14
f 15/15/15 14/14/14 4/4/4
f 16/16/16 15/15/15 4/4/4
f 11/11/11 17/17/17 12/12/12
f 17/17/17 11/11/11 14/14/14
f 12/12/12 18/18/18 13/13/13
f 17/17/17 18/18/18 12/12/12
f 18/18/18 19/19/19 13/13/13
f 18/18/18 17/17/17 19/19/19
f 20/20/20 13/13/13 19/19/19
f 17/17/17 14/14/14 21/21/21
f 17/17/17 21/21/21 19/19/19
f 22/22/22 20/20/20 19/19/19
f 19/19/19 21/21/21 22/22/22
f 23/23/23 20/20/20 22/22/22
f 24/24/24 23/23/23 22/22/22
f 22/22/22 25/25/25 24/24/24
f 21/21/21 25/25/25 22/22/22
f 25/25/25 26/26/26 24/24/24
f 27/27/27 26/26/26 25/25/25
f 14/14/14 28/28/28 21/21/21
f 21/21/21 28/28/28 25/25/25
f 28/28/28 27/27/27 25/25/25
f 14/14/14 29/29/29 28/28/28
f 29/29/29 30/30/30 28/28/28
f 28/28/28 31/31/31 27/27/27
f 31/31/31 32/32/32 27/27/27
f 35/35/35 34/34/34 33/33/33
f 34/34/34 36/36/36 33/33/33
f 37/37/37 33/33/33 36/36/36
f 38/38/38 33/33/33 37/37/37
f 39/39/39 38/38/38 37/37/37
f 40/40/40 39/39/39 37/37/37
f 39/39/39 40/40/40 41/41/41
f 40/40/40 42/42/42 41/41/41
f 37/37/37 43/43/43 40/40/40
f 43/43/43 37/37/37 36/36/36
f 40/40/40 44/44/44 42/42/42
f 43/43/43 44/44/44 40/40/40
f 44/44/44 45/45/45 42/42/42
f 43/43/43 36/36/36 46/46/46
f 47/47/47 46/46/46 36/36/36
f 48/48/48 47/47/47 36/36/36
f 43/43/43 49/49/49 44/44/44
f 49/49/49 43/43/43 46/46/46
f 44/44/44 50/50/50 45/45/45
f 49/49/49 50/50/50 44/44/44
f 50/50/50 51/51/51 45/45/45
f 50/50/50 49/49/49 51/51/51
f 52/52/52 45/45/45 51/51/51
f 53/53/53 49/49/49 46/46/46
f 49/49/49 53/53/53 51/51/51
f 54/54/54 52/52/52 51/51/51
f 51/51/51 53/53/53 54/54/54
f 55/55/55 52/52/52 54/54/54
f 56/56/56 55/55/55 54/54/54
f 56/56/56 54/54/54 57/57/57
f 53/53/53 57/57/57 54/54/54
f 58/58/58 56/56/56 57/57/57
f 59/59/59 58/58/58 57/57/57
f 60/60/60 53/53/53 46/46/46
f 57/57/57 53/53/53 60/60/60
f 59/59/59 57/57/57 60/60/60
f 46/46/46 61/61/61 60/60/60
f 61/61/61 62/62/62 60/60/60
f 60/60/60 63/63/63 59/59/59
f 63/63/63 64/64/64 59/59/59
f 67/67/67 66/66/66 65/65/65
f 68/68/68 67/67/67 65/65/65
f 71/71/71 70/70/70 69/69/69
f 72/72/72 71/71/71 69/69/69
f 75/75/75 74/74/74 73/73/73
f 76/76/76 75/75/75 73/73/73
f 79/79/79 78/78/78 77/77/77
f 80/80/80 79/79/79 77/77/77
