g Bangboo_Eous001_Weapon_04_LOD0
v -0.71379614 0.026019 0.12461005
v -0.70843583 0.026365342 0.12454581
v -0.71379614 0.026017873 0.17759113
v -0.5509881 0.0145154325 0.17759064
v -0.5509881 -0.008230139 0.1775906
v -0.5525869 -0.014225875 0.1775906
v -0.5525869 0.02051117 0.17759064
v -0.556962 0.024886288 0.17759067
v -0.556962 -0.018600993 0.17759064
v -0.56295776 0.026485164 0.17759067
v -0.56295776 -0.020199869 0.17759064
v -0.71379614 0.026017873 0.17759113
v -0.71379614 -0.019732596 0.17759109
v -0.7197918 0.024886278 0.17759113
v -0.7197918 -0.018601004 0.17759109
v -0.72416687 0.020511162 0.17759116
v -0.72416687 -0.014225885 0.17759113
v -0.7257659 0.014515085 0.17759109
v -0.7257659 -0.008229811 0.17759106
v -0.55258745 -0.01422567 0.0021787349
v -0.5509886 -0.008229933 0.0021787365
v -0.5509886 0.014515639 0.0021787595
v -0.55258745 0.02051138 0.0021787703
v -0.55696255 -0.018600786 0.0021787435
v -0.55696255 0.024886498 0.0021787875
v -0.5629583 -0.02019966 0.0021787593
v -0.5629583 0.02648537 0.0021788068
v -0.7084107 -0.020207219 0.0021791775
v -0.7084107 0.02649291 0.002179225
v -0.71526474 -0.024183035 0.002179184
v -0.71526474 0.030468725 0.002179249
v -0.72299415 0.029637467 0.0021792708
v -0.72299415 -0.02335178 0.0021792075
v -0.7311433 -0.017416354 0.0021792375
v -0.7311433 0.023702042 0.0021792792
v -0.73360187 -0.0072550075 0.0021792552
v -0.73360187 0.0135406945 0.0021792762
v -0.5629583 -0.02019966 0.0021787593
v -0.7084107 -0.020207219 0.0021791775
v -0.70843583 -0.02007994 0.12454576
v -0.56295776 -0.020199869 0.17759064
v -0.556962 -0.018600993 0.17759064
v -0.55696255 -0.018600786 0.0021787435
v -0.5525869 -0.014225875 0.1775906
v -0.55258745 -0.01422567 0.0021787349
v -0.5509881 -0.008230139 0.1775906
v -0.5509886 -0.008229933 0.0021787365
v -0.5509886 0.014515639 0.0021787595
v -0.5509881 0.0145154325 0.17759064
v -0.55258745 0.02051138 0.0021787703
v -0.5525869 0.02051117 0.17759064
v -0.55696255 0.024886498 0.0021787875
v -0.556962 0.024886288 0.17759067
v -0.5629583 0.02648537 0.0021788068
v -0.56295776 0.026485164 0.17759067
v -0.71379614 -0.019733598 0.12461
v -0.70843583 -0.02007994 0.12454576
v -0.7152825 -0.024080439 0.12453556
v -0.7229511 -0.023259772 0.12452699
v -0.71979237 -0.018601622 0.12461002
v -0.72416764 -0.014226153 0.12461004
v -0.73105824 -0.017366221 0.124526754
v -0.73349774 -0.0072453837 0.12452678
v -0.7257666 -0.008229777 0.12460997
v -0.73349774 0.013530783 0.124526806
v -0.7257666 0.0145151755 0.12460999
v -0.72416764 0.020511555 0.12461007
v -0.73105824 0.023651619 0.124526806
v -0.7229511 0.029545173 0.12452705
v -0.71979237 0.024887022 0.12461007
v -0.71379614 0.026019 0.12461005
v -0.7152825 0.030365838 0.12453561
v -0.70843583 0.026365342 0.12454581
v -0.7084107 -0.020207219 0.0021791775
v -0.7152825 -0.024080439 0.12453556
v -0.70843583 -0.02007994 0.12454576
v -0.71526474 -0.024183035 0.002179184
v -0.7229511 -0.023259772 0.12452699
v -0.72299415 -0.02335178 0.0021792075
v -0.73105824 -0.017366221 0.124526754
v -0.7311433 -0.017416354 0.0021792375
v -0.73349774 -0.0072453837 0.12452678
v -0.73360187 -0.0072550075 0.0021792552
v -0.73360187 0.0135406945 0.0021792762
v -0.73349774 0.013530783 0.124526806
v -0.7311433 0.023702042 0.0021792792
v -0.73105824 0.023651619 0.124526806
v -0.72299415 0.029637467 0.0021792708
v -0.7229511 0.029545173 0.12452705
v -0.71526474 0.030468725 0.002179249
v -0.7152825 0.030365838 0.12453561
v -0.7084107 0.02649291 0.002179225
v -0.70843583 0.026365342 0.12454581
v -0.71979237 0.024887022 0.12461007
v -0.71379614 0.026019 0.12461005
v -0.71379614 0.026017873 0.17759113
v -0.7197918 0.024886278 0.17759113
v -0.72416764 0.020511555 0.12461007
v -0.72416687 0.020511162 0.17759116
v -0.7257666 0.0145151755 0.12460999
v -0.7257659 0.014515085 0.17759109
v -0.7257666 -0.008229777 0.12460997
v -0.7257659 -0.008229811 0.17759106
v -0.72416687 -0.014225885 0.17759113
v -0.72416764 -0.014226153 0.12461004
v -0.7197918 -0.018601004 0.17759109
v -0.71979237 -0.018601622 0.12461002
v -0.71379614 -0.019732596 0.17759109
v -0.71379614 -0.019733598 0.12461
v -0.56295776 -0.020199869 0.17759064
v -0.71379614 0.026017873 0.17759113
v -0.70843583 0.026365342 0.12454581
v -0.56295776 0.026485164 0.17759067
v -0.5629583 0.02648537 0.0021788068
v -0.7084107 0.02649291 0.002179225
v -0.57025725 -0.0206764 0.16341381
v -0.5702573 -0.020676365 0.1339692
v -0.5725322 -0.024932176 0.13445857
v -0.57359624 -0.020676361 0.12914431
v -0.5752098 -0.024932174 0.13123977
v -0.5791429 -0.024932172 0.12998316
v -0.5791429 -0.02067636 0.12755638
v -0.5846894 -0.020676361 0.12914434
v -0.58307576 -0.024932174 0.13123979
v -0.5880285 -0.020676367 0.13396925
v -0.57914287 -0.024932176 0.13396922
v -0.5726601 -0.02493221 0.1615951
v -0.5791428 -0.02493221 0.16326354
v -0.5791428 -0.020676404 0.16570076
v -0.58575344 -0.024932176 0.1344586
v -0.58562535 -0.02493221 0.16159515
v -0.58802843 -0.020676402 0.16341385
vt 0.033746634 0.8587048
vt 0.03747083 0.85876924
vt 0.033753086 0.82196903
vt 0.08196038 0.79911745
vt 0.09856656 0.7991152
vt 0.10294373 0.7979471
vt 0.07758281 0.7979503
vt 0.07438816 0.7947567
vt 0.10613768 0.7947526
vt 0.073220134 0.79037946
vt 0.10730454 0.79037505
vt 0.07354665 0.68025696
vt 0.10694906 0.68025255
vt 0.074372485 0.6758796
vt 0.10612202 0.6758753
vt 0.07756622 0.67268497
vt 0.10292734 0.6726817
vt 0.08194375 0.67151654
vt 0.098549485 0.67151445
vt 0.033287246 0.8000072
vt 0.03766477 0.8011744
vt 0.05427093 0.8011741
vt 0.05864846 0.8000064
vt 0.030092772 0.7968131
vt 0.061842687 0.79681206
vt 0.028925095 0.79243547
vt 0.063010074 0.79243433
vt 0.02891643 0.6862457
vt 0.06301245 0.68624467
vt 0.026013944 0.68124163
vt 0.065914504 0.6812403
vt 0.06530734 0.6755973
vt 0.026620869 0.6755986
vt 0.030954171 0.669649
vt 0.060973637 0.6696482
vt 0.03837263 0.6678536
vt 0.05355508 0.6678532
vt 0.014812935 0.52115214
vt 0.015080962 0.65193546
vt 0.12509523 0.6517621
vt 0.17265114 0.52087754
vt 0.17265102 0.5153024
vt 0.014798384 0.5155729
vt 0.17264406 0.5097432
vt 0.014786955 0.51000977
vt 0.17263046 0.5041678
vt 0.014778595 0.5044304
vt 0.014747094 0.48397645
vt 0.17257729 0.4837269
vt 0.014739495 0.47839573
vt 0.17256463 0.4781483
vt 0.014734987 0.47283062
vt 0.17254484 0.47258458
vt 0.01473381 0.4672489
vt 0.17251715 0.46700308
vt 0.3320456 0.625897
vt 0.33218038 0.62999076
vt 0.33539486 0.62486964
vt 0.33495563 0.61900556
vt 0.3313285 0.62129974
vt 0.32810044 0.617859
vt 0.33066136 0.6126838
vt 0.32300776 0.61057824
vt 0.3235696 0.6164944
vt 0.30717444 0.610072
vt 0.30623588 0.6159402
vt 0.3016271 0.6170126
vt 0.29940203 0.61168444
vt 0.29471272 0.61771894
vt 0.29818588 0.62024015
vt 0.2971766 0.6247822
vt 0.29389983 0.62354314
vt 0.2967806 0.628859
vt 0.3437966 0.51602894
vt 0.33711872 0.6048118
vt 0.3428765 0.6048808
vt 0.33804315 0.51596737
vt 0.33151868 0.6047486
vt 0.33239838 0.51590997
vt 0.32424086 0.6046775
vt 0.32507795 0.5158387
vt 0.31668144 0.60460806
vt 0.3174867 0.51576895
vt 0.3023865 0.5156333
vt 0.30159542 0.6044725
vt 0.29479522 0.5155666
vt 0.29403597 0.6044061
vt 0.28747472 0.5155064
vt 0.28675804 0.60434645
vt 0.2818298 0.51546234
vt 0.2811578 0.60430896
vt 0.27607617 0.5154205
vt 0.27539968 0.6042746
vt 0.12520723 0.7048408
vt 0.12521362 0.71033
vt 0.17286973 0.71027386
vt 0.17286327 0.70478505
vt 0.12520084 0.6992746
vt 0.17285663 0.6992192
vt 0.12519452 0.6936922
vt 0.17284988 0.69363713
vt 0.1251725 0.6732319
vt 0.17282453 0.67317694
vt 0.17281726 0.6675947
vt 0.12516706 0.6676494
vt 0.1728098 0.66202897
vt 0.12516175 0.6620832
vt 0.17280212 0.6565404
vt 0.12515694 0.65659404
vt 0.17265114 0.52087754
vt 0.033753086 0.82196903
vt 0.03747083 0.85876924
vt 0.1383416 0.821988
vt 0.13834257 0.9436149
vt 0.037488934 0.94361556
vt 0.25898325 0.592606
vt 0.25929758 0.49390864
vt 0.24419151 0.4981556
vt 0.2444752 0.4761443
vt 0.23540509 0.48866314
vt 0.22316793 0.48556253
vt 0.22288653 0.46987587
vt 0.2015373 0.47691447
vt 0.21105061 0.48909998
vt 0.18736096 0.49519908
vt 0.22337928 0.4973495
vt 0.24488972 0.5834888
vt 0.22502567 0.58912414
vt 0.22531824 0.60542756
vt 0.20260978 0.49890155
vt 0.20497282 0.584205
vt 0.19121501 0.59382194
vn -0.12512037 0.9921416 0
vn -0.021361994 0.99977 0.0019073209
vn -0.096892245 0.99529135 0.0026702592
vn -0 0 1
vn -0 0 1
vn -0 0 1
vn -0 0 1
vn -0 0 1
vn -0 0 1
vn -0 0 1
vn -0 0 1
vn -0 0 1
vn -0 0 1
vn -0 0 1
vn -0 0 1
vn -0 0 1
vn -0 0 1
vn -0 0 1
vn -0 0 1
vn -0 0 -1
vn -0 0 -1
vn -0 0 -1
vn -0 0 -1
vn -0 0 -1
vn -0 0 -1
vn -0 0 -1
vn -0 0 -1
vn -0 0 -1
vn -0 0 -1
vn -0 0 -1
vn -0 0 -1
vn -0 0 -1
vn -0 0 -1
vn -0 0 -1
vn -0 0 -1
vn -0 0 -1
vn -0 0 -1
vn 0.12969898 -0.99155337 0.00023245679
vn -0 -0.9999995 0.0010401015
vn -0.021361994 -0.99977 0.0019073209
vn 0.12931775 -0.99160296 0.00076293666
vn 0.499376 -0.86638546 0
vn 0.499376 -0.86638546 -2.9804241E-06
vn 0.8663257 -0.49947956 0
vn 0.8663257 -0.49947956 -2.9802595E-06
vn 0.9915215 -0.12994286 0
vn 0.9915223 -0.12993702 -2.9804805E-06
vn 0.9915223 0.12993702 -2.9804805E-06
vn 0.9915223 0.12993702 0
vn 0.8663205 0.4994885 -1.4901208E-06
vn 0.8663205 0.4994885 0
vn 0.49938112 0.86638236 0
vn 0.49938112 0.86638236 0
vn 0.12969898 0.99155337 0.00023543701
vn 0.12931775 0.99160296 0.00076293666
vn 0.0045775594 -0.018667858 0.9998153
vn 0.010681053 -0.020766063 0.9997273
vn 0.0007629526 -0.01733333 0.99984944
vn -0.006103356 -0.012659695 0.9999013
vn -0.0053404123 -0.01332719 0.9998969
vn -0.009918218 -0.006735328 0.9999281
vn -0.009918263 -0.0060439412 0.9999325
vn -0.01068131 -0.0011444261 0.9999423
vn -0.010681303 -0.0015795456 0.9999417
vn -0.01068131 0.0011444261 0.9999423
vn -0.010681303 0.001585506 0.9999417
vn -0.009918218 0.0067472495 0.9999281
vn -0.009918263 0.006032021 0.99993265
vn -0.006103356 0.012659695 0.9999013
vn -0.0053404123 0.01332719 0.9998969
vn 0.0045775594 0.018667858 0.9998153
vn 0.0007629526 0.01733333 0.99984944
vn 0.010681053 0.020766063 0.9997273
vn 0.5028622 -0.86436605 0.0009001825
vn 0.20903726 -0.9779073 0.0008582735
vn 0.5028622 -0.86436605 0.00085845223
vn 0.20829782 -0.9780651 0.0008956258
vn -0.35937196 -0.93319404 0.00085837254
vn -0.35939598 -0.9331848 0.00081670063
vn -0.8313874 -0.5556924 0.0009534259
vn -0.8313985 -0.555676 0.00084468705
vn -0.9929941 -0.11815996 0.0008580018
vn -0.99299425 -0.11815997 0.0008356581
vn -0.99299496 0.1181541 0.0008356588
vn -0.9929934 0.11816584 0.00085800124
vn -0.83139306 0.5556842 0.0008461712
vn -0.831393 0.5556842 0.0008580891
vn -0.35939598 0.9331848 0.00081968127
vn -0.35937995 0.9331909 0.00085839164
vn 0.20829782 0.9780651 0.000897116
vn 0.20903726 0.9779073 0.0008582735
vn 0.5028622 0.86436605 0.0009016729
vn 0.5028622 0.86436605 0.00085845223
vn -0.46695077 0.88428324 0
vn -0.12512037 0.9921416 0
vn -0.096892245 0.99529135 0.0026702592
vn -0.46695077 0.88428324 0
vn -0.866426 0.49930564 0
vn -0.866426 0.49930564 0
vn -0.99152714 0.12989958 0
vn -0.99152714 0.12989958 0
vn -0.9915279 -0.12989374 0
vn -0.9915279 -0.12989374 0
vn -0.8664208 -0.49931458 0
vn -0.8664208 -0.49931458 0
vn -0.46695572 -0.88428074 0
vn -0.46695572 -0.88428074 0
vn -0.09689109 -0.99529135 0.0026702266
vn -0.12512037 -0.9921416 0
vn 0.12931775 -0.99160296 0.00076293666
vn -0.096892245 0.99529135 0.0026702592
vn -0.021361994 0.99977 0.0019073209
vn 0.12931775 0.99160296 0.00076293666
vn 0.12969898 0.99155337 0.00023543701
vn -0 0.9999995 0.0010430817
vn 0.649697 -0.57249063 0.50014836
vn 0.8242651 -0.5007668 -0.264234
vn 0.54288596 -0.81869245 -0.1871297
vn 0.49819535 -0.5048234 -0.7049503
vn 0.31738117 -0.8298115 -0.45900103
vn -0 -0.82610524 -0.56351584
vn -0 -0.5070045 -0.86194336
vn -0.49818936 -0.50484115 -0.70494175
vn -0.31738117 -0.8298115 -0.45900103
vn -0.82425535 -0.50078464 -0.26423085
vn -0 -1 0
vn 0.4623747 -0.8100856 0.3605149
vn -0 -0.8305581 0.55693203
vn -0 -0.49694747 0.8677806
vn -0.54287535 -0.8187003 -0.18712604
vn -0.4623747 -0.8100856 0.3605149
vn -0.64957297 -0.5723813 0.50043434
g Bangboo_Eous001_Weapon_04_LOD0_0
f 3/3/3 2/2/2 1/1/1
f 6/6/6 5/5/5 4/4/4
f 7/7/7 6/6/6 4/4/4
f 6/6/6 7/7/7 8/8/8
f 9/9/9 6/6/6 8/8/8
f 9/9/9 8/8/8 10/10/10
f 11/11/11 9/9/9 10/10/10
f 11/11/11 10/10/10 12/12/12
f 13/13/13 11/11/11 12/12/12
f 13/13/13 12/12/12 14/14/14
f 15/15/15 13/13/13 14/14/14
f 15/15/15 14/14/14 16/16/16
f 17/17/17 15/15/15 16/16/16
f 17/17/17 16/16/16 18/18/18
f 19/19/19 17/17/17 18/18/18
f 22/22/22 21/21/21 20/20/20
f 23/23/23 22/22/22 20/20/20
f 23/23/23 20/20/20 24/24/24
f 25/25/25 23/23/23 24/24/24
f 25/25/25 24/24/24 26/26/26
f 27/27/27 25/25/25 26/26/26
f 27/27/27 26/26/26 28/28/28
f 29/29/29 27/27/27 28/28/28
f 28/28/28 30/30/30 29/29/29
f 30/30/30 31/31/31 29/29/29
f 31/31/31 30/30/30 32/32/32
f 30/30/30 33/33/33 32/32/32
f 32/32/32 33/33/33 34/34/34
f 35/35/35 32/32/32 34/34/34
f 35/35/35 34/34/34 36/36/36
f 37/37/37 35/35/35 36/36/36
f 40/40/40 39/39/39 38/38/38
f 41/41/41 40/40/40 38/38/38
f 41/41/41 38/38/38 42/42/42
f 38/38/38 43/43/43 42/42/42
f 42/42/42 43/43/43 44/44/44
f 43/43/43 45/45/45 44/44/44
f 44/44/44 45/45/45 46/46/46
f 45/45/45 47/47/47 46/46/46
f 46/46/46 47/47/47 48/48/48
f 49/49/49 46/46/46 48/48/48
f 49/49/49 48/48/48 50/50/50
f 51/51/51 49/49/49 50/50/50
f 51/51/51 50/50/50 52/52/52
f 53/53/53 51/51/51 52/52/52
f 53/53/53 52/52/52 54/54/54
f 55/55/55 53/53/53 54/54/54
f 58/58/58 57/57/57 56/56/56
f 58/58/58 56/56/56 59/59/59
f 56/56/56 60/60/60 59/59/59
f 59/59/59 60/60/60 61/61/61
f 62/62/62 59/59/59 61/61/61
f 62/62/62 61/61/61 63/63/63
f 61/61/61 64/64/64 63/63/63
f 65/65/65 63/63/63 64/64/64
f 66/66/66 65/65/65 64/64/64
f 66/66/66 67/67/67 65/65/65
f 67/67/67 68/68/68 65/65/65
f 69/69/69 68/68/68 67/67/67
f 70/70/70 69/69/69 67/67/67
f 70/70/70 71/71/71 69/69/69
f 71/71/71 72/72/72 69/69/69
f 73/73/73 72/72/72 71/71/71
f 76/76/76 75/75/75 74/74/74
f 75/75/75 77/77/77 74/74/74
f 75/75/75 78/78/78 77/77/77
f 78/78/78 79/79/79 77/77/77
f 78/78/78 80/80/80 79/79/79
f 80/80/80 81/81/81 79/79/79
f 80/80/80 82/82/82 81/81/81
f 82/82/82 83/83/83 81/81/81
f 84/84/84 83/83/83 82/82/82
f 85/85/85 84/84/84 82/82/82
f 84/84/84 85/85/85 86/86/86
f 85/85/85 87/87/87 86/86/86
f 86/86/86 87/87/87 88/88/88
f 87/87/87 89/89/89 88/88/88
f 88/88/88 89/89/89 90/90/90
f 89/89/89 91/91/91 90/90/90
f 90/90/90 91/91/91 92/92/92
f 91/91/91 93/93/93 92/92/92
f 96/96/96 95/95/95 94/94/94
f 97/97/97 96/96/96 94/94/94
f 97/97/97 94/94/94 98/98/98
f 99/99/99 97/97/97 98/98/98
f 99/99/99 98/98/98 100/100/100
f 101/101/101 99/99/99 100/100/100
f 101/101/101 100/100/100 102/102/102
f 103/103/103 101/101/101 102/102/102
f 104/104/104 103/103/103 102/102/102
f 105/105/105 104/104/104 102/102/102
f 106/106/106 104/104/104 105/105/105
f 107/107/107 106/106/106 105/105/105
f 108/108/108 106/106/106 107/107/107
f 109/109/109 108/108/108 107/107/107
f 108/108/108 109/109/109 40/40/40
f 110/110/110 108/108/108 40/40/40
f 113/113/113 112/112/112 111/111/111
f 112/112/112 113/113/113 114/114/114
f 115/115/115 112/112/112 114/114/114
f 118/118/118 117/117/117 116/116/116
f 117/117/117 118/118/118 119/119/119
f 118/118/118 120/120/120 119/119/119
f 119/119/119 120/120/120 121/121/121
f 121/121/121 120/120/120 118/118/118
f 122/122/122 119/119/119 121/121/121
f 122/122/122 121/121/121 123/123/123
f 121/121/121 124/124/124 123/123/123
f 123/123/123 124/124/124 125/125/125
f 126/126/126 121/121/121 118/118/118
f 124/124/124 121/121/121 126/126/126
f 127/127/127 118/118/118 116/116/116
f 126/126/126 118/118/118 127/127/127
f 128/128/128 127/127/127 116/116/116
f 128/128/128 126/126/126 127/127/127
f 129/129/129 128/128/128 116/116/116
f 130/130/130 124/124/124 126/126/126
f 124/124/124 130/130/130 125/125/125
f 130/130/130 126/126/126 128/128/128
f 131/131/131 128/128/128 129/129/129
f 131/131/131 130/130/130 128/128/128
f 125/125/125 130/130/130 131/131/131
f 132/132/132 131/131/131 129/129/129
f 132/132/132 125/125/125 131/131/131
