g SeparateMesh_Monster_Durahan_Model_Monster_Durahan_Head_LOD1
v 0.43946183 0.25768948 2.8399184
v 0.40069434 0.23458491 2.8339276
v 0.46726835 0.010161936 2.8137126
v 0.5124761 0.01155369 2.8189647
v 0.2485333 0.4300172 2.8545892
v 0.40069434 0.23458491 2.8339276
v 0.22660905 0.39171124 2.8480809
v 0.5124761 0.01155369 2.8189647
v 0.40069434 -0.26704407 2.7887437
v 0.43946183 -0.29247206 2.7930827
v 3.0517577E-07 0.5029185 2.8607945
v 3.0517577E-07 0.45818046 2.8540685
v 0.2485333 0.4300172 2.8545892
v 0.40069434 -0.26704407 2.7887437
v 0.22660981 -0.4241703 2.774591
v 0.2485343 -0.46480057 2.7784119
v 0.2485343 -0.46480057 2.7784119
v 3.0517577E-07 -0.49064055 2.7686036
v 3.0517577E-07 -0.53770155 2.7722063
v 0.22660905 0.38938713 2.8584108
v 0.2485333 0.4300172 2.8545892
v 0.43946183 0.25768948 2.8399184
v 0.40069434 0.23226093 2.844257
v 3.0517577E-07 0.45585757 2.8643975
v 3.0517577E-07 0.5029185 2.8607945
v 0.2485333 0.4300172 2.8545892
v 0.40069434 0.23226093 2.844257
v 0.5124761 0.01155369 2.8189647
v 0.46726835 0.007838191 2.824042
v 0.5124761 0.01155369 2.8189647
v 0.43946183 -0.29247206 2.7930827
v 0.40069434 -0.2693676 2.7990735
v 0.40069434 -0.2693676 2.7990735
v 0.2485343 -0.46480057 2.7784119
v 0.22660981 -0.42649427 2.78492
v 3.0517577E-07 -0.49296352 2.7789323
v 0.2485343 -0.46480057 2.7784119
v 3.0517577E-07 -0.53770155 2.7722063
v 0.22660981 -0.4241703 2.774591
v 3.0517577E-07 -0.49296352 2.7789323
v 3.0517577E-07 -0.49064055 2.7686036
v 0.22660981 -0.42649427 2.78492
v 0.40069434 -0.2693676 2.7990735
v 0.40069434 -0.26704407 2.7887437
v 0.46726835 0.007838191 2.824042
v 0.46726835 0.010161936 2.8137126
v 0.40069434 0.23226093 2.844257
v 0.40069434 0.23458491 2.8339276
v 0.22660905 0.38938713 2.8584108
v 0.22660905 0.39171124 2.8480809
v 3.0517577E-07 0.45818046 2.8540685
v 3.0517577E-07 0.45585757 2.8643975
v -0.4394612 0.25768948 2.8399184
v -0.51247543 0.01155369 2.8189647
v -0.46726775 0.010161936 2.8137126
v -0.40069374 0.23458491 2.8339276
v -0.2485327 0.4300172 2.8545892
v -0.40069374 0.23458491 2.8339276
v -0.22660844 0.39171126 2.8480809
v -0.51247543 0.01155369 2.8189647
v -0.42906177 -0.22206855 2.7927954
v -0.4705737 -0.24314454 2.7972825
v 3.0517577E-07 0.5029185 2.8607945
v -0.2485327 0.4300172 2.8545892
v 3.0517577E-07 0.45818046 2.8540685
v -0.26920894 -0.44420406 2.7801654
v -0.24546045 -0.40539053 2.7762823
v -0.42906177 -0.22206855 2.7927954
v -0.26920894 -0.44420406 2.7801654
v 3.0517577E-07 -0.49064055 2.7686036
v 3.0517577E-07 -0.53770155 2.7722063
v -0.22660844 0.3893872 2.8584108
v -0.40069374 0.23226093 2.844257
v -0.4394612 0.25768948 2.8399184
v -0.2485327 0.4300172 2.8545892
v -0.2485327 0.4300172 2.8545892
v 3.0517577E-07 0.5029185 2.8607945
v 3.0517577E-07 0.45585757 2.8643975
v -0.40069374 0.23226093 2.844257
v -0.51247543 0.01155369 2.8189647
v -0.46726775 0.007838191 2.824042
v -0.42906177 -0.22439156 2.8031247
v -0.4705737 -0.24314454 2.7972825
v -0.51247543 0.01155369 2.8189647
v -0.42906177 -0.22439156 2.8031247
v -0.26920894 -0.44420406 2.7801654
v -0.24546045 -0.40771452 2.7866116
v 3.0517577E-07 -0.49296352 2.7789323
v -0.26920894 -0.44420406 2.7801654
v 3.0517577E-07 -0.53770155 2.7722063
v -0.24546045 -0.40539053 2.7762823
v 3.0517577E-07 -0.49064055 2.7686036
v 3.0517577E-07 -0.49296352 2.7789323
v -0.24546045 -0.40771452 2.7866116
v -0.42906177 -0.22439156 2.8031247
v -0.42906177 -0.22206855 2.7927954
v -0.46726775 0.007838191 2.824042
v -0.46726775 0.010161936 2.8137126
v -0.40069374 0.23226093 2.844257
v -0.40069374 0.23458491 2.8339276
v -0.22660844 0.3893872 2.8584108
v -0.22660844 0.39171126 2.8480809
v 3.0517577E-07 0.45818046 2.8540685
v 3.0517577E-07 0.45585757 2.8643975
v 0.001999154 -0.050366726 2.7313921
v 0.0015979006 -0.015364832 2.7541137
v 0.04388932 -0.01536483 2.7403727
v -0.040693514 -0.01536483 2.7403727
v 0.046501987 -0.05037068 2.6821637
v 0.07002685 -0.015364821 2.6821632
v 0.04388932 -0.015364811 2.6239543
v -0.043841183 -0.050362777 2.6821637
v -0.06683104 -0.015364821 2.6821632
v -0.040693495 -0.015364811 2.6239543
v 0.0019991624 -0.050366726 2.6329348
v 0.0015979203 -0.015364809 2.610213
v 0.0015979032 -0.07836049 2.6821637
v 0.037523065 0.014809408 2.6795
v 0.07002685 -0.015364821 2.6821632
v 0.04388932 -0.01536483 2.7403727
v 0.04388932 -0.015364811 2.6239543
v 0.0012683874 0.015846057 2.7303026
v 0.0015979006 -0.015364832 2.7541137
v -0.040693514 -0.01536483 2.7403727
v 0.0014356977 0.011711645 2.627171
v 0.0015979203 -0.015364809 2.610213
v -0.034000266 0.014815502 2.6795
v -0.06683104 -0.015364821 2.6821632
v -0.040693495 -0.015364811 2.6239543
v 0.001273475 0.0387881 2.6791682
vt 0.16123378 0.89054084
vt 0.1639502 0.89054084
vt 0.1639502 0.88454133
vt 0.16123378 0.88454133
vt 0.16123378 0.8965356
vt 0.1639502 0.89054084
vt 0.1639502 0.8965356
vt 0.16123378 0.88454133
vt 0.1639502 0.8772001
vt 0.16123378 0.8772001
vt 0.16123378 0.9025303
vt 0.1639502 0.9025303
vt 0.16123378 0.8965356
vt 0.1639502 0.8772001
vt 0.1639502 0.8712006
vt 0.16123378 0.8712006
vt 0.16123378 0.8712006
vt 0.1639502 0.8651345
vt 0.16123378 0.8651345
vt 0.16607618 0.8965356
vt 0.16969812 0.8965356
vt 0.16969812 0.89054084
vt 0.16607618 0.89054084
vt 0.16607618 0.9025303
vt 0.16969812 0.9025303
vt 0.16969812 0.8965356
vt 0.16607618 0.89054084
vt 0.16969812 0.88454133
vt 0.16607618 0.88454133
vt 0.16969812 0.88454133
vt 0.16969812 0.8772001
vt 0.16607618 0.8772001
vt 0.16607618 0.8772001
vt 0.16969812 0.8712006
vt 0.16607618 0.8712006
vt 0.16607618 0.8651345
vt 0.16969812 0.8712006
vt 0.16969812 0.8651345
vt 0.1639502 0.8712006
vt 0.16607618 0.8651345
vt 0.1639502 0.8651345
vt 0.16607618 0.8712006
vt 0.16607618 0.8772001
vt 0.1639502 0.8772001
vt 0.16607618 0.88454133
vt 0.1639502 0.88454133
vt 0.16607618 0.89054084
vt 0.1639502 0.89054084
vt 0.16607618 0.8965356
vt 0.1639502 0.8965356
vt 0.1639502 0.9025303
vt 0.16607618 0.9025303
vt 0.16123378 0.89054084
vt 0.16123378 0.88454133
vt 0.1639502 0.88454133
vt 0.1639502 0.89054084
vt 0.16123378 0.8965356
vt 0.1639502 0.89054084
vt 0.1639502 0.8965356
vt 0.16123378 0.88454133
vt 0.1639502 0.8785323
vt 0.16123378 0.8785323
vt 0.16123378 0.9025303
vt 0.16123378 0.8965356
vt 0.1639502 0.9025303
vt 0.16123378 0.8718667
vt 0.1639502 0.8718667
vt 0.1639502 0.8785323
vt 0.16123378 0.8718667
vt 0.1639502 0.8651345
vt 0.16123378 0.8651345
vt 0.16607618 0.8965356
vt 0.16607618 0.89054084
vt 0.16969812 0.89054084
vt 0.16969812 0.8965356
vt 0.16969812 0.8965356
vt 0.16969812 0.9025303
vt 0.16607618 0.9025303
vt 0.16607618 0.89054084
vt 0.16969812 0.88454133
vt 0.16607618 0.88454133
vt 0.16607618 0.8785323
vt 0.16969812 0.8785323
vt 0.16969812 0.88454133
vt 0.16607618 0.8785323
vt 0.16969812 0.8718667
vt 0.16607618 0.8718667
vt 0.16607618 0.8651345
vt 0.16969812 0.8718667
vt 0.16969812 0.8651345
vt 0.1639502 0.8718667
vt 0.1639502 0.8651345
vt 0.16607618 0.8651345
vt 0.16607618 0.8718667
vt 0.16607618 0.8785323
vt 0.1639502 0.8785323
vt 0.16607618 0.88454133
vt 0.1639502 0.88454133
vt 0.16607618 0.89054084
vt 0.1639502 0.89054084
vt 0.16607618 0.8965356
vt 0.1639502 0.8965356
vt 0.1639502 0.9025303
vt 0.16607618 0.9025303
vt 0.16510406 0.90365356
vt 0.16503377 0.90773565
vt 0.17114016 0.90315425
vt 0.15892738 0.90315425
vt 0.17289746 0.88374674
vt 0.17491412 0.88374686
vt 0.17114016 0.86433935
vt 0.15707645 0.8837468
vt 0.15515347 0.88374686
vt 0.15892738 0.86433935
vt 0.16510406 0.86384004
vt 0.16503377 0.85975784
vt 0.16503379 0.8837468
vt 0.17175925 0.8796619
vt 0.17491412 0.88374686
vt 0.17114016 0.90315425
vt 0.17114016 0.86433935
vt 0.16496351 0.90365356
vt 0.16503377 0.90773565
vt 0.15892738 0.90315425
vt 0.16501036 0.8651167
vt 0.16503377 0.85975784
vt 0.15836689 0.87966186
vt 0.15515347 0.88374686
vt 0.15892738 0.86433935
vt 0.16498694 0.87047565
vn 0.076913595 0.13120861 -0.98836666
vn 0.07647285 0.13152252 -0.9883591
vn 0.11397692 0.08548286 -0.989799
vn 0.1136902 0.08604885 -0.98978287
vn 0.03706333 0.14969115 -0.98803794
vn 0.07647285 0.13152252 -0.9883591
vn 0.03697387 0.14970477 -0.9880392
vn 0.1136902 0.08604885 -0.98978287
vn 0.11662196 0.014796098 -0.9930661
vn 0.11600224 0.012769807 -0.99316686
vn -0 0.15239704 -0.9883193
vn -0 0.15239704 -0.9883193
vn 0.03706333 0.14969115 -0.98803794
vn 0.11662196 0.014796098 -0.9930661
vn 0.07541721 -0.050057393 -0.9958948
vn 0.07500438 -0.050384745 -0.99590945
vn 0.07500438 -0.050384745 -0.99590945
vn -0.004788241 -0.0721855 -0.9973797
vn -0.0031532054 -0.07220229 -0.99738497
vn 0.07542054 0.05006484 0.9958942
vn 0.075007625 0.05039225 0.99590886
vn 0.11573812 -0.010181715 0.99322766
vn 0.11591195 -0.010724969 0.9932017
vn -0 0.07271296 0.99735296
vn -0 0.07271296 0.99735296
vn 0.075007625 0.05039225 0.99590886
vn 0.11591195 -0.010724969 0.9932017
vn 0.11670752 -0.07907953 0.990013
vn 0.11600949 -0.08094817 0.9899441
vn 0.11670752 -0.07907953 0.990013
vn 0.0794103 -0.12947555 0.98839766
vn 0.079767585 -0.12922153 0.9884022
vn 0.079767585 -0.12922153 0.9884022
vn 0.037061796 -0.14968942 0.9880382
vn 0.036972348 -0.1497031 0.98803955
vn -0.0022400592 -0.152926 0.9882351
vn 0.037061796 -0.14968942 0.9880382
vn -0.0015486564 -0.15290923 0.98823905
vn -0.4942218 0.8481404 0.1907952
vn 0.02374343 0.975346 0.2193998
vn 0.024987387 0.97531646 0.21939312
vn -0.47835687 0.8567549 0.19273235
vn -0.8475684 0.51774645 0.1164751
vn -0.86943877 0.48199454 0.108431764
vn -0.99998903 -0.0045736614 -0.001031762
vn -0.9988373 -0.04703245 -0.010583517
vn -0.8549861 -0.5060027 -0.1138418
vn -0.8344357 -0.5376657 -0.12096576
vn -0.49422014 -0.84814054 -0.190798
vn -0.47835645 -0.8567547 -0.19273429
vn -0 -0.9756227 -0.21945481
vn -0 -0.9756227 -0.21945481
vn -0.07691362 0.13120864 -0.98836666
vn -0.11261056 0.090414695 -0.98951703
vn -0.11222469 0.091113456 -0.9894968
vn -0.07647288 0.13152255 -0.9883591
vn -0.037063368 0.14969122 -0.98803794
vn -0.07647288 0.13152255 -0.9883591
vn -0.0369739 0.14970486 -0.9880392
vn -0.11261056 0.090414695 -0.98951703
vn -0.11711431 0.022044903 -0.9928738
vn -0.11726378 0.022763845 -0.9928398
vn -0 0.15239704 -0.9883193
vn -0.037063368 0.14969122 -0.98803794
vn -0 0.15239704 -0.9883193
vn -0.081494145 -0.046542753 -0.9955865
vn -0.08170751 -0.046339594 -0.99557847
vn -0.11711431 0.022044903 -0.9928738
vn -0.081494145 -0.046542753 -0.9955865
vn -0.004788241 -0.0721855 -0.9973797
vn -0.0031532054 -0.07220229 -0.99738497
vn -0.075420536 0.050064877 0.9958942
vn -0.11591195 -0.010724963 0.9932017
vn -0.11573812 -0.010181706 0.99322766
vn -0.07500765 0.05039227 0.99590886
vn -0.07500765 0.05039227 0.99590886
vn -0 0.07271296 0.99735296
vn -0 0.07271296 0.99735296
vn -0.11591195 -0.010724963 0.9932017
vn -0.11735361 -0.076200105 0.9901625
vn -0.11722122 -0.07654079 0.9901518
vn -0.08331349 -0.12628475 0.98848933
vn -0.084523164 -0.1251276 0.9885337
vn -0.11735361 -0.076200105 0.9901625
vn -0.08331349 -0.12628475 0.98848933
vn -0.042306032 -0.15045144 0.98771185
vn -0.042043556 -0.15049247 0.98771673
vn -0.0022400592 -0.152926 0.9882351
vn -0.042306032 -0.15045144 0.98771185
vn -0.0015486564 -0.15290923 0.98823905
vn 0.5373868 0.8227767 0.1850784
vn 0.024987387 0.97531646 0.21939312
vn 0.02374343 0.975346 0.2193998
vn 0.5205715 0.8330033 0.18737882
vn 0.8779308 0.46711552 0.10507362
vn 0.8989063 0.42746004 0.09615324
vn 0.99902487 -0.043073587 -0.009694339
vn 0.9966628 -0.079637624 -0.017919764
vn 0.85498625 -0.5060027 -0.11384121
vn 0.8344357 -0.5376657 -0.12096507
vn 0.49422005 -0.8481411 -0.19079673
vn 0.4783567 -0.8567548 -0.1927329
vn -0 -0.9756227 -0.21945481
vn -0 -0.9756227 -0.21945481
vn 0.0053271707 -0.7697403 0.63833493
vn -0.00016329472 0.034266666 0.99941266
vn 0.6871968 0.056711804 0.72425437
vn -0.68672955 0.05497358 0.7248314
vn 0.6744213 -0.7383467 1.4379069E-06
vn 0.9949944 0.09978639 0.0053727347
vn 0.6975277 0.047796186 -0.7149619
vn -0.67504096 -0.7377803 1.3462561E-06
vn -0.99430484 0.10644245 0.005290153
vn -0.6971503 0.04700811 -0.71538216
vn 0.0053272154 -0.7697423 -0.6383324
vn -0.0008909441 0.15061411 -0.9885923
vn 0.00032842922 -1 1.1318983E-06
vn 0.596028 0.8017625 -0.043902438
vn 0.9949944 0.09978639 0.0053727347
vn 0.6871968 0.056711804 0.72425437
vn 0.6975277 0.047796186 -0.7149619
vn -0.0042505525 0.8325218 0.5539759
vn -0.00016329472 0.034266666 0.99941266
vn -0.68672955 0.05497358 0.7248314
vn -0.0021816704 0.82707554 -0.5620864
vn -0.0008909441 0.15061411 -0.9885923
vn -0.59902257 0.79948145 -0.044737082
vn -0.99430484 0.10644245 0.005290153
vn -0.6971503 0.04700811 -0.71538216
vn -0.0058440613 0.9996118 -0.027242796
g SeparateMesh_Monster_Durahan_Model_Monster_Durahan_Head_LOD1_0
f 3/3/3 2/2/2 1/1/1
f 4/4/4 3/3/3 1/1/1
f 1/1/1 6/6/6 5/5/5
f 6/6/6 7/7/7 5/5/5
f 9/9/9 3/3/3 8/8/8
f 10/10/10 9/9/9 8/8/8
f 7/7/7 12/12/12 11/11/11
f 13/13/13 7/7/7 11/11/11
f 15/15/15 14/14/14 10/10/10
f 16/16/16 15/15/15 10/10/10
f 18/18/18 15/15/15 17/17/17
f 19/19/19 18/18/18 17/17/17
f 22/22/22 21/21/21 20/20/20
f 23/23/23 22/22/22 20/20/20
f 25/25/25 24/24/24 20/20/20
f 26/26/26 25/25/25 20/20/20
f 28/28/28 22/22/22 27/27/27
f 29/29/29 28/28/28 27/27/27
f 31/31/31 30/30/30 29/29/29
f 32/32/32 31/31/31 29/29/29
f 34/34/34 31/31/31 33/33/33
f 35/35/35 34/34/34 33/33/33
f 37/37/37 35/35/35 36/36/36
f 38/38/38 37/37/37 36/36/36
f 41/41/41 40/40/40 39/39/39
f 40/40/40 42/42/42 39/39/39
f 39/39/39 42/42/42 43/43/43
f 44/44/44 39/39/39 43/43/43
f 44/44/44 43/43/43 45/45/45
f 46/46/46 44/44/44 45/45/45
f 46/46/46 45/45/45 47/47/47
f 48/48/48 46/46/46 47/47/47
f 48/48/48 47/47/47 49/49/49
f 50/50/50 48/48/48 49/49/49
f 50/50/50 49/49/49 51/51/51
f 49/49/49 52/52/52 51/51/51
f 55/55/55 54/54/54 53/53/53
f 56/56/56 55/55/55 53/53/53
f 58/58/58 53/53/53 57/57/57
f 59/59/59 58/58/58 57/57/57
f 55/55/55 61/61/61 60/60/60
f 61/61/61 62/62/62 60/60/60
f 59/59/59 64/64/64 63/63/63
f 65/65/65 59/59/59 63/63/63
f 67/67/67 66/66/66 62/62/62
f 68/68/68 67/67/67 62/62/62
f 67/67/67 70/70/70 69/69/69
f 70/70/70 71/71/71 69/69/69
f 74/74/74 73/73/73 72/72/72
f 75/75/75 74/74/74 72/72/72
f 77/77/77 76/76/76 72/72/72
f 78/78/78 77/77/77 72/72/72
f 74/74/74 80/80/80 79/79/79
f 80/80/80 81/81/81 79/79/79
f 83/83/83 82/82/82 81/81/81
f 84/84/84 83/83/83 81/81/81
f 83/83/83 86/86/86 85/85/85
f 86/86/86 87/87/87 85/85/85
f 87/87/87 89/89/89 88/88/88
f 89/89/89 90/90/90 88/88/88
f 93/93/93 92/92/92 91/91/91
f 94/94/94 93/93/93 91/91/91
f 95/95/95 94/94/94 91/91/91
f 96/96/96 95/95/95 91/91/91
f 95/95/95 96/96/96 97/97/97
f 96/96/96 98/98/98 97/97/97
f 97/97/97 98/98/98 99/99/99
f 98/98/98 100/100/100 99/99/99
f 99/99/99 100/100/100 101/101/101
f 100/100/100 102/102/102 101/101/101
f 101/101/101 102/102/102 103/103/103
f 104/104/104 101/101/101 103/103/103
f 107/107/107 106/106/106 105/105/105
f 105/105/105 106/106/106 108/108/108
f 105/105/105 109/109/109 107/107/107
f 109/109/109 110/110/110 107/107/107
f 109/109/109 111/111/111 110/110/110
f 112/112/112 105/105/105 108/108/108
f 108/108/108 113/113/113 112/112/112
f 113/113/113 114/114/114 112/112/112
f 109/109/109 115/115/115 111/111/111
f 115/115/115 112/112/112 114/114/114
f 116/116/116 111/111/111 115/115/115
f 115/115/115 114/114/114 116/116/116
f 109/109/109 105/105/105 117/117/117
f 105/105/105 112/112/112 117/117/117
f 112/112/112 115/115/115 117/117/117
f 115/115/115 109/109/109 117/117/117
f 120/120/120 119/119/119 118/118/118
f 119/119/119 121/121/121 118/118/118
f 118/118/118 122/122/122 120/120/120
f 122/122/122 123/123/123 120/120/120
f 124/124/124 123/123/123 122/122/122
f 118/118/118 121/121/121 125/125/125
f 121/121/121 126/126/126 125/125/125
f 122/122/122 127/127/127 124/124/124
f 127/127/127 125/125/125 126/126/126
f 127/127/127 128/128/128 124/124/124
f 129/129/129 127/127/127 126/126/126
f 127/127/127 129/129/129 128/128/128
f 122/122/122 118/118/118 130/130/130
f 130/130/130 118/118/118 125/125/125
f 125/125/125 127/127/127 130/130/130
f 127/127/127 122/122/122 130/130/130
