g SeparateMesh_Avatar_Female_Size01_QingYi_Model_QingYi_Body_Kettle_LOD2
v 0.06645331 0.09681661 0.8591969
v 0.0733194 0.09681665 0.8591969
v 0.0733194 0.11022493 0.8726052
v 0.06645331 0.11022493 0.87260526
v 0.0733194 0.105317146 0.89092135
v 0.06645331 0.105317146 0.89092135
v 0.0733194 0.08700113 0.8958291
v 0.06645331 0.08700109 0.8958291
v 0.0733194 0.07359278 0.8824208
v 0.06645331 0.07359278 0.8824208
v 0.0733194 0.07850056 0.86410475
v 0.06645331 0.07850056 0.86410475
v 0.0733194 0.09681665 0.8591969
v 0.06645331 0.09681661 0.8591969
v 0.0733194 0.105317146 0.89092135
v 0.0733194 0.11022493 0.8726052
v 0.0733194 0.09681665 0.8591969
v 0.0733194 0.08700113 0.8958291
v 0.0733194 0.07359278 0.8824208
v 0.0733194 0.07850056 0.86410475
v 0.012053632 0.07879073 0.92646694
v -0.036167864 0.07879078 0.92646736
v -0.036167864 0.12774824 0.91334933
v 0.012053634 0.12774824 0.9133489
v 0.012053632 0.04295137 0.8906278
v -0.03616785 0.04295137 0.89062804
v 0.012053632 0.056069512 0.84167004
v -0.036167864 0.056069497 0.8416706
v 0.012053632 0.105027005 0.82855207
v -0.036167864 0.10502696 0.8285525
v 0.012053632 0.14086637 0.8643914
v -0.036167864 0.14086637 0.8643917
v -0.036167864 0.10502696 0.8285525
v 0.012053632 0.105027005 0.82855207
v 0.03121076 0.13351066 0.86636245
v 0.03121076 0.1223635 0.9079642
v 0.03121076 0.10305602 0.8359076
v 0.03121076 0.061454248 0.8470549
v 0.03121076 0.10305602 0.8359076
v 0.03121076 0.05030711 0.88865674
v 0.03121076 0.0807617 0.91911113
v 0.0410816 0.11314433 0.89874876
v 0.0410816 0.12091708 0.8697401
v 0.0410816 0.08413611 0.90652144
v 0.0410816 0.11314433 0.89874876
v -0.05532499 0.13351065 0.8663627
v -0.05532499 0.10305602 0.8359082
v -0.05532499 0.1223635 0.9079646
v -0.05532499 0.08076168 0.9191118
v -0.055325 0.050307076 0.888657
v -0.05532499 0.061454266 0.84705526
v -0.05532499 0.10305602 0.8359082
v -0.06645326 0.11022493 0.8726052
v -0.06645326 0.09681665 0.8591969
v -0.06645326 0.105317146 0.89092135
v -0.066453256 0.08700113 0.8958291
v -0.06645327 0.07359278 0.8824208
v -0.06645326 0.07850056 0.86410475
v -0.06645326 0.09681665 0.8591969
v 0.06645331 0.11022493 0.87260526
v 0.0513076 0.1190138 0.8702502
v 0.0513076 0.09917159 0.850408
v 0.06645331 0.09681661 0.8591969
v 0.06645331 0.105317146 0.89092135
v 0.0513076 0.11175104 0.8973553
v 0.06645331 0.08700109 0.8958291
v 0.051307604 0.08464609 0.904618
v 0.06645331 0.07359278 0.8824208
v 0.051307604 0.06480392 0.8847759
v 0.06645331 0.07850056 0.86410475
v 0.0513076 0.072066665 0.85767066
v 0.06645331 0.09681661 0.8591969
v 0.0513076 0.09917159 0.850408
v 0.0410816 0.12091708 0.8697401
v 0.0410816 0.099681556 0.8485046
v 0.0410816 0.11314433 0.89874876
v 0.0410816 0.08413611 0.90652144
v 0.0410816 0.062900625 0.8852859
v 0.0410816 0.07067334 0.8562772
v 0.0410816 0.099681556 0.8485046
v 0.0410816 0.12091708 0.8697401
v 0.0410816 0.099681556 0.8485046
v 0.0410816 0.062900625 0.8852859
v 0.0410816 0.08413611 0.90652144
v 0.0410816 0.07067334 0.8562772
v 0.0410816 0.062900625 0.8852859
v 0.0410816 0.099681556 0.8485046
v 0.0410816 0.07067334 0.8562772
v -0.06645326 0.09681665 0.8591969
v -0.06645326 0.11022493 0.8726052
v -0.07331936 0.11022493 0.8726052
v -0.07331936 0.09681665 0.8591969
v -0.06645326 0.105317146 0.89092135
v -0.07331936 0.105317146 0.89092135
v -0.06645326 0.105317146 0.89092135
v -0.066453256 0.08700113 0.8958291
v -0.07331936 0.08700113 0.8958291
v -0.07331936 0.105317146 0.89092135
v -0.06645327 0.07359278 0.8824208
v -0.07331936 0.07359278 0.8824208
v -0.06645327 0.07359278 0.8824208
v -0.06645326 0.07850056 0.86410475
v -0.07331936 0.07850056 0.86410475
v -0.07331936 0.07359278 0.8824208
v -0.06645326 0.09681665 0.8591969
v -0.07331936 0.09681665 0.8591969
v -0.07331936 0.105317146 0.89092135
v -0.07331936 0.09681665 0.8591969
v -0.07331936 0.11022493 0.8726052
v -0.07331936 0.08700113 0.8958291
v -0.07331936 0.07359278 0.8824208
v -0.07331936 0.07850056 0.86410475
v -0.025295572 0.12914747 0.9120399
v -0.02456195 0.13818225 0.916144
v 0.0004122278 0.13818225 0.916144
v -0.0003531718 0.12914747 0.9120399
v 0.009523287 0.14624171 0.8763238
v -0.033673014 0.14624172 0.8763238
v -0.034517583 0.13987312 0.8746747
v 0.010367867 0.13987312 0.8746747
v -0.03186314 0.14378533 0.8996673
v 0.0077134185 0.14378533 0.8996673
v -0.046766 0.13238762 0.8985401
v 0.022703834 0.13238762 0.8985401
vt 0.54722565 0.010344318
vt 0.53632045 0.010344324
vt 0.53632057 0.04131731
vt 0.5472259 0.041317303
vt 0.53632057 0.07095693
vt 0.5472257 0.07095694
vt 0.5363207 0.10056695
vt 0.5472257 0.10056695
vt 0.53632057 0.13017969
vt 0.5472257 0.13017969
vt 0.53632057 0.15998425
vt 0.5472257 0.15998423
vt 0.53632045 0.18304923
vt 0.5472258 0.18304923
vt 0.64560896 0.058832884
vt 0.65417045 0.026760578
vt 0.63082045 0.0034205555
vt 0.61359787 0.067281365
vt 0.5902734 0.043832846
vt 0.59886026 0.011983781
vt 0.29472023 0.17378543
vt 0.34487206 0.17370357
vt 0.34494168 0.12430193
vt 0.29478943 0.1243822
vt 0.29466105 0.22342336
vt 0.34481254 0.22334194
vt 0.29468194 0.27553287
vt 0.34484577 0.2754545
vt 0.2948177 0.32105425
vt 0.3452022 0.32092667
vt 0.29482362 0.07408725
vt 0.34497565 0.07400725
vt 0.34489834 0.016311113
vt 0.29452237 0.016428765
vt 0.27468255 0.07511207
vt 0.2746411 0.12452627
vt 0.27430326 0.022161145
vt 0.27448925 0.2730448
vt 0.27459902 0.31385827
vt 0.27449784 0.22289349
vt 0.27456808 0.17367709
vt 0.2568346 0.1276775
vt 0.25699085 0.06696642
vt 0.25674883 0.17652173
vt 0.25686714 0.11486024
vt 0.36532024 0.07514354
vt 0.36534336 0.021987908
vt 0.36526716 0.124558
vt 0.36518952 0.17370434
vt 0.3651236 0.22291647
vt 0.3651406 0.273012
vt 0.36559558 0.31347013
vt 0.38968787 0.07549441
vt 0.3902147 0.032190528
vt 0.389523 0.12326223
vt 0.38941824 0.17194459
vt 0.38931176 0.22043706
vt 0.38910034 0.2670704
vt 0.38859013 0.29747784
vt 0.52879363 0.21775874
vt 0.49585474 0.21846348
vt 0.49596578 0.26506972
vt 0.5286034 0.26409164
vt 0.52878624 0.1725678
vt 0.49584955 0.17328542
vt 0.5287791 0.12741819
vt 0.4958475 0.12813193
vt 0.528781 0.08228847
vt 0.4958515 0.082990766
vt 0.52879643 0.037113268
vt 0.49584025 0.037685096
vt 0.5289581 0.002855667
vt 0.4957695 0.0031702993
vt 0.4792455 0.21772517
vt 0.47934467 0.26411065
vt 0.47925514 0.17254017
vt 0.47925958 0.12738465
vt 0.47925758 0.08224944
vt 0.47925764 0.037099425
vt 0.47922 0.0027835236
vt 0.25692666 0.079239085
vt 0.25744084 0.022991603
vt 0.2566403 0.22514424
vt 0.25679073 0.16382325
vt 0.25644252 0.27229792
vt 0.25675836 0.21371058
vt 0.25604233 0.30369022
vt 0.25673586 0.26680398
vt 0.55316573 0.010344278
vt 0.55316573 0.041317143
vt 0.5640708 0.041317143
vt 0.5640708 0.010344278
vt 0.55316573 0.07095678
vt 0.5640708 0.07095678
vt 0.55316573 0.07095678
vt 0.55316573 0.10056686
vt 0.5640708 0.10056686
vt 0.5640708 0.07095678
vt 0.55316573 0.13017908
vt 0.5640708 0.13017908
vt 0.55316573 0.13017908
vt 0.55316573 0.15998372
vt 0.5640708 0.15998372
vt 0.5640708 0.13017908
vt 0.55316573 0.18304886
vt 0.5640708 0.18304886
vt 0.5983474 0.12167204
vt 0.61200845 0.071326986
vt 0.5906446 0.092555776
vt 0.627414 0.12955895
vt 0.6487778 0.10833034
vt 0.6410749 0.07921413
vt 0.60373473 0.6188486
vt 0.6009505 0.60464734
vt 0.5573565 0.60464734
vt 0.55472195 0.6185287
vt 0.54232574 0.53862125
vt 0.61509264 0.53965706
vt 0.6246914 0.53007
vt 0.5379567 0.53215337
vt 0.6158153 0.5775045
vt 0.5424917 0.5775045
vt 0.64650905 0.58621633
vt 0.5114524 0.586605
vn 0.29210827 0.24752958 -0.9237975
vn -3.1717937E-06 0.25881988 -0.96592563
vn -2.8645372E-06 0.9659249 -0.25882232
vn 0.29210624 0.92379844 -0.24752857
vn 4.129876E-07 0.70710546 0.7071081
vn 0.29210868 0.6762659 0.676267
vn 7.2025E-07 -0.25881857 0.96592593
vn 0.29210985 -0.24753226 0.9237963
vn 1.1365538E-06 -0.96592563 0.2588196
vn 0.2921093 -0.92379713 0.24753001
vn 5.22021E-07 -0.70710766 -0.7071059
vn 0.2921092 -0.67626804 -0.67626464
vn -3.1717937E-06 0.25881988 -0.96592563
vn 0.29210827 0.24752958 -0.9237975
vn 1 0 0
vn 1 0 0
vn 1 0 0
vn 1 0 0
vn 1 0 0
vn 1 0 0
vn 0.17785579 -0.25469285 0.9505256
vn -0.17784686 -0.25469273 0.9505273
vn -0.1778479 0.6958328 0.6958354
vn 0.17785442 0.6958336 0.6958329
vn 0.17785317 -0.9505258 0.2546938
vn -0.1778501 -0.9505261 0.2546946
vn 0.17784756 -0.6958327 -0.6958355
vn -0.17785415 -0.6958343 -0.6958323
vn 0.17784643 0.25469342 -0.95052713
vn -0.17785531 0.25469202 -0.9505258
vn 0.17784977 0.9505261 -0.2546948
vn -0.17785268 0.9505261 -0.25469297
vn -0.17785531 0.25469202 -0.9505258
vn 0.17784643 0.25469342 -0.95052713
vn 0.5670506 0.79561406 -0.21319446
vn 0.56701016 0.5824569 0.582446
vn 0.56707793 0.21317641 -0.79559946
vn 0.56706804 -0.5824182 -0.5824284
vn 0.56707793 0.21317641 -0.79559946
vn 0.5670293 -0.7956339 0.21317692
vn 0.56699884 -0.2131979 0.79565006
vn 0.5872667 0.57230383 0.5723514
vn 0.58733344 0.7817768 -0.20943883
vn 0.58724594 -0.20947962 0.78183144
vn 0.5872667 0.57230383 0.5723514
vn -0.6329404 0.74781865 -0.20038353
vn -0.6329501 0.20037404 -0.74781305
vn -0.63292617 0.547453 0.5474484
vn -0.6329218 -0.20038408 0.7478343
vn -0.6329324 -0.7478282 0.20037341
vn -0.6329461 -0.5474358 -0.54744244
vn -0.6329501 0.20037404 -0.74781305
vn -0.9079375 0.4048317 -0.1084476
vn -0.9079518 0.10847098 -0.4047934
vn -0.90791804 0.2963684 0.29639605
vn -0.90791255 -0.10848005 0.40487877
vn -0.907927 -0.40483996 0.10850394
vn -0.9079465 -0.29635218 -0.29632485
vn -0.9079518 0.10847098 -0.4047934
vn 0.29210624 0.92379844 -0.24752857
vn 0.3402067 0.9083092 -0.24337961
vn 0.34021136 0.24338228 -0.90830684
vn 0.29210827 0.24752958 -0.9237975
vn 0.29210868 0.6762659 0.676267
vn 0.3402084 0.6649291 0.66492665
vn 0.29210985 -0.24753226 0.9237963
vn 0.34021083 -0.24338141 0.90830725
vn 0.2921093 -0.92379713 0.24753001
vn 0.34020796 -0.90830815 0.24338222
vn 0.2921092 -0.67626804 -0.67626464
vn 0.34021002 -0.6649281 -0.66492695
vn 0.29210827 0.24752958 -0.9237975
vn 0.34021136 0.24338228 -0.90830684
vn 0.58733344 0.7817768 -0.20943883
vn 0.5873828 0.20947523 -0.7817299
vn 0.5872667 0.57230383 0.5723514
vn 0.58724594 -0.20947962 0.78183144
vn 0.58729523 -0.7817826 0.20952362
vn 0.58736545 -0.57229644 -0.57225746
vn 0.5873828 0.20947523 -0.7817299
vn 0.58733344 0.7817768 -0.20943883
vn 0.5873828 0.20947523 -0.7817299
vn 0.58729523 -0.7817826 0.20952362
vn 0.58724594 -0.20947962 0.78183144
vn 0.58736545 -0.57229644 -0.57225746
vn 0.58729523 -0.7817826 0.20952362
vn 0.5873828 0.20947523 -0.7817299
vn 0.58736545 -0.57229644 -0.57225746
vn -0 0.70710677 -0.70710677
vn -0 0.9659257 -0.2588195
vn -0 0.9659257 -0.2588195
vn -0 0.70710677 -0.70710677
vn -0 0.96592605 0.25881806
vn -0 0.96592605 0.25881806
vn -0 0.2588153 0.9659268
vn -0 -0.25881952 0.9659257
vn -0 -0.25881967 0.96592563
vn -0 0.2588153 0.9659268
vn -0 -0.70710486 0.7071087
vn -0 -0.70710486 0.7071086
vn -0 -0.96592563 -0.25881985
vn -0 -0.70710737 -0.7071061
vn -0 -0.7071075 -0.70710605
vn -0 -0.96592563 -0.25881985
vn -0 -0.2588218 -0.96592504
vn -0 -0.2588218 -0.96592504
vn -1 0 0
vn -1 0 0
vn -1 0 0
vn -1 0 0
vn -1 0 0
vn -1 0 0
vn -0.30159754 -0.37392172 0.8770528
vn -0.26038417 0.3604937 0.895681
vn 0.27300823 0.34703523 0.89723647
vn 0.25814596 -0.41761416 0.8711826
vn 0.41913623 0.74730927 -0.5156099
vn -0.42000633 0.74704856 -0.5152797
vn -0.56648 0.2761794 -0.77641827
vn 0.56525314 0.2762435 -0.7772891
vn -0.33308396 0.90091664 0.27821606
vn 0.33177558 0.9014502 0.27805135
vn -0.71621776 0.61017877 0.33869466
vn 0.7194099 0.6043317 0.34239236
g SeparateMesh_Avatar_Female_Size01_QingYi_Model_QingYi_Body_Kettle_LOD2_0
f 3/3/3 2/2/2 1/1/1
f 4/4/4 3/3/3 1/1/1
f 5/5/5 3/3/3 4/4/4
f 6/6/6 5/5/5 4/4/4
f 7/7/7 5/5/5 6/6/6
f 8/8/8 7/7/7 6/6/6
f 9/9/9 7/7/7 8/8/8
f 10/10/10 9/9/9 8/8/8
f 11/11/11 9/9/9 10/10/10
f 12/12/12 11/11/11 10/10/10
f 13/13/13 11/11/11 12/12/12
f 14/14/14 13/13/13 12/12/12
f 17/17/17 16/16/16 15/15/15
f 17/17/17 15/15/15 18/18/18
f 17/17/17 18/18/18 19/19/19
f 17/17/17 19/19/19 20/20/20
f 23/23/23 22/22/22 21/21/21
f 24/24/24 23/23/23 21/21/21
f 22/22/22 26/26/26 25/25/25
f 21/21/21 22/22/22 25/25/25
f 26/26/26 28/28/28 27/27/27
f 25/25/25 26/26/26 27/27/27
f 28/28/28 30/30/30 29/29/29
f 27/27/27 28/28/28 29/29/29
f 33/33/33 32/32/32 31/31/31
f 34/34/34 33/33/33 31/31/31
f 32/32/32 23/23/23 24/24/24
f 31/31/31 32/32/32 24/24/24
f 35/35/35 31/31/31 24/24/24
f 36/36/36 35/35/35 24/24/24
f 37/37/37 34/34/34 31/31/31
f 35/35/35 37/37/37 31/31/31
f 38/38/38 27/27/27 29/29/29
f 39/39/39 38/38/38 29/29/29
f 40/40/40 25/25/25 27/27/27
f 38/38/38 40/40/40 27/27/27
f 41/41/41 21/21/21 25/25/25
f 40/40/40 41/41/41 25/25/25
f 36/36/36 24/24/24 21/21/21
f 41/41/41 36/36/36 21/21/21
f 35/35/35 36/36/36 42/42/42
f 43/43/43 35/35/35 42/42/42
f 36/36/36 41/41/41 44/44/44
f 45/45/45 36/36/36 44/44/44
f 46/46/46 32/32/32 33/33/33
f 47/47/47 46/46/46 33/33/33
f 48/48/48 23/23/23 32/32/32
f 46/46/46 48/48/48 32/32/32
f 49/49/49 22/22/22 23/23/23
f 48/48/48 49/49/49 23/23/23
f 50/50/50 26/26/26 22/22/22
f 49/49/49 50/50/50 22/22/22
f 51/51/51 28/28/28 26/26/26
f 50/50/50 51/51/51 26/26/26
f 52/52/52 30/30/30 28/28/28
f 51/51/51 52/52/52 28/28/28
f 53/53/53 46/46/46 47/47/47
f 54/54/54 53/53/53 47/47/47
f 55/55/55 48/48/48 46/46/46
f 53/53/53 55/55/55 46/46/46
f 56/56/56 49/49/49 48/48/48
f 55/55/55 56/56/56 48/48/48
f 57/57/57 50/50/50 49/49/49
f 56/56/56 57/57/57 49/49/49
f 58/58/58 51/51/51 50/50/50
f 57/57/57 58/58/58 50/50/50
f 59/59/59 52/52/52 51/51/51
f 58/58/58 59/59/59 51/51/51
f 62/62/62 61/61/61 60/60/60
f 63/63/63 62/62/62 60/60/60
f 61/61/61 65/65/65 64/64/64
f 60/60/60 61/61/61 64/64/64
f 65/65/65 67/67/67 66/66/66
f 64/64/64 65/65/65 66/66/66
f 67/67/67 69/69/69 68/68/68
f 66/66/66 67/67/67 68/68/68
f 69/69/69 71/71/71 70/70/70
f 68/68/68 69/69/69 70/70/70
f 71/71/71 73/73/73 72/72/72
f 70/70/70 71/71/71 72/72/72
f 75/75/75 74/74/74 61/61/61
f 62/62/62 75/75/75 61/61/61
f 74/74/74 76/76/76 65/65/65
f 61/61/61 74/74/74 65/65/65
f 76/76/76 77/77/77 67/67/67
f 65/65/65 76/76/76 67/67/67
f 77/77/77 78/78/78 69/69/69
f 67/67/67 77/77/77 69/69/69
f 78/78/78 79/79/79 71/71/71
f 69/69/69 78/78/78 71/71/71
f 79/79/79 80/80/80 73/73/73
f 71/71/71 79/79/79 73/73/73
f 37/37/37 35/35/35 81/81/81
f 82/82/82 37/37/37 81/81/81
f 41/41/41 40/40/40 83/83/83
f 84/84/84 41/41/41 83/83/83
f 40/40/40 38/38/38 85/85/85
f 86/86/86 40/40/40 85/85/85
f 38/38/38 39/39/39 87/87/87
f 88/88/88 38/38/38 87/87/87
f 91/91/91 90/90/90 89/89/89
f 92/92/92 91/91/91 89/89/89
f 94/94/94 93/93/93 90/90/90
f 91/91/91 94/94/94 90/90/90
f 97/97/97 96/96/96 95/95/95
f 98/98/98 97/97/97 95/95/95
f 100/100/100 99/99/99 96/96/96
f 97/97/97 100/100/100 96/96/96
f 103/103/103 102/102/102 101/101/101
f 104/104/104 103/103/103 101/101/101
f 106/106/106 105/105/105 102/102/102
f 103/103/103 106/106/106 102/102/102
f 109/109/109 108/108/108 107/107/107
f 107/107/107 108/108/108 110/110/110
f 110/110/110 108/108/108 111/111/111
f 111/111/111 108/108/108 112/112/112
f 115/115/115 114/114/114 113/113/113
f 116/116/116 115/115/115 113/113/113
f 119/119/119 118/118/118 117/117/117
f 120/120/120 119/119/119 117/117/117
f 117/117/117 118/118/118 121/121/121
f 122/122/122 117/117/117 121/121/121
f 123/123/123 118/118/118 119/119/119
f 117/117/117 124/124/124 120/120/120
f 115/115/115 116/116/116 124/124/124
f 121/121/121 114/114/114 115/115/115
f 122/122/122 121/121/121 115/115/115
f 114/114/114 123/123/123 113/113/113
f 121/121/121 118/118/118 123/123/123
f 122/122/122 124/124/124 117/117/117
f 122/122/122 115/115/115 124/124/124
f 121/121/121 123/123/123 114/114/114
