g NPC_Male_Size01_Bone_PackageC_005_LOD3
v -0.14672934 0.010718899 0.14943404
v -0.14091747 0.010951785 -0.072227016
v -0.14552975 0.016303597 -0.0154776
v -0.14799544 0.019006366 0.14118667
v -0.14552975 0.016303597 -0.0154776
v -0.14084257 -0.04825092 -0.07212891
v 0.14671522 -0.046224736 0.14956284
v 0.14084318 -0.04825092 -0.07212891
v -0.14671457 -0.04622473 0.14956284
v -0.14672934 0.010718899 0.14943404
v 0.14672995 0.010718841 0.14943404
v -0.14799544 0.019006366 0.14118667
v 0.14799604 0.019006405 0.1411866
v 0.14553039 0.016303597 -0.015557251
v -0.14552975 0.016303597 -0.0154776
v 0.14672995 0.010718841 0.14943404
v 0.14799604 0.019006405 0.1411866
v 0.14553039 0.016303597 -0.015557251
v 0.14091808 0.010951767 -0.072227016
v 0.14091808 0.010951767 -0.072227016
v -0.14091747 0.010951785 -0.072227016
v -0.14084257 -0.04825092 -0.07212891
v 0.14084318 -0.04825092 -0.07212891
v -0.14091747 0.010951785 -0.072227016
v -0.14671457 -0.04622473 0.14956284
v -0.14672934 0.010718899 0.14943404
v 0.14672995 0.010718841 0.14943404
v 0.14091808 0.010951767 -0.072227016
v 0.14671522 -0.046224736 0.14956284
v 0.14553039 0.016303597 -0.015557251
v -0.14552975 0.016303597 -0.0154776
v -0.14091747 0.010951785 -0.072227016
v 0.14091808 0.010951767 -0.072227016
vt 0.95000935 0.30819046
vt 0.64720494 0.30531752
vt 0.73552036 0.31582636
vt 0.9401689 0.32129282
vt 0.73552036 0.31582636
vt 0.016822375 0.094421625
vt 0.47827342 0.44743913
vt 0.4670192 0.09402084
vt 0.007219567 0.44783887
vt 0.0074137663 0.67698467
vt 0.4784677 0.6765853
vt 0.0074340748 0.7013239
vt 0.47848868 0.70092505
vt 0.47032064 0.9509128
vt 0.017043859 0.9513144
vt 0.6449554 0.25790453
vt 0.65561646 0.27099276
vt 0.8603612 0.26424694
vt 0.9482803 0.25286904
vt 0.62957644 0.7207844
vt 0.62957764 0.42126095
vt 0.49072835 0.42126077
vt 0.49072674 0.7207838
vt 0.62957764 0.42126095
vt 0.49282718 0.19017102
vt 0.62957644 0.18631102
vt 0.62957644 0.9557357
vt 0.62957644 0.7207844
vt 0.4928256 0.9518759
vt 0.4973051 0.11171727
vt 0.9787973 0.11193626
vt 0.9760546 0.014254261
vt 0.4987638 0.014254201
vn -0.9836097 -0.17982353 -0.013244591
vn -0.8657895 -0.4998693 -0.023225829
vn -0.86877096 -0.49467647 -0.023071663
vn -0.9864855 -0.16335543 -0.01270782
vn -0.86877096 -0.49467647 -0.023071663
vn -0 -0.9999583 0.009139295
vn -0 -0.6969775 0.71709305
vn -0 -0.9999583 0.009139296
vn -0 -0.6969774 0.7170932
vn -0 0.39522195 0.91858566
vn -0 0.39522156 0.9185858
vn -1.2876523E-06 0.93149644 0.36375052
vn -1.2876553E-06 0.93149674 0.36374962
vn -7.558117E-06 0.99851686 -0.054442935
vn -7.5564176E-06 0.9985176 -0.054430664
vn 0.9836099 -0.179823 -0.013238072
vn 0.9864871 -0.16334625 -0.012701271
vn 0.8686249 -0.49493286 -0.023068167
vn 0.8656406 -0.5001271 -0.023222286
vn 0.6974176 -0.0017313131 -0.7166629
vn -0.6974177 -0.001731542 -0.71666276
vn -0.695775 -0.0017329042 -0.7182577
vn 0.69577485 -0.0017326757 -0.7182578
vn -0.6974177 -0.001731542 -0.71666276
vn -0.99965274 -0.0008231858 -0.02634094
vn -0.99965274 -0.0008231858 -0.02634094
vn 0.99965274 -0.0008228577 -0.02634103
vn 0.6974176 -0.0017313131 -0.7166629
vn 0.99965274 -0.0008228577 -0.026341032
vn -7.558117E-06 0.99851686 -0.054442935
vn -7.5564176E-06 0.9985176 -0.054430664
vn -1.30296075E-05 0.9955765 -0.09395493
vn -1.3029609E-05 0.9955765 -0.09395495
g NPC_Male_Size01_Bone_PackageC_005_LOD3_0
f 3/3/3 2/2/2 1/1/1
f 5/5/5 1/1/1 4/4/4
f 8/8/8 7/7/7 6/6/6
f 7/7/7 9/9/9 6/6/6
f 9/9/9 7/7/7 10/10/10
f 7/7/7 11/11/11 10/10/10
f 12/12/12 10/10/10 11/11/11
f 13/13/13 12/12/12 11/11/11
f 13/13/13 14/14/14 12/12/12
f 14/14/14 15/15/15 12/12/12
f 18/18/18 17/17/17 16/16/16
f 18/18/18 16/16/16 19/19/19
f 22/22/22 21/21/21 20/20/20
f 23/23/23 22/22/22 20/20/20
f 22/22/22 25/25/25 24/24/24
f 25/25/25 26/26/26 24/24/24
f 23/23/23 28/28/28 27/27/27
f 29/29/29 23/23/23 27/27/27
f 32/32/32 31/31/31 30/30/30
f 33/33/33 32/32/32 30/30/30
