g NPC_Male_Size01_Bone_PackageC_006_LOD3
v -0.013040415 -0.009561976 0.16926321
v -0.036205888 -0.040114947 0.13776794
v -0.016531568 -0.04039637 0.14007643
v -0.022974636 -0.018175367 0.17609204
v -0.0005925399 0.0087599065 0.18463892
v -0.0007443001 -0.0054784683 0.1928077
v 0.017928919 -0.01734785 0.17469108
v 0.0122753875 -0.00774897 0.16920207
v 0.029773893 -0.040114947 0.13776794
v 0.010730165 -0.03978554 0.14007643
v 0.11454892 -0.048057966 -0.13816318
v 0.075528465 -0.049522303 -0.13820657
v 0.10606279 -0.07691393 -0.08676486
v 0.13378626 -0.06442666 -0.07679473
v 0.1560529 -0.150799 -0.011202707
v 0.16647874 -0.120520085 0.009774693
v 0.15807764 -0.17347315 0.09431769
v 0.13839677 -0.20447172 0.0878271
v 0.13883476 -0.19612852 0.1827589
v 0.10522457 -0.2133175 0.19072507
v 0.12259345 -0.12758592 0.24677399
v 0.084322155 -0.13029657 0.25765848
v 0.06730303 -0.059405845 0.22443435
v 0.1063423 -0.05978922 0.21354975
v 0.08764618 -0.040472675 0.11288729
v 0.047645263 -0.040870093 0.11305133
v 0.08639182 -0.042641606 0.087613635
v 0.047450114 -0.043244466 0.08733323
v -0.11454892 -0.048057966 -0.13816318
v -0.10521855 -0.078819655 -0.085256815
v -0.075528465 -0.049522303 -0.13820657
v -0.13201603 -0.06568777 -0.0744376
v -0.15698232 -0.14976989 -0.012696415
v -0.16698757 -0.118731536 0.007791869
v -0.1563827 -0.17347315 0.09431769
v -0.13670182 -0.20447172 0.0878271
v -0.13459806 -0.19287594 0.1827589
v -0.10098788 -0.21006495 0.19072507
v -0.122622356 -0.12719303 0.24468873
v -0.08491163 -0.13183807 0.25592953
v -0.060687803 -0.0479275 0.22081307
v -0.09999265 -0.048301566 0.21126734
v -0.08764618 -0.040472675 0.11288729
v -0.047645263 -0.040870093 0.11305133
v -0.08639182 -0.042641606 0.087613635
v -0.047450114 -0.043244466 0.08733323
v 2.3115573E-10 0.053420294 -0.19136554
v 2.2243318E-10 -0.024148174 -0.19183548
v 0.1226268 -0.024555368 -0.15152466
v 0.10934389 0.047883738 -0.15280336
v 0.13368092 -0.032340333 -0.015978869
v 2.2243318E-10 0.105714165 -0.14745583
v 0.115864605 0.043231092 -0.014346604
v 0.100639105 0.032467723 0.08314357
v 0.107779145 -0.034509156 0.10685355
v 2.2243318E-10 0.09694395 0.0021943427
v 2.2243318E-10 0.047784157 0.109722175
v 2.2243318E-10 -0.035742015 0.14199181
v -0.107778415 -0.034497373 0.10685006
v -0.100639105 0.032467723 0.08314357
v -0.13367973 -0.03232139 -0.015984392
v -0.11587117 0.04323445 -0.014384102
v -0.1096167 0.047237195 -0.1546859
v 2.2243318E-10 -0.024148174 -0.19183548
v -0.1226268 -0.024555368 -0.15152466
v 0.100645304 0.08514678 -0.06254056
v 0.10902538 0.07893909 -0.0634532
v 0.11139384 0.08542055 -0.08579176
v 0.10301377 0.09162825 -0.08487921
v 0.10272719 0.08781113 -0.06154692
v 0.100645304 0.08514678 -0.06254056
v 0.10301377 0.09162825 -0.08487921
v 0.105095655 0.09429258 -0.083885476
v 0.10272719 0.08781113 -0.06154692
v 0.11110726 0.08160341 -0.06245946
v 0.10902538 0.07893909 -0.0634532
v 0.100645304 0.08514678 -0.06254056
v 0.11110726 0.08160341 -0.06245946
v 0.11347572 0.0880849 -0.08479811
v 0.11139384 0.08542055 -0.08579176
v 0.10902538 0.07893909 -0.0634532
v 0.105095655 0.09429258 -0.083885476
v 0.10301377 0.09162825 -0.08487921
v 0.11139384 0.08542055 -0.08579176
v 0.11347572 0.0880849 -0.08479811
v 0.105095655 0.09429258 -0.083885476
v 0.11347572 0.0880849 -0.08479811
v 0.11110726 0.08160341 -0.06245946
v 0.10272719 0.08781113 -0.06154692
v -0.107778415 -0.034497373 0.10685006
v 2.2243318E-10 -0.045131702 -0.0719238
v -0.13367973 -0.03232139 -0.015984392
v 2.2243318E-10 -0.035742015 0.14199181
v -0.1226268 -0.024555368 -0.15152466
v 0.107779145 -0.034509156 0.10685355
v 2.2243318E-10 -0.024148174 -0.19183548
v 0.13368092 -0.032340333 -0.015978869
v 0.1226268 -0.024555368 -0.15152466
vt 0.23653713 0.866046
vt 0.197132 0.850467
vt 0.197132 0.866046
vt 0.23653713 0.850467
vt 0.26482898 0.866046
vt 0.26482898 0.850467
vt 0.2922634 0.850467
vt 0.2922634 0.866046
vt 0.331814 0.850467
vt 0.331814 0.866046
vt 0.914635 0.991066
vt 0.914635 0.966493
vt 0.86892813 0.966493
vt 0.86892813 0.991066
vt 0.7943443 0.96649265
vt 0.7943443 0.991066
vt 0.72225827 0.991066
vt 0.72225827 0.96649206
vt 0.6549382 0.991066
vt 0.6549382 0.966492
vt 0.59562445 0.99106574
vt 0.59562445 0.966492
vt 0.53422 0.966492
vt 0.53422 0.991065
vt 0.473635 0.991065
vt 0.473635 0.966492
vt 0.45706 0.991065
vt 0.45706 0.966492
vt 0.91454 0.957531
vt 0.86685896 0.932958
vt 0.91454 0.932958
vt 0.86685896 0.957531
vt 0.77797025 0.932958
vt 0.77797025 0.957531
vt 0.72216326 0.957531
vt 0.72216326 0.932958
vt 0.6548432 0.957531
vt 0.6548432 0.932958
vt 0.588259 0.957531
vt 0.588259 0.932958
vt 0.5156185 0.932958
vt 0.5156185 0.957531
vt 0.47354 0.957531
vt 0.47354 0.932958
vt 0.456965 0.957531
vt 0.456965 0.932958
vt 0.4633189 0.3981355
vt 0.41920602 0.3586833
vt 0.3410268 0.43649155
vt 0.3831848 0.4523235
vt 0.3264592 0.5500198
vt 0.46331987 0.46030754
vt 0.374437 0.5452752
vt 0.39195004 0.61043704
vt 0.37159792 0.6492268
vt 0.46332175 0.5522275
vt 0.4633212 0.62486356
vt 0.46332043 0.67966735
vt 0.555045 0.6492286
vt 0.53469455 0.6104379
vt 0.6001876 0.5500203
vt 0.5522168 0.54525065
vt 0.54375565 0.45110494
vt 0.5074284 0.35867542
vt 0.5856204 0.43648356
vt 0.6224995 0.524018
vt 0.6224995 0.5356235
vt 0.64883095 0.5356225
vt 0.64883095 0.524018
vt 0.78878117 0.45337072
vt 0.78878117 0.45715958
vt 0.8147391 0.45715958
vt 0.8147391 0.45337072
vt 0.797132 0.469477
vt 0.808588 0.469477
vt 0.808588 0.46562
vt 0.797132 0.465621
vt 0.672493 0.45785215
vt 0.698077 0.45785215
vt 0.698077 0.453724
vt 0.672493 0.453724
vt 0.678275 0.465965
vt 0.678275 0.469821
vt 0.68973 0.469822
vt 0.68973 0.465965
vt 0.64092135 0.55731845
vt 0.64092135 0.5461288
vt 0.61486363 0.5461288
vt 0.61486363 0.55731845
vt 0.5080267 0.8204479
vt 0.42247418 0.768836
vt 0.44950333 0.83428204
vt 0.5251951 0.7688321
vt 0.3843064 0.82909334
vt 0.5080364 0.71720266
vt 0.36385638 0.76883596
vt 0.44947734 0.7034023
vt 0.38425896 0.70863014
vn -0.56912524 0.74059814 -0.35722637
vn -0.30340442 0.7857251 -0.5390565
vn -0.30340442 0.7857251 -0.5390565
vn -0.54132164 0.7853948 -0.30020967
vn 0.068212196 0.73127306 0.67866546
vn 0.077478155 0.6019489 0.79476696
vn 0.661264 0.72647846 -0.18697348
vn 0.7595734 0.64946204 0.03531595
vn 0.37034518 0.7424178 -0.5582654
vn 0.37034518 0.7424178 -0.5582654
vn 0.2466393 -0.86185586 -0.44314033
vn 0.2466393 -0.86185586 -0.44314036
vn 0.4789551 -0.6898348 -0.5428905
vn 0.62243205 -0.52082276 -0.5842277
vn 0.8678476 -0.3383119 -0.36384836
vn 0.8718663 -0.3424227 -0.35013717
vn 0.8850469 -0.46369624 -0.040961
vn 0.8439556 -0.53619045 -0.015446925
vn 0.49926794 -0.77161515 0.39413384
vn 0.42987424 -0.74433345 0.5110536
vn 0.3451057 -0.11382829 0.9316357
vn 0.32929772 0.013819182 0.944125
vn 0.13950875 0.8085421 0.5716616
vn 0.14015564 0.80688536 0.57384
vn 0.006939071 0.9986864 0.050768256
vn 0.004652993 0.9993975 0.03439593
vn -0.012490105 0.9960078 -0.08838804
vn -0.012490105 0.9960078 -0.088388056
vn -0.26348332 -0.85341215 -0.44973803
vn -0.49373785 -0.6709932 -0.5531646
vn -0.26348332 -0.8534121 -0.44973806
vn -0.6349404 -0.49199295 -0.59564555
vn -0.87737316 -0.32069057 -0.35689467
vn -0.8792992 -0.32322422 -0.3497985
vn -0.8846564 -0.46610132 -0.011508147
vn -0.8430637 -0.53752095 0.017743219
vn -0.50283074 -0.76183784 0.40836778
vn -0.44007257 -0.73982924 0.50890946
vn -0.34776136 -0.12942897 0.9286065
vn -0.33150914 -0.027898341 0.9430395
vn -0.12577012 0.8324058 0.5397058
vn -0.12994756 0.8208416 0.55617684
vn 0.0015122275 0.9999883 -0.0046031415
vn 0.0024667315 0.9999263 -0.011886096
vn 0.012490105 0.9960078 -0.08838804
vn 0.012490105 0.9960078 -0.08838805
vn 0.004101536 0.3384858 -0.94096255
vn 0.0027986614 -0.5785849 -0.8156173
vn 0.70409936 -0.49353173 -0.5105591
vn 0.6984055 0.49639866 -0.5155755
vn 0.8173834 -0.57421124 0.04653892
vn 0.0009757441 0.93502903 -0.35456988
vn 0.7808865 0.6130384 0.12000159
vn 0.6406358 0.56962 0.51489687
vn 0.63661355 -0.4652839 0.61500746
vn 6.369521E-06 0.9822205 0.18773112
vn -4.671451E-06 0.71033734 0.7038614
vn -4.0816907E-05 -0.4938767 0.86953187
vn -0.63665885 -0.4652415 0.61499256
vn -0.64063793 0.56962794 0.51488537
vn -0.8171865 -0.57446617 0.046849888
vn -0.7809414 0.6130108 0.11978376
vn -0.69600284 0.48939002 -0.5254308
vn 0.0027986614 -0.5785849 -0.8156173
vn -0.704732 -0.49591622 -0.5073657
vn -0.59072566 -0.75599575 -0.28198156
vn -0.5907257 -0.7559957 -0.28198153
vn -0.5907257 -0.7559957 -0.28198153
vn -0.59072566 -0.75599575 -0.2819815
vn -0.8004859 0.59297746 0.08717826
vn -0.8004859 0.5929774 0.08717825
vn -0.8004859 0.59297746 0.08717828
vn -0.8004859 0.59297746 0.08717827
vn -0.10129078 -0.27719858 0.9554586
vn -0.10129078 -0.27719858 0.9554586
vn -0.10129077 -0.27719855 0.9554586
vn -0.101290785 -0.27719855 0.9554586
vn 0.8004864 -0.5929769 -0.087178394
vn 0.8004864 -0.59297687 -0.0871784
vn 0.8004864 -0.5929769 -0.08717842
vn 0.8004864 -0.5929769 -0.0871784
vn 0.10129139 0.27719957 -0.9554582
vn 0.10129139 0.27719957 -0.9554582
vn 0.10129138 0.2771996 -0.9554582
vn 0.1012914 0.27719954 -0.9554582
vn 0.5907261 0.75599545 0.2819815
vn 0.590726 0.7559955 0.2819815
vn 0.5907261 0.75599545 0.2819815
vn 0.5907261 0.75599545 0.2819815
vn -0.63665885 -0.4652415 0.61499256
vn -3.687047E-05 -0.9978421 -0.06565959
vn -0.8171865 -0.57446617 0.046849888
vn -4.0816907E-05 -0.4938767 0.86953187
vn -0.704732 -0.49591622 -0.5073657
vn 0.63661355 -0.4652839 0.61500746
vn 0.0027986614 -0.5785849 -0.8156173
vn 0.8173834 -0.57421124 0.04653892
vn 0.70409936 -0.49353173 -0.5105591
g NPC_Male_Size01_Bone_PackageC_006_LOD3_0
f 3/3/3 2/2/2 1/1/1
f 2/2/2 4/4/4 1/1/1
f 1/1/1 4/4/4 5/5/5
f 4/4/4 6/6/6 5/5/5
f 5/5/5 6/6/6 7/7/7
f 8/8/8 5/5/5 7/7/7
f 8/8/8 7/7/7 9/9/9
f 10/10/10 8/8/8 9/9/9
f 13/13/13 12/12/12 11/11/11
f 14/14/14 13/13/13 11/11/11
f 15/15/15 13/13/13 14/14/14
f 16/16/16 15/15/15 14/14/14
f 15/15/15 16/16/16 17/17/17
f 18/18/18 15/15/15 17/17/17
f 19/19/19 18/18/18 17/17/17
f 20/20/20 18/18/18 19/19/19
f 20/20/20 19/19/19 21/21/21
f 22/22/22 20/20/20 21/21/21
f 23/23/23 22/22/22 21/21/21
f 24/24/24 23/23/23 21/21/21
f 23/23/23 24/24/24 25/25/25
f 26/26/26 23/23/23 25/25/25
f 26/26/26 25/25/25 27/27/27
f 28/28/28 26/26/26 27/27/27
f 31/31/31 30/30/30 29/29/29
f 30/30/30 32/32/32 29/29/29
f 30/30/30 33/33/33 32/32/32
f 33/33/33 34/34/34 32/32/32
f 35/35/35 34/34/34 33/33/33
f 36/36/36 35/35/35 33/33/33
f 36/36/36 37/37/37 35/35/35
f 38/38/38 37/37/37 36/36/36
f 39/39/39 37/37/37 38/38/38
f 40/40/40 39/39/39 38/38/38
f 40/40/40 41/41/41 39/39/39
f 41/41/41 42/42/42 39/39/39
f 43/43/43 42/42/42 41/41/41
f 44/44/44 43/43/43 41/41/41
f 43/43/43 44/44/44 45/45/45
f 44/44/44 46/46/46 45/45/45
f 49/49/49 48/48/48 47/47/47
f 50/50/50 49/49/49 47/47/47
f 49/49/49 50/50/50 51/51/51
f 52/52/52 50/50/50 47/47/47
f 50/50/50 53/53/53 51/51/51
f 50/50/50 52/52/52 53/53/53
f 53/53/53 54/54/54 51/51/51
f 54/54/54 55/55/55 51/51/51
f 54/54/54 53/53/53 56/56/56
f 53/53/53 52/52/52 56/56/56
f 55/55/55 54/54/54 57/57/57
f 57/57/57 54/54/54 56/56/56
f 58/58/58 55/55/55 57/57/57
f 59/59/59 58/58/58 57/57/57
f 60/60/60 59/59/59 57/57/57
f 60/60/60 57/57/57 56/56/56
f 61/61/61 59/59/59 60/60/60
f 62/62/62 60/60/60 56/56/56
f 52/52/52 62/62/62 56/56/56
f 62/62/62 61/61/61 60/60/60
f 63/63/63 52/52/52 47/47/47
f 63/63/63 62/62/62 52/52/52
f 62/62/62 63/63/63 61/61/61
f 63/63/63 47/47/47 64/64/64
f 63/63/63 65/65/65 61/61/61
f 65/65/65 63/63/63 64/64/64
f 68/68/68 67/67/67 66/66/66
f 69/69/69 68/68/68 66/66/66
f 72/72/72 71/71/71 70/70/70
f 73/73/73 72/72/72 70/70/70
f 76/76/76 75/75/75 74/74/74
f 77/77/77 76/76/76 74/74/74
f 80/80/80 79/79/79 78/78/78
f 81/81/81 80/80/80 78/78/78
f 84/84/84 83/83/83 82/82/82
f 85/85/85 84/84/84 82/82/82
f 88/88/88 87/87/87 86/86/86
f 89/89/89 88/88/88 86/86/86
f 92/92/92 91/91/91 90/90/90
f 91/91/91 93/93/93 90/90/90
f 92/92/92 94/94/94 91/91/91
f 95/95/95 93/93/93 91/91/91
f 91/91/91 94/94/94 96/96/96
f 97/97/97 95/95/95 91/91/91
f 98/98/98 91/91/91 96/96/96
f 97/97/97 91/91/91 98/98/98
