g SeparateMesh_NPC_SirChop_Model_SirChop_Beard_LOD1
v 0.120133385 0.6963858 0.11191692
v 0.16280788 0.658598 0.09534858
v 0.16057388 0.67495733 0.09188131
v 0.15733261 0.7071893 0.08052545
v 0.19507797 0.66994935 0.06183399
v 0.1853453 0.69754606 0.06211439
v 0.17121755 0.7255247 0.066408016
v 0.20255245 0.7050934 0.04197184
v 0.13709773 0.7451928 0.08789516
v 0.09009813 0.73545945 0.11591437
v 0.08624193 0.71905655 0.12581727
v 0.09906999 0.75505704 0.10898567
v 0.04976115 0.7477579 0.13345306
v 0.048429184 0.73985904 0.13801883
v 0.053241566 0.75774825 0.132022
v 0.025777869 0.7519081 0.14373888
v -0.120133385 0.6963858 0.11191692
v -0.16057388 0.67495733 0.09188131
v -0.16280788 0.658598 0.09534858
v -0.15733261 0.7071893 0.08052545
v -0.19507797 0.66994935 0.06183399
v -0.1853453 0.69754606 0.06211439
v -0.17121755 0.7255247 0.066408016
v -0.20255245 0.7050934 0.04197184
v -0.13709773 0.7451928 0.08789516
v -0.09009813 0.73545945 0.11591437
v -0.08624193 0.71905655 0.12581727
v -0.09906999 0.75505704 0.10898567
v -0.04976115 0.7477579 0.13345306
v -0.048429184 0.73985904 0.13801883
v -0.053241566 0.75774825 0.132022
v -0.025777869 0.7519081 0.14373888
v 0.16329235 0.6598314 0.096797474
v 0.16057388 0.67495733 0.09188131
v 0.16280788 0.658598 0.09534858
v 0.120133385 0.6963858 0.11191692
v 0.16165878 0.6759195 0.09421178
v 0.12300479 0.6978294 0.11638715
v 0.19667107 0.67052513 0.06314545
v 0.19507797 0.66994935 0.06183399
v 0.1853453 0.69754606 0.06211439
v 0.18779552 0.6990651 0.06459644
v 0.20255245 0.7050934 0.04197184
v 0.17708345 0.7281026 0.06834484
v 0.17121755 0.7255247 0.066408016
v 0.15050392 0.7165676 0.093106754
v 0.14300454 0.7470485 0.09214365
v 0.10240146 0.75674236 0.11355647
v 0.13709773 0.7451928 0.08789516
v 0.09906999 0.75505704 0.10898567
v 0.053241566 0.75774825 0.132022
v 0.08872792 0.7203335 0.13016441
v 0.08624193 0.71905655 0.12581727
v 0.05039019 0.74075943 0.14208415
v 0.048429184 0.73985904 0.13801883
v 0.054335993 0.7580708 0.13539435
v 0.027430028 0.75194275 0.14684443
v 0.025777869 0.7519081 0.14373888
v -0.16329235 0.6598314 0.096797474
v -0.16280788 0.658598 0.09534858
v -0.16057388 0.67495733 0.09188131
v -0.120133385 0.6963858 0.11191692
v -0.16165878 0.6759195 0.09421178
v -0.12300479 0.6978294 0.11638715
v -0.19667107 0.67052513 0.06314545
v -0.19507797 0.66994935 0.06183399
v -0.1853453 0.69754606 0.06211439
v -0.18779552 0.6990651 0.06459644
v -0.20255245 0.7050934 0.04197184
v -0.17708345 0.7281026 0.06834484
v -0.17121755 0.7255247 0.066408016
v -0.15050392 0.7165676 0.093106754
v -0.14300454 0.7470485 0.09214365
v -0.10240146 0.75674236 0.11355647
v -0.13709773 0.7451928 0.08789516
v -0.09906999 0.75505704 0.10898567
v -0.053241566 0.75774825 0.132022
v -0.08872792 0.7203335 0.13016441
v -0.08624193 0.71905655 0.12581727
v -0.05039019 0.74075943 0.14208415
v -0.048429184 0.73985904 0.13801883
v -0.054335993 0.7580708 0.13539435
v -0.027430028 0.75194275 0.14684443
v -0.025777869 0.7519081 0.14373888
vt 0.543766 0.81593347
vt 0.543742 0.841582
vt 0.550601 0.835719
vt 0.56454813 0.8325761
vt 0.562907 0.855421
vt 0.573794 0.843036
vt 0.580243 0.8293805
vt 0.584866 0.851493
vt 0.574431 0.81132
vt 0.5537711 0.7927953
vt 0.544339 0.7938735
vt 0.56601155 0.7912365
vt 0.54827297 0.77109945
vt 0.543742 0.77130353
vt 0.5537785 0.7696565
vt 0.543742 0.758768
vt 0.543766 0.81593347
vt 0.550601 0.835719
vt 0.543742 0.841582
vt 0.56454813 0.8325761
vt 0.562907 0.855421
vt 0.573794 0.843036
vt 0.580243 0.8293805
vt 0.584866 0.851493
vt 0.574431 0.81132
vt 0.5537711 0.7927953
vt 0.544339 0.7938735
vt 0.56601155 0.7912365
vt 0.54827297 0.77109945
vt 0.543742 0.77130353
vt 0.5537785 0.7696565
vt 0.543742 0.758768
vt 0.641425 0.864608
vt 0.632645 0.861924
vt 0.642324 0.865529
vt 0.642298 0.837281
vt 0.632085 0.860256
vt 0.639351 0.8371525
vt 0.616585 0.883264
vt 0.616889 0.884425
vt 0.601939 0.872354
vt 0.602166 0.870003
vt 0.587859 0.877965
vt 0.5930565 0.853714
vt 0.5898415 0.852154
vt 0.615481 0.8456674
vt 0.6010095 0.8329525
vt 0.612731 0.8094405
vt 0.597322 0.83051145
vt 0.60966647 0.807137
vt 0.62767553 0.7837625
vt 0.638873 0.813613
vt 0.642324 0.81257105
vt 0.63949203 0.7889745
vt 0.642324 0.7873045
vt 0.6287265 0.7851255
vt 0.641317 0.774916
vt 0.642324 0.773128
vt 0.641425 0.864608
vt 0.642324 0.865529
vt 0.632645 0.861924
vt 0.642298 0.837281
vt 0.632085 0.860256
vt 0.639351 0.8371525
vt 0.616585 0.883264
vt 0.616889 0.884425
vt 0.601939 0.872354
vt 0.602166 0.870003
vt 0.587859 0.877965
vt 0.5930565 0.853714
vt 0.5898415 0.852154
vt 0.615481 0.8456674
vt 0.6010095 0.8329525
vt 0.612731 0.8094405
vt 0.597322 0.83051145
vt 0.60966647 0.807137
vt 0.62767553 0.7837625
vt 0.638873 0.813613
vt 0.642324 0.81257105
vt 0.63949203 0.7889745
vt 0.642324 0.7873045
vt 0.6287265 0.7851255
vt 0.641317 0.774916
vt 0.642324 0.773128
vn -0.54677933 -0.3354224 -0.7671534
vn -0.53138477 -0.24447271 -0.8110878
vn -0.5885514 -0.29911762 -0.7510899
vn -0.571539 -0.24112248 -0.78434885
vn -0.63093805 -0.27546674 -0.7252829
vn -0.625252 -0.21134843 -0.7512601
vn -0.60794055 -0.18101394 -0.77307326
vn -0.6902917 -0.24403392 -0.6811349
vn -0.508124 -0.1032246 -0.85507584
vn -0.48938844 -0.20958771 -0.8465057
vn -0.49784032 -0.360977 -0.7885751
vn -0.46820307 -0.07387908 -0.88052696
vn -0.4457309 -0.21440554 -0.8691112
vn -0.45445314 -0.33275726 -0.8262839
vn -0.43224236 -0.08835678 -0.8974183
vn -0.41436455 -0.18710463 -0.8906705
vn 0.5467793 -0.33542234 -0.7671534
vn 0.58855116 -0.29911754 -0.75109
vn 0.53138477 -0.24447271 -0.8110878
vn 0.571539 -0.24112253 -0.78434885
vn 0.63093764 -0.27546665 -0.7252833
vn 0.62525207 -0.2113485 -0.75126004
vn 0.6079409 -0.18101425 -0.77307284
vn 0.6902925 -0.24403426 -0.6811341
vn 0.50812393 -0.10322469 -0.85507596
vn 0.48938838 -0.20958768 -0.84650576
vn 0.4978399 -0.36097696 -0.7885754
vn 0.4682029 -0.073878996 -0.8805272
vn 0.445731 -0.21440557 -0.86911106
vn 0.45445284 -0.3327572 -0.826284
vn 0.43224287 -0.08835685 -0.897418
vn 0.41436538 -0.18710503 -0.89067
vn 0.1222453 -0.47613335 0.8708347
vn 0.39085433 -0.9030535 0.17812105
vn -0.28066623 -0.79134625 0.54313684
vn -0.38170478 -0.76997864 0.5113064
vn 0.63405514 0.13835052 0.7608108
vn 0.44373587 0.08733901 0.89189154
vn 0.72995603 0.08932647 0.6776318
vn 0.5647651 -0.786969 -0.24843548
vn 0.74380577 -0.21314995 -0.6334983
vn 0.7121156 0.16307084 0.6828611
vn 0.8056814 0.24647567 0.53863454
vn 0.7048846 0.38929442 0.59294814
vn 0.004358939 0.76766646 -0.6408346
vn 0.59610724 0.17880625 0.78274167
vn 0.5448295 0.4121495 0.73026955
vn 0.46389842 0.35758543 0.8105127
vn 0.024140432 0.8708621 -0.49093428
vn -0.019296894 0.9518044 -0.3060982
vn -0.10004503 0.9841121 -0.1466777
vn 0.41336146 0.12683603 0.90169
vn -0.34362075 -0.83384603 0.43200174
vn 0.32960883 0.09604043 0.93922
vn -0.34991255 -0.86196554 0.36684704
vn 0.36872253 0.41251484 0.8329917
vn -0.23713762 0.22944856 0.9439911
vn -0.83228815 0.294716 0.46950933
vn -0.122247584 -0.47612962 0.87083644
vn 0.28066403 -0.7913443 0.54314077
vn -0.39085466 -0.90305275 0.17812447
vn 0.3817042 -0.7699779 0.5113079
vn -0.63405526 0.1383506 0.76081073
vn -0.44373584 0.08733922 0.89189154
vn -0.7299562 0.08932667 0.6776317
vn -0.5647652 -0.78696924 -0.2484346
vn -0.7438051 -0.2131499 -0.633499
vn -0.7121159 0.16307087 0.6828608
vn -0.8056815 0.24647532 0.5386345
vn -0.7048846 0.3892946 0.592948
vn -0.004359179 0.7676671 -0.64083403
vn -0.59610695 0.17880617 0.7827419
vn -0.54482895 0.4121495 0.7302701
vn -0.463898 0.3575851 0.8105131
vn -0.024140459 0.87086326 -0.49093217
vn 0.019297 0.95180535 -0.306095
vn 0.10004496 0.98411256 -0.14667445
vn -0.4133612 0.1268358 0.9016901
vn 0.34362087 -0.83384603 0.43200174
vn -0.32960835 0.09604005 0.93922025
vn 0.34991232 -0.8619648 0.36684868
vn -0.36872205 0.4125146 0.832992
vn 0.23713581 0.22944827 0.94399154
vn 0.8322841 0.29471624 0.46951634
g SeparateMesh_NPC_SirChop_Model_SirChop_Beard_LOD1_0
f 3/3/3 2/2/2 1/1/1
f 4/4/4 3/3/3 1/1/1
f 4/4/4 5/5/5 3/3/3
f 5/5/5 4/4/4 6/6/6
f 4/4/4 7/7/7 6/6/6
f 6/6/6 7/7/7 8/8/8
f 7/7/7 4/4/4 9/9/9
f 10/10/10 4/4/4 1/1/1
f 4/4/4 10/10/10 9/9/9
f 11/11/11 10/10/10 1/1/1
f 9/9/9 10/10/10 12/12/12
f 13/13/13 10/10/10 11/11/11
f 10/10/10 13/13/13 12/12/12
f 14/14/14 13/13/13 11/11/11
f 13/13/13 15/15/15 12/12/12
f 13/13/13 14/14/14 16/16/16
f 15/15/15 13/13/13 16/16/16
f 19/19/19 18/18/18 17/17/17
f 18/18/18 20/20/20 17/17/17
f 21/21/21 20/20/20 18/18/18
f 20/20/20 21/21/21 22/22/22
f 23/23/23 20/20/20 22/22/22
f 23/23/23 22/22/22 24/24/24
f 20/20/20 23/23/23 25/25/25
f 20/20/20 26/26/26 17/17/17
f 26/26/26 20/20/20 25/25/25
f 26/26/26 27/27/27 17/17/17
f 26/26/26 25/25/25 28/28/28
f 26/26/26 29/29/29 27/27/27
f 26/26/26 28/28/28 29/29/29
f 29/29/29 30/30/30 27/27/27
f 28/28/28 31/31/31 29/29/29
f 32/32/32 30/30/30 29/29/29
f 31/31/31 32/32/32 29/29/29
f 35/35/35 34/34/34 33/33/33
f 36/36/36 35/35/35 33/33/33
f 34/34/34 37/37/37 33/33/33
f 38/38/38 36/36/36 33/33/33
f 33/33/33 37/37/37 38/38/38
f 37/37/37 34/34/34 39/39/39
f 34/34/34 40/40/40 39/39/39
f 40/40/40 41/41/41 39/39/39
f 41/41/41 42/42/42 39/39/39
f 39/39/39 42/42/42 37/37/37
f 41/41/41 43/43/43 42/42/42
f 43/43/43 44/44/44 42/42/42
f 42/42/42 44/44/44 37/37/37
f 43/43/43 45/45/45 44/44/44
f 37/37/37 44/44/44 46/46/46
f 37/37/37 46/46/46 38/38/38
f 44/44/44 45/45/45 47/47/47
f 47/47/47 46/46/46 44/44/44
f 38/38/38 46/46/46 47/47/47
f 47/47/47 48/48/48 38/38/38
f 45/45/45 49/49/49 47/47/47
f 47/47/47 49/49/49 48/48/48
f 49/49/49 50/50/50 48/48/48
f 50/50/50 51/51/51 48/48/48
f 48/48/48 52/52/52 38/38/38
f 38/38/38 52/52/52 36/36/36
f 52/52/52 53/53/53 36/36/36
f 53/53/53 52/52/52 54/54/54
f 52/52/52 48/48/48 54/54/54
f 55/55/55 53/53/53 54/54/54
f 51/51/51 56/56/56 48/48/48
f 48/48/48 56/56/56 54/54/54
f 55/55/55 54/54/54 57/57/57
f 57/57/57 54/54/54 56/56/56
f 57/57/57 56/56/56 51/51/51
f 58/58/58 55/55/55 57/57/57
f 58/58/58 57/57/57 51/51/51
f 61/61/61 60/60/60 59/59/59
f 60/60/60 62/62/62 59/59/59
f 63/63/63 61/61/61 59/59/59
f 62/62/62 64/64/64 59/59/59
f 63/63/63 59/59/59 64/64/64
f 61/61/61 63/63/63 65/65/65
f 66/66/66 61/61/61 65/65/65
f 67/67/67 66/66/66 65/65/65
f 68/68/68 67/67/67 65/65/65
f 68/68/68 65/65/65 63/63/63
f 69/69/69 67/67/67 68/68/68
f 70/70/70 69/69/69 68/68/68
f 70/70/70 68/68/68 63/63/63
f 71/71/71 69/69/69 70/70/70
f 70/70/70 63/63/63 72/72/72
f 72/72/72 63/63/63 64/64/64
f 71/71/71 70/70/70 73/73/73
f 72/72/72 73/73/73 70/70/70
f 72/72/72 64/64/64 73/73/73
f 73/73/73 64/64/64 74/74/74
f 75/75/75 71/71/71 73/73/73
f 75/75/75 73/73/73 74/74/74
f 76/76/76 75/75/75 74/74/74
f 77/77/77 76/76/76 74/74/74
f 64/64/64 78/78/78 74/74/74
f 78/78/78 64/64/64 62/62/62
f 79/79/79 78/78/78 62/62/62
f 78/78/78 79/79/79 80/80/80
f 74/74/74 78/78/78 80/80/80
f 79/79/79 81/81/81 80/80/80
f 82/82/82 77/77/77 74/74/74
f 82/82/82 74/74/74 80/80/80
f 80/80/80 81/81/81 83/83/83
f 80/80/80 83/83/83 82/82/82
f 82/82/82 83/83/83 77/77/77
f 81/81/81 84/84/84 83/83/83
f 83/83/83 84/84/84 77/77/77
