g SeparateMesh_NPC_Kathy_Model_Kathy_Phone
v 0.03367462 -0.0049933814 0.0010988999
v 0.036482237 0.004993305 0.0039055443
v 0.03367462 0.004993305 0.0010988999
v 0.036482237 -0.0049933814 0.0039055443
v 0.037754517 0.004993305 0.00754467
v 0.037754517 -0.0049933814 0.00754467
v 0.037754517 -0.0049933624 0.14648816
v 0.037754517 0.004993286 0.14648814
v 0.036482237 -0.0049933624 0.15012726
v 0.036482237 0.004993286 0.15012725
v 0.03367462 -0.0049933624 0.1529339
v 0.03367462 0.004993286 0.15293387
v 0.03003601 -0.0049933814 -0.00017396927
v 0.03367462 -0.0049933814 0.0010988999
v 0.03367462 0.004993305 0.0010988999
v 0.03003601 0.004993305 -0.00017396927
v -0.030039672 0.004993305 -0.00017396927
v -0.030039672 -0.0049933814 -0.00017396927
v -0.033678282 0.004993305 0.0010988999
v -0.033678282 -0.0049933814 0.0010988999
v -0.033678282 -0.0049933624 0.1529339
v -0.0364859 0.004993286 0.15012725
v -0.033678282 0.004993286 0.15293387
v -0.0364859 -0.0049933624 0.15012726
v -0.03775818 0.004993286 0.14648814
v -0.03775818 -0.0049933624 0.14648816
v -0.03775818 -0.0049933814 0.00754467
v -0.03775818 0.004993305 0.00754467
v -0.0364859 -0.0049933814 0.0039055443
v -0.0364859 0.004993305 0.0039055443
v -0.033678282 -0.0049933814 0.0010988999
v -0.033678282 0.004993305 0.0010988999
v -0.030039672 -0.0049933624 0.15420678
v -0.033678282 -0.0049933624 0.1529339
v -0.033678282 0.004993286 0.15293387
v -0.030039672 0.004993286 0.15420675
v 0.03003601 0.004993286 0.15420675
v 0.03003601 -0.0049933624 0.15420678
v 0.03367462 0.004993286 0.15293387
v 0.03367462 -0.0049933624 0.1529339
v -0.033678282 -0.0049933624 0.1529339
v -0.030039672 -0.0049933624 0.15420678
v 0.03003601 -0.0049933624 0.15420678
v 0.03367462 -0.0049933624 0.1529339
v -0.0364859 -0.0049933624 0.15012726
v 0.036482237 -0.0049933624 0.15012726
v 0.037754517 -0.0049933624 0.14648816
v -0.03775818 -0.0049933624 0.14648816
v -0.031589966 -0.0049933624 0.13867497
v 0.03196472 -0.0049933624 0.13867497
v -0.031589966 -0.0049934005 0.03626461
v 0.037754517 -0.0049933814 0.00754467
v -0.03775818 -0.0049933814 0.00754467
v 0.03196472 -0.0049934005 0.03626461
v -0.0364859 -0.0049933814 0.0039055443
v 0.036482237 -0.0049933814 0.0039055443
v -0.033678282 -0.0049933814 0.0010988999
v 0.03367462 -0.0049933814 0.0010988999
v -0.030039672 -0.0049933814 -0.00017396927
v 0.03003601 -0.0049933814 -0.00017396927
v 0.03367462 0.004993286 0.15293387
v 0.03003601 0.004993286 0.15420675
v -0.030039672 0.004993286 0.15420675
v -0.033678282 0.004993286 0.15293387
v 0.036482237 0.004993286 0.15012725
v -0.0364859 0.004993286 0.15012725
v 0.037754517 0.004993286 0.14648814
v -0.03775818 0.004993286 0.14648814
v 0.037754517 0.004993305 0.00754467
v -0.03775818 0.004993305 0.00754467
v 0.036482237 0.004993305 0.0039055443
v -0.0364859 0.004993305 0.0039055443
v -0.033678282 0.004993305 0.0010988999
v 0.03367462 0.004993305 0.0010988999
v 0.03003601 0.004993305 -0.00017396927
v -0.030039672 0.004993305 -0.00017396927
v 0.03196472 -0.0049933624 0.13867497
v 0.03196472 -0.0049934005 0.03626461
v -0.031589966 -0.0049934005 0.03626461
v -0.031589966 -0.0049933624 0.13867497
vt 0.9253204 0.013748854
vt 0.98241484 0.036444336
vt 0.98241484 0.013748854
vt 0.9253204 0.036444336
vt 0.98241484 0.058484703
vt 0.9253204 0.058484703
vt 0.9253204 0.85283387
vt 0.98241484 0.85283464
vt 0.9253204 0.87487465
vt 0.98241484 0.87487465
vt 0.9253204 0.89757013
vt 0.98241484 0.89757013
vt 0.30856615 0.41855416
vt 0.30856615 0.3965154
vt 0.2514717 0.3965154
vt 0.2514717 0.41855416
vt 0.2514717 0.7620102
vt 0.30856615 0.7620102
vt 0.2514717 0.7840489
vt 0.30856615 0.7840489
vt 0.013749003 0.9784876
vt 0.036444783 0.92139316
vt 0.013749123 0.92139316
vt 0.036444783 0.9784876
vt 0.05848509 0.92139316
vt 0.05848509 0.9784876
vt 0.85283417 0.9784875
vt 0.85283417 0.92139304
vt 0.8748746 0.9784875
vt 0.8748746 0.92139304
vt 0.89757013 0.9784875
vt 0.89757013 0.92139304
vt 0.33645242 0.7620101
vt 0.33645242 0.7840489
vt 0.39354682 0.7840489
vt 0.39354682 0.7620101
vt 0.39354682 0.41855377
vt 0.33645242 0.41855377
vt 0.39354682 0.39651498
vt 0.33645242 0.39651498
vt 0.042116567 0.88955164
vt 0.062919214 0.8968288
vt 0.4063756 0.8968288
vt 0.42717826 0.88955164
vt 0.026066035 0.8735059
vt 0.4432288 0.8735059
vt 0.4505036 0.8527007
vt 0.018791229 0.8527007
vt 0.05405608 0.8080323
vt 0.41740298 0.8080323
vt 0.05405608 0.22254539
vt 0.4505036 0.058351457
vt 0.018791229 0.058351457
vt 0.41740298 0.22254539
vt 0.026066035 0.037546337
vt 0.4432288 0.037546337
vt 0.042116567 0.021500558
vt 0.42717826 0.021500558
vt 0.062919244 0.014223427
vt 0.4063756 0.014223427
vt 0.4992919 0.88968474
vt 0.5200946 0.8969619
vt 0.86355054 0.8969619
vt 0.8843533 0.88968474
vt 0.48324138 0.873639
vt 0.90040374 0.873639
vt 0.4759664 0.85283387
vt 0.9076787 0.85283387
vt 0.4759664 0.058484614
vt 0.9076787 0.058484614
vt 0.4832412 0.037679493
vt 0.900404 0.037679493
vt 0.8843534 0.021633744
vt 0.49929172 0.021633744
vt 0.5200944 0.014356613
vt 0.8635507 0.014356613
vt 0.9655788 0.9749676
vt 0.96557885 0.020098448
vt 0.03136024 0.020098567
vt 0.03136006 0.9749675
vn 0.53192395 0 -0.8467922
vn 0.8467502 0 -0.5319906
vn 0.53192395 0 -0.8467922
vn 0.8467502 0 -0.5319906
vn 0.9858937 0 -0.16737261
vn 0.9858937 0 -0.16737261
vn 0.9858935 2.7137207E-07 0.16737376
vn 0.9858936 2.713715E-07 0.1673734
vn 0.8467486 9.711862E-07 0.53199315
vn 0.84674895 9.711855E-07 0.53199273
vn 0.5319245 1.6562433E-06 0.84679186
vn 0.5319247 1.6562424E-06 0.8467917
vn 0.16746569 0 -0.9858779
vn 0.53192395 0 -0.8467922
vn 0.53192395 0 -0.8467922
vn 0.16746569 0 -0.9858779
vn -0.16746569 0 -0.9858779
vn -0.16746569 0 -0.9858779
vn -0.53192395 0 -0.8467922
vn -0.53192395 0 -0.8467922
vn -0.5319245 1.6467948E-06 0.84679186
vn -0.84674895 1.0115966E-06 0.53199273
vn -0.5319247 1.6467943E-06 0.8467917
vn -0.8467486 1.0115971E-06 0.53199315
vn -0.9858936 3.1406879E-07 0.16737339
vn -0.9858935 3.140695E-07 0.16737375
vn -0.9858937 0 -0.16737261
vn -0.9858937 0 -0.16737261
vn -0.8467502 0 -0.5319906
vn -0.8467502 0 -0.5319906
vn -0.53192395 0 -0.8467922
vn -0.53192395 0 -0.8467922
vn -0.16746818 1.9109157E-06 0.9858775
vn -0.5319245 1.6467948E-06 0.84679186
vn -0.5319247 1.6467943E-06 0.8467917
vn -0.16746826 1.9109157E-06 0.9858775
vn 0.16746826 1.901867E-06 0.9858775
vn 0.16746818 1.901867E-06 0.9858775
vn 0.5319247 1.6562424E-06 0.8467917
vn 0.5319245 1.6562433E-06 0.84679186
vn -0 -1 0
vn -0 -1 0
vn -0 -1 0
vn -0 -1 0
vn -0 -1 0
vn -0 -1 0
vn -0 -1 0
vn -0 -1 0
vn -0 -1 0
vn -0 -1 0
vn -1.9478969E-06 -1 2.3622104E-07
vn -0 -1 0
vn -0 -1 0
vn -0 -1 -6.5812725E-07
vn -0 -1 0
vn -0 -1 0
vn -0 -1 0
vn -0 -1 0
vn -0 -1 0
vn -0 -1 0
vn -0 1 0
vn -0 1 -1.10241274E-07
vn -0 1 -1.10241274E-07
vn -0 1 0
vn -0 1 0
vn -0 1 0
vn -0 1 0
vn -0 1 0
vn -0 1 1.0547004E-07
vn -0 1 1.0547004E-07
vn -0 1 0
vn -0 1 0
vn -0 1 0
vn -0 1 0
vn -0 1 0
vn -0 1 0
vn -0 -1 3.7363603E-07
vn -0 -1 3.7363603E-07
vn -0 -1 3.7363603E-07
vn -0 -1 3.7363603E-07
g SeparateMesh_NPC_Kathy_Model_Kathy_Phone_0
f 3/3/3 2/2/2 1/1/1
f 2/2/2 4/4/4 1/1/1
f 2/2/2 5/5/5 4/4/4
f 5/5/5 6/6/6 4/4/4
f 6/6/6 5/5/5 7/7/7
f 5/5/5 8/8/8 7/7/7
f 7/7/7 8/8/8 9/9/9
f 8/8/8 10/10/10 9/9/9
f 9/9/9 10/10/10 11/11/11
f 10/10/10 12/12/12 11/11/11
f 15/15/15 14/14/14 13/13/13
f 16/16/16 15/15/15 13/13/13
f 17/17/17 16/16/16 13/13/13
f 18/18/18 17/17/17 13/13/13
f 19/19/19 17/17/17 18/18/18
f 20/20/20 19/19/19 18/18/18
f 23/23/23 22/22/22 21/21/21
f 22/22/22 24/24/24 21/21/21
f 22/22/22 25/25/25 24/24/24
f 25/25/25 26/26/26 24/24/24
f 26/26/26 25/25/25 27/27/27
f 25/25/25 28/28/28 27/27/27
f 27/27/27 28/28/28 29/29/29
f 28/28/28 30/30/30 29/29/29
f 29/29/29 30/30/30 31/31/31
f 30/30/30 32/32/32 31/31/31
f 35/35/35 34/34/34 33/33/33
f 36/36/36 35/35/35 33/33/33
f 37/37/37 36/36/36 33/33/33
f 38/38/38 37/37/37 33/33/33
f 39/39/39 37/37/37 38/38/38
f 40/40/40 39/39/39 38/38/38
f 43/43/43 42/42/42 41/41/41
f 44/44/44 43/43/43 41/41/41
f 44/44/44 41/41/41 45/45/45
f 46/46/46 44/44/44 45/45/45
f 46/46/46 45/45/45 47/47/47
f 45/45/45 48/48/48 47/47/47
f 48/48/48 49/49/49 47/47/47
f 49/49/49 50/50/50 47/47/47
f 51/51/51 49/49/49 48/48/48
f 47/47/47 50/50/50 52/52/52
f 53/53/53 51/51/51 48/48/48
f 54/54/54 51/51/51 53/53/53
f 50/50/50 54/54/54 52/52/52
f 52/52/52 54/54/54 53/53/53
f 53/53/53 55/55/55 52/52/52
f 55/55/55 56/56/56 52/52/52
f 55/55/55 57/57/57 56/56/56
f 57/57/57 58/58/58 56/56/56
f 57/57/57 59/59/59 58/58/58
f 59/59/59 60/60/60 58/58/58
f 63/63/63 62/62/62 61/61/61
f 64/64/64 63/63/63 61/61/61
f 64/64/64 61/61/61 65/65/65
f 66/66/66 64/64/64 65/65/65
f 66/66/66 65/65/65 67/67/67
f 68/68/68 66/66/66 67/67/67
f 68/68/68 67/67/67 69/69/69
f 70/70/70 68/68/68 69/69/69
f 70/70/70 69/69/69 71/71/71
f 72/72/72 70/70/70 71/71/71
f 73/73/73 72/72/72 71/71/71
f 74/74/74 73/73/73 71/71/71
f 74/74/74 75/75/75 73/73/73
f 75/75/75 76/76/76 73/73/73
g SeparateMesh_NPC_Kathy_Model_Kathy_Phone_1
f 79/79/79 78/78/78 77/77/77
f 80/80/80 79/79/79 77/77/77
