g SeparateMesh_Monster_Ahriman_Model_Monster_Ahriman_Head_LOD1
v -0 -0.12515098 1.6150182
v -0.026605926 -0.09820228 1.6474377
v 0.004110714 -0.09820228 1.6567553
v -0.028869113 -0.061092734 1.6501955
v 0.0044603846 -0.061092738 1.6603057
v -0 -0.025320139 1.6150182
v -0.045287523 -0.061092727 1.6194787
v -0 -0.025320139 1.6150182
v -0.04173722 -0.09820228 1.619129
v -0 -0.12515098 1.6150182
v -0.0351771 -0.061092723 1.5861492
v -0 -0.025320139 1.6150182
v -0.0324194 -0.09820228 1.5884124
v -0 -0.12515098 1.6150182
v -0.00446039 -0.061092723 1.5697308
v -0 -0.025320139 1.6150182
v -0.004110719 -0.098202266 1.5732812
v -0 -0.12515098 1.6150182
v 0.028869158 -0.061092723 1.5798413
v -0 -0.025320139 1.6150182
v 0.026605967 -0.098202266 1.5825988
v -0 -0.12515098 1.6150182
v 0.04528753 -0.061092727 1.6105578
v -0 -0.025320139 1.6150182
v 0.041737232 -0.09820228 1.6109076
v -0 -0.12515098 1.6150182
v 0.035177063 -0.061092734 1.6438874
v -0 -0.025320139 1.6150182
v 0.032419365 -0.09820228 1.6416242
v -0 -0.12515098 1.6150182
v 0.0044603846 -0.061092738 1.6603057
v -0 -0.025320139 1.6150182
v 0.004110714 -0.09820228 1.6567553
v -0 -0.12515098 1.6150182
vt 0.48484838 0.22192657
vt 0.48509997 0.22081947
vt 0.48479807 0.22081947
vt 0.48509997 0.22001436
vt 0.48479807 0.22001436
vt 0.48484838 0.21870601
vt 0.48550254 0.22001436
vt 0.48525095 0.21870601
vt 0.48550254 0.22081947
vt 0.48525095 0.22192657
vt 0.4859051 0.22001436
vt 0.48565352 0.21870601
vt 0.4859051 0.22081947
vt 0.48565352 0.22192657
vt 0.48630768 0.22001436
vt 0.4860561 0.21870601
vt 0.48630768 0.22081947
vt 0.4860561 0.22192657
vt 0.48671025 0.22001436
vt 0.48645866 0.21870601
vt 0.48671025 0.22081947
vt 0.48645866 0.22192657
vt 0.48711282 0.22001436
vt 0.48686123 0.21870601
vt 0.48711282 0.22081947
vt 0.48686123 0.22192657
vt 0.4875154 0.22001436
vt 0.4872638 0.21870601
vt 0.4875154 0.22081947
vt 0.4872638 0.22192657
vt 0.4878928 0.22001436
vt 0.48766637 0.21870601
vt 0.4878928 0.22081947
vt 0.48766637 0.22192657
vn -1.6612279E-07 -1 -2.1457527E-07
vn -0.5571333 -0.47826418 0.6788709
vn 0.086079866 -0.47826448 0.873987
vn -0.5926981 0.35654807 0.72220665
vn 0.09157476 0.3565477 0.92977834
vn -0 1 -3.3612932E-07
vn -0.92977804 0.35654855 0.09157468
vn -0 1 -3.3612932E-07
vn -0.8739875 -0.47826385 0.0860791
vn -1.6612279E-07 -1 -2.1457527E-07
vn -0.7222055 0.35654825 -0.5926994
vn -0 1 -3.3612932E-07
vn -0.67886955 -0.47826383 -0.55713534
vn -1.6612279E-07 -1 -2.1457527E-07
vn -0.091575235 0.356548 -0.9297782
vn -0 1 -3.3612932E-07
vn -0.086080804 -0.47826374 -0.8739873
vn -1.6612279E-07 -1 -2.1457527E-07
vn 0.592699 0.3565488 -0.7222055
vn -0 1 -3.3612932E-07
vn 0.55713373 -0.4782633 -0.6788713
vn -1.6612279E-07 -1 -2.1457527E-07
vn 0.9297779 0.3565488 -0.09157478
vn -0 1 -3.3612932E-07
vn 0.8739875 -0.4782638 -0.08607918
vn -1.6612279E-07 -1 -2.1457527E-07
vn 0.7222044 0.35654828 0.5927008
vn -0 1 -3.3612932E-07
vn 0.67886865 -0.47826394 0.55713654
vn -1.6612279E-07 -1 -2.1457527E-07
vn 0.09157476 0.3565477 0.92977834
vn -0 1 -3.3612932E-07
vn 0.086079866 -0.47826448 0.873987
vn -1.6612279E-07 -1 -2.1457527E-07
g SeparateMesh_Monster_Ahriman_Model_Monster_Ahriman_Head_LOD1_0
f 3/3/3 2/2/2 1/1/1
f 4/4/4 2/2/2 3/3/3
f 5/5/5 4/4/4 3/3/3
f 6/6/6 4/4/4 5/5/5
f 4/4/4 7/7/7 2/2/2
f 8/8/8 7/7/7 4/4/4
f 7/7/7 9/9/9 2/2/2
f 2/2/2 9/9/9 10/10/10
f 7/7/7 11/11/11 9/9/9
f 12/12/12 11/11/11 7/7/7
f 11/11/11 13/13/13 9/9/9
f 9/9/9 13/13/13 14/14/14
f 11/11/11 15/15/15 13/13/13
f 16/16/16 15/15/15 11/11/11
f 15/15/15 17/17/17 13/13/13
f 13/13/13 17/17/17 18/18/18
f 15/15/15 19/19/19 17/17/17
f 20/20/20 19/19/19 15/15/15
f 19/19/19 21/21/21 17/17/17
f 17/17/17 21/21/21 22/22/22
f 19/19/19 23/23/23 21/21/21
f 24/24/24 23/23/23 19/19/19
f 23/23/23 25/25/25 21/21/21
f 21/21/21 25/25/25 26/26/26
f 23/23/23 27/27/27 25/25/25
f 28/28/28 27/27/27 23/23/23
f 27/27/27 29/29/29 25/25/25
f 25/25/25 29/29/29 30/30/30
f 27/27/27 31/31/31 29/29/29
f 32/32/32 31/31/31 27/27/27
f 31/31/31 33/33/33 29/29/29
f 29/29/29 33/33/33 34/34/34
