g ViciousStriker_Head
v -0.00080738426 -0.40241817 1.7692066
v -0.029073028 -0.37464198 1.771826
v -0.0008073866 -0.37464198 1.7771096
v -0.026218152 -0.40241817 1.7644566
v -0.05352125 -0.37464198 1.7566882
v 0.024603251 -0.40241817 1.7644566
v 0.027458115 -0.37464198 1.771826
v -0.048197065 -0.40241817 1.7508477
v -0.07085016 -0.37464198 1.7337409
v 0.046582196 -0.40241817 1.7508479
v 0.051906373 -0.37464198 1.7566884
v -0.063775726 -0.40241817 1.7302183
v -0.07871939 -0.37464198 1.7060835
v 0.0621609 -0.40241817 1.7302183
v 0.06923533 -0.37464198 1.7337412
v -0.07085016 -0.40241817 1.7053542
v -0.07606622 -0.37464198 1.6774508
v 0.06923539 -0.40241817 1.7053545
v 0.077104636 -0.37464198 1.7060835
v -0.06846494 -0.40241817 1.6796135
v -0.06324889 -0.37464198 1.6517102
v 0.0668502 -0.40241817 1.6796137
v 0.07445146 -0.37464198 1.677451
v -0.05694219 -0.40241817 1.6564729
v -0.04199848 -0.37464198 1.6323379
v 0.055327468 -0.40241817 1.6564729
v 0.061634168 -0.37464198 1.6517103
v -0.03783811 -0.40241817 1.6390572
v -0.015184982 -0.37464198 1.6219501
v 0.036223404 -0.40241817 1.6390572
v 0.04038378 -0.37464198 1.632338
v -0.013732822 -0.40241817 1.6297188
v 0.01357029 -0.37464198 1.6219504
v 0.0121181235 -0.40241817 1.6297188
v -0.05172614 -0.42546368 1.6843762
v -0.043054175 -0.42546368 1.6669606
v -0.028676532 -0.42546368 1.6538535
v -0.010535006 -0.42546368 1.6468257
v 0.008920291 -0.42546368 1.6468257
v 0.02706181 -0.42546368 1.6538535
v -0.053521246 -0.42546368 1.7037486
v 0.041439436 -0.42546368 1.6669606
v -0.048197053 -0.42546368 1.7224611
v 0.050111387 -0.42546368 1.6843764
v -0.03647263 -0.42546368 1.7379867
v 0.05190647 -0.42546368 1.7037486
v -0.019931406 -0.42546368 1.7482285
v 0.046582248 -0.42546368 1.7224612
v -0.00080738426 -0.42546368 1.7518035
v 0.034857783 -0.42546368 1.7379867
v 0.018316539 -0.42546368 1.7482285
v 0.026495723 -0.44066614 1.6910954
v 0.02745826 -0.44066614 1.701483
v -0.0008073819 -0.44597256 1.6988637
v 0.021845743 -0.44066614 1.681757
v 0.024603363 -0.44066614 1.7115169
v 0.014136328 -0.44066614 1.674729
v 0.018316602 -0.44066614 1.7198421
v 0.0044086827 -0.44066614 1.6709605
v 0.009447036 -0.44066614 1.7253337
v -0.006023421 -0.44066614 1.6709605
v -0.00080738304 -0.44066614 1.7272505
v -0.015751071 -0.44066614 1.674729
v -0.011061854 -0.44066614 1.7253337
v -0.02346049 -0.44066614 1.681757
v -0.019931406 -0.44066614 1.7198418
v -0.028110474 -0.44066614 1.6910954
v -0.026218146 -0.44066614 1.7115169
v -0.029073028 -0.44066614 1.701483
v -0.0008073866 -0.37464198 1.7771096
v -0.029073028 -0.37464198 1.771826
v -0.02811048 -0.3458868 1.7693412
v -0.0008073866 -0.3458868 1.774445
v 0.027458115 -0.37464198 1.771826
v -0.051726144 -0.3458868 1.754719
v -0.05352125 -0.37464198 1.7566882
v 0.02649557 -0.3458868 1.7693412
v 0.051906373 -0.37464198 1.7566884
v -0.068464935 -0.3458868 1.7325532
v -0.07085016 -0.37464198 1.7337409
v 0.050111275 -0.3458868 1.754719
v 0.06923533 -0.37464198 1.7337412
v -0.07606622 -0.3458868 1.7058375
v -0.07871939 -0.37464198 1.7060835
v 0.06685012 -0.3458868 1.7325534
v 0.077104636 -0.37464198 1.7060835
v -0.07350337 -0.3458868 1.6781801
v -0.07606622 -0.37464198 1.6774508
v 0.07445144 -0.3458868 1.7058378
v 0.07445146 -0.37464198 1.677451
v -0.06112252 -0.3458868 1.6533159
v -0.06324889 -0.37464198 1.6517102
v 0.071888626 -0.3458868 1.6781801
v 0.061634168 -0.37464198 1.6517103
v -0.04059577 -0.3458868 1.6346034
v -0.04199848 -0.37464198 1.6323379
v 0.059507802 -0.3458868 1.653316
v 0.04038378 -0.37464198 1.632338
v -0.014695372 -0.3458868 1.6245695
v -0.015184982 -0.37464198 1.6219501
v 0.038981065 -0.3458868 1.6346034
v 0.01357029 -0.37464198 1.6219504
v 0.013080679 -0.3458868 1.6245695
v 0.061634116 -0.32003596 1.70465
v 0.05950777 -0.32003596 1.6817029
v 0.049235523 -0.32003596 1.6610734
v 0.032204695 -0.32003596 1.6455476
v 0.010715404 -0.32003596 1.6372228
v -0.01233011 -0.32003596 1.6372228
v 0.055327374 -0.32003596 1.7268157
v -0.03381941 -0.32003596 1.6455476
v 0.04143932 -0.32003596 1.7452064
v -0.050850254 -0.32003596 1.6610732
v 0.021845605 -0.32003596 1.7573384
v -0.06112251 -0.32003596 1.6817027
v -0.00080738426 -0.32003596 1.761573
v -0.06324889 -0.32003596 1.7046499
v -0.02346049 -0.32003596 1.7573384
v -0.056942184 -0.32003596 1.7268156
v -0.043054175 -0.32003596 1.7452064
v -0.033819422 -0.30058056 1.6739345
v -0.040595785 -0.30058056 1.6875432
v -0.0008073819 -0.28881052 1.698864
v -0.041998494 -0.30058056 1.7026808
v -0.022584602 -0.30058056 1.6636925
v -0.03783812 -0.30058056 1.7173029
v -0.00840864 -0.30058056 1.6582006
v -0.028676547 -0.30058056 1.729435
v 0.006793914 -0.30058056 1.6582006
v -0.015751075 -0.30058056 1.7374378
v 0.020969868 -0.30058056 1.6636925
v -0.00080738304 -0.30058056 1.7402314
v 0.032204684 -0.30058056 1.6739345
v 0.0141362315 -0.30058056 1.7374382
v 0.038981028 -0.30058056 1.6875432
v 0.02706172 -0.30058056 1.729435
v 0.04038373 -0.30058056 1.7026808
v 0.036223326 -0.30058056 1.7173029
vt 0.14337718 0.8093329
vt 0.13528049 0.81008315
vt 0.14337718 0.8115967
vt 0.13609831 0.8079723
vt 0.12827736 0.80574715
vt 0.15065598 0.8079723
vt 0.15147369 0.81008315
vt 0.1298025 0.804074
vt 0.12331355 0.79917395
vt 0.15695177 0.8040741
vt 0.1584769 0.80574715
vt 0.12534003 0.7981648
vt 0.1210594 0.7912515
vt 0.1614143 0.7981649
vt 0.16344073 0.7991741
vt 0.12331355 0.7910426
vt 0.12181944 0.7830498
vt 0.16344073 0.7910426
vt 0.16569486 0.7912515
vt 0.12399678 0.7836693
vt 0.1254909 0.7756763
vt 0.16275753 0.7836693
vt 0.1649349 0.7830498
vt 0.12729745 0.7770406
vt 0.13157807 0.77012724
vt 0.15945685 0.7770406
vt 0.16126345 0.7756763
vt 0.1327698 0.77205193
vt 0.13925874 0.7671517
vt 0.15398456 0.77205193
vt 0.15517628 0.77012724
vt 0.13967468 0.769377
vt 0.1474956 0.7671517
vt 0.14707957 0.769377
vt 0.12879154 0.7850336
vt 0.13127561 0.78004485
vt 0.13539411 0.7762903
vt 0.14059071 0.77427727
vt 0.14616364 0.77427727
vt 0.15136024 0.7762903
vt 0.12827736 0.79058266
vt 0.15547866 0.78004485
vt 0.1298025 0.7959428
vt 0.15796272 0.7850336
vt 0.13316089 0.8003902
vt 0.1584769 0.79058266
vt 0.13789907 0.80332386
vt 0.15695177 0.7959428
vt 0.14337718 0.80434775
vt 0.15359338 0.8003902
vt 0.1488552 0.80332386
vt 0.15119803 0.7869583
vt 0.15147378 0.7899336
vt 0.14337718 0.78918344
vt 0.14986606 0.7842832
vt 0.15065598 0.79280794
vt 0.14765774 0.7822701
vt 0.1488552 0.7951926
vt 0.14487128 0.78119063
vt 0.14631449 0.79676557
vt 0.14188308 0.78119063
vt 0.14337718 0.7973147
vt 0.13909653 0.7822701
vt 0.14043978 0.79676557
vt 0.1368882 0.7842832
vt 0.13789907 0.7951925
vt 0.13555627 0.7869583
vt 0.13609831 0.79280794
vt 0.13528049 0.7899336
vt 0.14337718 0.8115967
vt 0.13528049 0.81008315
vt 0.13555627 0.8093715
vt 0.14337718 0.8108334
vt 0.15147369 0.81008315
vt 0.12879154 0.805183
vt 0.12827736 0.80574715
vt 0.15119803 0.8093715
vt 0.1584769 0.80574715
vt 0.12399678 0.79883367
vt 0.12331355 0.79917395
vt 0.15796272 0.805183
vt 0.16344073 0.7991741
vt 0.12181944 0.791181
vt 0.1210594 0.7912515
vt 0.16275747 0.79883367
vt 0.16569486 0.7912515
vt 0.1225535 0.78325874
vt 0.12181944 0.7830498
vt 0.1649349 0.79118115
vt 0.1649349 0.7830498
vt 0.12609999 0.7761364
vt 0.1254909 0.7756763
vt 0.16420075 0.78325874
vt 0.16126345 0.7756763
vt 0.13197987 0.77077615
vt 0.13157807 0.77012724
vt 0.16065434 0.7761364
vt 0.15517628 0.77012724
vt 0.1393989 0.76790196
vt 0.13925874 0.7671517
vt 0.15477449 0.7707763
vt 0.1474956 0.7671517
vt 0.14735536 0.76790196
vt 0.16126336 0.7908409
vt 0.16065428 0.7842677
vt 0.15771182 0.77835834
vt 0.15283336 0.7739111
vt 0.14667782 0.77152646
vt 0.14007647 0.77152646
vt 0.15945685 0.7971902
vt 0.13392094 0.7739111
vt 0.15547866 0.8024581
vt 0.12904248 0.77835834
vt 0.14986606 0.8059333
vt 0.12609999 0.7842677
vt 0.14337718 0.80714625
vt 0.1254909 0.7908408
vt 0.1368882 0.8059332
vt 0.12729745 0.7971902
vt 0.13127561 0.8024579
vt 0.13392094 0.78204256
vt 0.13197987 0.7859407
vt 0.14337718 0.78918344
vt 0.13157807 0.79027677
vt 0.13713914 0.7791086
vt 0.1327698 0.79446536
vt 0.14119983 0.7775355
vt 0.13539411 0.79794043
vt 0.14555453 0.7775355
vt 0.13909653 0.800233
vt 0.14961521 0.7791086
vt 0.14337718 0.8010331
vt 0.15283336 0.78204256
vt 0.14765774 0.800233
vt 0.1547744 0.7859407
vt 0.15136015 0.79794043
vt 0.15517628 0.79027677
vt 0.15398456 0.79446536
vn 4.1894228E-07 -0.43736982 0.89928174
vn -0.3597636 -0.09035247 0.9286584
vn 4.4112784E-07 -0.0903519 0.9959099
vn -0.3248585 -0.4373699 0.83855504
vn -0.67094094 -0.09035281 0.73598546
vn 0.32485682 -0.43737015 0.8385556
vn 0.3597621 -0.090351835 0.92865914
vn -0.605843 -0.43736967 0.66457665
vn -0.891502 -0.09035242 0.44391504
vn 0.6058411 -0.43737 0.66457814
vn 0.67093885 -0.0903522 0.7359875
vn -0.80500424 -0.4373688 0.40084493
vn -0.9916614 -0.09035238 0.09189167
vn 0.8050039 -0.4373691 0.40084535
vn 0.8915012 -0.09035274 0.4439168
vn -0.895446 -0.4373687 0.08297572
vn -0.9578917 -0.09035271 -0.2725435
vn 0.8954459 -0.43736872 0.082977265
vn 0.9916613 -0.090352796 0.091892004
vn -0.86495245 -0.43736887 -0.24610132
vn -0.79475266 -0.09035315 -0.6001705
vn 0.86495304 -0.4373687 -0.24609892
vn 0.9578919 -0.090353034 -0.2725425
vn -0.71764255 -0.43736902 -0.54193866
vn -0.5242792 -0.090353005 -0.84673935
vn 0.7176439 -0.43736812 -0.54193753
vn 0.7947537 -0.09035307 -0.6001691
vn -0.47341093 -0.43736967 -0.76458484
vn -0.18299729 -0.09035267 -0.97895265
vn 0.4734114 -0.43736777 -0.7645855
vn 0.5242802 -0.090352684 -0.8467389
vn -0.16524124 -0.43737075 -0.8839696
vn 0.18300018 -0.09035278 -0.97895217
vn 0.16524285 -0.43736964 -0.8839698
vn -0.65898436 -0.7284121 -0.18749757
vn -0.5467529 -0.7284118 -0.41288906
vn -0.36067832 -0.7284119 -0.58251804
vn -0.12589215 -0.7284125 -0.6734735
vn 0.12589215 -0.72841257 -0.6734733
vn 0.3606784 -0.72841203 -0.58251774
vn -0.6822166 -0.728412 0.06321755
vn 0.5467542 -0.7284117 -0.41288778
vn -0.6133115 -0.728412 0.30539325
vn 0.65898526 -0.7284118 -0.18749616
vn -0.4615756 -0.72841173 0.50632435
vn 0.6822166 -0.728412 0.063217886
vn -0.24750116 -0.72841215 0.6388731
vn 0.6133113 -0.7284116 0.30539453
vn 3.2827748E-07 -0.728412 0.68513936
vn 0.46157432 -0.72841185 0.50632524
vn 0.24750026 -0.72841203 0.63887364
vn 0.36523542 -0.92509687 -0.103918254
vn 0.37811095 -0.9250969 0.03503737
vn -0 -1 -3.3161285E-07
vn 0.303032 -0.9250969 -0.22883882
vn 0.33992088 -0.9250972 0.16926005
vn 0.19990163 -0.9250969 -0.32285434
vn 0.25582305 -0.92509633 0.28062648
vn 0.06977422 -0.92509675 -0.3732661
vn 0.13717313 -0.92509687 0.35408938
vn -0.069774225 -0.92509675 -0.3732661
vn 1.8532488E-07 -0.92509735 0.37973005
vn -0.19990163 -0.9250969 -0.32285452
vn -0.13717422 -0.92509687 0.35408914
vn -0.30303168 -0.9250969 -0.22883923
vn -0.25582328 -0.92509687 0.28062457
vn -0.365235 -0.92509687 -0.103918634
vn -0.33992112 -0.92509705 0.16926035
vn -0.37811095 -0.9250969 0.035037108
vn 4.4112784E-07 -0.0903519 0.9959099
vn -0.3597636 -0.09035247 0.9286584
vn -0.34801015 0.26816535 0.89831865
vn 4.2034324E-07 0.268165 0.963373
vn 0.3597621 -0.090351835 0.92865914
vn -0.6490212 0.26816577 0.7119401
vn -0.67094094 -0.09035281 0.73598546
vn 0.3480096 0.26816574 0.8983187
vn 0.67093885 -0.0903522 0.7359875
vn -0.86237633 0.26816592 0.42941138
vn -0.891502 -0.09035242 0.44391504
vn 0.64901906 0.26816642 0.71194166
vn 0.8915012 -0.09035274 0.4439168
vn -0.9592632 0.26816595 0.08888864
vn -0.9916614 -0.09035238 0.09189167
vn 0.862375 0.26816592 0.42941397
vn 0.9916613 -0.090352796 0.091892004
vn -0.92659664 0.26816612 -0.26363903
vn -0.9578917 -0.09035271 -0.2725435
vn 0.95926297 0.26816574 0.08889119
vn 0.9578919 -0.090353034 -0.2725425
vn -0.7687872 0.2681664 -0.58056265
vn -0.79475266 -0.09035315 -0.6001705
vn 0.92659664 0.26816612 -0.26363912
vn 0.7947537 -0.09035307 -0.6001691
vn -0.5071494 0.26816735 -0.8190761
vn -0.5242792 -0.090353005 -0.84673935
vn 0.7687882 0.2681659 -0.5805616
vn 0.5242802 -0.090352684 -0.8467389
vn -0.1770186 0.26816848 -0.94696885
vn -0.18299729 -0.09035267 -0.97895265
vn 0.5071509 0.2681657 -0.81907576
vn 0.18300018 -0.09035278 -0.97895217
vn 0.17702013 0.2681673 -0.946969
vn 0.8021454 0.5924843 0.07433146
vn 0.7748294 0.59248465 -0.22045717
vn 0.64286894 0.5924851 -0.48547
vn 0.4240846 0.5924848 -0.68491894
vn 0.14802447 0.59248483 -0.79186517
vn -0.14802442 0.5924847 -0.79186517
vn 0.7211267 0.59248394 0.3590808
vn -0.42408314 0.59248483 -0.6849198
vn 0.54271746 0.592483 0.5953332
vn -0.64286774 0.5924852 -0.4854713
vn 0.29101026 0.5924822 0.7511843
vn -0.7748291 0.5924847 -0.22045812
vn -7.620072E-07 0.59248257 0.8055833
vn -0.8021457 0.59248406 0.07433017
vn -0.29100993 0.5924835 0.7511835
vn -0.72112817 0.5924837 0.35907826
vn -0.54271793 0.59248376 0.595332
vn -0.40428117 0.8621774 -0.3052983
vn -0.48726755 0.8621771 -0.13863987
vn -0 1 4.89212E-07
vn -0.5044462 0.8621769 0.046743907
vn -0.26669464 0.86217684 -0.43072623
vn -0.45349666 0.86217684 0.22581388
vn -0.093088366 0.8621765 -0.4979822
vn -0.34129903 0.86217684 0.37438786
vn 0.0930884 0.86217654 -0.49798217
vn -0.18300718 0.86217797 0.4723955
vn 0.2666953 0.8621767 -0.43072602
vn -2.5237953E-06 0.86217755 0.5066063
vn 0.40428203 0.8621769 -0.3052981
vn 0.18300769 0.86217636 0.4723981
vn 0.48726806 0.86217684 -0.13863975
vn 0.3413 0.8621767 0.3743869
vn 0.5044461 0.862177 0.04674432
vn 0.45349583 0.862177 0.2258147
g ViciousStriker_Head_0
f 3/3/3 2/2/2 1/1/1
f 2/2/2 4/4/4 1/1/1
f 2/2/2 5/5/5 4/4/4
f 3/3/3 1/1/1 6/6/6
f 7/7/7 3/3/3 6/6/6
f 5/5/5 8/8/8 4/4/4
f 5/5/5 9/9/9 8/8/8
f 7/7/7 6/6/6 10/10/10
f 11/11/11 7/7/7 10/10/10
f 9/9/9 12/12/12 8/8/8
f 9/9/9 13/13/13 12/12/12
f 11/11/11 10/10/10 14/14/14
f 15/15/15 11/11/11 14/14/14
f 13/13/13 16/16/16 12/12/12
f 13/13/13 17/17/17 16/16/16
f 15/15/15 14/14/14 18/18/18
f 19/19/19 15/15/15 18/18/18
f 17/17/17 20/20/20 16/16/16
f 17/17/17 21/21/21 20/20/20
f 19/19/19 18/18/18 22/22/22
f 23/23/23 19/19/19 22/22/22
f 21/21/21 24/24/24 20/20/20
f 21/21/21 25/25/25 24/24/24
f 23/23/23 22/22/22 26/26/26
f 27/27/27 23/23/23 26/26/26
f 25/25/25 28/28/28 24/24/24
f 25/25/25 29/29/29 28/28/28
f 27/27/27 26/26/26 30/30/30
f 31/31/31 27/27/27 30/30/30
f 29/29/29 32/32/32 28/28/28
f 29/29/29 33/33/33 32/32/32
f 33/33/33 31/31/31 34/34/34
f 31/31/31 30/30/30 34/34/34
f 33/33/33 34/34/34 32/32/32
f 20/20/20 24/24/24 35/35/35
f 24/24/24 28/28/28 36/36/36
f 24/24/24 36/36/36 35/35/35
f 28/28/28 32/32/32 37/37/37
f 28/28/28 37/37/37 36/36/36
f 32/32/32 34/34/34 38/38/38
f 32/32/32 38/38/38 37/37/37
f 34/34/34 30/30/30 39/39/39
f 34/34/34 39/39/39 38/38/38
f 30/30/30 26/26/26 40/40/40
f 30/30/30 40/40/40 39/39/39
f 20/20/20 35/35/35 41/41/41
f 16/16/16 20/20/20 41/41/41
f 26/26/26 42/42/42 40/40/40
f 26/26/26 22/22/22 42/42/42
f 16/16/16 41/41/41 43/43/43
f 12/12/12 16/16/16 43/43/43
f 22/22/22 44/44/44 42/42/42
f 22/22/22 18/18/18 44/44/44
f 12/12/12 43/43/43 45/45/45
f 8/8/8 12/12/12 45/45/45
f 18/18/18 46/46/46 44/44/44
f 18/18/18 14/14/14 46/46/46
f 8/8/8 45/45/45 47/47/47
f 4/4/4 8/8/8 47/47/47
f 14/14/14 48/48/48 46/46/46
f 14/14/14 10/10/10 48/48/48
f 4/4/4 47/47/47 49/49/49
f 1/1/1 4/4/4 49/49/49
f 10/10/10 50/50/50 48/48/48
f 10/10/10 6/6/6 50/50/50
f 6/6/6 1/1/1 51/51/51
f 1/1/1 49/49/49 51/51/51
f 6/6/6 51/51/51 50/50/50
f 44/44/44 46/46/46 52/52/52
f 46/46/46 48/48/48 53/53/53
f 46/46/46 53/53/53 52/52/52
f 52/52/52 53/53/53 54/54/54
f 55/55/55 52/52/52 54/54/54
f 44/44/44 52/52/52 55/55/55
f 42/42/42 44/44/44 55/55/55
f 48/48/48 56/56/56 53/53/53
f 48/48/48 50/50/50 56/56/56
f 53/53/53 56/56/56 54/54/54
f 42/42/42 55/55/55 57/57/57
f 57/57/57 55/55/55 54/54/54
f 40/40/40 42/42/42 57/57/57
f 50/50/50 58/58/58 56/56/56
f 50/50/50 51/51/51 58/58/58
f 56/56/56 58/58/58 54/54/54
f 40/40/40 57/57/57 59/59/59
f 59/59/59 57/57/57 54/54/54
f 39/39/39 40/40/40 59/59/59
f 51/51/51 60/60/60 58/58/58
f 58/58/58 60/60/60 54/54/54
f 51/51/51 49/49/49 60/60/60
f 61/61/61 59/59/59 54/54/54
f 39/39/39 59/59/59 61/61/61
f 60/60/60 62/62/62 54/54/54
f 49/49/49 62/62/62 60/60/60
f 63/63/63 61/61/61 54/54/54
f 38/38/38 39/39/39 61/61/61
f 38/38/38 61/61/61 63/63/63
f 49/49/49 47/47/47 62/62/62
f 37/37/37 38/38/38 63/63/63
f 47/47/47 64/64/64 62/62/62
f 62/62/62 64/64/64 54/54/54
f 47/47/47 45/45/45 64/64/64
f 37/37/37 63/63/63 65/65/65
f 65/65/65 63/63/63 54/54/54
f 36/36/36 37/37/37 65/65/65
f 45/45/45 66/66/66 64/64/64
f 64/64/64 66/66/66 54/54/54
f 45/45/45 43/43/43 66/66/66
f 36/36/36 65/65/65 67/67/67
f 67/67/67 65/65/65 54/54/54
f 35/35/35 36/36/36 67/67/67
f 43/43/43 68/68/68 66/66/66
f 66/66/66 68/68/68 54/54/54
f 43/43/43 41/41/41 68/68/68
f 69/69/69 67/67/67 54/54/54
f 35/35/35 67/67/67 69/69/69
f 68/68/68 69/69/69 54/54/54
f 41/41/41 69/69/69 68/68/68
f 41/41/41 35/35/35 69/69/69
f 72/72/72 71/71/71 70/70/70
f 73/73/73 72/72/72 70/70/70
f 73/73/73 70/70/70 74/74/74
f 72/72/72 75/75/75 71/71/71
f 75/75/75 76/76/76 71/71/71
f 77/77/77 73/73/73 74/74/74
f 77/77/77 74/74/74 78/78/78
f 75/75/75 79/79/79 76/76/76
f 79/79/79 80/80/80 76/76/76
f 81/81/81 77/77/77 78/78/78
f 81/81/81 78/78/78 82/82/82
f 79/79/79 83/83/83 80/80/80
f 83/83/83 84/84/84 80/80/80
f 85/85/85 81/81/81 82/82/82
f 85/85/85 82/82/82 86/86/86
f 83/83/83 87/87/87 84/84/84
f 87/87/87 88/88/88 84/84/84
f 89/89/89 85/85/85 86/86/86
f 89/89/89 86/86/86 90/90/90
f 87/87/87 91/91/91 88/88/88
f 91/91/91 92/92/92 88/88/88
f 93/93/93 89/89/89 90/90/90
f 93/93/93 90/90/90 94/94/94
f 91/91/91 95/95/95 92/92/92
f 95/95/95 96/96/96 92/92/92
f 97/97/97 93/93/93 94/94/94
f 97/97/97 94/94/94 98/98/98
f 95/95/95 99/99/99 96/96/96
f 99/99/99 100/100/100 96/96/96
f 101/101/101 97/97/97 98/98/98
f 101/101/101 98/98/98 102/102/102
f 103/103/103 102/102/102 100/100/100
f 99/99/99 103/103/103 100/100/100
f 103/103/103 101/101/101 102/102/102
f 104/104/104 89/89/89 93/93/93
f 105/105/105 93/93/93 97/97/97
f 105/105/105 104/104/104 93/93/93
f 106/106/106 97/97/97 101/101/101
f 106/106/106 105/105/105 97/97/97
f 107/107/107 101/101/101 103/103/103
f 107/107/107 106/106/106 101/101/101
f 108/108/108 103/103/103 99/99/99
f 108/108/108 107/107/107 103/103/103
f 109/109/109 99/99/99 95/95/95
f 109/109/109 108/108/108 99/99/99
f 104/104/104 110/110/110 89/89/89
f 110/110/110 85/85/85 89/89/89
f 111/111/111 109/109/109 95/95/95
f 111/111/111 95/95/95 91/91/91
f 110/110/110 112/112/112 85/85/85
f 112/112/112 81/81/81 85/85/85
f 113/113/113 111/111/111 91/91/91
f 113/113/113 91/91/91 87/87/87
f 112/112/112 114/114/114 81/81/81
f 114/114/114 77/77/77 81/81/81
f 115/115/115 113/113/113 87/87/87
f 115/115/115 87/87/87 83/83/83
f 114/114/114 116/116/116 77/77/77
f 116/116/116 73/73/73 77/77/77
f 117/117/117 115/115/115 83/83/83
f 117/117/117 83/83/83 79/79/79
f 116/116/116 118/118/118 73/73/73
f 118/118/118 72/72/72 73/73/73
f 119/119/119 117/117/117 79/79/79
f 119/119/119 79/79/79 75/75/75
f 120/120/120 75/75/75 72/72/72
f 118/118/118 120/120/120 72/72/72
f 120/120/120 119/119/119 75/75/75
f 121/121/121 113/113/113 115/115/115
f 122/122/122 115/115/115 117/117/117
f 122/122/122 121/121/121 115/115/115
f 121/121/121 122/122/122 123/123/123
f 122/122/122 124/124/124 123/123/123
f 124/124/124 122/122/122 117/117/117
f 124/124/124 117/117/117 119/119/119
f 121/121/121 125/125/125 113/113/113
f 125/125/125 121/121/121 123/123/123
f 125/125/125 111/111/111 113/113/113
f 126/126/126 124/124/124 119/119/119
f 126/126/126 119/119/119 120/120/120
f 124/124/124 126/126/126 123/123/123
f 125/125/125 127/127/127 111/111/111
f 127/127/127 125/125/125 123/123/123
f 127/127/127 109/109/109 111/111/111
f 128/128/128 126/126/126 120/120/120
f 126/126/126 128/128/128 123/123/123
f 128/128/128 120/120/120 118/118/118
f 127/127/127 129/129/129 109/109/109
f 129/129/129 127/127/127 123/123/123
f 129/129/129 108/108/108 109/109/109
f 130/130/130 128/128/128 118/118/118
f 128/128/128 130/130/130 123/123/123
f 131/131/131 129/129/129 123/123/123
f 129/129/129 131/131/131 108/108/108
f 130/130/130 132/132/132 123/123/123
f 130/130/130 118/118/118 116/116/116
f 132/132/132 130/130/130 116/116/116
f 131/131/131 107/107/107 108/108/108
f 132/132/132 116/116/116 114/114/114
f 131/131/131 133/133/133 107/107/107
f 133/133/133 131/131/131 123/123/123
f 133/133/133 106/106/106 107/107/107
f 134/134/134 132/132/132 114/114/114
f 132/132/132 134/134/134 123/123/123
f 134/134/134 114/114/114 112/112/112
f 133/133/133 135/135/135 106/106/106
f 135/135/135 133/133/133 123/123/123
f 135/135/135 105/105/105 106/106/106
f 136/136/136 134/134/134 112/112/112
f 134/134/134 136/136/136 123/123/123
f 136/136/136 112/112/112 110/110/110
f 135/135/135 137/137/137 105/105/105
f 137/137/137 135/135/135 123/123/123
f 137/137/137 104/104/104 105/105/105
f 138/138/138 110/110/110 104/104/104
f 138/138/138 136/136/136 110/110/110
f 136/136/136 138/138/138 123/123/123
f 137/137/137 138/138/138 104/104/104
f 138/138/138 137/137/137 123/123/123
