g NPC_Female_Size03_Body_004_LOD1
v 0.03434377 0.09192067 1.4161156
v 5.237908E-18 0.098548286 1.4132955
v 6.2399598E-18 0.092934445 1.3904201
v 0.03336015 0.086588666 1.3946072
v 0.06201028 0.07409279 1.4212344
v 0.030121988 0.07567177 1.3780179
v 8.034395E-18 0.08104291 1.373768
v 0.060610212 0.06995645 1.4032866
v 0.05524815 0.061381806 1.3868241
v 0.07141388 0.042700075 1.4092138
v 0.07295615 0.043995693 1.4245199
v 0.06751931 0.038682025 1.3950021
v 0.07307739 0.012911478 1.4254178
v 0.07172448 0.015729664 1.410571
v 0.070313945 0.015777992 1.4020116
v 0.07065161 -0.0021027417 1.4107319
v 0.07182904 -0.004246954 1.4249016
v 0.07046064 0.0016132612 1.4038239
v 0.06928406 -0.001054065 1.3964446
v 0.070115834 -0.0014199507 1.4038111
v -0.03434377 0.09192067 1.4161156
v 6.2399598E-18 0.092934445 1.3904201
v 5.237908E-18 0.098548286 1.4132955
v -0.03336015 0.086588666 1.3946072
v -0.06201028 0.07409279 1.4212344
v -0.030121988 0.07567177 1.3780179
v 8.034395E-18 0.08104291 1.373768
v -0.060610212 0.06995645 1.4032866
v -0.05524815 0.061381806 1.3868241
v -0.07141388 0.042700075 1.4092138
v -0.07295615 0.043995693 1.4245199
v -0.06751931 0.038682025 1.3950021
v -0.07307739 0.012911478 1.4254178
v -0.07172448 0.015729664 1.410571
v -0.070313945 0.015777992 1.4020116
v -0.07065161 -0.0021027417 1.4107319
v -0.07182904 -0.004246954 1.4249016
v -0.07046064 0.0016132612 1.4038239
v -0.06928406 -0.001054065 1.3964446
v -0.070115834 -0.0014199507 1.4038111
v 0.05954061 0.0020441283 1.3629218
v 0.06101794 -0.0019443682 1.3627807
v 0.06358335 -0.0015376649 1.3723645
v 0.060860723 0.01729823 1.3705887
v 0.065795615 -0.0012150465 1.3805255
v 0.057241447 0.0021071502 1.3600268
v 0.06483657 0.024437496 1.3814038
v 0.06799076 -0.0011534952 1.3887078
v 0.06822807 0.023683643 1.3911778
v 0.06928406 -0.001054065 1.3964446
v 0.070313945 0.015777992 1.4020116
v 0.06751931 0.038682025 1.3950021
v 0.058739867 0.039073627 1.3780475
v 0.05524815 0.061381806 1.3868241
v 0.052961383 0.029009884 1.3645333
v 0.04804758 0.048751313 1.3725805
v 0.030121988 0.07567177 1.3780179
v 0.052702505 0.019988375 1.3542073
v 0.054452848 0.001919581 1.3518002
v 0.04793363 0.00095302693 1.3306503
v 0.02607537 0.061320174 1.3652978
v 8.034395E-18 0.08104291 1.373768
v 3.7158446E-18 0.068765245 1.3614801
v 0.04691097 0.03907942 1.358386
v 0.024734987 0.058277328 1.3432401
v -1.5694955E-18 0.0666376 1.3439293
v 0.046312876 0.037975557 1.3407629
v 0.025640313 0.06067918 1.3194609
v -1.0546476E-09 0.06961276 1.316668
v 0.024726547 0.0625559 1.3141384
v 0.04845102 0.039975725 1.3060441
v 0.050731104 0.019675959 1.3382046
v 0.046906065 0.039013296 1.3189634
v 0.04817985 0.018974556 1.3163319
v 0.04748292 0.018428033 1.2982049
v 0.042842794 0.0014182364 1.3130904
v 0.039773695 0.00022642894 1.291795
v 0.04292618 -0.003694615 1.3236451
v 0.023052717 -0.007371912 1.2890713
v 0.035089187 -0.0019429831 1.3113468
v 0.03560428 -0.00816272 1.3164002
v 0.030844484 -0.015277464 1.3153201
v 0.017978186 -0.011186459 1.2974805
v 1.6001263E-17 -0.01966816 1.2846633
v 1.9307343E-17 -0.020767903 1.2892375
v 0.027751751 -0.015094574 1.308135
v 0.014772901 -0.022172078 1.3007452
v 1.2006572E-17 -0.026815187 1.296573
v 0.018960394 -0.024446262 1.3080013
v -7.659197E-08 -0.032243676 1.3011099
v -0.059540566 0.0020441166 1.3629217
v -0.06358338 -0.0015376691 1.3723645
v -0.061017975 -0.0019443732 1.3627809
v -0.060860723 0.01729823 1.3705887
v -0.06579563 -0.0012150458 1.3805255
v -0.057241447 0.0021071502 1.3600268
v -0.06483657 0.024437496 1.3814038
v -0.06799076 -0.0011534989 1.3887079
v -0.06822807 0.023683643 1.3911778
v -0.06928406 -0.001054065 1.3964446
v -0.070313945 0.015777992 1.4020116
v -0.06751931 0.038682025 1.3950021
v -0.058739867 0.039073627 1.3780475
v -0.05524815 0.061381806 1.3868241
v -0.052961383 0.029009884 1.3645333
v -0.04804758 0.048751313 1.3725805
v -0.030121988 0.07567177 1.3780179
v -0.052702505 0.019988375 1.3542073
v -0.054452885 0.001919587 1.3518002
v -0.02607537 0.061320174 1.3652978
v 8.034395E-18 0.08104291 1.373768
v 3.7158446E-18 0.068765245 1.3614801
v -0.04691097 0.03907942 1.358386
v -0.024734987 0.058277328 1.3432401
v -1.5694955E-18 0.0666376 1.3439293
v -0.050731104 0.019675959 1.3382046
v -0.047933564 0.0009530617 1.3306503
v -0.046312876 0.037975557 1.3407629
v -0.025640313 0.06067918 1.3194609
v -1.0546476E-09 0.06961276 1.316668
v -0.024726553 0.062555894 1.3141384
v -0.046906065 0.039013296 1.3189634
v -0.048451032 0.039975733 1.306044
v -0.04817985 0.018974556 1.3163319
v -0.04748292 0.018428044 1.2982049
v -0.042842794 0.0014182364 1.3130904
v -0.039773695 0.00022642869 1.291795
v -0.04292618 -0.003694615 1.3236451
v -0.035089187 -0.0019429831 1.3113468
v -0.023052711 -0.0073719155 1.2890713
v -0.03560428 -0.00816272 1.3164002
v -0.030844446 -0.0152774 1.3153199
v -0.017978186 -0.011186459 1.2974805
v 1.6001263E-17 -0.01966816 1.2846633
v 1.9307343E-17 -0.020767903 1.2892375
v -0.027751751 -0.015094574 1.308135
v -0.014772901 -0.022172078 1.3007452
v 1.2006572E-17 -0.026815187 1.296573
v -0.018960396 -0.024446273 1.308001
v -7.659197E-08 -0.032243676 1.3011099
vt 0.94468606 0.80308706
vt 0.97686243 0.80628955
vt 0.97761154 0.7826684
vt 0.9457663 0.7829463
vt 0.91389847 0.8017021
vt 0.946185 0.76459885
vt 0.9764011 0.76325965
vt 0.9144354 0.78551835
vt 0.9143808 0.76806325
vt 0.884884 0.78684574
vt 0.88350976 0.8008812
vt 0.88471687 0.7726977
vt 0.8542423 0.80071783
vt 0.8583579 0.78640246
vt 0.85936284 0.7781848
vt 0.84118223 0.7863566
vt 0.837996 0.8006236
vt 0.8452804 0.7798281
vt 0.84305453 0.7728959
vt 0.8423705 0.7797452
vt 0.94468606 0.80308706
vt 0.97761154 0.7826684
vt 0.97686243 0.80628955
vt 0.9457663 0.7829463
vt 0.91389847 0.8017021
vt 0.946185 0.7645989
vt 0.9764011 0.76325965
vt 0.9144354 0.78551835
vt 0.9143808 0.76806325
vt 0.884884 0.78684574
vt 0.88350976 0.8008812
vt 0.88471687 0.7726977
vt 0.8542423 0.80071807
vt 0.8583579 0.78640246
vt 0.85936284 0.7781848
vt 0.84118223 0.7863566
vt 0.837996 0.8006237
vt 0.8452804 0.7798281
vt 0.84305453 0.7728959
vt 0.8423705 0.7797452
vt 0.46487617 0.9542202
vt 0.4644244 0.95840484
vt 0.47050026 0.9625715
vt 0.47904062 0.95885193
vt 0.47318095 0.9699758
vt 0.4644513 0.95093566
vt 0.4858812 0.9685735
vt 0.4728196 0.97542363
vt 0.48565578 0.9781685
vt 0.4702889 0.9857359
vt 0.47906566 0.9888691
vt 0.4994067 0.9804162
vt 0.49941206 0.9623699
vt 0.5200014 0.96838456
vt 0.48980165 0.9490434
vt 0.509892 0.9525386
vt 0.5397918 0.9518079
vt 0.47975922 0.94150305
vt 0.46290445 0.94371235
vt 0.45715785 0.92555296
vt 0.52907085 0.93696296
vt 0.56113124 0.9347671
vt 0.55088353 0.9229509
vt 0.49894142 0.9402696
vt 0.52109486 0.917483
vt 0.5444803 0.90962946
vt 0.493227 0.9242463
vt 0.5147586 0.89592814
vt 0.5386081 0.88753176
vt 0.51402146 0.89291453
vt 0.48299608 0.89274275
vt 0.47559774 0.9272194
vt 0.48686075 0.90434533
vt 0.46799302 0.90813106
vt 0.46130654 0.89280933
vt 0.45035434 0.91052127
vt 0.44205782 0.8924482
vt 0.4499135 0.9213003
vt 0.4244816 0.8941737
vt 0.44218588 0.9105399
vt 0.43918848 0.91823745
vt 0.43096352 0.9239909
vt 0.42041886 0.90339416
vt 0.39722776 0.8971443
vt 0.39722776 0.9019464
vt 0.42706633 0.91549087
vt 0.4115119 0.91389465
vt 0.39722776 0.9150427
vt 0.41511774 0.9263444
vt 0.39722776 0.929406
vt 0.46487617 0.9542202
vt 0.47050026 0.9625715
vt 0.4644244 0.95840484
vt 0.47904074 0.95885193
vt 0.47318095 0.9699758
vt 0.4644513 0.95093566
vt 0.48588133 0.9685735
vt 0.4728196 0.97542363
vt 0.48565578 0.9781685
vt 0.4702889 0.9857359
vt 0.47906566 0.9888691
vt 0.4994067 0.9804162
vt 0.49941206 0.9623699
vt 0.5200014 0.96838456
vt 0.48980165 0.9490434
vt 0.509892 0.9525386
vt 0.5397918 0.9518079
vt 0.47975922 0.94150305
vt 0.46290445 0.94371235
vt 0.52907085 0.93696296
vt 0.56113124 0.9347671
vt 0.55088353 0.9229509
vt 0.49894142 0.9402696
vt 0.52109486 0.917483
vt 0.5444803 0.90962946
vt 0.47559774 0.9272194
vt 0.45715785 0.92555296
vt 0.493227 0.9242463
vt 0.5147586 0.89592814
vt 0.53860813 0.8875318
vt 0.51402146 0.8929146
vt 0.48686075 0.90434533
vt 0.48299608 0.89274263
vt 0.46799302 0.90813106
vt 0.46130654 0.89280933
vt 0.45035458 0.91052127
vt 0.4420579 0.8924482
vt 0.4499135 0.9213003
vt 0.44218588 0.9105399
vt 0.42448157 0.8941737
vt 0.43918848 0.91823745
vt 0.43096352 0.9239909
vt 0.42041886 0.90339416
vt 0.39722776 0.8971443
vt 0.39722776 0.9019464
vt 0.42706633 0.91549087
vt 0.4115119 0.91389465
vt 0.39722776 0.9150427
vt 0.41511774 0.9263444
vt 0.39722776 0.929406
vn 0.39698422 0.8869524 -0.23604847
vn -0 0.969813 -0.24384968
vn 2.944041E-07 0.90612316 -0.42301416
vn 0.39702228 0.82550853 -0.40113458
vn 0.7828412 0.5925394 -0.18988602
vn 0.39093816 0.66011006 -0.64142185
vn 6.3625015E-07 0.7441063 -0.6680612
vn 0.76619464 0.5559027 -0.32236284
vn 0.695909 0.4633262 -0.5486706
vn 0.96170294 0.17399605 -0.21178445
vn 0.9783545 0.17015778 -0.117766306
vn 0.9203129 0.1942415 -0.33955023
vn 0.9947049 -0.034694653 -0.09673921
vn 0.9902942 -0.0142216645 -0.13825731
vn 0.9823101 0.012227087 -0.18686214
vn 0.99406344 -0.06932362 -0.08385826
vn 0.9930982 -0.064889394 -0.09770003
vn 0.99185175 -0.060282186 -0.11223276
vn 0.9870379 -0.01312125 -0.1599498
vn 0.98848546 -0.1119432 -0.101809755
vn -0.39698443 0.88695234 -0.23604852
vn 2.944041E-07 0.90612316 -0.42301416
vn -0 0.969813 -0.24384968
vn -0.39702204 0.8255086 -0.4011346
vn -0.78284144 0.59253913 -0.18988599
vn -0.3909376 0.6601103 -0.6414221
vn 6.3625015E-07 0.7441063 -0.6680612
vn -0.7661949 0.55590266 -0.32236266
vn -0.695909 0.4633263 -0.54867053
vn -0.96170306 0.17399594 -0.21178406
vn -0.9783545 0.17015767 -0.117766164
vn -0.9203128 0.19424166 -0.33955035
vn -0.9947049 -0.03469458 -0.096739165
vn -0.9902942 -0.014221611 -0.13825706
vn -0.9828841 0.012909185 -0.18377195
vn -0.99406344 -0.06932377 -0.08385827
vn -0.9930982 -0.06488928 -0.0977001
vn -0.99185175 -0.0602825 -0.112232745
vn -0.9864499 -0.013898236 -0.16347338
vn -0.98848534 -0.11194401 -0.10181047
vn 0.86668456 0.22421028 -0.44563177
vn 0.90339744 0.34369355 -0.2564134
vn 0.93515825 0.116387576 -0.33456385
vn 0.865231 0.1734345 -0.4704209
vn 0.9473778 0.05271022 -0.315748
vn 0.87720585 0.19113244 -0.44042978
vn 0.9109498 0.15249418 -0.38329607
vn 0.97166026 0.021081733 -0.2354396
vn 0.97027147 0.068437465 -0.23214138
vn 0.9870379 -0.01312125 -0.1599498
vn 0.9823101 0.012227087 -0.18686214
vn 0.9203129 0.1942415 -0.33955023
vn 0.78554505 0.3218114 -0.5285418
vn 0.695909 0.4633262 -0.5486706
vn 0.85154647 0.30516484 -0.42631337
vn 0.63405156 0.48797685 -0.5998811
vn 0.39093816 0.66011006 -0.64142185
vn 0.96253 0.18978001 -0.19369961
vn 0.9598399 0.07935204 -0.26909217
vn 0.96301 -0.16387023 -0.21391149
vn 0.47373736 0.73322856 -0.48779985
vn 6.3625015E-07 0.7441063 -0.6680612
vn 7.2712476E-07 0.88024193 -0.47452503
vn 0.8256688 0.5122578 -0.23635331
vn 0.5194814 0.8543673 -0.013984963
vn 2.9488106E-07 0.99984956 -0.017348077
vn 0.8644719 0.5025429 -0.011789384
vn 0.5385865 0.8302416 0.14360815
vn -4.7671548E-07 0.99106747 0.13336168
vn 0.49694443 0.8405989 0.21549895
vn 0.94416666 0.31631982 0.092147514
vn 0.9870437 0.09330583 -0.1305326
vn 0.90306723 0.42420596 0.06722256
vn 0.99197656 -0.09411114 -0.08441268
vn 0.9751126 -0.21328235 -0.060547538
vn 0.7735007 -0.5970465 -0.21267821
vn 0.6548495 -0.7541668 -0.04903429
vn 0.75881594 -0.5467958 -0.35385412
vn 0.48197773 -0.873098 -0.07346571
vn 0.622499 -0.7117504 -0.32543257
vn 0.7743471 -0.39544085 -0.49397674
vn 0.75584596 -0.5304293 -0.38385114
vn 0.6041612 -0.671693 -0.4287395
vn -0 -0.9886719 -0.15009293
vn 1.848924E-07 -0.89362955 -0.44880527
vn 0.69196874 -0.515725 -0.5051801
vn 0.5339297 -0.547077 -0.6446904
vn 2.0411621E-06 -0.7599137 -0.650024
vn 0.62690514 -0.5329864 -0.56825656
vn -1.30858E-06 -0.7479352 -0.66377187
vn -0.86667895 0.22421296 -0.44564122
vn -0.9351591 0.11638706 -0.33456162
vn -0.9033984 0.34369084 -0.25641364
vn -0.8652307 0.17343538 -0.47042117
vn -0.94737875 0.05271032 -0.31574544
vn -0.87720346 0.19113605 -0.44043294
vn -0.91095 0.15249452 -0.3832956
vn -0.97029996 0.019806778 -0.24109271
vn -0.9704058 0.06857267 -0.23153912
vn -0.9864499 -0.013898236 -0.16347338
vn -0.9828841 0.012909185 -0.18377195
vn -0.9203128 0.19424166 -0.33955035
vn -0.7855441 0.32181215 -0.52854276
vn -0.695909 0.4633263 -0.54867053
vn -0.8515457 0.30516547 -0.42631435
vn -0.63404995 0.4879779 -0.59988177
vn -0.3909376 0.6601103 -0.6414221
vn -0.96253026 0.18977924 -0.19369906
vn -0.9598408 0.07935175 -0.2690892
vn -0.473736 0.7332293 -0.48780015
vn 6.3625015E-07 0.7441063 -0.6680612
vn 7.2712476E-07 0.88024193 -0.47452503
vn -0.8256679 0.5122588 -0.23635423
vn -0.5194812 0.8543674 -0.013984993
vn 2.9488106E-07 0.99984956 -0.017348077
vn -0.9870437 0.093304835 -0.13053347
vn -0.9630106 -0.16386963 -0.21391
vn -0.86447227 0.5025423 -0.011789268
vn -0.53858644 0.8302418 0.1436076
vn -4.7671548E-07 0.99106747 0.13336168
vn -0.49694574 0.8405986 0.21549726
vn -0.90306675 0.4242069 0.06722214
vn -0.9441663 0.31632116 0.09214692
vn -0.9919767 -0.09411158 -0.08441185
vn -0.97511286 -0.21328172 -0.060547356
vn -0.7735022 -0.5970452 -0.21267653
vn -0.65485066 -0.75416595 -0.04903426
vn -0.75882083 -0.54679054 -0.35385168
vn -0.6225007 -0.71174943 -0.32543138
vn -0.48197833 -0.8730978 -0.07346567
vn -0.7743469 -0.39543983 -0.493978
vn -0.75584507 -0.5304302 -0.38385162
vn -0.6041608 -0.67169344 -0.42873976
vn -0 -0.9886719 -0.15009293
vn 1.848924E-07 -0.89362955 -0.44880527
vn -0.6919663 -0.51572984 -0.50517863
vn -0.53392714 -0.54707384 -0.6446954
vn 2.0411621E-06 -0.7599137 -0.650024
vn -0.6269029 -0.5329774 -0.5682675
vn -1.30858E-06 -0.7479352 -0.66377187
g NPC_Female_Size03_Body_004_LOD1_0
f 3/3/3 2/2/2 1/1/1
f 4/4/4 3/3/3 1/1/1
f 4/4/4 1/1/1 5/5/5
f 4/4/4 6/6/6 3/3/3
f 6/6/6 7/7/7 3/3/3
f 4/4/4 8/8/8 6/6/6
f 8/8/8 4/4/4 5/5/5
f 8/8/8 9/9/9 6/6/6
f 10/10/10 8/8/8 5/5/5
f 8/8/8 10/10/10 9/9/9
f 11/11/11 10/10/10 5/5/5
f 10/10/10 12/12/12 9/9/9
f 10/10/10 11/11/11 13/13/13
f 10/10/10 14/14/14 12/12/12
f 14/14/14 10/10/10 13/13/13
f 14/14/14 15/15/15 12/12/12
f 14/14/14 13/13/13 16/16/16
f 13/13/13 17/17/17 16/16/16
f 15/15/15 14/14/14 18/18/18
f 16/16/16 18/18/18 14/14/14
f 18/18/18 19/19/19 15/15/15
f 16/16/16 20/20/20 18/18/18
f 19/19/19 18/18/18 20/20/20
f 23/23/23 22/22/22 21/21/21
f 22/22/22 24/24/24 21/21/21
f 21/21/21 24/24/24 25/25/25
f 26/26/26 24/24/24 22/22/22
f 27/27/27 26/26/26 22/22/22
f 28/28/28 24/24/24 26/26/26
f 24/24/24 28/28/28 25/25/25
f 29/29/29 28/28/28 26/26/26
f 28/28/28 30/30/30 25/25/25
f 30/30/30 28/28/28 29/29/29
f 30/30/30 31/31/31 25/25/25
f 32/32/32 30/30/30 29/29/29
f 31/31/31 30/30/30 33/33/33
f 34/34/34 30/30/30 32/32/32
f 30/30/30 34/34/34 33/33/33
f 35/35/35 34/34/34 32/32/32
f 33/33/33 34/34/34 36/36/36
f 37/37/37 33/33/33 36/36/36
f 34/34/34 35/35/35 38/38/38
f 38/38/38 36/36/36 34/34/34
f 35/35/35 39/39/39 38/38/38
f 40/40/40 36/36/36 38/38/38
f 38/38/38 39/39/39 40/40/40
f 43/43/43 42/42/42 41/41/41
f 44/44/44 43/43/43 41/41/41
f 45/45/45 43/43/43 44/44/44
f 41/41/41 46/46/46 44/44/44
f 47/47/47 45/45/45 44/44/44
f 48/48/48 45/45/45 47/47/47
f 49/49/49 48/48/48 47/47/47
f 50/50/50 48/48/48 49/49/49
f 51/51/51 50/50/50 49/49/49
f 51/51/51 49/49/49 52/52/52
f 52/52/52 49/49/49 47/47/47
f 47/47/47 53/53/53 52/52/52
f 47/47/47 44/44/44 53/53/53
f 53/53/53 54/54/54 52/52/52
f 55/55/55 44/44/44 46/46/46
f 44/44/44 55/55/55 53/53/53
f 53/53/53 56/56/56 54/54/54
f 56/56/56 53/53/53 55/55/55
f 57/57/57 54/54/54 56/56/56
f 58/58/58 55/55/55 46/46/46
f 58/58/58 46/46/46 59/59/59
f 58/58/58 59/59/59 60/60/60
f 61/61/61 57/57/57 56/56/56
f 62/62/62 57/57/57 61/61/61
f 63/63/63 62/62/62 61/61/61
f 64/64/64 56/56/56 55/55/55
f 56/56/56 64/64/64 61/61/61
f 58/58/58 64/64/64 55/55/55
f 61/61/61 65/65/65 63/63/63
f 61/61/61 64/64/64 65/65/65
f 65/65/65 66/66/66 63/63/63
f 67/67/67 64/64/64 58/58/58
f 64/64/64 67/67/67 65/65/65
f 66/66/66 65/65/65 68/68/68
f 67/67/67 68/68/68 65/65/65
f 69/69/69 66/66/66 68/68/68
f 70/70/70 69/69/69 68/68/68
f 70/70/70 68/68/68 71/71/71
f 72/72/72 67/67/67 58/58/58
f 72/72/72 58/58/58 60/60/60
f 67/67/67 73/73/73 68/68/68
f 68/68/68 73/73/73 71/71/71
f 73/73/73 67/67/67 72/72/72
f 73/73/73 74/74/74 71/71/71
f 73/73/73 72/72/72 74/74/74
f 74/74/74 72/72/72 60/60/60
f 71/71/71 74/74/74 75/75/75
f 76/76/76 74/74/74 60/60/60
f 74/74/74 76/76/76 75/75/75
f 75/75/75 76/76/76 77/77/77
f 78/78/78 76/76/76 60/60/60
f 77/77/77 76/76/76 79/79/79
f 78/78/78 80/80/80 76/76/76
f 76/76/76 80/80/80 79/79/79
f 78/78/78 81/81/81 80/80/80
f 82/82/82 81/81/81 78/78/78
f 83/83/83 79/79/79 80/80/80
f 84/84/84 79/79/79 83/83/83
f 85/85/85 84/84/84 83/83/83
f 81/81/81 86/86/86 80/80/80
f 82/82/82 86/86/86 81/81/81
f 86/86/86 83/83/83 80/80/80
f 85/85/85 83/83/83 87/87/87
f 86/86/86 87/87/87 83/83/83
f 82/82/82 87/87/87 86/86/86
f 88/88/88 85/85/85 87/87/87
f 82/82/82 89/89/89 87/87/87
f 90/90/90 88/88/88 87/87/87
f 89/89/89 90/90/90 87/87/87
f 93/93/93 92/92/92 91/91/91
f 91/91/91 92/92/92 94/94/94
f 92/92/92 95/95/95 94/94/94
f 96/96/96 91/91/91 94/94/94
f 95/95/95 97/97/97 94/94/94
f 95/95/95 98/98/98 97/97/97
f 98/98/98 99/99/99 97/97/97
f 98/98/98 100/100/100 99/99/99
f 100/100/100 101/101/101 99/99/99
f 99/99/99 101/101/101 102/102/102
f 99/99/99 102/102/102 97/97/97
f 103/103/103 97/97/97 102/102/102
f 94/94/94 97/97/97 103/103/103
f 104/104/104 103/103/103 102/102/102
f 94/94/94 105/105/105 96/96/96
f 105/105/105 94/94/94 103/103/103
f 106/106/106 103/103/103 104/104/104
f 103/103/103 106/106/106 105/105/105
f 104/104/104 107/107/107 106/106/106
f 105/105/105 108/108/108 96/96/96
f 96/96/96 108/108/108 109/109/109
f 107/107/107 110/110/110 106/106/106
f 107/107/107 111/111/111 110/110/110
f 111/111/111 112/112/112 110/110/110
f 106/106/106 113/113/113 105/105/105
f 113/113/113 106/106/106 110/110/110
f 113/113/113 108/108/108 105/105/105
f 114/114/114 110/110/110 112/112/112
f 113/113/113 110/110/110 114/114/114
f 115/115/115 114/114/114 112/112/112
f 109/109/109 108/108/108 116/116/116
f 117/117/117 109/109/109 116/116/116
f 113/113/113 118/118/118 108/108/108
f 118/118/118 113/113/113 114/114/114
f 118/118/118 116/116/116 108/108/108
f 114/114/114 115/115/115 119/119/119
f 119/119/119 118/118/118 114/114/114
f 115/115/115 120/120/120 119/119/119
f 120/120/120 121/121/121 119/119/119
f 122/122/122 118/118/118 119/119/119
f 119/119/119 121/121/121 122/122/122
f 118/118/118 122/122/122 116/116/116
f 121/121/121 123/123/123 122/122/122
f 116/116/116 122/122/122 124/124/124
f 124/124/124 122/122/122 123/123/123
f 116/116/116 124/124/124 117/117/117
f 125/125/125 124/124/124 123/123/123
f 124/124/124 126/126/126 117/117/117
f 126/126/126 124/124/124 125/125/125
f 127/127/127 126/126/126 125/125/125
f 126/126/126 128/128/128 117/117/117
f 129/129/129 126/126/126 127/127/127
f 129/129/129 128/128/128 126/126/126
f 130/130/130 129/129/129 127/127/127
f 131/131/131 128/128/128 129/129/129
f 131/131/131 132/132/132 128/128/128
f 130/130/130 133/133/133 129/129/129
f 130/130/130 134/134/134 133/133/133
f 134/134/134 135/135/135 133/133/133
f 136/136/136 131/131/131 129/129/129
f 136/136/136 132/132/132 131/131/131
f 133/133/133 136/136/136 129/129/129
f 133/133/133 135/135/135 137/137/137
f 137/137/137 136/136/136 133/133/133
f 137/137/137 132/132/132 136/136/136
f 135/135/135 138/138/138 137/137/137
f 139/139/139 132/132/132 137/137/137
f 138/138/138 140/140/140 137/137/137
f 140/140/140 139/139/139 137/137/137
