g NPC_Female_Size03_Body_002_LOD0
v 0.023406155 0.09581876 1.4143786
v 5.237908E-18 0.098548286 1.4132955
v 7.137178E-18 0.08698867 1.3820941
v 0.0212546 0.0848532 1.3837128
v 0.050078362 0.07153818 1.3919839
v 0.053645838 0.08105769 1.4195437
v 0.06787381 0.04986571 1.4002874
v 0.07209458 0.05529432 1.4237627
v 0.07381773 0.03269707 1.4252774
v 0.07236998 0.03270458 1.4103067
v 0.06974879 0.030328201 1.3975506
v 0.07307739 0.012911478 1.4254178
v 0.07172448 0.015729664 1.410571
v 0.070313945 0.015777992 1.4020116
v 0.07065161 -0.0021027417 1.4107319
v 0.07182904 -0.004246954 1.4249016
v 0.07046064 0.0016132612 1.4038239
v 0.06928406 -0.001054065 1.3964446
v 0.070115834 -0.0014199507 1.4038111
v -0.023406155 0.09581876 1.4143786
v 7.137178E-18 0.08698867 1.3820941
v 5.237908E-18 0.098548286 1.4132955
v -0.0212546 0.0848532 1.3837128
v -0.050078362 0.07153818 1.3919839
v -0.053645838 0.08105769 1.4195437
v -0.06787381 0.04986571 1.4002874
v -0.07209458 0.05529432 1.4237627
v -0.07381773 0.03269707 1.4252774
v -0.07236998 0.03270458 1.4103067
v -0.06974879 0.030328201 1.3975506
v -0.07307739 0.012911478 1.4254178
v -0.07172448 0.015729664 1.410571
v -0.070313945 0.015777992 1.4020116
v -0.07065161 -0.0021027417 1.4107319
v -0.07182904 -0.004246954 1.4249016
v -0.07046064 0.0016132612 1.4038239
v -0.06928406 -0.001054065 1.3964446
v -0.070115834 -0.0014199507 1.4038111
v 0.05954061 0.0020441283 1.3629218
v 0.06101794 -0.0019443682 1.3627807
v 0.06358335 -0.0015376649 1.3723645
v 0.062304415 0.015053241 1.3710583
v 0.065795615 -0.0012150465 1.3805255
v 0.05941703 0.019543221 1.370119
v 0.057241447 0.0021071502 1.3600268
v 0.06560915 0.022399286 1.3816234
v 0.06799076 -0.0011534952 1.3887078
v 0.06406399 0.026475705 1.3811842
v 0.06822807 0.023683643 1.3911778
v 0.06928406 -0.001054065 1.3964446
v 0.070313945 0.015777992 1.4020116
v 0.06974879 0.030328201 1.3975506
v 0.06787381 0.04986571 1.4002874
v 0.058739867 0.039073627 1.3780475
v 0.050078362 0.07153818 1.3919839
v 0.052961383 0.029009884 1.3645333
v 0.04147932 0.052852266 1.369989
v 0.052702505 0.019988375 1.3542073
v 0.054452848 0.001919581 1.3518002
v 0.051238615 0.0015108386 1.3389977
v 0.04348028 0.042317905 1.3531772
v 0.017239684 0.06568713 1.3631982
v 0.0212546 0.0848532 1.3837128
v 7.137178E-18 0.08698867 1.3820941
v 3.7158446E-18 0.068765245 1.3614801
v 0.016107967 0.06365598 1.3497521
v -2.0314257E-18 0.06711181 1.3501408
v -1.1075654E-18 0.06616338 1.3377178
v 0.051388636 0.019852208 1.3435425
v 0.015701652 0.062831394 1.3372086
v 0.05007357 0.01949971 1.3328668
v 0.047832254 0.0009533706 1.3305291
v 0.039462242 0.04573014 1.3357947
v 0.01655043 0.06574811 1.3192449
v 9.0088725E-21 0.06904484 1.3187011
v -4.913794E-18 0.07411304 1.2999209
v 0.01877407 0.0697838 1.3013806
v 0.03843715 0.04731177 1.3193202
v 0.04173783 0.049759462 1.3018844
v 0.045628887 0.018974556 1.3163319
v 0.045206953 0.018517647 1.2980076
v 0.042377703 0.0014182352 1.3130904
v 0.039270416 0.00044931637 1.2890148
v 0.04292618 -0.003694615 1.3236451
v 0.035089187 -0.0019429831 1.3113468
v 0.02918036 -0.0041534007 1.2841674
v 0.03560428 -0.00816272 1.3164002
v 0.035113115 -0.011355883 1.318331
v 0.027751751 -0.015094574 1.308135
v 0.026575569 -0.018948555 1.3124484
v 0.022925798 -0.0076538073 1.3011292
v 0.014239299 -0.010476484 1.2784802
v 0.019790407 -0.020571467 1.3024446
v 0.018960394 -0.024446262 1.3080013
v 0.00817908 -0.029278692 1.3037717
v 0.013030576 -0.014719112 1.2938315
v 5.873825E-18 -0.016807321 1.2753817
v 1.9307343E-17 -0.020767903 1.2892375
v 0.009755395 -0.023772687 1.299046
v -7.659197E-08 -0.032243676 1.3011099
v 1.2006572E-17 -0.026815187 1.296573
v -0.059540566 0.0020441166 1.3629217
v -0.06358338 -0.0015376691 1.3723645
v -0.061017975 -0.0019443732 1.3627809
v -0.062304415 0.015053241 1.3710583
v -0.06579563 -0.0012150458 1.3805255
v -0.05941703 0.019543221 1.370119
v -0.057241447 0.0021071502 1.3600268
v -0.06560915 0.022399286 1.3816234
v -0.06799076 -0.0011534989 1.3887079
v -0.06406399 0.026475705 1.3811842
v -0.06822807 0.023683643 1.3911778
v -0.06928406 -0.001054065 1.3964446
v -0.070313945 0.015777992 1.4020116
v -0.06974879 0.030328201 1.3975506
v -0.06787381 0.04986571 1.4002874
v -0.058739867 0.039073627 1.3780475
v -0.050078362 0.07153818 1.3919839
v -0.052961383 0.029009884 1.3645333
v -0.04147932 0.052852266 1.369989
v -0.052702505 0.019988375 1.3542073
v -0.054452885 0.001919587 1.3518002
v -0.051238574 0.0015108401 1.3389977
v -0.04348028 0.042317905 1.3531772
v -0.017239684 0.06568713 1.3631982
v -0.0212546 0.0848532 1.3837128
v 7.137178E-18 0.08698867 1.3820941
v 3.7158446E-18 0.068765245 1.3614801
v -0.016107967 0.06365598 1.3497521
v -2.0314257E-18 0.06711181 1.3501408
v -1.1075654E-18 0.06616338 1.3377178
v -0.051388636 0.019852208 1.3435425
v -0.015701652 0.062831394 1.3372086
v -0.049597494 0.01949971 1.3328668
v -0.047832277 0.00095336966 1.3305291
v -0.039153405 0.04573014 1.3357947
v -0.01655043 0.06574811 1.3192449
v 9.0088725E-21 0.06904484 1.3187011
v -4.913794E-18 0.07411304 1.2999209
v -0.018477416 0.069861546 1.301369
v -0.039007142 0.04731177 1.3193202
v -0.03954224 0.049759462 1.3018844
v -0.04491554 0.018974556 1.3163319
v -0.04413975 0.018517647 1.2980076
v -0.040952075 0.0014182352 1.3130904
v -0.036354154 0.0004493165 1.2890148
v -0.04292618 -0.003694615 1.3236451
v -0.035089187 -0.0019429831 1.3113468
v -0.02918036 -0.0041534007 1.2841674
v -0.03560428 -0.00816272 1.3164002
v -0.03511317 -0.011355899 1.318331
v -0.027751751 -0.015094574 1.308135
v -0.026575591 -0.018948555 1.3124483
v -0.022925798 -0.0076538073 1.3011292
v -0.014239299 -0.010476484 1.2784802
v -0.019790407 -0.020571467 1.3024446
v -0.018960396 -0.024446273 1.308001
v -0.008179054 -0.029278679 1.3037717
v -0.013030576 -0.014719112 1.2938315
v 5.873825E-18 -0.016807321 1.2753817
v 1.9307343E-17 -0.020767903 1.2892375
v -0.009755395 -0.023772687 1.299046
v -7.659197E-08 -0.032243676 1.3011099
v 1.2006572E-17 -0.026815187 1.296573
vt 0.95537114 0.80364513
vt 0.97686243 0.80628955
vt 0.9770063 0.772964
vt 0.95703053 0.7730609
vt 0.92466444 0.7756375
vt 0.9239497 0.80211556
vt 0.89455473 0.77891034
vt 0.8941159 0.80106366
vt 0.8729036 0.80069876
vt 0.8749976 0.78672254
vt 0.87509465 0.7745437
vt 0.8542423 0.80071783
vt 0.8583579 0.78640246
vt 0.85936284 0.7781848
vt 0.84118223 0.7863566
vt 0.837996 0.8006236
vt 0.8452804 0.7798281
vt 0.84305453 0.7728959
vt 0.8423705 0.7797452
vt 0.95537114 0.80364513
vt 0.9770063 0.772964
vt 0.97686243 0.80628955
vt 0.95703053 0.7730609
vt 0.92466444 0.7756375
vt 0.9239497 0.80211556
vt 0.89455473 0.77891034
vt 0.8941159 0.80106366
vt 0.8729036 0.80069876
vt 0.8749976 0.78672254
vt 0.87509465 0.7745437
vt 0.8542423 0.80071807
vt 0.8583579 0.78640246
vt 0.85936284 0.7781848
vt 0.84118223 0.7863566
vt 0.837996 0.8006237
vt 0.8452804 0.7798281
vt 0.84305453 0.7728959
vt 0.8423705 0.7797452
vt 0.46487617 0.9542202
vt 0.4644244 0.95840484
vt 0.47050026 0.9625715
vt 0.47690034 0.9601881
vt 0.47318095 0.9699758
vt 0.4811809 0.9575157
vt 0.4644513 0.95093566
vt 0.4839759 0.9691995
vt 0.4728196 0.97542363
vt 0.48778653 0.96794754
vt 0.48565578 0.9781685
vt 0.4702889 0.9857359
vt 0.47906566 0.9888691
vt 0.49208164 0.98376745
vt 0.50673175 0.97706485
vt 0.49941206 0.9623699
vt 0.5264244 0.96316004
vt 0.48980165 0.9490434
vt 0.5154824 0.9473297
vt 0.47975922 0.94150305
vt 0.46290445 0.94371235
vt 0.46047783 0.9343577
vt 0.5016432 0.9340708
vt 0.53706884 0.9318052
vt 0.54673624 0.9456804
vt 0.56113124 0.9347671
vt 0.55088353 0.9229509
vt 0.53220344 0.92007756
vt 0.5462723 0.9144991
vt 0.54268837 0.90475976
vt 0.47719693 0.9319486
vt 0.5282631 0.9091789
vt 0.47399855 0.92249024
vt 0.45715785 0.92555296
vt 0.5008385 0.9167119
vt 0.5240655 0.89302266
vt 0.5390053 0.88888276
vt 0.53723407 0.87187284
vt 0.5203502 0.8763782
vt 0.49615622 0.9015895
vt 0.49136996 0.8855854
vt 0.46799302 0.90813106
vt 0.46132374 0.8926144
vt 0.45035434 0.91052127
vt 0.44070625 0.89013094
vt 0.4499135 0.9213003
vt 0.44218588 0.9105399
vt 0.4293511 0.8882806
vt 0.43918848 0.91823745
vt 0.43715715 0.9232879
vt 0.42706633 0.91549087
vt 0.42476988 0.9246939
vt 0.427258 0.90464
vt 0.41267514 0.887184
vt 0.416759 0.9139174
vt 0.41511774 0.9263444
vt 0.40406513 0.9276246
vt 0.4135797 0.9021483
vt 0.39722776 0.88677657
vt 0.39722776 0.9019464
vt 0.40626478 0.9138718
vt 0.39722776 0.929406
vt 0.39722776 0.9150427
vt 0.46487617 0.9542202
vt 0.47050026 0.9625715
vt 0.4644244 0.95840484
vt 0.47690034 0.9601881
vt 0.47318095 0.9699758
vt 0.48118114 0.9575157
vt 0.4644513 0.95093566
vt 0.48397613 0.9691995
vt 0.4728196 0.97542363
vt 0.48778653 0.96794754
vt 0.48565578 0.9781685
vt 0.4702889 0.9857359
vt 0.47906566 0.9888691
vt 0.49208164 0.98376745
vt 0.50673175 0.97706485
vt 0.49941206 0.9623699
vt 0.5264244 0.96316004
vt 0.48980165 0.9490434
vt 0.5154824 0.9473297
vt 0.47975922 0.94150305
vt 0.46290445 0.94371235
vt 0.46047783 0.9343577
vt 0.5016432 0.9340708
vt 0.53706884 0.9318052
vt 0.54673624 0.9456804
vt 0.56113124 0.9347671
vt 0.55088353 0.9229509
vt 0.53220344 0.92007756
vt 0.5462723 0.9144991
vt 0.54268837 0.90475976
vt 0.47719693 0.9319486
vt 0.5282631 0.9091789
vt 0.47399855 0.92249024
vt 0.45715785 0.92555296
vt 0.5008385 0.9167119
vt 0.5240655 0.89302266
vt 0.5390053 0.88888276
vt 0.53723407 0.87187284
vt 0.5203502 0.8763782
vt 0.49615622 0.9015895
vt 0.49136996 0.8855854
vt 0.46799302 0.90813106
vt 0.46132374 0.8926144
vt 0.45035458 0.91052127
vt 0.44070625 0.89013094
vt 0.4499135 0.9213003
vt 0.44218588 0.9105399
vt 0.4293511 0.8882806
vt 0.43918848 0.91823745
vt 0.43715715 0.9232879
vt 0.42706633 0.91549087
vt 0.42476988 0.9246939
vt 0.427258 0.90464
vt 0.41267514 0.887184
vt 0.416759 0.9139174
vt 0.41511774 0.9263444
vt 0.40406513 0.9276246
vt 0.4135797 0.9021483
vt 0.39722776 0.88677657
vt 0.39722776 0.9019464
vt 0.40626478 0.9138718
vt 0.39722776 0.929406
vt 0.39722776 0.9150427
vn 0.30578122 0.8877279 -0.3441469
vn -0 0.9382729 -0.3458961
vn -0 0.8512306 -0.5247918
vn 0.31282377 0.7945225 -0.52045673
vn 0.626059 0.624569 -0.4668658
vn 0.6496981 0.6925004 -0.31358495
vn 0.8839195 0.32759798 -0.33371538
vn 0.913039 0.33833048 -0.22779867
vn 0.99123514 0.03254167 -0.12803881
vn 0.9858716 0.043625873 -0.161722
vn 0.96228147 0.06750595 -0.26354766
vn 0.993361 -0.018278513 -0.11357716
vn 0.99057055 -0.016854024 -0.1359635
vn 0.9840614 0.02061811 -0.17662963
vn 0.9952134 -0.064412 -0.073494904
vn 0.99399406 -0.08611153 -0.067532346
vn 0.99255544 -0.033096146 -0.117210105
vn 0.9940975 0.0016602739 -0.10847801
vn 0.9935968 -0.07161137 -0.08739116
vn -0.30578122 0.8877279 -0.3441469
vn -0 0.8512306 -0.5247918
vn -0 0.9382729 -0.3458961
vn -0.31282377 0.7945225 -0.52045673
vn -0.626059 0.624569 -0.4668658
vn -0.6496981 0.6925004 -0.31358495
vn -0.8839195 0.32759798 -0.33371538
vn -0.913039 0.33833048 -0.22779867
vn -0.99123514 0.032541677 -0.12803881
vn -0.9858716 0.043625873 -0.161722
vn -0.96228147 0.06750595 -0.26354766
vn -0.9933703 -0.018261282 -0.11349889
vn -0.99062526 -0.016768225 -0.1355739
vn -0.9840506 0.027289309 -0.17578301
vn -0.9952134 -0.06441199 -0.073494904
vn -0.99399406 -0.08611153 -0.067532346
vn -0.9925989 -0.033018883 -0.11686447
vn -0.99390256 0.0012714935 -0.110254474
vn -0.9935968 -0.07161137 -0.08739116
vn 0.8002836 0.26460692 -0.53807926
vn 0.9159931 0.28041285 -0.28692374
vn 0.9518232 0.07824105 -0.2964977
vn 0.8885967 0.22048819 -0.40221992
vn 0.95193195 0.10140026 -0.28903913
vn 0.8413817 0.28653347 -0.45823058
vn 0.83989906 0.35007352 -0.4147507
vn 0.9297519 0.15385646 -0.33449912
vn 0.9835751 0.06788551 -0.16724728
vn 0.86462444 0.25115472 -0.43513894
vn 0.9619434 0.095768765 -0.25591642
vn 0.9940975 0.0016602739 -0.10847801
vn 0.9840614 0.02061811 -0.17662963
vn 0.96228147 0.06750595 -0.26354766
vn 0.8839195 0.32759798 -0.33371538
vn 0.7613032 0.34871522 -0.5466398
vn 0.626059 0.624569 -0.4668658
vn 0.8191083 0.39743477 -0.41365096
vn 0.63056076 0.5814516 -0.5141082
vn 0.8815289 0.37814373 -0.28269064
vn 0.89449406 0.3643127 -0.259146
vn 0.8909492 0.36807007 -0.2659587
vn 0.8083762 0.5552219 -0.1955929
vn 0.35818228 0.82382977 -0.43932897
vn 0.31282377 0.7945225 -0.52045673
vn -0 0.8512306 -0.5247918
vn -0 0.89986914 -0.4361599
vn 0.39645407 0.9095726 -0.124506526
vn -0 0.99319625 -0.11645306
vn -0 0.99915004 0.041222643
vn 0.8847534 0.4234174 -0.1947539
vn 0.4181227 0.9073946 0.04252708
vn 0.9017355 0.40120578 -0.16095658
vn 0.86363506 0.21363036 -0.45661435
vn 0.7846287 0.6197089 -0.017854203
vn 0.41852033 0.88769984 0.19191115
vn 0.00011499417 0.97806716 0.20828997
vn 0.0002511421 0.96762544 0.25239062
vn 0.41837668 0.8735511 0.24873567
vn 0.82195634 0.55735564 0.11722829
vn 0.85304844 0.48526838 0.19189306
vn 0.9827999 0.14421341 -0.115355514
vn 0.99473464 -0.08706721 -0.054058403
vn 0.88860124 -0.35212633 -0.29392987
vn 0.6551524 -0.75354624 -0.0542534
vn 0.7109651 -0.14840636 -0.68738943
vn 0.7252218 -0.5796354 -0.37158617
vn 0.4162639 -0.90874875 -0.030000022
vn 0.72012967 -0.3435257 -0.6028295
vn 0.670635 -0.17288023 -0.7213606
vn 0.69784725 -0.43699825 -0.56748736
vn 0.6658136 -0.29715157 -0.6843926
vn 0.64840555 -0.641739 -0.40956232
vn 0.48121122 -0.86189014 -0.1599407
vn 0.5942702 -0.48752263 -0.63965976
vn 0.5730162 -0.35382813 -0.739228
vn 0.40029135 -0.2993672 -0.8661097
vn 0.5842554 -0.6708394 -0.45674956
vn -0 -0.9680457 -0.2507738
vn -0 -0.87680167 -0.48085207
vn 0.28536102 -0.58029187 -0.7627781
vn -2.4642557E-06 -0.31489664 -0.949126
vn -6.0634824E-07 -0.5611468 -0.82771635
vn -0.8002814 0.26460743 -0.53808236
vn -0.95182306 0.07824121 -0.296498
vn -0.9159929 0.28041196 -0.28692546
vn -0.8885904 0.22048521 -0.4022355
vn -0.95193213 0.10140036 -0.2890384
vn -0.8413339 0.28650904 -0.45833367
vn -0.8398984 0.35007486 -0.4147509
vn -0.9296477 0.15377331 -0.33482674
vn -0.983124 0.0672619 -0.1701266
vn -0.86462444 0.25115472 -0.43513894
vn -0.9617139 0.09656083 -0.25648096
vn -0.99390256 0.0012714935 -0.110254474
vn -0.9840506 0.027289309 -0.17578301
vn -0.96228147 0.06750595 -0.26354766
vn -0.8839195 0.32759798 -0.33371538
vn -0.7613032 0.34871522 -0.5466398
vn -0.626059 0.624569 -0.4668658
vn -0.8188157 0.39727348 -0.41438472
vn -0.63056076 0.5814516 -0.5141082
vn -0.8802995 0.3780503 -0.28661972
vn -0.89449346 0.3643137 -0.25914657
vn -0.89094937 0.3680701 -0.2659581
vn -0.80756444 0.5547119 -0.20033543
vn -0.35818228 0.82382977 -0.43932897
vn -0.31282377 0.7945225 -0.52045673
vn -0 0.8512306 -0.5247918
vn -0 0.89986914 -0.4361599
vn -0.39710057 0.90904045 -0.12631911
vn -0 0.99319625 -0.11645306
vn -0 0.99915004 0.041222643
vn -0.88361555 0.4240584 -0.19848941
vn -0.41822284 0.90724206 0.04473904
vn -0.9010701 0.39724198 -0.17398664
vn -0.8636355 0.21363047 -0.45661333
vn -0.7838656 0.62088525 -0.0074970503
vn -0.42416465 0.88712615 0.181911
vn 0.00011499417 0.97806716 0.20828997
vn 0.0002511421 0.96762544 0.25239062
vn -0.42578408 0.8767063 0.22381681
vn -0.8402928 0.5372948 0.07226564
vn -0.86083686 0.49671412 0.11061161
vn -0.9770258 0.14587381 -0.1553747
vn -0.9911486 -0.10180493 -0.085207716
vn -0.8884608 -0.3360908 -0.3125387
vn -0.69811493 -0.7093723 -0.09709054
vn -0.71096456 -0.14840637 -0.68739
vn -0.73346734 -0.5603846 -0.38470095
vn -0.45062876 -0.8917229 -0.041999515
vn -0.72102654 -0.33697465 -0.6054493
vn -0.6706335 -0.17287411 -0.7213635
vn -0.6986786 -0.43334943 -0.5692596
vn -0.66581255 -0.29714707 -0.6843956
vn -0.64840555 -0.641739 -0.40956232
vn -0.48121116 -0.86189014 -0.1599407
vn -0.59426975 -0.48752078 -0.6396616
vn -0.5730127 -0.3538254 -0.73923206
vn -0.4002914 -0.29936564 -0.8661102
vn -0.58425534 -0.6708395 -0.4567496
vn -0 -0.9680457 -0.2507738
vn -0 -0.87680167 -0.48085207
vn -0.28536206 -0.5802911 -0.76277834
vn -2.4642557E-06 -0.31489664 -0.949126
vn -6.0634824E-07 -0.5611468 -0.82771635
g NPC_Female_Size03_Body_002_LOD0_0
f 3/3/3 2/2/2 1/1/1
f 4/4/4 3/3/3 1/1/1
f 5/5/5 4/4/4 1/1/1
f 6/6/6 5/5/5 1/1/1
f 7/7/7 5/5/5 6/6/6
f 8/8/8 7/7/7 6/6/6
f 7/7/7 8/8/8 9/9/9
f 10/10/10 7/7/7 9/9/9
f 10/10/10 11/11/11 7/7/7
f 10/10/10 9/9/9 12/12/12
f 10/10/10 13/13/13 11/11/11
f 13/13/13 10/10/10 12/12/12
f 13/13/13 14/14/14 11/11/11
f 13/13/13 12/12/12 15/15/15
f 12/12/12 16/16/16 15/15/15
f 14/14/14 13/13/13 17/17/17
f 15/15/15 17/17/17 13/13/13
f 17/17/17 18/18/18 14/14/14
f 15/15/15 19/19/19 17/17/17
f 18/18/18 17/17/17 19/19/19
f 22/22/22 21/21/21 20/20/20
f 21/21/21 23/23/23 20/20/20
f 23/23/23 24/24/24 20/20/20
f 24/24/24 25/25/25 20/20/20
f 24/24/24 26/26/26 25/25/25
f 26/26/26 27/27/27 25/25/25
f 27/27/27 26/26/26 28/28/28
f 26/26/26 29/29/29 28/28/28
f 29/29/29 26/26/26 30/30/30
f 28/28/28 29/29/29 31/31/31
f 32/32/32 29/29/29 30/30/30
f 29/29/29 32/32/32 31/31/31
f 33/33/33 32/32/32 30/30/30
f 31/31/31 32/32/32 34/34/34
f 35/35/35 31/31/31 34/34/34
f 32/32/32 33/33/33 36/36/36
f 36/36/36 34/34/34 32/32/32
f 33/33/33 37/37/37 36/36/36
f 38/38/38 34/34/34 36/36/36
f 36/36/36 37/37/37 38/38/38
f 41/41/41 40/40/40 39/39/39
f 42/42/42 41/41/41 39/39/39
f 43/43/43 41/41/41 42/42/42
f 42/42/42 39/39/39 44/44/44
f 39/39/39 45/45/45 44/44/44
f 46/46/46 43/43/43 42/42/42
f 47/47/47 43/43/43 46/46/46
f 46/46/46 42/42/42 48/48/48
f 42/42/42 44/44/44 48/48/48
f 49/49/49 47/47/47 46/46/46
f 48/48/48 49/49/49 46/46/46
f 50/50/50 47/47/47 49/49/49
f 51/51/51 50/50/50 49/49/49
f 51/51/51 49/49/49 52/52/52
f 52/52/52 49/49/49 48/48/48
f 48/48/48 53/53/53 52/52/52
f 48/48/48 54/54/54 53/53/53
f 48/48/48 44/44/44 54/54/54
f 54/54/54 55/55/55 53/53/53
f 56/56/56 44/44/44 45/45/45
f 44/44/44 56/56/56 54/54/54
f 54/54/54 57/57/57 55/55/55
f 57/57/57 54/54/54 56/56/56
f 58/58/58 56/56/56 45/45/45
f 58/58/58 45/45/45 59/59/59
f 59/59/59 60/60/60 58/58/58
f 58/58/58 61/61/61 56/56/56
f 61/61/61 57/57/57 56/56/56
f 57/57/57 62/62/62 55/55/55
f 62/62/62 63/63/63 55/55/55
f 64/64/64 63/63/63 62/62/62
f 65/65/65 64/64/64 62/62/62
f 57/57/57 66/66/66 62/62/62
f 62/62/62 66/66/66 65/65/65
f 61/61/61 66/66/66 57/57/57
f 66/66/66 67/67/67 65/65/65
f 67/67/67 66/66/66 68/68/68
f 60/60/60 69/69/69 58/58/58
f 69/69/69 61/61/61 58/58/58
f 66/66/66 70/70/70 68/68/68
f 66/66/66 61/61/61 70/70/70
f 71/71/71 69/69/69 60/60/60
f 72/72/72 71/71/71 60/60/60
f 69/69/69 73/73/73 61/61/61
f 61/61/61 73/73/73 70/70/70
f 69/69/69 71/71/71 73/73/73
f 68/68/68 70/70/70 74/74/74
f 74/74/74 70/70/70 73/73/73
f 75/75/75 68/68/68 74/74/74
f 76/76/76 75/75/75 74/74/74
f 77/77/77 76/76/76 74/74/74
f 78/78/78 74/74/74 73/73/73
f 74/74/74 78/78/78 77/77/77
f 78/78/78 73/73/73 71/71/71
f 78/78/78 79/79/79 77/77/77
f 78/78/78 71/71/71 80/80/80
f 78/78/78 80/80/80 79/79/79
f 80/80/80 71/71/71 72/72/72
f 80/80/80 81/81/81 79/79/79
f 82/82/82 80/80/80 72/72/72
f 80/80/80 82/82/82 81/81/81
f 82/82/82 83/83/83 81/81/81
f 84/84/84 82/82/82 72/72/72
f 82/82/82 85/85/85 83/83/83
f 84/84/84 85/85/85 82/82/82
f 85/85/85 86/86/86 83/83/83
f 84/84/84 87/87/87 85/85/85
f 88/88/88 87/87/87 84/84/84
f 88/88/88 89/89/89 87/87/87
f 87/87/87 89/89/89 85/85/85
f 88/88/88 90/90/90 89/89/89
f 91/91/91 86/86/86 85/85/85
f 89/89/89 91/91/91 85/85/85
f 91/91/91 92/92/92 86/86/86
f 90/90/90 93/93/93 89/89/89
f 89/89/89 93/93/93 91/91/91
f 90/90/90 94/94/94 93/93/93
f 93/93/93 94/94/94 95/95/95
f 91/91/91 96/96/96 92/92/92
f 93/93/93 96/96/96 91/91/91
f 97/97/97 92/92/92 96/96/96
f 98/98/98 97/97/97 96/96/96
f 93/93/93 95/95/95 99/99/99
f 99/99/99 96/96/96 93/93/93
f 98/98/98 96/96/96 99/99/99
f 95/95/95 100/100/100 99/99/99
f 101/101/101 98/98/98 99/99/99
f 100/100/100 101/101/101 99/99/99
f 104/104/104 103/103/103 102/102/102
f 102/102/102 103/103/103 105/105/105
f 103/103/103 106/106/106 105/105/105
f 102/102/102 105/105/105 107/107/107
f 108/108/108 102/102/102 107/107/107
f 106/106/106 109/109/109 105/105/105
f 106/106/106 110/110/110 109/109/109
f 105/105/105 109/109/109 111/111/111
f 107/107/107 105/105/105 111/111/111
f 110/110/110 112/112/112 109/109/109
f 112/112/112 111/111/111 109/109/109
f 110/110/110 113/113/113 112/112/112
f 113/113/113 114/114/114 112/112/112
f 112/112/112 114/114/114 115/115/115
f 112/112/112 115/115/115 111/111/111
f 116/116/116 111/111/111 115/115/115
f 117/117/117 111/111/111 116/116/116
f 107/107/107 111/111/111 117/117/117
f 118/118/118 117/117/117 116/116/116
f 107/107/107 119/119/119 108/108/108
f 119/119/119 107/107/107 117/117/117
f 120/120/120 117/117/117 118/118/118
f 117/117/117 120/120/120 119/119/119
f 119/119/119 121/121/121 108/108/108
f 108/108/108 121/121/121 122/122/122
f 123/123/123 122/122/122 121/121/121
f 124/124/124 121/121/121 119/119/119
f 120/120/120 124/124/124 119/119/119
f 125/125/125 120/120/120 118/118/118
f 126/126/126 125/125/125 118/118/118
f 126/126/126 127/127/127 125/125/125
f 127/127/127 128/128/128 125/125/125
f 129/129/129 120/120/120 125/125/125
f 129/129/129 125/125/125 128/128/128
f 129/129/129 124/124/124 120/120/120
f 130/130/130 129/129/129 128/128/128
f 129/129/129 130/130/130 131/131/131
f 132/132/132 123/123/123 121/121/121
f 124/124/124 132/132/132 121/121/121
f 133/133/133 129/129/129 131/131/131
f 124/124/124 129/129/129 133/133/133
f 132/132/132 134/134/134 123/123/123
f 134/134/134 135/135/135 123/123/123
f 136/136/136 132/132/132 124/124/124
f 136/136/136 124/124/124 133/133/133
f 134/134/134 132/132/132 136/136/136
f 133/133/133 131/131/131 137/137/137
f 133/133/133 137/137/137 136/136/136
f 131/131/131 138/138/138 137/137/137
f 138/138/138 139/139/139 137/137/137
f 139/139/139 140/140/140 137/137/137
f 137/137/137 141/141/141 136/136/136
f 141/141/141 137/137/137 140/140/140
f 136/136/136 141/141/141 134/134/134
f 142/142/142 141/141/141 140/140/140
f 134/134/134 141/141/141 143/143/143
f 143/143/143 141/141/141 142/142/142
f 134/134/134 143/143/143 135/135/135
f 144/144/144 143/143/143 142/142/142
f 143/143/143 145/145/145 135/135/135
f 145/145/145 143/143/143 144/144/144
f 146/146/146 145/145/145 144/144/144
f 145/145/145 147/147/147 135/135/135
f 148/148/148 145/145/145 146/146/146
f 148/148/148 147/147/147 145/145/145
f 149/149/149 148/148/148 146/146/146
f 150/150/150 147/147/147 148/148/148
f 150/150/150 151/151/151 147/147/147
f 152/152/152 151/151/151 150/150/150
f 152/152/152 150/150/150 148/148/148
f 153/153/153 151/151/151 152/152/152
f 149/149/149 154/154/154 148/148/148
f 154/154/154 152/152/152 148/148/148
f 155/155/155 154/154/154 149/149/149
f 156/156/156 153/153/153 152/152/152
f 156/156/156 152/152/152 154/154/154
f 157/157/157 153/153/153 156/156/156
f 157/157/157 156/156/156 158/158/158
f 159/159/159 154/154/154 155/155/155
f 159/159/159 156/156/156 154/154/154
f 155/155/155 160/160/160 159/159/159
f 160/160/160 161/161/161 159/159/159
f 158/158/158 156/156/156 162/162/162
f 159/159/159 162/162/162 156/156/156
f 159/159/159 161/161/161 162/162/162
f 163/163/163 158/158/158 162/162/162
f 161/161/161 164/164/164 162/162/162
f 164/164/164 163/163/163 162/162/162
