g Bangboo_Bagboo_Weapon1_LOD0
v 0.0752553 0.0039742994 1.1031961
v 0.08705708 0.00039494038 1.1009558
v 0.087573595 0.00035833835 1.3255904
v 0.075420626 0.0033596992 1.3241624
v 0.017945498 0.008647422 1.1055924
v 0.082307026 0.0045661926 1.4177868
v 0.09520069 0.0003583193 1.4188371
v -0.004012279 0.012128839 1.4221176
v -0.018693656 0.008379412 1.3151535
v -0.056045875 0.017730102 1.4274527
v -0.06513323 0.013901472 1.1908667
v -0.087376475 0.017240142 1.0987675
v -0.09520065 0.01307517 1.1042118
v -0.082720205 0.010536661 1.1650342
v -0.073975466 0.008742542 1.2169721
v -0.06276222 0.0136930365 1.3107466
v -0.076330565 0.017730102 1.4306809
v -0.07259478 0.009038086 1.309942
v -0.08112774 0.013075137 1.4241439
v -0.076330565 0.017730102 1.4306809
v -0.076330565 -0.017013347 1.4306809
v -0.08112774 -0.012358365 1.4241439
v -0.08112774 0.013075137 1.4241439
v 0.087573595 0.00035833835 1.3255904
v 0.08232645 -0.0041539907 1.4177831
v 0.09520069 0.0003583193 1.4188371
v 0.07469338 -0.0026435042 1.323882
v 0.08705708 0.00032179354 1.1009558
v 0.07523708 -0.0032642174 1.1032056
v -0.004012279 -0.0114121195 1.4221176
v 0.017945498 -0.007930641 1.1055924
v -0.018693656 -0.007662654 1.3151535
v -0.056045875 -0.017013354 1.4274526
v -0.06513323 -0.013184647 1.1908667
v -0.087376475 -0.016523285 1.0987675
v -0.09520065 -0.0123583125 1.1042118
v -0.082720205 -0.009819822 1.1650342
v -0.073975466 -0.008025723 1.2169721
v -0.06276222 -0.012976255 1.3107466
v -0.076330565 -0.017013347 1.4306809
v -0.07259478 -0.008321295 1.309942
v -0.08112774 -0.012358365 1.4241439
v -0.09520065 0.01307517 1.1042118
v -0.082720205 -0.009819822 1.1650342
v -0.09520065 -0.0123583125 1.1042118
v -0.082720205 0.010536661 1.1650342
v -0.073975466 -0.008025723 1.2169721
v -0.073975466 0.008742542 1.2169721
v -0.07259478 0.009038086 1.309942
v -0.07259478 -0.008321295 1.309942
v -0.08112774 -0.012358365 1.4241439
v -0.08112774 0.013075137 1.4241439
v -0.087376475 0.017240142 1.0987675
v -0.087376475 -0.016523285 1.0987675
v 0.017945498 -0.007930641 1.1055924
v 0.017945498 0.008647422 1.1055924
v 0.0752553 0.0039742994 1.1031961
v 0.07523708 -0.0032642174 1.1032056
v 0.08705708 0.00039494038 1.1009558
v 0.08705708 0.00032179354 1.1009558
v -0.087376475 0.017240142 1.0987675
v -0.09520065 0.01307517 1.1042118
v -0.09520065 -0.0123583125 1.1042118
v -0.087376475 -0.016523285 1.0987675
v -0.076330565 0.017730102 1.4306809
v -0.056045875 -0.017013354 1.4274526
v -0.076330565 -0.017013347 1.4306809
v -0.056045875 0.017730102 1.4274527
v -0.004012279 -0.0114121195 1.4221176
v -0.004012279 0.012128839 1.4221176
v 0.08232645 -0.0041539907 1.4177831
v 0.082307026 0.0045661926 1.4177868
v 0.09520069 0.0003583193 1.4188371
v -0.009491024 0.0072372006 1.4184197
v -0.005963688 2.8610229E-08 1.4184196
v -0.018208923 1.9073486E-08 1.465683
v -0.02174612 0.008112159 1.465683
v -0.023972053 0.010244388 1.4195523
v -0.021264838 1.9073486E-08 1.5106223
v -0.032860525 0.012137427 1.4841963
v -0.024812412 0.009287081 1.5106223
v -0.020187054 0.011648264 1.5513096
v -0.016624698 4.7683715E-09 1.5513096
v -0.05043766 0.009269099 1.4762911
v -0.049485795 0.008870015 1.4212304
v -0.05770748 0.0058859778 1.42159
v -0.03136078 0.01623065 1.5510174
v -0.021540584 0.02156332 1.6238668
v -0.010358238 0.014064603 1.596919
v -0.0067926785 0 1.596919
v -0.0022050093 0.015658988 1.6253892
v 0.0021632765 -4.7683715E-09 1.6253892
v 0.0006534767 -9.536743E-09 1.6318517
v -0.0034683226 0.015658988 1.6311946
v -0.0024175835 -4.7683715E-09 1.6375837
v -0.0072307587 0.015658993 1.6375837
v -0.013812313 -4.7683715E-09 1.6422714
v -0.016752167 0.013488907 1.640852
v -0.03153002 0.017769508 1.6352051
v -0.055421695 0.016712375 1.6211845
v -0.05230793 0.014526462 1.6285602
v -0.0517243 0.012354908 1.550593
v -0.06404127 0.00822236 1.6203309
v -0.06014969 0.008222365 1.6273712
v -0.06325041 1.4305114E-08 1.6273712
v -0.056968648 0.0054026316 1.4745643
v -0.05886381 0.0065722656 1.5505013
v -0.06643255 1.9073486E-08 1.6203309
v -0.059338015 2.8610229E-08 1.4745643
v -0.060084324 4.2915342E-08 1.42159
v -0.05770748 -0.0058858916 1.42159
v -0.061249807 1.9073486E-08 1.5505013
v -0.06404127 -0.008222322 1.6203309
v -0.06014969 -0.008222337 1.6273712
v -0.05230793 -0.014526433 1.62856
v -0.056968648 -0.0054025743 1.4745643
v -0.05886381 -0.0065722177 1.5505013
v -0.055421695 -0.016712345 1.6211845
v -0.03153002 -0.017769499 1.6352051
v -0.021540584 -0.021563312 1.6238668
v -0.016752167 -0.013488912 1.640852
v -0.05043766 -0.009269037 1.4762911
v -0.049485795 -0.008869934 1.4212304
v -0.023972053 -0.010244327 1.4195523
v -0.0517243 -0.012354869 1.550593
v -0.032860525 -0.0121373795 1.4841963
v -0.03136078 -0.01623062 1.5510174
v -0.02174612 -0.008112111 1.465683
v -0.009491024 -0.0072371433 1.4184197
v -0.024812412 -0.009287038 1.5106223
v -0.018208923 1.9073486E-08 1.465683
v -0.005963688 2.8610229E-08 1.4184196
v -0.021264838 1.9073486E-08 1.5106223
v -0.020187054 -0.011648244 1.5513096
v -0.016624698 4.7683715E-09 1.5513096
v -0.010358238 -0.014064593 1.596919
v -0.0067926785 0 1.596919
v -0.0022050093 -0.015658993 1.6253892
v 0.0021632765 -4.7683715E-09 1.6253892
v 0.0006534767 -9.536743E-09 1.6318517
v -0.0034683226 -0.015658993 1.6311946
v -0.0024175835 -4.7683715E-09 1.6375837
v -0.0072307587 -0.015658999 1.6375837
v -0.013812313 -4.7683715E-09 1.6422714
v -0.05230793 0.014526462 1.6285602
v -0.03153002 0.017769508 1.6352051
v -0.031530038 4.7683715E-09 1.6368338
v -0.016752167 0.013488907 1.640852
v -0.013812313 -4.7683715E-09 1.6422714
v -0.016752167 -0.013488912 1.640852
v -0.03153002 -0.017769499 1.6352051
v -0.05230793 -0.014526433 1.62856
v -0.052307967 9.536743E-09 1.6305183
v -0.06014969 0.008222365 1.6273712
v -0.06014969 -0.008222337 1.6273712
v -0.05248495 9.536743E-09 1.6304724
v -0.06325041 1.4305114E-08 1.6273712
vt 0.09790087 0.05299888
vt 0.065223336 0.05040445
vt 0.05623722 0.66541296
vt 0.096125245 0.6621241
vt 0.25688922 0.065621786
vt 0.067825675 0.92124087
vt 0.02629149 0.9191031
vt 0.29742038 0.9330581
vt 0.34777534 0.6413749
vt 0.43425906 0.95335466
vt 0.48449743 0.30296758
vt 0.5468776 0.047667943
vt 0.57015777 0.066821896
vt 0.52980053 0.23331107
vt 0.5057974 0.3754374
vt 0.46876192 0.6321959
vt 0.4853078 0.9653438
vt 0.4943546 0.6302193
vt 0.49966085 0.9455785
vt 0.5885842 0.08805832
vt 0.833543 0.08805832
vt 0.799478 0.020766634
vt 0.6201589 0.020766634
vt 0.05623722 0.66541296
vt 0.06769679 0.9212342
vt 0.026291484 0.9191031
vt 0.1039574 0.6614783
vt 0.06522336 0.05040445
vt 0.098055735 0.053011183
vt 0.29742035 0.9330581
vt 0.25688922 0.065621786
vt 0.34777534 0.6413749
vt 0.4342591 0.95335466
vt 0.4844974 0.30296758
vt 0.54687756 0.047667943
vt 0.57015777 0.066821896
vt 0.52980053 0.23331107
vt 0.5057974 0.3754374
vt 0.4687619 0.6321959
vt 0.48530784 0.9653438
vt 0.49435464 0.6302193
vt 0.49966088 0.9455785
vt 0.9744592 0.76464903
vt 0.9392674 0.6606157
vt 0.93663585 0.7650628
vt 0.96953964 0.66026783
vt 0.9408704 0.5725918
vt 0.965806 0.5722389
vt 0.9637232 0.4167936
vt 0.93790925 0.41725144
vt 0.92823887 0.2256085
vt 0.9660578 0.22488514
vt 0.83516544 0.4195444
vt 0.87144554 0.4190144
vt 0.8601518 0.29521245
vt 0.84284043 0.29545876
vt 0.8490507 0.22792564
vt 0.85207343 0.22794864
vt 0.85032713 0.21404532
vt 0.85040355 0.21404456
vt 0.7350159 0.11435527
vt 0.76616794 0.1938743
vt 0.94370896 0.1938743
vt 0.977546 0.11435527
vt 0.7961038 0.4300207
vt 0.75863916 0.40413192
vt 0.7582533 0.42944404
vt 0.7964894 0.40470657
vt 0.7657104 0.34018368
vt 0.79135674 0.34056917
vt 0.77812445 0.23680896
vt 0.78204626 0.236926
vt 0.78036195 0.21817672
vt 0.6047611 0.44339612
vt 0.58570397 0.44486204
vt 0.6136983 0.55373853
vt 0.634682 0.5532359
vt 0.6430047 0.44819602
vt 0.61328626 0.6548487
vt 0.66342056 0.5980523
vt 0.63657093 0.6573844
vt 0.6192554 0.75072515
vt 0.59120315 0.7442456
vt 0.7106457 0.58172196
vt 0.70914125 0.4542829
vt 0.7304466 0.4557235
vt 0.6507596 0.7523364
vt 0.6139985 0.9185991
vt 0.5856398 0.85386246
vt 0.5523202 0.844643
vt 0.56298137 0.9175235
vt 0.52621764 0.9126956
vt 0.52728766 0.9334591
vt 0.5642693 0.9281156
vt 0.5353397 0.95229906
vt 0.5710235 0.9414816
vt 0.5584877 0.9775037
vt 0.5889543 0.95874184
vt 0.6356011 0.949539
vt 0.7014111 0.91808647
vt 0.6954123 0.936792
vt 0.70540345 0.7539431
vt 0.72944856 0.9163977
vt 0.7237785 0.9345983
vt 0.7476591 0.9341288
vt 0.73043954 0.5783036
vt 0.72907007 0.75422186
vt 0.7475268 0.9161827
vt 0.74501985 0.57840735
vt 0.74412614 0.45585033
vt 0.7578021 0.4555213
vt 0.74632174 0.7542602
vt 0.7656066 0.9161319
vt 0.771544 0.9342471
vt 0.79994017 0.9360218
vt 0.7595973 0.57808864
vt 0.763571 0.7539685
vt 0.793665 0.9174072
vt 0.8599353 0.947881
vt 0.8810752 0.9166232
vt 0.906715 0.95638824
vt 0.7794385 0.5812151
vt 0.7790838 0.45376655
vt 0.84512544 0.44671053
vt 0.7872313 0.75334126
vt 0.8268966 0.5968477
vt 0.8418451 0.7509258
vt 0.85497534 0.551614
vt 0.8832969 0.44135106
vt 0.8546202 0.65577674
vt 0.87596333 0.55180866
vt 0.902374 0.44253874
vt 0.8778643 0.6528973
vt 0.87332153 0.74884784
vt 0.9012737 0.7419521
vt 0.9084672 0.8514718
vt 0.94164586 0.8417573
vt 0.9320706 0.9147871
vt 0.96875805 0.9094122
vt 0.9679975 0.930188
vt 0.9309401 0.92539686
vt 0.96022767 0.9491452
vt 0.9243858 0.93886214
vt 0.9374593 0.97469306
vt 0.5854729 0.20356418
vt 0.570834 0.310304
vt 0.6492812 0.3125013
vt 0.58955556 0.38737208
vt 0.6488822 0.40326136
vt 0.7082506 0.38798803
vt 0.72774583 0.3110882
vt 0.7143881 0.20439993
vt 0.6498514 0.20610757
vt 0.6138373 0.16488205
vt 0.6865713 0.16540785
vt 0.64986235 0.20518945
vt 0.650317 0.1502886
vn 0.17185865 0.9851134 0.004023501
vn 0.2649322 0.96426654 0.0010037883
vn 0.27269837 0.9619854 -0.014818894
vn 0.16795531 0.98570734 -0.013120497
vn 0.07073339 0.9974312 0.011303176
vn 0.18099774 0.983023 -0.03009313
vn 0.2790406 0.9598748 -0.027869036
vn 0.085609645 0.9955166 -0.04022192
vn 0.08320888 0.9964051 -0.015911067
vn 0.08975134 0.99505013 -0.04265939
vn -0.11445862 0.99239576 0.04527689
vn -0.14372756 0.9872208 0.068829164
vn -0.36877158 0.9218498 0.11916563
vn -0.35981092 0.9260091 0.11420701
vn -0.4340795 0.9006585 0.019731183
vn -0.18803087 0.9817446 -0.028669465
vn -0.15900013 0.9856309 -0.057014443
vn -0.4819319 0.87556875 -0.033481453
vn -0.5073008 0.8582786 -0.077484205
vn -0.8061941 0 0.591651
vn -0.8061941 0 0.591651
vn -0.8061941 0 0.591651
vn -0.8061941 0 0.591651
vn 0.27175134 -0.96222794 -0.016385827
vn 0.18288118 -0.982601 -0.032401133
vn 0.2829949 -0.9586263 -0.030812824
vn 0.1661442 -0.98600256 -0.01396701
vn 0.25773326 -0.9662151 0.001441819
vn 0.1682555 -0.985734 0.004319649
vn 0.08487164 -0.9955466 -0.04103455
vn 0.07088295 -0.9974197 0.011384226
vn 0.08297148 -0.9964198 -0.016226424
vn 0.08975085 -0.99505025 -0.042659685
vn -0.11445915 -0.99239564 0.04527662
vn -0.14372809 -0.9872207 0.06882895
vn -0.36877185 -0.92184967 0.11916539
vn -0.35981125 -0.9260091 0.11420677
vn -0.43407997 -0.9006582 0.019730885
vn -0.18803155 -0.98174447 -0.028669775
vn -0.15900138 -0.9856307 -0.057014756
vn -0.4819327 -0.87556833 -0.033481713
vn -0.5073018 -0.858278 -0.077484444
vn -0.97958976 0 0.20100701
vn -0.9829329 0 0.1839646
vn -0.9795899 0 0.20100701
vn -0.9829329 0 0.18396458
vn -0.99581075 0 0.09143842
vn -0.99581075 0 0.09143844
vn -0.9995377 0 -0.030401798
vn -0.9995377 0 -0.030401805
vn -0.9972203 0 -0.074510485
vn -0.9972203 0 -0.074510485
vn 0.06466376 0 -0.99790716
vn 0.06466375 0 -0.99790716
vn 0.014252112 -0.00017178134 -0.99989843
vn 0.014253724 -0.00017177589 -0.99989843
vn -0.10545567 -0.0005531428 -0.9944238
vn -0.105192855 -0.000552356 -0.9944517
vn -0.1867342 -0.000795673 -0.9824102
vn -0.1867342 -0.00079567306 -0.9824102
vn -0.5711603 0 -0.82083845
vn -0.5711603 0 -0.8208386
vn -0.5711603 0 -0.8208386
vn -0.5711603 0 -0.82083845
vn 0.15716621 -1.0837147E-06 0.9875722
vn 0.13060053 -1.1895331E-06 0.9914351
vn 0.15716623 -1.0837148E-06 0.9875722
vn 0.13060056 -1.1895331E-06 0.9914351
vn 0.0776463 -3.868514E-05 0.99698097
vn 0.07767691 -3.863822E-05 0.99697864
vn -0.0061893393 -0.00029993785 0.9999808
vn -0.0064795814 -0.00030106495 0.999979
vn -0.081384294 -0.0005911481 0.9966826
vn 0.6939889 0.70262533 0.15715277
vn 0.9690082 0 0.24702871
vn 0.9873525 -1.7212109E-07 0.15854044
vn 0.650378 0.75452954 0.087712936
vn 0.123567134 0.99231976 0.0057030693
vn 0.99949706 -1.0958396E-07 -0.031710304
vn 0.09478019 0.99519366 -0.024619708
vn 0.73304224 0.6779535 -0.055028286
vn 0.731828 0.6659166 -0.14485447
vn 0.9850596 -1.2788954E-07 -0.17221396
vn -0.32226714 0.94622207 -0.028418109
vn -0.2542387 0.96703655 -0.014242454
vn -0.7170175 0.6970124 0.0077225356
vn 0.119819716 0.9895991 -0.079604566
vn 0.07035492 0.99238825 0.10107346
vn 0.7137126 0.66899836 -0.20749816
vn 0.96621835 0 -0.25772485
vn 0.7471108 0.6636422 -0.03747472
vn 0.99931824 0 -0.036919814
vn 0.93479526 -1.8739686E-07 0.35518706
vn 0.690244 0.67119783 0.27029008
vn 0.6819933 0 0.7313584
vn 0.45941898 0.63289326 0.62320167
vn 0.057975538 0 0.99831796
vn -0.0034593164 0.4820098 0.87615895
vn -0.22958286 0.65990293 0.7154158
vn -0.45619175 0.87915623 0.13774407
vn -0.38208777 0.62569225 0.68008685
vn -0.40189487 0.91392475 -0.05676416
vn -0.8402123 0.51441526 0.17152339
vn -0.5838172 0.3761435 0.7194953
vn -0.68744385 0 0.72623754
vn -0.74890727 0.6625809 -0.011157596
vn -0.8106082 0.5830371 -0.054609187
vn -0.98274994 0 0.18493931
vn -0.9999807 0 -0.006212995
vn -0.99987304 0 0.01593355
vn -0.7170176 -0.69701236 0.007722209
vn -0.99856704 0 -0.053515997
vn -0.8402123 -0.51441514 0.17152338
vn -0.5838163 -0.37614405 0.7194958
vn -0.38208777 -0.62569284 0.6800864
vn -0.7489072 -0.6625809 -0.011157829
vn -0.8106082 -0.58303696 -0.054609276
vn -0.4561921 -0.87915605 0.13774416
vn -0.22958359 -0.659903 0.7154156
vn 0.07035436 -0.99238825 0.10107325
vn -0.0034595071 -0.48201007 0.8761588
vn -0.3222676 -0.946222 -0.028418414
vn -0.25423905 -0.9670364 -0.014242824
vn 0.123566605 -0.9923199 0.0057027615
vn -0.40189525 -0.9139245 -0.05676435
vn 0.09477978 -0.9951938 -0.02461996
vn 0.11981925 -0.9895991 -0.079604834
vn 0.65037775 -0.7545298 0.08771274
vn 0.6939888 -0.7026255 0.15715258
vn 0.7330421 -0.67795354 -0.055028528
vn 0.9873525 -1.7212109E-07 0.15854044
vn 0.9690082 0 0.24702871
vn 0.99949706 -1.0958396E-07 -0.031710304
vn 0.7318277 -0.6659168 -0.1448547
vn 0.9850596 -1.2788954E-07 -0.17221396
vn 0.7137124 -0.6689986 -0.20749833
vn 0.96621835 0 -0.25772485
vn 0.7471106 -0.6636425 -0.037474904
vn 0.99931824 0 -0.036919814
vn 0.93479526 -1.8739686E-07 0.35518706
vn 0.6902438 -0.671198 0.27029002
vn 0.6819933 0 0.7313584
vn 0.4594188 -0.63289344 0.62320155
vn 0.057975538 0 0.99831796
vn -0.38208777 0.62569225 0.68008685
vn -0.22958286 0.65990293 0.7154158
vn -0.31043202 -2.7135692E-07 0.9505956
vn -0.0034593164 0.4820098 0.87615895
vn 0.057975538 0 0.99831796
vn -0.0034595071 -0.48201007 0.8761588
vn -0.22958359 -0.659903 0.7154156
vn -0.38208777 -0.62569284 0.6800864
vn -0.27919582 -9.30198E-07 0.9602342
vn -0.5838172 0.3761435 0.7194953
vn -0.5838163 -0.37614405 0.7194958
vn -0.25796565 -1.0119662E-06 0.9661541
vn -0.68744385 0 0.72623754
g Bangboo_Bagboo_Weapon1_LOD0_0
f 3/3/3 2/2/2 1/1/1
f 4/4/4 3/3/3 1/1/1
f 4/4/4 1/1/1 5/5/5
f 3/3/3 4/4/4 6/6/6
f 7/7/7 3/3/3 6/6/6
f 6/6/6 4/4/4 8/8/8
f 4/4/4 9/9/9 8/8/8
f 9/9/9 4/4/4 5/5/5
f 10/10/10 8/8/8 9/9/9
f 5/5/5 11/11/11 9/9/9
f 12/12/12 11/11/11 5/5/5
f 12/12/12 13/13/13 11/11/11
f 13/13/13 14/14/14 11/11/11
f 15/15/15 11/11/11 14/14/14
f 10/10/10 9/9/9 16/16/16
f 9/9/9 11/11/11 16/16/16
f 11/11/11 15/15/15 16/16/16
f 17/17/17 10/10/10 16/16/16
f 15/15/15 18/18/18 16/16/16
f 19/19/19 17/17/17 16/16/16
f 18/18/18 19/19/19 16/16/16
f 22/22/22 21/21/21 20/20/20
f 23/23/23 22/22/22 20/20/20
f 26/26/26 25/25/25 24/24/24
f 25/25/25 27/27/27 24/24/24
f 28/28/28 24/24/24 27/27/27
f 29/29/29 28/28/28 27/27/27
f 27/27/27 25/25/25 30/30/30
f 31/31/31 29/29/29 27/27/27
f 32/32/32 27/27/27 30/30/30
f 32/32/32 31/31/31 27/27/27
f 30/30/30 33/33/33 32/32/32
f 34/34/34 31/31/31 32/32/32
f 34/34/34 35/35/35 31/31/31
f 35/35/35 34/34/34 36/36/36
f 34/34/34 37/37/37 36/36/36
f 34/34/34 38/38/38 37/37/37
f 39/39/39 32/32/32 33/33/33
f 34/34/34 32/32/32 39/39/39
f 38/38/38 34/34/34 39/39/39
f 40/40/40 39/39/39 33/33/33
f 41/41/41 38/38/38 39/39/39
f 40/40/40 42/42/42 39/39/39
f 42/42/42 41/41/41 39/39/39
f 45/45/45 44/44/44 43/43/43
f 44/44/44 46/46/46 43/43/43
f 44/44/44 47/47/47 46/46/46
f 47/47/47 48/48/48 46/46/46
f 48/48/48 47/47/47 49/49/49
f 47/47/47 50/50/50 49/49/49
f 50/50/50 51/51/51 49/49/49
f 51/51/51 52/52/52 49/49/49
f 55/55/55 54/54/54 53/53/53
f 56/56/56 55/55/55 53/53/53
f 56/56/56 57/57/57 55/55/55
f 57/57/57 58/58/58 55/55/55
f 58/58/58 57/57/57 59/59/59
f 60/60/60 58/58/58 59/59/59
f 63/63/63 62/62/62 61/61/61
f 64/64/64 63/63/63 61/61/61
f 67/67/67 66/66/66 65/65/65
f 66/66/66 68/68/68 65/65/65
f 66/66/66 69/69/69 68/68/68
f 69/69/69 70/70/70 68/68/68
f 69/69/69 71/71/71 70/70/70
f 71/71/71 72/72/72 70/70/70
f 73/73/73 72/72/72 71/71/71
f 76/76/76 75/75/75 74/74/74
f 77/77/77 76/76/76 74/74/74
f 74/74/74 78/78/78 77/77/77
f 79/79/79 76/76/76 77/77/77
f 78/78/78 80/80/80 77/77/77
f 81/81/81 79/79/79 77/77/77
f 77/77/77 80/80/80 81/81/81
f 79/79/79 81/81/81 82/82/82
f 83/83/83 79/79/79 82/82/82
f 84/84/84 80/80/80 78/78/78
f 85/85/85 84/84/84 78/78/78
f 85/85/85 86/86/86 84/84/84
f 81/81/81 80/80/80 87/87/87
f 82/82/82 81/81/81 87/87/87
f 82/82/82 87/87/87 88/88/88
f 89/89/89 82/82/82 88/88/88
f 83/83/83 82/82/82 89/89/89
f 90/90/90 83/83/83 89/89/89
f 90/90/90 89/89/89 91/91/91
f 91/91/91 89/89/89 88/88/88
f 92/92/92 90/90/90 91/91/91
f 93/93/93 92/92/92 91/91/91
f 94/94/94 93/93/93 91/91/91
f 91/91/91 88/88/88 94/94/94
f 95/95/95 93/93/93 94/94/94
f 96/96/96 95/95/95 94/94/94
f 94/94/94 88/88/88 96/96/96
f 97/97/97 95/95/95 96/96/96
f 98/98/98 97/97/97 96/96/96
f 98/98/98 96/96/96 88/88/88
f 99/99/99 98/98/98 88/88/88
f 99/99/99 88/88/88 100/100/100
f 100/100/100 88/88/88 87/87/87
f 101/101/101 99/99/99 100/100/100
f 102/102/102 100/100/100 87/87/87
f 87/87/87 80/80/80 102/102/102
f 80/80/80 84/84/84 102/102/102
f 100/100/100 103/103/103 101/101/101
f 103/103/103 104/104/104 101/101/101
f 105/105/105 104/104/104 103/103/103
f 84/84/84 106/106/106 102/102/102
f 86/86/86 106/106/106 84/84/84
f 102/102/102 107/107/107 100/100/100
f 107/107/107 103/103/103 100/100/100
f 106/106/106 107/107/107 102/102/102
f 108/108/108 105/105/105 103/103/103
f 108/108/108 103/103/103 107/107/107
f 109/109/109 106/106/106 86/86/86
f 110/110/110 109/109/109 86/86/86
f 110/110/110 111/111/111 109/109/109
f 112/112/112 107/107/107 106/106/106
f 109/109/109 112/112/112 106/106/106
f 112/112/112 108/108/108 107/107/107
f 108/108/108 113/113/113 105/105/105
f 113/113/113 114/114/114 105/105/105
f 114/114/114 113/113/113 115/115/115
f 111/111/111 116/116/116 109/109/109
f 109/109/109 116/116/116 112/112/112
f 112/112/112 117/117/117 108/108/108
f 117/117/117 113/113/113 108/108/108
f 116/116/116 117/117/117 112/112/112
f 113/113/113 118/118/118 115/115/115
f 113/113/113 117/117/117 118/118/118
f 119/119/119 115/115/115 118/118/118
f 120/120/120 119/119/119 118/118/118
f 121/121/121 119/119/119 120/120/120
f 116/116/116 111/111/111 122/122/122
f 111/111/111 123/123/123 122/122/122
f 122/122/122 123/123/123 124/124/124
f 117/117/117 116/116/116 125/125/125
f 117/117/117 125/125/125 118/118/118
f 116/116/116 122/122/122 125/125/125
f 126/126/126 122/122/122 124/124/124
f 122/122/122 126/126/126 125/125/125
f 125/125/125 127/127/127 118/118/118
f 127/127/127 120/120/120 118/118/118
f 126/126/126 127/127/127 125/125/125
f 128/128/128 126/126/126 124/124/124
f 129/129/129 128/128/128 124/124/124
f 126/126/126 130/130/130 127/127/127
f 126/126/126 128/128/128 130/130/130
f 131/131/131 128/128/128 129/129/129
f 132/132/132 131/131/131 129/129/129
f 131/131/131 133/133/133 128/128/128
f 133/133/133 130/130/130 128/128/128
f 130/130/130 134/134/134 127/127/127
f 134/134/134 130/130/130 133/133/133
f 127/127/127 134/134/134 120/120/120
f 135/135/135 134/134/134 133/133/133
f 136/136/136 134/134/134 135/135/135
f 134/134/134 136/136/136 120/120/120
f 137/137/137 136/136/136 135/135/135
f 138/138/138 136/136/136 137/137/137
f 136/136/136 138/138/138 120/120/120
f 139/139/139 138/138/138 137/137/137
f 138/138/138 139/139/139 140/140/140
f 141/141/141 138/138/138 140/140/140
f 120/120/120 138/138/138 141/141/141
f 140/140/140 142/142/142 141/141/141
f 120/120/120 141/141/141 143/143/143
f 142/142/142 143/143/143 141/141/141
f 143/143/143 121/121/121 120/120/120
f 142/142/142 144/144/144 143/143/143
f 144/144/144 121/121/121 143/143/143
f 147/147/147 146/146/146 145/145/145
f 146/146/146 147/147/147 148/148/148
f 147/147/147 149/149/149 148/148/148
f 149/149/149 147/147/147 150/150/150
f 147/147/147 151/151/151 150/150/150
f 152/152/152 151/151/151 147/147/147
f 153/153/153 147/147/147 145/145/145
f 153/153/153 152/152/152 147/147/147
f 153/153/153 145/145/145 154/154/154
f 155/155/155 152/152/152 153/153/153
f 156/156/156 153/153/153 154/154/154
f 156/156/156 155/155/155 153/153/153
f 157/157/157 156/156/156 154/154/154
f 156/156/156 157/157/157 155/155/155
