g SeparateMesh_Monster_GoldenBomb_Model_GoldenBomb_Weapon_01_LOD1
v 0.0074788784 0.013377425 1.4306494
v 0.004261618 0.010612471 1.4109738
v 0.012534216 0.016669603 1.4263761
v -0.0020519355 0.0063869823 1.4143047
v 0.0092971865 0.0066941436 1.4331776
v 0.0009076853 0.007597613 1.3947988
v -0.00047562816 -0.0015289689 1.4163241
v 0.016192308 0.003240728 1.4314866
v -0.0059181293 0.002820973 1.3965745
v 0.00046185864 0.0072246036 1.3840324
v -0.0064723557 0.0023091943 1.3846275
v -0.0056805005 -0.006287862 1.385132
v 0.0074486053 -0.0052428734 1.4150177
v 0.021321952 0.0064915833 1.4272419
v -0.0049192104 -0.0055969795 1.3977684
v 0.002995184 -0.00924663 1.3971459
v 0.0021448592 -0.0099811 1.3849841
v 0.013943345 -0.0010450524 1.4115978
v 0.019495696 0.013230576 1.4246502
v 0.010154865 -0.0045088073 1.3951848
v 0.009546301 -0.005061563 1.384155
v 0.008660531 0.0035464247 1.3837074
v 0.012346594 0.0068919295 1.4095654
v 0.012534216 0.016669603 1.4263761
v 0.004261618 0.010612471 1.4109738
v 0.009081122 0.0039234767 1.3940269
v 0.00046185864 0.0072246036 1.3840324
v 0.0009076853 0.007597613 1.3947988
v 0.021321952 0.0064915833 1.4272419
v 0.016192308 0.003240728 1.4314866
v 0.016787486 0.011999587 1.4320413
v 0.019495696 0.013230576 1.4246502
v 0.0092971865 0.0066941436 1.4331776
v 0.012534216 0.016669603 1.4263761
v 0.0074788784 0.013377425 1.4306494
v -2.3E-05 0.03786854 1.3835642
v -2.3E-05 -0.00315194 1.3917195
v -0.04104175 -0.00315194 1.38356
v -0.03792029 0.03786854 1.3760256
v -0.075815424 -0.00315194 1.3603251
v 0.037874293 0.03786854 1.3760256
v 0.04099475 -0.00315194 1.38356
v -0.070048496 0.03786854 1.3545581
v -0.09905046 -0.00315194 1.3255513
v -2.3E-05 0.07265219 1.3603358
v 0.07000248 0.037868533 1.3545581
v 0.075768426 -0.00315194 1.3603251
v -0.09151582 0.03786854 1.3224299
v -0.10720962 -0.00315194 1.2845325
v -0.05362393 0.072652176 1.3381336
v 0.053577915 0.07265219 1.3381336
v 0.09146981 0.037868533 1.3224312
v 0.09900447 -0.00315194 1.3255513
v -0.09905455 0.03786854 1.2845325
v -0.09905046 -0.00315194 1.2435149
v 0.09900856 0.037868533 1.2845325
v 0.10716265 -0.00315194 1.2845325
v -0.07582618 0.07265219 1.2845325
v -0.09151582 0.03786854 1.2466353
v -0.075815424 -0.00315194 1.2087413
v 0.07578018 0.07265219 1.2845325
v 0.09146982 0.037868533 1.2466353
v 0.09900448 -0.00315194 1.2435149
v -0.070048496 0.037868533 1.2145072
v -0.04104174 -0.00315194 1.1855061
v 0.07000249 0.037868533 1.2145072
v 0.07576944 -0.00315194 1.2087413
v -0.05362393 0.07265219 1.2309318
v -0.03792027 0.037868533 1.1930398
v -2.3E-05 -0.00315194 1.177347
v 0.053577922 0.07265219 1.2309318
v 0.03787427 0.037868533 1.1930398
v 0.04099574 -0.00315194 1.1855061
v -2.3E-05 0.037868533 1.1855022
v -2.3E-05 0.07265219 1.2087305
v -0.041051738 0.09590129 1.2845325
v -0.029034952 0.09590129 1.2555218
v -2.3E-05 0.10406724 1.2845325
v -0.02903494 0.09590129 1.3135444
v -2.3E-05 0.09590129 1.2435049
v -2.3E-05 0.09590129 1.3255613
v 0.02898793 0.09590129 1.2555218
v 0.02898793 0.09590129 1.3135444
v 0.041005738 0.09590129 1.2845325
v -0.04104175 -0.00315194 1.38356
v -2.3E-05 -0.00315194 1.3917195
v -2.3E-05 -0.04417242 1.3835642
v -0.03792029 -0.04417243 1.3760256
v -0.075815424 -0.00315194 1.3603251
v 0.037874293 -0.04417242 1.3760256
v 0.04099475 -0.00315194 1.38356
v -0.070048496 -0.04417243 1.3545581
v -0.09905046 -0.00315194 1.3255513
v -2.3E-05 -0.07895607 1.3603358
v 0.07000248 -0.04417241 1.3545581
v 0.075768426 -0.00315194 1.3603251
v -0.09151582 -0.04417242 1.3224299
v -0.10720962 -0.00315194 1.2845325
v -0.05362393 -0.07895607 1.3381336
v 0.053577915 -0.07895607 1.3381336
v 0.09146981 -0.04417241 1.3224312
v 0.09900447 -0.00315194 1.3255513
v -0.09905455 -0.04417242 1.2845325
v -0.09905046 -0.00315194 1.2435149
v 0.09900856 -0.04417241 1.2845325
v 0.10716265 -0.00315194 1.2845325
v -0.07582618 -0.07895607 1.2845325
v -0.09151582 -0.04417242 1.2466353
v -0.075815424 -0.00315194 1.2087413
v 0.07578018 -0.07895607 1.2845325
v 0.09146982 -0.04417241 1.2466353
v 0.09900448 -0.00315194 1.2435149
v -0.070048496 -0.04417241 1.2145072
v -0.04104174 -0.00315194 1.1855061
v 0.07000249 -0.04417241 1.2145072
v 0.07576944 -0.00315194 1.2087413
v -0.05362393 -0.07895607 1.2309318
v -0.03792027 -0.04417241 1.1930398
v -2.3E-05 -0.00315194 1.177347
v 0.053577922 -0.07895607 1.2309318
v 0.03787427 -0.04417241 1.1930398
v 0.04099574 -0.00315194 1.1855061
v -2.3E-05 -0.04417241 1.1855022
v -2.3E-05 -0.07895607 1.2087305
v -0.041051738 -0.10220516 1.2845325
v -0.029034952 -0.10220516 1.2555218
v -2.3E-05 -0.11037113 1.2845325
v -0.02903494 -0.10220516 1.3135444
v -2.3E-05 -0.10220516 1.2435049
v -2.3E-05 -0.10220516 1.3255613
v 0.02898793 -0.10220516 1.2555218
v 0.02898793 -0.10220516 1.3135444
v 0.041005738 -0.10220516 1.2845325
vt 0.033057813 0.09012527
vt 0.17790788 0.030705934
vt 0.033057813 0.030705934
vt 0.17790788 0.09012527
vt 0.033057813 0.14942749
vt 0.30010927 0.030705934
vt 0.17790788 0.14942749
vt 0.033057813 0.21191056
vt 0.30010927 0.09012527
vt 0.3819871 0.030705934
vt 0.3819871 0.09012527
vt 0.3819871 0.14942749
vt 0.17790788 0.21191056
vt 0.033057813 0.2726801
vt 0.30010927 0.14942749
vt 0.30010927 0.21191056
vt 0.3819871 0.21191056
vt 0.17790788 0.2726801
vt 0.033057813 0.33218497
vt 0.30010927 0.2726801
vt 0.3819871 0.2726801
vt 0.3819871 0.33218497
vt 0.17790788 0.33218497
vt 0.033057813 0.39606845
vt 0.17790788 0.39606845
vt 0.30010927 0.33218497
vt 0.3819871 0.39606845
vt 0.30010927 0.39606845
vt 0.62771976 0.6109422
vt 0.60037696 0.6668588
vt 0.6630043 0.66285646
vt 0.6909133 0.6096465
vt 0.63550687 0.72178465
vt 0.7245846 0.66694236
vt 0.6958456 0.7207856
vt 0.29334 0.91461
vt 0.29234 0.98846
vt 0.39901 0.96714
vt 0.37168 0.89853
vt 0.48939 0.90663
vt 0.21479 0.89949
vt 0.18562 0.96732
vt 0.43789 0.8537
vt 0.54971 0.81618
vt 0.29401 0.84491
vt 0.148 0.85545
vt 0.09508 0.90694
vt 0.48188 0.78695
vt 0.57078 0.70962
vt 0.38907 0.80391
vt 0.19776 0.80666
vt 0.10313 0.78919
vt 0.03453 0.81648
vt 0.49693 0.70962
vt 0.54944 0.60277
vt 0.08703 0.70962
vt 0.01318 0.70962
vt 0.42722 0.70962
vt 0.48084 0.63006
vt 0.48888 0.5123
vt 0.15674 0.70962
vt 0.10209 0.6323
vt 0.03425 0.60307
vt 0.43596 0.5638
vt 0.39835 0.45192
vt 0.14608 0.56555
vt 0.09457 0.51261
vt 0.3862 0.61259
vt 0.36917 0.51976
vt 0.29162 0.43079
vt 0.19489 0.61534
vt 0.21228 0.52072
vt 0.18495 0.45211
vt 0.29062 0.50463
vt 0.28995 0.57434
vt 0.35937 0.70962
vt 0.3385 0.66083
vt 0.29198 0.70962
vt 0.3408 0.75617
vt 0.29035 0.6422
vt 0.29361 0.77704
vt 0.24316 0.66307
vt 0.24546 0.75842
vt 0.22459 0.70962
vt 0.59008 0.55721
vt 0.69675 0.57853
vt 0.69575 0.50469
vt 0.61741 0.48861
vt 0.4997 0.49671
vt 0.7743 0.48957
vt 0.80348 0.5574
vt 0.55121 0.44377
vt 0.43938 0.40626
vt 0.69508 0.43498
vt 0.84109 0.44553
vt 0.89401 0.49702
vt 0.50721 0.37703
vt 0.41831 0.2997
vt 0.60002 0.39398
vt 0.79133 0.39674
vt 0.88596 0.37927
vt 0.95456 0.40655
vt 0.49216 0.2997
vt 0.43966 0.19284
vt 0.90206 0.2997
vt 0.97591 0.2997
vt 0.56187 0.2997
vt 0.50826 0.22013
vt 0.50021 0.10238
vt 0.83235 0.2997
vt 0.88701 0.22237
vt 0.95484 0.19314
vt 0.55313 0.15387
vt 0.59074 0.042
vt 0.84301 0.15562
vt 0.89452 0.10269
vt 0.60289 0.20266
vt 0.61992 0.10983
vt 0.69747 0.02087
vt 0.7942 0.20542
vt 0.77681 0.11079
vt 0.80414 0.04218
vt 0.69847 0.09471
vt 0.69914 0.16442
vt 0.62972 0.2997
vt 0.65059 0.25091
vt 0.69711 0.2997
vt 0.64829 0.34625
vt 0.69874 0.23228
vt 0.69548 0.36712
vt 0.74593 0.25315
vt 0.74363 0.34849
vt 0.7645 0.2997
vn -0.5640529 0.57136655 0.5961415
vn -0.17443705 0.96212065 -0.20951232
vn 0.020640194 0.99778277 0.06327313
vn -0.8883243 0.40131807 0.22321242
vn -0.38268578 -0.23968543 0.8922457
vn -0.13305323 0.9866144 -0.09428054
vn -0.71541417 -0.52743846 0.45824808
vn 0.34657267 -0.62913835 0.69575304
vn -0.9190463 0.3860578 0.07945576
vn -0.09270158 0.99517316 -0.032200288
vn -0.9068342 0.42045256 0.029520033
vn -0.8149432 -0.57415 0.07886273
vn 0.10841278 -0.94846815 0.2977496
vn 0.9603026 -0.21946809 0.17219944
vn -0.79233 -0.578605 0.19346671
vn 0.063627996 -0.9899198 0.12653156
vn 0.07461181 -0.9958501 0.052112497
vn 0.8722327 -0.4689511 -0.13890657
vn 0.7728824 0.6150364 -0.15615042
vn 0.8886481 -0.45419964 -0.06330302
vn 0.90782964 -0.41862383 -0.024485216
vn 0.8056223 0.5895206 -0.05863769
vn 0.7305748 0.54651505 -0.40936747
vn 0.020640194 0.99778277 0.06327313
vn -0.17443705 0.96212065 -0.20951232
vn 0.7945642 0.58375746 -0.16701803
vn -0.09270158 0.99517316 -0.032200288
vn -0.13305323 0.9866144 -0.09428054
vn 0.9603026 -0.21946809 0.17219944
vn 0.34657267 -0.62913835 0.69575304
vn 0.44680327 0.43637398 0.78098947
vn 0.7728824 0.6150364 -0.15615042
vn -0.38268578 -0.23968543 0.8922457
vn 0.020640194 0.99778277 0.06327313
vn -0.5640529 0.57136655 0.5961415
vn 6.536022E-07 0.37420556 0.9273458
vn 1.1967375E-06 0 1
vn -0.38268903 0 0.9238772
vn -0.35198417 0.3924555 0.8497563
vn -0.70710665 0 0.7071068
vn 0.35198686 0.3924518 0.8497569
vn 0.38268772 0 0.9238777
vn -0.65573287 0.3742058 0.65573204
vn -0.9238782 0 0.3826866
vn 2.8091E-07 0.715392 0.69872326
vn 0.6557298 0.3741985 0.65573925
vn 0.7070988 0 0.7071147
vn -0.8497569 0.3924552 0.3519831
vn -1 0 -1.2623788E-06
vn -0.4940744 0.715389 0.4940739
vn 0.4940719 0.7153911 0.49407348
vn 0.84975725 0.39244935 0.35198882
vn 0.9238787 0 0.38268545
vn -0.9273461 0.3742048 -7.6923925E-07
vn -0.9238784 0 -0.38268626
vn 0.9273486 0.37419853 -2.629493E-06
vn 1 0 -2.6004716E-06
vn -0.6987242 0.71539116 -4.3924115E-07
vn -0.84975743 0.39245147 -0.3519861
vn -0.7071088 0 -0.70710474
vn 0.6987211 0.7153942 -1.7722879E-06
vn 0.84975964 0.39244887 -0.35198355
vn 0.92388064 0 -0.38268077
vn -0.65573436 0.37419763 -0.65573514
vn -0.38268304 0 -0.92387974
vn 0.6557343 0.37419772 -0.6557351
vn 0.7071088 0 -0.70710474
vn -0.49406976 0.7153912 -0.49407548
vn -0.35197553 0.39244935 -0.84976274
vn -0 0 -1
vn 0.4940692 0.7153921 -0.49407455
vn 0.35197553 0.39244935 -0.84976274
vn 0.38268304 0 -0.92387974
vn -0 0.37420064 -0.9273478
vn 3.268757E-07 0.7153945 -0.69872075
vn -0.42276806 0.90623796 -1.2091663E-06
vn -0.2989404 0.90623844 -0.2989422
vn 1.3074149E-06 1 -2.5207355E-06
vn -0.29894316 0.9062375 0.29894248
vn 1.2505133E-06 0.9062384 -0.42276722
vn 1.1966362E-06 0.9062381 0.4227678
vn 0.2989355 0.9062398 -0.29894316
vn 0.29893836 0.90623885 0.29894328
vn 0.42276627 0.90623873 -1.260542E-06
vn -0.38268903 0 0.9238772
vn 1.1967375E-06 0 1
vn 6.913101E-07 -0.37420562 0.9273457
vn -0.3519842 -0.39245552 0.8497563
vn -0.70710665 0 0.7071068
vn 0.35198686 -0.3924518 0.8497569
vn 0.38268772 0 0.9238777
vn -0.65573287 -0.37420577 0.65573204
vn -0.9238782 0 0.3826866
vn 3.5752183E-07 -0.715392 0.69872326
vn 0.6557298 -0.3741985 0.65573925
vn 0.7070988 0 0.7071147
vn -0.84975696 -0.39245522 0.35198304
vn -1 0 -1.2623788E-06
vn -0.49407437 -0.7153891 0.4940738
vn 0.4940718 -0.71539116 0.49407348
vn 0.84975725 -0.39244935 0.35198882
vn 0.9238787 0 0.38268545
vn -0.9273461 -0.3742048 -7.692392E-07
vn -0.9238784 0 -0.38268626
vn 0.9273486 -0.37419853 -2.6320067E-06
vn 1 0 -2.6004716E-06
vn -0.6987242 -0.71539116 -4.9031564E-07
vn -0.84975743 -0.39245147 -0.3519861
vn -0.7071088 0 -0.70710474
vn 0.6987211 -0.7153942 -1.7671805E-06
vn 0.84975964 -0.39244893 -0.35198355
vn 0.92388064 0 -0.38268077
vn -0.65573436 -0.37419763 -0.65573514
vn -0.38268304 0 -0.92387974
vn 0.65573424 -0.37419775 -0.6557351
vn 0.7071088 0 -0.70710474
vn -0.49406976 -0.7153912 -0.49407548
vn -0.35197544 -0.39244935 -0.84976274
vn -0 0 -1
vn 0.49406928 -0.7153921 -0.49407458
vn 0.35197553 -0.39244938 -0.84976274
vn 0.38268304 0 -0.92387974
vn -0 -0.37420064 -0.9273478
vn 3.0644594E-07 -0.71539444 -0.69872075
vn -0.42276803 -0.90623784 -1.2530219E-06
vn -0.2989404 -0.90623844 -0.2989422
vn 1.3148434E-06 -1 -2.5009263E-06
vn -0.29894313 -0.90623754 0.2989424
vn 1.2404892E-06 -0.9062384 -0.42276722
vn 1.2417447E-06 -0.9062381 0.4227678
vn 0.29893553 -0.90623975 -0.29894313
vn 0.29893836 -0.90623873 0.29894334
vn 0.4227664 -0.9062387 -1.2643011E-06
g SeparateMesh_Monster_GoldenBomb_Model_GoldenBomb_Weapon_01_LOD1_0
f 3/3/3 2/2/2 1/1/1
f 2/2/2 4/4/4 1/1/1
f 1/1/1 4/4/4 5/5/5
f 4/4/4 2/2/2 6/6/6
f 4/4/4 7/7/7 5/5/5
f 5/5/5 7/7/7 8/8/8
f 9/9/9 4/4/4 6/6/6
f 7/7/7 4/4/4 9/9/9
f 6/6/6 10/10/10 9/9/9
f 10/10/10 11/11/11 9/9/9
f 9/9/9 11/11/11 12/12/12
f 7/7/7 13/13/13 8/8/8
f 8/8/8 13/13/13 14/14/14
f 15/15/15 7/7/7 9/9/9
f 15/15/15 9/9/9 12/12/12
f 13/13/13 7/7/7 15/15/15
f 15/15/15 12/12/12 16/16/16
f 16/16/16 13/13/13 15/15/15
f 12/12/12 17/17/17 16/16/16
f 13/13/13 18/18/18 14/14/14
f 13/13/13 16/16/16 18/18/18
f 14/14/14 18/18/18 19/19/19
f 16/16/16 17/17/17 20/20/20
f 16/16/16 20/20/20 18/18/18
f 17/17/17 21/21/21 20/20/20
f 20/20/20 21/21/21 22/22/22
f 18/18/18 23/23/23 19/19/19
f 23/23/23 18/18/18 20/20/20
f 19/19/19 23/23/23 24/24/24
f 23/23/23 25/25/25 24/24/24
f 26/26/26 20/20/20 22/22/22
f 26/26/26 23/23/23 20/20/20
f 25/25/25 23/23/23 26/26/26
f 26/26/26 22/22/22 27/27/27
f 28/28/28 25/25/25 26/26/26
f 28/28/28 26/26/26 27/27/27
f 31/31/31 30/30/30 29/29/29
f 31/31/31 29/29/29 32/32/32
f 31/31/31 33/33/33 30/30/30
f 31/31/31 32/32/32 34/34/34
f 31/31/31 35/35/35 33/33/33
f 31/31/31 34/34/34 35/35/35
f 38/38/38 37/37/37 36/36/36
f 39/39/39 38/38/38 36/36/36
f 40/40/40 38/38/38 39/39/39
f 36/36/36 37/37/37 41/41/41
f 37/37/37 42/42/42 41/41/41
f 43/43/43 40/40/40 39/39/39
f 44/44/44 40/40/40 43/43/43
f 39/39/39 36/36/36 45/45/45
f 36/36/36 41/41/41 45/45/45
f 41/41/41 42/42/42 46/46/46
f 42/42/42 47/47/47 46/46/46
f 48/48/48 44/44/44 43/43/43
f 49/49/49 44/44/44 48/48/48
f 43/43/43 39/39/39 50/50/50
f 50/50/50 39/39/39 45/45/45
f 48/48/48 43/43/43 50/50/50
f 41/41/41 46/46/46 51/51/51
f 45/45/45 41/41/41 51/51/51
f 46/46/46 47/47/47 52/52/52
f 46/46/46 52/52/52 51/51/51
f 47/47/47 53/53/53 52/52/52
f 54/54/54 49/49/49 48/48/48
f 55/55/55 49/49/49 54/54/54
f 52/52/52 53/53/53 56/56/56
f 53/53/53 57/57/57 56/56/56
f 54/54/54 48/48/48 58/58/58
f 58/58/58 48/48/48 50/50/50
f 59/59/59 55/55/55 54/54/54
f 59/59/59 54/54/54 58/58/58
f 60/60/60 55/55/55 59/59/59
f 52/52/52 56/56/56 61/61/61
f 51/51/51 52/52/52 61/61/61
f 56/56/56 57/57/57 62/62/62
f 56/56/56 62/62/62 61/61/61
f 57/57/57 63/63/63 62/62/62
f 64/64/64 60/60/60 59/59/59
f 65/65/65 60/60/60 64/64/64
f 62/62/62 63/63/63 66/66/66
f 63/63/63 67/67/67 66/66/66
f 64/64/64 59/59/59 68/68/68
f 68/68/68 59/59/59 58/58/58
f 69/69/69 65/65/65 64/64/64
f 69/69/69 64/64/64 68/68/68
f 70/70/70 65/65/65 69/69/69
f 62/62/62 66/66/66 71/71/71
f 61/61/61 62/62/62 71/71/71
f 66/66/66 67/67/67 72/72/72
f 66/66/66 72/72/72 71/71/71
f 67/67/67 73/73/73 72/72/72
f 73/73/73 70/70/70 74/74/74
f 74/74/74 70/70/70 69/69/69
f 72/72/72 73/73/73 74/74/74
f 74/74/74 69/69/69 75/75/75
f 72/72/72 74/74/74 75/75/75
f 75/75/75 69/69/69 68/68/68
f 71/71/71 72/72/72 75/75/75
f 68/68/68 58/58/58 76/76/76
f 75/75/75 68/68/68 77/77/77
f 77/77/77 68/68/68 76/76/76
f 77/77/77 76/76/76 78/78/78
f 76/76/76 58/58/58 79/79/79
f 76/76/76 79/79/79 78/78/78
f 58/58/58 50/50/50 79/79/79
f 80/80/80 75/75/75 77/77/77
f 71/71/71 75/75/75 80/80/80
f 80/80/80 77/77/77 78/78/78
f 79/79/79 50/50/50 81/81/81
f 79/79/79 81/81/81 78/78/78
f 50/50/50 45/45/45 81/81/81
f 82/82/82 71/71/71 80/80/80
f 82/82/82 80/80/80 78/78/78
f 61/61/61 71/71/71 82/82/82
f 81/81/81 45/45/45 83/83/83
f 81/81/81 83/83/83 78/78/78
f 45/45/45 51/51/51 83/83/83
f 84/84/84 61/61/61 82/82/82
f 84/84/84 82/82/82 78/78/78
f 83/83/83 84/84/84 78/78/78
f 51/51/51 61/61/61 84/84/84
f 83/83/83 51/51/51 84/84/84
f 87/87/87 86/86/86 85/85/85
f 88/88/88 87/87/87 85/85/85
f 88/88/88 85/85/85 89/89/89
f 87/87/87 90/90/90 86/86/86
f 90/90/90 91/91/91 86/86/86
f 92/92/92 88/88/88 89/89/89
f 92/92/92 89/89/89 93/93/93
f 94/94/94 87/87/87 88/88/88
f 87/87/87 94/94/94 90/90/90
f 90/90/90 95/95/95 91/91/91
f 95/95/95 96/96/96 91/91/91
f 97/97/97 92/92/92 93/93/93
f 97/97/97 93/93/93 98/98/98
f 92/92/92 99/99/99 88/88/88
f 99/99/99 94/94/94 88/88/88
f 99/99/99 92/92/92 97/97/97
f 100/100/100 95/95/95 90/90/90
f 94/94/94 100/100/100 90/90/90
f 95/95/95 101/101/101 96/96/96
f 95/95/95 100/100/100 101/101/101
f 101/101/101 102/102/102 96/96/96
f 103/103/103 97/97/97 98/98/98
f 103/103/103 98/98/98 104/104/104
f 101/101/101 105/105/105 102/102/102
f 105/105/105 106/106/106 102/102/102
f 103/103/103 107/107/107 97/97/97
f 107/107/107 99/99/99 97/97/97
f 108/108/108 103/103/103 104/104/104
f 107/107/107 103/103/103 108/108/108
f 108/108/108 104/104/104 109/109/109
f 110/110/110 105/105/105 101/101/101
f 100/100/100 110/110/110 101/101/101
f 105/105/105 111/111/111 106/106/106
f 105/105/105 110/110/110 111/111/111
f 111/111/111 112/112/112 106/106/106
f 113/113/113 108/108/108 109/109/109
f 113/113/113 109/109/109 114/114/114
f 111/111/111 115/115/115 112/112/112
f 115/115/115 116/116/116 112/112/112
f 113/113/113 117/117/117 108/108/108
f 117/117/117 107/107/107 108/108/108
f 118/118/118 113/113/113 114/114/114
f 117/117/117 113/113/113 118/118/118
f 118/118/118 114/114/114 119/119/119
f 120/120/120 115/115/115 111/111/111
f 110/110/110 120/120/120 111/111/111
f 115/115/115 121/121/121 116/116/116
f 115/115/115 120/120/120 121/121/121
f 121/121/121 122/122/122 116/116/116
f 123/123/123 119/119/119 122/122/122
f 123/123/123 118/118/118 119/119/119
f 121/121/121 123/123/123 122/122/122
f 123/123/123 124/124/124 118/118/118
f 124/124/124 123/123/123 121/121/121
f 124/124/124 117/117/117 118/118/118
f 120/120/120 124/124/124 121/121/121
f 125/125/125 107/107/107 117/117/117
f 126/126/126 117/117/117 124/124/124
f 126/126/126 125/125/125 117/117/117
f 125/125/125 126/126/126 127/127/127
f 125/125/125 128/128/128 107/107/107
f 128/128/128 125/125/125 127/127/127
f 128/128/128 99/99/99 107/107/107
f 129/129/129 126/126/126 124/124/124
f 129/129/129 124/124/124 120/120/120
f 126/126/126 129/129/129 127/127/127
f 128/128/128 130/130/130 99/99/99
f 130/130/130 128/128/128 127/127/127
f 130/130/130 94/94/94 99/99/99
f 131/131/131 129/129/129 120/120/120
f 129/129/129 131/131/131 127/127/127
f 131/131/131 120/120/120 110/110/110
f 130/130/130 132/132/132 94/94/94
f 132/132/132 130/130/130 127/127/127
f 132/132/132 100/100/100 94/94/94
f 133/133/133 131/131/131 110/110/110
f 131/131/131 133/133/133 127/127/127
f 133/133/133 110/110/110 100/100/100
f 132/132/132 133/133/133 100/100/100
f 133/133/133 132/132/132 127/127/127
