g NPC_Bone_TailA_002_LOD2
v -4.605466E-09 0.04977184 -0.055824127
v -0.00998961 0.057030722 -0.044778366
v -4.605466E-09 0.047417734 -0.04749542
v -0.00998961 0.05938483 -0.053106993
v -3.9783316E-10 0.066643715 -0.042061232
v -3.9783316E-10 0.06899782 -0.05038986
v 0.00998961 0.057030722 -0.044778366
v 0.00998961 0.05938483 -0.053106993
v -4.605466E-09 0.047417734 -0.04749542
v -4.605466E-09 0.04977184 -0.055824127
v 0.00998961 0.057030722 -0.044778366
v -4.605466E-09 0.047417734 -0.04749542
v -3.9783316E-10 0.066643715 -0.042061232
v -0.00998961 0.057030722 -0.044778366
v 0.00998961 0.05938483 -0.053106993
v -3.9783316E-10 0.06899782 -0.05038986
v -4.605466E-09 0.04977184 -0.055824127
v -0.00998961 0.05938483 -0.053106993
v 1.5350023E-10 0.028381119 0.0054283906
v 0.0077044074 0.0061437795 0.0008350372
v 1.5350023E-10 0.0029961395 0.009747848
v 0.0076470636 0.026205977 -0.0030323027
v 1.5350023E-10 0.009285603 -0.008044738
v 1.5350023E-10 0.051175974 -0.010717316
v 1.5350023E-10 0.024025993 -0.011631775
v 0.00757152 0.04469816 -0.01658882
v 1.5350023E-10 0.067278266 -0.049061965
v 1.5350023E-10 0.038220346 -0.022460327
v 0.00748363 0.059442405 -0.05302925
v 1.5350023E-10 0.08725648 -0.1378836
v 1.5350023E-10 0.05152558 -0.057057876
v 0.007010177 0.07969683 -0.14136787
v 1.5350023E-10 0.07179033 -0.14364539
v 1.5350023E-10 0.111442834 -0.2501203
v 1.5350023E-10 0.0973785 -0.2548774
v 0.0063438555 0.10478467 -0.25405112
v 1.5350023E-10 0.14369133 -0.39976928
v 1.5350023E-10 0.13149604 -0.4031868
v 0.005455428 0.13823512 -0.40429556
v 1.5350023E-10 0.16787769 -0.51200604
v 1.5350023E-10 0.15708421 -0.5144187
v 0.0046951817 0.16332299 -0.51697886
v 1.5350023E-10 0.028381119 0.0054283906
v 1.5350023E-10 0.0029961395 0.009747848
v -0.0077044074 0.0061437795 0.0008350372
v -0.0076470636 0.026205977 -0.0030323027
v 1.5350023E-10 0.009285603 -0.008044738
v 1.5350023E-10 0.051175974 -0.010717316
v 1.5350023E-10 0.024025993 -0.011631775
v -0.00757152 0.04469816 -0.01658882
v 1.5350023E-10 0.067278266 -0.049061965
v 1.5350023E-10 0.038220346 -0.022460327
v -0.00748363 0.059442405 -0.05302925
v 1.5350023E-10 0.08725648 -0.1378836
v 1.5350023E-10 0.05152558 -0.057057876
v -0.007010177 0.07969683 -0.14136787
v 1.5350023E-10 0.07179033 -0.14364539
v 1.5350023E-10 0.111442834 -0.2501203
v 1.5350023E-10 0.0973785 -0.2548774
v -0.0063438555 0.10478467 -0.25405112
v 1.5350023E-10 0.14369133 -0.39976928
v 1.5350023E-10 0.13149604 -0.4031868
v -0.005455428 0.13823512 -0.40429556
v 1.5350023E-10 0.16787769 -0.51200604
v 1.5350023E-10 0.15708421 -0.5144187
v -0.0046951813 0.16332299 -0.51697886
v 1.5350023E-10 0.14151229 -0.5069835
v 1.5350023E-10 0.15708421 -0.5144187
v 0.004680265 0.15348491 -0.522941
v 1.5350023E-10 0.12642212 -0.5185916
v 0.0046951817 0.16332299 -0.51697886
v 1.5350023E-10 0.13826236 -0.54416054
v 0.004675607 0.1753778 -0.5181319
v 1.5350023E-10 0.16787769 -0.51200604
v 1.5350023E-10 0.1784656 -0.49854445
v 1.5350023E-10 0.19682308 -0.5015407
v 1.5350023E-10 0.19796728 -0.5299997
v 0.0036388778 0.16986857 -0.54262596
v 1.5350023E-10 0.17913936 -0.5881718
v 1.5350023E-10 0.13826236 -0.54416054
v -0.0046802647 0.15348491 -0.522941
v 1.5350023E-10 0.12642212 -0.5185916
v 1.5350023E-10 0.14151229 -0.5069835
v 1.5350023E-10 0.15708421 -0.5144187
v -0.0046951813 0.16332299 -0.51697886
v -0.0036388773 0.16986857 -0.54262596
v 1.5350023E-10 0.17913936 -0.5881718
v 1.5350023E-10 0.19796728 -0.5299997
v -0.0046756063 0.1753778 -0.5181319
v 1.5350023E-10 0.16787769 -0.51200604
v 1.5350023E-10 0.19682308 -0.5015407
v 1.5350023E-10 0.1784656 -0.49854445
vt 0.01955086 0.008421671
vt 0.1549632 0.25112963
vt 0.1549632 0.008421671
vt 0.01955086 0.25112963
vt 0.1549632 0.4938386
vt 0.01955086 0.4938386
vt 0.1549632 0.7365485
vt 0.01955086 0.7365485
vt 0.1549632 0.979259
vt 0.01955086 0.979259
vt 0.9919105 0.5128366
vt 0.79881 0.31973663
vt 0.7988103 0.70593756
vt 0.6057098 0.5128366
vt 0.69218737 0.21533269
vt 0.4952252 0.01837028
vt 0.4952249 0.41229516
vt 0.29826266 0.21533269
vt 0.22142094 0.9524103
vt 0.1810267 0.96000373
vt 0.1869238 0.97999996
vt 0.20808184 0.93770736
vt 0.1752178 0.9400213
vt 0.24697393 0.91157615
vt 0.19471806 0.92279553
vt 0.22870618 0.90397286
vt 0.2568938 0.8409914
vt 0.21046704 0.89630157
vt 0.23752719 0.8371987
vt 0.25752753 0.68524885
vt 0.21805489 0.8332586
vt 0.23914975 0.68220806
vt 0.22068328 0.6811753
vt 0.25676256 0.4886858
vt 0.22342002 0.48581755
vt 0.24013335 0.48457974
vt 0.2554162 0.22630432
vt 0.22672993 0.2250475
vt 0.2411018 0.2207701
vt 0.25417465 0.02918094
vt 0.22886926 0.02911392
vt 0.2415362 0.02
vt 0.22142094 0.9524103
vt 0.1869238 0.97999996
vt 0.1810267 0.96000373
vt 0.20808184 0.93770736
vt 0.1752178 0.9400213
vt 0.24697393 0.91157615
vt 0.19471806 0.92279553
vt 0.22870618 0.90397286
vt 0.2568938 0.8409914
vt 0.21046704 0.89630157
vt 0.23752719 0.8371987
vt 0.25752753 0.68524885
vt 0.21805489 0.8332586
vt 0.23914975 0.68220806
vt 0.22068328 0.6811753
vt 0.25676256 0.4886858
vt 0.22342002 0.48581755
vt 0.24013335 0.48457974
vt 0.2554162 0.22630432
vt 0.22672993 0.2250475
vt 0.2411018 0.2207701
vt 0.25417465 0.02918094
vt 0.22886926 0.02911392
vt 0.2415362 0.02
vt 0.39138502 0.9751203
vt 0.4810626 0.92737305
vt 0.45195875 0.8683178
vt 0.29459947 0.9180087
vt 0.5238619 0.8950242
vt 0.33747506 0.7574446
vt 0.5991651 0.86595595
vt 0.5680431 0.9255588
vt 0.6567446 0.97303593
vt 0.7527189 0.92066556
vt 0.711224 0.75798273
vt 0.5269548 0.7277895
vt 0.5186689 0.44819278
vt 0.33747506 0.7574446
vt 0.45195875 0.8683178
vt 0.29459947 0.9180087
vt 0.39138502 0.9751203
vt 0.4810626 0.92737305
vt 0.5238619 0.8950242
vt 0.5269548 0.7277895
vt 0.5186689 0.44819278
vt 0.711224 0.75798273
vt 0.5991651 0.86595595
vt 0.5680431 0.9255588
vt 0.7527189 0.92066556
vt 0.6567446 0.97303593
vn -2.683153E-07 -0.9622987 -0.27199477
vn -1 -1.9855288E-06 0
vn -2.6831566E-07 -0.9622987 -0.27199477
vn -1 -2.146521E-07 5.50046E-07
vn -0 0.9622984 0.27199596
vn -0 0.9622984 0.27199593
vn 1 -2.200181E-06 0
vn 1 -4.2930432E-07 4.963831E-07
vn -2.6831566E-07 -0.9622987 -0.27199477
vn -2.683153E-07 -0.9622987 -0.27199477
vn 3.6733163E-06 -0.2719923 0.96229947
vn 3.6733163E-06 -0.27199224 0.96229947
vn 3.6733168E-06 -0.27199224 0.96229947
vn -3.6733181E-06 -0.27199218 0.96229947
vn -0 0.2719958 -0.9622985
vn -0 0.2719958 -0.9622985
vn -0 0.2719958 -0.9622985
vn -0 0.27199584 -0.9622985
vn -0 0.37636924 0.92646974
vn 0.9739285 0.030901888 0.22474079
vn -0 0.17863208 0.98391587
vn 0.9956707 0.042474393 0.08267877
vn -0 -0.20770542 -0.97819144
vn -0 0.7779732 0.6282974
vn -0 -0.42829448 -0.90363926
vn 0.99345905 0.09175619 0.067970335
vn -0 0.9515921 0.30736357
vn -0 -0.79876274 -0.60164607
vn 0.9993932 0.034390017 0.0055161417
vn -0 0.9766029 0.21505043
vn -0 -0.95573634 -0.29422447
vn 0.99997807 0.0049727676 -0.0043895133
vn -0 -0.9740596 -0.22629167
vn -0 0.97754455 0.21072891
vn -0 -0.9745808 -0.2240361
vn 0.99998045 0.0033794357 -0.005261122
vn -0 0.9775828 0.21055134
vn -0 -0.9745395 -0.22421587
vn 0.9999807 0.002469641 -0.005716297
vn -0 0.47418904 0.880423
vn -0 -0.79780024 0.6029218
vn 0.97562486 -0.04883822 0.2139416
vn -0 0.37636924 0.92646974
vn -0 0.17863208 0.98391587
vn -0.9739285 0.030901881 0.22474074
vn -0.9956707 0.042474385 0.08267875
vn -0 -0.20770542 -0.97819144
vn -0 0.7779732 0.6282974
vn -0 -0.42829448 -0.90363926
vn -0.99345905 0.0917562 0.067970335
vn -0 0.9515921 0.30736357
vn -0 -0.79876274 -0.60164607
vn -0.9993932 0.034390006 0.0055161323
vn -0 0.9766029 0.21505043
vn -0 -0.95573634 -0.29422447
vn -0.99997807 0.0049727927 -0.0043895133
vn -0 -0.9740596 -0.22629167
vn -0 0.97754455 0.21072891
vn -0 -0.9745808 -0.2240361
vn -0.99998045 0.0033793985 -0.005261116
vn -0 0.9775828 0.21055134
vn -0 -0.9745395 -0.22421587
vn -0.9999807 0.002469641 -0.0057162913
vn -0 0.47418904 0.880423
vn -0 -0.79780024 0.6029218
vn -0.97562486 -0.04883822 0.2139416
vn -0 -0.22291501 0.9748379
vn -0 -0.79780024 0.6029218
vn 0.9908805 -0.082427755 0.10659006
vn -0 -0.9758246 0.21855524
vn 0.97562486 -0.04883822 0.2139416
vn -0 -0.78468674 -0.6198926
vn 0.9914437 0.031179367 0.12675674
vn -0 0.47418904 0.880423
vn -1.1438431E-07 -0.2536032 0.96730834
vn -0 0.75972676 0.65024245
vn -0 0.9789833 -0.20394066
vn 0.9964468 0.022771489 -0.08108886
vn -0 0.21094745 -0.9774974
vn -0 -0.78468674 -0.6198926
vn -0.9908805 -0.082427755 0.10659006
vn -0 -0.9758246 0.21855524
vn -0 -0.22291501 0.9748379
vn -0 -0.79780024 0.6029218
vn -0.97562486 -0.04883822 0.2139416
vn -0.9964468 0.022771489 -0.08108886
vn -0 0.21094745 -0.9774974
vn -0 0.9789833 -0.20394066
vn -0.9914437 0.03117937 0.12675674
vn -0 0.47418904 0.880423
vn -0 0.75972676 0.65024245
vn -1.1438431E-07 -0.2536032 0.96730834
g NPC_Bone_TailA_002_LOD2_0
f 3/3/3 2/2/2 1/1/1
f 2/2/2 4/4/4 1/1/1
f 2/2/2 5/5/5 4/4/4
f 5/5/5 6/6/6 4/4/4
f 5/5/5 7/7/7 6/6/6
f 7/7/7 8/8/8 6/6/6
f 7/7/7 9/9/9 8/8/8
f 9/9/9 10/10/10 8/8/8
f 13/13/13 12/12/12 11/11/11
f 14/14/14 12/12/12 13/13/13
f 17/17/17 16/16/16 15/15/15
f 18/18/18 16/16/16 17/17/17
f 21/21/21 20/20/20 19/19/19
f 20/20/20 22/22/22 19/19/19
f 20/20/20 23/23/23 22/22/22
f 19/19/19 22/22/22 24/24/24
f 23/23/23 25/25/25 22/22/22
f 22/22/22 26/26/26 24/24/24
f 22/22/22 25/25/25 26/26/26
f 24/24/24 26/26/26 27/27/27
f 25/25/25 28/28/28 26/26/26
f 26/26/26 29/29/29 27/27/27
f 26/26/26 28/28/28 29/29/29
f 27/27/27 29/29/29 30/30/30
f 28/28/28 31/31/31 29/29/29
f 29/29/29 32/32/32 30/30/30
f 29/29/29 31/31/31 32/32/32
f 31/31/31 33/33/33 32/32/32
f 30/30/30 32/32/32 34/34/34
f 33/33/33 35/35/35 32/32/32
f 32/32/32 36/36/36 34/34/34
f 35/35/35 36/36/36 32/32/32
f 37/37/37 34/34/34 36/36/36
f 36/36/36 35/35/35 38/38/38
f 39/39/39 37/37/37 36/36/36
f 39/39/39 36/36/36 38/38/38
f 40/40/40 37/37/37 39/39/39
f 39/39/39 38/38/38 41/41/41
f 42/42/42 40/40/40 39/39/39
f 42/42/42 39/39/39 41/41/41
f 45/45/45 44/44/44 43/43/43
f 46/46/46 45/45/45 43/43/43
f 47/47/47 45/45/45 46/46/46
f 46/46/46 43/43/43 48/48/48
f 49/49/49 47/47/47 46/46/46
f 50/50/50 46/46/46 48/48/48
f 49/49/49 46/46/46 50/50/50
f 50/50/50 48/48/48 51/51/51
f 52/52/52 49/49/49 50/50/50
f 53/53/53 50/50/50 51/51/51
f 52/52/52 50/50/50 53/53/53
f 53/53/53 51/51/51 54/54/54
f 55/55/55 52/52/52 53/53/53
f 56/56/56 53/53/53 54/54/54
f 55/55/55 53/53/53 56/56/56
f 57/57/57 55/55/55 56/56/56
f 56/56/56 54/54/54 58/58/58
f 57/57/57 56/56/56 59/59/59
f 60/60/60 56/56/56 58/58/58
f 56/56/56 60/60/60 59/59/59
f 58/58/58 61/61/61 60/60/60
f 62/62/62 59/59/59 60/60/60
f 61/61/61 63/63/63 60/60/60
f 63/63/63 62/62/62 60/60/60
f 61/61/61 64/64/64 63/63/63
f 65/65/65 62/62/62 63/63/63
f 64/64/64 66/66/66 63/63/63
f 66/66/66 65/65/65 63/63/63
f 69/69/69 68/68/68 67/67/67
f 70/70/70 69/69/69 67/67/67
f 69/69/69 71/71/71 68/68/68
f 69/69/69 70/70/70 72/72/72
f 73/73/73 71/71/71 69/69/69
f 73/73/73 74/74/74 71/71/71
f 73/73/73 75/75/75 74/74/74
f 76/76/76 75/75/75 73/73/73
f 77/77/77 76/76/76 73/73/73
f 72/72/72 78/78/78 69/69/69
f 69/69/69 78/78/78 73/73/73
f 73/73/73 78/78/78 77/77/77
f 78/78/78 72/72/72 79/79/79
f 77/77/77 78/78/78 79/79/79
f 82/82/82 81/81/81 80/80/80
f 81/81/81 82/82/82 83/83/83
f 84/84/84 81/81/81 83/83/83
f 85/85/85 81/81/81 84/84/84
f 86/86/86 80/80/80 81/81/81
f 80/80/80 86/86/86 87/87/87
f 86/86/86 88/88/88 87/87/87
f 85/85/85 89/89/89 81/81/81
f 86/86/86 81/81/81 89/89/89
f 86/86/86 89/89/89 88/88/88
f 90/90/90 89/89/89 85/85/85
f 91/91/91 88/88/88 89/89/89
f 92/92/92 89/89/89 90/90/90
f 91/91/91 89/89/89 92/92/92
