g SeparateMesh_NPC_Woof_Model_Woof_Eye_LOD2
v -0.043715034 -0.48555297 0.9080824
v -0.05287462 -0.4838208 0.915858
v -0.046097152 -0.4891046 0.91914135
v -0.038650397 -0.49338758 0.91584975
v -0.054904588 -0.4806523 0.90768933
v -0.034957066 -0.4940683 0.9076774
v -0.05121124 -0.48133314 0.89951736
v -0.036987018 -0.49089995 0.8995088
v -0.043764506 -0.485616 0.8962256
v 0.043715034 -0.48555297 0.9080824
v 0.046097152 -0.4891046 0.91914135
v 0.05287462 -0.4838208 0.915858
v 0.038650397 -0.49338758 0.91584975
v 0.054904588 -0.4806523 0.90768933
v 0.034957066 -0.4940683 0.9076774
v 0.05121124 -0.48133314 0.89951736
v 0.036987018 -0.49089995 0.8995088
v 0.043764506 -0.485616 0.8962256
v -0.042728413 -0.49108717 0.9142914
v -0.044008214 -0.4902182 0.91454285
v -0.042698745 -0.49148223 0.9158076
v -0.04275811 -0.49069205 0.91277516
v -0.041448716 -0.4919558 0.91403997
v 0.048146017 -0.48622528 0.9140625
v 0.04686993 -0.48713478 0.91405445
v 0.048297968 -0.486452 0.9156056
v 0.04799407 -0.48599836 0.91251934
v 0.049422096 -0.48531562 0.9140705
vt 0.49999902 0.49979103
vt 0.15670696 0.8395196
vt 0.49999964 0.9866451
vt 0.84384704 0.8392924
vt 0.008645594 0.49999905
vt 0.9913535 0.49999905
vt 0.15615138 0.16028237
vt 0.84327275 0.16009438
vt 0.49999964 0.013353944
vt 0.5000094 0.4997928
vt 0.50001 0.9866451
vt 0.84384704 0.8392924
vt 0.15670696 0.8395196
vt 0.99135256 0.50000095
vt 0.008644164 0.50000095
vt 0.84327275 0.16009438
vt 0.15615138 0.16028237
vt 0.50001 0.013355851
vt 0.088073745 0.9203989
vt 0.030748349 0.92070776
vt 0.088073745 0.9780336
vt 0.088073745 0.8633819
vt 0.1453992 0.92070776
vt 0.088073745 0.9203989
vt 0.030748349 0.92070776
vt 0.088073745 0.9780336
vt 0.088073745 0.8633819
vt 0.1453992 0.92070776
vn -0.549029 -0.8161605 -0.18013656
vn -0.42040256 -0.8545911 -0.30485356
vn -0.5206682 -0.7738343 -0.36067334
vn -0.6332254 -0.71145403 -0.30472746
vn -0.38959575 -0.9037696 -0.17724478
vn -0.6902868 -0.7015363 -0.17706183
vn -0.44639862 -0.89346415 -0.04949869
vn -0.65922064 -0.75032735 -0.04936748
vn -0.55807185 -0.82976526 0.0067386967
vn 0.549029 -0.8161605 -0.18013656
vn 0.5206682 -0.7738343 -0.36067334
vn 0.42040256 -0.8545911 -0.30485356
vn 0.6332254 -0.71145403 -0.30472746
vn 0.38959575 -0.9037696 -0.17724478
vn 0.6902868 -0.7015363 -0.17706183
vn 0.44639862 -0.89346415 -0.04949869
vn 0.65922064 -0.75032735 -0.04936748
vn 0.55807185 -0.82976526 0.0067386967
vn -0.5768383 -0.79314816 -0.19538036
vn -0.5769053 -0.7931027 -0.19536719
vn -0.57683796 -0.793153 -0.19536218
vn -0.57683873 -0.79314345 -0.19539855
vn -0.57677144 -0.79319364 -0.19539355
vn 0.57228625 -0.8013508 -0.17414197
vn 0.5722531 -0.8013744 -0.17414217
vn 0.57229006 -0.80135643 -0.17410356
vn 0.5722825 -0.8013451 -0.1741804
vn 0.57231945 -0.8013271 -0.1741418
g SeparateMesh_NPC_Woof_Model_Woof_Eye_LOD2_0
f 3/3/3 2/2/2 1/1/1
f 4/4/4 3/3/3 1/1/1
f 2/2/2 5/5/5 1/1/1
f 6/6/6 4/4/4 1/1/1
f 5/5/5 7/7/7 1/1/1
f 8/8/8 6/6/6 1/1/1
f 7/7/7 9/9/9 1/1/1
f 9/9/9 8/8/8 1/1/1
f 12/12/12 11/11/11 10/10/10
f 11/11/11 13/13/13 10/10/10
f 14/14/14 12/12/12 10/10/10
f 13/13/13 15/15/15 10/10/10
f 16/16/16 14/14/14 10/10/10
f 15/15/15 17/17/17 10/10/10
f 18/18/18 16/16/16 10/10/10
f 17/17/17 18/18/18 10/10/10
f 21/21/21 20/20/20 19/19/19
f 20/20/20 22/22/22 19/19/19
f 23/23/23 21/21/21 19/19/19
f 22/22/22 23/23/23 19/19/19
f 26/26/26 25/25/25 24/24/24
f 25/25/25 27/27/27 24/24/24
f 28/28/28 26/26/26 24/24/24
f 27/27/27 28/28/28 24/24/24
