g SeparateMesh_NPC_Woof_Model_Woof_Eye_LOD1
v -0.043715034 -0.48555297 0.9080824
v -0.05287462 -0.4838208 0.915858
v -0.046097152 -0.4891046 0.91914135
v -0.038650397 -0.49338758 0.91584975
v -0.054904588 -0.4806523 0.90768933
v -0.034957066 -0.4940683 0.9076774
v -0.05121124 -0.48133314 0.89951736
v -0.036987018 -0.49089995 0.8995088
v -0.043764506 -0.485616 0.8962256
v 0.043715034 -0.48555297 0.9080824
v 0.046097152 -0.4891046 0.91914135
v 0.05287462 -0.4838208 0.915858
v 0.038650397 -0.49338758 0.91584975
v 0.054904588 -0.4806523 0.90768933
v 0.034957066 -0.4940683 0.9076774
v 0.05121124 -0.48133314 0.89951736
v 0.036987018 -0.49089995 0.8995088
v 0.043764506 -0.485616 0.8962256
v -0.042728413 -0.49108717 0.9142914
v -0.044008214 -0.4902182 0.91454285
v -0.042698745 -0.49148223 0.9158076
v -0.04275811 -0.49069205 0.91277516
v -0.041448716 -0.4919558 0.91403997
v 0.048146017 -0.48622528 0.9140625
v 0.04686993 -0.48713478 0.91405445
v 0.048297968 -0.486452 0.9156056
v 0.04799407 -0.48599836 0.91251934
v 0.049422096 -0.48531562 0.9140705
vt 0.49999902 0.49979103
vt 0.15670696 0.8395196
vt 0.49999964 0.9866451
vt 0.84384704 0.8392924
vt 0.008645594 0.49999905
vt 0.9913535 0.49999905
vt 0.15615138 0.16028237
vt 0.84327275 0.16009438
vt 0.49999964 0.013353944
vt 0.5000094 0.4997928
vt 0.50001 0.9866451
vt 0.84384704 0.8392924
vt 0.15670696 0.8395196
vt 0.99135256 0.50000095
vt 0.008644164 0.50000095
vt 0.84327275 0.16009438
vt 0.15615138 0.16028237
vt 0.50001 0.013355851
vt 0.088073745 0.9203989
vt 0.030748349 0.92070776
vt 0.088073745 0.9780336
vt 0.088073745 0.8633819
vt 0.1453992 0.92070776
vt 0.088073745 0.9203989
vt 0.030748349 0.92070776
vt 0.088073745 0.9780336
vt 0.088073745 0.8633819
vt 0.1453992 0.92070776
vn -0.54903066 -0.8161595 -0.18013631
vn -0.4204186 -0.85457456 -0.3048781
vn -0.52066725 -0.77383435 -0.36067447
vn -0.6332021 -0.7114633 -0.30475417
vn -0.38959593 -0.90376896 -0.17724752
vn -0.69029254 -0.7015309 -0.1770612
vn -0.4464222 -0.89345366 -0.04947511
vn -0.6592074 -0.75034076 -0.049338732
vn -0.55806935 -0.82976687 0.006742354
vn 0.5490299 -0.81615967 -0.18013781
vn 0.52066505 -0.7738347 -0.3606767
vn 0.42042008 -0.8545736 -0.30487868
vn 0.6331993 -0.7114643 -0.3047576
vn 0.38959694 -0.90376854 -0.17724754
vn 0.6902903 -0.7015326 -0.1770632
vn 0.4464227 -0.8934534 -0.04947601
vn 0.65920544 -0.75034237 -0.049339864
vn 0.55807 -0.82976645 0.0067405603
vn -0.5768366 -0.79314953 -0.19538012
vn -0.5769085 -0.7931007 -0.19536588
vn -0.5768734 -0.7931312 -0.19534604
vn -0.5767997 -0.7931679 -0.1954142
vn -0.5767645 -0.7931984 -0.19539435
vn 0.5722839 -0.801353 -0.17413948
vn 0.57223535 -0.8013876 -0.17413959
vn 0.5722854 -0.8013626 -0.17409046
vn 0.5722823 -0.80134344 -0.17418851
vn 0.57233244 -0.8013183 -0.17413937
g SeparateMesh_NPC_Woof_Model_Woof_Eye_LOD1_0
f 3/3/3 2/2/2 1/1/1
f 4/4/4 3/3/3 1/1/1
f 2/2/2 5/5/5 1/1/1
f 6/6/6 4/4/4 1/1/1
f 5/5/5 7/7/7 1/1/1
f 8/8/8 6/6/6 1/1/1
f 7/7/7 9/9/9 1/1/1
f 9/9/9 8/8/8 1/1/1
f 12/12/12 11/11/11 10/10/10
f 11/11/11 13/13/13 10/10/10
f 14/14/14 12/12/12 10/10/10
f 13/13/13 15/15/15 10/10/10
f 16/16/16 14/14/14 10/10/10
f 15/15/15 17/17/17 10/10/10
f 18/18/18 16/16/16 10/10/10
f 17/17/17 18/18/18 10/10/10
f 21/21/21 20/20/20 19/19/19
f 20/20/20 22/22/22 19/19/19
f 23/23/23 21/21/21 19/19/19
f 22/22/22 23/23/23 19/19/19
f 26/26/26 25/25/25 24/24/24
f 25/25/25 27/27/27 24/24/24
f 28/28/28 26/26/26 24/24/24
f 27/27/27 28/28/28 24/24/24
