g SeparateMesh_NPC_Woof_Model_Woof_Eye
v -0.054776803 -0.48151946 0.91122955
v -0.05368533 -0.48295867 0.91442305
v -0.048266962 -0.4839129 0.9106458
v -0.054904588 -0.4806522 0.9076893
v -0.046810087 -0.4853228 0.9125933
v -0.05173679 -0.48482847 0.9169563
v -0.049122144 -0.4869463 0.9185822
v -0.048606973 -0.48309532 0.9079778
v -0.054055937 -0.4804415 0.90414846
v -0.043715034 -0.48555297 0.9080824
v -0.04462667 -0.48694715 0.9132983
v -0.047738988 -0.48308912 0.90530396
v -0.042301815 -0.48835066 0.91257185
v -0.046097152 -0.48910454 0.9191413
v -0.052314177 -0.48090813 0.9009536
v -0.04295804 -0.491092 0.91857857
v -0.049849708 -0.48200628 0.8984176
v -0.040011976 -0.4927143 0.9169497
v -0.045895565 -0.48389593 0.9033408
v -0.046903633 -0.48362845 0.89678836
v -0.043764506 -0.485616 0.8962256
v -0.04045845 -0.48915747 0.9106089
v -0.0375474 -0.4938124 0.9144133
v -0.035805643 -0.494279 0.9112185
v -0.04357071 -0.48529944 0.90261436
v -0.040739518 -0.4877742 0.8967845
v -0.03959045 -0.4891512 0.9079349
v -0.034957066 -0.4940682 0.90767753
v -0.041387305 -0.4869238 0.90331936
v -0.038124815 -0.48989204 0.89841056
v -0.036176346 -0.49176183 0.900944
v -0.039930433 -0.48833373 0.905267
v -0.035084806 -0.493201 0.90413725
v 0.054776803 -0.48151946 0.91122955
v 0.048266962 -0.4839129 0.9106458
v 0.05368533 -0.48295867 0.91442305
v 0.054904588 -0.4806522 0.9076893
v 0.046810087 -0.4853228 0.9125933
v 0.05173679 -0.48482847 0.9169563
v 0.049122144 -0.4869463 0.9185822
v 0.048606973 -0.48309532 0.9079778
v 0.054055937 -0.4804415 0.90414846
v 0.043715034 -0.48555297 0.9080824
v 0.04462667 -0.48694715 0.9132983
v 0.047738988 -0.48308912 0.90530396
v 0.042301815 -0.48835066 0.91257185
v 0.046097152 -0.48910454 0.9191413
v 0.052314177 -0.48090813 0.9009536
v 0.04295804 -0.491092 0.91857857
v 0.049849708 -0.48200628 0.8984176
v 0.040011976 -0.4927143 0.9169497
v 0.045895565 -0.48389593 0.9033408
v 0.046903633 -0.48362845 0.89678836
v 0.043764506 -0.485616 0.8962256
v 0.04045845 -0.48915747 0.9106089
v 0.0375474 -0.4938124 0.9144133
v 0.035805643 -0.494279 0.9112185
v 0.04357071 -0.48529944 0.90261436
v 0.040739518 -0.4877742 0.8967845
v 0.03959045 -0.4891512 0.9079349
v 0.034957066 -0.4940682 0.90767753
v 0.041387305 -0.4869238 0.90331936
v 0.038124815 -0.48989204 0.89841056
v 0.036176346 -0.49176183 0.900944
v 0.039930433 -0.48833373 0.905267
v 0.035084806 -0.493201 0.90413725
v -0.04160529 -0.49203712 0.91483176
v -0.042728413 -0.49108717 0.9142914
v -0.042062845 -0.49186346 0.9154787
v -0.041448716 -0.4919558 0.91403997
v -0.042698745 -0.49148223 0.9158076
v -0.041634966 -0.4916419 0.9133155
v -0.04334257 -0.49099487 0.9157301
v -0.04211424 -0.49117935 0.9128526
v -0.043821886 -0.49053222 0.91526717
v -0.04275811 -0.49069205 0.91277516
v -0.044008214 -0.4902182 0.91454285
v -0.04339402 -0.49031052 0.91310406
v -0.043851603 -0.4901373 0.91375107
v 0.049327094 -0.48555097 0.914841
v 0.048146017 -0.48622528 0.9140625
v 0.048915613 -0.48596686 0.9154029
v 0.049422096 -0.48531562 0.9140705
v 0.048297968 -0.486452 0.9156056
v 0.04917516 -0.485324 0.91329795
v 0.04763956 -0.48687643 0.9153948
v 0.048652478 -0.48557395 0.91273016
v 0.047116857 -0.48712638 0.91482705
v 0.04799407 -0.48599836 0.91251934
v 0.04686993 -0.48713478 0.91405445
v 0.047376413 -0.4864835 0.91272205
v 0.04696495 -0.4868994 0.913284
vt 0.03288603 0.64993775
vt 0.10238743 0.78569686
vt 0.3072921 0.61156476
vt 0.008644879 0.5
vt 0.3886496 0.6935078
vt 0.21102649 0.8933424
vt 0.348065 0.9628333
vt 0.27787715 0.5
vt 0.032462686 0.35000026
vt 0.5000049 0.5
vt 0.5000049 0.7234522
vt 0.3075797 0.38766372
vt 0.6111022 0.69381225
vt 0.5000048 0.9866451
vt 0.10205197 0.21447146
vt 0.65210414 0.9619738
vt 0.2102508 0.10609329
vt 0.78974986 0.8934883
vt 0.3888615 0.30568373
vt 0.34790725 0.037057757
vt 0.5000048 0.013354897
vt 0.69240713 0.61188805
vt 0.89794415 0.7850965
vt 0.9675354 0.64956486
vt 0.5000049 0.27617764
vt 0.6518878 0.03677261
vt 0.72212195 0.5
vt 0.99135303 0.5
vt 0.611356 0.30609
vt 0.78894895 0.10629022
vt 0.89759654 0.21389854
vt 0.6927134 0.3880278
vt 0.9671085 0.34965146
vt 0.9675354 0.64956486
vt 0.69240713 0.61188805
vt 0.89794415 0.7850965
vt 0.99135303 0.5
vt 0.6111022 0.69381225
vt 0.78974986 0.8934883
vt 0.65210414 0.9619738
vt 0.72212195 0.5
vt 0.9671085 0.34965146
vt 0.5000049 0.5
vt 0.5000049 0.7234522
vt 0.6927134 0.3880278
vt 0.3886496 0.6935078
vt 0.5000048 0.9866451
vt 0.89759654 0.21389854
vt 0.348065 0.9628333
vt 0.78894895 0.10629022
vt 0.21102649 0.8933424
vt 0.611356 0.30609
vt 0.6518878 0.03677261
vt 0.5000048 0.013354897
vt 0.3072921 0.61156476
vt 0.10238743 0.78569686
vt 0.03288603 0.64993775
vt 0.5000049 0.27617764
vt 0.34790725 0.037057757
vt 0.27787715 0.5
vt 0.008644879 0.5
vt 0.3888615 0.30568373
vt 0.2102508 0.10609329
vt 0.10205197 0.21447146
vt 0.3075797 0.38766372
vt 0.032462686 0.35000026
vt 0.13771906 0.9493703
vt 0.088073745 0.92043763
vt 0.11673645 0.9703534
vt 0.1453992 0.92070776
vt 0.088073745 0.9780336
vt 0.13771906 0.8920452
vt 0.05941112 0.9703534
vt 0.11673645 0.8710621
vt 0.03842848 0.9493703
vt 0.088073745 0.8633819
vt 0.030748349 0.92070776
vt 0.05941112 0.8710621
vt 0.03842848 0.8920452
vt 0.13771906 0.9493703
vt 0.088073745 0.92043763
vt 0.11673645 0.9703534
vt 0.1453992 0.92070776
vt 0.088073745 0.9780336
vt 0.13771906 0.8920452
vt 0.05941112 0.9703534
vt 0.11673645 0.8710621
vt 0.03842848 0.9493703
vt 0.088073745 0.8633819
vt 0.030748349 0.92070776
vt 0.05941112 0.8710621
vt 0.03842848 0.8920452
vn -0.3510252 -0.9031578 -0.24715856
vn -0.36985752 -0.8758839 -0.30989167
vn -0.40060964 -0.876715 -0.26623827
vn -0.35390416 -0.9185524 -0.17610623
vn -0.45014194 -0.8270682 -0.3366459
vn -0.40295485 -0.8418363 -0.35908082
vn -0.45073897 -0.8006421 -0.3947234
vn -0.38970912 -0.90362924 -0.17771064
vn -0.36551884 -0.9249376 -0.10433773
vn -0.5490274 -0.81616205 -0.18013489
vn -0.52085716 -0.7732688 -0.36161193
vn -0.4182622 -0.9039512 -0.089044094
vn -0.59727746 -0.7282256 -0.33607614
vn -0.5113557 -0.7595225 -0.40204588
vn -0.39706448 -0.9168638 -0.041238837
vn -0.57211536 -0.7190268 -0.39456874
vn -0.44024083 -0.8978423 0.008191389
vn -0.6281823 -0.6904267 -0.35874495
vn -0.48189363 -0.8760448 -0.018002516
vn -0.49522436 -0.8676312 0.044372648
vn -0.5571158 -0.8288374 0.051482208
vn -0.6616243 -0.701352 -0.2652522
vn -0.67217326 -0.6725748 -0.30955803
vn -0.7044158 -0.6655383 -0.24669248
vn -0.5576556 -0.8300363 0.00774313
vn -0.6166074 -0.78601 0.044536218
vn -0.6902155 -0.70172465 -0.17659268
vn -0.7174835 -0.6741286 -0.17540799
vn -0.6290287 -0.7771867 -0.017430266
vn -0.6654519 -0.7463919 0.0085449545
vn -0.69938123 -0.7135759 -0.040930454
vn -0.67927665 -0.7285796 -0.08806266
vn -0.718896 -0.6873125 -0.10387549
vn 0.35102803 -0.9031561 -0.24716052
vn 0.40060762 -0.87671536 -0.26624
vn 0.36986187 -0.8758801 -0.30989707
vn 0.35390314 -0.91855216 -0.1761094
vn 0.4501409 -0.8270682 -0.33664724
vn 0.4029568 -0.84183156 -0.35908976
vn 0.45073995 -0.8006402 -0.39472625
vn 0.38970625 -0.90363 -0.17771266
vn 0.36551622 -0.92493814 -0.10434242
vn 0.549024 -0.81616336 -0.18013866
vn 0.5208561 -0.7732692 -0.36161277
vn 0.4182605 -0.90395176 -0.08904682
vn 0.5972739 -0.7282272 -0.33607897
vn 0.5113556 -0.759522 -0.40204686
vn 0.39706093 -0.9168652 -0.041240446
vn 0.57211226 -0.71902746 -0.39457196
vn 0.4402381 -0.8978437 0.008193792
vn 0.62818116 -0.6904267 -0.358747
vn 0.48189193 -0.8760456 -0.018005107
vn 0.4952218 -0.8676326 0.044371795
vn 0.5571119 -0.8288402 0.0514804
vn 0.6616227 -0.7013534 -0.26525244
vn 0.6721789 -0.67257005 -0.3095561
vn 0.70441884 -0.66553473 -0.2466934
vn 0.55765337 -0.8300379 0.0077407416
vn 0.61660516 -0.7860119 0.044535097
vn 0.69021446 -0.7017238 -0.17660005
vn 0.7174825 -0.6741276 -0.17541617
vn 0.62903017 -0.7771854 -0.017434051
vn 0.6654571 -0.7463872 0.008545058
vn 0.69938606 -0.7135713 -0.04092844
vn 0.67927855 -0.7285766 -0.08807305
vn 0.71889573 -0.68731195 -0.10388081
vn -0.5768754 -0.79313266 -0.1953338
vn -0.5768188 -0.7931635 -0.19537596
vn -0.57676136 -0.79322165 -0.19530897
vn -0.57677454 -0.793176 -0.1954556
vn -0.57674754 -0.7932123 -0.19538797
vn -0.57673234 -0.79321337 -0.19542876
vn -0.5768783 -0.7931269 -0.19534872
vn -0.5767765 -0.7931866 -0.19540702
vn -0.57691044 -0.793096 -0.19537921
vn -0.57686454 -0.79312813 -0.1953842
vn -0.57692957 -0.79311436 -0.19524816
vn -0.5767925 -0.79315525 -0.19548737
vn -0.5767824 -0.7931984 -0.19534177
vn 0.57226163 -0.8013704 -0.17413281
vn 0.5722952 -0.8013414 -0.17415518
vn 0.5722924 -0.80135596 -0.17409743
vn 0.5722806 -0.8013387 -0.17421624
vn 0.57229626 -0.8013467 -0.17412773
vn 0.5723681 -0.80128235 -0.174188
vn 0.5723459 -0.80131435 -0.1741133
vn 0.57236075 -0.80129343 -0.17416045
vn 0.5723127 -0.801333 -0.17413655
vn 0.57229775 -0.8013362 -0.17417082
vn 0.57222605 -0.80137604 -0.17422327
vn 0.5722655 -0.8013702 -0.17412047
vn 0.5722349 -0.8013802 -0.1741753
g SeparateMesh_NPC_Woof_Model_Woof_Eye_0
f 3/3/3 2/2/2 1/1/1
f 3/3/3 1/1/1 4/4/4
f 3/3/3 5/5/5 2/2/2
f 5/5/5 6/6/6 2/2/2
f 7/7/7 6/6/6 5/5/5
f 8/8/8 3/3/3 4/4/4
f 8/8/8 4/4/4 9/9/9
f 5/5/5 3/3/3 10/10/10
f 3/3/3 8/8/8 10/10/10
f 5/5/5 11/11/11 7/7/7
f 11/11/11 5/5/5 10/10/10
f 8/8/8 12/12/12 10/10/10
f 12/12/12 8/8/8 9/9/9
f 13/13/13 11/11/11 10/10/10
f 11/11/11 14/14/14 7/7/7
f 11/11/11 13/13/13 14/14/14
f 12/12/12 9/9/9 15/15/15
f 13/13/13 16/16/16 14/14/14
f 12/12/12 15/15/15 17/17/17
f 13/13/13 18/18/18 16/16/16
f 19/19/19 12/12/12 17/17/17
f 12/12/12 19/19/19 10/10/10
f 19/19/19 17/17/17 20/20/20
f 19/19/19 20/20/20 21/21/21
f 13/13/13 22/22/22 18/18/18
f 22/22/22 13/13/13 10/10/10
f 22/22/22 23/23/23 18/18/18
f 22/22/22 24/24/24 23/23/23
f 25/25/25 19/19/19 21/21/21
f 19/19/19 25/25/25 10/10/10
f 25/25/25 21/21/21 26/26/26
f 22/22/22 27/27/27 24/24/24
f 27/27/27 22/22/22 10/10/10
f 27/27/27 28/28/28 24/24/24
f 29/29/29 25/25/25 26/26/26
f 25/25/25 29/29/29 10/10/10
f 29/29/29 26/26/26 30/30/30
f 29/29/29 30/30/30 31/31/31
f 27/27/27 32/32/32 28/28/28
f 32/32/32 27/27/27 10/10/10
f 29/29/29 32/32/32 10/10/10
f 32/32/32 29/29/29 31/31/31
f 32/32/32 33/33/33 28/28/28
f 32/32/32 31/31/31 33/33/33
f 36/36/36 35/35/35 34/34/34
f 34/34/34 35/35/35 37/37/37
f 38/38/38 35/35/35 36/36/36
f 39/39/39 38/38/38 36/36/36
f 39/39/39 40/40/40 38/38/38
f 35/35/35 41/41/41 37/37/37
f 37/37/37 41/41/41 42/42/42
f 35/35/35 38/38/38 43/43/43
f 41/41/41 35/35/35 43/43/43
f 44/44/44 38/38/38 40/40/40
f 38/38/38 44/44/44 43/43/43
f 45/45/45 41/41/41 43/43/43
f 41/41/41 45/45/45 42/42/42
f 44/44/44 46/46/46 43/43/43
f 47/47/47 44/44/44 40/40/40
f 46/46/46 44/44/44 47/47/47
f 42/42/42 45/45/45 48/48/48
f 49/49/49 46/46/46 47/47/47
f 48/48/48 45/45/45 50/50/50
f 51/51/51 46/46/46 49/49/49
f 45/45/45 52/52/52 50/50/50
f 52/52/52 45/45/45 43/43/43
f 50/50/50 52/52/52 53/53/53
f 53/53/53 52/52/52 54/54/54
f 55/55/55 46/46/46 51/51/51
f 46/46/46 55/55/55 43/43/43
f 56/56/56 55/55/55 51/51/51
f 57/57/57 55/55/55 56/56/56
f 52/52/52 58/58/58 54/54/54
f 58/58/58 52/52/52 43/43/43
f 54/54/54 58/58/58 59/59/59
f 60/60/60 55/55/55 57/57/57
f 55/55/55 60/60/60 43/43/43
f 61/61/61 60/60/60 57/57/57
f 58/58/58 62/62/62 59/59/59
f 62/62/62 58/58/58 43/43/43
f 59/59/59 62/62/62 63/63/63
f 63/63/63 62/62/62 64/64/64
f 60/60/60 65/65/65 43/43/43
f 65/65/65 60/60/60 61/61/61
f 65/65/65 62/62/62 43/43/43
f 62/62/62 65/65/65 64/64/64
f 66/66/66 65/65/65 61/61/61
f 64/64/64 65/65/65 66/66/66
f 69/69/69 68/68/68 67/67/67
f 67/67/67 68/68/68 70/70/70
f 71/71/71 68/68/68 69/69/69
f 70/70/70 68/68/68 72/72/72
f 73/73/73 68/68/68 71/71/71
f 72/72/72 68/68/68 74/74/74
f 75/75/75 68/68/68 73/73/73
f 74/74/74 68/68/68 76/76/76
f 77/77/77 68/68/68 75/75/75
f 76/76/76 68/68/68 78/78/78
f 79/79/79 68/68/68 77/77/77
f 78/78/78 68/68/68 79/79/79
f 82/82/82 81/81/81 80/80/80
f 80/80/80 81/81/81 83/83/83
f 84/84/84 81/81/81 82/82/82
f 83/83/83 81/81/81 85/85/85
f 86/86/86 81/81/81 84/84/84
f 85/85/85 81/81/81 87/87/87
f 88/88/88 81/81/81 86/86/86
f 87/87/87 81/81/81 89/89/89
f 90/90/90 81/81/81 88/88/88
f 89/89/89 81/81/81 91/91/91
f 92/92/92 81/81/81 90/90/90
f 91/91/91 81/81/81 92/92/92
